<svg height="600" viewBox="0 0 800 600" width="800" xmlns="http://www.w3.org/2000/svg">
<rect fill="#e1e1db" height="600" width="800" x="0" y="0"/>
<text alignment-baseline="start" font-family="Arial" font-size="x-large" text-anchor="middle" x="400" y="37.5">
Testing testing one two three
</text>
<text alignment-baseline="start" font-family="Arial" font-size="large" text-anchor="middle" x="400" y="75">
X:  this is x
</text>
<text alignment-baseline="start" font-family="Arial" font-size="large" text-anchor="middle" x="400" y="100">
Y:  this is y
</text>
<text alignment-baseline="start" font-family="Arial" text-anchor="middle" x="150" y="510">
0.00000
</text>
<text alignment-baseline="start" font-family="Arial" text-anchor="middle" x="250.2004" y="510">
0.00020
</text>
<text alignment-baseline="start" font-family="Arial" text-anchor="middle" x="350.4008" y="510">
0.00040
</text>
<text alignment-baseline="start" font-family="Arial" text-anchor="middle" x="450.6012" y="510">
0.00060
</text>
<text alignment-baseline="start" font-family="Arial" text-anchor="middle" x="550.8016" y="510">
0.00080
</text>
<text alignment-baseline="start" font-family="Arial" text-anchor="middle" x="651.00195" y="510">
0.00100
</text>
<text alignment-baseline="middle" font-family="Arial" text-anchor="end" x="120" y="450">
0.00000
</text>
<text alignment-baseline="middle" font-family="Arial" text-anchor="end" x="120" y="389.87976">
0.00020
</text>
<text alignment-baseline="middle" font-family="Arial" text-anchor="end" x="120" y="329.75952">
0.00040
</text>
<text alignment-baseline="middle" font-family="Arial" text-anchor="end" x="120" y="269.63928">
0.00060
</text>
<text alignment-baseline="middle" font-family="Arial" text-anchor="end" x="120" y="209.51904">
0.00080
</text>
<text alignment-baseline="middle" font-family="Arial" text-anchor="end" x="120" y="149.39883">
0.00100
</text>
<path d="M150,150 L150,450 L650,450" fill="none" stroke="black" stroke-width="3"/>
<polyline fill="none" points="151.002,449.3988
152.00401,448.7976
153.00601,448.19638
154.00801,447.59518
155.01003,446.994
156.01202,446.3928
157.01402,445.7916
158.01604,445.19037
159.01804,444.58917
160.02003,443.98798
161.02205,443.38678
162.02405,442.78558
163.02605,442.18436
164.02806,441.58316
165.03006,440.98196
166.03206,440.38077
167.03407,439.77957
168.03607,439.17834
169.03807,438.57715
170.04008,437.97595
171.04208,437.37476
172.04408,436.77356
173.0461,436.17233
174.0481,435.57114
175.0501,434.96994
176.05211,434.36874
177.05411,433.76755
178.0561,433.16632
179.05812,432.56512
180.06012,431.96393
181.06212,431.36273
182.06413,430.76154
183.06613,430.1603
184.06815,429.5591
185.07014,428.95792
186.07214,428.35672
187.07416,427.75552
188.07614,427.1543
189.07816,426.5531
190.08015,425.9519
191.08217,425.3507
192.08417,424.7495
193.08617,424.1483
194.08818,423.5471
195.09018,422.9459
196.0922,422.3447
197.0942,421.7435
198.09619,421.14227
199.09819,420.54108
200.10019,419.93988
201.1022,419.33868
202.1042,418.7375
203.10622,418.13626
204.10822,417.53506
205.11023,416.93387
206.11223,416.33267
207.11423,415.73148
208.11624,415.13025
209.11823,414.52905
210.12024,413.92786
211.12224,413.32666
212.12425,412.72546
213.12625,412.12427
214.12827,411.52304
215.13025,410.92184
216.13226,410.32065
217.13428,409.71945
218.13628,409.11823
219.13828,408.51703
220.14029,407.91583
221.14229,407.31464
222.14429,406.71344
223.1463,406.1122
224.1483,405.51102
225.1503,404.90982
226.1523,404.30862
227.1543,403.70743
228.15631,403.1062
229.15831,402.505
230.16031,401.9038
231.16232,401.3026
232.16434,400.70142
233.16632,400.10022
234.16833,399.499
235.17035,398.8978
236.17233,398.2966
237.17435,397.6954
238.17636,397.09418
239.17836,396.49298
240.18036,395.89178
241.18237,395.2906
242.18437,394.6894
243.18637,394.08817
244.18839,393.48697
245.19038,392.88577
246.19238,392.28458
247.19438,391.68338
248.19638,391.08215
249.1984,390.48096
250.2004,389.87976
251.2024,389.27856
252.2044,388.67737
253.20642,388.07617
254.2084,387.47495
255.21042,386.87375
256.21243,386.27255
257.21442,385.67136
258.21643,385.07013
259.21844,384.46893
260.22046,383.86774
261.22244,383.26654
262.22446,382.66534
263.22644,382.06415
264.22845,381.46292
265.23047,380.86172
266.23248,380.26053
267.23447,379.6593
268.23645,379.0581
269.23846,378.4569
270.24048,377.8557
271.2425,377.25452
272.24448,376.65332
273.2465,376.0521
274.2485,375.4509
275.2505,374.8497
276.2525,374.2485
277.25452,373.64728
278.25653,373.04608
279.2585,372.4449
280.2605,371.8437
281.2625,371.2425
282.26453,370.6413
283.26654,370.0401
284.26855,369.43887
285.27054,368.83768
286.27255,368.23648
287.27454,367.63528
288.27655,367.03406
289.27856,366.43286
290.28058,365.83167
291.28256,365.23047
292.28458,364.62927
293.28656,364.02808
294.28857,363.42685
295.2906,362.82565
296.2926,362.22446
297.2946,361.62326
298.2966,361.02203
299.29858,360.42084
300.3006,359.81964
301.3026,359.21844
302.3046,358.61725
303.3066,358.01605
304.3086,357.41486
305.3106,356.81363
306.31262,356.21243
307.31464,355.61124
308.31662,355.01
309.31863,354.4088
310.32062,353.80762
311.32263,353.20642
312.32465,352.60522
313.32666,352.00403
314.32867,351.4028
315.33066,350.8016
316.33264,350.2004
317.33466,349.59918
318.33667,348.998
319.33868,348.3968
320.3407,347.7956
321.34268,347.1944
322.34467,346.5932
323.34668,345.992
324.3487,345.39078
325.3507,344.78958
326.35272,344.1884
327.3547,343.5872
328.35672,342.98596
329.3587,342.38477
330.36072,341.78357
331.36273,341.18237
332.36475,340.58118
333.36673,339.97998
334.36874,339.37875
335.37073,338.77756
336.37274,338.17636
337.37476,337.57516
338.37677,336.97394
339.37875,336.37274
340.38077,335.77155
341.38275,335.17035
342.38477,334.56915
343.38678,333.96796
344.38876,333.36676
345.39078,332.76553
346.39276,332.16434
347.39478,331.56314
348.3968,330.96194
349.3988,330.36072
350.4008,329.75952
351.4028,329.15833
352.4048,328.55713
353.4068,327.95593
354.4088,327.35474
355.41083,326.7535
356.41284,326.1523
357.41483,325.55112
358.4168,324.9499
359.41882,324.3487
360.42084,323.7475
361.42285,323.1463
362.42487,322.5451
363.42688,321.9439
364.42883,321.3427
365.43085,320.74152
366.43286,320.1403
367.43488,319.5391
368.4369,318.93787
369.43887,318.33667
370.4409,317.73547
371.44287,317.13428
372.4449,316.53308
373.4469,315.9319
374.4489,315.3307
375.4509,314.72946
376.4529,314.12827
377.4549,313.52707
378.4569,312.92584
379.45892,312.32465
380.46094,311.72345
381.46292,311.12225
382.46494,310.52106
383.46692,309.91986
384.46893,309.31863
385.47095,308.71744
386.47293,308.11624
387.47495,307.515
388.47693,306.91382
389.47894,306.31262
390.48096,305.71143
391.48297,305.11023
392.485,304.50903
393.48697,303.90784
394.48895,303.30664
395.49097,302.7054
396.49298,302.1042
397.495,301.50302
398.497,300.9018
399.499,300.3006
400.501,299.6994
401.503,299.0982
402.505,298.497
403.50702,297.8958
404.50903,297.2946
405.51102,296.69342
406.51303,296.0922
407.51505,295.49097
408.51703,294.8898
409.51904,294.28857
410.52103,293.68738
411.52304,293.08618
412.52502,292.485
413.52704,291.8838
414.52905,291.2826
415.53107,290.68137
416.53305,290.08017
417.53506,289.47897
418.53708,288.87775
419.5391,288.27655
420.54108,287.67535
421.5431,287.07416
422.5451,286.47296
423.54712,285.87177
424.54907,285.27057
425.5511,284.66934
426.5531,284.06815
427.5551,283.46692
428.5571,282.86572
429.5591,282.26453
430.56113,281.66333
431.5631,281.06213
432.56512,280.46094
433.56714,279.85974
434.56915,279.2585
435.57114,278.65735
436.57315,278.05612
437.57516,277.4549
438.57715,276.8537
439.57913,276.2525
440.58115,275.6513
441.58316,275.0501
442.58517,274.4489
443.58716,273.84772
444.58917,273.24652
445.5912,272.6453
446.5932,272.04407
447.59518,271.4429
448.5972,270.84167
449.5992,270.24048
450.6012,269.63928
451.6032,269.0381
452.6052,268.4369
453.6072,267.8357
454.6092,267.2345
455.6112,266.6333
456.61322,266.03207
457.61523,265.43085
458.61722,264.82968
459.61923,264.22845
460.62125,263.62726
461.62326,263.02606
462.62524,262.42487
463.62726,261.82367
464.62927,261.22247
465.6313,260.62125
466.63324,260.02005
467.63525,259.41885
468.63727,258.81763
469.63928,258.21643
470.64127,257.61523
471.64328,257.01404
472.6453,256.41284
473.64728,255.81165
474.6493,255.21043
475.6513,254.60922
476.65332,254.00803
477.6553,253.40683
478.65732,252.80562
479.65933,252.20442
480.66132,251.60321
481.6633,251.00201
482.6653,250.40082
483.66733,249.7996
484.66934,249.1984
485.67133,248.59721
486.67334,247.996
487.67535,247.39479
488.67737,246.7936
489.67935,246.1924
490.68137,245.59119
491.68338,244.98999
492.68536,244.3888
493.68738,243.78758
494.68936,243.18639
495.69138,242.58517
496.69336,241.984
497.69537,241.38278
498.6974,240.78157
499.6994,240.18036
500.7014,239.57918
501.7034,238.97797
502.7054,238.37675
503.70743,237.77556
504.7094,237.17436
505.71143,236.57317
506.71344,235.97195
507.71545,235.37074
508.7174,234.76956
509.71942,234.16835
510.72144,233.56714
511.72345,232.96594
512.72546,232.36475
513.7274,231.76353
514.7295,231.16234
515.73145,230.56114
516.73346,229.95993
517.7355,229.35873
518.7375,228.75752
519.7395,228.15633
520.74146,227.55513
521.7435,226.95392
522.7455,226.3527
523.74744,225.75153
524.7495,225.15031
525.75146,224.5491
526.75354,223.9479
527.7555,223.34671
528.7575,222.7455
529.7595,222.1443
530.76154,221.54309
531.76355,220.9419
532.7655,220.3407
533.7676,219.73949
534.76953,219.13828
535.77155,218.5371
536.77356,217.93588
537.7755,217.33467
538.7775,216.73349
539.77954,216.13228
540.78156,215.53107
541.78357,214.92987
542.7855,214.32867
543.7876,213.72746
544.78955,213.12627
545.7916,212.52505
546.7936,211.92387
547.7956,211.32266
548.7976,210.72145
549.7996,210.12024
550.8016,209.51906
551.8036,208.91785
552.8056,208.31664
553.8076,207.71544
554.8096,207.11424
555.81165,206.51305
556.8136,205.91183
557.8156,205.31064
558.8176,204.70944
559.81964,204.10823
560.82166,203.50702
561.8236,202.90584
562.8257,202.30463
563.82764,201.70341
564.82965,201.10222
565.83167,200.50102
566.8336,199.89981
567.8357,199.29861
568.83765,198.6974
569.83966,198.0962
570.8417,197.49501
571.8437,196.8938
572.8457,196.29259
573.84766,195.6914
574.84973,195.0902
575.8517,194.48898
576.85376,193.88779
577.8557,193.28659
578.85767,192.6854
579.85974,192.08417
580.8617,191.483
581.8637,190.88177
582.8657,190.28058
583.86774,189.67935
584.86975,189.07819
585.8717,188.47696
586.8738,187.87576
587.87573,187.27457
588.87775,186.67337
589.87976,186.07217
590.8818,185.47095
591.8838,184.86975
592.88574,184.26855
593.88776,183.66736
594.8898,183.06613
595.8918,182.46494
596.8938,181.86374
597.89575,181.26254
598.8978,180.66135
599.8998,180.06015
600.9018,179.45892
601.9038,178.85773
602.9058,178.25653
603.90784,177.65533
604.9098,177.05414
605.91187,176.45291
606.9138,175.85172
607.9158,175.25052
608.91785,174.64932
609.9198,174.0481
610.9219,173.4469
611.9238,172.8457
612.92584,172.2445
613.92786,171.64331
614.9299,171.04208
615.9319,170.44089
616.93384,169.83969
617.9359,169.2385
618.93787,168.63727
619.9399,168.0361
620.9419,167.43488
621.94385,166.83368
622.94586,166.23248
623.9479,165.63129
624.9499,165.03006
625.9519,164.42886
626.95386,163.82767
627.95593,163.22647
628.9579,162.62527
629.95996,162.02405
630.9619,161.42288
631.9639,160.82166
632.96594,160.22046
633.96796,159.61923
634.97,159.01807
635.9719,158.41684
636.97394,157.81564
637.97595,157.21445
638.9779,156.61325
639.98,156.01205
640.98193,155.41083
641.984,154.80963
642.98596,154.2084
643.9879,153.60724
644.99,153.00604
645.99194,152.40485
646.994,151.80362
647.996,151.20242
648.998,150.60123
650,150
" stroke="#0074d9" stroke-width="3"/>
</svg>