<svg height="600" viewBox="0 0 800 600" width="800" xmlns="http://www.w3.org/2000/svg">
<rect fill="#e1e1db" height="600" width="800" x="0" y="0"/>
<text alignment-baseline="start" font-family="Arial" font-size="x-large" text-anchor="middle" x="400" y="37.5">
Testing testing one two three
</text>
<text alignment-baseline="start" font-family="Arial" font-size="large" text-anchor="middle" x="400" y="75">
X:  this is x
</text>
<text alignment-baseline="start" font-family="Arial" font-size="large" text-anchor="middle" x="400" y="100">
Y:  this is y
</text>
<text alignment-baseline="start" font-family="Arial" font-size="large" text-anchor="middle" x="400" y="570">
X
</text>
<text alignment-baseline="start" font-family="Arial" font-size="large" text-anchor="middle" x="30" y="300">
Y
</text>
<path d="M150,150 L150,450 L650,450" fill="none" stroke="black" stroke-width="3"/>
<text alignment-baseline="start" font-family="Arial" text-anchor="middle" x="150" y="510">
0
</text>
<text alignment-baseline="start" font-family="Arial" text-anchor="middle" x="250.20041" y="510">
20000
</text>
<text alignment-baseline="start" font-family="Arial" text-anchor="middle" x="350.40082" y="510">
40000
</text>
<text alignment-baseline="start" font-family="Arial" text-anchor="middle" x="450.6012" y="510">
60000
</text>
<text alignment-baseline="start" font-family="Arial" text-anchor="middle" x="550.80164" y="510">
80000
</text>
<text alignment-baseline="start" font-family="Arial" text-anchor="middle" x="651.00195" y="510">
100000
</text>
<text alignment-baseline="middle" font-family="Arial" text-anchor="end" x="120" y="450">
-0.150
</text>
<text alignment-baseline="middle" font-family="Arial" text-anchor="end" x="120" y="412.4997">
-0.100
</text>
<text alignment-baseline="middle" font-family="Arial" text-anchor="end" x="120" y="374.9994">
-0.050
</text>
<text alignment-baseline="middle" font-family="Arial" text-anchor="end" x="120" y="337.49908">
0.000
</text>
<text alignment-baseline="middle" font-family="Arial" text-anchor="end" x="120" y="299.99878">
0.050
</text>
<text alignment-baseline="middle" font-family="Arial" text-anchor="end" x="120" y="262.4985">
0.100
</text>
<text alignment-baseline="middle" font-family="Arial" text-anchor="end" x="120" y="224.9982">
0.150
</text>
<text alignment-baseline="middle" font-family="Arial" text-anchor="end" x="120" y="187.49792">
0.200
</text>
<text alignment-baseline="middle" font-family="Arial" text-anchor="end" x="120" y="149.99759">
0.250
</text>
<text alignment-baseline="middle" font-family="Arial" font-size="large" text-anchor="start" x="675" y="150">
pop jks
</text>
<circle cx="680" cy="131.25" fill="#ff0000" r="5"/>
<polyline fill="none" points="150,299.99976
151.002,292.51218
152.00401,285.09943
153.00601,277.83554
154.00801,270.79315
155.01003,264.04254
156.01202,257.65125
157.01402,251.68303
158.01604,246.1976
159.01804,241.24974
160.02003,236.88893
161.02205,233.15866
162.02405,230.09625
163.02605,227.7323
164.02806,226.09042
165.03006,225.18703
166.03206,225.03113
167.03407,225.62427
168.03607,226.96059
169.03807,229.02666
170.04008,231.8019
171.04208,235.25853
172.04408,239.36203
173.0461,244.0714
174.0481,249.3396
175.0501,255.11397
176.05211,261.33685
177.05411,267.94598
178.0561,274.87543
179.05812,282.0559
180.06012,289.41565
181.06213,296.88116
182.06413,304.37784
183.06613,311.83075
184.06813,319.16547
185.07014,326.30872
186.07214,333.18903
187.07414,339.7378
188.07616,345.88947
189.07816,351.5826
190.08015,356.76038
191.08217,361.371
192.08417,365.36847
193.08617,368.71274
194.08818,371.37048
195.09018,373.3151
196.09218,374.52716
197.0942,374.99457
198.09619,374.71268
199.09819,373.68427
200.1002,371.91965
201.1022,369.4364
202.10422,366.25937
203.10622,362.4203
204.10822,357.95752
205.11021,352.91568
206.11223,347.34512
207.11423,341.30148
208.11623,334.84515
209.11824,328.0407
210.12024,320.95605
211.12224,313.66205
212.12425,306.23148
213.12625,298.73868
214.12827,291.25848
215.13025,283.8656
216.13226,276.63397
217.13428,269.63574
218.13626,262.94092
219.13828,256.61642
220.14029,250.72534
221.14227,245.32664
222.14429,240.47417
223.1463,236.21648
224.14828,232.59608
225.1503,229.64919
226.15231,227.40518
227.15431,225.88654
228.15631,225.1084
229.15833,225.07854
230.16031,225.79727
231.16232,227.25745
232.16434,229.44437
233.16632,232.33633
234.16833,235.90433
235.17035,240.11272
236.17233,244.91954
237.17435,250.27666
238.17636,256.1306
239.17838,262.4229
240.18036,269.0906
241.18237,276.0672
242.18436,283.28284
243.18637,290.6656
244.18839,298.1416
245.19037,305.6361
246.19238,313.0744
247.1944,320.38193
248.19638,327.4859
249.1984,334.31525
250.20041,340.80164
251.2024,346.88043
252.2044,352.49075
253.20642,357.57666
254.20844,362.08725
255.21042,365.97745
256.21243,369.20847
257.21442,371.74792
258.21643,373.57056
259.21844,374.65805
260.22043,374.9996
261.22244,374.5918
262.22446,373.43866
263.22644,371.55176
264.22845,368.94992
265.23047,365.65918
266.23245,361.71234
267.23447,357.149
268.23648,352.01453
269.2385,346.36035
270.24048,340.24304
271.2425,333.72354
272.24448,326.86716
273.2465,319.74225
274.2485,312.4201
275.2505,304.97394
276.2525,297.47797
277.25452,290.00726
278.25653,282.63635
279.25854,275.4389
280.2605,268.48697
281.2625,261.8498
282.26453,255.59389
283.26654,249.7816
284.26855,244.47108
285.27054,239.71542
286.27252,235.56207
287.27454,232.0526
288.27655,229.222
289.27856,227.09859
290.28058,225.7036
291.28256,225.05095
292.28455,225.14716
293.28656,225.99124
294.28857,227.57483
295.2906,229.88205
296.2926,232.88988
297.2946,236.56822
298.29657,240.88037
299.29858,245.78325
300.3006,251.22777
301.3026,257.15967
302.30463,263.51953
303.3066,270.24396
304.30862,277.26575
305.3106,284.51456
306.31262,291.91818
307.31464,299.40247
308.31665,306.89282
309.31866,314.31427
310.32062,321.59265
311.32263,328.65533
312.32465,335.43173
313.32666,341.85406
314.32867,347.8581
315.33066,353.38406
316.33264,358.37665
317.33466,362.7859
318.33667,366.56784
319.33868,369.68457
320.3407,372.10513
321.34268,373.8052
322.34467,374.76785
323.3467,374.98343
324.3487,374.4498
325.3507,373.17227
326.35272,371.16364
327.3547,368.44397
328.35675,365.04037
329.3587,360.98703
330.36072,356.32422
331.36273,351.09866
332.36475,345.36252
333.36676,339.17313
334.3687,332.59247
335.37073,325.686
336.37274,318.5229
337.37476,311.1747
338.37677,303.71484
339.37875,296.21805
340.38074,288.75885
341.38275,281.412
342.38477,274.25085
343.38678,267.347
344.3888,260.76953
345.39078,254.5839
346.39276,248.85204
347.39478,243.63126
348.3968,238.97366
349.3988,234.92593
350.40082,231.5283
351.4028,228.81483
352.4048,226.8126
353.40683,225.54166
354.4088,225.01466
355.41083,225.23691
356.41284,226.20616
357.41483,227.91273
358.41687,230.33957
359.41882,233.46237
360.42084,237.25006
361.42285,241.66473
362.42487,246.66226
363.42688,252.19273
364.42883,258.20074
365.43085,264.62653
366.43286,271.40576
367.43488,278.47067
368.4369,285.75073
369.43887,293.17297
370.44086,300.66357
371.44287,308.14758
372.4449,315.55017
373.4469,322.79736
374.4489,329.81665
375.4509,336.53812
376.45288,342.89453
377.4549,348.82236
378.4569,354.26233
379.45892,359.16006
380.46094,363.4668
381.46292,367.13934
382.4649,370.14105
383.46695,372.44196
384.46893,374.01898
385.47095,374.8565
386.47296,374.94604
387.47495,374.28674
388.477,372.8852
389.47894,370.75543
390.48096,367.91864
391.48297,364.40326
392.485,360.2444
393.487,355.48352
394.48895,350.1684
395.49097,344.3519
396.49298,338.09225
397.495,331.45203
398.497,324.4975
399.499,317.29834
400.50098,309.9262
401.503,302.4549
402.505,294.95905
403.50702,287.51355
404.50903,280.19296
405.51102,273.07013
406.51303,266.2164
407.515,259.7002
408.51706,253.58669
409.51904,247.93698
410.52103,242.8074
411.52304,238.24927
412.52505,234.3081
413.52707,231.02333
414.52905,228.42778
415.53107,226.54732
416.53305,225.40077
417.53506,224.9996
418.53708,225.34782
419.53906,226.44191
420.54108,228.27097
421.5431,230.81674
422.54507,234.05376
423.54712,237.9497
424.5491,242.46553
425.5511,247.55632
426.5531,253.1711
427.5551,259.25378
428.55713,265.7436
429.5591,272.57556
430.56113,279.68164
431.5631,286.99075
432.56512,294.42984
433.56714,301.9246
434.56912,309.39996
435.57114,316.78156
436.57315,323.99545
437.57513,330.9696
438.57718,337.6343
439.57916,343.92288
440.58115,349.77267
441.58316,355.12518
442.58517,359.92688
443.5872,364.1298
444.58917,367.69186
445.5912,370.57767
446.59317,372.75824
447.59518,374.21185
448.5972,374.92398
449.59918,374.88745
450.6012,374.10272
451.6032,372.5775
452.6052,370.32715
453.60724,367.3741
454.60922,363.74796
455.6112,359.48474
456.61322,354.62723
457.61523,349.22385
458.61725,343.32864
459.61923,337.00064
460.62125,330.3028
461.62323,323.3022
462.62524,316.06873
463.62726,308.67474
464.62924,301.1942
465.63126,293.7016
466.63327,286.2719
467.63525,278.9794
468.6373,271.8969
469.63928,265.09534
470.64127,258.6424
471.6433,252.6026
472.6453,247.03656
473.64728,241.99971
474.64932,237.54222
475.6513,233.70892
476.65332,230.53787
477.6553,228.06097
478.65732,226.30283
479.6593,225.28099
480.66132,225.00575
481.66336,225.47984
482.6653,226.69849
483.66733,228.64949
484.66934,231.3135
485.67133,234.66373
486.67337,238.66689
487.67535,243.2827
488.67734,248.46521
489.67935,254.16283
490.68137,260.31824
491.6834,266.87036
492.68536,273.75323
493.68738,280.89838
494.68936,288.23462
495.69138,295.68814
496.69342,303.18503
497.69537,310.64984
498.6974,318.0082
499.6994,325.18692
500.7014,332.1137
501.70343,338.71988
502.7054,344.9389
503.7074,350.70895
504.7094,355.9725
505.71143,360.67664
506.71347,364.77466
507.71542,368.2253
508.71744,370.99432
509.71942,373.05402
510.72144,374.38376
511.72348,374.97028
512.72546,374.8077
513.7274,373.8977
514.7295,372.2493
515.73145,369.87906
516.7335,366.81052
517.7355,363.07452
518.7374,358.70834
519.7395,353.75537
520.74146,348.26547
521.7435,342.29312
522.7455,335.89844
523.7475,329.14502
524.7495,322.1002
525.75146,314.83478
526.75354,307.42084
527.7555,299.93307
528.7575,292.44595
529.7595,285.03403
530.7615,277.7719
531.76355,270.73163
532.7655,263.98404
533.7675,257.5963
534.76953,251.632
535.77155,246.1512
536.77356,241.20825
537.7755,236.85292
538.7776,233.12848
539.77954,230.0721
540.78156,227.71451
541.78357,226.07909
542.7855,225.18233
543.7876,225.03308
544.78955,225.6329
545.79156,226.97575
546.7936,229.04828
547.7956,231.82967
548.7976,235.29214
549.79956,239.40132
550.80164,244.11581
551.80365,249.38885
552.8056,255.16739
553.8076,261.39386
554.8096,268.00635
555.81165,274.9382
556.81366,282.12076
557.8156,289.48166
558.8176,296.94766
559.81964,304.44446
560.82166,311.89655
561.82367,319.23004
562.8257,326.37112
563.82764,333.24872
564.82965,339.79434
565.83167,345.94214
566.83374,351.63107
567.8357,356.80396
568.83765,361.40924
569.83966,365.40112
570.8417,368.7394
571.84375,371.39096
572.8457,373.3291
573.84766,374.5346
574.84973,374.9954
575.8517,374.70682
576.85376,373.67178
577.8557,371.9007
578.85767,369.4112
579.85974,366.2281
580.8617,362.38336
581.8638,357.91513
582.8657,352.8684
583.86774,347.2935
584.86975,341.2458
585.8717,334.7862
586.8738,327.97876
587.87573,320.89203
588.87775,313.5966
589.87976,306.16498
590.8817,298.67206
591.8838,291.19214
592.88574,283.8005
593.88776,276.5707
594.8898,269.57477
595.8918,262.88306
596.8938,256.56195
597.89575,250.6751
598.8978,245.28108
599.8998,240.43361
600.9018,236.18147
601.9038,232.56682
602.90576,229.6261
603.90784,227.38849
604.9098,225.87631
605.9118,225.10481
606.9138,225.08163
607.91583,225.807
608.91785,227.27367
609.9198,229.46704
610.9219,232.36508
611.9239,235.93901
612.92584,240.1529
613.92786,244.96472
614.9298,250.32663
615.9319,256.18463
616.9339,262.4807
617.93585,269.15137
618.93787,276.13025
619.9399,283.3479
620.9419,290.7317
621.9439,298.2083
622.9459,305.70258
623.9479,313.1399
624.9499,320.44617
625.9519,327.54785
626.954,334.37457
627.95593,340.85757
628.9579,346.93234
629.9599,352.5384
630.9619,357.6193
631.964,362.12466
632.96594,366.00912
633.9679,369.23407
634.97,371.76733
635.9719,373.58347
636.974,374.6644
637.97595,374.99927
638.9779,374.5848
639.98,373.42508
640.98193,371.53177
641.984,368.9236
642.98596,365.62692
643.988,361.67453
644.99,357.10574
645.99194,351.96655
646.994,346.30786
647.996,340.18677
648.998,333.66412
650,326.80484
" stroke="#ff0000" stroke-width="3"/>
<text alignment-baseline="middle" font-family="Arial" font-size="large" text-anchor="start" x="675" y="200">
pop jks
</text>
<circle cx="680" cy="181.25" fill="#00ff00" r="5"/>
<polyline fill="none" points="150,299.99976
151.002,314.97485
152.00401,329.80038
153.00601,344.32813
154.00801,358.41296
155.01003,371.91415
156.01202,384.69678
157.01402,396.63315
158.01604,407.604
159.01804,417.49973
160.02003,426.22137
161.02205,433.68192
162.02405,439.80673
163.02605,444.5346
164.02806,447.8184
165.03006,449.62518
166.03206,449.93698
167.03407,448.75064
168.03607,446.07806
169.03807,441.9459
170.04008,436.39545
171.04208,429.48218
172.04408,421.27518
173.0461,411.8564
174.0481,401.32
175.0501,389.77127
176.05211,377.32556
177.05411,364.10724
178.0561,350.24835
179.05812,335.88742
180.06012,321.1679
181.06213,306.23688
182.06413,291.24353
183.06613,276.3377
184.06813,261.66827
185.07014,247.38184
186.07214,233.62112
187.07414,220.52368
188.07616,208.22034
189.07816,196.83397
190.08015,186.47845
191.08217,177.2572
192.08417,169.2623
193.08617,162.57376
194.08818,157.2583
195.09018,153.36905
196.09218,150.94489
197.0942,150.01004
198.09619,150.57385
199.09819,152.63068
200.1002,156.15997
201.1022,161.12643
202.10422,167.4805
203.10622,175.15863
204.10822,184.08414
205.11021,194.16783
206.11223,205.30898
207.11423,217.39629
208.11623,230.30888
209.11824,243.9178
210.12024,258.0871
211.12224,272.6751
212.12425,287.53625
213.12625,302.52188
214.12827,317.48227
215.13025,332.268
216.13226,346.7313
217.13428,360.72775
218.13626,374.11737
219.13828,386.76642
220.14029,398.54852
221.14227,409.34595
222.14429,419.0509
223.1463,427.56628
224.14828,434.80704
225.1503,440.70087
226.15231,445.18884
227.15431,448.22617
228.15631,449.78244
229.15833,449.84213
230.16031,448.40466
231.16232,445.48434
232.16434,441.11047
233.16632,435.32657
234.16833,428.19055
235.17035,419.77377
236.17233,410.16013
237.17435,399.44592
238.17636,387.738
239.17838,375.15338
240.18036,361.818
241.18237,347.8648
242.18436,333.43353
243.18637,318.66803
244.18839,303.716
245.19037,288.727
246.19238,273.85046
247.1944,259.23535
248.19638,245.02739
249.1984,231.36874
250.20041,218.39594
251.2024,206.23836
252.2044,195.0177
253.20642,184.84592
254.20844,175.82474
255.21042,168.04431
256.21243,161.5823
257.21442,156.50336
258.21643,152.85812
259.21844,150.6831
260.22043,150
261.22244,150.81567
262.22446,153.12189
263.22644,156.89572
264.22845,162.0994
265.23047,168.68088
266.23245,176.5745
267.23447,185.7013
268.23648,195.97015
269.2385,207.2785
270.24048,219.51317
271.2425,232.55214
272.24448,246.2649
273.2465,260.51468
274.2485,275.159
275.2505,290.0514
276.2525,305.04327
277.25452,319.98468
278.25653,334.72653
279.25854,349.1214
280.2605,363.0253
281.2625,376.29962
282.26453,388.81146
283.26654,400.43604
284.26855,411.05707
285.27054,420.56836
286.27252,428.8751
287.27454,435.89404
288.27655,441.55524
289.27856,445.80206
290.28058,448.59204
291.28256,449.89734
292.28455,449.70493
293.28656,448.01672
294.28857,444.84955
295.2906,440.2351
296.2926,434.21945
297.2946,426.8628
298.29657,418.23846
299.29858,408.43274
300.3006,397.5437
301.3026,385.6799
302.30463,372.96014
303.3066,359.5113
304.30862,345.46777
305.3106,330.97012
306.31262,316.16284
307.31464,301.19427
308.31665,286.21356
309.31866,271.37064
310.32062,256.8139
311.32263,242.6885
312.32465,229.13579
313.32666,216.29109
314.32867,204.28302
315.33066,193.23108
316.33264,183.24597
317.33466,174.42743
318.33667,166.86353
319.33868,160.63004
320.3407,155.78897
321.34268,152.3888
322.34467,150.46353
323.3467,150.03238
324.3487,151.09961
325.3507,153.65466
326.35272,157.67194
327.3547,163.11133
328.35675,169.91846
329.3587,178.02518
330.36072,187.35077
331.36273,197.8019
332.36475,209.27419
333.36676,221.65297
334.3687,234.81433
335.37073,248.62724
336.37274,262.95346
337.37476,277.64984
338.37677,292.56952
339.37875,307.56317
340.38074,322.4815
341.38275,337.17523
342.38477,351.4975
343.38678,365.30524
344.3888,378.46017
345.39078,390.83145
346.39276,402.29514
347.39478,412.73672
348.3968,422.05188
349.3988,430.14737
350.40082,436.94263
351.4028,442.36957
352.4048,446.374
353.40683,448.91592
354.4088,449.96988
355.41083,449.5254
356.41284,447.5869
357.41483,444.17377
358.41687,439.32007
359.41882,433.07446
360.42084,425.49908
361.42285,416.66977
362.42487,406.67468
363.42688,395.61377
364.42883,383.59772
365.43085,370.74615
366.43286,357.1877
367.43488,343.05786
368.4369,328.4978
369.43887,313.65326
370.44086,298.67206
371.44287,283.70404
372.4449,268.89893
373.4469,254.40451
374.4489,240.36597
375.4509,226.92299
376.45288,214.21017
377.4549,202.35454
378.4569,191.47455
379.45892,181.67911
380.46094,173.06564
381.46292,165.72055
382.4649,159.7171
383.46695,155.11533
384.46893,151.96124
385.47095,150.28622
386.47296,150.10715
387.47495,151.42572
388.477,154.22885
389.47894,158.48837
390.48096,164.1619
391.48297,171.19269
392.485,179.51047
393.487,189.03217
394.48895,199.66243
395.49097,211.2954
396.49298,223.81471
397.495,237.09521
398.497,251.00426
399.499,265.40256
400.50098,280.14682
401.503,295.08945
402.505,310.08115
403.50702,324.9721
404.50903,339.61328
405.51102,353.85892
406.51303,367.5664
407.515,380.59882
408.51706,392.82587
409.51904,404.12524
410.52103,414.38443
411.52304,423.5007
412.52505,431.383
413.52707,437.95258
414.52905,443.14362
415.53107,446.90457
416.53305,449.19766
417.53506,450
418.53708,449.3036
419.53906,447.11542
420.54108,443.45728
421.5431,438.36575
422.54507,431.8917
423.54712,424.09982
424.5491,415.06815
425.5511,404.8866
426.5531,393.657
427.5551,381.49164
428.55713,368.51202
429.5591,354.8481
430.56113,340.63593
431.5631,326.01773
432.56512,311.13953
433.56714,296.15002
434.56912,281.1993
435.57114,266.43613
436.57315,252.0083
437.57513,238.06001
438.57718,224.7306
439.57916,212.15349
440.58115,200.45387
441.58316,189.74887
442.58517,180.14551
443.5872,171.73965
444.58917,164.61548
445.5912,158.8439
446.59317,154.48273
447.59518,151.5755
448.5972,150.15128
449.59918,150.22427
450.6012,151.79382
451.6032,154.84418
452.6052,159.34488
453.60724,165.251
454.60922,172.50333
455.6112,181.0297
456.61322,190.74478
457.61523,201.55153
458.61725,213.34193
459.61923,225.99796
460.62125,239.39362
461.62323,253.39484
462.62524,267.8617
463.62726,282.64972
464.62924,297.61078
465.63126,312.596
466.63327,327.45538
467.63525,342.0404
468.6373,356.20538
469.63928,369.80853
470.64127,382.71442
471.6433,394.79404
472.6453,405.9261
473.64728,415.9998
474.64932,424.9148
475.6513,432.58136
476.65332,438.9235
477.6553,443.8773
478.65732,447.3936
479.6593,449.43726
480.66132,449.98773
481.66336,449.03955
482.6653,446.60226
483.66733,442.70023
484.66934,437.3722
485.67133,430.67178
486.67337,422.66547
487.67535,413.43384
488.67734,403.06882
489.67935,391.67355
490.68137,379.3628
491.6834,366.25854
492.68536,352.49274
493.68738,338.2025
494.68936,323.53
495.69138,308.62292
496.69342,293.62915
497.69537,278.6996
498.6974,263.98285
499.6994,249.62538
500.7014,235.77182
501.70343,222.5595
502.7054,210.12143
503.7074,198.58133
504.7094,188.05417
505.71143,178.64594
506.71347,170.44992
507.71542,163.54861
508.71744,158.01062
509.71942,153.89114
510.72144,151.23172
511.72348,150.05865
512.72546,150.38379
513.7274,152.2038
514.7295,155.50061
515.73145,160.24112
516.7335,166.3782
517.7355,173.85016
518.7374,182.58258
519.7395,192.4885
520.74146,203.46825
521.7435,215.41298
522.7455,228.2024
523.7475,241.70914
524.7495,255.79887
525.75146,270.32968
526.75354,285.15753
527.7555,300.1331
528.7575,315.1073
529.7595,329.93115
530.7615,344.45538
531.76355,358.53595
532.7655,372.03113
533.7675,384.8066
534.76953,396.7352
535.77155,407.69678
536.77356,417.5827
537.7755,426.2934
538.7776,433.74225
539.77954,439.855
540.78156,444.5702
541.78357,447.84103
542.7855,449.63455
543.7876,449.93304
544.78955,448.7334
545.79156,446.04773
546.7936,441.90265
547.7956,436.3399
548.7976,429.41492
549.79956,421.1966
550.80164,411.7676
551.80365,401.2215
552.8056,389.66443
553.8076,377.2115
554.8096,363.98657
555.81165,350.1228
556.81366,335.75772
557.8156,321.0359
558.8176,306.10388
559.81964,291.11032
560.82166,276.20618
561.82367,261.53915
562.8257,247.257
563.82764,233.5018
564.82965,220.41054
565.83167,208.11499
566.83374,196.73706
567.8357,186.39133
568.83765,177.18073
569.83966,169.19693
570.8417,162.52042
571.84375,157.21729
572.8457,153.341
573.84766,150.93002
574.84973,150.00845
575.8517,150.58557
576.85376,152.65564
577.8557,156.19781
578.85767,161.17682
579.85974,167.54309
580.8617,175.23254
581.8638,184.16898
582.8657,194.26239
583.86774,205.41226
584.86975,217.50769
585.8717,230.42685
586.8738,244.0417
587.87573,258.21512
588.87775,272.80603
589.87976,287.66922
590.8817,302.65503
591.8838,317.61493
592.88574,332.3982
593.88776,346.8578
594.8898,360.84973
595.8918,374.23312
596.8938,386.8753
597.89575,398.649
598.8978,409.43704
599.8998,419.13202
600.9018,427.6363
601.9038,434.86554
602.90576,440.74704
603.90784,445.22223
604.9098,448.24658
605.9118,449.78958
606.9138,449.83594
607.91583,448.3852
608.91785,445.4519
609.9198,441.06512
610.9219,435.26907
611.9239,428.1212
612.92584,419.69345
613.92786,410.0698
614.9298,399.34598
615.9319,387.6299
616.9339,375.03784
617.93585,361.6965
618.93787,347.7387
619.9399,333.30338
620.9419,318.53586
621.9439,303.58255
622.9459,288.59402
623.9479,273.71945
624.9499,259.10693
625.9519,244.9035
626.954,231.25008
627.95593,218.28409
628.9579,206.13452
629.9599,194.92241
630.9619,184.76062
631.964,175.74991
632.96594,167.98096
633.9679,161.53107
634.97,156.46454
635.9719,152.8323
636.974,150.67041
637.97595,150.00067
638.9779,150.82962
639.98,153.14908
640.98193,156.9357
641.984,162.15198
642.98596,168.74533
643.988,176.65015
644.99,185.78775
645.99194,196.06616
646.994,207.38347
647.996,219.62572
648.998,232.671
650,246.38954
" stroke="#00ff00" stroke-width="3"/>
</svg>