<svg height="600" viewBox="0 0 800 600" width="800" xmlns="http://www.w3.org/2000/svg">
<rect fill="#e1e1db" height="600" width="800" x="0" y="0"/>
<text alignment-baseline="start" font-family="Arial" font-size="x-large" text-anchor="middle" x="400" y="37.5">
Testing testing one two three
</text>
<text alignment-baseline="start" font-family="Arial" font-size="large" text-anchor="middle" x="400" y="75">
X:  this is x
</text>
<text alignment-baseline="start" font-family="Arial" font-size="large" text-anchor="middle" x="400" y="100">
Y:  this is y
</text>
<text alignment-baseline="start" font-family="Arial" font-size="large" text-anchor="middle" x="400" y="570">
X
</text>
<text alignment-baseline="start" font-family="Arial" font-size="large" text-anchor="middle" x="30" y="300">
Y
</text>
<path d="M150,150 L150,450 L650,450" fill="none" stroke="black" stroke-width="3"/>
<text alignment-baseline="start" font-family="Arial" text-anchor="middle" x="150" y="510">
0
</text>
<text alignment-baseline="start" font-family="Arial" text-anchor="middle" x="250.20041" y="510">
20000
</text>
<text alignment-baseline="start" font-family="Arial" text-anchor="middle" x="350.40082" y="510">
40000
</text>
<text alignment-baseline="start" font-family="Arial" text-anchor="middle" x="450.6012" y="510">
60000
</text>
<text alignment-baseline="start" font-family="Arial" text-anchor="middle" x="550.80164" y="510">
80000
</text>
<text alignment-baseline="start" font-family="Arial" text-anchor="middle" x="651.00195" y="510">
100000
</text>
<text alignment-baseline="middle" font-family="Arial" text-anchor="end" x="120" y="450">
-0.200
</text>
<text alignment-baseline="middle" font-family="Arial" text-anchor="end" x="120" y="412.49982">
-0.150
</text>
<text alignment-baseline="middle" font-family="Arial" text-anchor="end" x="120" y="374.99963">
-0.100
</text>
<text alignment-baseline="middle" font-family="Arial" text-anchor="end" x="120" y="337.49945">
-0.050
</text>
<text alignment-baseline="middle" font-family="Arial" text-anchor="end" x="120" y="299.99927">
0.000
</text>
<text alignment-baseline="middle" font-family="Arial" text-anchor="end" x="120" y="262.49908">
0.050
</text>
<text alignment-baseline="middle" font-family="Arial" text-anchor="end" x="120" y="224.9989">
0.100
</text>
<text alignment-baseline="middle" font-family="Arial" text-anchor="end" x="120" y="187.49875">
0.150
</text>
<text alignment-baseline="middle" font-family="Arial" text-anchor="end" x="120" y="149.99857">
0.200
</text>
<text alignment-baseline="middle" font-family="Arial" font-size="large" text-anchor="start" x="675" y="150">
pop jks
</text>
<circle cx="680" cy="131.25" fill="#ff0000" r="5"/>
<polyline fill="none" points="150,299.99927
151.002,292.51172
152.00401,285.099
153.00601,277.83514
154.00801,270.7928
155.01003,264.04218
156.01202,257.65088
157.01402,251.68272
158.01604,246.19731
159.01804,241.24947
160.02003,236.88866
161.02205,233.1584
162.02405,230.09601
163.02605,227.73207
164.02806,226.0902
165.03006,225.1868
166.03206,225.0309
167.03407,225.62405
168.03607,226.96036
169.03807,229.02643
170.04008,231.80165
171.04208,235.25827
172.04408,239.36176
173.0461,244.07112
174.0481,249.3393
175.0501,255.11365
176.05211,261.3365
177.05411,267.94562
178.0561,274.87506
179.05812,282.05548
180.06012,289.41522
181.06213,296.88074
182.06413,304.37738
183.06613,311.83026
184.06813,319.16498
185.07014,326.30817
186.07214,333.18848
187.07414,339.73718
188.07616,345.88885
189.07816,351.582
190.08015,356.75974
191.08217,361.37036
192.08417,365.3678
193.08617,368.71207
194.08818,371.36978
195.09018,373.3144
196.09218,374.52646
197.0942,374.9939
198.09619,374.71198
199.09819,373.68356
200.1002,371.91895
201.1022,369.43573
202.10422,366.25867
203.10622,362.41962
204.10822,357.9569
205.11021,352.91504
206.11223,347.3445
207.11423,341.30087
208.11623,334.8446
209.11824,328.04016
210.12024,320.95557
211.12224,313.66156
212.12425,306.23102
213.12625,298.73822
214.12827,291.25806
215.13025,283.8652
216.13226,276.63358
217.13428,269.63538
218.13626,262.94058
219.13828,256.6161
220.14029,250.72504
221.14227,245.32635
222.14429,240.4739
223.1463,236.2162
224.14828,232.59584
225.1503,229.64894
226.15231,227.40495
227.15431,225.8863
228.15631,225.10817
229.15833,225.07831
230.16031,225.79706
231.16232,227.2572
232.16434,229.44414
233.16632,232.33609
234.16833,235.90407
235.17035,240.11244
236.17233,244.91927
237.17435,250.27635
238.17636,256.1303
239.17838,262.42255
240.18036,269.09024
241.18237,276.0668
242.18436,283.28244
243.18637,290.66516
244.18839,298.14117
245.19037,305.63562
246.19238,313.07388
247.1944,320.3814
248.19638,327.48535
249.1984,334.31467
250.20041,340.80106
251.2024,346.87982
252.2044,352.4901
253.20642,357.576
254.20844,362.08658
255.21042,365.97678
256.21243,369.20776
257.21442,371.74725
258.21643,373.56985
259.21844,374.65735
260.22043,374.9989
261.22244,374.59106
262.22446,373.43796
263.22644,371.55106
264.22845,368.94922
265.23047,365.6585
266.23245,361.7117
267.23447,357.14832
268.23648,352.0139
269.2385,346.35974
270.24048,340.24243
271.2425,333.72296
272.24448,326.8666
273.2465,319.74176
274.2485,312.41962
275.2505,304.97345
276.2525,297.4775
277.25452,290.00684
278.25653,282.63593
279.25854,275.43854
280.2605,268.4866
281.2625,261.8495
282.26453,255.59357
283.26654,249.7813
284.26855,244.4708
285.27054,239.71515
286.27252,235.56181
287.27454,232.05235
288.27655,229.22176
289.27856,227.09836
290.28058,225.70337
291.28256,225.05072
292.28455,225.14693
293.28656,225.99101
294.28857,227.5746
295.2906,229.8818
296.2926,232.88963
297.2946,236.56796
298.29657,240.8801
299.29858,245.78296
300.3006,251.22746
301.3026,257.15933
302.30463,263.5192
303.3066,270.2436
304.30862,277.26532
305.3106,284.51416
306.31262,291.91772
307.31464,299.40204
308.31665,306.89233
309.31866,314.31378
310.32062,321.5921
311.32263,328.6548
312.32465,335.43115
313.32666,341.85345
314.32867,347.85748
315.33066,353.38342
316.33264,358.37598
317.33466,362.78525
318.33667,366.56717
319.33868,369.6839
320.3407,372.10443
321.34268,373.8045
322.34467,374.76715
323.3467,374.98273
324.3487,374.4491
325.3507,373.17157
326.35272,371.16296
327.3547,368.44327
328.35675,365.0397
329.3587,360.9864
330.36072,356.3236
331.36273,351.09802
332.36475,345.36194
333.36676,339.17255
334.3687,332.5919
335.37073,325.68546
336.37274,318.52237
337.37476,311.1742
338.37677,303.7144
339.37875,296.2176
340.38074,288.75842
341.38275,281.4116
342.38477,274.2505
343.38678,267.34662
344.3888,260.76917
345.39078,254.58357
346.39276,248.85173
347.39478,243.63097
348.3968,238.9734
349.3988,234.92567
350.40082,231.52806
351.4028,228.81459
352.4048,226.81238
353.40683,225.54143
354.4088,225.01445
355.41083,225.2367
356.41284,226.20593
357.41483,227.91249
358.41687,230.33932
359.41882,233.46213
360.42084,237.2498
361.42285,241.66444
362.42487,246.66197
363.42688,252.19241
364.42883,258.20044
365.43085,264.62616
366.43286,271.4054
367.43488,278.47028
368.4369,285.7503
369.43887,293.17255
370.44086,300.66315
371.44287,308.1471
372.4449,315.54962
373.4469,322.7968
374.4489,329.81607
375.4509,336.53754
376.45288,342.89392
377.4549,348.82172
378.4569,354.26172
379.45892,359.15942
380.46094,363.46613
381.46292,367.13867
382.4649,370.14038
383.46695,372.44125
384.46893,374.0183
385.47095,374.8558
386.47296,374.94534
387.47495,374.28604
388.477,372.8845
389.47894,370.75476
390.48096,367.91797
391.48297,364.4026
392.485,360.2437
393.487,355.48288
394.48895,350.1678
395.49097,344.35132
396.49298,338.09167
397.495,331.45145
398.497,324.49695
399.499,317.29782
400.50098,309.92572
401.503,302.4544
402.505,294.9586
403.50702,287.51312
404.50903,280.19257
405.51102,273.06976
406.51303,266.21606
407.515,259.69986
408.51706,253.58636
409.51904,247.93669
410.52103,242.80711
411.52304,238.249
412.52505,234.30785
413.52707,231.02309
414.52905,228.42755
415.53107,226.54709
416.53305,225.40056
417.53506,224.99937
418.53708,225.3476
419.53906,226.44168
420.54108,228.27074
421.5431,230.8165
422.54507,234.05351
423.54712,237.94943
424.5491,242.46526
425.5511,247.55602
426.5531,253.17078
427.5551,259.25345
428.55713,265.74323
429.5591,272.57516
430.56113,279.68124
431.5631,286.99036
432.56512,294.42938
433.56714,301.92413
434.56912,309.39948
435.57114,316.78104
436.57315,323.99493
437.57513,330.96906
438.57718,337.63373
439.57916,343.92227
440.58115,349.77203
441.58316,355.12454
442.58517,359.9262
443.5872,364.12912
444.58917,367.6912
445.5912,370.57697
446.59317,372.75757
447.59518,374.21118
448.5972,374.92328
449.59918,374.88678
450.6012,374.102
451.6032,372.57684
452.6052,370.32648
453.60724,367.37344
454.60922,363.74728
455.6112,359.4841
456.61322,354.6266
457.61523,349.2232
458.61725,343.32806
459.61923,337.00006
460.62125,330.30225
461.62323,323.30167
462.62524,316.06824
463.62726,308.67426
464.62924,301.19376
465.63126,293.70117
466.63327,286.27148
467.63525,278.979
468.6373,271.89655
469.63928,265.095
470.64127,258.64206
471.6433,252.60228
472.6453,247.03627
473.64728,241.99944
474.64932,237.54196
475.6513,233.70866
476.65332,230.53763
477.6553,228.06073
478.65732,226.30261
479.6593,225.28076
480.66132,225.00552
481.66336,225.47961
482.6653,226.69826
483.66733,228.64926
484.66934,231.31326
485.67133,234.66347
486.67337,238.66663
487.67535,243.28241
488.67734,248.4649
489.67935,254.1625
490.68137,260.3179
491.6834,266.87
492.68536,273.75287
493.68738,280.89795
494.68936,288.2342
495.69138,295.68768
496.69342,303.18457
497.69537,310.64935
498.6974,318.0077
499.6994,325.18637
500.7014,332.11313
501.70343,338.7193
502.7054,344.9383
503.7074,350.7083
504.7094,355.97186
505.71143,360.67596
506.71347,364.774
507.71542,368.22464
508.71744,370.99362
509.71942,373.05334
510.72144,374.38306
511.72348,374.96957
512.72546,374.807
513.7274,373.89703
514.7295,372.2486
515.73145,369.8784
516.7335,366.8098
517.7355,363.07385
518.7374,358.70767
519.7395,353.75473
520.74146,348.26486
521.7435,342.29254
522.7455,335.89783
523.7475,329.14447
524.7495,322.09964
525.75146,314.83426
526.75354,307.42035
527.7555,299.93262
528.7575,292.4455
529.7595,285.03363
530.7615,277.77155
531.76355,270.73126
532.7655,263.9837
533.7675,257.59598
534.76953,251.6317
535.77155,246.15091
536.77356,241.20798
537.7755,236.85266
538.7776,233.12823
539.77954,230.07187
540.78156,227.71428
541.78357,226.07886
542.7855,225.18211
543.7876,225.03287
544.78955,225.63268
545.79156,226.97552
546.7936,229.04803
547.7956,231.8294
548.7976,235.29189
549.79956,239.40106
550.80164,244.11552
551.80365,249.38855
552.8056,255.16707
553.8076,261.39355
554.8096,268.00598
555.81165,274.9378
556.81366,282.12036
557.8156,289.48123
558.8176,296.9472
559.81964,304.44397
560.82166,311.89606
561.82367,319.2295
562.8257,326.37057
563.82764,333.24814
564.82965,339.79376
565.83167,345.94153
566.83374,351.63043
567.8357,356.80328
568.83765,361.40857
569.83966,365.40045
570.8417,368.7387
571.84375,371.39026
572.8457,373.32843
573.84766,374.5339
574.84973,374.9947
575.8517,374.70612
576.85376,373.67108
577.8557,371.90002
578.85767,369.41052
579.85974,366.22742
580.8617,362.3827
581.8638,357.9145
582.8657,352.8678
583.86774,347.29288
584.86975,341.24518
585.8717,334.7856
586.8738,327.9782
587.87573,320.8915
588.87775,313.59607
589.87976,306.1645
590.8817,298.67163
591.8838,291.1917
592.88574,283.8001
593.88776,276.5703
594.8898,269.5744
595.8918,262.8827
596.8938,256.5616
597.89575,250.67479
598.8978,245.28079
599.8998,240.43333
600.9018,236.1812
601.9038,232.56657
602.90576,229.62585
603.90784,227.38826
604.9098,225.87608
605.9118,225.10458
606.9138,225.0814
607.91583,225.80678
608.91785,227.27344
609.9198,229.4668
610.9219,232.36482
611.9239,235.93875
612.92584,240.15262
613.92786,244.96443
614.9298,250.32632
615.9319,256.18433
616.9339,262.48035
617.93585,269.151
618.93787,276.12988
619.9399,283.3475
620.9419,290.73126
621.9439,298.2079
622.9459,305.70212
623.9479,313.1394
624.9499,320.44562
625.9519,327.5473
626.954,334.37402
627.95593,340.857
628.9579,346.93173
629.9599,352.53778
630.9619,357.61865
631.964,362.124
632.96594,366.00845
633.9679,369.2334
634.97,371.76666
635.9719,373.58276
636.974,374.6637
637.97595,374.99857
638.9779,374.5841
639.98,373.42438
640.98193,371.53107
641.984,368.92294
642.98596,365.62625
643.988,361.6739
644.99,357.1051
645.99194,351.9659
646.994,346.30725
647.996,340.18616
648.998,333.66354
650,326.8043
" stroke="#ff0000" stroke-width="3"/>
<text alignment-baseline="middle" font-family="Arial" font-size="large" text-anchor="start" x="675" y="200">
pop jks
</text>
<circle cx="680" cy="181.25" fill="#00ff00" r="5"/>
<polyline fill="none" points="150,299.99927
151.002,314.97437
152.00401,329.79984
153.00601,344.3275
154.00801,358.4123
155.01003,371.91345
156.01202,384.69604
157.01402,396.6324
158.01604,407.6032
159.01804,417.49887
160.02003,426.22052
161.02205,433.68103
162.02405,439.80582
163.02605,444.5337
164.02806,447.81744
165.03006,449.62424
166.03206,449.93604
167.03407,448.74973
168.03607,446.07712
169.03807,441.94498
170.04008,436.39453
171.04208,429.4813
172.04408,421.27432
173.0461,411.85562
174.0481,401.31924
175.0501,389.77054
176.05211,377.32483
177.05411,364.10657
178.0561,350.24774
179.05812,335.88684
180.06012,321.1674
181.06213,306.2364
182.06413,291.2431
183.06613,276.33734
184.06813,261.6679
185.07014,247.38153
186.07214,233.62086
187.07414,220.52347
188.07616,208.22015
189.07816,196.83383
190.08015,186.47836
191.08217,177.25714
192.08417,169.26224
193.08617,162.57373
194.08818,157.25827
195.09018,153.36905
196.09218,150.94492
197.0942,150.01007
198.09619,150.57388
199.09819,152.63068
200.1002,156.15994
201.1022,161.1264
202.10422,167.48044
203.10622,175.15857
204.10822,184.08405
205.11021,194.16771
206.11223,205.3088
207.11423,217.39609
208.11623,230.30864
209.11824,243.91751
210.12024,258.08676
211.12224,272.67474
212.12425,287.53586
213.12625,302.52142
214.12827,317.48175
215.13025,332.26743
216.13226,346.73068
217.13428,360.7271
218.13626,374.11667
219.13828,386.7657
220.14029,398.54773
221.14227,409.34515
222.14429,419.05005
223.1463,427.5654
224.14828,434.80615
225.1503,440.69995
226.15231,445.18793
227.15431,448.22525
228.15631,449.78152
229.15833,449.8412
230.16031,448.40372
231.16232,445.48343
232.16434,441.10956
233.16632,435.32568
234.16833,428.18967
235.17035,419.77292
236.17233,410.15933
237.17435,399.44516
238.17636,387.73724
239.17838,375.1527
240.18036,361.81735
241.18237,347.8642
242.18436,333.43295
243.18637,318.6675
244.18839,303.7155
245.19037,288.72656
246.19238,273.8501
247.1944,259.23502
248.19638,245.0271
249.1984,231.3685
250.20041,218.39572
251.2024,206.2382
252.2044,195.01758
253.20642,184.84583
254.20844,175.82468
255.21042,168.04428
256.21243,161.58228
257.21442,156.50336
258.21643,152.85812
259.21844,150.68314
260.22043,150
261.22244,150.81567
262.22446,153.12189
263.22644,156.89572
264.22845,162.09937
265.23047,168.68085
266.23245,176.57443
267.23447,185.70117
268.23648,195.97003
269.2385,207.27834
270.24048,219.51295
271.2425,232.5519
272.24448,246.26459
273.2465,260.51434
274.2485,275.15863
275.2505,290.05096
276.2525,305.04282
277.25452,319.98416
278.25653,334.72595
279.25854,349.12076
280.2605,363.02463
281.2625,376.29892
282.26453,388.8107
283.26654,400.43524
284.26855,411.05627
285.27054,420.5675
286.27252,428.8742
287.27454,435.89313
288.27655,441.55432
289.27856,445.80112
290.28058,448.5911
291.28256,449.89642
292.28455,449.70398
293.28656,448.01578
294.28857,444.84863
295.2906,440.23422
296.2926,434.21857
297.2946,426.86194
298.29657,418.23764
299.29858,408.43195
300.3006,397.54294
301.3026,385.67917
302.30463,372.95947
303.3066,359.51062
304.30862,345.46716
305.3106,330.96954
306.31262,316.16235
307.31464,301.1938
308.31665,286.21317
309.31866,271.37027
310.32062,256.81357
311.32263,242.68823
312.32465,229.13554
313.32666,216.2909
314.32867,204.28285
315.33066,193.23096
316.33264,183.24588
317.33466,174.42737
318.33667,166.8635
319.33868,160.63
320.3407,155.78897
321.34268,152.3888
322.34467,150.46353
323.3467,150.03241
324.3487,151.09964
325.3507,153.65466
326.35272,157.67194
327.3547,163.1113
328.35675,169.91843
329.3587,178.02509
330.36072,187.35068
331.36273,197.80176
332.36475,209.274
333.36676,221.65276
334.3687,234.81407
335.37073,248.62694
336.37274,262.95313
337.37476,277.6494
338.37677,292.56906
339.37875,307.56268
340.38074,322.48096
341.38275,337.17462
342.38477,351.4969
343.38678,365.30457
344.3888,378.45947
345.39078,390.8307
346.39276,402.29437
347.39478,412.7359
348.3968,422.05103
349.3988,430.14648
350.40082,436.9417
351.4028,442.36865
352.4048,446.37308
353.40683,448.91498
354.4088,449.96893
355.41083,449.52448
356.41284,447.58597
357.41483,444.17285
358.41687,439.31918
359.41882,433.07358
360.42084,425.49823
361.42285,416.66895
362.42487,406.6739
363.42688,395.613
364.42883,383.597
365.43085,370.74548
366.43286,357.18707
367.43488,343.05728
368.4369,328.49725
369.43887,313.65277
370.44086,298.67157
371.44287,283.70364
372.4449,268.89856
373.4469,254.4042
374.4489,240.36569
375.4509,226.92276
376.45288,214.20999
377.4549,202.35439
378.4569,191.47443
379.45892,181.67902
380.46094,173.06558
381.46292,165.72052
382.4649,159.71707
383.46695,155.11533
384.46893,151.96124
385.47095,150.28625
386.47296,150.10718
387.47495,151.42575
388.477,154.22885
389.47894,158.48834
390.48096,164.16187
391.48297,171.19266
392.485,179.5104
393.487,189.03204
394.48895,199.6623
395.49097,211.29521
396.49298,223.81448
397.495,237.09496
398.497,251.00395
399.499,265.40222
400.50098,280.14642
401.503,295.089
402.505,310.08066
403.50702,324.97156
404.50903,339.61267
405.51102,353.85828
406.51303,367.56573
407.515,380.59808
408.51706,392.8251
409.51904,404.12445
410.52103,414.3836
411.52304,423.49985
412.52505,431.38214
413.52707,437.95166
414.52905,443.1427
415.53107,446.90363
416.53305,449.19672
417.53506,449.99905
418.53708,449.30264
419.53906,447.1145
420.54108,443.45636
421.5431,438.36484
422.54507,431.8908
423.54712,424.09897
424.5491,415.06732
425.5511,404.8858
426.5531,393.65625
427.5551,381.4909
428.55713,368.51135
429.5591,354.84747
430.56113,340.63535
431.5631,326.01718
432.56512,311.13904
433.56714,296.1496
434.56912,281.1989
435.57114,266.4358
436.57315,252.008
437.57513,238.05974
438.57718,224.73038
439.57916,212.1533
440.58115,200.45372
441.58316,189.74875
442.58517,180.14542
443.5872,171.7396
444.58917,164.61545
445.5912,158.84387
446.59317,154.48273
447.59518,151.5755
448.5972,150.15128
449.59918,150.22427
450.6012,151.79382
451.6032,154.84418
452.6052,159.34488
453.60724,165.25098
454.60922,172.50327
455.6112,181.0296
456.61322,190.74466
457.61523,201.55138
458.61725,213.34175
459.61923,225.99773
460.62125,239.39334
461.62323,253.39452
462.62524,267.86136
463.62726,282.6493
464.62924,297.61035
465.63126,312.59552
466.63327,327.45483
467.63525,342.03983
468.6373,356.20474
469.63928,369.80783
470.64127,382.71368
471.6433,394.79327
472.6453,405.9253
473.64728,415.99896
474.64932,424.91394
475.6513,432.58047
476.65332,438.92258
477.6553,443.87637
478.65732,447.39264
479.6593,449.4363
480.66132,449.9868
481.66336,449.0386
482.6653,446.60135
483.66733,442.6993
484.66934,437.37128
485.67133,430.6709
486.67337,422.6646
487.67535,413.433
488.67734,403.06802
489.67935,391.67282
490.68137,379.36206
491.6834,366.25787
492.68536,352.49213
493.68738,338.20193
494.68936,323.52945
495.69138,308.62244
496.69342,293.6287
497.69537,278.6992
498.6974,263.98248
499.6994,249.62508
500.7014,235.77156
501.70343,222.55928
502.7054,210.12125
503.7074,198.58119
504.7094,188.05408
505.71143,178.64587
506.71347,170.44986
507.71542,163.54858
508.71744,158.01059
509.71942,153.89114
510.72144,151.23172
511.72348,150.05865
512.72546,150.38379
513.7274,152.2038
514.7295,155.50061
515.73145,160.24109
516.7335,166.37817
517.7355,173.8501
518.7374,182.58249
519.7395,192.48837
520.74146,203.4681
521.7435,215.41278
522.7455,228.20215
523.7475,241.70886
524.7495,255.79855
525.75146,270.3293
526.75354,285.1571
527.7555,300.13263
528.7575,315.1068
529.7595,329.9306
530.7615,344.45477
531.76355,358.5353
532.7655,372.03046
533.7675,384.80588
534.76953,396.73444
535.77155,407.69598
536.77356,417.58185
537.7755,426.29254
538.7776,433.74136
539.77954,439.85413
540.78156,444.56927
541.78357,447.8401
542.7855,449.6336
543.7876,449.9321
544.78955,448.73245
545.79156,446.04678
546.7936,441.90173
547.7956,436.33902
548.7976,429.41406
549.79956,421.19574
550.80164,411.76678
551.80365,401.2207
552.8056,389.66367
553.8076,377.21075
554.8096,363.9859
555.81165,350.1222
556.81366,335.75714
557.8156,321.03537
558.8176,306.1034
559.81964,291.1099
560.82166,276.20575
561.82367,261.53882
562.8257,247.2567
563.82764,233.50156
564.82965,220.41032
565.83167,208.11482
566.83374,196.73692
567.8357,186.39124
568.83765,177.18066
569.83966,169.1969
570.8417,162.52039
571.84375,157.21729
572.8457,153.341
573.84766,150.93002
574.84973,150.00845
575.8517,150.58557
576.85376,152.65564
577.8557,156.19781
578.85767,161.17679
579.85974,167.54303
580.8617,175.23248
581.8638,184.16888
582.8657,194.26225
583.86774,205.4121
584.86975,217.50749
585.8717,230.4266
586.8738,244.04141
587.87573,258.21478
588.87775,272.80566
589.87976,287.66882
590.8817,302.65457
591.8838,317.61438
592.88574,332.39764
593.88776,346.85718
594.8898,360.84906
595.8918,374.23242
596.8938,386.87457
597.89575,398.64822
598.8978,409.43625
599.8998,419.13116
600.9018,427.63544
601.9038,434.86465
602.90576,440.74612
603.90784,445.2213
604.9098,448.24564
605.9118,449.78864
606.9138,449.835
607.91583,448.38428
608.91785,445.451
609.9198,441.0642
610.9219,435.2682
611.9239,428.12033
612.92584,419.6926
613.92786,410.06897
614.9298,399.34518
615.9319,387.62918
616.9339,375.03714
617.93585,361.69583
618.93787,347.7381
619.9399,333.30283
620.9419,318.53534
621.9439,303.5821
622.9459,288.5936
623.9479,273.71906
624.9499,259.10657
625.9519,244.90321
626.954,231.24983
627.95593,218.28387
628.9579,206.13435
629.9599,194.92229
630.9619,184.76053
631.964,175.74982
632.96594,167.9809
633.9679,161.53107
634.97,156.46451
635.9719,152.8323
636.974,150.67044
637.97595,150.00067
638.9779,150.82962
639.98,153.14908
640.98193,156.9357
641.984,162.15195
642.98596,168.7453
643.988,176.65009
644.99,185.78763
645.99194,196.06602
646.994,207.3833
647.996,219.6255
648.998,232.67076
650,246.38925
" stroke="#00ff00" stroke-width="3"/>
<text alignment-baseline="middle" font-family="Arial" font-size="large" text-anchor="start" x="675" y="250">
testing lol long
</text>
<circle cx="680" cy="231.25" fill="#0000ff" r="5"/>
<polyline fill="none" points="150,450
151.002,449.2506
152.00401,447.00998
153.00601,443.30045
154.00801,438.1591
155.01003,431.6373
156.01202,423.8002
157.01402,414.72617
158.01604,404.5058
159.01804,393.2412
160.02003,381.045
161.02205,368.039
162.02405,354.3532
163.02605,340.1243
164.02806,325.49448
165.03006,310.60992
166.03206,295.61932
167.03407,280.6725
168.03607,265.9188
169.03807,251.50562
170.04008,237.57695
171.04208,224.27199
172.04408,211.72368
173.0461,200.0574
174.0481,189.38968
175.0501,179.82718
176.05211,171.46533
177.05411,164.38782
178.0561,158.66525
179.05812,154.35486
180.06012,151.4997
181.06213,150.1283
182.06413,150.25433
183.06613,151.87659
184.06813,154.97885
185.07014,159.53009
186.07214,165.48486
187.07414,172.78366
188.07616,181.35352
189.07816,191.10892
190.08015,201.95227
191.08217,213.77527
192.08417,226.45982
193.08617,239.87914
194.08818,253.89914
195.09018,268.37976
196.09218,283.1763
197.0942,298.141
198.09619,313.1242
199.09819,327.9763
200.1002,342.54883
201.1022,356.6962
202.10422,370.27716
203.10622,383.15585
204.10822,395.20367
205.11021,406.30026
206.11223,416.33472
207.11423,425.20682
208.11623,432.82785
209.11824,439.12173
210.12024,444.0255
211.12224,447.49026
212.12425,449.48132
213.12625,449.9788
214.12827,448.97775
215.13025,446.48813
216.13226,442.53485
217.13428,437.1574
218.13626,430.40952
219.13828,422.3586
220.14029,413.08517
221.14227,402.6818
222.14429,391.25238
223.1463,378.91125
224.14828,365.78168
225.1503,351.9948
226.15231,337.68845
227.15431,323.00543
228.15631,308.0926
229.15833,293.09894
230.16031,278.1742
231.16232,263.4674
232.16434,249.12584
233.16632,235.2924
234.16833,222.10553
235.17035,209.69705
236.17233,198.19073
237.17435,187.70175
238.17636,178.33472
239.17838,170.18332
240.18036,163.32907
241.18237,157.84033
242.18436,153.77203
243.18637,151.16476
244.18839,150.04459
245.19037,150.42273
246.19238,152.29541
247.1944,155.64386
248.19638,160.4347
249.1984,166.62
250.20041,174.13794
251.2024,182.91351
252.2044,192.85889
253.20642,203.87488
254.20844,215.8513
255.21042,228.6684
256.21243,242.19832
257.21442,256.30566
258.21643,270.84967
259.21844,285.68497
260.22043,300.66315
261.22244,315.63483
262.22446,330.45013
263.22644,344.96133
264.22845,359.02325
265.23047,372.49536
266.23245,385.24316
267.23447,397.13916
268.23648,408.0647
269.2385,417.91046
270.24048,426.57797
271.2425,433.98087
272.24448,440.04498
273.2465,444.70987
274.2485,447.92886
275.2505,449.66974
276.2525,449.9152
277.25452,448.66272
278.25653,445.92487
279.25854,441.72894
280.2605,436.11694
281.2625,429.14487
282.26453,420.88248
283.26654,411.41217
284.26855,400.82867
285.27054,389.2378
286.27252,376.7552
287.27454,363.5058
288.27655,349.6217
289.27856,335.24185
290.28058,320.50995
291.28256,305.573
292.28455,290.5805
293.28656,275.68195
294.28857,261.0264
295.2906,246.76038
296.2926,233.02617
297.2946,219.96126
298.29657,207.69594
299.29858,196.35289
300.3006,186.04553
301.3026,176.87668
302.30463,168.93811
303.3066,162.30899
304.30862,157.05563
305.3106,153.23056
306.31262,150.87192
307.31464,150.00333
308.31665,150.63342
309.31866,152.75595
310.32062,156.34967
311.32263,161.37872
312.32465,167.79282
313.32666,175.52792
314.32867,184.50647
315.33066,194.6392
316.33264,205.82465
317.33466,217.95108
318.33667,230.89732
319.33868,244.5337
320.3407,258.7246
321.34268,273.32785
322.34467,288.1976
323.3467,303.1853
324.3487,318.14084
325.3507,332.91544
326.35272,347.3611
327.3547,361.3336
328.35675,374.6932
329.3587,387.30627
330.36072,399.04727
331.36273,409.79858
332.36475,419.4528
333.36676,427.91345
334.3687,435.09595
335.37073,440.92868
336.37274,445.35333
337.37476,448.32562
338.37677,449.81586
339.37875,449.8092
340.38074,448.3057
341.38275,445.32034
342.38477,440.88297
343.38678,435.03793
344.3888,427.84378
345.39078,419.3721
346.39276,409.70767
347.39478,398.94708
348.3968,387.1978
349.3988,374.57758
350.40082,361.21188
351.4028,347.2346
352.4048,332.78534
353.40683,318.00848
354.4088,303.052
355.41083,288.0647
356.41284,273.19666
357.41483,258.5964
358.41687,244.40987
359.41882,230.77899
360.42084,217.83951
361.42285,205.72093
362.42487,194.54434
363.42688,184.42145
364.42883,175.45352
365.43085,167.72989
366.43286,161.32785
367.43488,156.31131
368.4369,152.73053
369.43887,150.62125
370.44086,150.00443
371.44287,150.88635
372.4449,153.25815
373.4469,157.09613
374.4489,162.36188
375.4509,169.00296
376.45288,176.95288
377.4549,186.1323
378.4569,196.44943
379.45892,207.80098
380.46094,220.07394
381.46292,233.14551
382.4649,246.88506
383.46695,261.1553
384.46893,275.81342
385.47095,290.71344
386.47296,305.70624
387.47495,320.64203
388.477,335.37158
389.47894,349.7474
390.48096,363.62643
391.48297,376.86972
392.485,389.34494
393.487,400.92746
394.48895,411.5013
395.49097,420.96127
396.49298,429.21265
397.495,436.1729
398.497,441.77258
399.499,445.95563
400.50098,448.68042
401.503,449.91962
402.505,449.66086
403.50702,447.90668
404.50903,444.67474
405.51102,439.99722
406.51303,433.92087
407.515,426.50638
408.51706,417.82788
409.51904,407.9723
410.52103,397.03763
411.52304,385.13342
412.52505,372.3786
413.52707,358.90054
414.52905,344.83423
415.53107,330.3197
416.53305,315.5022
417.53506,300.5298
418.53708,285.55212
419.53906,270.71906
420.54108,256.17822
421.5431,242.0753
422.54507,228.55113
423.54712,215.74084
424.5491,203.77266
425.5511,192.76572
426.5531,182.83023
427.5551,174.06543
428.55713,166.55896
429.5591,160.38593
430.56113,155.6077
431.5631,152.27222
432.56512,150.41275
433.56714,150.04797
434.56912,151.1814
435.57114,153.80179
436.57315,157.88293
437.57513,163.38406
438.57718,170.25024
439.57916,178.41269
440.58115,187.7901
441.58316,198.2887
442.58517,209.80356
443.5872,222.21964
444.58917,235.4126
445.5912,249.25116
446.59317,263.59674
447.59518,278.3061
448.5972,293.23218
449.59918,308.2256
450.6012,323.13712
451.6032,337.81744
452.6052,352.11987
453.60724,365.90155
454.60922,379.0245
455.6112,391.35812
456.61322,402.7789
457.61523,413.17273
458.61725,422.43573
459.61923,430.47528
460.62125,437.2113
461.62323,442.57632
462.62524,446.51675
463.62726,448.99323
464.62924,449.981
465.63126,449.47018
466.63327,447.4659
467.63525,443.9882
468.6373,439.07178
469.63928,432.76593
470.64127,425.1334
471.6433,416.25037
472.6453,406.20615
473.64728,395.10077
474.64932,383.04474
475.6513,370.1594
476.65332,356.57254
477.6553,342.42093
478.65732,327.8455
479.6593,312.99124
480.66132,298.00775
481.66336,283.04358
482.6653,268.24942
483.66733,253.77246
484.66934,239.75688
485.67133,226.3437
486.67337,213.66602
487.67535,201.85138
488.67734,191.0174
489.67935,181.27194
490.68137,172.7131
491.6834,165.42581
492.68536,159.4834
493.68738,154.94492
494.68936,151.85562
495.69138,150.24664
496.69342,150.13388
497.69537,151.51855
498.6974,154.38675
499.6994,158.71002
500.7014,164.4448
501.70343,171.53424
502.7054,179.90701
503.7074,189.47964
504.7094,200.15694
505.71143,211.83144
506.71347,224.38731
507.71542,237.69823
508.71744,251.63159
509.71942,266.04877
510.72144,280.80463
511.72348,295.75284
512.72546,310.74292
513.7274,325.62564
514.7295,340.25287
515.73145,354.47736
516.7335,368.15802
517.7355,381.15717
518.7374,393.34546
519.7395,404.60147
520.74146,414.81195
521.7435,423.87558
522.7455,431.70117
523.7475,438.21088
524.7495,443.3398
525.75146,447.03638
526.75354,449.2639
527.7555,449.99994
528.7575,449.23727
529.7595,446.9834
530.7615,443.26102
531.76355,438.10703
532.7655,431.5733
533.7675,423.725
534.76953,414.64014
535.77155,404.4102
536.77356,393.13657
537.7755,380.9328
538.7776,367.92038
539.77954,354.2288
540.78156,339.9959
541.78357,325.36285
542.7855,310.4769
543.7876,295.48627
544.78955,280.54016
545.79156,265.78906
546.7936,251.37923
547.7956,237.45573
548.7976,224.15714
549.79956,211.61583
550.80164,199.95808
551.80365,189.29953
552.8056,179.7474
553.8076,171.39676
554.8096,164.33081
555.81165,158.62067
556.81366,154.32294
557.8156,151.48093
558.8176,150.1228
559.81964,150.2622
560.82166,151.89767
561.82367,155.01303
562.8257,159.57693
563.82764,165.54385
564.82965,172.85443
565.83167,181.43512
566.83374,191.2008
567.8357,202.05322
568.83765,213.88423
569.83966,226.57614
570.8417,240.0012
571.84375,254.02625
572.8457,268.51013
573.84766,283.3086
574.84973,298.2744
575.8517,313.2569
576.85376,328.10748
577.8557,342.67667
578.85767,356.81943
579.85974,370.395
580.8617,383.26666
581.8638,395.30685
582.8657,406.3943
583.86774,416.4187
584.86975,425.28024
585.8717,432.88968
586.8738,439.1716
587.87573,444.0627
588.87775,447.51447
589.87976,449.49234
590.8817,449.9765
591.8838,448.9621
592.88574,446.45938
593.88776,442.49335
594.8898,437.10333
595.8918,430.34366
596.8938,422.2813
597.89575,412.99753
598.8978,402.5847
599.8998,391.14645
600.9018,378.79794
601.9038,365.66162
602.90576,351.86972
603.90784,337.55957
604.9098,322.8736
605.9118,307.9596
606.9138,292.9655
607.91583,278.04224
608.91785,263.33838
609.9198,249.00027
610.9219,235.17227
611.9239,221.99149
612.92584,209.59062
613.92786,198.09305
614.9298,187.61331
615.9319,178.25687
616.9339,170.11649
617.93585,163.2742
618.93787,157.79794
619.9399,153.74234
620.9419,151.14822
621.9439,150.04135
622.9459,150.43283
623.9479,152.31866
624.9499,155.68018
625.9519,160.48355
626.954,166.68112
627.95593,174.21054
628.9579,182.99673
629.9599,192.95236
630.9619,203.97717
631.964,215.96184
632.96594,228.78572
633.9679,242.32112
634.97,256.43335
635.9719,270.98035
636.974,285.81784
637.97595,300.79645
638.9779,315.76715
639.98,330.5808
640.98193,345.08838
641.984,359.14597
642.98596,372.61206
643.988,385.35263
644.99,397.24084
645.99194,408.157
646.994,417.9929
647.996,426.64948
648.998,434.04065
650,440.09274
" stroke="#0000ff" stroke-width="3"/>
</svg>