<svg class="poloto" width="800" height="500" viewBox="0 0 800 500" xmlns="http://www.w3.org/2000/svg">
	<style>
 .poloto{
  stroke-linecap:round;
  stroke-linejoin:round;
  font-family:Roboto,sans-serif;
  font-size:16px;
}
.poloto_background{fill:AliceBlue;}
.poloto_scatter{stroke-width:7}
.poloto_line{stroke-width:2}
.poloto_text{fill: black;}
.poloto_name{font-size:24px;dominant-baseline:start;text-anchor:middle;}
.poloto_where{dominant-baseline:middle;text-anchor:start}
.poloto_text.poloto_legend{font-size:20px;dominant-baseline:middle;text-anchor:start;}
.poloto_text.poloto_ticks.poloto_y{dominant-baseline:middle;text-anchor:end}
.poloto_text.poloto_ticks.poloto_x{dominant-baseline:start;text-anchor:middle}
.poloto_imgs.poloto_ticks{stroke: black;stroke-width:3;fill:none;stroke-dasharray:none}
.poloto_grid{stroke:gray;stroke-width:0.5}

.poloto0.poloto_stroke{stroke:blue;}
.poloto1.poloto_stroke{stroke:red;}
.poloto2.poloto_stroke{stroke:green;}
.poloto3.poloto_stroke{stroke:gold;}
.poloto4.poloto_stroke{stroke:aqua;}
.poloto5.poloto_stroke{stroke:lime;}
.poloto6.poloto_stroke{stroke:orange;}
.poloto7.poloto_stroke{stroke:chocolate;}
.poloto0.poloto_fill{fill:blue;}
.poloto1.poloto_fill{fill:red;}
.poloto2.poloto_fill{fill:green;}
.poloto3.poloto_fill{fill:gold;}
.poloto4.poloto_fill{fill:aqua;}
.poloto5.poloto_fill{fill:lime;}
.poloto6.poloto_fill{fill:orange;}
.poloto7.poloto_fill{fill:chocolate;}
	</style>
	<circle r="1e5" class="poloto_background" fill="white"/>
	<g id="poloto_plot0" class="poloto_plot poloto_imgs poloto_histo poloto0 poloto_fill">
		<rect x="150.00" y="330.00" width="188.67924528301887" height="20"/>
		<rect x="150.00" y="270.00" width="132.07547169811323" height="20"/>
		<rect x="150.00" y="210.00" width="500" height="20"/>
		<rect x="150.00" y="150.00" width="283.0188679245283" height="20"/>
	</g>
	<text class="poloto_text poloto_name poloto_title" x="400.00" y="37.50">Comparison of Food Tastiness</text>
	<text class="poloto_text poloto_name poloto_x" x="400.00" y="481.25">Tastiness</text>
	<text class="poloto_text poloto_name poloto_y" x="37.50" y="250.00" transform="rotate(-90,37.50,250.00)">Foods</text>
	<text class="poloto_text poloto_ticks poloto_y">
		<tspan x="135.00" y="340.00">potato</tspan>
		<tspan x="135.00" y="280.00">broccoli</tspan>
		<tspan x="135.00" y="220.00">pizza</tspan>
		<tspan x="135.00" y="160.00">avocado</tspan>
	</text>
	<g class="poloto_imgs poloto_ticks poloto_y" stroke="black">
		<line x1="150.00" x2="144.00" y1="340.00" y2="340.00"/>
		<line x1="150.00" x2="144.00" y1="280.00" y2="280.00"/>
		<line x1="150.00" x2="144.00" y1="220.00" y2="220.00"/>
		<line x1="150.00" x2="144.00" y1="160.00" y2="160.00"/>
	</g>
	<text class="poloto_text poloto_ticks poloto_x">
		<tspan x="150.00" y="430.00">0</tspan>
		<tspan x="244.34" y="430.00">10</tspan>
		<tspan x="338.68" y="430.00">20</tspan>
		<tspan x="433.02" y="430.00">30</tspan>
		<tspan x="527.36" y="430.00">40</tspan>
		<tspan x="621.70" y="430.00">50</tspan>
	</text>
	<g class="poloto_imgs poloto_ticks poloto_x" stroke="black">
		<line x1="150.00" x2="150.00" y1="400.00" y2="405.00"/>
		<line x1="244.34" x2="244.34" y1="400.00" y2="405.00"/>
		<line x1="338.68" x2="338.68" y1="400.00" y2="405.00"/>
		<line x1="433.02" x2="433.02" y1="400.00" y2="405.00"/>
		<line x1="527.36" x2="527.36" y1="400.00" y2="405.00"/>
		<line x1="621.70" x2="621.70" y1="400.00" y2="405.00"/>
	</g>
	<g class="poloto_grid poloto_x" stroke="black">
		<line x1="150.00" x2="150.00" y1="400.00" y2="100.00"/>
		<line x1="244.34" x2="244.34" y1="400.00" y2="100.00"/>
		<line x1="338.68" x2="338.68" y1="400.00" y2="100.00"/>
		<line x1="433.02" x2="433.02" y1="400.00" y2="100.00"/>
		<line x1="527.36" x2="527.36" y1="400.00" y2="100.00"/>
		<line x1="621.70" x2="621.70" y1="400.00" y2="100.00"/>
	</g>
	<path class="poloto_imgs poloto_ticks poloto_x" stroke="black" style="stroke-dasharray:9.433962264150944;stroke-dashoffset:-0;" d=" M 150.00 400.00 L 650.00 400.00"/>
	<path class="poloto_imgs poloto_ticks poloto_y" stroke="black" d=" M 150.00 400.00 L 150.00 100.00"/>
</svg>
