<svg class="poloto" width="800" height="500" viewBox="0 0 800 500" xmlns="http://www.w3.org/2000/svg">
	<style>
.poloto{
  stroke-linecap:round;
  stroke-linejoin:round;
  font-family:Roboto,sans-serif;
  font-size:16px;
}
.poloto_background{fill:AliceBlue;}
.poloto_scatter{stroke-width:7}
.poloto_tick_line{stroke:gray;stroke-width:0.5}
.poloto_line{stroke-width:2}
.poloto_text{fill: black;}
.poloto_axis_lines{stroke: black;stroke-width:3;fill:none;stroke-dasharray:none}
.poloto_title{font-size:24px;dominant-baseline:start;text-anchor:middle;}
.poloto_xname{font-size:24px;dominant-baseline:start;text-anchor:middle;}
.poloto_yname{font-size:24px;dominant-baseline:start;text-anchor:middle;}
.poloto_legend_text{font-size:20px;dominant-baseline:middle;text-anchor:start;}
.poloto0stroke{stroke:blue;}
.poloto1stroke{stroke:red;}
.poloto2stroke{stroke:green;}
.poloto3stroke{stroke:gold;}
.poloto4stroke{stroke:aqua;}
.poloto5stroke{stroke:lime;}
.poloto6stroke{stroke:orange;}
.poloto7stroke{stroke:chocolate;}
.poloto0fill{fill:blue;}
.poloto1fill{fill:red;}
.poloto2fill{fill:green;}
.poloto3fill{fill:gold;}
.poloto4fill{fill:aqua;}
.poloto5fill{fill:lime;}
.poloto6fill{fill:orange;}
.poloto7fill{fill:chocolate;}
	</style>
	<circle r="1e5" class="poloto_background"/>
	<text class="poloto_text poloto_legend_text" x="675" y="100"></text>
	<g class="poloto_histo poloto0fill">
		<rect x="150.00" y="330.00" width="188.67924528301887" height="20"/>
		<rect x="150.00" y="270.00" width="132.07547169811323" height="20"/>
		<rect x="150.00" y="210.00" width="500" height="20"/>
		<rect x="150.00" y="150.00" width="283.0188679245283" height="20"/>
	</g>
	<text class="poloto_labels poloto_text poloto_title" x="400.00" y="37.50">Comparison of Food Tastiness</text>
	<text class="poloto_labels poloto_text poloto_xname" x="400.00" y="481.25">Tastiness</text>
	<text class="poloto_labels poloto_text poloto_yname" transform="rotate(-90,37.50,250.00)" x="37.50" y="250.00">Foods</text>
	<g class="poloto_tick_labels poloto_text" dominant-baseline="middle" text-anchor="end">
		<text x="135.00" y="340.00">potato</text>
		<text x="135.00" y="280.00">broccoli</text>
		<text x="135.00" y="220.00">pizza</text>
		<text x="135.00" y="160.00">avocado</text>
	</g>
	<g class="poloto_axis_lines" stroke="black">
		<line x1="150.00" x2="144.00" y1="340.00" y2="340.00"/>
		<line x1="150.00" x2="144.00" y1="280.00" y2="280.00"/>
		<line x1="150.00" x2="144.00" y1="220.00" y2="220.00"/>
		<line x1="150.00" x2="144.00" y1="160.00" y2="160.00"/>
	</g>
	<g class="poloto_tick_labels poloto_text" dominant-baseline="start" text-anchor="middle">
		<text x="150.00" y="430.00">0</text>
		<text x="244.34" y="430.00">10</text>
		<text x="338.68" y="430.00">20</text>
		<text x="433.02" y="430.00">30</text>
		<text x="527.36" y="430.00">40</text>
		<text x="621.70" y="430.00">50</text>
	</g>
	<g class="poloto_axis_lines" stroke="black">
		<line x1="150.00" x2="150.00" y1="400.00" y2="405.00"/>
		<line x1="244.34" x2="244.34" y1="400.00" y2="405.00"/>
		<line x1="338.68" x2="338.68" y1="400.00" y2="405.00"/>
		<line x1="433.02" x2="433.02" y1="400.00" y2="405.00"/>
		<line x1="527.36" x2="527.36" y1="400.00" y2="405.00"/>
		<line x1="621.70" x2="621.70" y1="400.00" y2="405.00"/>
	</g>
	<line class="poloto_tick_line" stroke="black" x1="150.00" x2="150.00" y1="400.00" y2="100.00"/>
	<line class="poloto_tick_line" stroke="black" x1="244.34" x2="244.34" y1="400.00" y2="100.00"/>
	<line class="poloto_tick_line" stroke="black" x1="338.68" x2="338.68" y1="400.00" y2="100.00"/>
	<line class="poloto_tick_line" stroke="black" x1="433.02" x2="433.02" y1="400.00" y2="100.00"/>
	<line class="poloto_tick_line" stroke="black" x1="527.36" x2="527.36" y1="400.00" y2="100.00"/>
	<line class="poloto_tick_line" stroke="black" x1="621.70" x2="621.70" y1="400.00" y2="100.00"/>
	<path stroke="black" fill="none" class="poloto_axis_lines" style="stroke-dasharray:9.433962264150944;stroke-dashoffset:-0;" d=" M 150.00 400.00 L 650.00 400.00"/>
	<path stroke="black" fill="none" class="poloto_axis_lines" d=" M 150.00 400.00 L 150.00 100.00"/>
</svg>
