<svg class="poloto" width="800" height="369.2307692307692" viewBox="0 0 1300 600" xmlns="http://www.w3.org/2000/svg"><style>.poloto{stroke-linecap:round;stroke-linejoin:round;font-family:Roboto,sans-serif;font-size:16px;}.poloto_background{fill:#262626;}.poloto_scatter{stroke-width:7}.poloto_tick_line{stroke:dimgray;stroke-width:0.5}.poloto_line{stroke-width:2}.poloto_text{fill: white;}.poloto_axis_lines{stroke: white;stroke-width:3;fill:none;stroke-dasharray:none}.poloto_title{font-size:24px;dominant-baseline:start;text-anchor:middle;}.poloto_xname{font-size:24px;dominant-baseline:start;text-anchor:middle;}.poloto_yname{font-size:24px;dominant-baseline:start;text-anchor:middle;}.poloto0stroke{stroke:blue;}.poloto1stroke{stroke:red;}.poloto2stroke{stroke:green;}.poloto3stroke{stroke:gold;}.poloto4stroke{stroke:aqua;}.poloto5stroke{stroke:lime;}.poloto6stroke{stroke:orange;}.poloto7stroke{stroke:chocolate;}.poloto0fill{fill:blue;}.poloto1fill{fill:red;}.poloto2fill{fill:green;}.poloto3fill{fill:gold;}.poloto4fill{fill:aqua;}.poloto5fill{fill:lime;}.poloto6fill{fill:orange;}.poloto7fill{fill:chocolate;}.poloto_line{stroke-dasharray:2;stroke-width:2;}</style><circle  r="1e5" class="poloto_background" /><text  class="poloto_text poloto_legend_text" x="1175" y="100" >c(1000)</text><line  class="poloto_line poloto_legend_icon poloto0stroke poloto0legend" stroke="black" x1="1180" x2="1230" y1="81.25" y2="81.25" /><path  class="poloto_line poloto0stroke" fill="none" stroke="black" d=" M 150.00 490.78 L 157.09 495.39 L 164.18 497.69 L 171.28 493.07 L 178.37 496.53 L 185.46 498.27 L 192.55 499.13 L 199.65 497.38 L 206.74 498.69 L 213.83 496.05 L 220.92 498.03 L 228.01 494.06 L 235.11 497.03 L 242.20 491.07 L 249.29 495.54 L 256.38 497.77 L 263.48 493.29 L 270.57 496.64 L 277.66 498.32 L 284.75 494.95 L 291.84 497.47 L 298.94 492.40 L 306.03 496.20 L 313.12 498.10 L 320.21 494.28 L 327.30 497.14 L 334.40 491.41 L 341.49 495.70 L 348.58 487.09 L 355.67 493.54 L 362.77 496.77 L 369.86 490.30 L 376.95 495.15 L 384.04 485.43 L 391.13 492.71 L 398.23 478.13 L 405.32 489.06 L 412.41 467.17 L 419.50 483.59 L 426.60 491.79 L 433.69 475.36 L 440.78 487.68 L 447.87 493.84 L 454.96 496.92 L 462.06 490.74 L 469.15 495.37 L 476.24 486.09 L 483.33 493.05 L 490.43 479.12 L 497.52 489.56 L 504.61 494.78 L 511.70 484.32 L 518.79 492.16 L 525.89 476.47 L 532.98 488.23 L 540.07 494.12 L 547.16 482.33 L 554.26 491.17 L 561.35 473.48 L 568.44 486.74 L 575.53 460.20 L 582.62 480.10 L 589.72 440.28 L 596.81 470.14 L 603.90 410.40 L 610.99 455.20 L 618.09 365.58 L 625.18 432.79 L 632.27 466.40 L 639.36 483.20 L 646.45 449.58 L 653.55 474.79 L 660.64 424.35 L 667.73 462.17 L 674.82 386.50 L 681.91 443.25 L 689.01 329.73 L 696.10 414.87 L 703.19 457.43 L 710.28 478.72 L 717.38 489.36 L 724.47 468.06 L 731.56 484.03 L 738.65 492.01 L 745.74 476.02 L 752.84 488.01 L 759.93 494.01 L 767.02 482.00 L 774.11 491.00 L 781.21 495.50 L 788.30 497.75 L 795.39 498.87 L 802.48 496.61 L 809.57 498.30 L 816.67 499.15 L 823.76 499.58 L 830.85 498.71 L 837.94 499.35 L 845.04 498.05 L 852.13 499.02 L 859.22 497.05 L 866.31 498.52 L 873.40 499.26 L 880.50 499.63 L 887.59 499.82 L 894.68 499.91 L 901.77 499.70 L 908.87 499.85 L 915.96 499.93 L 923.05 499.96 L 930.14 499.98" /><text  class="poloto_text poloto_legend_text" x="1175" y="150" >c(1001)</text><line  class="poloto_line poloto_legend_icon poloto1stroke poloto1legend" stroke="black" x1="1180" x2="1230" y1="131.25" y2="131.25" /><path  class="poloto_line poloto1stroke" fill="none" stroke="black" d=" M 150.00 444.60 L 157.09 472.30 L 164.18 486.15 L 171.28 458.43 L 178.37 479.21 L 185.46 437.62 L 192.55 468.81 L 199.65 406.42 L 206.74 453.21 L 213.83 359.61 L 220.92 429.80 L 228.01 464.90 L 235.11 394.69 L 242.20 447.34 L 249.29 342.01 L 256.38 421.01 L 263.48 263.00 L 270.57 381.50 L 277.66 144.49 L 284.75 322.24 L 291.84 411.12 L 298.94 233.35 L 306.03 366.67 L 313.12 100.00 L 320.21 300.00 L 327.30 400.00 L 334.40 450.00 L 341.49 349.98 L 348.58 424.99 L 355.67 274.95 L 362.77 387.48 L 369.86 162.41 L 376.95 331.21 L 384.04 415.60 L 391.13 457.80 L 398.23 478.90 L 405.32 489.45 L 412.41 494.73 L 419.50 497.36 L 426.60 492.07 L 433.69 496.03 L 440.78 488.09 L 447.87 494.04 L 454.96 482.11 L 462.06 491.05 L 469.15 473.15 L 476.24 486.57 L 483.33 493.29 L 490.43 496.64 L 497.52 498.32 L 504.61 494.95 L 511.70 497.47 L 518.79 492.40 L 525.89 496.20 L 532.98 498.10 L 540.07 494.28 L 547.16 497.14 L 554.26 491.41 L 561.35 495.70 L 568.44 487.09 L 575.53 493.54 L 582.62 496.77 L 589.72 490.30 L 596.81 495.15 L 603.90 485.43 L 610.99 492.71 L 618.09 478.13 L 625.18 489.06 L 632.27 467.17 L 639.36 483.59 L 646.45 491.79 L 653.55 475.36 L 660.64 487.68 L 667.73 493.84 L 674.82 496.92 L 681.91 490.74 L 689.01 495.37 L 696.10 486.09 L 703.19 493.05 L 710.28 479.12 L 717.38 489.56 L 724.47 494.78 L 731.56 484.32 L 738.65 492.16 L 745.74 476.47 L 752.84 488.23 L 759.93 494.12 L 767.02 482.33 L 774.11 491.17 L 781.21 473.48 L 788.30 486.74 L 795.39 460.20 L 802.48 480.10 L 809.57 440.28 L 816.67 470.14 L 823.76 410.40 L 830.85 455.20 L 837.94 365.58 L 845.04 432.79 L 852.13 466.40 L 859.22 483.20 L 866.31 449.58 L 873.40 474.79 L 880.50 424.35 L 887.59 462.17 L 894.68 386.50 L 901.77 443.25 L 908.87 329.73 L 915.96 414.87 L 923.05 457.43 L 930.14 478.72 L 937.23 489.36 L 944.33 468.06 L 951.42 484.03 L 958.51 492.01 L 965.60 476.02 L 972.70 488.01 L 979.79 494.01 L 986.88 482.00 L 993.97 491.00 L 1001.06 495.50 L 1008.16 497.75 L 1015.25 498.87 L 1022.34 496.61 L 1029.43 498.30 L 1036.52 499.15 L 1043.62 499.58 L 1050.71 498.71 L 1057.80 499.35 L 1064.89 498.05 L 1071.99 499.02 L 1079.08 497.05 L 1086.17 498.52 L 1093.26 499.26 L 1100.35 499.63 L 1107.45 499.82 L 1114.54 499.91 L 1121.63 499.70 L 1128.72 499.85 L 1135.82 499.93 L 1142.91 499.96 L 1150.00 499.98" /><text  class="poloto_text poloto_legend_text" x="1175" y="200" >c(1002)</text><line  class="poloto_line poloto_legend_icon poloto2stroke poloto2legend" stroke="black" x1="1180" x2="1230" y1="181.25" y2="181.25" /><path  class="poloto_line poloto2stroke" fill="none" stroke="black" d=" M 150.00 490.76 L 157.09 472.26 L 164.18 486.13 L 171.28 493.07 L 178.37 496.53 L 185.46 498.27 L 192.55 499.13 L 199.65 497.38 L 206.74 498.69 L 213.83 496.05 L 220.92 498.03 L 228.01 494.06 L 235.11 497.03 L 242.20 491.07 L 249.29 495.54 L 256.38 497.77 L 263.48 493.29 L 270.57 496.64 L 277.66 498.32 L 284.75 494.95 L 291.84 497.47 L 298.94 492.40 L 306.03 496.20 L 313.12 498.10 L 320.21 494.28 L 327.30 497.14 L 334.40 491.41 L 341.49 495.70 L 348.58 487.09 L 355.67 493.54 L 362.77 496.77 L 369.86 490.30 L 376.95 495.15 L 384.04 485.43 L 391.13 492.71 L 398.23 478.13 L 405.32 489.06 L 412.41 467.17 L 419.50 483.59 L 426.60 491.79 L 433.69 475.36 L 440.78 487.68 L 447.87 493.84 L 454.96 496.92 L 462.06 490.74 L 469.15 495.37 L 476.24 486.09 L 483.33 493.05 L 490.43 479.12 L 497.52 489.56 L 504.61 494.78 L 511.70 484.32 L 518.79 492.16 L 525.89 476.47 L 532.98 488.23 L 540.07 494.12 L 547.16 482.33 L 554.26 491.17 L 561.35 473.48 L 568.44 486.74 L 575.53 460.20 L 582.62 480.10 L 589.72 440.28 L 596.81 470.14 L 603.90 410.40 L 610.99 455.20 L 618.09 365.58 L 625.18 432.79 L 632.27 466.40 L 639.36 483.20 L 646.45 449.58 L 653.55 474.79 L 660.64 424.35 L 667.73 462.17 L 674.82 386.50 L 681.91 443.25 L 689.01 329.73 L 696.10 414.87 L 703.19 457.43 L 710.28 478.72 L 717.38 489.36 L 724.47 468.06 L 731.56 484.03 L 738.65 492.01 L 745.74 476.02 L 752.84 488.01 L 759.93 494.01 L 767.02 482.00 L 774.11 491.00 L 781.21 495.50 L 788.30 497.75 L 795.39 498.87 L 802.48 496.61 L 809.57 498.30 L 816.67 499.15 L 823.76 499.58 L 830.85 498.71 L 837.94 499.35 L 845.04 498.05 L 852.13 499.02 L 859.22 497.05 L 866.31 498.52 L 873.40 499.26 L 880.50 499.63 L 887.59 499.82 L 894.68 499.91 L 901.77 499.70 L 908.87 499.85 L 915.96 499.93 L 923.05 499.96 L 930.14 499.98" /><text  class="poloto_text poloto_legend_text" x="1175" y="250" >c(1003)</text><line  class="poloto_line poloto_legend_icon poloto3stroke poloto3legend" stroke="black" x1="1180" x2="1230" y1="231.25" y2="231.25" /><path  class="poloto_line poloto3stroke" fill="none" stroke="black" d=" M 150.00 444.49 L 157.09 472.24 L 164.18 416.71 L 171.28 458.35 L 178.37 479.18 L 185.46 437.51 L 192.55 468.76 L 199.65 484.38 L 206.74 453.12 L 213.83 476.56 L 220.92 429.66 L 228.01 464.83 L 235.11 394.47 L 242.20 447.23 L 249.29 341.68 L 256.38 420.84 L 263.48 460.42 L 270.57 480.21 L 277.66 440.61 L 284.75 470.31 L 291.84 485.15 L 298.94 455.44 L 306.03 477.72 L 313.12 488.86 L 320.21 494.43 L 327.30 497.22 L 334.40 491.63 L 341.49 495.81 L 348.58 487.42 L 355.67 493.71 L 362.77 481.11 L 369.86 490.56 L 376.95 495.28 L 384.04 497.64 L 391.13 498.82 L 398.23 499.41 L 405.32 499.70 L 412.41 499.85 L 419.50 499.93 L 426.60 499.96 L 433.69 499.98" /><text  class="poloto_text poloto_legend_text" x="1175" y="300" >c(1004)</text><line  class="poloto_line poloto_legend_icon poloto4stroke poloto4legend" stroke="black" x1="1180" x2="1230" y1="281.25" y2="281.25" /><path  class="poloto_line poloto4stroke" fill="none" stroke="black" d=" M 150.00 490.74 L 157.09 495.37 L 164.18 486.09 L 171.28 493.05 L 178.37 479.12 L 185.46 489.56 L 192.55 494.78 L 199.65 484.32 L 206.74 492.16 L 213.83 476.47 L 220.92 488.23 L 228.01 494.12 L 235.11 482.33 L 242.20 491.17 L 249.29 473.48 L 256.38 486.74 L 263.48 460.20 L 270.57 480.10 L 277.66 440.28 L 284.75 470.14 L 291.84 410.40 L 298.94 455.20 L 306.03 365.58 L 313.12 432.79 L 320.21 466.40 L 327.30 483.20 L 334.40 449.58 L 341.49 474.79 L 348.58 424.35 L 355.67 462.17 L 362.77 386.50 L 369.86 443.25 L 376.95 329.73 L 384.04 414.87 L 391.13 457.43 L 398.23 478.72 L 405.32 489.36 L 412.41 468.06 L 419.50 484.03 L 426.60 492.01 L 433.69 476.02 L 440.78 488.01 L 447.87 494.01 L 454.96 482.00 L 462.06 491.00 L 469.15 495.50 L 476.24 497.75 L 483.33 498.87 L 490.43 496.61 L 497.52 498.30 L 504.61 499.15 L 511.70 499.58 L 518.79 498.71 L 525.89 499.35 L 532.98 498.05 L 540.07 499.02 L 547.16 497.05 L 554.26 498.52 L 561.35 499.26 L 568.44 499.63 L 575.53 499.82 L 582.62 499.91 L 589.72 499.70 L 596.81 499.85 L 603.90 499.93 L 610.99 499.96 L 618.09 499.98" /><text  class="poloto_text poloto_legend_text" x="1175" y="350" >c(1005)</text><line  class="poloto_line poloto_legend_icon poloto5stroke poloto5legend" stroke="black" x1="1180" x2="1230" y1="331.25" y2="331.25" /><path  class="poloto_line poloto5stroke" fill="none" stroke="black" d=" M 150.00 444.37 L 157.09 472.19 L 164.18 486.09 L 171.28 493.05 L 178.37 479.12 L 185.46 489.56 L 192.55 494.78 L 199.65 484.32 L 206.74 492.16 L 213.83 476.47 L 220.92 488.23 L 228.01 494.12 L 235.11 482.33 L 242.20 491.17 L 249.29 473.48 L 256.38 486.74 L 263.48 460.20 L 270.57 480.10 L 277.66 440.28 L 284.75 470.14 L 291.84 410.40 L 298.94 455.20 L 306.03 365.58 L 313.12 432.79 L 320.21 466.40 L 327.30 483.20 L 334.40 449.58 L 341.49 474.79 L 348.58 424.35 L 355.67 462.17 L 362.77 386.50 L 369.86 443.25 L 376.95 329.73 L 384.04 414.87 L 391.13 457.43 L 398.23 478.72 L 405.32 489.36 L 412.41 468.06 L 419.50 484.03 L 426.60 492.01 L 433.69 476.02 L 440.78 488.01 L 447.87 494.01 L 454.96 482.00 L 462.06 491.00 L 469.15 495.50 L 476.24 497.75 L 483.33 498.87 L 490.43 496.61 L 497.52 498.30 L 504.61 499.15 L 511.70 499.58 L 518.79 498.71 L 525.89 499.35 L 532.98 498.05 L 540.07 499.02 L 547.16 497.05 L 554.26 498.52 L 561.35 499.26 L 568.44 499.63 L 575.53 499.82 L 582.62 499.91 L 589.72 499.70 L 596.81 499.85 L 603.90 499.93 L 610.99 499.96 L 618.09 499.98" /><text  class="poloto_labels poloto_text poloto_title" x="650" y="37.5" >collatz</text><text  class="poloto_labels poloto_text poloto_xname" x="650" y="581.25" >x</text><text  class="poloto_labels poloto_text poloto_yname" transform="rotate(-90,37.5,300)" x="37.5" y="300" >y</text><text  class="poloto_tick_labels poloto_text" dominant-baseline="middle" text-anchor="start" x="715.0000000000001" y="70" ></text><line  class="poloto_axis_lines" stroke="black" x1="150" x2="150" y1="500" y2="505" /><line  class="poloto_tick_line" stroke="black" x1="150" x2="150" y1="500" y2="100" /><text  class="poloto_tick_labels poloto_text" dominant-baseline="start" text-anchor="middle" x="150" y="530" >0</text><line  class="poloto_axis_lines" stroke="black" x1="220.92198581560285" x2="220.92198581560285" y1="500" y2="505" /><line  class="poloto_tick_line" stroke="black" x1="220.92198581560285" x2="220.92198581560285" y1="500" y2="100" /><text  class="poloto_tick_labels poloto_text" dominant-baseline="start" text-anchor="middle" x="220.92198581560285" y="530" >10</text><line  class="poloto_axis_lines" stroke="black" x1="291.8439716312057" x2="291.8439716312057" y1="500" y2="505" /><line  class="poloto_tick_line" stroke="black" x1="291.8439716312057" x2="291.8439716312057" y1="500" y2="100" /><text  class="poloto_tick_labels poloto_text" dominant-baseline="start" text-anchor="middle" x="291.8439716312057" y="530" >20</text><line  class="poloto_axis_lines" stroke="black" x1="362.7659574468085" x2="362.7659574468085" y1="500" y2="505" /><line  class="poloto_tick_line" stroke="black" x1="362.7659574468085" x2="362.7659574468085" y1="500" y2="100" /><text  class="poloto_tick_labels poloto_text" dominant-baseline="start" text-anchor="middle" x="362.7659574468085" y="530" >30</text><line  class="poloto_axis_lines" stroke="black" x1="433.68794326241135" x2="433.68794326241135" y1="500" y2="505" /><line  class="poloto_tick_line" stroke="black" x1="433.68794326241135" x2="433.68794326241135" y1="500" y2="100" /><text  class="poloto_tick_labels poloto_text" dominant-baseline="start" text-anchor="middle" x="433.68794326241135" y="530" >40</text><line  class="poloto_axis_lines" stroke="black" x1="504.60992907801415" x2="504.60992907801415" y1="500" y2="505" /><line  class="poloto_tick_line" stroke="black" x1="504.60992907801415" x2="504.60992907801415" y1="500" y2="100" /><text  class="poloto_tick_labels poloto_text" dominant-baseline="start" text-anchor="middle" x="504.60992907801415" y="530" >50</text><line  class="poloto_axis_lines" stroke="black" x1="575.531914893617" x2="575.531914893617" y1="500" y2="505" /><line  class="poloto_tick_line" stroke="black" x1="575.531914893617" x2="575.531914893617" y1="500" y2="100" /><text  class="poloto_tick_labels poloto_text" dominant-baseline="start" text-anchor="middle" x="575.531914893617" y="530" >60</text><line  class="poloto_axis_lines" stroke="black" x1="646.4539007092199" x2="646.4539007092199" y1="500" y2="505" /><line  class="poloto_tick_line" stroke="black" x1="646.4539007092199" x2="646.4539007092199" y1="500" y2="100" /><text  class="poloto_tick_labels poloto_text" dominant-baseline="start" text-anchor="middle" x="646.4539007092199" y="530" >70</text><line  class="poloto_axis_lines" stroke="black" x1="717.3758865248227" x2="717.3758865248227" y1="500" y2="505" /><line  class="poloto_tick_line" stroke="black" x1="717.3758865248227" x2="717.3758865248227" y1="500" y2="100" /><text  class="poloto_tick_labels poloto_text" dominant-baseline="start" text-anchor="middle" x="717.3758865248227" y="530" >80</text><line  class="poloto_axis_lines" stroke="black" x1="788.2978723404254" x2="788.2978723404254" y1="500" y2="505" /><line  class="poloto_tick_line" stroke="black" x1="788.2978723404254" x2="788.2978723404254" y1="500" y2="100" /><text  class="poloto_tick_labels poloto_text" dominant-baseline="start" text-anchor="middle" x="788.2978723404254" y="530" >90</text><line  class="poloto_axis_lines" stroke="black" x1="859.2198581560283" x2="859.2198581560283" y1="500" y2="505" /><line  class="poloto_tick_line" stroke="black" x1="859.2198581560283" x2="859.2198581560283" y1="500" y2="100" /><text  class="poloto_tick_labels poloto_text" dominant-baseline="start" text-anchor="middle" x="859.2198581560283" y="530" >100</text><line  class="poloto_axis_lines" stroke="black" x1="930.1418439716311" x2="930.1418439716311" y1="500" y2="505" /><line  class="poloto_tick_line" stroke="black" x1="930.1418439716311" x2="930.1418439716311" y1="500" y2="100" /><text  class="poloto_tick_labels poloto_text" dominant-baseline="start" text-anchor="middle" x="930.1418439716311" y="530" >110</text><line  class="poloto_axis_lines" stroke="black" x1="1001.063829787234" x2="1001.063829787234" y1="500" y2="505" /><line  class="poloto_tick_line" stroke="black" x1="1001.063829787234" x2="1001.063829787234" y1="500" y2="100" /><text  class="poloto_tick_labels poloto_text" dominant-baseline="start" text-anchor="middle" x="1001.063829787234" y="530" >120</text><line  class="poloto_axis_lines" stroke="black" x1="1071.9858156028367" x2="1071.9858156028367" y1="500" y2="505" /><line  class="poloto_tick_line" stroke="black" x1="1071.9858156028367" x2="1071.9858156028367" y1="500" y2="100" /><text  class="poloto_tick_labels poloto_text" dominant-baseline="start" text-anchor="middle" x="1071.9858156028367" y="530" >130</text><line  class="poloto_axis_lines" stroke="black" x1="1142.9078014184397" x2="1142.9078014184397" y1="500" y2="505" /><line  class="poloto_tick_line" stroke="black" x1="1142.9078014184397" x2="1142.9078014184397" y1="500" y2="100" /><text  class="poloto_tick_labels poloto_text" dominant-baseline="start" text-anchor="middle" x="1142.9078014184397" y="530" >140</text><text  class="poloto_tick_labels poloto_text" dominant-baseline="middle" text-anchor="start" x="150" y="70" ></text><line  class="poloto_axis_lines" stroke="black" x1="150" x2="144" y1="500" y2="500" /><line  class="poloto_tick_line" stroke="black" x1="150" x2="1150" y1="500" y2="500" /><text  class="poloto_tick_labels poloto_text" dominant-baseline="middle" text-anchor="end" x="135" y="500" >0</text><line  class="poloto_axis_lines" stroke="black" x1="150" x2="144" y1="407.78310586499447" y2="407.78310586499447" /><line  class="poloto_tick_line" stroke="black" x1="150" x2="1150" y1="407.78310586499447" y2="407.78310586499447" /><text  class="poloto_tick_labels poloto_text" dominant-baseline="middle" text-anchor="end" x="135" y="407.78310586499447" >5000</text><line  class="poloto_axis_lines" stroke="black" x1="150" x2="144" y1="315.56621172998894" y2="315.56621172998894" /><line  class="poloto_tick_line" stroke="black" x1="150" x2="1150" y1="315.56621172998894" y2="315.56621172998894" /><text  class="poloto_tick_labels poloto_text" dominant-baseline="middle" text-anchor="end" x="135" y="315.56621172998894" >10000</text><line  class="poloto_axis_lines" stroke="black" x1="150" x2="144" y1="223.3493175949834" y2="223.3493175949834" /><line  class="poloto_tick_line" stroke="black" x1="150" x2="1150" y1="223.3493175949834" y2="223.3493175949834" /><text  class="poloto_tick_labels poloto_text" dominant-baseline="middle" text-anchor="end" x="135" y="223.3493175949834" >15000</text><line  class="poloto_axis_lines" stroke="black" x1="150" x2="144" y1="131.13242345997787" y2="131.13242345997787" /><line  class="poloto_tick_line" stroke="black" x1="150" x2="1150" y1="131.13242345997787" y2="131.13242345997787" /><text  class="poloto_tick_labels poloto_text" dominant-baseline="middle" text-anchor="end" x="135" y="131.13242345997787" >20000</text><path  stroke="black" fill="none" class="poloto_axis_lines" style="stroke-dasharray:7.092198581560284;stroke-dashoffset:-0;" d=" M 150 500 L 1150 500" /><path  stroke="black" fill="none" class="poloto_axis_lines" style="stroke-dasharray:9.221689413500552;stroke-dashoffset:-0;" d=" M 150 500 L 150 100" /></svg>