<svg class="poloto" width="800" height="369.2307692307692" viewBox="0 0 1300 600" xmlns="http://www.w3.org/2000/svg"><style>.poloto{stroke-linecap:round;stroke-linejoin:round;font-family:Roboto,sans-serif;font-size:16px;}.poloto_background{fill:#262626;}.poloto_scatter{stroke-width:7}.poloto_tick_line{stroke:dimgray;stroke-width:0.5}.poloto_line{stroke-width:2}.poloto_text{fill: white;}.poloto_axis_lines{stroke: white;stroke-width:3;fill:none;stroke-dasharray:none}.poloto_title{font-size:24px;dominant-baseline:start;text-anchor:middle;}.poloto_xname{font-size:24px;dominant-baseline:start;text-anchor:middle;}.poloto_yname{font-size:24px;dominant-baseline:start;text-anchor:middle;}.poloto0stroke{stroke:blue;}.poloto1stroke{stroke:red;}.poloto2stroke{stroke:green;}.poloto3stroke{stroke:gold;}.poloto4stroke{stroke:aqua;}.poloto5stroke{stroke:lime;}.poloto6stroke{stroke:orange;}.poloto7stroke{stroke:chocolate;}.poloto0fill{fill:blue;}.poloto1fill{fill:red;}.poloto2fill{fill:green;}.poloto3fill{fill:gold;}.poloto4fill{fill:aqua;}.poloto5fill{fill:lime;}.poloto6fill{fill:orange;}.poloto7fill{fill:chocolate;}.poloto_line{stroke-dasharray:2;stroke-width:2;}</style><circle  r="1e5" class="poloto_background" /><text  class="poloto_text poloto_legend_text" x="1175" y="100" >c(1000)</text><line  class="poloto_line poloto_legend_icon poloto0stroke poloto0legend" stroke="black" x1="1180" x2="1230" y1="81.25" y2="81.25" /><path  class="poloto_line poloto0stroke" fill="none" stroke="black" d=" M 150.00 490.80 L 157.09 495.41 L 164.18 497.71 L 171.28 493.08 L 178.37 496.55 L 185.46 498.28 L 192.55 499.15 L 199.65 497.40 L 206.74 498.71 L 213.83 496.07 L 220.92 498.04 L 228.01 494.08 L 235.11 497.05 L 242.20 491.09 L 249.29 495.55 L 256.38 497.79 L 263.48 493.30 L 270.57 496.66 L 277.66 498.34 L 284.75 494.96 L 291.84 497.49 L 298.94 492.42 L 306.03 496.22 L 313.12 498.12 L 320.21 494.30 L 327.30 497.16 L 334.40 491.42 L 341.49 495.72 L 348.58 487.11 L 355.67 493.56 L 362.77 496.79 L 369.86 490.32 L 376.95 495.17 L 384.04 485.45 L 391.13 492.73 L 398.23 478.14 L 405.32 489.08 L 412.41 467.19 L 419.50 483.60 L 426.60 491.81 L 433.69 475.38 L 440.78 487.70 L 447.87 493.86 L 454.96 496.94 L 462.06 490.76 L 469.15 495.39 L 476.24 486.11 L 483.33 493.06 L 490.43 479.14 L 497.52 489.58 L 504.61 494.80 L 511.70 484.34 L 518.79 492.18 L 525.89 476.48 L 532.98 488.25 L 540.07 494.13 L 547.16 482.35 L 554.26 491.18 L 561.35 473.50 L 568.44 486.76 L 575.53 460.22 L 582.62 480.12 L 589.72 440.30 L 596.81 470.16 L 603.90 410.42 L 610.99 455.22 L 618.09 365.60 L 625.18 432.81 L 632.27 466.41 L 639.36 483.22 L 646.45 449.59 L 653.55 474.81 L 660.64 424.36 L 667.73 462.19 L 674.82 386.51 L 681.91 443.27 L 689.01 329.74 L 696.10 414.88 L 703.19 457.45 L 710.28 478.73 L 717.38 489.38 L 724.47 468.07 L 731.56 484.05 L 738.65 492.03 L 745.74 476.04 L 752.84 488.03 L 759.93 494.02 L 767.02 482.02 L 774.11 491.02 L 781.21 495.52 L 788.30 497.77 L 795.39 498.89 L 802.48 496.62 L 809.57 498.32 L 816.67 499.17 L 823.76 499.59 L 830.85 498.73 L 837.94 499.37 L 845.04 498.06 L 852.13 499.04 L 859.22 497.07 L 866.31 498.54 L 873.40 499.28 L 880.50 499.65 L 887.59 499.83 L 894.68 499.93 L 901.77 499.72 L 908.87 499.87 L 915.96 499.94 L 923.05 499.98 L 930.14 500.00" /><text  class="poloto_text poloto_legend_text" x="1175" y="150" >c(1001)</text><line  class="poloto_line poloto_legend_icon poloto1stroke poloto1legend" stroke="black" x1="1180" x2="1230" y1="131.25" y2="131.25" /><path  class="poloto_line poloto1stroke" fill="none" stroke="black" d=" M 150.00 444.61 L 157.09 472.32 L 164.18 486.17 L 171.28 458.45 L 178.37 479.23 L 185.46 437.64 L 192.55 468.83 L 199.65 406.43 L 206.74 453.23 L 213.83 359.62 L 220.92 429.82 L 228.01 464.92 L 235.11 394.70 L 242.20 447.36 L 249.29 342.03 L 256.38 421.02 L 263.48 263.01 L 270.57 381.51 L 277.66 144.49 L 284.75 322.25 L 291.84 411.14 L 298.94 233.35 L 306.03 366.69 L 313.12 100.00 L 320.21 300.01 L 327.30 400.01 L 334.40 450.02 L 341.49 349.99 L 348.58 425.01 L 355.67 274.96 L 362.77 387.49 L 369.86 162.42 L 376.95 331.22 L 384.04 415.62 L 391.13 457.82 L 398.23 478.92 L 405.32 489.47 L 412.41 494.74 L 419.50 497.38 L 426.60 492.09 L 433.69 496.05 L 440.78 488.10 L 447.87 494.06 L 454.96 482.13 L 462.06 491.07 L 469.15 473.16 L 476.24 486.59 L 483.33 493.30 L 490.43 496.66 L 497.52 498.34 L 504.61 494.96 L 511.70 497.49 L 518.79 492.42 L 525.89 496.22 L 532.98 498.12 L 540.07 494.30 L 547.16 497.16 L 554.26 491.42 L 561.35 495.72 L 568.44 487.11 L 575.53 493.56 L 582.62 496.79 L 589.72 490.32 L 596.81 495.17 L 603.90 485.45 L 610.99 492.73 L 618.09 478.14 L 625.18 489.08 L 632.27 467.19 L 639.36 483.60 L 646.45 491.81 L 653.55 475.38 L 660.64 487.70 L 667.73 493.86 L 674.82 496.94 L 681.91 490.76 L 689.01 495.39 L 696.10 486.11 L 703.19 493.06 L 710.28 479.14 L 717.38 489.58 L 724.47 494.80 L 731.56 484.34 L 738.65 492.18 L 745.74 476.48 L 752.84 488.25 L 759.93 494.13 L 767.02 482.35 L 774.11 491.18 L 781.21 473.50 L 788.30 486.76 L 795.39 460.22 L 802.48 480.12 L 809.57 440.30 L 816.67 470.16 L 823.76 410.42 L 830.85 455.22 L 837.94 365.60 L 845.04 432.81 L 852.13 466.41 L 859.22 483.22 L 866.31 449.59 L 873.40 474.81 L 880.50 424.36 L 887.59 462.19 L 894.68 386.51 L 901.77 443.27 L 908.87 329.74 L 915.96 414.88 L 923.05 457.45 L 930.14 478.73 L 937.23 489.38 L 944.33 468.07 L 951.42 484.05 L 958.51 492.03 L 965.60 476.04 L 972.70 488.03 L 979.79 494.02 L 986.88 482.02 L 993.97 491.02 L 1001.06 495.52 L 1008.16 497.77 L 1015.25 498.89 L 1022.34 496.62 L 1029.43 498.32 L 1036.52 499.17 L 1043.62 499.59 L 1050.71 498.73 L 1057.80 499.37 L 1064.89 498.06 L 1071.99 499.04 L 1079.08 497.07 L 1086.17 498.54 L 1093.26 499.28 L 1100.35 499.65 L 1107.45 499.83 L 1114.54 499.93 L 1121.63 499.72 L 1128.72 499.87 L 1135.82 499.94 L 1142.91 499.98 L 1150.00 500.00" /><text  class="poloto_text poloto_legend_text" x="1175" y="200" >c(1002)</text><line  class="poloto_line poloto_legend_icon poloto2stroke poloto2legend" stroke="black" x1="1180" x2="1230" y1="181.25" y2="181.25" /><path  class="poloto_line poloto2stroke" fill="none" stroke="black" d=" M 150.00 490.78 L 157.09 472.28 L 164.18 486.15 L 171.28 493.08 L 178.37 496.55 L 185.46 498.28 L 192.55 499.15 L 199.65 497.40 L 206.74 498.71 L 213.83 496.07 L 220.92 498.04 L 228.01 494.08 L 235.11 497.05 L 242.20 491.09 L 249.29 495.55 L 256.38 497.79 L 263.48 493.30 L 270.57 496.66 L 277.66 498.34 L 284.75 494.96 L 291.84 497.49 L 298.94 492.42 L 306.03 496.22 L 313.12 498.12 L 320.21 494.30 L 327.30 497.16 L 334.40 491.42 L 341.49 495.72 L 348.58 487.11 L 355.67 493.56 L 362.77 496.79 L 369.86 490.32 L 376.95 495.17 L 384.04 485.45 L 391.13 492.73 L 398.23 478.14 L 405.32 489.08 L 412.41 467.19 L 419.50 483.60 L 426.60 491.81 L 433.69 475.38 L 440.78 487.70 L 447.87 493.86 L 454.96 496.94 L 462.06 490.76 L 469.15 495.39 L 476.24 486.11 L 483.33 493.06 L 490.43 479.14 L 497.52 489.58 L 504.61 494.80 L 511.70 484.34 L 518.79 492.18 L 525.89 476.48 L 532.98 488.25 L 540.07 494.13 L 547.16 482.35 L 554.26 491.18 L 561.35 473.50 L 568.44 486.76 L 575.53 460.22 L 582.62 480.12 L 589.72 440.30 L 596.81 470.16 L 603.90 410.42 L 610.99 455.22 L 618.09 365.60 L 625.18 432.81 L 632.27 466.41 L 639.36 483.22 L 646.45 449.59 L 653.55 474.81 L 660.64 424.36 L 667.73 462.19 L 674.82 386.51 L 681.91 443.27 L 689.01 329.74 L 696.10 414.88 L 703.19 457.45 L 710.28 478.73 L 717.38 489.38 L 724.47 468.07 L 731.56 484.05 L 738.65 492.03 L 745.74 476.04 L 752.84 488.03 L 759.93 494.02 L 767.02 482.02 L 774.11 491.02 L 781.21 495.52 L 788.30 497.77 L 795.39 498.89 L 802.48 496.62 L 809.57 498.32 L 816.67 499.17 L 823.76 499.59 L 830.85 498.73 L 837.94 499.37 L 845.04 498.06 L 852.13 499.04 L 859.22 497.07 L 866.31 498.54 L 873.40 499.28 L 880.50 499.65 L 887.59 499.83 L 894.68 499.93 L 901.77 499.72 L 908.87 499.87 L 915.96 499.94 L 923.05 499.98 L 930.14 500.00" /><text  class="poloto_text poloto_legend_text" x="1175" y="250" >c(1003)</text><line  class="poloto_line poloto_legend_icon poloto3stroke poloto3legend" stroke="black" x1="1180" x2="1230" y1="231.25" y2="231.25" /><path  class="poloto_line poloto3stroke" fill="none" stroke="black" d=" M 150.00 444.50 L 157.09 472.26 L 164.18 416.72 L 171.28 458.37 L 178.37 479.19 L 185.46 437.53 L 192.55 468.77 L 199.65 484.40 L 206.74 453.13 L 213.83 476.58 L 220.92 429.67 L 228.01 464.85 L 235.11 394.48 L 242.20 447.25 L 249.29 341.69 L 256.38 420.86 L 263.48 460.44 L 270.57 480.23 L 277.66 440.63 L 284.75 470.32 L 291.84 485.17 L 298.94 455.46 L 306.03 477.74 L 313.12 488.88 L 320.21 494.45 L 327.30 497.23 L 334.40 491.64 L 341.49 495.83 L 348.58 487.44 L 355.67 493.73 L 362.77 481.13 L 369.86 490.57 L 376.95 495.30 L 384.04 497.66 L 391.13 498.84 L 398.23 499.43 L 405.32 499.72 L 412.41 499.87 L 419.50 499.94 L 426.60 499.98 L 433.69 500.00" /><text  class="poloto_text poloto_legend_text" x="1175" y="300" >c(1004)</text><line  class="poloto_line poloto_legend_icon poloto4stroke poloto4legend" stroke="black" x1="1180" x2="1230" y1="281.25" y2="281.25" /><path  class="poloto_line poloto4stroke" fill="none" stroke="black" d=" M 150.00 490.76 L 157.09 495.39 L 164.18 486.11 L 171.28 493.06 L 178.37 479.14 L 185.46 489.58 L 192.55 494.80 L 199.65 484.34 L 206.74 492.18 L 213.83 476.48 L 220.92 488.25 L 228.01 494.13 L 235.11 482.35 L 242.20 491.18 L 249.29 473.50 L 256.38 486.76 L 263.48 460.22 L 270.57 480.12 L 277.66 440.30 L 284.75 470.16 L 291.84 410.42 L 298.94 455.22 L 306.03 365.60 L 313.12 432.81 L 320.21 466.41 L 327.30 483.22 L 334.40 449.59 L 341.49 474.81 L 348.58 424.36 L 355.67 462.19 L 362.77 386.51 L 369.86 443.27 L 376.95 329.74 L 384.04 414.88 L 391.13 457.45 L 398.23 478.73 L 405.32 489.38 L 412.41 468.07 L 419.50 484.05 L 426.60 492.03 L 433.69 476.04 L 440.78 488.03 L 447.87 494.02 L 454.96 482.02 L 462.06 491.02 L 469.15 495.52 L 476.24 497.77 L 483.33 498.89 L 490.43 496.62 L 497.52 498.32 L 504.61 499.17 L 511.70 499.59 L 518.79 498.73 L 525.89 499.37 L 532.98 498.06 L 540.07 499.04 L 547.16 497.07 L 554.26 498.54 L 561.35 499.28 L 568.44 499.65 L 575.53 499.83 L 582.62 499.93 L 589.72 499.72 L 596.81 499.87 L 603.90 499.94 L 610.99 499.98 L 618.09 500.00" /><text  class="poloto_text poloto_legend_text" x="1175" y="350" >c(1005)</text><line  class="poloto_line poloto_legend_icon poloto5stroke poloto5legend" stroke="black" x1="1180" x2="1230" y1="331.25" y2="331.25" /><path  class="poloto_line poloto5stroke" fill="none" stroke="black" d=" M 150.00 444.39 L 157.09 472.20 L 164.18 486.11 L 171.28 493.06 L 178.37 479.14 L 185.46 489.58 L 192.55 494.80 L 199.65 484.34 L 206.74 492.18 L 213.83 476.48 L 220.92 488.25 L 228.01 494.13 L 235.11 482.35 L 242.20 491.18 L 249.29 473.50 L 256.38 486.76 L 263.48 460.22 L 270.57 480.12 L 277.66 440.30 L 284.75 470.16 L 291.84 410.42 L 298.94 455.22 L 306.03 365.60 L 313.12 432.81 L 320.21 466.41 L 327.30 483.22 L 334.40 449.59 L 341.49 474.81 L 348.58 424.36 L 355.67 462.19 L 362.77 386.51 L 369.86 443.27 L 376.95 329.74 L 384.04 414.88 L 391.13 457.45 L 398.23 478.73 L 405.32 489.38 L 412.41 468.07 L 419.50 484.05 L 426.60 492.03 L 433.69 476.04 L 440.78 488.03 L 447.87 494.02 L 454.96 482.02 L 462.06 491.02 L 469.15 495.52 L 476.24 497.77 L 483.33 498.89 L 490.43 496.62 L 497.52 498.32 L 504.61 499.17 L 511.70 499.59 L 518.79 498.73 L 525.89 499.37 L 532.98 498.06 L 540.07 499.04 L 547.16 497.07 L 554.26 498.54 L 561.35 499.28 L 568.44 499.65 L 575.53 499.83 L 582.62 499.93 L 589.72 499.72 L 596.81 499.87 L 603.90 499.94 L 610.99 499.98 L 618.09 500.00" /><text  class="poloto_labels poloto_text poloto_title" x="650" y="37.5" >collatz</text><text  class="poloto_labels poloto_text poloto_xname" x="650" y="581.25" >x</text><text  class="poloto_labels poloto_text poloto_yname" transform="rotate(-90,37.5,300)" x="37.5" y="300" >y</text><text  class="poloto_tick_labels poloto_text" dominant-baseline="middle" text-anchor="start" x="715.0000000000001" y="70" ></text><line  class="poloto_axis_lines" stroke="black" x1="150" x2="150" y1="500" y2="505" /><line  class="poloto_tick_line" stroke="black" x1="150" x2="150" y1="500" y2="100" /><text  class="poloto_tick_labels poloto_text" dominant-baseline="start" text-anchor="middle" x="150" y="530" >0</text><line  class="poloto_axis_lines" stroke="black" x1="220.92198581560285" x2="220.92198581560285" y1="500" y2="505" /><line  class="poloto_tick_line" stroke="black" x1="220.92198581560285" x2="220.92198581560285" y1="500" y2="100" /><text  class="poloto_tick_labels poloto_text" dominant-baseline="start" text-anchor="middle" x="220.92198581560285" y="530" >10</text><line  class="poloto_axis_lines" stroke="black" x1="291.8439716312057" x2="291.8439716312057" y1="500" y2="505" /><line  class="poloto_tick_line" stroke="black" x1="291.8439716312057" x2="291.8439716312057" y1="500" y2="100" /><text  class="poloto_tick_labels poloto_text" dominant-baseline="start" text-anchor="middle" x="291.8439716312057" y="530" >20</text><line  class="poloto_axis_lines" stroke="black" x1="362.7659574468085" x2="362.7659574468085" y1="500" y2="505" /><line  class="poloto_tick_line" stroke="black" x1="362.7659574468085" x2="362.7659574468085" y1="500" y2="100" /><text  class="poloto_tick_labels poloto_text" dominant-baseline="start" text-anchor="middle" x="362.7659574468085" y="530" >30</text><line  class="poloto_axis_lines" stroke="black" x1="433.68794326241135" x2="433.68794326241135" y1="500" y2="505" /><line  class="poloto_tick_line" stroke="black" x1="433.68794326241135" x2="433.68794326241135" y1="500" y2="100" /><text  class="poloto_tick_labels poloto_text" dominant-baseline="start" text-anchor="middle" x="433.68794326241135" y="530" >40</text><line  class="poloto_axis_lines" stroke="black" x1="504.60992907801415" x2="504.60992907801415" y1="500" y2="505" /><line  class="poloto_tick_line" stroke="black" x1="504.60992907801415" x2="504.60992907801415" y1="500" y2="100" /><text  class="poloto_tick_labels poloto_text" dominant-baseline="start" text-anchor="middle" x="504.60992907801415" y="530" >50</text><line  class="poloto_axis_lines" stroke="black" x1="575.531914893617" x2="575.531914893617" y1="500" y2="505" /><line  class="poloto_tick_line" stroke="black" x1="575.531914893617" x2="575.531914893617" y1="500" y2="100" /><text  class="poloto_tick_labels poloto_text" dominant-baseline="start" text-anchor="middle" x="575.531914893617" y="530" >60</text><line  class="poloto_axis_lines" stroke="black" x1="646.4539007092199" x2="646.4539007092199" y1="500" y2="505" /><line  class="poloto_tick_line" stroke="black" x1="646.4539007092199" x2="646.4539007092199" y1="500" y2="100" /><text  class="poloto_tick_labels poloto_text" dominant-baseline="start" text-anchor="middle" x="646.4539007092199" y="530" >70</text><line  class="poloto_axis_lines" stroke="black" x1="717.3758865248227" x2="717.3758865248227" y1="500" y2="505" /><line  class="poloto_tick_line" stroke="black" x1="717.3758865248227" x2="717.3758865248227" y1="500" y2="100" /><text  class="poloto_tick_labels poloto_text" dominant-baseline="start" text-anchor="middle" x="717.3758865248227" y="530" >80</text><line  class="poloto_axis_lines" stroke="black" x1="788.2978723404254" x2="788.2978723404254" y1="500" y2="505" /><line  class="poloto_tick_line" stroke="black" x1="788.2978723404254" x2="788.2978723404254" y1="500" y2="100" /><text  class="poloto_tick_labels poloto_text" dominant-baseline="start" text-anchor="middle" x="788.2978723404254" y="530" >90</text><line  class="poloto_axis_lines" stroke="black" x1="859.2198581560283" x2="859.2198581560283" y1="500" y2="505" /><line  class="poloto_tick_line" stroke="black" x1="859.2198581560283" x2="859.2198581560283" y1="500" y2="100" /><text  class="poloto_tick_labels poloto_text" dominant-baseline="start" text-anchor="middle" x="859.2198581560283" y="530" >100</text><line  class="poloto_axis_lines" stroke="black" x1="930.1418439716311" x2="930.1418439716311" y1="500" y2="505" /><line  class="poloto_tick_line" stroke="black" x1="930.1418439716311" x2="930.1418439716311" y1="500" y2="100" /><text  class="poloto_tick_labels poloto_text" dominant-baseline="start" text-anchor="middle" x="930.1418439716311" y="530" >110</text><line  class="poloto_axis_lines" stroke="black" x1="1001.063829787234" x2="1001.063829787234" y1="500" y2="505" /><line  class="poloto_tick_line" stroke="black" x1="1001.063829787234" x2="1001.063829787234" y1="500" y2="100" /><text  class="poloto_tick_labels poloto_text" dominant-baseline="start" text-anchor="middle" x="1001.063829787234" y="530" >120</text><line  class="poloto_axis_lines" stroke="black" x1="1071.9858156028367" x2="1071.9858156028367" y1="500" y2="505" /><line  class="poloto_tick_line" stroke="black" x1="1071.9858156028367" x2="1071.9858156028367" y1="500" y2="100" /><text  class="poloto_tick_labels poloto_text" dominant-baseline="start" text-anchor="middle" x="1071.9858156028367" y="530" >130</text><line  class="poloto_axis_lines" stroke="black" x1="1142.9078014184397" x2="1142.9078014184397" y1="500" y2="505" /><line  class="poloto_tick_line" stroke="black" x1="1142.9078014184397" x2="1142.9078014184397" y1="500" y2="100" /><text  class="poloto_tick_labels poloto_text" dominant-baseline="start" text-anchor="middle" x="1142.9078014184397" y="530" >140</text><text  class="poloto_tick_labels poloto_text" dominant-baseline="middle" text-anchor="start" x="150" y="70" ></text><line  class="poloto_axis_lines" stroke="black" x1="150" x2="144" y1="407.79729792041314" y2="407.79729792041314" /><line  class="poloto_tick_line" stroke="black" x1="150" x2="1150" y1="407.79729792041314" y2="407.79729792041314" /><text  class="poloto_tick_labels poloto_text" dominant-baseline="middle" text-anchor="end" x="135" y="407.79729792041314" >5000</text><line  class="poloto_axis_lines" stroke="black" x1="150" x2="144" y1="315.57615161156457" y2="315.57615161156457" /><line  class="poloto_tick_line" stroke="black" x1="150" x2="1150" y1="315.57615161156457" y2="315.57615161156457" /><text  class="poloto_tick_labels poloto_text" dominant-baseline="middle" text-anchor="end" x="135" y="315.57615161156457" >10000</text><line  class="poloto_axis_lines" stroke="black" x1="150" x2="144" y1="223.35500530271594" y2="223.35500530271594" /><line  class="poloto_tick_line" stroke="black" x1="150" x2="1150" y1="223.35500530271594" y2="223.35500530271594" /><text  class="poloto_tick_labels poloto_text" dominant-baseline="middle" text-anchor="end" x="135" y="223.35500530271594" >15000</text><line  class="poloto_axis_lines" stroke="black" x1="150" x2="144" y1="131.1338589938673" y2="131.1338589938673" /><line  class="poloto_tick_line" stroke="black" x1="150" x2="1150" y1="131.1338589938673" y2="131.1338589938673" /><text  class="poloto_tick_labels poloto_text" dominant-baseline="middle" text-anchor="end" x="135" y="131.1338589938673" >20000</text><path  stroke="black" fill="none" class="poloto_axis_lines" style="stroke-dasharray:7.092198581560284;stroke-dashoffset:-0;" d=" M 150 500 L 1150 500" /><path  stroke="black" fill="none" class="poloto_axis_lines" style="stroke-dasharray:9.222114630884862;stroke-dashoffset:-92.20270207958684;" d=" M 150 500 L 150 100" /></svg>