<svg  class="poloto"  width="800"  height="500"  viewBox="0 0 1200 750"  xmlns="http://www.w3.org/2000/svg"  ><style  > .poloto{stroke-linecap:round;stroke-linejoin:round;font-family:Roboto,sans-serif;font-size:16px;}.poloto_background{fill:#262626;}.poloto_scatter{stroke-width:7}.poloto_tick_line{stroke:dimgray;stroke-width:0.5}.poloto_line{stroke-width:2}.poloto_text{fill: white;}.poloto_axis_lines{stroke: white;stroke-width:3;fill:none;stroke-dasharray:none}.poloto_title{font-size:24px;dominant-baseline:start;text-anchor:middle;}.poloto_xname{font-size:24px;dominant-baseline:start;text-anchor:middle;}.poloto_yname{font-size:24px;dominant-baseline:start;text-anchor:middle;}.poloto0stroke{stroke:blue;}.poloto1stroke{stroke:red;}.poloto2stroke{stroke:green;}.poloto3stroke{stroke:gold;}.poloto4stroke{stroke:aqua;}.poloto5stroke{stroke:lime;}.poloto6stroke{stroke:orange;}.poloto7stroke{stroke:chocolate;}.poloto0fill{fill:blue;}.poloto1fill{fill:red;}.poloto2fill{fill:green;}.poloto3fill{fill:gold;}.poloto4fill{fill:aqua;}.poloto5fill{fill:lime;}.poloto6fill{fill:orange;}.poloto7fill{fill:chocolate;} .poloto_line{stroke-dasharray:2;stroke-width:2;}</style><circle  r="1e5"  class="poloto_background" /><text  class="poloto_text poloto_legend_text"  x="1075"  y="100" >c(1000)</text><line  class="poloto_line poloto_legend_icon poloto0stroke poloto0legend"  stroke="black"  x1="1080"  x2="1130"  y1="81.25"  y2="81.25" /><path  class="poloto_line poloto0stroke"  fill="none"  stroke="black"  d=" M 150.00 637.32 L 156.38 643.66 L 162.77 646.83 L 169.15 640.46 L 175.53 645.23 L 181.91 647.62 L 188.30 648.81 L 194.68 646.40 L 201.06 648.20 L 207.45 644.57 L 213.83 647.29 L 220.21 641.83 L 226.60 645.92 L 232.98 637.73 L 239.36 643.86 L 245.74 646.93 L 252.13 640.77 L 258.51 645.38 L 264.89 647.69 L 271.28 643.05 L 277.66 646.53 L 284.04 639.55 L 290.43 644.78 L 296.81 647.39 L 303.19 642.14 L 309.57 646.07 L 315.96 638.18 L 322.34 644.09 L 328.72 632.25 L 335.11 641.12 L 341.49 645.56 L 347.87 636.66 L 354.26 643.33 L 360.64 629.97 L 367.02 639.98 L 373.40 619.92 L 379.79 634.96 L 386.17 604.86 L 392.55 627.43 L 398.94 638.71 L 405.32 616.12 L 411.70 633.06 L 418.09 641.53 L 424.47 645.76 L 430.85 637.27 L 437.23 643.63 L 443.62 630.88 L 450.00 640.44 L 456.38 621.29 L 462.77 635.65 L 469.15 642.82 L 475.53 628.44 L 481.91 639.22 L 488.30 617.64 L 494.68 633.82 L 501.06 641.91 L 507.45 625.71 L 513.83 637.85 L 520.21 613.53 L 526.60 631.77 L 532.98 595.27 L 539.36 622.64 L 545.74 567.89 L 552.13 608.94 L 558.51 526.80 L 564.89 588.40 L 571.28 465.18 L 577.66 557.59 L 584.04 603.79 L 590.43 626.90 L 596.81 580.67 L 603.19 615.33 L 609.57 545.97 L 615.96 597.99 L 622.34 493.94 L 628.72 571.97 L 635.11 415.88 L 641.49 532.94 L 647.87 591.47 L 654.26 620.73 L 660.64 635.37 L 667.02 606.08 L 673.40 628.04 L 679.79 639.02 L 686.17 617.03 L 692.55 633.52 L 698.94 641.76 L 705.32 625.25 L 711.70 637.62 L 718.09 643.81 L 724.47 646.91 L 730.85 648.45 L 737.23 645.33 L 743.62 647.67 L 750.00 648.83 L 756.38 649.42 L 762.77 648.22 L 769.15 649.11 L 775.53 647.31 L 781.91 648.66 L 788.30 645.94 L 794.68 647.97 L 801.06 648.99 L 807.45 649.49 L 813.83 649.75 L 820.21 649.87 L 826.60 649.59 L 832.98 649.80 L 839.36 649.90 L 845.74 649.95 L 852.13 649.97" /><text  class="poloto_text poloto_legend_text"  x="1075"  y="150" >c(1001)</text><line  class="poloto_line poloto_legend_icon poloto1stroke poloto1legend"  stroke="black"  x1="1080"  x2="1130"  y1="131.25"  y2="131.25" /><path  class="poloto_line poloto1stroke"  fill="none"  stroke="black"  d=" M 150.00 573.82 L 156.38 611.91 L 162.77 630.95 L 169.15 592.84 L 175.53 621.42 L 181.91 564.23 L 188.30 607.12 L 194.68 521.33 L 201.06 585.66 L 207.45 456.96 L 213.83 553.48 L 220.21 601.74 L 226.60 505.20 L 232.98 577.60 L 239.36 432.77 L 245.74 541.38 L 252.13 324.13 L 258.51 487.06 L 264.89 161.17 L 271.28 405.58 L 277.66 527.79 L 284.04 283.35 L 290.43 466.68 L 296.81 100.00 L 303.19 375.00 L 309.57 512.50 L 315.96 581.25 L 322.34 443.72 L 328.72 546.86 L 335.11 340.56 L 341.49 495.28 L 347.87 185.82 L 354.26 417.91 L 360.64 533.95 L 367.02 591.98 L 373.40 620.99 L 379.79 635.49 L 386.17 642.75 L 392.55 646.37 L 398.94 639.10 L 405.32 644.55 L 411.70 633.62 L 418.09 641.81 L 424.47 625.40 L 430.85 637.70 L 437.23 613.08 L 443.62 631.54 L 450.00 640.77 L 456.38 645.38 L 462.77 647.69 L 469.15 643.05 L 475.53 646.53 L 481.91 639.55 L 488.30 644.78 L 494.68 647.39 L 501.06 642.14 L 507.45 646.07 L 513.83 638.18 L 520.21 644.09 L 526.60 632.25 L 532.98 641.12 L 539.36 645.56 L 545.74 636.66 L 552.13 643.33 L 558.51 629.97 L 564.89 639.98 L 571.28 619.92 L 577.66 634.96 L 584.04 604.86 L 590.43 627.43 L 596.81 638.71 L 603.19 616.12 L 609.57 633.06 L 615.96 641.53 L 622.34 645.76 L 628.72 637.27 L 635.11 643.63 L 641.49 630.88 L 647.87 640.44 L 654.26 621.29 L 660.64 635.65 L 667.02 642.82 L 673.40 628.44 L 679.79 639.22 L 686.17 617.64 L 692.55 633.82 L 698.94 641.91 L 705.32 625.71 L 711.70 637.85 L 718.09 613.53 L 724.47 631.77 L 730.85 595.27 L 737.23 622.64 L 743.62 567.89 L 750.00 608.94 L 756.38 526.80 L 762.77 588.40 L 769.15 465.18 L 775.53 557.59 L 781.91 603.79 L 788.30 626.90 L 794.68 580.67 L 801.06 615.33 L 807.45 545.97 L 813.83 597.99 L 820.21 493.94 L 826.60 571.97 L 832.98 415.88 L 839.36 532.94 L 845.74 591.47 L 852.13 620.73 L 858.51 635.37 L 864.89 606.08 L 871.28 628.04 L 877.66 639.02 L 884.04 617.03 L 890.43 633.52 L 896.81 641.76 L 903.19 625.25 L 909.57 637.62 L 915.96 643.81 L 922.34 646.91 L 928.72 648.45 L 935.11 645.33 L 941.49 647.67 L 947.87 648.83 L 954.26 649.42 L 960.64 648.22 L 967.02 649.11 L 973.40 647.31 L 979.79 648.66 L 986.17 645.94 L 992.55 647.97 L 998.94 648.99 L 1005.32 649.49 L 1011.70 649.75 L 1018.09 649.87 L 1024.47 649.59 L 1030.85 649.80 L 1037.23 649.90 L 1043.62 649.95 L 1050.00 649.97" /><text  class="poloto_text poloto_legend_text"  x="1075"  y="200" >c(1002)</text><line  class="poloto_line poloto_legend_icon poloto2stroke poloto2legend"  stroke="black"  x1="1080"  x2="1130"  y1="181.25"  y2="181.25" /><path  class="poloto_line poloto2stroke"  fill="none"  stroke="black"  d=" M 150.00 637.29 L 156.38 611.86 L 162.77 630.93 L 169.15 640.46 L 175.53 645.23 L 181.91 647.62 L 188.30 648.81 L 194.68 646.40 L 201.06 648.20 L 207.45 644.57 L 213.83 647.29 L 220.21 641.83 L 226.60 645.92 L 232.98 637.73 L 239.36 643.86 L 245.74 646.93 L 252.13 640.77 L 258.51 645.38 L 264.89 647.69 L 271.28 643.05 L 277.66 646.53 L 284.04 639.55 L 290.43 644.78 L 296.81 647.39 L 303.19 642.14 L 309.57 646.07 L 315.96 638.18 L 322.34 644.09 L 328.72 632.25 L 335.11 641.12 L 341.49 645.56 L 347.87 636.66 L 354.26 643.33 L 360.64 629.97 L 367.02 639.98 L 373.40 619.92 L 379.79 634.96 L 386.17 604.86 L 392.55 627.43 L 398.94 638.71 L 405.32 616.12 L 411.70 633.06 L 418.09 641.53 L 424.47 645.76 L 430.85 637.27 L 437.23 643.63 L 443.62 630.88 L 450.00 640.44 L 456.38 621.29 L 462.77 635.65 L 469.15 642.82 L 475.53 628.44 L 481.91 639.22 L 488.30 617.64 L 494.68 633.82 L 501.06 641.91 L 507.45 625.71 L 513.83 637.85 L 520.21 613.53 L 526.60 631.77 L 532.98 595.27 L 539.36 622.64 L 545.74 567.89 L 552.13 608.94 L 558.51 526.80 L 564.89 588.40 L 571.28 465.18 L 577.66 557.59 L 584.04 603.79 L 590.43 626.90 L 596.81 580.67 L 603.19 615.33 L 609.57 545.97 L 615.96 597.99 L 622.34 493.94 L 628.72 571.97 L 635.11 415.88 L 641.49 532.94 L 647.87 591.47 L 654.26 620.73 L 660.64 635.37 L 667.02 606.08 L 673.40 628.04 L 679.79 639.02 L 686.17 617.03 L 692.55 633.52 L 698.94 641.76 L 705.32 625.25 L 711.70 637.62 L 718.09 643.81 L 724.47 646.91 L 730.85 648.45 L 737.23 645.33 L 743.62 647.67 L 750.00 648.83 L 756.38 649.42 L 762.77 648.22 L 769.15 649.11 L 775.53 647.31 L 781.91 648.66 L 788.30 645.94 L 794.68 647.97 L 801.06 648.99 L 807.45 649.49 L 813.83 649.75 L 820.21 649.87 L 826.60 649.59 L 832.98 649.80 L 839.36 649.90 L 845.74 649.95 L 852.13 649.97" /><text  class="poloto_text poloto_legend_text"  x="1075"  y="250" >c(1003)</text><line  class="poloto_line poloto_legend_icon poloto3stroke poloto3legend"  stroke="black"  x1="1080"  x2="1130"  y1="231.25"  y2="231.25" /><path  class="poloto_line poloto3stroke"  fill="none"  stroke="black"  d=" M 150.00 573.67 L 156.38 611.83 L 162.77 535.48 L 169.15 592.74 L 175.53 621.37 L 181.91 564.08 L 188.30 607.04 L 194.68 628.52 L 201.06 585.54 L 207.45 617.77 L 213.83 553.28 L 220.21 601.64 L 226.60 504.89 L 232.98 577.45 L 239.36 432.31 L 245.74 541.16 L 252.13 595.58 L 258.51 622.79 L 264.89 568.34 L 271.28 609.17 L 277.66 629.59 L 284.04 588.73 L 290.43 619.37 L 296.81 634.68 L 303.19 642.34 L 309.57 646.17 L 315.96 638.49 L 322.34 644.24 L 328.72 632.70 L 335.11 641.35 L 341.49 624.03 L 347.87 637.02 L 354.26 643.51 L 360.64 646.75 L 367.02 648.38 L 373.40 649.19 L 379.79 649.59 L 386.17 649.80 L 392.55 649.90 L 398.94 649.95 L 405.32 649.97" /><text  class="poloto_text poloto_legend_text"  x="1075"  y="300" >c(1004)</text><line  class="poloto_line poloto_legend_icon poloto4stroke poloto4legend"  stroke="black"  x1="1080"  x2="1130"  y1="281.25"  y2="281.25" /><path  class="poloto_line poloto4stroke"  fill="none"  stroke="black"  d=" M 150.00 637.27 L 156.38 643.63 L 162.77 630.88 L 169.15 640.44 L 175.53 621.29 L 181.91 635.65 L 188.30 642.82 L 194.68 628.44 L 201.06 639.22 L 207.45 617.64 L 213.83 633.82 L 220.21 641.91 L 226.60 625.71 L 232.98 637.85 L 239.36 613.53 L 245.74 631.77 L 252.13 595.27 L 258.51 622.64 L 264.89 567.89 L 271.28 608.94 L 277.66 526.80 L 284.04 588.40 L 290.43 465.18 L 296.81 557.59 L 303.19 603.79 L 309.57 626.90 L 315.96 580.67 L 322.34 615.33 L 328.72 545.97 L 335.11 597.99 L 341.49 493.94 L 347.87 571.97 L 354.26 415.88 L 360.64 532.94 L 367.02 591.47 L 373.40 620.73 L 379.79 635.37 L 386.17 606.08 L 392.55 628.04 L 398.94 639.02 L 405.32 617.03 L 411.70 633.52 L 418.09 641.76 L 424.47 625.25 L 430.85 637.62 L 437.23 643.81 L 443.62 646.91 L 450.00 648.45 L 456.38 645.33 L 462.77 647.67 L 469.15 648.83 L 475.53 649.42 L 481.91 648.22 L 488.30 649.11 L 494.68 647.31 L 501.06 648.66 L 507.45 645.94 L 513.83 647.97 L 520.21 648.99 L 526.60 649.49 L 532.98 649.75 L 539.36 649.87 L 545.74 649.59 L 552.13 649.80 L 558.51 649.90 L 564.89 649.95 L 571.28 649.97" /><text  class="poloto_text poloto_legend_text"  x="1075"  y="350" >c(1005)</text><line  class="poloto_line poloto_legend_icon poloto5stroke poloto5legend"  stroke="black"  x1="1080"  x2="1130"  y1="331.25"  y2="331.25" /><path  class="poloto_line poloto5stroke"  fill="none"  stroke="black"  d=" M 150.00 573.52 L 156.38 611.76 L 162.77 630.88 L 169.15 640.44 L 175.53 621.29 L 181.91 635.65 L 188.30 642.82 L 194.68 628.44 L 201.06 639.22 L 207.45 617.64 L 213.83 633.82 L 220.21 641.91 L 226.60 625.71 L 232.98 637.85 L 239.36 613.53 L 245.74 631.77 L 252.13 595.27 L 258.51 622.64 L 264.89 567.89 L 271.28 608.94 L 277.66 526.80 L 284.04 588.40 L 290.43 465.18 L 296.81 557.59 L 303.19 603.79 L 309.57 626.90 L 315.96 580.67 L 322.34 615.33 L 328.72 545.97 L 335.11 597.99 L 341.49 493.94 L 347.87 571.97 L 354.26 415.88 L 360.64 532.94 L 367.02 591.47 L 373.40 620.73 L 379.79 635.37 L 386.17 606.08 L 392.55 628.04 L 398.94 639.02 L 405.32 617.03 L 411.70 633.52 L 418.09 641.76 L 424.47 625.25 L 430.85 637.62 L 437.23 643.81 L 443.62 646.91 L 450.00 648.45 L 456.38 645.33 L 462.77 647.67 L 469.15 648.83 L 475.53 649.42 L 481.91 648.22 L 488.30 649.11 L 494.68 647.31 L 501.06 648.66 L 507.45 645.94 L 513.83 647.97 L 520.21 648.99 L 526.60 649.49 L 532.98 649.75 L 539.36 649.87 L 545.74 649.59 L 552.13 649.80 L 558.51 649.90 L 564.89 649.95 L 571.28 649.97" /><text  class="poloto_labels poloto_text poloto_title"  x="600"  y="37.5" >collatz</text><text  class="poloto_labels poloto_text poloto_xname"  x="600"  y="731.25" >x</text><text  class="poloto_labels poloto_text poloto_yname"  transform="rotate(-90,37.5,375)"  x="37.5"  y="375" >y</text><text  class="poloto_tick_labels poloto_text"  dominant-baseline="middle"  text-anchor="start"  x="150"  y="70" ></text><line  class="poloto_axis_lines"  stroke="black"  x1="150"  x2="144"  y1="650"  y2="650" /><line  class="poloto_tick_line"  stroke="black"  x1="150"  x2="1050"  y1="650"  y2="650" /><text  class="poloto_tick_labels poloto_text"  dominant-baseline="middle"  text-anchor="end"  x="135"  y="650" >0</text><line  class="poloto_axis_lines"  stroke="black"  x1="150"  x2="144"  y1="599.2807082257469"  y2="599.2807082257469" /><line  class="poloto_tick_line"  stroke="black"  x1="150"  x2="1050"  y1="599.2807082257469"  y2="599.2807082257469" /><text  class="poloto_tick_labels poloto_text"  dominant-baseline="middle"  text-anchor="end"  x="135"  y="599.2807082257469" >2000</text><line  class="poloto_axis_lines"  stroke="black"  x1="150"  x2="144"  y1="548.5614164514939"  y2="548.5614164514939" /><line  class="poloto_tick_line"  stroke="black"  x1="150"  x2="1050"  y1="548.5614164514939"  y2="548.5614164514939" /><text  class="poloto_tick_labels poloto_text"  dominant-baseline="middle"  text-anchor="end"  x="135"  y="548.5614164514939" >4000</text><line  class="poloto_axis_lines"  stroke="black"  x1="150"  x2="144"  y1="497.8421246772409"  y2="497.8421246772409" /><line  class="poloto_tick_line"  stroke="black"  x1="150"  x2="1050"  y1="497.8421246772409"  y2="497.8421246772409" /><text  class="poloto_tick_labels poloto_text"  dominant-baseline="middle"  text-anchor="end"  x="135"  y="497.8421246772409" >6000</text><line  class="poloto_axis_lines"  stroke="black"  x1="150"  x2="144"  y1="447.12283290298785"  y2="447.12283290298785" /><line  class="poloto_tick_line"  stroke="black"  x1="150"  x2="1050"  y1="447.12283290298785"  y2="447.12283290298785" /><text  class="poloto_tick_labels poloto_text"  dominant-baseline="middle"  text-anchor="end"  x="135"  y="447.12283290298785" >8000</text><line  class="poloto_axis_lines"  stroke="black"  x1="150"  x2="144"  y1="396.4035411287348"  y2="396.4035411287348" /><line  class="poloto_tick_line"  stroke="black"  x1="150"  x2="1050"  y1="396.4035411287348"  y2="396.4035411287348" /><text  class="poloto_tick_labels poloto_text"  dominant-baseline="middle"  text-anchor="end"  x="135"  y="396.4035411287348" >10000</text><line  class="poloto_axis_lines"  stroke="black"  x1="150"  x2="144"  y1="345.6842493544817"  y2="345.6842493544817" /><line  class="poloto_tick_line"  stroke="black"  x1="150"  x2="1050"  y1="345.6842493544817"  y2="345.6842493544817" /><text  class="poloto_tick_labels poloto_text"  dominant-baseline="middle"  text-anchor="end"  x="135"  y="345.6842493544817" >12000</text><line  class="poloto_axis_lines"  stroke="black"  x1="150"  x2="144"  y1="294.9649575802287"  y2="294.9649575802287" /><line  class="poloto_tick_line"  stroke="black"  x1="150"  x2="1050"  y1="294.9649575802287"  y2="294.9649575802287" /><text  class="poloto_tick_labels poloto_text"  dominant-baseline="middle"  text-anchor="end"  x="135"  y="294.9649575802287" >14000</text><line  class="poloto_axis_lines"  stroke="black"  x1="150"  x2="144"  y1="244.24566580597565"  y2="244.24566580597565" /><line  class="poloto_tick_line"  stroke="black"  x1="150"  x2="1050"  y1="244.24566580597565"  y2="244.24566580597565" /><text  class="poloto_tick_labels poloto_text"  dominant-baseline="middle"  text-anchor="end"  x="135"  y="244.24566580597565" >16000</text><line  class="poloto_axis_lines"  stroke="black"  x1="150"  x2="144"  y1="193.52637403172258"  y2="193.52637403172258" /><line  class="poloto_tick_line"  stroke="black"  x1="150"  x2="1050"  y1="193.52637403172258"  y2="193.52637403172258" /><text  class="poloto_tick_labels poloto_text"  dominant-baseline="middle"  text-anchor="end"  x="135"  y="193.52637403172258" >18000</text><line  class="poloto_axis_lines"  stroke="black"  x1="150"  x2="144"  y1="142.80708225746957"  y2="142.80708225746957" /><line  class="poloto_tick_line"  stroke="black"  x1="150"  x2="1050"  y1="142.80708225746957"  y2="142.80708225746957" /><text  class="poloto_tick_labels poloto_text"  dominant-baseline="middle"  text-anchor="end"  x="135"  y="142.80708225746957" >20000</text><text  class="poloto_tick_labels poloto_text"  dominant-baseline="middle"  text-anchor="start"  x="660"  y="70" ></text><line  class="poloto_axis_lines"  stroke="black"  x1="150"  x2="150"  y1="650"  y2="655" /><line  class="poloto_tick_line"  stroke="black"  x1="150"  x2="150"  y1="650"  y2="100" /><text  class="poloto_tick_labels poloto_text"  dominant-baseline="start"  text-anchor="middle"  x="150"  y="680" >0</text><line  class="poloto_axis_lines"  stroke="black"  x1="277.6595744680851"  x2="277.6595744680851"  y1="650"  y2="655" /><line  class="poloto_tick_line"  stroke="black"  x1="277.6595744680851"  x2="277.6595744680851"  y1="650"  y2="100" /><text  class="poloto_tick_labels poloto_text"  dominant-baseline="start"  text-anchor="middle"  x="277.6595744680851"  y="680" >20</text><line  class="poloto_axis_lines"  stroke="black"  x1="405.3191489361702"  x2="405.3191489361702"  y1="650"  y2="655" /><line  class="poloto_tick_line"  stroke="black"  x1="405.3191489361702"  x2="405.3191489361702"  y1="650"  y2="100" /><text  class="poloto_tick_labels poloto_text"  dominant-baseline="start"  text-anchor="middle"  x="405.3191489361702"  y="680" >40</text><line  class="poloto_axis_lines"  stroke="black"  x1="532.9787234042553"  x2="532.9787234042553"  y1="650"  y2="655" /><line  class="poloto_tick_line"  stroke="black"  x1="532.9787234042553"  x2="532.9787234042553"  y1="650"  y2="100" /><text  class="poloto_tick_labels poloto_text"  dominant-baseline="start"  text-anchor="middle"  x="532.9787234042553"  y="680" >60</text><line  class="poloto_axis_lines"  stroke="black"  x1="660.6382978723404"  x2="660.6382978723404"  y1="650"  y2="655" /><line  class="poloto_tick_line"  stroke="black"  x1="660.6382978723404"  x2="660.6382978723404"  y1="650"  y2="100" /><text  class="poloto_tick_labels poloto_text"  dominant-baseline="start"  text-anchor="middle"  x="660.6382978723404"  y="680" >80</text><line  class="poloto_axis_lines"  stroke="black"  x1="788.2978723404256"  x2="788.2978723404256"  y1="650"  y2="655" /><line  class="poloto_tick_line"  stroke="black"  x1="788.2978723404256"  x2="788.2978723404256"  y1="650"  y2="100" /><text  class="poloto_tick_labels poloto_text"  dominant-baseline="start"  text-anchor="middle"  x="788.2978723404256"  y="680" >100</text><line  class="poloto_axis_lines"  stroke="black"  x1="915.9574468085107"  x2="915.9574468085107"  y1="650"  y2="655" /><line  class="poloto_tick_line"  stroke="black"  x1="915.9574468085107"  x2="915.9574468085107"  y1="650"  y2="100" /><text  class="poloto_tick_labels poloto_text"  dominant-baseline="start"  text-anchor="middle"  x="915.9574468085107"  y="680" >120</text><line  class="poloto_axis_lines"  stroke="black"  x1="1043.6170212765958"  x2="1043.6170212765958"  y1="650"  y2="655" /><line  class="poloto_tick_line"  stroke="black"  x1="1043.6170212765958"  x2="1043.6170212765958"  y1="650"  y2="100" /><text  class="poloto_tick_labels poloto_text"  dominant-baseline="start"  text-anchor="middle"  x="1043.6170212765958"  y="680" >140</text><path  stroke="black"  fill="none"  class="poloto_axis_lines"  style="stroke-dasharray:6.382978723404255;stroke-dashoffset:-0;"  d=" M 150 650 L 1050 650" /><path  stroke="black"  fill="none"  class="poloto_axis_lines"  style="stroke-dasharray:12.679822943563261;stroke-dashoffset:-0;"  d=" M 150 650 L 150 100" /></svg>