<svg class="poloto" width="800" height="500" viewBox="0 0 1200 750" xmlns="http://www.w3.org/2000/svg">
	<style>
.poloto{
  stroke-linecap:round;
  stroke-linejoin:round;
  font-family:Roboto,sans-serif;
  font-size:16px;
}
.poloto_background{fill:#262626;}
.poloto_scatter{stroke-width:7}
.poloto_line{stroke-width:2}
.poloto_text{fill: white;}
.poloto_name{font-size:24px;dominant-baseline:auto;text-anchor:middle;}
.poloto_where{dominant-baseline:middle;text-anchor:start}
.poloto_text.poloto_legend{font-size:20px;dominant-baseline:middle;text-anchor:start;}
.poloto_text.poloto_ticks.poloto_y{dominant-baseline:middle;text-anchor:end}
.poloto_text.poloto_ticks.poloto_x{dominant-baseline:auto;text-anchor:middle}
.poloto_imgs.poloto_ticks{stroke: white;stroke-width:3;fill:none;stroke-dasharray:none}
.poloto_grid{stroke:gray;stroke-width:0.5}

.poloto0.poloto_stroke{stroke:blue;}
.poloto1.poloto_stroke{stroke:red;}
.poloto2.poloto_stroke{stroke:green;}
.poloto3.poloto_stroke{stroke:gold;}
.poloto4.poloto_stroke{stroke:aqua;}
.poloto5.poloto_stroke{stroke:lime;}
.poloto6.poloto_stroke{stroke:orange;}
.poloto7.poloto_stroke{stroke:chocolate;}
.poloto0.poloto_fill{fill:blue;}
.poloto1.poloto_fill{fill:red;}
.poloto2.poloto_fill{fill:green;}
.poloto3.poloto_fill{fill:gold;}
.poloto4.poloto_fill{fill:aqua;}
.poloto5.poloto_fill{fill:lime;}
.poloto6.poloto_fill{fill:orange;}
.poloto7.poloto_fill{fill:chocolate;}
.poloto_line{stroke-dasharray:2;stroke-width:2;}
	</style>
	<circle r="1e5" class="poloto_background" fill="white"/>
	<g id="poloto_plot0" class="poloto_plot poloto_imgs poloto_line poloto0 poloto_stroke" fill="none" stroke="black">
		<path d=" M 150.00 637.32 L 156.38 643.66 L 162.77 646.83 L 169.15 640.46 L 175.53 645.23 L 181.91 647.62 L 188.30 648.81 L 194.68 646.40 L 201.06 648.20 L 207.45 644.57 L 213.83 647.29 L 220.21 641.83 L 226.60 645.92 L 232.98 637.73 L 239.36 643.86 L 245.74 646.93 L 252.13 640.77 L 258.51 645.38 L 264.89 647.69 L 271.28 643.05 L 277.66 646.53 L 284.04 639.55 L 290.43 644.78 L 296.81 647.39 L 303.19 642.14 L 309.57 646.07 L 315.96 638.18 L 322.34 644.09 L 328.72 632.25 L 335.11 641.12 L 341.49 645.56 L 347.87 636.66 L 354.26 643.33 L 360.64 629.97 L 367.02 639.98 L 373.40 619.92 L 379.79 634.96 L 386.17 604.86 L 392.55 627.43 L 398.94 638.71 L 405.32 616.12 L 411.70 633.06 L 418.09 641.53 L 424.47 645.76 L 430.85 637.27 L 437.23 643.63 L 443.62 630.88 L 450.00 640.44 L 456.38 621.29 L 462.77 635.65 L 469.15 642.82 L 475.53 628.44 L 481.91 639.22 L 488.30 617.64 L 494.68 633.82 L 501.06 641.91 L 507.45 625.71 L 513.83 637.85 L 520.21 613.53 L 526.60 631.77 L 532.98 595.27 L 539.36 622.64 L 545.74 567.89 L 552.13 608.94 L 558.51 526.80 L 564.89 588.40 L 571.28 465.18 L 577.66 557.59 L 584.04 603.79 L 590.43 626.90 L 596.81 580.67 L 603.19 615.33 L 609.57 545.97 L 615.96 597.99 L 622.34 493.94 L 628.72 571.97 L 635.11 415.88 L 641.49 532.94 L 647.87 591.47 L 654.26 620.73 L 660.64 635.37 L 667.02 606.08 L 673.40 628.04 L 679.79 639.02 L 686.17 617.03 L 692.55 633.52 L 698.94 641.76 L 705.32 625.25 L 711.70 637.62 L 718.09 643.81 L 724.47 646.91 L 730.85 648.45 L 737.23 645.33 L 743.62 647.67 L 750.00 648.83 L 756.38 649.42 L 762.77 648.22 L 769.15 649.11 L 775.53 647.31 L 781.91 648.66 L 788.30 645.94 L 794.68 647.97 L 801.06 648.99 L 807.45 649.49 L 813.83 649.75 L 820.21 649.87 L 826.60 649.59 L 832.98 649.80 L 839.36 649.90 L 845.74 649.95 L 852.13 649.97"/>
	</g>
	<g id="poloto_plot1" class="poloto_plot poloto_imgs poloto_line poloto1 poloto_stroke" fill="none" stroke="black">
		<path d=" M 150.00 573.82 L 156.38 611.91 L 162.77 630.95 L 169.15 592.84 L 175.53 621.42 L 181.91 564.23 L 188.30 607.12 L 194.68 521.33 L 201.06 585.66 L 207.45 456.96 L 213.83 553.48 L 220.21 601.74 L 226.60 505.20 L 232.98 577.60 L 239.36 432.77 L 245.74 541.38 L 252.13 324.13 L 258.51 487.06 L 264.89 161.17 L 271.28 405.58 L 277.66 527.79 L 284.04 283.35 L 290.43 466.68 L 296.81 100.00 L 303.19 375.00 L 309.57 512.50 L 315.96 581.25 L 322.34 443.72 L 328.72 546.86 L 335.11 340.56 L 341.49 495.28 L 347.87 185.82 L 354.26 417.91 L 360.64 533.95 L 367.02 591.98 L 373.40 620.99 L 379.79 635.49 L 386.17 642.75 L 392.55 646.37 L 398.94 639.10 L 405.32 644.55 L 411.70 633.62 L 418.09 641.81 L 424.47 625.40 L 430.85 637.70 L 437.23 613.08 L 443.62 631.54 L 450.00 640.77 L 456.38 645.38 L 462.77 647.69 L 469.15 643.05 L 475.53 646.53 L 481.91 639.55 L 488.30 644.78 L 494.68 647.39 L 501.06 642.14 L 507.45 646.07 L 513.83 638.18 L 520.21 644.09 L 526.60 632.25 L 532.98 641.12 L 539.36 645.56 L 545.74 636.66 L 552.13 643.33 L 558.51 629.97 L 564.89 639.98 L 571.28 619.92 L 577.66 634.96 L 584.04 604.86 L 590.43 627.43 L 596.81 638.71 L 603.19 616.12 L 609.57 633.06 L 615.96 641.53 L 622.34 645.76 L 628.72 637.27 L 635.11 643.63 L 641.49 630.88 L 647.87 640.44 L 654.26 621.29 L 660.64 635.65 L 667.02 642.82 L 673.40 628.44 L 679.79 639.22 L 686.17 617.64 L 692.55 633.82 L 698.94 641.91 L 705.32 625.71 L 711.70 637.85 L 718.09 613.53 L 724.47 631.77 L 730.85 595.27 L 737.23 622.64 L 743.62 567.89 L 750.00 608.94 L 756.38 526.80 L 762.77 588.40 L 769.15 465.18 L 775.53 557.59 L 781.91 603.79 L 788.30 626.90 L 794.68 580.67 L 801.06 615.33 L 807.45 545.97 L 813.83 597.99 L 820.21 493.94 L 826.60 571.97 L 832.98 415.88 L 839.36 532.94 L 845.74 591.47 L 852.13 620.73 L 858.51 635.37 L 864.89 606.08 L 871.28 628.04 L 877.66 639.02 L 884.04 617.03 L 890.43 633.52 L 896.81 641.76 L 903.19 625.25 L 909.57 637.62 L 915.96 643.81 L 922.34 646.91 L 928.72 648.45 L 935.11 645.33 L 941.49 647.67 L 947.87 648.83 L 954.26 649.42 L 960.64 648.22 L 967.02 649.11 L 973.40 647.31 L 979.79 648.66 L 986.17 645.94 L 992.55 647.97 L 998.94 648.99 L 1005.32 649.49 L 1011.70 649.75 L 1018.09 649.87 L 1024.47 649.59 L 1030.85 649.80 L 1037.23 649.90 L 1043.62 649.95 L 1050.00 649.97"/>
	</g>
	<g id="poloto_plot2" class="poloto_plot poloto_imgs poloto_line poloto2 poloto_stroke" fill="none" stroke="black">
		<path d=" M 150.00 637.29 L 156.38 611.86 L 162.77 630.93 L 169.15 640.46 L 175.53 645.23 L 181.91 647.62 L 188.30 648.81 L 194.68 646.40 L 201.06 648.20 L 207.45 644.57 L 213.83 647.29 L 220.21 641.83 L 226.60 645.92 L 232.98 637.73 L 239.36 643.86 L 245.74 646.93 L 252.13 640.77 L 258.51 645.38 L 264.89 647.69 L 271.28 643.05 L 277.66 646.53 L 284.04 639.55 L 290.43 644.78 L 296.81 647.39 L 303.19 642.14 L 309.57 646.07 L 315.96 638.18 L 322.34 644.09 L 328.72 632.25 L 335.11 641.12 L 341.49 645.56 L 347.87 636.66 L 354.26 643.33 L 360.64 629.97 L 367.02 639.98 L 373.40 619.92 L 379.79 634.96 L 386.17 604.86 L 392.55 627.43 L 398.94 638.71 L 405.32 616.12 L 411.70 633.06 L 418.09 641.53 L 424.47 645.76 L 430.85 637.27 L 437.23 643.63 L 443.62 630.88 L 450.00 640.44 L 456.38 621.29 L 462.77 635.65 L 469.15 642.82 L 475.53 628.44 L 481.91 639.22 L 488.30 617.64 L 494.68 633.82 L 501.06 641.91 L 507.45 625.71 L 513.83 637.85 L 520.21 613.53 L 526.60 631.77 L 532.98 595.27 L 539.36 622.64 L 545.74 567.89 L 552.13 608.94 L 558.51 526.80 L 564.89 588.40 L 571.28 465.18 L 577.66 557.59 L 584.04 603.79 L 590.43 626.90 L 596.81 580.67 L 603.19 615.33 L 609.57 545.97 L 615.96 597.99 L 622.34 493.94 L 628.72 571.97 L 635.11 415.88 L 641.49 532.94 L 647.87 591.47 L 654.26 620.73 L 660.64 635.37 L 667.02 606.08 L 673.40 628.04 L 679.79 639.02 L 686.17 617.03 L 692.55 633.52 L 698.94 641.76 L 705.32 625.25 L 711.70 637.62 L 718.09 643.81 L 724.47 646.91 L 730.85 648.45 L 737.23 645.33 L 743.62 647.67 L 750.00 648.83 L 756.38 649.42 L 762.77 648.22 L 769.15 649.11 L 775.53 647.31 L 781.91 648.66 L 788.30 645.94 L 794.68 647.97 L 801.06 648.99 L 807.45 649.49 L 813.83 649.75 L 820.21 649.87 L 826.60 649.59 L 832.98 649.80 L 839.36 649.90 L 845.74 649.95 L 852.13 649.97"/>
	</g>
	<g id="poloto_plot3" class="poloto_plot poloto_imgs poloto_line poloto3 poloto_stroke" fill="none" stroke="black">
		<path d=" M 150.00 573.67 L 156.38 611.83 L 162.77 535.48 L 169.15 592.74 L 175.53 621.37 L 181.91 564.08 L 188.30 607.04 L 194.68 628.52 L 201.06 585.54 L 207.45 617.77 L 213.83 553.28 L 220.21 601.64 L 226.60 504.89 L 232.98 577.45 L 239.36 432.31 L 245.74 541.16 L 252.13 595.58 L 258.51 622.79 L 264.89 568.34 L 271.28 609.17 L 277.66 629.59 L 284.04 588.73 L 290.43 619.37 L 296.81 634.68 L 303.19 642.34 L 309.57 646.17 L 315.96 638.49 L 322.34 644.24 L 328.72 632.70 L 335.11 641.35 L 341.49 624.03 L 347.87 637.02 L 354.26 643.51 L 360.64 646.75 L 367.02 648.38 L 373.40 649.19 L 379.79 649.59 L 386.17 649.80 L 392.55 649.90 L 398.94 649.95 L 405.32 649.97"/>
	</g>
	<g id="poloto_plot4" class="poloto_plot poloto_imgs poloto_line poloto4 poloto_stroke" fill="none" stroke="black">
		<path d=" M 150.00 637.27 L 156.38 643.63 L 162.77 630.88 L 169.15 640.44 L 175.53 621.29 L 181.91 635.65 L 188.30 642.82 L 194.68 628.44 L 201.06 639.22 L 207.45 617.64 L 213.83 633.82 L 220.21 641.91 L 226.60 625.71 L 232.98 637.85 L 239.36 613.53 L 245.74 631.77 L 252.13 595.27 L 258.51 622.64 L 264.89 567.89 L 271.28 608.94 L 277.66 526.80 L 284.04 588.40 L 290.43 465.18 L 296.81 557.59 L 303.19 603.79 L 309.57 626.90 L 315.96 580.67 L 322.34 615.33 L 328.72 545.97 L 335.11 597.99 L 341.49 493.94 L 347.87 571.97 L 354.26 415.88 L 360.64 532.94 L 367.02 591.47 L 373.40 620.73 L 379.79 635.37 L 386.17 606.08 L 392.55 628.04 L 398.94 639.02 L 405.32 617.03 L 411.70 633.52 L 418.09 641.76 L 424.47 625.25 L 430.85 637.62 L 437.23 643.81 L 443.62 646.91 L 450.00 648.45 L 456.38 645.33 L 462.77 647.67 L 469.15 648.83 L 475.53 649.42 L 481.91 648.22 L 488.30 649.11 L 494.68 647.31 L 501.06 648.66 L 507.45 645.94 L 513.83 647.97 L 520.21 648.99 L 526.60 649.49 L 532.98 649.75 L 539.36 649.87 L 545.74 649.59 L 552.13 649.80 L 558.51 649.90 L 564.89 649.95 L 571.28 649.97"/>
	</g>
	<g id="poloto_plot5" class="poloto_plot poloto_imgs poloto_line poloto5 poloto_stroke" fill="none" stroke="black">
		<path d=" M 150.00 573.52 L 156.38 611.76 L 162.77 630.88 L 169.15 640.44 L 175.53 621.29 L 181.91 635.65 L 188.30 642.82 L 194.68 628.44 L 201.06 639.22 L 207.45 617.64 L 213.83 633.82 L 220.21 641.91 L 226.60 625.71 L 232.98 637.85 L 239.36 613.53 L 245.74 631.77 L 252.13 595.27 L 258.51 622.64 L 264.89 567.89 L 271.28 608.94 L 277.66 526.80 L 284.04 588.40 L 290.43 465.18 L 296.81 557.59 L 303.19 603.79 L 309.57 626.90 L 315.96 580.67 L 322.34 615.33 L 328.72 545.97 L 335.11 597.99 L 341.49 493.94 L 347.87 571.97 L 354.26 415.88 L 360.64 532.94 L 367.02 591.47 L 373.40 620.73 L 379.79 635.37 L 386.17 606.08 L 392.55 628.04 L 398.94 639.02 L 405.32 617.03 L 411.70 633.52 L 418.09 641.76 L 424.47 625.25 L 430.85 637.62 L 437.23 643.81 L 443.62 646.91 L 450.00 648.45 L 456.38 645.33 L 462.77 647.67 L 469.15 648.83 L 475.53 649.42 L 481.91 648.22 L 488.30 649.11 L 494.68 647.31 L 501.06 648.66 L 507.45 645.94 L 513.83 647.97 L 520.21 648.99 L 526.60 649.49 L 532.98 649.75 L 539.36 649.87 L 545.74 649.59 L 552.13 649.80 L 558.51 649.90 L 564.89 649.95 L 571.28 649.97"/>
	</g>
	<g class="poloto_legend poloto_imgs poloto_line poloto0 poloto_stroke"><line x1="1080" x2="1130" y1="81.25" y2="81.25"/></g>
	<g class="poloto_legend poloto_imgs poloto_line poloto1 poloto_stroke"><line x1="1080" x2="1130" y1="131.25" y2="131.25"/></g>
	<g class="poloto_legend poloto_imgs poloto_line poloto2 poloto_stroke"><line x1="1080" x2="1130" y1="181.25" y2="181.25"/></g>
	<g class="poloto_legend poloto_imgs poloto_line poloto3 poloto_stroke"><line x1="1080" x2="1130" y1="231.25" y2="231.25"/></g>
	<g class="poloto_legend poloto_imgs poloto_line poloto4 poloto_stroke"><line x1="1080" x2="1130" y1="281.25" y2="281.25"/></g>
	<g class="poloto_legend poloto_imgs poloto_line poloto5 poloto_stroke"><line x1="1080" x2="1130" y1="331.25" y2="331.25"/></g>
	<text class="poloto_legend poloto_text poloto_line poloto0" x="1075" y="100">c(1000)</text>
	<text class="poloto_legend poloto_text poloto_line poloto1" x="1075" y="150">c(1001)</text>
	<text class="poloto_legend poloto_text poloto_line poloto2" x="1075" y="200">c(1002)</text>
	<text class="poloto_legend poloto_text poloto_line poloto3" x="1075" y="250">c(1003)</text>
	<text class="poloto_legend poloto_text poloto_line poloto4" x="1075" y="300">c(1004)</text>
	<text class="poloto_legend poloto_text poloto_line poloto5" x="1075" y="350">c(1005)</text>
	<text class="poloto_text poloto_name poloto_title" x="600.00" y="37.50">collatz</text>
	<text class="poloto_text poloto_name poloto_x" x="600.00" y="731.25">x</text>
	<text class="poloto_text poloto_name poloto_y" x="37.50" y="375.00" transform="rotate(-90,37.50,375.00)">y</text>
	<text class="poloto_text poloto_ticks poloto_y">
		<tspan x="135.00" y="650.00">0</tspan>
		<tspan x="135.00" y="599.28">2000</tspan>
		<tspan x="135.00" y="548.56">4000</tspan>
		<tspan x="135.00" y="497.84">6000</tspan>
		<tspan x="135.00" y="447.12">8000</tspan>
		<tspan x="135.00" y="396.40">10000</tspan>
		<tspan x="135.00" y="345.68">12000</tspan>
		<tspan x="135.00" y="294.96">14000</tspan>
		<tspan x="135.00" y="244.25">16000</tspan>
		<tspan x="135.00" y="193.53">18000</tspan>
		<tspan x="135.00" y="142.81">20000</tspan>
	</text>
	<g class="poloto_imgs poloto_ticks poloto_y" stroke="black">
		<line x1="150.00" x2="144.00" y1="650.00" y2="650.00"/>
		<line x1="150.00" x2="144.00" y1="599.28" y2="599.28"/>
		<line x1="150.00" x2="144.00" y1="548.56" y2="548.56"/>
		<line x1="150.00" x2="144.00" y1="497.84" y2="497.84"/>
		<line x1="150.00" x2="144.00" y1="447.12" y2="447.12"/>
		<line x1="150.00" x2="144.00" y1="396.40" y2="396.40"/>
		<line x1="150.00" x2="144.00" y1="345.68" y2="345.68"/>
		<line x1="150.00" x2="144.00" y1="294.96" y2="294.96"/>
		<line x1="150.00" x2="144.00" y1="244.25" y2="244.25"/>
		<line x1="150.00" x2="144.00" y1="193.53" y2="193.53"/>
		<line x1="150.00" x2="144.00" y1="142.81" y2="142.81"/>
	</g>
	<g class="poloto_grid poloto_y" stroke="black">
		<line x1="150.00" x2="1050.00" y1="650.00" y2="650.00"/>
		<line x1="150.00" x2="1050.00" y1="599.28" y2="599.28"/>
		<line x1="150.00" x2="1050.00" y1="548.56" y2="548.56"/>
		<line x1="150.00" x2="1050.00" y1="497.84" y2="497.84"/>
		<line x1="150.00" x2="1050.00" y1="447.12" y2="447.12"/>
		<line x1="150.00" x2="1050.00" y1="396.40" y2="396.40"/>
		<line x1="150.00" x2="1050.00" y1="345.68" y2="345.68"/>
		<line x1="150.00" x2="1050.00" y1="294.96" y2="294.96"/>
		<line x1="150.00" x2="1050.00" y1="244.25" y2="244.25"/>
		<line x1="150.00" x2="1050.00" y1="193.53" y2="193.53"/>
		<line x1="150.00" x2="1050.00" y1="142.81" y2="142.81"/>
	</g>
	<text class="poloto_text poloto_ticks poloto_x">
		<tspan x="150.00" y="680.00">0</tspan>
		<tspan x="277.66" y="680.00">20</tspan>
		<tspan x="405.32" y="680.00">40</tspan>
		<tspan x="532.98" y="680.00">60</tspan>
		<tspan x="660.64" y="680.00">80</tspan>
		<tspan x="788.30" y="680.00">100</tspan>
		<tspan x="915.96" y="680.00">120</tspan>
		<tspan x="1043.62" y="680.00">140</tspan>
	</text>
	<g class="poloto_imgs poloto_ticks poloto_x" stroke="black">
		<line x1="150.00" x2="150.00" y1="650.00" y2="655.00"/>
		<line x1="277.66" x2="277.66" y1="650.00" y2="655.00"/>
		<line x1="405.32" x2="405.32" y1="650.00" y2="655.00"/>
		<line x1="532.98" x2="532.98" y1="650.00" y2="655.00"/>
		<line x1="660.64" x2="660.64" y1="650.00" y2="655.00"/>
		<line x1="788.30" x2="788.30" y1="650.00" y2="655.00"/>
		<line x1="915.96" x2="915.96" y1="650.00" y2="655.00"/>
		<line x1="1043.62" x2="1043.62" y1="650.00" y2="655.00"/>
	</g>
	<g class="poloto_grid poloto_x" stroke="black">
		<line x1="150.00" x2="150.00" y1="650.00" y2="100.00"/>
		<line x1="277.66" x2="277.66" y1="650.00" y2="100.00"/>
		<line x1="405.32" x2="405.32" y1="650.00" y2="100.00"/>
		<line x1="532.98" x2="532.98" y1="650.00" y2="100.00"/>
		<line x1="660.64" x2="660.64" y1="650.00" y2="100.00"/>
		<line x1="788.30" x2="788.30" y1="650.00" y2="100.00"/>
		<line x1="915.96" x2="915.96" y1="650.00" y2="100.00"/>
		<line x1="1043.62" x2="1043.62" y1="650.00" y2="100.00"/>
	</g>
	<path class="poloto_imgs poloto_ticks poloto_x" stroke="black" style="stroke-dasharray:6.382978723404255;stroke-dashoffset:-0;" d=" M 150.00 650.00 L 1050.00 650.00"/>
	<path class="poloto_imgs poloto_ticks poloto_y" stroke="black" style="stroke-dasharray:12.679822943563261;stroke-dashoffset:-0;" d=" M 150.00 650.00 L 150.00 100.00"/>
</svg>
