<svg class="poloto" width="800" viewBox="0 0 1200 600" xmlns="http://www.w3.org/2000/svg" style="overflow:hidden;margin: auto"><style>.poloto { stroke-linecap:round; stroke-linejoin:round; font-family: 'Tahoma', sans-serif; background-color: #262626;} .poloto_scatter{stroke-width:7} .poloto_tick_line{stroke:dimgray;stroke-width:0.5} .poloto_line{stroke-width:2} .poloto_text{fill: white;} .poloto_axis_lines{stroke: white;stroke-width:3;fill:none;stroke-dasharray:none} .poloto0stroke{stroke:  blue;} .poloto1stroke{stroke:  red;} .poloto2stroke{stroke:  green;} .poloto3stroke{stroke:  gold;} .poloto4stroke{stroke:  aqua;} .poloto5stroke{stroke:  lime;} .poloto6stroke{stroke:  orange;} .poloto7stroke{stroke:  chocolate;} .poloto0fill{fill:blue;} .poloto1fill{fill:red;} .poloto2fill{fill:green;} .poloto3fill{fill:gold;} .poloto4fill{fill:aqua;} .poloto5fill{fill:lime;} .poloto6fill{fill:orange;} .poloto7fill{fill:chocolate;}.poloto_line{stroke-dasharray:2;stroke-width:1;}</style><text  class="poloto_text poloto_legend_text" alignment-baseline="middle" text-anchor="start" font-size="large" x="1075" y="100" >c(1000)</text><line  class="poloto_line poloto_legend_icon poloto0stroke poloto0legend" stroke="black" x1="1080" x2="1130" y1="81.25" y2="81.25" /><path  class="poloto_line poloto0stroke" fill="none" stroke="black" d=" M 150 490.77831058649946 L 156.38297872340425 495.3891552932497 L 162.7659574468085 497.69457764662485 L 169.14893617021278 493.06528956104756 L 175.53191489361703 496.5326447805238 L 181.91489361702128 498.2663223902619 L 188.29787234042553 499.1331611951309 L 194.68085106382978 497.38104020656584 L 201.06382978723406 498.69052010328295 L 207.4468085106383 496.05311693102175 L 213.82978723404256 498.0265584655109 L 220.2127659574468 494.06123201770566 L 226.59574468085106 497.0306160088528 L 232.97872340425533 491.0734046477315 L 239.36170212765956 495.5367023238657 L 245.74468085106383 497.76835116193286 L 252.12765957446808 493.2866101069716 L 258.51063829787233 496.6433050534858 L 264.8936170212766 498.3216525267429 L 271.27659574468083 494.94651420140167 L 277.6595744680851 497.47325710070083 L 284.04255319148933 492.4013279232755 L 290.4255319148936 496.20066396163776 L 296.8085106382979 498.1003319808189 L 303.1914893617021 494.2825525636297 L 309.5744680851064 497.14127628181484 L 315.95744680851067 491.4053854666175 L 322.3404255319149 495.70269273330877 L 328.7234042553191 487.08963482109925 L 335.1063829787234 493.5448174105496 L 341.48936170212767 496.7724087052748 L 347.8723404255319 490.2987827369974 L 354.25531914893617 495.1493913684987 L 360.63829787234044 485.4297307266691 L 367.02127659574467 492.7148653633346 L 373.40425531914894 478.1261527111767 L 379.7872340425532 489.06307635558835 L 386.17021276595744 467.170785687938 L 392.55319148936167 483.58539284396903 L 398.93617021276594 491.7926964219845 L 405.3191489361702 475.35964588712653 L 411.70212765957444 487.67982294356324 L 418.0851063829787 493.83991147178165 L 424.468085106383 496.9199557358908 L 430.8510638297872 490.7414238288454 L 437.2340425531915 495.3707119144227 L 443.6170212765957 486.09369236444115 L 450 493.0468461822206 L 456.3829787234042 479.12209516783474 L 462.7659574468085 489.5610475839174 L 469.1489361702128 494.7805237919587 L 475.531914893617 484.3231279970491 L 481.9148936170213 492.1615639985245 L 488.2978723404255 476.4662486167466 L 494.6808510638298 488.2331243083733 L 501.06382978723406 494.1165621541866 L 507.4468085106383 482.33124308373294 L 513.8297872340426 491.16562154186647 L 520.2127659574468 473.4784212467724 L 526.5957446808511 486.7392106233862 L 532.9787234042553 460.1991884913316 L 539.3617021276596 480.0995942456658 L 545.7446808510638 440.2803393581704 L 552.127659574468 470.1401696790852 L 558.5106382978723 410.4020656584286 L 564.8936170212767 455.20103282921434 L 571.2765957446809 365.5846551088159 L 577.6595744680851 432.79232755440796 L 584.0425531914893 466.396163777204 L 590.4255319148936 483.198081888602 L 596.8085106382979 449.57580228697896 L 603.1914893617021 474.7879011434895 L 609.5744680851064 424.34526005164145 L 615.9574468085107 462.17263002582075 L 622.3404255319149 386.4994466986352 L 628.7234042553191 443.2497233493176 L 635.1063829787233 329.7307266691258 L 641.4893617021277 414.86536333456286 L 647.8723404255319 457.43268166728143 L 654.2553191489362 478.71634083364074 L 660.6382978723404 489.35817041682037 L 667.0212765957447 468.05606787163407 L 673.4042553191489 484.02803393581706 L 679.7872340425532 492.0140169679085 L 686.1702127659574 476.0236075248986 L 692.5531914893617 488.0118037624493 L 698.936170212766 494.00590188122464 L 705.3191489361702 481.99926226484695 L 711.7021276595744 490.9996311324235 L 718.0851063829787 495.49981556621174 L 724.468085106383 497.74990778310587 L 730.8510638297872 498.87495389155293 L 737.2340425531914 496.6064182958318 L 743.6170212765958 498.3032091479159 L 750 499.15160457395797 L 756.3829787234042 499.57580228697896 L 762.7659574468084 498.70896348210994 L 769.1489361702128 499.35448174105494 L 775.531914893617 498.0450018443379 L 781.9148936170212 499.02250092216894 L 788.2978723404256 497.04905938767985 L 794.6808510638298 498.5245296938399 L 801.063829787234 499.26226484691995 L 807.4468085106383 499.63113242346 L 813.8297872340426 499.81556621173 L 820.2127659574468 499.907783105865 L 826.595744680851 499.704905938768 L 832.9787234042553 499.852452969384 L 839.3617021276596 499.926226484692 L 845.7446808510638 499.963113242346 L 852.1276595744681 499.981556621173" /><text  class="poloto_text poloto_legend_text" alignment-baseline="middle" text-anchor="start" font-size="large" x="1075" y="150" >c(1001)</text><line  class="poloto_line poloto_legend_icon poloto1stroke poloto1legend" stroke="black" x1="1080" x2="1130" y1="131.25" y2="131.25" /><path  class="poloto_line poloto1stroke" fill="none" stroke="black" d=" M 150 444.5960900036887 L 156.38297872340425 472.29804500184434 L 162.7659574468085 486.1490225009222 L 169.14893617021278 458.4286241239395 L 175.53191489361703 479.21431206196974 L 181.91489361702128 437.6244928070823 L 188.29787234042553 468.8122464035411 L 194.68085106382978 406.4182958317964 L 201.06382978723406 453.2091479158982 L 207.4468085106383 359.60900036886756 L 213.82978723404256 429.8045001844338 L 220.2127659574468 464.9022500922169 L 226.59574468085106 394.6883068978237 L 232.97872340425533 447.3441534489118 L 239.36170212765956 342.01401696790856 L 245.74468085106383 421.0070084839543 L 252.12765957446808 263.0025820730358 L 258.51063829787233 381.5012910365179 L 264.8936170212766 144.48542973072665 L 271.27659574468083 322.2427148653633 L 277.6595744680851 411.12135743268163 L 284.04255319148933 233.34562891921803 L 290.4255319148936 366.672814459609 L 296.8085106382979 100 L 303.1914893617021 300 L 309.5744680851064 400 L 315.95744680851067 450 L 322.3404255319149 349.981556621173 L 328.7234042553191 424.9907783105865 L 335.1063829787234 274.95389155293253 L 341.48936170212767 387.47694577646627 L 347.8723404255319 162.41239395057175 L 354.25531914893617 331.2061969752859 L 360.63829787234044 415.6030984876429 L 367.02127659574467 457.80154924382146 L 373.40425531914894 478.9007746219107 L 379.7872340425532 489.45038731095536 L 386.17021276595744 494.7251936554777 L 392.55319148936167 497.36259682773886 L 398.93617021276594 492.0693471043895 L 405.3191489361702 496.03467355219476 L 411.70212765957444 488.0855772777573 L 418.0851063829787 494.0427886388786 L 424.468085106383 482.1099225378089 L 430.8510638297872 491.05496126890444 L 437.2340425531915 473.1464404278864 L 443.6170212765957 486.5732202139432 L 450 493.2866101069716 L 456.3829787234042 496.6433050534858 L 462.7659574468085 498.3216525267429 L 469.1489361702128 494.94651420140167 L 475.531914893617 497.47325710070083 L 481.9148936170213 492.4013279232755 L 488.2978723404255 496.20066396163776 L 494.6808510638298 498.1003319808189 L 501.06382978723406 494.2825525636297 L 507.4468085106383 497.14127628181484 L 513.8297872340426 491.4053854666175 L 520.2127659574468 495.70269273330877 L 526.5957446808511 487.08963482109925 L 532.9787234042553 493.5448174105496 L 539.3617021276596 496.7724087052748 L 545.7446808510638 490.2987827369974 L 552.127659574468 495.1493913684987 L 558.5106382978723 485.4297307266691 L 564.8936170212767 492.7148653633346 L 571.2765957446809 478.1261527111767 L 577.6595744680851 489.06307635558835 L 584.0425531914893 467.170785687938 L 590.4255319148936 483.58539284396903 L 596.8085106382979 491.7926964219845 L 603.1914893617021 475.35964588712653 L 609.5744680851064 487.67982294356324 L 615.9574468085107 493.83991147178165 L 622.3404255319149 496.9199557358908 L 628.7234042553191 490.7414238288454 L 635.1063829787233 495.3707119144227 L 641.4893617021277 486.09369236444115 L 647.8723404255319 493.0468461822206 L 654.2553191489362 479.12209516783474 L 660.6382978723404 489.5610475839174 L 667.0212765957447 494.7805237919587 L 673.4042553191489 484.3231279970491 L 679.7872340425532 492.1615639985245 L 686.1702127659574 476.4662486167466 L 692.5531914893617 488.2331243083733 L 698.936170212766 494.1165621541866 L 705.3191489361702 482.33124308373294 L 711.7021276595744 491.16562154186647 L 718.0851063829787 473.4784212467724 L 724.468085106383 486.7392106233862 L 730.8510638297872 460.1991884913316 L 737.2340425531914 480.0995942456658 L 743.6170212765958 440.2803393581704 L 750 470.1401696790852 L 756.3829787234042 410.4020656584286 L 762.7659574468084 455.20103282921434 L 769.1489361702128 365.5846551088159 L 775.531914893617 432.79232755440796 L 781.9148936170212 466.396163777204 L 788.2978723404256 483.198081888602 L 794.6808510638298 449.57580228697896 L 801.063829787234 474.7879011434895 L 807.4468085106383 424.34526005164145 L 813.8297872340426 462.17263002582075 L 820.2127659574468 386.4994466986352 L 826.595744680851 443.2497233493176 L 832.9787234042553 329.7307266691258 L 839.3617021276596 414.86536333456286 L 845.7446808510638 457.43268166728143 L 852.1276595744681 478.71634083364074 L 858.5106382978723 489.35817041682037 L 864.8936170212766 468.05606787163407 L 871.2765957446809 484.02803393581706 L 877.6595744680851 492.0140169679085 L 884.0425531914893 476.0236075248986 L 890.4255319148936 488.0118037624493 L 896.8085106382979 494.00590188122464 L 903.1914893617021 481.99926226484695 L 909.5744680851063 490.9996311324235 L 915.9574468085107 495.49981556621174 L 922.3404255319149 497.74990778310587 L 928.7234042553191 498.87495389155293 L 935.1063829787234 496.6064182958318 L 941.4893617021277 498.3032091479159 L 947.8723404255319 499.15160457395797 L 954.2553191489361 499.57580228697896 L 960.6382978723404 498.70896348210994 L 967.0212765957447 499.35448174105494 L 973.4042553191489 498.0450018443379 L 979.7872340425532 499.02250092216894 L 986.1702127659574 497.04905938767985 L 992.5531914893617 498.5245296938399 L 998.9361702127659 499.26226484691995 L 1005.3191489361702 499.63113242346 L 1011.7021276595744 499.81556621173 L 1018.0851063829787 499.907783105865 L 1024.4680851063831 499.704905938768 L 1030.851063829787 499.852452969384 L 1037.2340425531916 499.926226484692 L 1043.6170212765958 499.963113242346 L 1050 499.981556621173" /><text  class="poloto_text poloto_legend_text" alignment-baseline="middle" text-anchor="start" font-size="large" x="1075" y="200" >c(1002)</text><line  class="poloto_line poloto_legend_icon poloto2stroke poloto2legend" stroke="black" x1="1080" x2="1130" y1="181.25" y2="181.25" /><path  class="poloto_line poloto2stroke" fill="none" stroke="black" d=" M 150 490.75986720767247 L 156.38297872340425 472.2611582441903 L 162.7659574468085 486.1305791220952 L 169.14893617021278 493.06528956104756 L 175.53191489361703 496.5326447805238 L 181.91489361702128 498.2663223902619 L 188.29787234042553 499.1331611951309 L 194.68085106382978 497.38104020656584 L 201.06382978723406 498.69052010328295 L 207.4468085106383 496.05311693102175 L 213.82978723404256 498.0265584655109 L 220.2127659574468 494.06123201770566 L 226.59574468085106 497.0306160088528 L 232.97872340425533 491.0734046477315 L 239.36170212765956 495.5367023238657 L 245.74468085106383 497.76835116193286 L 252.12765957446808 493.2866101069716 L 258.51063829787233 496.6433050534858 L 264.8936170212766 498.3216525267429 L 271.27659574468083 494.94651420140167 L 277.6595744680851 497.47325710070083 L 284.04255319148933 492.4013279232755 L 290.4255319148936 496.20066396163776 L 296.8085106382979 498.1003319808189 L 303.1914893617021 494.2825525636297 L 309.5744680851064 497.14127628181484 L 315.95744680851067 491.4053854666175 L 322.3404255319149 495.70269273330877 L 328.7234042553191 487.08963482109925 L 335.1063829787234 493.5448174105496 L 341.48936170212767 496.7724087052748 L 347.8723404255319 490.2987827369974 L 354.25531914893617 495.1493913684987 L 360.63829787234044 485.4297307266691 L 367.02127659574467 492.7148653633346 L 373.40425531914894 478.1261527111767 L 379.7872340425532 489.06307635558835 L 386.17021276595744 467.170785687938 L 392.55319148936167 483.58539284396903 L 398.93617021276594 491.7926964219845 L 405.3191489361702 475.35964588712653 L 411.70212765957444 487.67982294356324 L 418.0851063829787 493.83991147178165 L 424.468085106383 496.9199557358908 L 430.8510638297872 490.7414238288454 L 437.2340425531915 495.3707119144227 L 443.6170212765957 486.09369236444115 L 450 493.0468461822206 L 456.3829787234042 479.12209516783474 L 462.7659574468085 489.5610475839174 L 469.1489361702128 494.7805237919587 L 475.531914893617 484.3231279970491 L 481.9148936170213 492.1615639985245 L 488.2978723404255 476.4662486167466 L 494.6808510638298 488.2331243083733 L 501.06382978723406 494.1165621541866 L 507.4468085106383 482.33124308373294 L 513.8297872340426 491.16562154186647 L 520.2127659574468 473.4784212467724 L 526.5957446808511 486.7392106233862 L 532.9787234042553 460.1991884913316 L 539.3617021276596 480.0995942456658 L 545.7446808510638 440.2803393581704 L 552.127659574468 470.1401696790852 L 558.5106382978723 410.4020656584286 L 564.8936170212767 455.20103282921434 L 571.2765957446809 365.5846551088159 L 577.6595744680851 432.79232755440796 L 584.0425531914893 466.396163777204 L 590.4255319148936 483.198081888602 L 596.8085106382979 449.57580228697896 L 603.1914893617021 474.7879011434895 L 609.5744680851064 424.34526005164145 L 615.9574468085107 462.17263002582075 L 622.3404255319149 386.4994466986352 L 628.7234042553191 443.2497233493176 L 635.1063829787233 329.7307266691258 L 641.4893617021277 414.86536333456286 L 647.8723404255319 457.43268166728143 L 654.2553191489362 478.71634083364074 L 660.6382978723404 489.35817041682037 L 667.0212765957447 468.05606787163407 L 673.4042553191489 484.02803393581706 L 679.7872340425532 492.0140169679085 L 686.1702127659574 476.0236075248986 L 692.5531914893617 488.0118037624493 L 698.936170212766 494.00590188122464 L 705.3191489361702 481.99926226484695 L 711.7021276595744 490.9996311324235 L 718.0851063829787 495.49981556621174 L 724.468085106383 497.74990778310587 L 730.8510638297872 498.87495389155293 L 737.2340425531914 496.6064182958318 L 743.6170212765958 498.3032091479159 L 750 499.15160457395797 L 756.3829787234042 499.57580228697896 L 762.7659574468084 498.70896348210994 L 769.1489361702128 499.35448174105494 L 775.531914893617 498.0450018443379 L 781.9148936170212 499.02250092216894 L 788.2978723404256 497.04905938767985 L 794.6808510638298 498.5245296938399 L 801.063829787234 499.26226484691995 L 807.4468085106383 499.63113242346 L 813.8297872340426 499.81556621173 L 820.2127659574468 499.907783105865 L 826.595744680851 499.704905938768 L 832.9787234042553 499.852452969384 L 839.3617021276596 499.926226484692 L 845.7446808510638 499.963113242346 L 852.1276595744681 499.981556621173" /><text  class="poloto_text poloto_legend_text" alignment-baseline="middle" text-anchor="start" font-size="large" x="1075" y="250" >c(1003)</text><line  class="poloto_line poloto_legend_icon poloto3stroke poloto3legend" stroke="black" x1="1080" x2="1130" y1="231.25" y2="231.25" /><path  class="poloto_line poloto3stroke" fill="none" stroke="black" d=" M 150 444.48542973072665 L 156.38297872340425 472.2427148653633 L 162.7659574468085 416.709701217263 L 169.14893617021278 458.3548506086315 L 175.53191489361703 479.17742530431576 L 181.91489361702128 437.51383253412024 L 188.29787234042553 468.75691626706015 L 194.68085106382978 484.37845813353005 L 201.06382978723406 453.1169310217632 L 207.4468085106383 476.5584655108816 L 213.82978723404256 429.65695315381777 L 220.2127659574468 464.8284765769089 L 226.59574468085106 394.46698635189966 L 232.97872340425533 447.23349317594983 L 239.36170212765956 341.6820361490225 L 245.74468085106383 420.8410180745112 L 252.12765957446808 460.4205090372556 L 258.51063829787233 480.21025451862783 L 264.8936170212766 440.61232017705646 L 271.27659574468083 470.3061600885282 L 277.6595744680851 485.15308004426413 L 284.04255319148933 455.44079675396534 L 290.4255319148936 477.72039837698264 L 296.8085106382979 488.8601991884913 L 303.1914893617021 494.4300995942457 L 309.5744680851064 497.21504979712284 L 315.95744680851067 491.6267060125415 L 322.3404255319149 495.81335300627075 L 328.7234042553191 487.42161563998525 L 335.1063829787234 493.7108078199926 L 341.48936170212767 481.1139800811509 L 347.8723404255319 490.55699004057544 L 354.25531914893617 495.2784950202877 L 360.63829787234044 497.63924751014383 L 367.02127659574467 498.8196237550719 L 373.40425531914894 499.40981187753596 L 379.7872340425532 499.704905938768 L 386.17021276595744 499.852452969384 L 392.55319148936167 499.926226484692 L 398.93617021276594 499.963113242346 L 405.3191489361702 499.981556621173" /><text  class="poloto_text poloto_legend_text" alignment-baseline="middle" text-anchor="start" font-size="large" x="1075" y="300" >c(1004)</text><line  class="poloto_line poloto_legend_icon poloto4stroke poloto4legend" stroke="black" x1="1080" x2="1130" y1="281.25" y2="281.25" /><path  class="poloto_line poloto4stroke" fill="none" stroke="black" d=" M 150 490.7414238288454 L 156.38297872340425 495.3707119144227 L 162.7659574468085 486.09369236444115 L 169.14893617021278 493.0468461822206 L 175.53191489361703 479.12209516783474 L 181.91489361702128 489.5610475839174 L 188.29787234042553 494.7805237919587 L 194.68085106382978 484.3231279970491 L 201.06382978723406 492.1615639985245 L 207.4468085106383 476.4662486167466 L 213.82978723404256 488.2331243083733 L 220.2127659574468 494.1165621541866 L 226.59574468085106 482.33124308373294 L 232.97872340425533 491.16562154186647 L 239.36170212765956 473.4784212467724 L 245.74468085106383 486.7392106233862 L 252.12765957446808 460.1991884913316 L 258.51063829787233 480.0995942456658 L 264.8936170212766 440.2803393581704 L 271.27659574468083 470.1401696790852 L 277.6595744680851 410.4020656584286 L 284.04255319148933 455.20103282921434 L 290.4255319148936 365.5846551088159 L 296.8085106382979 432.79232755440796 L 303.1914893617021 466.396163777204 L 309.5744680851064 483.198081888602 L 315.95744680851067 449.57580228697896 L 322.3404255319149 474.7879011434895 L 328.7234042553191 424.34526005164145 L 335.1063829787234 462.17263002582075 L 341.48936170212767 386.4994466986352 L 347.8723404255319 443.2497233493176 L 354.25531914893617 329.7307266691258 L 360.63829787234044 414.86536333456286 L 367.02127659574467 457.43268166728143 L 373.40425531914894 478.71634083364074 L 379.7872340425532 489.35817041682037 L 386.17021276595744 468.05606787163407 L 392.55319148936167 484.02803393581706 L 398.93617021276594 492.0140169679085 L 405.3191489361702 476.0236075248986 L 411.70212765957444 488.0118037624493 L 418.0851063829787 494.00590188122464 L 424.468085106383 481.99926226484695 L 430.8510638297872 490.9996311324235 L 437.2340425531915 495.49981556621174 L 443.6170212765957 497.74990778310587 L 450 498.87495389155293 L 456.3829787234042 496.6064182958318 L 462.7659574468085 498.3032091479159 L 469.1489361702128 499.15160457395797 L 475.531914893617 499.57580228697896 L 481.9148936170213 498.70896348210994 L 488.2978723404255 499.35448174105494 L 494.6808510638298 498.0450018443379 L 501.06382978723406 499.02250092216894 L 507.4468085106383 497.04905938767985 L 513.8297872340426 498.5245296938399 L 520.2127659574468 499.26226484691995 L 526.5957446808511 499.63113242346 L 532.9787234042553 499.81556621173 L 539.3617021276596 499.907783105865 L 545.7446808510638 499.704905938768 L 552.127659574468 499.852452969384 L 558.5106382978723 499.926226484692 L 564.8936170212767 499.963113242346 L 571.2765957446809 499.981556621173" /><text  class="poloto_text poloto_legend_text" alignment-baseline="middle" text-anchor="start" font-size="large" x="1075" y="350" >c(1005)</text><line  class="poloto_line poloto_legend_icon poloto5stroke poloto5legend" stroke="black" x1="1080" x2="1130" y1="331.25" y2="331.25" /><path  class="poloto_line poloto5stroke" fill="none" stroke="black" d=" M 150 444.37476945776467 L 156.38297872340425 472.1873847288823 L 162.7659574468085 486.09369236444115 L 169.14893617021278 493.0468461822206 L 175.53191489361703 479.12209516783474 L 181.91489361702128 489.5610475839174 L 188.29787234042553 494.7805237919587 L 194.68085106382978 484.3231279970491 L 201.06382978723406 492.1615639985245 L 207.4468085106383 476.4662486167466 L 213.82978723404256 488.2331243083733 L 220.2127659574468 494.1165621541866 L 226.59574468085106 482.33124308373294 L 232.97872340425533 491.16562154186647 L 239.36170212765956 473.4784212467724 L 245.74468085106383 486.7392106233862 L 252.12765957446808 460.1991884913316 L 258.51063829787233 480.0995942456658 L 264.8936170212766 440.2803393581704 L 271.27659574468083 470.1401696790852 L 277.6595744680851 410.4020656584286 L 284.04255319148933 455.20103282921434 L 290.4255319148936 365.5846551088159 L 296.8085106382979 432.79232755440796 L 303.1914893617021 466.396163777204 L 309.5744680851064 483.198081888602 L 315.95744680851067 449.57580228697896 L 322.3404255319149 474.7879011434895 L 328.7234042553191 424.34526005164145 L 335.1063829787234 462.17263002582075 L 341.48936170212767 386.4994466986352 L 347.8723404255319 443.2497233493176 L 354.25531914893617 329.7307266691258 L 360.63829787234044 414.86536333456286 L 367.02127659574467 457.43268166728143 L 373.40425531914894 478.71634083364074 L 379.7872340425532 489.35817041682037 L 386.17021276595744 468.05606787163407 L 392.55319148936167 484.02803393581706 L 398.93617021276594 492.0140169679085 L 405.3191489361702 476.0236075248986 L 411.70212765957444 488.0118037624493 L 418.0851063829787 494.00590188122464 L 424.468085106383 481.99926226484695 L 430.8510638297872 490.9996311324235 L 437.2340425531915 495.49981556621174 L 443.6170212765957 497.74990778310587 L 450 498.87495389155293 L 456.3829787234042 496.6064182958318 L 462.7659574468085 498.3032091479159 L 469.1489361702128 499.15160457395797 L 475.531914893617 499.57580228697896 L 481.9148936170213 498.70896348210994 L 488.2978723404255 499.35448174105494 L 494.6808510638298 498.0450018443379 L 501.06382978723406 499.02250092216894 L 507.4468085106383 497.04905938767985 L 513.8297872340426 498.5245296938399 L 520.2127659574468 499.26226484691995 L 526.5957446808511 499.63113242346 L 532.9787234042553 499.81556621173 L 539.3617021276596 499.907783105865 L 545.7446808510638 499.704905938768 L 552.127659574468 499.852452969384 L 558.5106382978723 499.926226484692 L 564.8936170212767 499.963113242346 L 571.2765957446809 499.981556621173" /><text  class="poloto_labels poloto_text poloto_title" alignment-baseline="start" text-anchor="middle" font-size="x-large" x="600" y="37.5" >collatz</text><text  class="poloto_labels poloto_text poloto_xname" alignment-baseline="start" text-anchor="middle" font-size="x-large" x="600" y="581.25" >x</text><text  class="poloto_labels poloto_text poloto_yname" alignment-baseline="start" text-anchor="middle" font-size="x-large" transform="rotate(-90,37.5,300)" x="37.5" y="300" >y</text><text  class="poloto_tick_labels poloto_text" alignment-baseline="middle" text-anchor="start" x="660" y="70" ></text><line  class="poloto_axis_lines" stroke="black" x1="150" x2="150" y1="500" y2="505" /><line  class="poloto_tick_line" stroke="black" x1="150" x2="150" y1="500" y2="100" /><text  class="poloto_tick_labels poloto_text" alignment-baseline="start" text-anchor="middle" x="150" y="530" >0</text><line  class="poloto_axis_lines" stroke="black" x1="277.6595744680851" x2="277.6595744680851" y1="500" y2="505" /><line  class="poloto_tick_line" stroke="black" x1="277.6595744680851" x2="277.6595744680851" y1="500" y2="100" /><text  class="poloto_tick_labels poloto_text" alignment-baseline="start" text-anchor="middle" x="277.6595744680851" y="530" >20</text><line  class="poloto_axis_lines" stroke="black" x1="405.3191489361702" x2="405.3191489361702" y1="500" y2="505" /><line  class="poloto_tick_line" stroke="black" x1="405.3191489361702" x2="405.3191489361702" y1="500" y2="100" /><text  class="poloto_tick_labels poloto_text" alignment-baseline="start" text-anchor="middle" x="405.3191489361702" y="530" >40</text><line  class="poloto_axis_lines" stroke="black" x1="532.9787234042553" x2="532.9787234042553" y1="500" y2="505" /><line  class="poloto_tick_line" stroke="black" x1="532.9787234042553" x2="532.9787234042553" y1="500" y2="100" /><text  class="poloto_tick_labels poloto_text" alignment-baseline="start" text-anchor="middle" x="532.9787234042553" y="530" >60</text><line  class="poloto_axis_lines" stroke="black" x1="660.6382978723404" x2="660.6382978723404" y1="500" y2="505" /><line  class="poloto_tick_line" stroke="black" x1="660.6382978723404" x2="660.6382978723404" y1="500" y2="100" /><text  class="poloto_tick_labels poloto_text" alignment-baseline="start" text-anchor="middle" x="660.6382978723404" y="530" >80</text><line  class="poloto_axis_lines" stroke="black" x1="788.2978723404256" x2="788.2978723404256" y1="500" y2="505" /><line  class="poloto_tick_line" stroke="black" x1="788.2978723404256" x2="788.2978723404256" y1="500" y2="100" /><text  class="poloto_tick_labels poloto_text" alignment-baseline="start" text-anchor="middle" x="788.2978723404256" y="530" >100</text><line  class="poloto_axis_lines" stroke="black" x1="915.9574468085107" x2="915.9574468085107" y1="500" y2="505" /><line  class="poloto_tick_line" stroke="black" x1="915.9574468085107" x2="915.9574468085107" y1="500" y2="100" /><text  class="poloto_tick_labels poloto_text" alignment-baseline="start" text-anchor="middle" x="915.9574468085107" y="530" >120</text><line  class="poloto_axis_lines" stroke="black" x1="1043.6170212765958" x2="1043.6170212765958" y1="500" y2="505" /><line  class="poloto_tick_line" stroke="black" x1="1043.6170212765958" x2="1043.6170212765958" y1="500" y2="100" /><text  class="poloto_tick_labels poloto_text" alignment-baseline="start" text-anchor="middle" x="1043.6170212765958" y="530" >140</text><text  class="poloto_tick_labels poloto_text" alignment-baseline="middle" text-anchor="start" x="150" y="70" ></text><line  class="poloto_axis_lines" stroke="black" x1="150" x2="144" y1="500" y2="500" /><line  class="poloto_tick_line" stroke="black" x1="150" x2="1050" y1="500" y2="500" /><text  class="poloto_tick_labels poloto_text" alignment-baseline="middle" text-anchor="end" x="135" y="500" >0</text><line  class="poloto_axis_lines" stroke="black" x1="150" x2="144" y1="407.78310586499447" y2="407.78310586499447" /><line  class="poloto_tick_line" stroke="black" x1="150" x2="1050" y1="407.78310586499447" y2="407.78310586499447" /><text  class="poloto_tick_labels poloto_text" alignment-baseline="middle" text-anchor="end" x="135" y="407.78310586499447" >5000</text><line  class="poloto_axis_lines" stroke="black" x1="150" x2="144" y1="315.56621172998894" y2="315.56621172998894" /><line  class="poloto_tick_line" stroke="black" x1="150" x2="1050" y1="315.56621172998894" y2="315.56621172998894" /><text  class="poloto_tick_labels poloto_text" alignment-baseline="middle" text-anchor="end" x="135" y="315.56621172998894" >10000</text><line  class="poloto_axis_lines" stroke="black" x1="150" x2="144" y1="223.3493175949834" y2="223.3493175949834" /><line  class="poloto_tick_line" stroke="black" x1="150" x2="1050" y1="223.3493175949834" y2="223.3493175949834" /><text  class="poloto_tick_labels poloto_text" alignment-baseline="middle" text-anchor="end" x="135" y="223.3493175949834" >15000</text><line  class="poloto_axis_lines" stroke="black" x1="150" x2="144" y1="131.13242345997787" y2="131.13242345997787" /><line  class="poloto_tick_line" stroke="black" x1="150" x2="1050" y1="131.13242345997787" y2="131.13242345997787" /><text  class="poloto_tick_labels poloto_text" alignment-baseline="middle" text-anchor="end" x="135" y="131.13242345997787" >20000</text><path  stroke="black" fill="none" class="poloto_axis_lines" style="stroke-dasharray:6.382978723404255;stroke-dashoffset:-0;" d=" M 150 500 L 1050 500" /><path  stroke="black" fill="none" class="poloto_axis_lines" style="stroke-dasharray:9.221689413500552;stroke-dashoffset:-0;" d=" M 150 500 L 150 100" /></svg>