<svg class="poloto" width="800" height="400" viewBox="0 0 2000 800" xmlns="http://www.w3.org/2000/svg"><style>.poloto { stroke-linecap:round; stroke-linejoin:round; font-family: 'Tahoma', sans-serif; background-color: #262626;} .poloto_scatter{stroke-width:7} .poloto_tick_line{stroke:dimgray;stroke-width:0.5} .poloto_line{stroke-width:2} .poloto_text{fill: white;} .poloto_axis_lines{stroke: white;stroke-width:3;fill:none;stroke-dasharray:none} .poloto0stroke{stroke:  blue;} .poloto1stroke{stroke:  red;} .poloto2stroke{stroke:  green;} .poloto3stroke{stroke:  gold;} .poloto4stroke{stroke:  aqua;} .poloto5stroke{stroke:  lime;} .poloto6stroke{stroke:  orange;} .poloto7stroke{stroke:  chocolate;} .poloto0fill{fill:blue;} .poloto1fill{fill:red;} .poloto2fill{fill:green;} .poloto3fill{fill:gold;} .poloto4fill{fill:aqua;} .poloto5fill{fill:lime;} .poloto6fill{fill:orange;} .poloto7fill{fill:chocolate;}.poloto_line{stroke-dasharray:2;stroke-width:1;}</style><text  class="poloto_text poloto_legend_text" alignment-baseline="middle" text-anchor="start" font-size="large" x="1875" y="100" >c(1000)</text><line  class="poloto_line poloto_legend_icon poloto0stroke poloto0legend" stroke="black" x1="1880" x2="1930" y1="81.25" y2="81.25" /><path  class="poloto_line poloto0stroke" fill="none" stroke="black" d=" M 150 686.1674658797492 L 162.05673758865248 693.0837329398746 L 174.11347517730496 696.5418664699373 L 186.17021276595744 689.5979343415714 L 198.22695035460993 694.7989671707857 L 210.2836879432624 697.3994835853929 L 222.3404255319149 698.6997417926964 L 234.39716312056737 696.0715603098488 L 246.45390070921985 698.0357801549244 L 258.51063829787233 694.0796753965326 L 270.5673758865248 697.0398376982663 L 282.6241134751773 691.0918480265584 L 294.6808510638298 695.5459240132792 L 306.73758865248226 686.6101069715972 L 318.79432624113474 693.3050534857986 L 330.8510638297872 696.6525267428993 L 342.9078014184397 689.9299151604574 L 354.9645390070922 694.9649575802287 L 367.02127659574467 697.4824787901143 L 379.07801418439715 692.4197713021025 L 391.13475177304963 696.2098856510513 L 403.1914893617021 688.6019918849133 L 415.2482269503546 694.3009959424567 L 427.3049645390071 697.1504979712283 L 439.36170212765956 691.4238288454445 L 451.41843971631204 695.7119144227222 L 463.4751773049645 687.1080781999262 L 475.531914893617 693.5540390999631 L 487.5886524822695 680.6344522316489 L 499.64539007092196 690.3172261158244 L 511.70212765957444 695.1586130579122 L 523.7588652482269 685.4481741054962 L 535.8156028368794 692.724087052748 L 547.8723404255319 678.1445960900037 L 559.9290780141844 689.0722980450018 L 571.9858156028369 667.189229066765 L 584.0425531914893 683.5946145333825 L 596.0992907801418 650.756178531907 L 608.1560283687943 675.3780892659536 L 620.2127659574468 687.6890446329768 L 632.2695035460993 663.0394688306898 L 644.3262411347517 681.5197344153449 L 656.3829787234042 690.7598672076724 L 668.4397163120567 695.3799336038362 L 680.4964539007092 686.1121357432681 L 692.5531914893617 693.0560678716341 L 704.6099290780141 679.1405385466618 L 716.6666666666666 689.5702692733308 L 728.7234042553191 668.6831427517521 L 740.7801418439716 684.341571375876 L 752.8368794326241 692.1707856879381 L 764.8936170212766 676.4846919955736 L 776.950354609929 688.2423459977867 L 789.0070921985815 664.6993729251199 L 801.063829787234 682.3496864625599 L 813.1205673758865 691.17484323128 L 825.177304964539 673.4968646255994 L 837.2340425531914 686.7484323127997 L 849.2907801418439 660.2176318701586 L 861.3475177304964 680.1088159350793 L 873.4042553191489 640.2987827369974 L 885.4609929078014 670.1493913684988 L 897.5177304964539 610.4205090372557 L 909.5744680851063 655.2102545186278 L 921.6312056737588 565.6030984876429 L 933.6879432624113 632.8015492438215 L 945.7446808510638 498.3769826632239 L 957.8014184397163 599.1884913316119 L 969.8581560283687 649.5942456658059 L 981.9148936170212 674.797122832903 L 993.9716312056737 624.3637034304685 L 1006.0283687943262 662.1818517152342 L 1018.0851063829787 586.5178900774622 L 1030.1418439716313 643.2589450387311 L 1042.1985815602836 529.7491700479528 L 1054.255319148936 614.8745850239764 L 1066.3120567375886 444.5960900036887 L 1078.3687943262412 572.2980450018443 L 1090.4255319148936 636.1490225009221 L 1102.482269503546 668.0745112504611 L 1114.5390070921985 684.0372556252305 L 1126.595744680851 652.0841018074511 L 1138.6524822695035 676.0420509037256 L 1150.7092198581558 688.0210254518628 L 1162.7659574468084 664.0354112873479 L 1174.822695035461 682.0177056436739 L 1186.8794326241134 691.008852821837 L 1198.9361702127658 672.9988933972704 L 1210.9929078014184 686.4994466986352 L 1223.049645390071 693.2497233493176 L 1235.1063829787233 696.6248616746587 L 1247.1631205673757 698.3124308373294 L 1259.2198581560283 694.9096274437477 L 1271.276595744681 697.4548137218738 L 1283.3333333333333 698.7274068609369 L 1295.3900709219856 699.3637034304685 L 1307.4468085106382 698.0634452231649 L 1319.5035460992908 699.0317226115825 L 1331.5602836879432 697.0675027665068 L 1343.6170212765956 698.5337513832534 L 1355.6737588652481 695.5735890815197 L 1367.7304964539007 697.7867945407598 L 1379.787234042553 698.89339727038 L 1391.8439716312055 699.4466986351899 L 1403.900709219858 699.723349317595 L 1415.9574468085107 699.8616746587975 L 1428.014184397163 699.557358908152 L 1440.0709219858154 699.778679454076 L 1452.127659574468 699.889339727038 L 1464.1843971631206 699.944669863519 L 1476.241134751773 699.9723349317595" /><text  class="poloto_text poloto_legend_text" alignment-baseline="middle" text-anchor="start" font-size="large" x="1875" y="150" >c(1001)</text><line  class="poloto_line poloto_legend_icon poloto1stroke poloto1legend" stroke="black" x1="1880" x2="1930" y1="131.25" y2="131.25" /><path  class="poloto_line poloto1stroke" fill="none" stroke="black" d=" M 150 616.894135005533 L 162.05673758865248 658.4470675027665 L 174.11347517730496 679.2235337513832 L 186.17021276595744 637.6429361859092 L 198.22695035460993 668.8214680929547 L 210.2836879432624 606.4367392106234 L 222.3404255319149 653.2183696053116 L 234.39716312056737 559.6274437476945 L 246.45390070921985 629.8137218738473 L 258.51063829787233 489.41350055330133 L 270.5673758865248 594.7067502766507 L 282.6241134751773 647.3533751383253 L 294.6808510638298 542.0324603467355 L 306.73758865248226 621.0162301733677 L 318.79432624113474 463.0210254518628 L 330.8510638297872 581.5105127259314 L 342.9078014184397 344.50387310955364 L 354.9645390070922 522.2519365547769 L 367.02127659574467 166.72814459609003 L 379.07801418439715 433.364072298045 L 391.13475177304963 566.6820361490225 L 403.1914893617021 300.018443378827 L 415.2482269503546 500.0092216894135 L 427.3049645390071 100 L 439.36170212765956 400 L 451.41843971631204 550 L 463.4751773049645 625 L 475.531914893617 474.9723349317595 L 487.5886524822695 587.4861674658797 L 499.64539007092196 362.43083732939874 L 511.70212765957444 531.2154186646994 L 523.7588652482269 193.61859092585757 L 535.8156028368794 446.8092954629288 L 547.8723404255319 573.4046477314644 L 559.9290780141844 636.7023238657322 L 571.9858156028369 668.3511619328661 L 584.0425531914893 684.175580966433 L 596.0992907801418 692.0877904832165 L 608.1560283687943 696.0438952416083 L 620.2127659574468 688.1040206565843 L 632.2695035460993 694.0520103282921 L 644.3262411347517 682.128365916636 L 656.3829787234042 691.0641829583179 L 668.4397163120567 673.1648838067134 L 680.4964539007092 686.5824419033567 L 692.5531914893617 659.7196606418296 L 704.6099290780141 679.8598303209147 L 716.6666666666666 689.9299151604574 L 728.7234042553191 694.9649575802287 L 740.7801418439716 697.4824787901143 L 752.8368794326241 692.4197713021025 L 764.8936170212766 696.2098856510513 L 776.950354609929 688.6019918849133 L 789.0070921985815 694.3009959424567 L 801.063829787234 697.1504979712283 L 813.1205673758865 691.4238288454445 L 825.177304964539 695.7119144227222 L 837.2340425531914 687.1080781999262 L 849.2907801418439 693.5540390999631 L 861.3475177304964 680.6344522316489 L 873.4042553191489 690.3172261158244 L 885.4609929078014 695.1586130579122 L 897.5177304964539 685.4481741054962 L 909.5744680851063 692.724087052748 L 921.6312056737588 678.1445960900037 L 933.6879432624113 689.0722980450018 L 945.7446808510638 667.189229066765 L 957.8014184397163 683.5946145333825 L 969.8581560283687 650.756178531907 L 981.9148936170212 675.3780892659536 L 993.9716312056737 687.6890446329768 L 1006.0283687943262 663.0394688306898 L 1018.0851063829787 681.5197344153449 L 1030.1418439716313 690.7598672076724 L 1042.1985815602836 695.3799336038362 L 1054.255319148936 686.1121357432681 L 1066.3120567375886 693.0560678716341 L 1078.3687943262412 679.1405385466618 L 1090.4255319148936 689.5702692733308 L 1102.482269503546 668.6831427517521 L 1114.5390070921985 684.341571375876 L 1126.595744680851 692.1707856879381 L 1138.6524822695035 676.4846919955736 L 1150.7092198581558 688.2423459977867 L 1162.7659574468084 664.6993729251199 L 1174.822695035461 682.3496864625599 L 1186.8794326241134 691.17484323128 L 1198.9361702127658 673.4968646255994 L 1210.9929078014184 686.7484323127997 L 1223.049645390071 660.2176318701586 L 1235.1063829787233 680.1088159350793 L 1247.1631205673757 640.2987827369974 L 1259.2198581560283 670.1493913684988 L 1271.276595744681 610.4205090372557 L 1283.3333333333333 655.2102545186278 L 1295.3900709219856 565.6030984876429 L 1307.4468085106382 632.8015492438215 L 1319.5035460992908 498.3769826632239 L 1331.5602836879432 599.1884913316119 L 1343.6170212765956 649.5942456658059 L 1355.6737588652481 674.797122832903 L 1367.7304964539007 624.3637034304685 L 1379.787234042553 662.1818517152342 L 1391.8439716312055 586.5178900774622 L 1403.900709219858 643.2589450387311 L 1415.9574468085107 529.7491700479528 L 1428.014184397163 614.8745850239764 L 1440.0709219858154 444.5960900036887 L 1452.127659574468 572.2980450018443 L 1464.1843971631206 636.1490225009221 L 1476.241134751773 668.0745112504611 L 1488.2978723404253 684.0372556252305 L 1500.354609929078 652.0841018074511 L 1512.4113475177305 676.0420509037256 L 1524.468085106383 688.0210254518628 L 1536.5248226950353 664.0354112873479 L 1548.5815602836878 682.0177056436739 L 1560.6382978723404 691.008852821837 L 1572.6950354609928 672.9988933972704 L 1584.7517730496452 686.4994466986352 L 1596.8085106382978 693.2497233493176 L 1608.8652482269504 696.6248616746587 L 1620.9219858156027 698.3124308373294 L 1632.978723404255 694.9096274437477 L 1645.0354609929077 697.4548137218738 L 1657.0921985815603 698.7274068609369 L 1669.1489361702127 699.3637034304685 L 1681.205673758865 698.0634452231649 L 1693.2624113475176 699.0317226115825 L 1705.3191489361702 697.0675027665068 L 1717.3758865248226 698.5337513832534 L 1729.432624113475 695.5735890815197 L 1741.4893617021276 697.7867945407598 L 1753.5460992907801 698.89339727038 L 1765.6028368794325 699.4466986351899 L 1777.6595744680849 699.723349317595 L 1789.7163120567375 699.8616746587975 L 1801.77304964539 699.557358908152 L 1813.8297872340424 699.778679454076 L 1825.8865248226948 699.889339727038 L 1837.9432624113474 699.944669863519 L 1850 699.9723349317595" /><text  class="poloto_text poloto_legend_text" alignment-baseline="middle" text-anchor="start" font-size="large" x="1875" y="200" >c(1002)</text><line  class="poloto_line poloto_legend_icon poloto2stroke poloto2legend" stroke="black" x1="1880" x2="1930" y1="181.25" y2="181.25" /><path  class="poloto_line poloto2stroke" fill="none" stroke="black" d=" M 150 686.1398008115086 L 162.05673758865248 658.3917373662855 L 174.11347517730496 679.1958686831427 L 186.17021276595744 689.5979343415714 L 198.22695035460993 694.7989671707857 L 210.2836879432624 697.3994835853929 L 222.3404255319149 698.6997417926964 L 234.39716312056737 696.0715603098488 L 246.45390070921985 698.0357801549244 L 258.51063829787233 694.0796753965326 L 270.5673758865248 697.0398376982663 L 282.6241134751773 691.0918480265584 L 294.6808510638298 695.5459240132792 L 306.73758865248226 686.6101069715972 L 318.79432624113474 693.3050534857986 L 330.8510638297872 696.6525267428993 L 342.9078014184397 689.9299151604574 L 354.9645390070922 694.9649575802287 L 367.02127659574467 697.4824787901143 L 379.07801418439715 692.4197713021025 L 391.13475177304963 696.2098856510513 L 403.1914893617021 688.6019918849133 L 415.2482269503546 694.3009959424567 L 427.3049645390071 697.1504979712283 L 439.36170212765956 691.4238288454445 L 451.41843971631204 695.7119144227222 L 463.4751773049645 687.1080781999262 L 475.531914893617 693.5540390999631 L 487.5886524822695 680.6344522316489 L 499.64539007092196 690.3172261158244 L 511.70212765957444 695.1586130579122 L 523.7588652482269 685.4481741054962 L 535.8156028368794 692.724087052748 L 547.8723404255319 678.1445960900037 L 559.9290780141844 689.0722980450018 L 571.9858156028369 667.189229066765 L 584.0425531914893 683.5946145333825 L 596.0992907801418 650.756178531907 L 608.1560283687943 675.3780892659536 L 620.2127659574468 687.6890446329768 L 632.2695035460993 663.0394688306898 L 644.3262411347517 681.5197344153449 L 656.3829787234042 690.7598672076724 L 668.4397163120567 695.3799336038362 L 680.4964539007092 686.1121357432681 L 692.5531914893617 693.0560678716341 L 704.6099290780141 679.1405385466618 L 716.6666666666666 689.5702692733308 L 728.7234042553191 668.6831427517521 L 740.7801418439716 684.341571375876 L 752.8368794326241 692.1707856879381 L 764.8936170212766 676.4846919955736 L 776.950354609929 688.2423459977867 L 789.0070921985815 664.6993729251199 L 801.063829787234 682.3496864625599 L 813.1205673758865 691.17484323128 L 825.177304964539 673.4968646255994 L 837.2340425531914 686.7484323127997 L 849.2907801418439 660.2176318701586 L 861.3475177304964 680.1088159350793 L 873.4042553191489 640.2987827369974 L 885.4609929078014 670.1493913684988 L 897.5177304964539 610.4205090372557 L 909.5744680851063 655.2102545186278 L 921.6312056737588 565.6030984876429 L 933.6879432624113 632.8015492438215 L 945.7446808510638 498.3769826632239 L 957.8014184397163 599.1884913316119 L 969.8581560283687 649.5942456658059 L 981.9148936170212 674.797122832903 L 993.9716312056737 624.3637034304685 L 1006.0283687943262 662.1818517152342 L 1018.0851063829787 586.5178900774622 L 1030.1418439716313 643.2589450387311 L 1042.1985815602836 529.7491700479528 L 1054.255319148936 614.8745850239764 L 1066.3120567375886 444.5960900036887 L 1078.3687943262412 572.2980450018443 L 1090.4255319148936 636.1490225009221 L 1102.482269503546 668.0745112504611 L 1114.5390070921985 684.0372556252305 L 1126.595744680851 652.0841018074511 L 1138.6524822695035 676.0420509037256 L 1150.7092198581558 688.0210254518628 L 1162.7659574468084 664.0354112873479 L 1174.822695035461 682.0177056436739 L 1186.8794326241134 691.008852821837 L 1198.9361702127658 672.9988933972704 L 1210.9929078014184 686.4994466986352 L 1223.049645390071 693.2497233493176 L 1235.1063829787233 696.6248616746587 L 1247.1631205673757 698.3124308373294 L 1259.2198581560283 694.9096274437477 L 1271.276595744681 697.4548137218738 L 1283.3333333333333 698.7274068609369 L 1295.3900709219856 699.3637034304685 L 1307.4468085106382 698.0634452231649 L 1319.5035460992908 699.0317226115825 L 1331.5602836879432 697.0675027665068 L 1343.6170212765956 698.5337513832534 L 1355.6737588652481 695.5735890815197 L 1367.7304964539007 697.7867945407598 L 1379.787234042553 698.89339727038 L 1391.8439716312055 699.4466986351899 L 1403.900709219858 699.723349317595 L 1415.9574468085107 699.8616746587975 L 1428.014184397163 699.557358908152 L 1440.0709219858154 699.778679454076 L 1452.127659574468 699.889339727038 L 1464.1843971631206 699.944669863519 L 1476.241134751773 699.9723349317595" /><text  class="poloto_text poloto_legend_text" alignment-baseline="middle" text-anchor="start" font-size="large" x="1875" y="250" >c(1003)</text><line  class="poloto_line poloto_legend_icon poloto3stroke poloto3legend" stroke="black" x1="1880" x2="1930" y1="231.25" y2="231.25" /><path  class="poloto_line poloto3stroke" fill="none" stroke="black" d=" M 150 616.72814459609 L 162.05673758865248 658.364072298045 L 174.11347517730496 575.0645518258945 L 186.17021276595744 637.5322759129473 L 198.22695035460993 668.7661379564736 L 210.2836879432624 606.2707488011804 L 222.3404255319149 653.1353744005902 L 234.39716312056737 676.567687200295 L 246.45390070921985 629.6753965326448 L 258.51063829787233 664.8376982663224 L 270.5673758865248 594.4854297307267 L 282.6241134751773 647.2427148653634 L 294.6808510638298 541.7004795278494 L 306.73758865248226 620.8502397639247 L 318.79432624113474 462.52305422353373 L 330.8510638297872 581.2615271117669 L 342.9078014184397 640.6307635558834 L 354.9645390070922 670.3153817779418 L 367.02127659574467 610.9184802655847 L 379.07801418439715 655.4592401327923 L 391.13475177304963 677.7296200663961 L 403.1914893617021 633.161195130948 L 415.2482269503546 666.580597565474 L 427.3049645390071 683.290298782737 L 439.36170212765956 691.6451493913685 L 451.41843971631204 695.8225746956842 L 463.4751773049645 687.4400590188122 L 475.531914893617 693.7200295094061 L 487.5886524822695 681.1324234599779 L 499.64539007092196 690.5662117299889 L 511.70212765957444 671.6709701217263 L 523.7588652482269 685.8354850608631 L 535.8156028368794 692.9177425304316 L 547.8723404255319 696.4588712652157 L 559.9290780141844 698.2294356326079 L 571.9858156028369 699.1147178163039 L 584.0425531914893 699.557358908152 L 596.0992907801418 699.778679454076 L 608.1560283687943 699.889339727038 L 620.2127659574468 699.944669863519 L 632.2695035460993 699.9723349317595" /><text  class="poloto_text poloto_legend_text" alignment-baseline="middle" text-anchor="start" font-size="large" x="1875" y="300" >c(1004)</text><line  class="poloto_line poloto_legend_icon poloto4stroke poloto4legend" stroke="black" x1="1880" x2="1930" y1="281.25" y2="281.25" /><path  class="poloto_line poloto4stroke" fill="none" stroke="black" d=" M 150 686.1121357432681 L 162.05673758865248 693.0560678716341 L 174.11347517730496 679.1405385466618 L 186.17021276595744 689.5702692733308 L 198.22695035460993 668.6831427517521 L 210.2836879432624 684.341571375876 L 222.3404255319149 692.1707856879381 L 234.39716312056737 676.4846919955736 L 246.45390070921985 688.2423459977867 L 258.51063829787233 664.6993729251199 L 270.5673758865248 682.3496864625599 L 282.6241134751773 691.17484323128 L 294.6808510638298 673.4968646255994 L 306.73758865248226 686.7484323127997 L 318.79432624113474 660.2176318701586 L 330.8510638297872 680.1088159350793 L 342.9078014184397 640.2987827369974 L 354.9645390070922 670.1493913684988 L 367.02127659574467 610.4205090372557 L 379.07801418439715 655.2102545186278 L 391.13475177304963 565.6030984876429 L 403.1914893617021 632.8015492438215 L 415.2482269503546 498.3769826632239 L 427.3049645390071 599.1884913316119 L 439.36170212765956 649.5942456658059 L 451.41843971631204 674.797122832903 L 463.4751773049645 624.3637034304685 L 475.531914893617 662.1818517152342 L 487.5886524822695 586.5178900774622 L 499.64539007092196 643.2589450387311 L 511.70212765957444 529.7491700479528 L 523.7588652482269 614.8745850239764 L 535.8156028368794 444.5960900036887 L 547.8723404255319 572.2980450018443 L 559.9290780141844 636.1490225009221 L 571.9858156028369 668.0745112504611 L 584.0425531914893 684.0372556252305 L 596.0992907801418 652.0841018074511 L 608.1560283687943 676.0420509037256 L 620.2127659574468 688.0210254518628 L 632.2695035460993 664.0354112873479 L 644.3262411347517 682.0177056436739 L 656.3829787234042 691.008852821837 L 668.4397163120567 672.9988933972704 L 680.4964539007092 686.4994466986352 L 692.5531914893617 693.2497233493176 L 704.6099290780141 696.6248616746587 L 716.6666666666666 698.3124308373294 L 728.7234042553191 694.9096274437477 L 740.7801418439716 697.4548137218738 L 752.8368794326241 698.7274068609369 L 764.8936170212766 699.3637034304685 L 776.950354609929 698.0634452231649 L 789.0070921985815 699.0317226115825 L 801.063829787234 697.0675027665068 L 813.1205673758865 698.5337513832534 L 825.177304964539 695.5735890815197 L 837.2340425531914 697.7867945407598 L 849.2907801418439 698.89339727038 L 861.3475177304964 699.4466986351899 L 873.4042553191489 699.723349317595 L 885.4609929078014 699.8616746587975 L 897.5177304964539 699.557358908152 L 909.5744680851063 699.778679454076 L 921.6312056737588 699.889339727038 L 933.6879432624113 699.944669863519 L 945.7446808510638 699.9723349317595" /><text  class="poloto_text poloto_legend_text" alignment-baseline="middle" text-anchor="start" font-size="large" x="1875" y="350" >c(1005)</text><line  class="poloto_line poloto_legend_icon poloto5stroke poloto5legend" stroke="black" x1="1880" x2="1930" y1="331.25" y2="331.25" /><path  class="poloto_line poloto5stroke" fill="none" stroke="black" d=" M 150 616.562154186647 L 162.05673758865248 658.2810770933235 L 174.11347517730496 679.1405385466618 L 186.17021276595744 689.5702692733308 L 198.22695035460993 668.6831427517521 L 210.2836879432624 684.341571375876 L 222.3404255319149 692.1707856879381 L 234.39716312056737 676.4846919955736 L 246.45390070921985 688.2423459977867 L 258.51063829787233 664.6993729251199 L 270.5673758865248 682.3496864625599 L 282.6241134751773 691.17484323128 L 294.6808510638298 673.4968646255994 L 306.73758865248226 686.7484323127997 L 318.79432624113474 660.2176318701586 L 330.8510638297872 680.1088159350793 L 342.9078014184397 640.2987827369974 L 354.9645390070922 670.1493913684988 L 367.02127659574467 610.4205090372557 L 379.07801418439715 655.2102545186278 L 391.13475177304963 565.6030984876429 L 403.1914893617021 632.8015492438215 L 415.2482269503546 498.3769826632239 L 427.3049645390071 599.1884913316119 L 439.36170212765956 649.5942456658059 L 451.41843971631204 674.797122832903 L 463.4751773049645 624.3637034304685 L 475.531914893617 662.1818517152342 L 487.5886524822695 586.5178900774622 L 499.64539007092196 643.2589450387311 L 511.70212765957444 529.7491700479528 L 523.7588652482269 614.8745850239764 L 535.8156028368794 444.5960900036887 L 547.8723404255319 572.2980450018443 L 559.9290780141844 636.1490225009221 L 571.9858156028369 668.0745112504611 L 584.0425531914893 684.0372556252305 L 596.0992907801418 652.0841018074511 L 608.1560283687943 676.0420509037256 L 620.2127659574468 688.0210254518628 L 632.2695035460993 664.0354112873479 L 644.3262411347517 682.0177056436739 L 656.3829787234042 691.008852821837 L 668.4397163120567 672.9988933972704 L 680.4964539007092 686.4994466986352 L 692.5531914893617 693.2497233493176 L 704.6099290780141 696.6248616746587 L 716.6666666666666 698.3124308373294 L 728.7234042553191 694.9096274437477 L 740.7801418439716 697.4548137218738 L 752.8368794326241 698.7274068609369 L 764.8936170212766 699.3637034304685 L 776.950354609929 698.0634452231649 L 789.0070921985815 699.0317226115825 L 801.063829787234 697.0675027665068 L 813.1205673758865 698.5337513832534 L 825.177304964539 695.5735890815197 L 837.2340425531914 697.7867945407598 L 849.2907801418439 698.89339727038 L 861.3475177304964 699.4466986351899 L 873.4042553191489 699.723349317595 L 885.4609929078014 699.8616746587975 L 897.5177304964539 699.557358908152 L 909.5744680851063 699.778679454076 L 921.6312056737588 699.889339727038 L 933.6879432624113 699.944669863519 L 945.7446808510638 699.9723349317595" /><text  class="poloto_labels poloto_text poloto_title" alignment-baseline="start" text-anchor="middle" font-size="x-large" x="1000" y="37.5" >collatz</text><text  class="poloto_labels poloto_text poloto_xname" alignment-baseline="start" text-anchor="middle" font-size="x-large" x="1000" y="781.25" >x</text><text  class="poloto_labels poloto_text poloto_yname" alignment-baseline="start" text-anchor="middle" font-size="x-large" transform="rotate(-90,37.5,400)" x="37.5" y="400" >y</text><text  class="poloto_tick_labels poloto_text" alignment-baseline="middle" text-anchor="start" x="1100" y="70" ></text><line  class="poloto_axis_lines" stroke="black" x1="150" x2="150" y1="700" y2="705" /><line  class="poloto_tick_line" stroke="black" x1="150" x2="150" y1="700" y2="100" /><text  class="poloto_tick_labels poloto_text" alignment-baseline="start" text-anchor="middle" x="150" y="730" >0</text><line  class="poloto_axis_lines" stroke="black" x1="210.2836879432624" x2="210.2836879432624" y1="700" y2="705" /><line  class="poloto_tick_line" stroke="black" x1="210.2836879432624" x2="210.2836879432624" y1="700" y2="100" /><text  class="poloto_tick_labels poloto_text" alignment-baseline="start" text-anchor="middle" x="210.2836879432624" y="730" >5</text><line  class="poloto_axis_lines" stroke="black" x1="270.5673758865248" x2="270.5673758865248" y1="700" y2="705" /><line  class="poloto_tick_line" stroke="black" x1="270.5673758865248" x2="270.5673758865248" y1="700" y2="100" /><text  class="poloto_tick_labels poloto_text" alignment-baseline="start" text-anchor="middle" x="270.5673758865248" y="730" >10</text><line  class="poloto_axis_lines" stroke="black" x1="330.8510638297872" x2="330.8510638297872" y1="700" y2="705" /><line  class="poloto_tick_line" stroke="black" x1="330.8510638297872" x2="330.8510638297872" y1="700" y2="100" /><text  class="poloto_tick_labels poloto_text" alignment-baseline="start" text-anchor="middle" x="330.8510638297872" y="730" >15</text><line  class="poloto_axis_lines" stroke="black" x1="391.13475177304963" x2="391.13475177304963" y1="700" y2="705" /><line  class="poloto_tick_line" stroke="black" x1="391.13475177304963" x2="391.13475177304963" y1="700" y2="100" /><text  class="poloto_tick_labels poloto_text" alignment-baseline="start" text-anchor="middle" x="391.13475177304963" y="730" >20</text><line  class="poloto_axis_lines" stroke="black" x1="451.41843971631204" x2="451.41843971631204" y1="700" y2="705" /><line  class="poloto_tick_line" stroke="black" x1="451.41843971631204" x2="451.41843971631204" y1="700" y2="100" /><text  class="poloto_tick_labels poloto_text" alignment-baseline="start" text-anchor="middle" x="451.41843971631204" y="730" >25</text><line  class="poloto_axis_lines" stroke="black" x1="511.70212765957444" x2="511.70212765957444" y1="700" y2="705" /><line  class="poloto_tick_line" stroke="black" x1="511.70212765957444" x2="511.70212765957444" y1="700" y2="100" /><text  class="poloto_tick_labels poloto_text" alignment-baseline="start" text-anchor="middle" x="511.70212765957444" y="730" >30</text><line  class="poloto_axis_lines" stroke="black" x1="571.9858156028369" x2="571.9858156028369" y1="700" y2="705" /><line  class="poloto_tick_line" stroke="black" x1="571.9858156028369" x2="571.9858156028369" y1="700" y2="100" /><text  class="poloto_tick_labels poloto_text" alignment-baseline="start" text-anchor="middle" x="571.9858156028369" y="730" >35</text><line  class="poloto_axis_lines" stroke="black" x1="632.2695035460993" x2="632.2695035460993" y1="700" y2="705" /><line  class="poloto_tick_line" stroke="black" x1="632.2695035460993" x2="632.2695035460993" y1="700" y2="100" /><text  class="poloto_tick_labels poloto_text" alignment-baseline="start" text-anchor="middle" x="632.2695035460993" y="730" >40</text><line  class="poloto_axis_lines" stroke="black" x1="692.5531914893617" x2="692.5531914893617" y1="700" y2="705" /><line  class="poloto_tick_line" stroke="black" x1="692.5531914893617" x2="692.5531914893617" y1="700" y2="100" /><text  class="poloto_tick_labels poloto_text" alignment-baseline="start" text-anchor="middle" x="692.5531914893617" y="730" >45</text><line  class="poloto_axis_lines" stroke="black" x1="752.8368794326241" x2="752.8368794326241" y1="700" y2="705" /><line  class="poloto_tick_line" stroke="black" x1="752.8368794326241" x2="752.8368794326241" y1="700" y2="100" /><text  class="poloto_tick_labels poloto_text" alignment-baseline="start" text-anchor="middle" x="752.8368794326241" y="730" >50</text><line  class="poloto_axis_lines" stroke="black" x1="813.1205673758865" x2="813.1205673758865" y1="700" y2="705" /><line  class="poloto_tick_line" stroke="black" x1="813.1205673758865" x2="813.1205673758865" y1="700" y2="100" /><text  class="poloto_tick_labels poloto_text" alignment-baseline="start" text-anchor="middle" x="813.1205673758865" y="730" >55</text><line  class="poloto_axis_lines" stroke="black" x1="873.4042553191489" x2="873.4042553191489" y1="700" y2="705" /><line  class="poloto_tick_line" stroke="black" x1="873.4042553191489" x2="873.4042553191489" y1="700" y2="100" /><text  class="poloto_tick_labels poloto_text" alignment-baseline="start" text-anchor="middle" x="873.4042553191489" y="730" >60</text><line  class="poloto_axis_lines" stroke="black" x1="933.6879432624113" x2="933.6879432624113" y1="700" y2="705" /><line  class="poloto_tick_line" stroke="black" x1="933.6879432624113" x2="933.6879432624113" y1="700" y2="100" /><text  class="poloto_tick_labels poloto_text" alignment-baseline="start" text-anchor="middle" x="933.6879432624113" y="730" >65</text><line  class="poloto_axis_lines" stroke="black" x1="993.9716312056737" x2="993.9716312056737" y1="700" y2="705" /><line  class="poloto_tick_line" stroke="black" x1="993.9716312056737" x2="993.9716312056737" y1="700" y2="100" /><text  class="poloto_tick_labels poloto_text" alignment-baseline="start" text-anchor="middle" x="993.9716312056737" y="730" >70</text><line  class="poloto_axis_lines" stroke="black" x1="1054.255319148936" x2="1054.255319148936" y1="700" y2="705" /><line  class="poloto_tick_line" stroke="black" x1="1054.255319148936" x2="1054.255319148936" y1="700" y2="100" /><text  class="poloto_tick_labels poloto_text" alignment-baseline="start" text-anchor="middle" x="1054.255319148936" y="730" >75</text><line  class="poloto_axis_lines" stroke="black" x1="1114.5390070921985" x2="1114.5390070921985" y1="700" y2="705" /><line  class="poloto_tick_line" stroke="black" x1="1114.5390070921985" x2="1114.5390070921985" y1="700" y2="100" /><text  class="poloto_tick_labels poloto_text" alignment-baseline="start" text-anchor="middle" x="1114.5390070921985" y="730" >80</text><line  class="poloto_axis_lines" stroke="black" x1="1174.822695035461" x2="1174.822695035461" y1="700" y2="705" /><line  class="poloto_tick_line" stroke="black" x1="1174.822695035461" x2="1174.822695035461" y1="700" y2="100" /><text  class="poloto_tick_labels poloto_text" alignment-baseline="start" text-anchor="middle" x="1174.822695035461" y="730" >85</text><line  class="poloto_axis_lines" stroke="black" x1="1235.1063829787233" x2="1235.1063829787233" y1="700" y2="705" /><line  class="poloto_tick_line" stroke="black" x1="1235.1063829787233" x2="1235.1063829787233" y1="700" y2="100" /><text  class="poloto_tick_labels poloto_text" alignment-baseline="start" text-anchor="middle" x="1235.1063829787233" y="730" >90</text><line  class="poloto_axis_lines" stroke="black" x1="1295.3900709219856" x2="1295.3900709219856" y1="700" y2="705" /><line  class="poloto_tick_line" stroke="black" x1="1295.3900709219856" x2="1295.3900709219856" y1="700" y2="100" /><text  class="poloto_tick_labels poloto_text" alignment-baseline="start" text-anchor="middle" x="1295.3900709219856" y="730" >95</text><line  class="poloto_axis_lines" stroke="black" x1="1355.6737588652481" x2="1355.6737588652481" y1="700" y2="705" /><line  class="poloto_tick_line" stroke="black" x1="1355.6737588652481" x2="1355.6737588652481" y1="700" y2="100" /><text  class="poloto_tick_labels poloto_text" alignment-baseline="start" text-anchor="middle" x="1355.6737588652481" y="730" >100</text><line  class="poloto_axis_lines" stroke="black" x1="1415.9574468085107" x2="1415.9574468085107" y1="700" y2="705" /><line  class="poloto_tick_line" stroke="black" x1="1415.9574468085107" x2="1415.9574468085107" y1="700" y2="100" /><text  class="poloto_tick_labels poloto_text" alignment-baseline="start" text-anchor="middle" x="1415.9574468085107" y="730" >105</text><line  class="poloto_axis_lines" stroke="black" x1="1476.241134751773" x2="1476.241134751773" y1="700" y2="705" /><line  class="poloto_tick_line" stroke="black" x1="1476.241134751773" x2="1476.241134751773" y1="700" y2="100" /><text  class="poloto_tick_labels poloto_text" alignment-baseline="start" text-anchor="middle" x="1476.241134751773" y="730" >110</text><line  class="poloto_axis_lines" stroke="black" x1="1536.5248226950353" x2="1536.5248226950353" y1="700" y2="705" /><line  class="poloto_tick_line" stroke="black" x1="1536.5248226950353" x2="1536.5248226950353" y1="700" y2="100" /><text  class="poloto_tick_labels poloto_text" alignment-baseline="start" text-anchor="middle" x="1536.5248226950353" y="730" >115</text><line  class="poloto_axis_lines" stroke="black" x1="1596.8085106382978" x2="1596.8085106382978" y1="700" y2="705" /><line  class="poloto_tick_line" stroke="black" x1="1596.8085106382978" x2="1596.8085106382978" y1="700" y2="100" /><text  class="poloto_tick_labels poloto_text" alignment-baseline="start" text-anchor="middle" x="1596.8085106382978" y="730" >120</text><line  class="poloto_axis_lines" stroke="black" x1="1657.0921985815603" x2="1657.0921985815603" y1="700" y2="705" /><line  class="poloto_tick_line" stroke="black" x1="1657.0921985815603" x2="1657.0921985815603" y1="700" y2="100" /><text  class="poloto_tick_labels poloto_text" alignment-baseline="start" text-anchor="middle" x="1657.0921985815603" y="730" >125</text><line  class="poloto_axis_lines" stroke="black" x1="1717.3758865248226" x2="1717.3758865248226" y1="700" y2="705" /><line  class="poloto_tick_line" stroke="black" x1="1717.3758865248226" x2="1717.3758865248226" y1="700" y2="100" /><text  class="poloto_tick_labels poloto_text" alignment-baseline="start" text-anchor="middle" x="1717.3758865248226" y="730" >130</text><line  class="poloto_axis_lines" stroke="black" x1="1777.6595744680849" x2="1777.6595744680849" y1="700" y2="705" /><line  class="poloto_tick_line" stroke="black" x1="1777.6595744680849" x2="1777.6595744680849" y1="700" y2="100" /><text  class="poloto_tick_labels poloto_text" alignment-baseline="start" text-anchor="middle" x="1777.6595744680849" y="730" >135</text><line  class="poloto_axis_lines" stroke="black" x1="1837.9432624113474" x2="1837.9432624113474" y1="700" y2="705" /><line  class="poloto_tick_line" stroke="black" x1="1837.9432624113474" x2="1837.9432624113474" y1="700" y2="100" /><text  class="poloto_tick_labels poloto_text" alignment-baseline="start" text-anchor="middle" x="1837.9432624113474" y="730" >140</text><text  class="poloto_tick_labels poloto_text" alignment-baseline="middle" text-anchor="start" x="150" y="70" ></text><line  class="poloto_axis_lines" stroke="black" x1="150" x2="144" y1="700" y2="700" /><line  class="poloto_tick_line" stroke="black" x1="150" x2="1850" y1="700" y2="700" /><text  class="poloto_tick_labels poloto_text" alignment-baseline="middle" text-anchor="end" x="135" y="700" >0</text><line  class="poloto_axis_lines" stroke="black" x1="150" x2="144" y1="644.6698635189966" y2="644.6698635189966" /><line  class="poloto_tick_line" stroke="black" x1="150" x2="1850" y1="644.6698635189966" y2="644.6698635189966" /><text  class="poloto_tick_labels poloto_text" alignment-baseline="middle" text-anchor="end" x="135" y="644.6698635189966" >2000</text><line  class="poloto_axis_lines" stroke="black" x1="150" x2="144" y1="589.3397270379934" y2="589.3397270379934" /><line  class="poloto_tick_line" stroke="black" x1="150" x2="1850" y1="589.3397270379934" y2="589.3397270379934" /><text  class="poloto_tick_labels poloto_text" alignment-baseline="middle" text-anchor="end" x="135" y="589.3397270379934" >4000</text><line  class="poloto_axis_lines" stroke="black" x1="150" x2="144" y1="534.00959055699" y2="534.00959055699" /><line  class="poloto_tick_line" stroke="black" x1="150" x2="1850" y1="534.00959055699" y2="534.00959055699" /><text  class="poloto_tick_labels poloto_text" alignment-baseline="middle" text-anchor="end" x="135" y="534.00959055699" >6000</text><line  class="poloto_axis_lines" stroke="black" x1="150" x2="144" y1="478.67945407598677" y2="478.67945407598677" /><line  class="poloto_tick_line" stroke="black" x1="150" x2="1850" y1="478.67945407598677" y2="478.67945407598677" /><text  class="poloto_tick_labels poloto_text" alignment-baseline="middle" text-anchor="end" x="135" y="478.67945407598677" >8000</text><line  class="poloto_axis_lines" stroke="black" x1="150" x2="144" y1="423.3493175949834" y2="423.3493175949834" /><line  class="poloto_tick_line" stroke="black" x1="150" x2="1850" y1="423.3493175949834" y2="423.3493175949834" /><text  class="poloto_tick_labels poloto_text" alignment-baseline="middle" text-anchor="end" x="135" y="423.3493175949834" >10000</text><line  class="poloto_axis_lines" stroke="black" x1="150" x2="144" y1="368.01918111398004" y2="368.01918111398004" /><line  class="poloto_tick_line" stroke="black" x1="150" x2="1850" y1="368.01918111398004" y2="368.01918111398004" /><text  class="poloto_tick_labels poloto_text" alignment-baseline="middle" text-anchor="end" x="135" y="368.01918111398004" >12000</text><line  class="poloto_axis_lines" stroke="black" x1="150" x2="144" y1="312.68904463297673" y2="312.68904463297673" /><line  class="poloto_tick_line" stroke="black" x1="150" x2="1850" y1="312.68904463297673" y2="312.68904463297673" /><text  class="poloto_tick_labels poloto_text" alignment-baseline="middle" text-anchor="end" x="135" y="312.68904463297673" >14000</text><line  class="poloto_axis_lines" stroke="black" x1="150" x2="144" y1="257.3589081519734" y2="257.3589081519734" /><line  class="poloto_tick_line" stroke="black" x1="150" x2="1850" y1="257.3589081519734" y2="257.3589081519734" /><text  class="poloto_tick_labels poloto_text" alignment-baseline="middle" text-anchor="end" x="135" y="257.3589081519734" >16000</text><line  class="poloto_axis_lines" stroke="black" x1="150" x2="144" y1="202.02877167097012" y2="202.02877167097012" /><line  class="poloto_tick_line" stroke="black" x1="150" x2="1850" y1="202.02877167097012" y2="202.02877167097012" /><text  class="poloto_tick_labels poloto_text" alignment-baseline="middle" text-anchor="end" x="135" y="202.02877167097012" >18000</text><line  class="poloto_axis_lines" stroke="black" x1="150" x2="144" y1="146.6986351899668" y2="146.6986351899668" /><line  class="poloto_tick_line" stroke="black" x1="150" x2="1850" y1="146.6986351899668" y2="146.6986351899668" /><text  class="poloto_tick_labels poloto_text" alignment-baseline="middle" text-anchor="end" x="135" y="146.6986351899668" >20000</text><path  stroke="black" fill="none" class="poloto_axis_lines" style="stroke-dasharray:6.028368794326241;stroke-dashoffset:-0;" d=" M 150 700 L 1850 700" /><path  stroke="black" fill="none" class="poloto_axis_lines" style="stroke-dasharray:6.916267060125415;stroke-dashoffset:-0;" d=" M 150 700 L 150 100" /></svg>