<svg class="poloto" width="800" height="369.2307692307692" viewBox="0 0 1300 600" xmlns="http://www.w3.org/2000/svg"><style>.poloto { stroke-linecap:round; stroke-linejoin:round; font-family: Roboto,sans-serif ; font-size:16px; } .poloto_background{fill:#262626;} .poloto_scatter{stroke-width:7} .poloto_tick_line{stroke:dimgray;stroke-width:0.5} .poloto_line{stroke-width:2} .poloto_text{fill: white;} .poloto_axis_lines{stroke: white;stroke-width:3;fill:none;stroke-dasharray:none} .poloto_title{font-size:24px;dominant-baseline:start;text-anchor:middle;} .poloto_xname{font-size:24px;dominant-baseline:start;text-anchor:middle;} .poloto_yname{font-size:24px;dominant-baseline:start;text-anchor:middle;} .poloto0stroke{stroke:  blue;} .poloto1stroke{stroke:  red;} .poloto2stroke{stroke:  green;} .poloto3stroke{stroke:  gold;} .poloto4stroke{stroke:  aqua;} .poloto5stroke{stroke:  lime;} .poloto6stroke{stroke:  orange;} .poloto7stroke{stroke:  chocolate;} .poloto0fill{fill:blue;} .poloto1fill{fill:red;} .poloto2fill{fill:green;} .poloto3fill{fill:gold;} .poloto4fill{fill:aqua;} .poloto5fill{fill:lime;} .poloto6fill{fill:orange;} .poloto7fill{fill:chocolate;}.poloto_line{stroke-dasharray:2;stroke-width:2;}</style><circle  r="1e5" class="poloto_background" /><text  class="poloto_text poloto_legend_text" x="1175" y="100" >c(1000)</text><line  class="poloto_line poloto_legend_icon poloto0stroke poloto0legend" stroke="black" x1="1180" x2="1230" y1="81.25" y2="81.25" /><path  class="poloto_line poloto0stroke" fill="none" stroke="black" d=" M 150 490.77831058649946 L 157.0921985815603 495.3891552932497 L 164.18439716312056 497.69457764662485 L 171.27659574468086 493.06528956104756 L 178.36879432624113 496.5326447805238 L 185.46099290780143 498.2663223902619 L 192.5531914893617 499.1331611951309 L 199.645390070922 497.38104020656584 L 206.73758865248226 498.69052010328295 L 213.82978723404256 496.05311693102175 L 220.92198581560285 498.0265584655109 L 228.01418439716312 494.06123201770566 L 235.1063829787234 497.0306160088528 L 242.19858156028369 491.0734046477315 L 249.29078014184398 495.5367023238657 L 256.3829787234042 497.76835116193286 L 263.4751773049645 493.2866101069716 L 270.5673758865248 496.6433050534858 L 277.6595744680851 498.3216525267429 L 284.7517730496454 494.94651420140167 L 291.8439716312057 497.47325710070083 L 298.93617021276594 492.4013279232755 L 306.02836879432624 496.20066396163776 L 313.1205673758865 498.1003319808189 L 320.2127659574468 494.2825525636297 L 327.3049645390071 497.14127628181484 L 334.39716312056737 491.4053854666175 L 341.48936170212767 495.70269273330877 L 348.58156028368796 487.08963482109925 L 355.6737588652482 493.5448174105496 L 362.7659574468085 496.7724087052748 L 369.85815602836874 490.2987827369974 L 376.95035460992904 495.1493913684987 L 384.04255319148933 485.4297307266691 L 391.13475177304963 492.7148653633346 L 398.2269503546099 478.1261527111767 L 405.3191489361702 489.06307635558835 L 412.41134751773046 467.170785687938 L 419.50354609929076 483.58539284396903 L 426.59574468085106 491.7926964219845 L 433.68794326241135 475.35964588712653 L 440.7801418439716 487.67982294356324 L 447.8723404255319 493.83991147178165 L 454.9645390070922 496.9199557358908 L 462.0567375886525 490.7414238288454 L 469.1489361702127 495.3707119144227 L 476.241134751773 486.09369236444115 L 483.3333333333333 493.0468461822206 L 490.4255319148936 479.12209516783474 L 497.5177304964539 489.5610475839174 L 504.60992907801415 494.7805237919587 L 511.70212765957444 484.3231279970491 L 518.7943262411347 492.1615639985245 L 525.886524822695 476.4662486167466 L 532.9787234042553 488.2331243083733 L 540.0709219858156 494.1165621541866 L 547.1631205673759 482.33124308373294 L 554.2553191489362 491.16562154186647 L 561.3475177304964 473.4784212467724 L 568.4397163120567 486.7392106233862 L 575.531914893617 460.1991884913316 L 582.6241134751773 480.0995942456658 L 589.7163120567375 440.2803393581704 L 596.8085106382978 470.1401696790852 L 603.9007092198581 410.4020656584286 L 610.9929078014184 455.20103282921434 L 618.0851063829787 365.5846551088159 L 625.177304964539 432.79232755440796 L 632.2695035460993 466.396163777204 L 639.3617021276596 483.198081888602 L 646.4539007092199 449.57580228697896 L 653.5460992907801 474.7879011434895 L 660.6382978723404 424.34526005164145 L 667.7304964539006 462.17263002582075 L 674.8226950354609 386.4994466986352 L 681.9148936170212 443.2497233493176 L 689.0070921985815 329.7307266691258 L 696.0992907801418 414.86536333456286 L 703.1914893617021 457.43268166728143 L 710.2836879432624 478.71634083364074 L 717.3758865248227 489.35817041682037 L 724.468085106383 468.05606787163407 L 731.5602836879432 484.02803393581706 L 738.6524822695035 492.0140169679085 L 745.7446808510638 476.0236075248986 L 752.8368794326241 488.0118037624493 L 759.9290780141844 494.00590188122464 L 767.0212765957447 481.99926226484695 L 774.113475177305 490.9996311324235 L 781.2056737588653 495.49981556621174 L 788.2978723404254 497.74990778310587 L 795.3900709219857 498.87495389155293 L 802.482269503546 496.6064182958318 L 809.5744680851063 498.3032091479159 L 816.6666666666666 499.15160457395797 L 823.7588652482269 499.57580228697896 L 830.8510638297872 498.70896348210994 L 837.9432624113475 499.35448174105494 L 845.0354609929078 498.0450018443379 L 852.127659574468 499.02250092216894 L 859.2198581560283 497.04905938767985 L 866.3120567375886 498.5245296938399 L 873.4042553191489 499.26226484691995 L 880.4964539007092 499.63113242346 L 887.5886524822695 499.81556621173 L 894.6808510638298 499.907783105865 L 901.7730496453901 499.704905938768 L 908.8652482269503 499.852452969384 L 915.9574468085106 499.926226484692 L 923.0496453900709 499.963113242346 L 930.1418439716311 499.981556621173" /><text  class="poloto_text poloto_legend_text" x="1175" y="150" >c(1001)</text><line  class="poloto_line poloto_legend_icon poloto1stroke poloto1legend" stroke="black" x1="1180" x2="1230" y1="131.25" y2="131.25" /><path  class="poloto_line poloto1stroke" fill="none" stroke="black" d=" M 150 444.5960900036887 L 157.0921985815603 472.29804500184434 L 164.18439716312056 486.1490225009222 L 171.27659574468086 458.4286241239395 L 178.36879432624113 479.21431206196974 L 185.46099290780143 437.6244928070823 L 192.5531914893617 468.8122464035411 L 199.645390070922 406.4182958317964 L 206.73758865248226 453.2091479158982 L 213.82978723404256 359.60900036886756 L 220.92198581560285 429.8045001844338 L 228.01418439716312 464.9022500922169 L 235.1063829787234 394.6883068978237 L 242.19858156028369 447.3441534489118 L 249.29078014184398 342.01401696790856 L 256.3829787234042 421.0070084839543 L 263.4751773049645 263.0025820730358 L 270.5673758865248 381.5012910365179 L 277.6595744680851 144.48542973072665 L 284.7517730496454 322.2427148653633 L 291.8439716312057 411.12135743268163 L 298.93617021276594 233.34562891921803 L 306.02836879432624 366.672814459609 L 313.1205673758865 100 L 320.2127659574468 300 L 327.3049645390071 400 L 334.39716312056737 450 L 341.48936170212767 349.981556621173 L 348.58156028368796 424.9907783105865 L 355.6737588652482 274.95389155293253 L 362.7659574468085 387.47694577646627 L 369.85815602836874 162.41239395057175 L 376.95035460992904 331.2061969752859 L 384.04255319148933 415.6030984876429 L 391.13475177304963 457.80154924382146 L 398.2269503546099 478.9007746219107 L 405.3191489361702 489.45038731095536 L 412.41134751773046 494.7251936554777 L 419.50354609929076 497.36259682773886 L 426.59574468085106 492.0693471043895 L 433.68794326241135 496.03467355219476 L 440.7801418439716 488.0855772777573 L 447.8723404255319 494.0427886388786 L 454.9645390070922 482.1099225378089 L 462.0567375886525 491.05496126890444 L 469.1489361702127 473.1464404278864 L 476.241134751773 486.5732202139432 L 483.3333333333333 493.2866101069716 L 490.4255319148936 496.6433050534858 L 497.5177304964539 498.3216525267429 L 504.60992907801415 494.94651420140167 L 511.70212765957444 497.47325710070083 L 518.7943262411347 492.4013279232755 L 525.886524822695 496.20066396163776 L 532.9787234042553 498.1003319808189 L 540.0709219858156 494.2825525636297 L 547.1631205673759 497.14127628181484 L 554.2553191489362 491.4053854666175 L 561.3475177304964 495.70269273330877 L 568.4397163120567 487.08963482109925 L 575.531914893617 493.5448174105496 L 582.6241134751773 496.7724087052748 L 589.7163120567375 490.2987827369974 L 596.8085106382978 495.1493913684987 L 603.9007092198581 485.4297307266691 L 610.9929078014184 492.7148653633346 L 618.0851063829787 478.1261527111767 L 625.177304964539 489.06307635558835 L 632.2695035460993 467.170785687938 L 639.3617021276596 483.58539284396903 L 646.4539007092199 491.7926964219845 L 653.5460992907801 475.35964588712653 L 660.6382978723404 487.67982294356324 L 667.7304964539006 493.83991147178165 L 674.8226950354609 496.9199557358908 L 681.9148936170212 490.7414238288454 L 689.0070921985815 495.3707119144227 L 696.0992907801418 486.09369236444115 L 703.1914893617021 493.0468461822206 L 710.2836879432624 479.12209516783474 L 717.3758865248227 489.5610475839174 L 724.468085106383 494.7805237919587 L 731.5602836879432 484.3231279970491 L 738.6524822695035 492.1615639985245 L 745.7446808510638 476.4662486167466 L 752.8368794326241 488.2331243083733 L 759.9290780141844 494.1165621541866 L 767.0212765957447 482.33124308373294 L 774.113475177305 491.16562154186647 L 781.2056737588653 473.4784212467724 L 788.2978723404254 486.7392106233862 L 795.3900709219857 460.1991884913316 L 802.482269503546 480.0995942456658 L 809.5744680851063 440.2803393581704 L 816.6666666666666 470.1401696790852 L 823.7588652482269 410.4020656584286 L 830.8510638297872 455.20103282921434 L 837.9432624113475 365.5846551088159 L 845.0354609929078 432.79232755440796 L 852.127659574468 466.396163777204 L 859.2198581560283 483.198081888602 L 866.3120567375886 449.57580228697896 L 873.4042553191489 474.7879011434895 L 880.4964539007092 424.34526005164145 L 887.5886524822695 462.17263002582075 L 894.6808510638298 386.4994466986352 L 901.7730496453901 443.2497233493176 L 908.8652482269503 329.7307266691258 L 915.9574468085106 414.86536333456286 L 923.0496453900709 457.43268166728143 L 930.1418439716311 478.71634083364074 L 937.2340425531914 489.35817041682037 L 944.3262411347517 468.05606787163407 L 951.418439716312 484.02803393581706 L 958.5106382978723 492.0140169679085 L 965.6028368794326 476.0236075248986 L 972.6950354609928 488.0118037624493 L 979.7872340425531 494.00590188122464 L 986.8794326241134 481.99926226484695 L 993.9716312056737 490.9996311324235 L 1001.063829787234 495.49981556621174 L 1008.1560283687943 497.74990778310587 L 1015.2482269503546 498.87495389155293 L 1022.3404255319149 496.6064182958318 L 1029.432624113475 498.3032091479159 L 1036.5248226950353 499.15160457395797 L 1043.6170212765956 499.57580228697896 L 1050.7092198581558 498.70896348210994 L 1057.8014184397161 499.35448174105494 L 1064.8936170212764 498.0450018443379 L 1071.9858156028367 499.02250092216894 L 1079.078014184397 497.04905938767985 L 1086.1702127659573 498.5245296938399 L 1093.2624113475176 499.26226484691995 L 1100.354609929078 499.63113242346 L 1107.4468085106382 499.81556621173 L 1114.5390070921985 499.907783105865 L 1121.6312056737588 499.704905938768 L 1128.723404255319 499.852452969384 L 1135.8156028368794 499.926226484692 L 1142.9078014184397 499.963113242346 L 1150 499.981556621173" /><text  class="poloto_text poloto_legend_text" x="1175" y="200" >c(1002)</text><line  class="poloto_line poloto_legend_icon poloto2stroke poloto2legend" stroke="black" x1="1180" x2="1230" y1="181.25" y2="181.25" /><path  class="poloto_line poloto2stroke" fill="none" stroke="black" d=" M 150 490.75986720767247 L 157.0921985815603 472.2611582441903 L 164.18439716312056 486.1305791220952 L 171.27659574468086 493.06528956104756 L 178.36879432624113 496.5326447805238 L 185.46099290780143 498.2663223902619 L 192.5531914893617 499.1331611951309 L 199.645390070922 497.38104020656584 L 206.73758865248226 498.69052010328295 L 213.82978723404256 496.05311693102175 L 220.92198581560285 498.0265584655109 L 228.01418439716312 494.06123201770566 L 235.1063829787234 497.0306160088528 L 242.19858156028369 491.0734046477315 L 249.29078014184398 495.5367023238657 L 256.3829787234042 497.76835116193286 L 263.4751773049645 493.2866101069716 L 270.5673758865248 496.6433050534858 L 277.6595744680851 498.3216525267429 L 284.7517730496454 494.94651420140167 L 291.8439716312057 497.47325710070083 L 298.93617021276594 492.4013279232755 L 306.02836879432624 496.20066396163776 L 313.1205673758865 498.1003319808189 L 320.2127659574468 494.2825525636297 L 327.3049645390071 497.14127628181484 L 334.39716312056737 491.4053854666175 L 341.48936170212767 495.70269273330877 L 348.58156028368796 487.08963482109925 L 355.6737588652482 493.5448174105496 L 362.7659574468085 496.7724087052748 L 369.85815602836874 490.2987827369974 L 376.95035460992904 495.1493913684987 L 384.04255319148933 485.4297307266691 L 391.13475177304963 492.7148653633346 L 398.2269503546099 478.1261527111767 L 405.3191489361702 489.06307635558835 L 412.41134751773046 467.170785687938 L 419.50354609929076 483.58539284396903 L 426.59574468085106 491.7926964219845 L 433.68794326241135 475.35964588712653 L 440.7801418439716 487.67982294356324 L 447.8723404255319 493.83991147178165 L 454.9645390070922 496.9199557358908 L 462.0567375886525 490.7414238288454 L 469.1489361702127 495.3707119144227 L 476.241134751773 486.09369236444115 L 483.3333333333333 493.0468461822206 L 490.4255319148936 479.12209516783474 L 497.5177304964539 489.5610475839174 L 504.60992907801415 494.7805237919587 L 511.70212765957444 484.3231279970491 L 518.7943262411347 492.1615639985245 L 525.886524822695 476.4662486167466 L 532.9787234042553 488.2331243083733 L 540.0709219858156 494.1165621541866 L 547.1631205673759 482.33124308373294 L 554.2553191489362 491.16562154186647 L 561.3475177304964 473.4784212467724 L 568.4397163120567 486.7392106233862 L 575.531914893617 460.1991884913316 L 582.6241134751773 480.0995942456658 L 589.7163120567375 440.2803393581704 L 596.8085106382978 470.1401696790852 L 603.9007092198581 410.4020656584286 L 610.9929078014184 455.20103282921434 L 618.0851063829787 365.5846551088159 L 625.177304964539 432.79232755440796 L 632.2695035460993 466.396163777204 L 639.3617021276596 483.198081888602 L 646.4539007092199 449.57580228697896 L 653.5460992907801 474.7879011434895 L 660.6382978723404 424.34526005164145 L 667.7304964539006 462.17263002582075 L 674.8226950354609 386.4994466986352 L 681.9148936170212 443.2497233493176 L 689.0070921985815 329.7307266691258 L 696.0992907801418 414.86536333456286 L 703.1914893617021 457.43268166728143 L 710.2836879432624 478.71634083364074 L 717.3758865248227 489.35817041682037 L 724.468085106383 468.05606787163407 L 731.5602836879432 484.02803393581706 L 738.6524822695035 492.0140169679085 L 745.7446808510638 476.0236075248986 L 752.8368794326241 488.0118037624493 L 759.9290780141844 494.00590188122464 L 767.0212765957447 481.99926226484695 L 774.113475177305 490.9996311324235 L 781.2056737588653 495.49981556621174 L 788.2978723404254 497.74990778310587 L 795.3900709219857 498.87495389155293 L 802.482269503546 496.6064182958318 L 809.5744680851063 498.3032091479159 L 816.6666666666666 499.15160457395797 L 823.7588652482269 499.57580228697896 L 830.8510638297872 498.70896348210994 L 837.9432624113475 499.35448174105494 L 845.0354609929078 498.0450018443379 L 852.127659574468 499.02250092216894 L 859.2198581560283 497.04905938767985 L 866.3120567375886 498.5245296938399 L 873.4042553191489 499.26226484691995 L 880.4964539007092 499.63113242346 L 887.5886524822695 499.81556621173 L 894.6808510638298 499.907783105865 L 901.7730496453901 499.704905938768 L 908.8652482269503 499.852452969384 L 915.9574468085106 499.926226484692 L 923.0496453900709 499.963113242346 L 930.1418439716311 499.981556621173" /><text  class="poloto_text poloto_legend_text" x="1175" y="250" >c(1003)</text><line  class="poloto_line poloto_legend_icon poloto3stroke poloto3legend" stroke="black" x1="1180" x2="1230" y1="231.25" y2="231.25" /><path  class="poloto_line poloto3stroke" fill="none" stroke="black" d=" M 150 444.48542973072665 L 157.0921985815603 472.2427148653633 L 164.18439716312056 416.709701217263 L 171.27659574468086 458.3548506086315 L 178.36879432624113 479.17742530431576 L 185.46099290780143 437.51383253412024 L 192.5531914893617 468.75691626706015 L 199.645390070922 484.37845813353005 L 206.73758865248226 453.1169310217632 L 213.82978723404256 476.5584655108816 L 220.92198581560285 429.65695315381777 L 228.01418439716312 464.8284765769089 L 235.1063829787234 394.46698635189966 L 242.19858156028369 447.23349317594983 L 249.29078014184398 341.6820361490225 L 256.3829787234042 420.8410180745112 L 263.4751773049645 460.4205090372556 L 270.5673758865248 480.21025451862783 L 277.6595744680851 440.61232017705646 L 284.7517730496454 470.3061600885282 L 291.8439716312057 485.15308004426413 L 298.93617021276594 455.44079675396534 L 306.02836879432624 477.72039837698264 L 313.1205673758865 488.8601991884913 L 320.2127659574468 494.4300995942457 L 327.3049645390071 497.21504979712284 L 334.39716312056737 491.6267060125415 L 341.48936170212767 495.81335300627075 L 348.58156028368796 487.42161563998525 L 355.6737588652482 493.7108078199926 L 362.7659574468085 481.1139800811509 L 369.85815602836874 490.55699004057544 L 376.95035460992904 495.2784950202877 L 384.04255319148933 497.63924751014383 L 391.13475177304963 498.8196237550719 L 398.2269503546099 499.40981187753596 L 405.3191489361702 499.704905938768 L 412.41134751773046 499.852452969384 L 419.50354609929076 499.926226484692 L 426.59574468085106 499.963113242346 L 433.68794326241135 499.981556621173" /><text  class="poloto_text poloto_legend_text" x="1175" y="300" >c(1004)</text><line  class="poloto_line poloto_legend_icon poloto4stroke poloto4legend" stroke="black" x1="1180" x2="1230" y1="281.25" y2="281.25" /><path  class="poloto_line poloto4stroke" fill="none" stroke="black" d=" M 150 490.7414238288454 L 157.0921985815603 495.3707119144227 L 164.18439716312056 486.09369236444115 L 171.27659574468086 493.0468461822206 L 178.36879432624113 479.12209516783474 L 185.46099290780143 489.5610475839174 L 192.5531914893617 494.7805237919587 L 199.645390070922 484.3231279970491 L 206.73758865248226 492.1615639985245 L 213.82978723404256 476.4662486167466 L 220.92198581560285 488.2331243083733 L 228.01418439716312 494.1165621541866 L 235.1063829787234 482.33124308373294 L 242.19858156028369 491.16562154186647 L 249.29078014184398 473.4784212467724 L 256.3829787234042 486.7392106233862 L 263.4751773049645 460.1991884913316 L 270.5673758865248 480.0995942456658 L 277.6595744680851 440.2803393581704 L 284.7517730496454 470.1401696790852 L 291.8439716312057 410.4020656584286 L 298.93617021276594 455.20103282921434 L 306.02836879432624 365.5846551088159 L 313.1205673758865 432.79232755440796 L 320.2127659574468 466.396163777204 L 327.3049645390071 483.198081888602 L 334.39716312056737 449.57580228697896 L 341.48936170212767 474.7879011434895 L 348.58156028368796 424.34526005164145 L 355.6737588652482 462.17263002582075 L 362.7659574468085 386.4994466986352 L 369.85815602836874 443.2497233493176 L 376.95035460992904 329.7307266691258 L 384.04255319148933 414.86536333456286 L 391.13475177304963 457.43268166728143 L 398.2269503546099 478.71634083364074 L 405.3191489361702 489.35817041682037 L 412.41134751773046 468.05606787163407 L 419.50354609929076 484.02803393581706 L 426.59574468085106 492.0140169679085 L 433.68794326241135 476.0236075248986 L 440.7801418439716 488.0118037624493 L 447.8723404255319 494.00590188122464 L 454.9645390070922 481.99926226484695 L 462.0567375886525 490.9996311324235 L 469.1489361702127 495.49981556621174 L 476.241134751773 497.74990778310587 L 483.3333333333333 498.87495389155293 L 490.4255319148936 496.6064182958318 L 497.5177304964539 498.3032091479159 L 504.60992907801415 499.15160457395797 L 511.70212765957444 499.57580228697896 L 518.7943262411347 498.70896348210994 L 525.886524822695 499.35448174105494 L 532.9787234042553 498.0450018443379 L 540.0709219858156 499.02250092216894 L 547.1631205673759 497.04905938767985 L 554.2553191489362 498.5245296938399 L 561.3475177304964 499.26226484691995 L 568.4397163120567 499.63113242346 L 575.531914893617 499.81556621173 L 582.6241134751773 499.907783105865 L 589.7163120567375 499.704905938768 L 596.8085106382978 499.852452969384 L 603.9007092198581 499.926226484692 L 610.9929078014184 499.963113242346 L 618.0851063829787 499.981556621173" /><text  class="poloto_text poloto_legend_text" x="1175" y="350" >c(1005)</text><line  class="poloto_line poloto_legend_icon poloto5stroke poloto5legend" stroke="black" x1="1180" x2="1230" y1="331.25" y2="331.25" /><path  class="poloto_line poloto5stroke" fill="none" stroke="black" d=" M 150 444.37476945776467 L 157.0921985815603 472.1873847288823 L 164.18439716312056 486.09369236444115 L 171.27659574468086 493.0468461822206 L 178.36879432624113 479.12209516783474 L 185.46099290780143 489.5610475839174 L 192.5531914893617 494.7805237919587 L 199.645390070922 484.3231279970491 L 206.73758865248226 492.1615639985245 L 213.82978723404256 476.4662486167466 L 220.92198581560285 488.2331243083733 L 228.01418439716312 494.1165621541866 L 235.1063829787234 482.33124308373294 L 242.19858156028369 491.16562154186647 L 249.29078014184398 473.4784212467724 L 256.3829787234042 486.7392106233862 L 263.4751773049645 460.1991884913316 L 270.5673758865248 480.0995942456658 L 277.6595744680851 440.2803393581704 L 284.7517730496454 470.1401696790852 L 291.8439716312057 410.4020656584286 L 298.93617021276594 455.20103282921434 L 306.02836879432624 365.5846551088159 L 313.1205673758865 432.79232755440796 L 320.2127659574468 466.396163777204 L 327.3049645390071 483.198081888602 L 334.39716312056737 449.57580228697896 L 341.48936170212767 474.7879011434895 L 348.58156028368796 424.34526005164145 L 355.6737588652482 462.17263002582075 L 362.7659574468085 386.4994466986352 L 369.85815602836874 443.2497233493176 L 376.95035460992904 329.7307266691258 L 384.04255319148933 414.86536333456286 L 391.13475177304963 457.43268166728143 L 398.2269503546099 478.71634083364074 L 405.3191489361702 489.35817041682037 L 412.41134751773046 468.05606787163407 L 419.50354609929076 484.02803393581706 L 426.59574468085106 492.0140169679085 L 433.68794326241135 476.0236075248986 L 440.7801418439716 488.0118037624493 L 447.8723404255319 494.00590188122464 L 454.9645390070922 481.99926226484695 L 462.0567375886525 490.9996311324235 L 469.1489361702127 495.49981556621174 L 476.241134751773 497.74990778310587 L 483.3333333333333 498.87495389155293 L 490.4255319148936 496.6064182958318 L 497.5177304964539 498.3032091479159 L 504.60992907801415 499.15160457395797 L 511.70212765957444 499.57580228697896 L 518.7943262411347 498.70896348210994 L 525.886524822695 499.35448174105494 L 532.9787234042553 498.0450018443379 L 540.0709219858156 499.02250092216894 L 547.1631205673759 497.04905938767985 L 554.2553191489362 498.5245296938399 L 561.3475177304964 499.26226484691995 L 568.4397163120567 499.63113242346 L 575.531914893617 499.81556621173 L 582.6241134751773 499.907783105865 L 589.7163120567375 499.704905938768 L 596.8085106382978 499.852452969384 L 603.9007092198581 499.926226484692 L 610.9929078014184 499.963113242346 L 618.0851063829787 499.981556621173" /><text  class="poloto_labels poloto_text poloto_title" x="650" y="37.5" >collatz</text><text  class="poloto_labels poloto_text poloto_xname" x="650" y="581.25" >x</text><text  class="poloto_labels poloto_text poloto_yname" transform="rotate(-90,37.5,300)" x="37.5" y="300" >y</text><text  class="poloto_tick_labels poloto_text" dominant-baseline="middle" text-anchor="start" x="715.0000000000001" y="70" ></text><line  class="poloto_axis_lines" stroke="black" x1="150" x2="150" y1="500" y2="505" /><line  class="poloto_tick_line" stroke="black" x1="150" x2="150" y1="500" y2="100" /><text  class="poloto_tick_labels poloto_text" dominant-baseline="start" text-anchor="middle" x="150" y="530" >0</text><line  class="poloto_axis_lines" stroke="black" x1="220.92198581560285" x2="220.92198581560285" y1="500" y2="505" /><line  class="poloto_tick_line" stroke="black" x1="220.92198581560285" x2="220.92198581560285" y1="500" y2="100" /><text  class="poloto_tick_labels poloto_text" dominant-baseline="start" text-anchor="middle" x="220.92198581560285" y="530" >10</text><line  class="poloto_axis_lines" stroke="black" x1="291.8439716312057" x2="291.8439716312057" y1="500" y2="505" /><line  class="poloto_tick_line" stroke="black" x1="291.8439716312057" x2="291.8439716312057" y1="500" y2="100" /><text  class="poloto_tick_labels poloto_text" dominant-baseline="start" text-anchor="middle" x="291.8439716312057" y="530" >20</text><line  class="poloto_axis_lines" stroke="black" x1="362.7659574468085" x2="362.7659574468085" y1="500" y2="505" /><line  class="poloto_tick_line" stroke="black" x1="362.7659574468085" x2="362.7659574468085" y1="500" y2="100" /><text  class="poloto_tick_labels poloto_text" dominant-baseline="start" text-anchor="middle" x="362.7659574468085" y="530" >30</text><line  class="poloto_axis_lines" stroke="black" x1="433.68794326241135" x2="433.68794326241135" y1="500" y2="505" /><line  class="poloto_tick_line" stroke="black" x1="433.68794326241135" x2="433.68794326241135" y1="500" y2="100" /><text  class="poloto_tick_labels poloto_text" dominant-baseline="start" text-anchor="middle" x="433.68794326241135" y="530" >40</text><line  class="poloto_axis_lines" stroke="black" x1="504.60992907801415" x2="504.60992907801415" y1="500" y2="505" /><line  class="poloto_tick_line" stroke="black" x1="504.60992907801415" x2="504.60992907801415" y1="500" y2="100" /><text  class="poloto_tick_labels poloto_text" dominant-baseline="start" text-anchor="middle" x="504.60992907801415" y="530" >50</text><line  class="poloto_axis_lines" stroke="black" x1="575.531914893617" x2="575.531914893617" y1="500" y2="505" /><line  class="poloto_tick_line" stroke="black" x1="575.531914893617" x2="575.531914893617" y1="500" y2="100" /><text  class="poloto_tick_labels poloto_text" dominant-baseline="start" text-anchor="middle" x="575.531914893617" y="530" >60</text><line  class="poloto_axis_lines" stroke="black" x1="646.4539007092199" x2="646.4539007092199" y1="500" y2="505" /><line  class="poloto_tick_line" stroke="black" x1="646.4539007092199" x2="646.4539007092199" y1="500" y2="100" /><text  class="poloto_tick_labels poloto_text" dominant-baseline="start" text-anchor="middle" x="646.4539007092199" y="530" >70</text><line  class="poloto_axis_lines" stroke="black" x1="717.3758865248227" x2="717.3758865248227" y1="500" y2="505" /><line  class="poloto_tick_line" stroke="black" x1="717.3758865248227" x2="717.3758865248227" y1="500" y2="100" /><text  class="poloto_tick_labels poloto_text" dominant-baseline="start" text-anchor="middle" x="717.3758865248227" y="530" >80</text><line  class="poloto_axis_lines" stroke="black" x1="788.2978723404254" x2="788.2978723404254" y1="500" y2="505" /><line  class="poloto_tick_line" stroke="black" x1="788.2978723404254" x2="788.2978723404254" y1="500" y2="100" /><text  class="poloto_tick_labels poloto_text" dominant-baseline="start" text-anchor="middle" x="788.2978723404254" y="530" >90</text><line  class="poloto_axis_lines" stroke="black" x1="859.2198581560283" x2="859.2198581560283" y1="500" y2="505" /><line  class="poloto_tick_line" stroke="black" x1="859.2198581560283" x2="859.2198581560283" y1="500" y2="100" /><text  class="poloto_tick_labels poloto_text" dominant-baseline="start" text-anchor="middle" x="859.2198581560283" y="530" >100</text><line  class="poloto_axis_lines" stroke="black" x1="930.1418439716311" x2="930.1418439716311" y1="500" y2="505" /><line  class="poloto_tick_line" stroke="black" x1="930.1418439716311" x2="930.1418439716311" y1="500" y2="100" /><text  class="poloto_tick_labels poloto_text" dominant-baseline="start" text-anchor="middle" x="930.1418439716311" y="530" >110</text><line  class="poloto_axis_lines" stroke="black" x1="1001.063829787234" x2="1001.063829787234" y1="500" y2="505" /><line  class="poloto_tick_line" stroke="black" x1="1001.063829787234" x2="1001.063829787234" y1="500" y2="100" /><text  class="poloto_tick_labels poloto_text" dominant-baseline="start" text-anchor="middle" x="1001.063829787234" y="530" >120</text><line  class="poloto_axis_lines" stroke="black" x1="1071.9858156028367" x2="1071.9858156028367" y1="500" y2="505" /><line  class="poloto_tick_line" stroke="black" x1="1071.9858156028367" x2="1071.9858156028367" y1="500" y2="100" /><text  class="poloto_tick_labels poloto_text" dominant-baseline="start" text-anchor="middle" x="1071.9858156028367" y="530" >130</text><line  class="poloto_axis_lines" stroke="black" x1="1142.9078014184397" x2="1142.9078014184397" y1="500" y2="505" /><line  class="poloto_tick_line" stroke="black" x1="1142.9078014184397" x2="1142.9078014184397" y1="500" y2="100" /><text  class="poloto_tick_labels poloto_text" dominant-baseline="start" text-anchor="middle" x="1142.9078014184397" y="530" >140</text><text  class="poloto_tick_labels poloto_text" dominant-baseline="middle" text-anchor="start" x="150" y="70" ></text><line  class="poloto_axis_lines" stroke="black" x1="150" x2="144" y1="500" y2="500" /><line  class="poloto_tick_line" stroke="black" x1="150" x2="1150" y1="500" y2="500" /><text  class="poloto_tick_labels poloto_text" dominant-baseline="middle" text-anchor="end" x="135" y="500" >0</text><line  class="poloto_axis_lines" stroke="black" x1="150" x2="144" y1="407.78310586499447" y2="407.78310586499447" /><line  class="poloto_tick_line" stroke="black" x1="150" x2="1150" y1="407.78310586499447" y2="407.78310586499447" /><text  class="poloto_tick_labels poloto_text" dominant-baseline="middle" text-anchor="end" x="135" y="407.78310586499447" >5000</text><line  class="poloto_axis_lines" stroke="black" x1="150" x2="144" y1="315.56621172998894" y2="315.56621172998894" /><line  class="poloto_tick_line" stroke="black" x1="150" x2="1150" y1="315.56621172998894" y2="315.56621172998894" /><text  class="poloto_tick_labels poloto_text" dominant-baseline="middle" text-anchor="end" x="135" y="315.56621172998894" >10000</text><line  class="poloto_axis_lines" stroke="black" x1="150" x2="144" y1="223.3493175949834" y2="223.3493175949834" /><line  class="poloto_tick_line" stroke="black" x1="150" x2="1150" y1="223.3493175949834" y2="223.3493175949834" /><text  class="poloto_tick_labels poloto_text" dominant-baseline="middle" text-anchor="end" x="135" y="223.3493175949834" >15000</text><line  class="poloto_axis_lines" stroke="black" x1="150" x2="144" y1="131.13242345997787" y2="131.13242345997787" /><line  class="poloto_tick_line" stroke="black" x1="150" x2="1150" y1="131.13242345997787" y2="131.13242345997787" /><text  class="poloto_tick_labels poloto_text" dominant-baseline="middle" text-anchor="end" x="135" y="131.13242345997787" >20000</text><path  stroke="black" fill="none" class="poloto_axis_lines" style="stroke-dasharray:7.092198581560284;stroke-dashoffset:-0;" d=" M 150 500 L 1150 500" /><path  stroke="black" fill="none" class="poloto_axis_lines" style="stroke-dasharray:9.221689413500552;stroke-dashoffset:-0;" d=" M 150 500 L 150 100" /></svg>