<svg class="poloto" width="800" height="500" viewBox="0 0 800 500" xmlns="http://www.w3.org/2000/svg">
	<style>
.poloto{
  stroke-linecap:round;
  stroke-linejoin:round;
  font-family:Roboto,sans-serif;
  font-size:16px;
}
.poloto_background{fill:AliceBlue;}
.poloto_scatter{stroke-width:7}
.poloto_tick_line{stroke:gray;stroke-width:0.5}
.poloto_line{stroke-width:2}
.poloto_text{fill: black;}
.poloto_axis_lines{stroke: black;stroke-width:3;fill:none;stroke-dasharray:none}
.poloto_title{font-size:24px;dominant-baseline:start;text-anchor:middle;}
.poloto_xname{font-size:24px;dominant-baseline:start;text-anchor:middle;}
.poloto_yname{font-size:24px;dominant-baseline:start;text-anchor:middle;}
.poloto_legend_text{font-size:20px;dominant-baseline:middle;text-anchor:start;}
.poloto0stroke{stroke:blue;}
.poloto1stroke{stroke:red;}
.poloto2stroke{stroke:green;}
.poloto3stroke{stroke:gold;}
.poloto4stroke{stroke:aqua;}
.poloto5stroke{stroke:lime;}
.poloto6stroke{stroke:orange;}
.poloto7stroke{stroke:chocolate;}
.poloto0fill{fill:blue;}
.poloto1fill{fill:red;}
.poloto2fill{fill:green;}
.poloto3fill{fill:gold;}
.poloto4fill{fill:aqua;}
.poloto5fill{fill:lime;}
.poloto6fill{fill:orange;}
.poloto7fill{fill:chocolate;}
	</style>
	<circle r="1e5" class="poloto_background"/>
	<g class="poloto_histo poloto0fill">
		<rect x="150.00" y="400.00" width="17.833333333333343" height="0"/>
		<rect x="170.83" y="400.00" width="17.833333333333314" height="0"/>
		<rect x="191.67" y="400.00" width="17.833333333333343" height="0"/>
		<rect x="212.50" y="400.00" width="17.833333333333314" height="0"/>
		<rect x="233.33" y="400.00" width="17.833333333333343" height="0"/>
		<rect x="254.17" y="387.14" width="17.833333333333343" height="12.857142857142833"/>
		<rect x="275.00" y="378.57" width="17.833333333333314" height="21.428571428571445"/>
		<rect x="295.83" y="378.57" width="17.833333333333314" height="21.428571428571445"/>
		<rect x="316.67" y="357.14" width="17.83333333333337" height="42.85714285714283"/>
		<rect x="337.50" y="314.29" width="17.833333333333314" height="85.71428571428572"/>
		<rect x="358.33" y="185.71" width="17.833333333333314" height="214.28571428571428"/>
		<rect x="379.17" y="142.86" width="17.83333333333337" height="257.1428571428571"/>
		<rect x="400.00" y="100.00" width="17.833333333333314" height="300"/>
		<rect x="420.83" y="185.71" width="17.833333333333314" height="214.28571428571428"/>
		<rect x="441.67" y="228.57" width="17.83333333333337" height="171.42857142857142"/>
		<rect x="462.50" y="254.29" width="17.833333333333314" height="145.71428571428572"/>
		<rect x="483.33" y="254.29" width="17.833333333333314" height="145.71428571428572"/>
		<rect x="504.17" y="314.29" width="17.83333333333337" height="85.71428571428572"/>
		<rect x="525.00" y="357.14" width="17.833333333333258" height="42.85714285714283"/>
		<rect x="545.83" y="314.29" width="17.83333333333337" height="85.71428571428572"/>
		<rect x="566.67" y="357.14" width="17.83333333333337" height="42.85714285714283"/>
		<rect x="587.50" y="382.86" width="17.833333333333258" height="17.142857142857167"/>
		<rect x="608.33" y="391.43" width="17.83333333333337" height="8.571428571428555"/>
	</g>
	<text class="poloto_labels poloto_text poloto_title" x="400.00" y="37.50">title</text>
	<text class="poloto_labels poloto_text poloto_xname" x="400.00" y="481.25">x</text>
	<text class="poloto_labels poloto_text poloto_yname" transform="rotate(-90,37.50,250.00)" x="37.50" y="250.00">y</text>
	<g class="poloto_tick_labels poloto_text" dominant-baseline="middle" text-anchor="end">
		<text x="135.00" y="400.00">0</text>
		<text x="135.00" y="314.29">20</text>
		<text x="135.00" y="228.57">40</text>
		<text x="135.00" y="142.86">60</text>
	</g>
	<g class="poloto_axis_lines" stroke="black">
		<line x1="150.00" x2="144.00" y1="400.00" y2="400.00"/>
		<line x1="150.00" x2="144.00" y1="314.29" y2="314.29"/>
		<line x1="150.00" x2="144.00" y1="228.57" y2="228.57"/>
		<line x1="150.00" x2="144.00" y1="142.86" y2="142.86"/>
	</g>
	<g class="poloto_tick_labels poloto_text" dominant-baseline="start" text-anchor="middle">
		<text x="150.00" y="430.00">0 hr</text>
		<text x="275.00" y="430.00">6 hr</text>
		<text x="400.00" y="430.00">12 hr</text>
		<text x="525.00" y="430.00">18 hr</text>
		<text x="650.00" y="430.00">24 hr</text>
	</g>
	<g class="poloto_axis_lines" stroke="black">
		<line x1="150.00" x2="150.00" y1="400.00" y2="405.00"/>
		<line x1="275.00" x2="275.00" y1="400.00" y2="405.00"/>
		<line x1="400.00" x2="400.00" y1="400.00" y2="405.00"/>
		<line x1="525.00" x2="525.00" y1="400.00" y2="405.00"/>
		<line x1="650.00" x2="650.00" y1="400.00" y2="405.00"/>
	</g>
	<path stroke="black" fill="none" class="poloto_axis_lines" d=" M 150.00 400.00 L 650.00 400.00"/>
	<path stroke="black" fill="none" class="poloto_axis_lines" style="stroke-dasharray:10.714285714285714;stroke-dashoffset:-0;" d=" M 150.00 400.00 L 150.00 100.00"/>
</svg>
