<svg class="poloto" width="2000" height="1000" viewBox="0 0 2000 1000" xmlns="http://www.w3.org/2000/svg"><style>.poloto { stroke-linecap:round; stroke-linejoin:round; font-family: Roboto,sans-serif ; font-size:16px; } .poloto_background{fill:#262626;} .poloto_scatter{stroke-width:7} .poloto_tick_line{stroke:dimgray;stroke-width:0.5} .poloto_line{stroke-width:2} .poloto_text{fill: white;} .poloto_axis_lines{stroke: white;stroke-width:3;fill:none;stroke-dasharray:none} .poloto_title{font-size:24px;dominant-baseline:start;text-anchor:middle;} .poloto_xname{font-size:24px;dominant-baseline:start;text-anchor:middle;} .poloto_yname{font-size:24px;dominant-baseline:start;text-anchor:middle;} .poloto0stroke{stroke:  blue;} .poloto1stroke{stroke:  red;} .poloto2stroke{stroke:  green;} .poloto3stroke{stroke:  gold;} .poloto4stroke{stroke:  aqua;} .poloto5stroke{stroke:  lime;} .poloto6stroke{stroke:  orange;} .poloto7stroke{stroke:  chocolate;} .poloto0fill{fill:blue;} .poloto1fill{fill:red;} .poloto2fill{fill:green;} .poloto3fill{fill:gold;} .poloto4fill{fill:aqua;} .poloto5fill{fill:lime;} .poloto6fill{fill:orange;} .poloto7fill{fill:chocolate;}.poloto_line{stroke-dasharray:2;stroke-width:1;}</style><circle  r="1e5" class="poloto_background" /><text  class="poloto_text poloto_legend_text" x="1875" y="100" >c(1000)</text><line  class="poloto_line poloto_legend_icon poloto0stroke poloto0legend" stroke="black" x1="1880" x2="1930" y1="81.25" y2="81.25" /><path  class="poloto_line poloto0stroke" fill="none" stroke="black" d=" M 150 881.5566211729989 L 162.05673758865248 890.7783105864994 L 174.11347517730496 895.3891552932497 L 186.17021276595744 886.1305791220951 L 198.22695035460993 893.0652895610476 L 210.2836879432624 896.5326447805238 L 222.3404255319149 898.2663223902618 L 234.39716312056737 894.7620804131317 L 246.45390070921985 897.3810402065659 L 258.51063829787233 892.1062338620435 L 270.5673758865248 896.0531169310218 L 282.6241134751773 888.1224640354113 L 294.6808510638298 894.0612320177056 L 306.73758865248226 882.146809295463 L 318.79432624113474 891.0734046477314 L 330.8510638297872 895.5367023238657 L 342.9078014184397 886.5732202139432 L 354.9645390070922 893.2866101069716 L 367.02127659574467 896.6433050534858 L 379.07801418439715 889.8930284028033 L 391.13475177304963 894.9465142014017 L 403.1914893617021 884.802655846551 L 415.2482269503546 892.4013279232755 L 427.3049645390071 896.2006639616378 L 439.36170212765956 888.5651051272594 L 451.41843971631204 894.2825525636297 L 463.4751773049645 882.810770933235 L 475.531914893617 891.4053854666175 L 487.5886524822695 874.1792696421985 L 499.64539007092196 887.0896348210993 L 511.70212765957444 893.5448174105496 L 523.7588652482269 880.5975654739948 L 535.8156028368794 890.2987827369974 L 547.8723404255319 870.8594614533382 L 559.9290780141844 885.4297307266692 L 571.9858156028369 856.2523054223534 L 584.0425531914893 878.1261527111767 L 596.0992907801418 834.341571375876 L 608.1560283687943 867.1707856879381 L 620.2127659574468 883.585392843969 L 632.2695035460993 850.7192917742531 L 644.3262411347517 875.3596458871265 L 656.3829787234042 887.6798229435633 L 668.4397163120567 893.8399114717816 L 680.4964539007092 881.4828476576909 L 692.5531914893617 890.7414238288454 L 704.6099290780141 872.1873847288823 L 716.6666666666666 886.0936923644412 L 728.7234042553191 858.2441903356695 L 740.7801418439716 879.1220951678348 L 752.8368794326241 889.5610475839173 L 764.8936170212766 868.6462559940982 L 776.950354609929 884.323127997049 L 789.0070921985815 852.9324972334932 L 801.063829787234 876.4662486167466 L 813.1205673758865 888.2331243083732 L 825.177304964539 864.6624861674659 L 837.2340425531914 882.3312430837329 L 849.2907801418439 846.9568424935449 L 861.3475177304964 873.4784212467724 L 873.4042553191489 820.3983769826632 L 885.4609929078014 860.1991884913316 L 897.5177304964539 780.5606787163408 L 909.5744680851063 840.2803393581704 L 921.6312056737588 720.8041313168573 L 933.6879432624113 810.4020656584287 L 945.7446808510638 631.1693102176318 L 957.8014184397163 765.5846551088159 L 969.8581560283687 832.792327554408 L 981.9148936170212 866.396163777204 L 993.9716312056737 799.1516045739579 L 1006.0283687943262 849.575802286979 L 1018.0851063829787 748.6905201032829 L 1030.1418439716313 824.3452600516415 L 1042.1985815602836 672.9988933972704 L 1054.255319148936 786.4994466986352 L 1066.3120567375886 559.4614533382515 L 1078.3687943262412 729.7307266691257 L 1090.4255319148936 814.8653633345629 L 1102.482269503546 857.4326816672815 L 1114.5390070921985 878.7163408336407 L 1126.595744680851 836.1121357432681 L 1138.6524822695035 868.0560678716341 L 1150.7092198581558 884.028033935817 L 1162.7659574468084 852.0472150497972 L 1174.822695035461 876.0236075248986 L 1186.8794326241134 888.0118037624493 L 1198.9361702127658 863.9985245296939 L 1210.9929078014184 881.999262264847 L 1223.049645390071 890.9996311324235 L 1235.1063829787233 895.4998155662117 L 1247.1631205673757 897.7499077831059 L 1259.2198581560283 893.2128365916636 L 1271.276595744681 896.6064182958318 L 1283.3333333333333 898.3032091479159 L 1295.3900709219856 899.1516045739579 L 1307.4468085106382 897.4179269642199 L 1319.5035460992908 898.7089634821099 L 1331.5602836879432 896.0900036886758 L 1343.6170212765956 898.0450018443379 L 1355.6737588652481 894.0981187753597 L 1367.7304964539007 897.0490593876798 L 1379.787234042553 898.5245296938399 L 1391.8439716312055 899.26226484692 L 1403.900709219858 899.63113242346 L 1415.9574468085107 899.81556621173 L 1428.014184397163 899.409811877536 L 1440.0709219858154 899.704905938768 L 1452.127659574468 899.852452969384 L 1464.1843971631206 899.926226484692 L 1476.241134751773 899.963113242346" /><text  class="poloto_text poloto_legend_text" x="1875" y="150" >c(1001)</text><line  class="poloto_line poloto_legend_icon poloto1stroke poloto1legend" stroke="black" x1="1880" x2="1930" y1="131.25" y2="131.25" /><path  class="poloto_line poloto1stroke" fill="none" stroke="black" d=" M 150 789.1921800073774 L 162.05673758865248 844.5960900036887 L 174.11347517730496 872.2980450018443 L 186.17021276595744 816.857248247879 L 198.22695035460993 858.4286241239395 L 210.2836879432624 775.2489856141646 L 222.3404255319149 837.6244928070822 L 234.39716312056737 712.8365916635928 L 246.45390070921985 806.4182958317964 L 258.51063829787233 619.2180007377351 L 270.5673758865248 759.6090003688676 L 282.6241134751773 829.8045001844338 L 294.6808510638298 689.3766137956474 L 306.73758865248226 794.6883068978236 L 318.79432624113474 584.0280339358171 L 330.8510638297872 742.0140169679086 L 342.9078014184397 426.0051641460716 L 354.9645390070922 663.0025820730358 L 367.02127659574467 188.9708594614533 L 379.07801418439715 544.4854297307267 L 391.13475177304963 722.2427148653633 L 403.1914893617021 366.69125783843606 L 415.2482269503546 633.345628919218 L 427.3049645390071 100 L 439.36170212765956 500 L 451.41843971631204 700 L 463.4751773049645 800 L 475.531914893617 599.963113242346 L 487.5886524822695 749.981556621173 L 499.64539007092196 449.907783105865 L 511.70212765957444 674.9538915529325 L 523.7588652482269 224.8247879011435 L 535.8156028368794 562.4123939505718 L 547.8723404255319 731.2061969752858 L 559.9290780141844 815.6030984876429 L 571.9858156028369 857.8015492438215 L 584.0425531914893 878.9007746219107 L 596.0992907801418 889.4503873109554 L 608.1560283687943 894.7251936554777 L 620.2127659574468 884.138694208779 L 632.2695035460993 892.0693471043895 L 644.3262411347517 876.1711545555146 L 656.3829787234042 888.0855772777572 L 668.4397163120567 864.2198450756179 L 680.4964539007092 882.1099225378089 L 692.5531914893617 846.2928808557728 L 704.6099290780141 873.1464404278864 L 716.6666666666666 886.5732202139432 L 728.7234042553191 893.2866101069716 L 740.7801418439716 896.6433050534858 L 752.8368794326241 889.8930284028033 L 764.8936170212766 894.9465142014017 L 776.950354609929 884.802655846551 L 789.0070921985815 892.4013279232755 L 801.063829787234 896.2006639616378 L 813.1205673758865 888.5651051272594 L 825.177304964539 894.2825525636297 L 837.2340425531914 882.810770933235 L 849.2907801418439 891.4053854666175 L 861.3475177304964 874.1792696421985 L 873.4042553191489 887.0896348210993 L 885.4609929078014 893.5448174105496 L 897.5177304964539 880.5975654739948 L 909.5744680851063 890.2987827369974 L 921.6312056737588 870.8594614533382 L 933.6879432624113 885.4297307266692 L 945.7446808510638 856.2523054223534 L 957.8014184397163 878.1261527111767 L 969.8581560283687 834.341571375876 L 981.9148936170212 867.1707856879381 L 993.9716312056737 883.585392843969 L 1006.0283687943262 850.7192917742531 L 1018.0851063829787 875.3596458871265 L 1030.1418439716313 887.6798229435633 L 1042.1985815602836 893.8399114717816 L 1054.255319148936 881.4828476576909 L 1066.3120567375886 890.7414238288454 L 1078.3687943262412 872.1873847288823 L 1090.4255319148936 886.0936923644412 L 1102.482269503546 858.2441903356695 L 1114.5390070921985 879.1220951678348 L 1126.595744680851 889.5610475839173 L 1138.6524822695035 868.6462559940982 L 1150.7092198581558 884.323127997049 L 1162.7659574468084 852.9324972334932 L 1174.822695035461 876.4662486167466 L 1186.8794326241134 888.2331243083732 L 1198.9361702127658 864.6624861674659 L 1210.9929078014184 882.3312430837329 L 1223.049645390071 846.9568424935449 L 1235.1063829787233 873.4784212467724 L 1247.1631205673757 820.3983769826632 L 1259.2198581560283 860.1991884913316 L 1271.276595744681 780.5606787163408 L 1283.3333333333333 840.2803393581704 L 1295.3900709219856 720.8041313168573 L 1307.4468085106382 810.4020656584287 L 1319.5035460992908 631.1693102176318 L 1331.5602836879432 765.5846551088159 L 1343.6170212765956 832.792327554408 L 1355.6737588652481 866.396163777204 L 1367.7304964539007 799.1516045739579 L 1379.787234042553 849.575802286979 L 1391.8439716312055 748.6905201032829 L 1403.900709219858 824.3452600516415 L 1415.9574468085107 672.9988933972704 L 1428.014184397163 786.4994466986352 L 1440.0709219858154 559.4614533382515 L 1452.127659574468 729.7307266691257 L 1464.1843971631206 814.8653633345629 L 1476.241134751773 857.4326816672815 L 1488.2978723404253 878.7163408336407 L 1500.354609929078 836.1121357432681 L 1512.4113475177305 868.0560678716341 L 1524.468085106383 884.028033935817 L 1536.5248226950353 852.0472150497972 L 1548.5815602836878 876.0236075248986 L 1560.6382978723404 888.0118037624493 L 1572.6950354609928 863.9985245296939 L 1584.7517730496452 881.999262264847 L 1596.8085106382978 890.9996311324235 L 1608.8652482269504 895.4998155662117 L 1620.9219858156027 897.7499077831059 L 1632.978723404255 893.2128365916636 L 1645.0354609929077 896.6064182958318 L 1657.0921985815603 898.3032091479159 L 1669.1489361702127 899.1516045739579 L 1681.205673758865 897.4179269642199 L 1693.2624113475176 898.7089634821099 L 1705.3191489361702 896.0900036886758 L 1717.3758865248226 898.0450018443379 L 1729.432624113475 894.0981187753597 L 1741.4893617021276 897.0490593876798 L 1753.5460992907801 898.5245296938399 L 1765.6028368794325 899.26226484692 L 1777.6595744680849 899.63113242346 L 1789.7163120567375 899.81556621173 L 1801.77304964539 899.409811877536 L 1813.8297872340424 899.704905938768 L 1825.8865248226948 899.852452969384 L 1837.9432624113474 899.926226484692 L 1850 899.963113242346" /><text  class="poloto_text poloto_legend_text" x="1875" y="200" >c(1002)</text><line  class="poloto_line poloto_legend_icon poloto2stroke poloto2legend" stroke="black" x1="1880" x2="1930" y1="181.25" y2="181.25" /><path  class="poloto_line poloto2stroke" fill="none" stroke="black" d=" M 150 881.5197344153449 L 162.05673758865248 844.5223164883806 L 174.11347517730496 872.2611582441904 L 186.17021276595744 886.1305791220951 L 198.22695035460993 893.0652895610476 L 210.2836879432624 896.5326447805238 L 222.3404255319149 898.2663223902618 L 234.39716312056737 894.7620804131317 L 246.45390070921985 897.3810402065659 L 258.51063829787233 892.1062338620435 L 270.5673758865248 896.0531169310218 L 282.6241134751773 888.1224640354113 L 294.6808510638298 894.0612320177056 L 306.73758865248226 882.146809295463 L 318.79432624113474 891.0734046477314 L 330.8510638297872 895.5367023238657 L 342.9078014184397 886.5732202139432 L 354.9645390070922 893.2866101069716 L 367.02127659574467 896.6433050534858 L 379.07801418439715 889.8930284028033 L 391.13475177304963 894.9465142014017 L 403.1914893617021 884.802655846551 L 415.2482269503546 892.4013279232755 L 427.3049645390071 896.2006639616378 L 439.36170212765956 888.5651051272594 L 451.41843971631204 894.2825525636297 L 463.4751773049645 882.810770933235 L 475.531914893617 891.4053854666175 L 487.5886524822695 874.1792696421985 L 499.64539007092196 887.0896348210993 L 511.70212765957444 893.5448174105496 L 523.7588652482269 880.5975654739948 L 535.8156028368794 890.2987827369974 L 547.8723404255319 870.8594614533382 L 559.9290780141844 885.4297307266692 L 571.9858156028369 856.2523054223534 L 584.0425531914893 878.1261527111767 L 596.0992907801418 834.341571375876 L 608.1560283687943 867.1707856879381 L 620.2127659574468 883.585392843969 L 632.2695035460993 850.7192917742531 L 644.3262411347517 875.3596458871265 L 656.3829787234042 887.6798229435633 L 668.4397163120567 893.8399114717816 L 680.4964539007092 881.4828476576909 L 692.5531914893617 890.7414238288454 L 704.6099290780141 872.1873847288823 L 716.6666666666666 886.0936923644412 L 728.7234042553191 858.2441903356695 L 740.7801418439716 879.1220951678348 L 752.8368794326241 889.5610475839173 L 764.8936170212766 868.6462559940982 L 776.950354609929 884.323127997049 L 789.0070921985815 852.9324972334932 L 801.063829787234 876.4662486167466 L 813.1205673758865 888.2331243083732 L 825.177304964539 864.6624861674659 L 837.2340425531914 882.3312430837329 L 849.2907801418439 846.9568424935449 L 861.3475177304964 873.4784212467724 L 873.4042553191489 820.3983769826632 L 885.4609929078014 860.1991884913316 L 897.5177304964539 780.5606787163408 L 909.5744680851063 840.2803393581704 L 921.6312056737588 720.8041313168573 L 933.6879432624113 810.4020656584287 L 945.7446808510638 631.1693102176318 L 957.8014184397163 765.5846551088159 L 969.8581560283687 832.792327554408 L 981.9148936170212 866.396163777204 L 993.9716312056737 799.1516045739579 L 1006.0283687943262 849.575802286979 L 1018.0851063829787 748.6905201032829 L 1030.1418439716313 824.3452600516415 L 1042.1985815602836 672.9988933972704 L 1054.255319148936 786.4994466986352 L 1066.3120567375886 559.4614533382515 L 1078.3687943262412 729.7307266691257 L 1090.4255319148936 814.8653633345629 L 1102.482269503546 857.4326816672815 L 1114.5390070921985 878.7163408336407 L 1126.595744680851 836.1121357432681 L 1138.6524822695035 868.0560678716341 L 1150.7092198581558 884.028033935817 L 1162.7659574468084 852.0472150497972 L 1174.822695035461 876.0236075248986 L 1186.8794326241134 888.0118037624493 L 1198.9361702127658 863.9985245296939 L 1210.9929078014184 881.999262264847 L 1223.049645390071 890.9996311324235 L 1235.1063829787233 895.4998155662117 L 1247.1631205673757 897.7499077831059 L 1259.2198581560283 893.2128365916636 L 1271.276595744681 896.6064182958318 L 1283.3333333333333 898.3032091479159 L 1295.3900709219856 899.1516045739579 L 1307.4468085106382 897.4179269642199 L 1319.5035460992908 898.7089634821099 L 1331.5602836879432 896.0900036886758 L 1343.6170212765956 898.0450018443379 L 1355.6737588652481 894.0981187753597 L 1367.7304964539007 897.0490593876798 L 1379.787234042553 898.5245296938399 L 1391.8439716312055 899.26226484692 L 1403.900709219858 899.63113242346 L 1415.9574468085107 899.81556621173 L 1428.014184397163 899.409811877536 L 1440.0709219858154 899.704905938768 L 1452.127659574468 899.852452969384 L 1464.1843971631206 899.926226484692 L 1476.241134751773 899.963113242346" /><text  class="poloto_text poloto_legend_text" x="1875" y="250" >c(1003)</text><line  class="poloto_line poloto_legend_icon poloto3stroke poloto3legend" stroke="black" x1="1880" x2="1930" y1="231.25" y2="231.25" /><path  class="poloto_line poloto3stroke" fill="none" stroke="black" d=" M 150 788.9708594614533 L 162.05673758865248 844.4854297307267 L 174.11347517730496 733.419402434526 L 186.17021276595744 816.709701217263 L 198.22695035460993 858.3548506086315 L 210.2836879432624 775.0276650682405 L 222.3404255319149 837.5138325341203 L 234.39716312056737 868.7569162670601 L 246.45390070921985 806.2338620435264 L 258.51063829787233 853.1169310217632 L 270.5673758865248 759.3139063076355 L 282.6241134751773 829.6569531538178 L 294.6808510638298 688.9339727037993 L 306.73758865248226 794.4669863518997 L 318.79432624113474 583.364072298045 L 330.8510638297872 741.6820361490225 L 342.9078014184397 820.8410180745112 L 354.9645390070922 860.4205090372557 L 367.02127659574467 781.2246403541129 L 379.07801418439715 840.6123201770564 L 391.13475177304963 870.3061600885283 L 403.1914893617021 810.8815935079307 L 415.2482269503546 855.4407967539653 L 427.3049645390071 877.7203983769826 L 439.36170212765956 888.8601991884914 L 451.41843971631204 894.4300995942457 L 463.4751773049645 883.253412025083 L 475.531914893617 891.6267060125415 L 487.5886524822695 874.8432312799705 L 499.64539007092196 887.4216156399852 L 511.70212765957444 862.2279601623018 L 523.7588652482269 881.1139800811509 L 535.8156028368794 890.5569900405754 L 547.8723404255319 895.2784950202877 L 559.9290780141844 897.6392475101438 L 571.9858156028369 898.8196237550719 L 584.0425531914893 899.409811877536 L 596.0992907801418 899.704905938768 L 608.1560283687943 899.852452969384 L 620.2127659574468 899.926226484692 L 632.2695035460993 899.963113242346" /><text  class="poloto_text poloto_legend_text" x="1875" y="300" >c(1004)</text><line  class="poloto_line poloto_legend_icon poloto4stroke poloto4legend" stroke="black" x1="1880" x2="1930" y1="281.25" y2="281.25" /><path  class="poloto_line poloto4stroke" fill="none" stroke="black" d=" M 150 881.4828476576909 L 162.05673758865248 890.7414238288454 L 174.11347517730496 872.1873847288823 L 186.17021276595744 886.0936923644412 L 198.22695035460993 858.2441903356695 L 210.2836879432624 879.1220951678348 L 222.3404255319149 889.5610475839173 L 234.39716312056737 868.6462559940982 L 246.45390070921985 884.323127997049 L 258.51063829787233 852.9324972334932 L 270.5673758865248 876.4662486167466 L 282.6241134751773 888.2331243083732 L 294.6808510638298 864.6624861674659 L 306.73758865248226 882.3312430837329 L 318.79432624113474 846.9568424935449 L 330.8510638297872 873.4784212467724 L 342.9078014184397 820.3983769826632 L 354.9645390070922 860.1991884913316 L 367.02127659574467 780.5606787163408 L 379.07801418439715 840.2803393581704 L 391.13475177304963 720.8041313168573 L 403.1914893617021 810.4020656584287 L 415.2482269503546 631.1693102176318 L 427.3049645390071 765.5846551088159 L 439.36170212765956 832.792327554408 L 451.41843971631204 866.396163777204 L 463.4751773049645 799.1516045739579 L 475.531914893617 849.575802286979 L 487.5886524822695 748.6905201032829 L 499.64539007092196 824.3452600516415 L 511.70212765957444 672.9988933972704 L 523.7588652482269 786.4994466986352 L 535.8156028368794 559.4614533382515 L 547.8723404255319 729.7307266691257 L 559.9290780141844 814.8653633345629 L 571.9858156028369 857.4326816672815 L 584.0425531914893 878.7163408336407 L 596.0992907801418 836.1121357432681 L 608.1560283687943 868.0560678716341 L 620.2127659574468 884.028033935817 L 632.2695035460993 852.0472150497972 L 644.3262411347517 876.0236075248986 L 656.3829787234042 888.0118037624493 L 668.4397163120567 863.9985245296939 L 680.4964539007092 881.999262264847 L 692.5531914893617 890.9996311324235 L 704.6099290780141 895.4998155662117 L 716.6666666666666 897.7499077831059 L 728.7234042553191 893.2128365916636 L 740.7801418439716 896.6064182958318 L 752.8368794326241 898.3032091479159 L 764.8936170212766 899.1516045739579 L 776.950354609929 897.4179269642199 L 789.0070921985815 898.7089634821099 L 801.063829787234 896.0900036886758 L 813.1205673758865 898.0450018443379 L 825.177304964539 894.0981187753597 L 837.2340425531914 897.0490593876798 L 849.2907801418439 898.5245296938399 L 861.3475177304964 899.26226484692 L 873.4042553191489 899.63113242346 L 885.4609929078014 899.81556621173 L 897.5177304964539 899.409811877536 L 909.5744680851063 899.704905938768 L 921.6312056737588 899.852452969384 L 933.6879432624113 899.926226484692 L 945.7446808510638 899.963113242346" /><text  class="poloto_text poloto_legend_text" x="1875" y="350" >c(1005)</text><line  class="poloto_line poloto_legend_icon poloto5stroke poloto5legend" stroke="black" x1="1880" x2="1930" y1="331.25" y2="331.25" /><path  class="poloto_line poloto5stroke" fill="none" stroke="black" d=" M 150 788.7495389155293 L 162.05673758865248 844.3747694577646 L 174.11347517730496 872.1873847288823 L 186.17021276595744 886.0936923644412 L 198.22695035460993 858.2441903356695 L 210.2836879432624 879.1220951678348 L 222.3404255319149 889.5610475839173 L 234.39716312056737 868.6462559940982 L 246.45390070921985 884.323127997049 L 258.51063829787233 852.9324972334932 L 270.5673758865248 876.4662486167466 L 282.6241134751773 888.2331243083732 L 294.6808510638298 864.6624861674659 L 306.73758865248226 882.3312430837329 L 318.79432624113474 846.9568424935449 L 330.8510638297872 873.4784212467724 L 342.9078014184397 820.3983769826632 L 354.9645390070922 860.1991884913316 L 367.02127659574467 780.5606787163408 L 379.07801418439715 840.2803393581704 L 391.13475177304963 720.8041313168573 L 403.1914893617021 810.4020656584287 L 415.2482269503546 631.1693102176318 L 427.3049645390071 765.5846551088159 L 439.36170212765956 832.792327554408 L 451.41843971631204 866.396163777204 L 463.4751773049645 799.1516045739579 L 475.531914893617 849.575802286979 L 487.5886524822695 748.6905201032829 L 499.64539007092196 824.3452600516415 L 511.70212765957444 672.9988933972704 L 523.7588652482269 786.4994466986352 L 535.8156028368794 559.4614533382515 L 547.8723404255319 729.7307266691257 L 559.9290780141844 814.8653633345629 L 571.9858156028369 857.4326816672815 L 584.0425531914893 878.7163408336407 L 596.0992907801418 836.1121357432681 L 608.1560283687943 868.0560678716341 L 620.2127659574468 884.028033935817 L 632.2695035460993 852.0472150497972 L 644.3262411347517 876.0236075248986 L 656.3829787234042 888.0118037624493 L 668.4397163120567 863.9985245296939 L 680.4964539007092 881.999262264847 L 692.5531914893617 890.9996311324235 L 704.6099290780141 895.4998155662117 L 716.6666666666666 897.7499077831059 L 728.7234042553191 893.2128365916636 L 740.7801418439716 896.6064182958318 L 752.8368794326241 898.3032091479159 L 764.8936170212766 899.1516045739579 L 776.950354609929 897.4179269642199 L 789.0070921985815 898.7089634821099 L 801.063829787234 896.0900036886758 L 813.1205673758865 898.0450018443379 L 825.177304964539 894.0981187753597 L 837.2340425531914 897.0490593876798 L 849.2907801418439 898.5245296938399 L 861.3475177304964 899.26226484692 L 873.4042553191489 899.63113242346 L 885.4609929078014 899.81556621173 L 897.5177304964539 899.409811877536 L 909.5744680851063 899.704905938768 L 921.6312056737588 899.852452969384 L 933.6879432624113 899.926226484692 L 945.7446808510638 899.963113242346" /><text  class="poloto_labels poloto_text poloto_title" x="1000" y="37.5" >collatz</text><text  class="poloto_labels poloto_text poloto_xname" x="1000" y="981.25" >x</text><text  class="poloto_labels poloto_text poloto_yname" transform="rotate(-90,37.5,500)" x="37.5" y="500" >y</text><text  class="poloto_tick_labels poloto_text" dominant-baseline="middle" text-anchor="start" x="1100" y="70" ></text><line  class="poloto_axis_lines" stroke="black" x1="150" x2="150" y1="900" y2="905" /><line  class="poloto_tick_line" stroke="black" x1="150" x2="150" y1="900" y2="100" /><text  class="poloto_tick_labels poloto_text" dominant-baseline="start" text-anchor="middle" x="150" y="930" >0</text><line  class="poloto_axis_lines" stroke="black" x1="210.2836879432624" x2="210.2836879432624" y1="900" y2="905" /><line  class="poloto_tick_line" stroke="black" x1="210.2836879432624" x2="210.2836879432624" y1="900" y2="100" /><text  class="poloto_tick_labels poloto_text" dominant-baseline="start" text-anchor="middle" x="210.2836879432624" y="930" >5</text><line  class="poloto_axis_lines" stroke="black" x1="270.5673758865248" x2="270.5673758865248" y1="900" y2="905" /><line  class="poloto_tick_line" stroke="black" x1="270.5673758865248" x2="270.5673758865248" y1="900" y2="100" /><text  class="poloto_tick_labels poloto_text" dominant-baseline="start" text-anchor="middle" x="270.5673758865248" y="930" >10</text><line  class="poloto_axis_lines" stroke="black" x1="330.8510638297872" x2="330.8510638297872" y1="900" y2="905" /><line  class="poloto_tick_line" stroke="black" x1="330.8510638297872" x2="330.8510638297872" y1="900" y2="100" /><text  class="poloto_tick_labels poloto_text" dominant-baseline="start" text-anchor="middle" x="330.8510638297872" y="930" >15</text><line  class="poloto_axis_lines" stroke="black" x1="391.13475177304963" x2="391.13475177304963" y1="900" y2="905" /><line  class="poloto_tick_line" stroke="black" x1="391.13475177304963" x2="391.13475177304963" y1="900" y2="100" /><text  class="poloto_tick_labels poloto_text" dominant-baseline="start" text-anchor="middle" x="391.13475177304963" y="930" >20</text><line  class="poloto_axis_lines" stroke="black" x1="451.41843971631204" x2="451.41843971631204" y1="900" y2="905" /><line  class="poloto_tick_line" stroke="black" x1="451.41843971631204" x2="451.41843971631204" y1="900" y2="100" /><text  class="poloto_tick_labels poloto_text" dominant-baseline="start" text-anchor="middle" x="451.41843971631204" y="930" >25</text><line  class="poloto_axis_lines" stroke="black" x1="511.70212765957444" x2="511.70212765957444" y1="900" y2="905" /><line  class="poloto_tick_line" stroke="black" x1="511.70212765957444" x2="511.70212765957444" y1="900" y2="100" /><text  class="poloto_tick_labels poloto_text" dominant-baseline="start" text-anchor="middle" x="511.70212765957444" y="930" >30</text><line  class="poloto_axis_lines" stroke="black" x1="571.9858156028369" x2="571.9858156028369" y1="900" y2="905" /><line  class="poloto_tick_line" stroke="black" x1="571.9858156028369" x2="571.9858156028369" y1="900" y2="100" /><text  class="poloto_tick_labels poloto_text" dominant-baseline="start" text-anchor="middle" x="571.9858156028369" y="930" >35</text><line  class="poloto_axis_lines" stroke="black" x1="632.2695035460993" x2="632.2695035460993" y1="900" y2="905" /><line  class="poloto_tick_line" stroke="black" x1="632.2695035460993" x2="632.2695035460993" y1="900" y2="100" /><text  class="poloto_tick_labels poloto_text" dominant-baseline="start" text-anchor="middle" x="632.2695035460993" y="930" >40</text><line  class="poloto_axis_lines" stroke="black" x1="692.5531914893617" x2="692.5531914893617" y1="900" y2="905" /><line  class="poloto_tick_line" stroke="black" x1="692.5531914893617" x2="692.5531914893617" y1="900" y2="100" /><text  class="poloto_tick_labels poloto_text" dominant-baseline="start" text-anchor="middle" x="692.5531914893617" y="930" >45</text><line  class="poloto_axis_lines" stroke="black" x1="752.8368794326241" x2="752.8368794326241" y1="900" y2="905" /><line  class="poloto_tick_line" stroke="black" x1="752.8368794326241" x2="752.8368794326241" y1="900" y2="100" /><text  class="poloto_tick_labels poloto_text" dominant-baseline="start" text-anchor="middle" x="752.8368794326241" y="930" >50</text><line  class="poloto_axis_lines" stroke="black" x1="813.1205673758865" x2="813.1205673758865" y1="900" y2="905" /><line  class="poloto_tick_line" stroke="black" x1="813.1205673758865" x2="813.1205673758865" y1="900" y2="100" /><text  class="poloto_tick_labels poloto_text" dominant-baseline="start" text-anchor="middle" x="813.1205673758865" y="930" >55</text><line  class="poloto_axis_lines" stroke="black" x1="873.4042553191489" x2="873.4042553191489" y1="900" y2="905" /><line  class="poloto_tick_line" stroke="black" x1="873.4042553191489" x2="873.4042553191489" y1="900" y2="100" /><text  class="poloto_tick_labels poloto_text" dominant-baseline="start" text-anchor="middle" x="873.4042553191489" y="930" >60</text><line  class="poloto_axis_lines" stroke="black" x1="933.6879432624113" x2="933.6879432624113" y1="900" y2="905" /><line  class="poloto_tick_line" stroke="black" x1="933.6879432624113" x2="933.6879432624113" y1="900" y2="100" /><text  class="poloto_tick_labels poloto_text" dominant-baseline="start" text-anchor="middle" x="933.6879432624113" y="930" >65</text><line  class="poloto_axis_lines" stroke="black" x1="993.9716312056737" x2="993.9716312056737" y1="900" y2="905" /><line  class="poloto_tick_line" stroke="black" x1="993.9716312056737" x2="993.9716312056737" y1="900" y2="100" /><text  class="poloto_tick_labels poloto_text" dominant-baseline="start" text-anchor="middle" x="993.9716312056737" y="930" >70</text><line  class="poloto_axis_lines" stroke="black" x1="1054.255319148936" x2="1054.255319148936" y1="900" y2="905" /><line  class="poloto_tick_line" stroke="black" x1="1054.255319148936" x2="1054.255319148936" y1="900" y2="100" /><text  class="poloto_tick_labels poloto_text" dominant-baseline="start" text-anchor="middle" x="1054.255319148936" y="930" >75</text><line  class="poloto_axis_lines" stroke="black" x1="1114.5390070921985" x2="1114.5390070921985" y1="900" y2="905" /><line  class="poloto_tick_line" stroke="black" x1="1114.5390070921985" x2="1114.5390070921985" y1="900" y2="100" /><text  class="poloto_tick_labels poloto_text" dominant-baseline="start" text-anchor="middle" x="1114.5390070921985" y="930" >80</text><line  class="poloto_axis_lines" stroke="black" x1="1174.822695035461" x2="1174.822695035461" y1="900" y2="905" /><line  class="poloto_tick_line" stroke="black" x1="1174.822695035461" x2="1174.822695035461" y1="900" y2="100" /><text  class="poloto_tick_labels poloto_text" dominant-baseline="start" text-anchor="middle" x="1174.822695035461" y="930" >85</text><line  class="poloto_axis_lines" stroke="black" x1="1235.1063829787233" x2="1235.1063829787233" y1="900" y2="905" /><line  class="poloto_tick_line" stroke="black" x1="1235.1063829787233" x2="1235.1063829787233" y1="900" y2="100" /><text  class="poloto_tick_labels poloto_text" dominant-baseline="start" text-anchor="middle" x="1235.1063829787233" y="930" >90</text><line  class="poloto_axis_lines" stroke="black" x1="1295.3900709219856" x2="1295.3900709219856" y1="900" y2="905" /><line  class="poloto_tick_line" stroke="black" x1="1295.3900709219856" x2="1295.3900709219856" y1="900" y2="100" /><text  class="poloto_tick_labels poloto_text" dominant-baseline="start" text-anchor="middle" x="1295.3900709219856" y="930" >95</text><line  class="poloto_axis_lines" stroke="black" x1="1355.6737588652481" x2="1355.6737588652481" y1="900" y2="905" /><line  class="poloto_tick_line" stroke="black" x1="1355.6737588652481" x2="1355.6737588652481" y1="900" y2="100" /><text  class="poloto_tick_labels poloto_text" dominant-baseline="start" text-anchor="middle" x="1355.6737588652481" y="930" >100</text><line  class="poloto_axis_lines" stroke="black" x1="1415.9574468085107" x2="1415.9574468085107" y1="900" y2="905" /><line  class="poloto_tick_line" stroke="black" x1="1415.9574468085107" x2="1415.9574468085107" y1="900" y2="100" /><text  class="poloto_tick_labels poloto_text" dominant-baseline="start" text-anchor="middle" x="1415.9574468085107" y="930" >105</text><line  class="poloto_axis_lines" stroke="black" x1="1476.241134751773" x2="1476.241134751773" y1="900" y2="905" /><line  class="poloto_tick_line" stroke="black" x1="1476.241134751773" x2="1476.241134751773" y1="900" y2="100" /><text  class="poloto_tick_labels poloto_text" dominant-baseline="start" text-anchor="middle" x="1476.241134751773" y="930" >110</text><line  class="poloto_axis_lines" stroke="black" x1="1536.5248226950353" x2="1536.5248226950353" y1="900" y2="905" /><line  class="poloto_tick_line" stroke="black" x1="1536.5248226950353" x2="1536.5248226950353" y1="900" y2="100" /><text  class="poloto_tick_labels poloto_text" dominant-baseline="start" text-anchor="middle" x="1536.5248226950353" y="930" >115</text><line  class="poloto_axis_lines" stroke="black" x1="1596.8085106382978" x2="1596.8085106382978" y1="900" y2="905" /><line  class="poloto_tick_line" stroke="black" x1="1596.8085106382978" x2="1596.8085106382978" y1="900" y2="100" /><text  class="poloto_tick_labels poloto_text" dominant-baseline="start" text-anchor="middle" x="1596.8085106382978" y="930" >120</text><line  class="poloto_axis_lines" stroke="black" x1="1657.0921985815603" x2="1657.0921985815603" y1="900" y2="905" /><line  class="poloto_tick_line" stroke="black" x1="1657.0921985815603" x2="1657.0921985815603" y1="900" y2="100" /><text  class="poloto_tick_labels poloto_text" dominant-baseline="start" text-anchor="middle" x="1657.0921985815603" y="930" >125</text><line  class="poloto_axis_lines" stroke="black" x1="1717.3758865248226" x2="1717.3758865248226" y1="900" y2="905" /><line  class="poloto_tick_line" stroke="black" x1="1717.3758865248226" x2="1717.3758865248226" y1="900" y2="100" /><text  class="poloto_tick_labels poloto_text" dominant-baseline="start" text-anchor="middle" x="1717.3758865248226" y="930" >130</text><line  class="poloto_axis_lines" stroke="black" x1="1777.6595744680849" x2="1777.6595744680849" y1="900" y2="905" /><line  class="poloto_tick_line" stroke="black" x1="1777.6595744680849" x2="1777.6595744680849" y1="900" y2="100" /><text  class="poloto_tick_labels poloto_text" dominant-baseline="start" text-anchor="middle" x="1777.6595744680849" y="930" >135</text><line  class="poloto_axis_lines" stroke="black" x1="1837.9432624113474" x2="1837.9432624113474" y1="900" y2="905" /><line  class="poloto_tick_line" stroke="black" x1="1837.9432624113474" x2="1837.9432624113474" y1="900" y2="100" /><text  class="poloto_tick_labels poloto_text" dominant-baseline="start" text-anchor="middle" x="1837.9432624113474" y="930" >140</text><text  class="poloto_tick_labels poloto_text" dominant-baseline="middle" text-anchor="start" x="150" y="70" ></text><line  class="poloto_axis_lines" stroke="black" x1="150" x2="144" y1="900" y2="900" /><line  class="poloto_tick_line" stroke="black" x1="150" x2="1850" y1="900" y2="900" /><text  class="poloto_tick_labels poloto_text" dominant-baseline="middle" text-anchor="end" x="135" y="900" >0</text><line  class="poloto_axis_lines" stroke="black" x1="150" x2="144" y1="826.2264846919956" y2="826.2264846919956" /><line  class="poloto_tick_line" stroke="black" x1="150" x2="1850" y1="826.2264846919956" y2="826.2264846919956" /><text  class="poloto_tick_labels poloto_text" dominant-baseline="middle" text-anchor="end" x="135" y="826.2264846919956" >2000</text><line  class="poloto_axis_lines" stroke="black" x1="150" x2="144" y1="752.4529693839911" y2="752.4529693839911" /><line  class="poloto_tick_line" stroke="black" x1="150" x2="1850" y1="752.4529693839911" y2="752.4529693839911" /><text  class="poloto_tick_labels poloto_text" dominant-baseline="middle" text-anchor="end" x="135" y="752.4529693839911" >4000</text><line  class="poloto_axis_lines" stroke="black" x1="150" x2="144" y1="678.6794540759868" y2="678.6794540759868" /><line  class="poloto_tick_line" stroke="black" x1="150" x2="1850" y1="678.6794540759868" y2="678.6794540759868" /><text  class="poloto_tick_labels poloto_text" dominant-baseline="middle" text-anchor="end" x="135" y="678.6794540759868" >6000</text><line  class="poloto_axis_lines" stroke="black" x1="150" x2="144" y1="604.9059387679823" y2="604.9059387679823" /><line  class="poloto_tick_line" stroke="black" x1="150" x2="1850" y1="604.9059387679823" y2="604.9059387679823" /><text  class="poloto_tick_labels poloto_text" dominant-baseline="middle" text-anchor="end" x="135" y="604.9059387679823" >8000</text><line  class="poloto_axis_lines" stroke="black" x1="150" x2="144" y1="531.1324234599779" y2="531.1324234599779" /><line  class="poloto_tick_line" stroke="black" x1="150" x2="1850" y1="531.1324234599779" y2="531.1324234599779" /><text  class="poloto_tick_labels poloto_text" dominant-baseline="middle" text-anchor="end" x="135" y="531.1324234599779" >10000</text><line  class="poloto_axis_lines" stroke="black" x1="150" x2="144" y1="457.3589081519734" y2="457.3589081519734" /><line  class="poloto_tick_line" stroke="black" x1="150" x2="1850" y1="457.3589081519734" y2="457.3589081519734" /><text  class="poloto_tick_labels poloto_text" dominant-baseline="middle" text-anchor="end" x="135" y="457.3589081519734" >12000</text><line  class="poloto_axis_lines" stroke="black" x1="150" x2="144" y1="383.585392843969" y2="383.585392843969" /><line  class="poloto_tick_line" stroke="black" x1="150" x2="1850" y1="383.585392843969" y2="383.585392843969" /><text  class="poloto_tick_labels poloto_text" dominant-baseline="middle" text-anchor="end" x="135" y="383.585392843969" >14000</text><line  class="poloto_axis_lines" stroke="black" x1="150" x2="144" y1="309.81187753596464" y2="309.81187753596464" /><line  class="poloto_tick_line" stroke="black" x1="150" x2="1850" y1="309.81187753596464" y2="309.81187753596464" /><text  class="poloto_tick_labels poloto_text" dominant-baseline="middle" text-anchor="end" x="135" y="309.81187753596464" >16000</text><line  class="poloto_axis_lines" stroke="black" x1="150" x2="144" y1="236.0383622279602" y2="236.0383622279602" /><line  class="poloto_tick_line" stroke="black" x1="150" x2="1850" y1="236.0383622279602" y2="236.0383622279602" /><text  class="poloto_tick_labels poloto_text" dominant-baseline="middle" text-anchor="end" x="135" y="236.0383622279602" >18000</text><line  class="poloto_axis_lines" stroke="black" x1="150" x2="144" y1="162.26484691995574" y2="162.26484691995574" /><line  class="poloto_tick_line" stroke="black" x1="150" x2="1850" y1="162.26484691995574" y2="162.26484691995574" /><text  class="poloto_tick_labels poloto_text" dominant-baseline="middle" text-anchor="end" x="135" y="162.26484691995574" >20000</text><path  stroke="black" fill="none" class="poloto_axis_lines" style="stroke-dasharray:6.028368794326241;stroke-dashoffset:-0;" d=" M 150 900 L 1850 900" /><path  stroke="black" fill="none" class="poloto_axis_lines" style="stroke-dasharray:9.221689413500552;stroke-dashoffset:-0;" d=" M 150 900 L 150 100" /></svg>