<svg class="poloto" width="2000" height="1000" viewBox="0 0 2000 1000" xmlns="http://www.w3.org/2000/svg">
	<style>
.poloto{
  stroke-linecap:round;
  stroke-linejoin:round;
  font-family:Roboto,sans-serif;
  font-size:16px;
}
.poloto_background{fill:#262626;}
.poloto_scatter{stroke-width:7}
.poloto_line{stroke-width:2}
.poloto_text{fill: white;}
.poloto_names{font-size:24px;dominant-baseline:start;text-anchor:middle;}
.poloto_where{dominant-baseline:middle;text-anchor:start}
.poloto_text.poloto_legend{font-size:20px;dominant-baseline:middle;text-anchor:start;}
.poloto_text.poloto_ticks.poloto_y{dominant-baseline:middle;text-anchor:end}
.poloto_text.poloto_ticks.poloto_x{dominant-baseline:start;text-anchor:middle}
.poloto_imgs.poloto_ticks{stroke: white;stroke-width:3;fill:none;stroke-dasharray:none}
.poloto_grid{stroke:gray;stroke-width:0.5}

.poloto0.poloto_stroke{stroke:blue;}
.poloto1.poloto_stroke{stroke:red;}
.poloto2.poloto_stroke{stroke:green;}
.poloto3.poloto_stroke{stroke:gold;}
.poloto4.poloto_stroke{stroke:aqua;}
.poloto5.poloto_stroke{stroke:lime;}
.poloto6.poloto_stroke{stroke:orange;}
.poloto7.poloto_stroke{stroke:chocolate;}
.poloto0.poloto_fill{fill:blue;}
.poloto1.poloto_fill{fill:red;}
.poloto2.poloto_fill{fill:green;}
.poloto3.poloto_fill{fill:gold;}
.poloto4.poloto_fill{fill:aqua;}
.poloto5.poloto_fill{fill:lime;}
.poloto6.poloto_fill{fill:orange;}
.poloto7.poloto_fill{fill:chocolate;}
.poloto_line{stroke-dasharray:2;stroke-width:1;}
	</style>
	<circle r="1e5" class="poloto_background"/>
	<path id="poloto_plot0" class="poloto_plot poloto_imgs poloto_line poloto0 poloto_stroke" fill="none" stroke="black" d=" M 150.00 881.56 L 162.06 890.78 L 174.11 895.39 L 186.17 886.13 L 198.23 893.07 L 210.28 896.53 L 222.34 898.27 L 234.40 894.76 L 246.45 897.38 L 258.51 892.11 L 270.57 896.05 L 282.62 888.12 L 294.68 894.06 L 306.74 882.15 L 318.79 891.07 L 330.85 895.54 L 342.91 886.57 L 354.96 893.29 L 367.02 896.64 L 379.08 889.89 L 391.13 894.95 L 403.19 884.80 L 415.25 892.40 L 427.30 896.20 L 439.36 888.57 L 451.42 894.28 L 463.48 882.81 L 475.53 891.41 L 487.59 874.18 L 499.65 887.09 L 511.70 893.54 L 523.76 880.60 L 535.82 890.30 L 547.87 870.86 L 559.93 885.43 L 571.99 856.25 L 584.04 878.13 L 596.10 834.34 L 608.16 867.17 L 620.21 883.59 L 632.27 850.72 L 644.33 875.36 L 656.38 887.68 L 668.44 893.84 L 680.50 881.48 L 692.55 890.74 L 704.61 872.19 L 716.67 886.09 L 728.72 858.24 L 740.78 879.12 L 752.84 889.56 L 764.89 868.65 L 776.95 884.32 L 789.01 852.93 L 801.06 876.47 L 813.12 888.23 L 825.18 864.66 L 837.23 882.33 L 849.29 846.96 L 861.35 873.48 L 873.40 820.40 L 885.46 860.20 L 897.52 780.56 L 909.57 840.28 L 921.63 720.80 L 933.69 810.40 L 945.74 631.17 L 957.80 765.58 L 969.86 832.79 L 981.91 866.40 L 993.97 799.15 L 1006.03 849.58 L 1018.09 748.69 L 1030.14 824.35 L 1042.20 673.00 L 1054.26 786.50 L 1066.31 559.46 L 1078.37 729.73 L 1090.43 814.87 L 1102.48 857.43 L 1114.54 878.72 L 1126.60 836.11 L 1138.65 868.06 L 1150.71 884.03 L 1162.77 852.05 L 1174.82 876.02 L 1186.88 888.01 L 1198.94 864.00 L 1210.99 882.00 L 1223.05 891.00 L 1235.11 895.50 L 1247.16 897.75 L 1259.22 893.21 L 1271.28 896.61 L 1283.33 898.30 L 1295.39 899.15 L 1307.45 897.42 L 1319.50 898.71 L 1331.56 896.09 L 1343.62 898.05 L 1355.67 894.10 L 1367.73 897.05 L 1379.79 898.52 L 1391.84 899.26 L 1403.90 899.63 L 1415.96 899.82 L 1428.01 899.41 L 1440.07 899.70 L 1452.13 899.85 L 1464.18 899.93 L 1476.24 899.96"/>
	<path id="poloto_plot1" class="poloto_plot poloto_imgs poloto_line poloto1 poloto_stroke" fill="none" stroke="black" d=" M 150.00 789.19 L 162.06 844.60 L 174.11 872.30 L 186.17 816.86 L 198.23 858.43 L 210.28 775.25 L 222.34 837.62 L 234.40 712.84 L 246.45 806.42 L 258.51 619.22 L 270.57 759.61 L 282.62 829.80 L 294.68 689.38 L 306.74 794.69 L 318.79 584.03 L 330.85 742.01 L 342.91 426.01 L 354.96 663.00 L 367.02 188.97 L 379.08 544.49 L 391.13 722.24 L 403.19 366.69 L 415.25 633.35 L 427.30 100.00 L 439.36 500.00 L 451.42 700.00 L 463.48 800.00 L 475.53 599.96 L 487.59 749.98 L 499.65 449.91 L 511.70 674.95 L 523.76 224.82 L 535.82 562.41 L 547.87 731.21 L 559.93 815.60 L 571.99 857.80 L 584.04 878.90 L 596.10 889.45 L 608.16 894.73 L 620.21 884.14 L 632.27 892.07 L 644.33 876.17 L 656.38 888.09 L 668.44 864.22 L 680.50 882.11 L 692.55 846.29 L 704.61 873.15 L 716.67 886.57 L 728.72 893.29 L 740.78 896.64 L 752.84 889.89 L 764.89 894.95 L 776.95 884.80 L 789.01 892.40 L 801.06 896.20 L 813.12 888.57 L 825.18 894.28 L 837.23 882.81 L 849.29 891.41 L 861.35 874.18 L 873.40 887.09 L 885.46 893.54 L 897.52 880.60 L 909.57 890.30 L 921.63 870.86 L 933.69 885.43 L 945.74 856.25 L 957.80 878.13 L 969.86 834.34 L 981.91 867.17 L 993.97 883.59 L 1006.03 850.72 L 1018.09 875.36 L 1030.14 887.68 L 1042.20 893.84 L 1054.26 881.48 L 1066.31 890.74 L 1078.37 872.19 L 1090.43 886.09 L 1102.48 858.24 L 1114.54 879.12 L 1126.60 889.56 L 1138.65 868.65 L 1150.71 884.32 L 1162.77 852.93 L 1174.82 876.47 L 1186.88 888.23 L 1198.94 864.66 L 1210.99 882.33 L 1223.05 846.96 L 1235.11 873.48 L 1247.16 820.40 L 1259.22 860.20 L 1271.28 780.56 L 1283.33 840.28 L 1295.39 720.80 L 1307.45 810.40 L 1319.50 631.17 L 1331.56 765.58 L 1343.62 832.79 L 1355.67 866.40 L 1367.73 799.15 L 1379.79 849.58 L 1391.84 748.69 L 1403.90 824.35 L 1415.96 673.00 L 1428.01 786.50 L 1440.07 559.46 L 1452.13 729.73 L 1464.18 814.87 L 1476.24 857.43 L 1488.30 878.72 L 1500.35 836.11 L 1512.41 868.06 L 1524.47 884.03 L 1536.52 852.05 L 1548.58 876.02 L 1560.64 888.01 L 1572.70 864.00 L 1584.75 882.00 L 1596.81 891.00 L 1608.87 895.50 L 1620.92 897.75 L 1632.98 893.21 L 1645.04 896.61 L 1657.09 898.30 L 1669.15 899.15 L 1681.21 897.42 L 1693.26 898.71 L 1705.32 896.09 L 1717.38 898.05 L 1729.43 894.10 L 1741.49 897.05 L 1753.55 898.52 L 1765.60 899.26 L 1777.66 899.63 L 1789.72 899.82 L 1801.77 899.41 L 1813.83 899.70 L 1825.89 899.85 L 1837.94 899.93 L 1850.00 899.96"/>
	<path id="poloto_plot2" class="poloto_plot poloto_imgs poloto_line poloto2 poloto_stroke" fill="none" stroke="black" d=" M 150.00 881.52 L 162.06 844.52 L 174.11 872.26 L 186.17 886.13 L 198.23 893.07 L 210.28 896.53 L 222.34 898.27 L 234.40 894.76 L 246.45 897.38 L 258.51 892.11 L 270.57 896.05 L 282.62 888.12 L 294.68 894.06 L 306.74 882.15 L 318.79 891.07 L 330.85 895.54 L 342.91 886.57 L 354.96 893.29 L 367.02 896.64 L 379.08 889.89 L 391.13 894.95 L 403.19 884.80 L 415.25 892.40 L 427.30 896.20 L 439.36 888.57 L 451.42 894.28 L 463.48 882.81 L 475.53 891.41 L 487.59 874.18 L 499.65 887.09 L 511.70 893.54 L 523.76 880.60 L 535.82 890.30 L 547.87 870.86 L 559.93 885.43 L 571.99 856.25 L 584.04 878.13 L 596.10 834.34 L 608.16 867.17 L 620.21 883.59 L 632.27 850.72 L 644.33 875.36 L 656.38 887.68 L 668.44 893.84 L 680.50 881.48 L 692.55 890.74 L 704.61 872.19 L 716.67 886.09 L 728.72 858.24 L 740.78 879.12 L 752.84 889.56 L 764.89 868.65 L 776.95 884.32 L 789.01 852.93 L 801.06 876.47 L 813.12 888.23 L 825.18 864.66 L 837.23 882.33 L 849.29 846.96 L 861.35 873.48 L 873.40 820.40 L 885.46 860.20 L 897.52 780.56 L 909.57 840.28 L 921.63 720.80 L 933.69 810.40 L 945.74 631.17 L 957.80 765.58 L 969.86 832.79 L 981.91 866.40 L 993.97 799.15 L 1006.03 849.58 L 1018.09 748.69 L 1030.14 824.35 L 1042.20 673.00 L 1054.26 786.50 L 1066.31 559.46 L 1078.37 729.73 L 1090.43 814.87 L 1102.48 857.43 L 1114.54 878.72 L 1126.60 836.11 L 1138.65 868.06 L 1150.71 884.03 L 1162.77 852.05 L 1174.82 876.02 L 1186.88 888.01 L 1198.94 864.00 L 1210.99 882.00 L 1223.05 891.00 L 1235.11 895.50 L 1247.16 897.75 L 1259.22 893.21 L 1271.28 896.61 L 1283.33 898.30 L 1295.39 899.15 L 1307.45 897.42 L 1319.50 898.71 L 1331.56 896.09 L 1343.62 898.05 L 1355.67 894.10 L 1367.73 897.05 L 1379.79 898.52 L 1391.84 899.26 L 1403.90 899.63 L 1415.96 899.82 L 1428.01 899.41 L 1440.07 899.70 L 1452.13 899.85 L 1464.18 899.93 L 1476.24 899.96"/>
	<path id="poloto_plot3" class="poloto_plot poloto_imgs poloto_line poloto3 poloto_stroke" fill="none" stroke="black" d=" M 150.00 788.97 L 162.06 844.49 L 174.11 733.42 L 186.17 816.71 L 198.23 858.35 L 210.28 775.03 L 222.34 837.51 L 234.40 868.76 L 246.45 806.23 L 258.51 853.12 L 270.57 759.31 L 282.62 829.66 L 294.68 688.93 L 306.74 794.47 L 318.79 583.36 L 330.85 741.68 L 342.91 820.84 L 354.96 860.42 L 367.02 781.22 L 379.08 840.61 L 391.13 870.31 L 403.19 810.88 L 415.25 855.44 L 427.30 877.72 L 439.36 888.86 L 451.42 894.43 L 463.48 883.25 L 475.53 891.63 L 487.59 874.84 L 499.65 887.42 L 511.70 862.23 L 523.76 881.11 L 535.82 890.56 L 547.87 895.28 L 559.93 897.64 L 571.99 898.82 L 584.04 899.41 L 596.10 899.70 L 608.16 899.85 L 620.21 899.93 L 632.27 899.96"/>
	<path id="poloto_plot4" class="poloto_plot poloto_imgs poloto_line poloto4 poloto_stroke" fill="none" stroke="black" d=" M 150.00 881.48 L 162.06 890.74 L 174.11 872.19 L 186.17 886.09 L 198.23 858.24 L 210.28 879.12 L 222.34 889.56 L 234.40 868.65 L 246.45 884.32 L 258.51 852.93 L 270.57 876.47 L 282.62 888.23 L 294.68 864.66 L 306.74 882.33 L 318.79 846.96 L 330.85 873.48 L 342.91 820.40 L 354.96 860.20 L 367.02 780.56 L 379.08 840.28 L 391.13 720.80 L 403.19 810.40 L 415.25 631.17 L 427.30 765.58 L 439.36 832.79 L 451.42 866.40 L 463.48 799.15 L 475.53 849.58 L 487.59 748.69 L 499.65 824.35 L 511.70 673.00 L 523.76 786.50 L 535.82 559.46 L 547.87 729.73 L 559.93 814.87 L 571.99 857.43 L 584.04 878.72 L 596.10 836.11 L 608.16 868.06 L 620.21 884.03 L 632.27 852.05 L 644.33 876.02 L 656.38 888.01 L 668.44 864.00 L 680.50 882.00 L 692.55 891.00 L 704.61 895.50 L 716.67 897.75 L 728.72 893.21 L 740.78 896.61 L 752.84 898.30 L 764.89 899.15 L 776.95 897.42 L 789.01 898.71 L 801.06 896.09 L 813.12 898.05 L 825.18 894.10 L 837.23 897.05 L 849.29 898.52 L 861.35 899.26 L 873.40 899.63 L 885.46 899.82 L 897.52 899.41 L 909.57 899.70 L 921.63 899.85 L 933.69 899.93 L 945.74 899.96"/>
	<path id="poloto_plot5" class="poloto_plot poloto_imgs poloto_line poloto5 poloto_stroke" fill="none" stroke="black" d=" M 150.00 788.75 L 162.06 844.37 L 174.11 872.19 L 186.17 886.09 L 198.23 858.24 L 210.28 879.12 L 222.34 889.56 L 234.40 868.65 L 246.45 884.32 L 258.51 852.93 L 270.57 876.47 L 282.62 888.23 L 294.68 864.66 L 306.74 882.33 L 318.79 846.96 L 330.85 873.48 L 342.91 820.40 L 354.96 860.20 L 367.02 780.56 L 379.08 840.28 L 391.13 720.80 L 403.19 810.40 L 415.25 631.17 L 427.30 765.58 L 439.36 832.79 L 451.42 866.40 L 463.48 799.15 L 475.53 849.58 L 487.59 748.69 L 499.65 824.35 L 511.70 673.00 L 523.76 786.50 L 535.82 559.46 L 547.87 729.73 L 559.93 814.87 L 571.99 857.43 L 584.04 878.72 L 596.10 836.11 L 608.16 868.06 L 620.21 884.03 L 632.27 852.05 L 644.33 876.02 L 656.38 888.01 L 668.44 864.00 L 680.50 882.00 L 692.55 891.00 L 704.61 895.50 L 716.67 897.75 L 728.72 893.21 L 740.78 896.61 L 752.84 898.30 L 764.89 899.15 L 776.95 897.42 L 789.01 898.71 L 801.06 896.09 L 813.12 898.05 L 825.18 894.10 L 837.23 897.05 L 849.29 898.52 L 861.35 899.26 L 873.40 899.63 L 885.46 899.82 L 897.52 899.41 L 909.57 899.70 L 921.63 899.85 L 933.69 899.93 L 945.74 899.96"/>
	<line class="poloto_legend poloto_imgs poloto_line poloto0 poloto_stroke" x1="1880" x2="1930" y1="81.25" y2="81.25"/>
	<line class="poloto_legend poloto_imgs poloto_line poloto1 poloto_stroke" x1="1880" x2="1930" y1="131.25" y2="131.25"/>
	<line class="poloto_legend poloto_imgs poloto_line poloto2 poloto_stroke" x1="1880" x2="1930" y1="181.25" y2="181.25"/>
	<line class="poloto_legend poloto_imgs poloto_line poloto3 poloto_stroke" x1="1880" x2="1930" y1="231.25" y2="231.25"/>
	<line class="poloto_legend poloto_imgs poloto_line poloto4 poloto_stroke" x1="1880" x2="1930" y1="281.25" y2="281.25"/>
	<line class="poloto_legend poloto_imgs poloto_line poloto5 poloto_stroke" x1="1880" x2="1930" y1="331.25" y2="331.25"/>
	<text class="poloto_legend poloto_text poloto_line poloto0" x="1875" y="100">c(1000)</text>
	<text class="poloto_legend poloto_text poloto_line poloto1" x="1875" y="150">c(1001)</text>
	<text class="poloto_legend poloto_text poloto_line poloto2" x="1875" y="200">c(1002)</text>
	<text class="poloto_legend poloto_text poloto_line poloto3" x="1875" y="250">c(1003)</text>
	<text class="poloto_legend poloto_text poloto_line poloto4" x="1875" y="300">c(1004)</text>
	<text class="poloto_legend poloto_text poloto_line poloto5" x="1875" y="350">c(1005)</text>
	<text class="poloto_text poloto_names poloto_title" x="1000.00" y="37.50">collatz</text>
	<text class="poloto_text poloto_names poloto_x" x="1000.00" y="981.25">x</text>
	<text class="poloto_text poloto_names poloto_y" x="37.50" y="500.00" transform="rotate(-90,37.50,500.00)">y</text>
	<text class="poloto_text poloto_ticks poloto_y" x="135.00" y="900.00">0</text>
	<text class="poloto_text poloto_ticks poloto_y" x="135.00" y="826.23">2000</text>
	<text class="poloto_text poloto_ticks poloto_y" x="135.00" y="752.45">4000</text>
	<text class="poloto_text poloto_ticks poloto_y" x="135.00" y="678.68">6000</text>
	<text class="poloto_text poloto_ticks poloto_y" x="135.00" y="604.91">8000</text>
	<text class="poloto_text poloto_ticks poloto_y" x="135.00" y="531.13">10000</text>
	<text class="poloto_text poloto_ticks poloto_y" x="135.00" y="457.36">12000</text>
	<text class="poloto_text poloto_ticks poloto_y" x="135.00" y="383.59">14000</text>
	<text class="poloto_text poloto_ticks poloto_y" x="135.00" y="309.81">16000</text>
	<text class="poloto_text poloto_ticks poloto_y" x="135.00" y="236.04">18000</text>
	<text class="poloto_text poloto_ticks poloto_y" x="135.00" y="162.26">20000</text>
	<line class="poloto_imgs poloto_ticks poloto_y" x1="150.00" x2="144.00" y1="900.00" y2="900.00"/>
	<line class="poloto_imgs poloto_ticks poloto_y" x1="150.00" x2="144.00" y1="826.23" y2="826.23"/>
	<line class="poloto_imgs poloto_ticks poloto_y" x1="150.00" x2="144.00" y1="752.45" y2="752.45"/>
	<line class="poloto_imgs poloto_ticks poloto_y" x1="150.00" x2="144.00" y1="678.68" y2="678.68"/>
	<line class="poloto_imgs poloto_ticks poloto_y" x1="150.00" x2="144.00" y1="604.91" y2="604.91"/>
	<line class="poloto_imgs poloto_ticks poloto_y" x1="150.00" x2="144.00" y1="531.13" y2="531.13"/>
	<line class="poloto_imgs poloto_ticks poloto_y" x1="150.00" x2="144.00" y1="457.36" y2="457.36"/>
	<line class="poloto_imgs poloto_ticks poloto_y" x1="150.00" x2="144.00" y1="383.59" y2="383.59"/>
	<line class="poloto_imgs poloto_ticks poloto_y" x1="150.00" x2="144.00" y1="309.81" y2="309.81"/>
	<line class="poloto_imgs poloto_ticks poloto_y" x1="150.00" x2="144.00" y1="236.04" y2="236.04"/>
	<line class="poloto_imgs poloto_ticks poloto_y" x1="150.00" x2="144.00" y1="162.26" y2="162.26"/>
	<line class="poloto_grid poloto_y" x1="150.00" x2="1850.00" y1="900.00" y2="900.00"/>
	<line class="poloto_grid poloto_y" x1="150.00" x2="1850.00" y1="826.23" y2="826.23"/>
	<line class="poloto_grid poloto_y" x1="150.00" x2="1850.00" y1="752.45" y2="752.45"/>
	<line class="poloto_grid poloto_y" x1="150.00" x2="1850.00" y1="678.68" y2="678.68"/>
	<line class="poloto_grid poloto_y" x1="150.00" x2="1850.00" y1="604.91" y2="604.91"/>
	<line class="poloto_grid poloto_y" x1="150.00" x2="1850.00" y1="531.13" y2="531.13"/>
	<line class="poloto_grid poloto_y" x1="150.00" x2="1850.00" y1="457.36" y2="457.36"/>
	<line class="poloto_grid poloto_y" x1="150.00" x2="1850.00" y1="383.59" y2="383.59"/>
	<line class="poloto_grid poloto_y" x1="150.00" x2="1850.00" y1="309.81" y2="309.81"/>
	<line class="poloto_grid poloto_y" x1="150.00" x2="1850.00" y1="236.04" y2="236.04"/>
	<line class="poloto_grid poloto_y" x1="150.00" x2="1850.00" y1="162.26" y2="162.26"/>
	<text class="poloto_text poloto_ticks poloto_x" x="150.00" y="930.00">0</text>
	<text class="poloto_text poloto_ticks poloto_x" x="210.28" y="930.00">5</text>
	<text class="poloto_text poloto_ticks poloto_x" x="270.57" y="930.00">10</text>
	<text class="poloto_text poloto_ticks poloto_x" x="330.85" y="930.00">15</text>
	<text class="poloto_text poloto_ticks poloto_x" x="391.13" y="930.00">20</text>
	<text class="poloto_text poloto_ticks poloto_x" x="451.42" y="930.00">25</text>
	<text class="poloto_text poloto_ticks poloto_x" x="511.70" y="930.00">30</text>
	<text class="poloto_text poloto_ticks poloto_x" x="571.99" y="930.00">35</text>
	<text class="poloto_text poloto_ticks poloto_x" x="632.27" y="930.00">40</text>
	<text class="poloto_text poloto_ticks poloto_x" x="692.55" y="930.00">45</text>
	<text class="poloto_text poloto_ticks poloto_x" x="752.84" y="930.00">50</text>
	<text class="poloto_text poloto_ticks poloto_x" x="813.12" y="930.00">55</text>
	<text class="poloto_text poloto_ticks poloto_x" x="873.40" y="930.00">60</text>
	<text class="poloto_text poloto_ticks poloto_x" x="933.69" y="930.00">65</text>
	<text class="poloto_text poloto_ticks poloto_x" x="993.97" y="930.00">70</text>
	<text class="poloto_text poloto_ticks poloto_x" x="1054.26" y="930.00">75</text>
	<text class="poloto_text poloto_ticks poloto_x" x="1114.54" y="930.00">80</text>
	<text class="poloto_text poloto_ticks poloto_x" x="1174.82" y="930.00">85</text>
	<text class="poloto_text poloto_ticks poloto_x" x="1235.11" y="930.00">90</text>
	<text class="poloto_text poloto_ticks poloto_x" x="1295.39" y="930.00">95</text>
	<text class="poloto_text poloto_ticks poloto_x" x="1355.67" y="930.00">100</text>
	<text class="poloto_text poloto_ticks poloto_x" x="1415.96" y="930.00">105</text>
	<text class="poloto_text poloto_ticks poloto_x" x="1476.24" y="930.00">110</text>
	<text class="poloto_text poloto_ticks poloto_x" x="1536.52" y="930.00">115</text>
	<text class="poloto_text poloto_ticks poloto_x" x="1596.81" y="930.00">120</text>
	<text class="poloto_text poloto_ticks poloto_x" x="1657.09" y="930.00">125</text>
	<text class="poloto_text poloto_ticks poloto_x" x="1717.38" y="930.00">130</text>
	<text class="poloto_text poloto_ticks poloto_x" x="1777.66" y="930.00">135</text>
	<text class="poloto_text poloto_ticks poloto_x" x="1837.94" y="930.00">140</text>
	<line class="poloto_imgs poloto_ticks poloto_x" x1="150.00" x2="150.00" y1="900.00" y2="905.00"/>
	<line class="poloto_imgs poloto_ticks poloto_x" x1="210.28" x2="210.28" y1="900.00" y2="905.00"/>
	<line class="poloto_imgs poloto_ticks poloto_x" x1="270.57" x2="270.57" y1="900.00" y2="905.00"/>
	<line class="poloto_imgs poloto_ticks poloto_x" x1="330.85" x2="330.85" y1="900.00" y2="905.00"/>
	<line class="poloto_imgs poloto_ticks poloto_x" x1="391.13" x2="391.13" y1="900.00" y2="905.00"/>
	<line class="poloto_imgs poloto_ticks poloto_x" x1="451.42" x2="451.42" y1="900.00" y2="905.00"/>
	<line class="poloto_imgs poloto_ticks poloto_x" x1="511.70" x2="511.70" y1="900.00" y2="905.00"/>
	<line class="poloto_imgs poloto_ticks poloto_x" x1="571.99" x2="571.99" y1="900.00" y2="905.00"/>
	<line class="poloto_imgs poloto_ticks poloto_x" x1="632.27" x2="632.27" y1="900.00" y2="905.00"/>
	<line class="poloto_imgs poloto_ticks poloto_x" x1="692.55" x2="692.55" y1="900.00" y2="905.00"/>
	<line class="poloto_imgs poloto_ticks poloto_x" x1="752.84" x2="752.84" y1="900.00" y2="905.00"/>
	<line class="poloto_imgs poloto_ticks poloto_x" x1="813.12" x2="813.12" y1="900.00" y2="905.00"/>
	<line class="poloto_imgs poloto_ticks poloto_x" x1="873.40" x2="873.40" y1="900.00" y2="905.00"/>
	<line class="poloto_imgs poloto_ticks poloto_x" x1="933.69" x2="933.69" y1="900.00" y2="905.00"/>
	<line class="poloto_imgs poloto_ticks poloto_x" x1="993.97" x2="993.97" y1="900.00" y2="905.00"/>
	<line class="poloto_imgs poloto_ticks poloto_x" x1="1054.26" x2="1054.26" y1="900.00" y2="905.00"/>
	<line class="poloto_imgs poloto_ticks poloto_x" x1="1114.54" x2="1114.54" y1="900.00" y2="905.00"/>
	<line class="poloto_imgs poloto_ticks poloto_x" x1="1174.82" x2="1174.82" y1="900.00" y2="905.00"/>
	<line class="poloto_imgs poloto_ticks poloto_x" x1="1235.11" x2="1235.11" y1="900.00" y2="905.00"/>
	<line class="poloto_imgs poloto_ticks poloto_x" x1="1295.39" x2="1295.39" y1="900.00" y2="905.00"/>
	<line class="poloto_imgs poloto_ticks poloto_x" x1="1355.67" x2="1355.67" y1="900.00" y2="905.00"/>
	<line class="poloto_imgs poloto_ticks poloto_x" x1="1415.96" x2="1415.96" y1="900.00" y2="905.00"/>
	<line class="poloto_imgs poloto_ticks poloto_x" x1="1476.24" x2="1476.24" y1="900.00" y2="905.00"/>
	<line class="poloto_imgs poloto_ticks poloto_x" x1="1536.52" x2="1536.52" y1="900.00" y2="905.00"/>
	<line class="poloto_imgs poloto_ticks poloto_x" x1="1596.81" x2="1596.81" y1="900.00" y2="905.00"/>
	<line class="poloto_imgs poloto_ticks poloto_x" x1="1657.09" x2="1657.09" y1="900.00" y2="905.00"/>
	<line class="poloto_imgs poloto_ticks poloto_x" x1="1717.38" x2="1717.38" y1="900.00" y2="905.00"/>
	<line class="poloto_imgs poloto_ticks poloto_x" x1="1777.66" x2="1777.66" y1="900.00" y2="905.00"/>
	<line class="poloto_imgs poloto_ticks poloto_x" x1="1837.94" x2="1837.94" y1="900.00" y2="905.00"/>
	<line class="poloto_grid poloto_x" x1="150.00" x2="150.00" y1="900.00" y2="100.00"/>
	<line class="poloto_grid poloto_x" x1="210.28" x2="210.28" y1="900.00" y2="100.00"/>
	<line class="poloto_grid poloto_x" x1="270.57" x2="270.57" y1="900.00" y2="100.00"/>
	<line class="poloto_grid poloto_x" x1="330.85" x2="330.85" y1="900.00" y2="100.00"/>
	<line class="poloto_grid poloto_x" x1="391.13" x2="391.13" y1="900.00" y2="100.00"/>
	<line class="poloto_grid poloto_x" x1="451.42" x2="451.42" y1="900.00" y2="100.00"/>
	<line class="poloto_grid poloto_x" x1="511.70" x2="511.70" y1="900.00" y2="100.00"/>
	<line class="poloto_grid poloto_x" x1="571.99" x2="571.99" y1="900.00" y2="100.00"/>
	<line class="poloto_grid poloto_x" x1="632.27" x2="632.27" y1="900.00" y2="100.00"/>
	<line class="poloto_grid poloto_x" x1="692.55" x2="692.55" y1="900.00" y2="100.00"/>
	<line class="poloto_grid poloto_x" x1="752.84" x2="752.84" y1="900.00" y2="100.00"/>
	<line class="poloto_grid poloto_x" x1="813.12" x2="813.12" y1="900.00" y2="100.00"/>
	<line class="poloto_grid poloto_x" x1="873.40" x2="873.40" y1="900.00" y2="100.00"/>
	<line class="poloto_grid poloto_x" x1="933.69" x2="933.69" y1="900.00" y2="100.00"/>
	<line class="poloto_grid poloto_x" x1="993.97" x2="993.97" y1="900.00" y2="100.00"/>
	<line class="poloto_grid poloto_x" x1="1054.26" x2="1054.26" y1="900.00" y2="100.00"/>
	<line class="poloto_grid poloto_x" x1="1114.54" x2="1114.54" y1="900.00" y2="100.00"/>
	<line class="poloto_grid poloto_x" x1="1174.82" x2="1174.82" y1="900.00" y2="100.00"/>
	<line class="poloto_grid poloto_x" x1="1235.11" x2="1235.11" y1="900.00" y2="100.00"/>
	<line class="poloto_grid poloto_x" x1="1295.39" x2="1295.39" y1="900.00" y2="100.00"/>
	<line class="poloto_grid poloto_x" x1="1355.67" x2="1355.67" y1="900.00" y2="100.00"/>
	<line class="poloto_grid poloto_x" x1="1415.96" x2="1415.96" y1="900.00" y2="100.00"/>
	<line class="poloto_grid poloto_x" x1="1476.24" x2="1476.24" y1="900.00" y2="100.00"/>
	<line class="poloto_grid poloto_x" x1="1536.52" x2="1536.52" y1="900.00" y2="100.00"/>
	<line class="poloto_grid poloto_x" x1="1596.81" x2="1596.81" y1="900.00" y2="100.00"/>
	<line class="poloto_grid poloto_x" x1="1657.09" x2="1657.09" y1="900.00" y2="100.00"/>
	<line class="poloto_grid poloto_x" x1="1717.38" x2="1717.38" y1="900.00" y2="100.00"/>
	<line class="poloto_grid poloto_x" x1="1777.66" x2="1777.66" y1="900.00" y2="100.00"/>
	<line class="poloto_grid poloto_x" x1="1837.94" x2="1837.94" y1="900.00" y2="100.00"/>
	<path class="poloto_imgs poloto_ticks poloto_x" style="stroke-dasharray:6.028368794326241;stroke-dashoffset:-0;" d=" M 150.00 900.00 L 1850.00 900.00"/>
	<path class="poloto_imgs poloto_ticks poloto_y" style="stroke-dasharray:9.221689413500552;stroke-dashoffset:-0;" d=" M 150.00 900.00 L 150.00 100.00"/>
</svg>
