<svg class="poloto" width="800" height="500" viewBox="0 0 800 500" xmlns="http://www.w3.org/2000/svg">
	<style>
.poloto{
  stroke-linecap:round;
  stroke-linejoin:round;
  font-family:Roboto,sans-serif;
  font-size:16px;
}
.poloto_background{fill:#262626;}
.poloto_scatter{stroke-width:7}
.poloto_line{stroke-width:2}
.poloto_text{fill: white;}
.poloto_names{font-size:24px;dominant-baseline:start;text-anchor:middle;}
.poloto_where{dominant-baseline:middle;text-anchor:start}
.poloto_text.poloto_legend{font-size:20px;dominant-baseline:middle;text-anchor:start;}
.poloto_text.poloto_ticks.poloto_y{dominant-baseline:middle;text-anchor:end}
.poloto_text.poloto_ticks.poloto_x{dominant-baseline:start;text-anchor:middle}
.poloto_imgs.poloto_ticks{stroke: white;stroke-width:3;fill:none;stroke-dasharray:none}
.poloto_grid{stroke:gray;stroke-width:0.5}

.poloto0stroke{stroke:blue;}
.poloto1stroke{stroke:red;}
.poloto2stroke{stroke:green;}
.poloto3stroke{stroke:gold;}
.poloto4stroke{stroke:aqua;}
.poloto5stroke{stroke:lime;}
.poloto6stroke{stroke:orange;}
.poloto7stroke{stroke:chocolate;}
.poloto0fill{fill:blue;}
.poloto1fill{fill:red;}
.poloto2fill{fill:green;}
.poloto3fill{fill:gold;}
.poloto4fill{fill:aqua;}
.poloto5fill{fill:lime;}
.poloto6fill{fill:orange;}
.poloto7fill{fill:chocolate;}
	</style>
	<circle r="1e5" class="poloto_background"/>
	<path id="poloto_plot0" class="poloto_plot poloto_line poloto0stroke" fill="none" stroke="black" d=" M 150.00 100.00 L 151.00 100.03 L 152.00 100.12 L 153.01 100.27 L 154.01 100.48 L 155.01 100.75 L 156.01 101.08 L 157.01 101.47 L 158.02 101.92 L 159.02 102.42 L 160.02 102.99 L 161.02 103.62 L 162.02 104.30 L 163.03 105.04 L 164.03 105.84 L 165.03 106.70 L 166.03 107.61 L 167.03 108.59 L 168.04 109.62 L 169.04 110.70 L 170.04 111.84 L 171.04 113.04 L 172.04 114.29 L 173.05 115.59 L 174.05 116.95 L 175.05 118.36 L 176.05 119.83 L 177.05 121.34 L 178.06 122.91 L 179.06 124.53 L 180.06 126.20 L 181.06 127.92 L 182.06 129.69 L 183.07 131.50 L 184.07 133.36 L 185.07 135.27 L 186.07 137.23 L 187.07 139.23 L 188.08 141.27 L 189.08 143.36 L 190.08 145.49 L 191.08 147.67 L 192.08 149.88 L 193.09 152.13 L 194.09 154.43 L 195.09 156.76 L 196.09 159.13 L 197.09 161.53 L 198.10 163.97 L 199.10 166.45 L 200.10 168.95 L 201.10 171.50 L 202.10 174.07 L 203.11 176.67 L 204.11 179.30 L 205.11 181.96 L 206.11 184.65 L 207.11 187.36 L 208.12 190.10 L 209.12 192.86 L 210.12 195.65 L 211.12 198.45 L 212.12 201.28 L 213.13 204.13 L 214.13 206.99 L 215.13 209.88 L 216.13 212.77 L 217.13 215.69 L 218.14 218.61 L 219.14 221.55 L 220.14 224.51 L 221.14 227.47 L 222.14 230.44 L 223.15 233.41 L 224.15 236.40 L 225.15 239.39 L 226.15 242.38 L 227.15 245.38 L 228.16 248.38 L 229.16 251.38 L 230.16 254.38 L 231.16 257.38 L 232.16 260.37 L 233.17 263.36 L 234.17 266.35 L 235.17 269.33 L 236.17 272.30 L 237.17 275.26 L 238.18 278.21 L 239.18 281.15 L 240.18 284.08 L 241.18 286.99 L 242.18 289.89 L 243.19 292.78 L 244.19 295.65 L 245.19 298.49 L 246.19 301.32 L 247.19 304.13 L 248.20 306.92 L 249.20 309.68 L 250.20 312.42 L 251.20 315.14 L 252.20 317.83 L 253.21 320.49 L 254.21 323.12 L 255.21 325.73 L 256.21 328.30 L 257.21 330.84 L 258.22 333.36 L 259.22 335.83 L 260.22 338.28 L 261.22 340.68 L 262.22 343.05 L 263.23 345.39 L 264.23 347.68 L 265.23 349.94 L 266.23 352.16 L 267.23 354.33 L 268.24 356.47 L 269.24 358.56 L 270.24 360.61 L 271.24 362.61 L 272.24 364.57 L 273.25 366.49 L 274.25 368.35 L 275.25 370.17 L 276.25 371.94 L 277.25 373.67 L 278.26 375.34 L 279.26 376.96 L 280.26 378.53 L 281.26 380.05 L 282.26 381.52 L 283.27 382.94 L 284.27 384.30 L 285.27 385.61 L 286.27 386.87 L 287.27 388.07 L 288.28 389.21 L 289.28 390.30 L 290.28 391.33 L 291.28 392.31 L 292.28 393.23 L 293.29 394.09 L 294.29 394.90 L 295.29 395.64 L 296.29 396.33 L 297.29 396.96 L 298.30 397.53 L 299.30 398.05 L 300.30 398.50 L 301.30 398.89 L 302.30 399.23 L 303.31 399.50 L 304.31 399.72 L 305.31 399.87 L 306.31 399.97 L 307.31 400.00 L 308.32 399.97 L 309.32 399.89 L 310.32 399.74 L 311.32 399.54 L 312.32 399.27 L 313.33 398.95 L 314.33 398.57 L 315.33 398.12 L 316.33 397.62 L 317.33 397.06 L 318.34 396.44 L 319.34 395.76 L 320.34 395.02 L 321.34 394.22 L 322.34 393.37 L 323.35 392.46 L 324.35 391.49 L 325.35 390.47 L 326.35 389.39 L 327.35 388.25 L 328.36 387.06 L 329.36 385.81 L 330.36 384.51 L 331.36 383.16 L 332.36 381.75 L 333.37 380.29 L 334.37 378.78 L 335.37 377.22 L 336.37 375.60 L 337.37 373.94 L 338.38 372.22 L 339.38 370.46 L 340.38 368.65 L 341.38 366.79 L 342.38 364.88 L 343.39 362.93 L 344.39 360.93 L 345.39 358.89 L 346.39 356.81 L 347.39 354.68 L 348.40 352.51 L 349.40 350.30 L 350.40 348.05 L 351.40 345.76 L 352.40 343.43 L 353.41 341.06 L 354.41 338.66 L 355.41 336.22 L 356.41 333.75 L 357.41 331.25 L 358.42 328.71 L 359.42 326.14 L 360.42 323.54 L 361.42 320.91 L 362.42 318.25 L 363.43 315.57 L 364.43 312.86 L 365.43 310.12 L 366.43 307.36 L 367.43 304.58 L 368.44 301.77 L 369.44 298.95 L 370.44 296.10 L 371.44 293.24 L 372.44 290.36 L 373.45 287.46 L 374.45 284.55 L 375.45 281.62 L 376.45 278.68 L 377.45 275.73 L 378.46 272.77 L 379.46 269.80 L 380.46 266.82 L 381.46 263.84 L 382.46 260.85 L 383.47 257.85 L 384.47 254.86 L 385.47 251.86 L 386.47 248.86 L 387.47 245.86 L 388.48 242.86 L 389.48 239.87 L 390.48 236.88 L 391.48 233.89 L 392.48 230.91 L 393.49 227.94 L 394.49 224.98 L 395.49 222.02 L 396.49 219.08 L 397.49 216.15 L 398.50 213.24 L 399.50 210.34 L 400.50 207.45 L 401.50 204.58 L 402.51 201.73 L 403.51 198.90 L 404.51 196.09 L 405.51 193.30 L 406.51 190.54 L 407.52 187.80 L 408.52 185.08 L 409.52 182.39 L 410.52 179.72 L 411.52 177.09 L 412.53 174.48 L 413.53 171.90 L 414.53 169.36 L 415.53 166.84 L 416.53 164.36 L 417.54 161.92 L 418.54 159.51 L 419.54 157.13 L 420.54 154.80 L 421.54 152.50 L 422.55 150.24 L 423.55 148.02 L 424.55 145.84 L 425.55 143.70 L 426.55 141.60 L 427.56 139.55 L 428.56 137.54 L 429.56 135.58 L 430.56 133.67 L 431.56 131.79 L 432.57 129.97 L 433.57 128.20 L 434.57 126.47 L 435.57 124.79 L 436.57 123.17 L 437.58 121.59 L 438.58 120.07 L 439.58 118.59 L 440.58 117.17 L 441.58 115.80 L 442.59 114.49 L 443.59 113.23 L 444.59 112.03 L 445.59 110.88 L 446.59 109.78 L 447.60 108.75 L 448.60 107.77 L 449.60 106.84 L 450.60 105.97 L 451.60 105.17 L 452.61 104.41 L 453.61 103.72 L 454.61 103.09 L 455.61 102.51 L 456.61 101.99 L 457.62 101.54 L 458.62 101.14 L 459.62 100.80 L 460.62 100.52 L 461.62 100.30 L 462.63 100.14 L 463.63 100.04 L 464.63 100.00 L 465.63 100.02 L 466.63 100.10 L 467.64 100.24 L 468.64 100.44 L 469.64 100.70 L 470.64 101.02 L 471.64 101.40 L 472.65 101.84 L 473.65 102.34 L 474.65 102.90 L 475.65 103.51 L 476.65 104.19 L 477.66 104.92 L 478.66 105.71 L 479.66 106.56 L 480.66 107.47 L 481.66 108.43 L 482.67 109.45 L 483.67 110.52 L 484.67 111.66 L 485.67 112.84 L 486.67 114.08 L 487.68 115.38 L 488.68 116.73 L 489.68 118.13 L 490.68 119.59 L 491.68 121.10 L 492.69 122.66 L 493.69 124.27 L 494.69 125.93 L 495.69 127.64 L 496.69 129.40 L 497.70 131.21 L 498.70 133.06 L 499.70 134.97 L 500.70 136.91 L 501.70 138.91 L 502.71 140.95 L 503.71 143.03 L 504.71 145.15 L 505.71 147.32 L 506.71 149.53 L 507.72 151.77 L 508.72 154.06 L 509.72 156.38 L 510.72 158.75 L 511.72 161.15 L 512.73 163.58 L 513.73 166.05 L 514.73 168.55 L 515.73 171.09 L 516.73 173.66 L 517.74 176.25 L 518.74 178.88 L 519.74 181.54 L 520.74 184.22 L 521.74 186.93 L 522.75 189.66 L 523.75 192.42 L 524.75 195.20 L 525.75 198.00 L 526.75 200.83 L 527.76 203.67 L 528.76 206.54 L 529.76 209.42 L 530.76 212.31 L 531.76 215.22 L 532.77 218.15 L 533.77 221.08 L 534.77 224.03 L 535.77 226.99 L 536.77 229.96 L 537.78 232.94 L 538.78 235.92 L 539.78 238.91 L 540.78 241.91 L 541.78 244.90 L 542.79 247.90 L 543.79 250.90 L 544.79 253.90 L 545.79 256.90 L 546.79 259.90 L 547.80 262.89 L 548.80 265.87 L 549.80 268.85 L 550.80 271.83 L 551.80 274.79 L 552.81 277.74 L 553.81 280.68 L 554.81 283.61 L 555.81 286.53 L 556.81 289.43 L 557.82 292.32 L 558.82 295.19 L 559.82 298.04 L 560.82 300.87 L 561.82 303.69 L 562.83 306.48 L 563.83 309.24 L 564.83 311.99 L 565.83 314.71 L 566.83 317.40 L 567.84 320.07 L 568.84 322.70 L 569.84 325.31 L 570.84 327.89 L 571.84 330.44 L 572.85 332.96 L 573.85 335.44 L 574.85 337.89 L 575.85 340.30 L 576.85 342.68 L 577.86 345.02 L 578.86 347.32 L 579.86 349.58 L 580.86 351.81 L 581.86 353.99 L 582.87 356.13 L 583.87 358.23 L 584.87 360.29 L 585.87 362.30 L 586.87 364.26 L 587.88 366.18 L 588.88 368.06 L 589.88 369.89 L 590.88 371.66 L 591.88 373.39 L 592.89 375.08 L 593.89 376.71 L 594.89 378.29 L 595.89 379.82 L 596.89 381.29 L 597.90 382.72 L 598.90 384.09 L 599.90 385.41 L 600.90 386.67 L 601.90 387.88 L 602.91 389.03 L 603.91 390.13 L 604.91 391.17 L 605.91 392.16 L 606.91 393.09 L 607.92 393.96 L 608.92 394.77 L 609.92 395.53 L 610.92 396.23 L 611.92 396.87 L 612.93 397.45 L 613.93 397.97 L 614.93 398.43 L 615.93 398.83 L 616.93 399.18 L 617.94 399.46 L 618.94 399.69 L 619.94 399.85 L 620.94 399.95 L 621.94 400.00 L 622.95 399.98 L 623.95 399.91 L 624.95 399.77 L 625.95 399.58 L 626.95 399.32 L 627.96 399.01 L 628.96 398.63 L 629.96 398.20 L 630.96 397.70 L 631.96 397.15 L 632.97 396.54 L 633.97 395.87 L 634.97 395.14 L 635.97 394.35 L 636.97 393.51 L 637.98 392.61 L 638.98 391.65 L 639.98 390.64 L 640.98 389.56 L 641.98 388.44 L 642.99 387.25 L 643.99 386.02 L 644.99 384.72 L 645.99 383.38 L 646.99 381.98 L 648.00 380.53 L 649.00 379.02 L 650.00 377.47"/>
	<path id="poloto_plot1" class="poloto_plot poloto_line poloto1stroke" fill="none" stroke="black" d=" M 150.00 250.00 L 151.00 247.00 L 152.00 244.00 L 153.01 241.01 L 154.01 238.01 L 155.01 235.03 L 156.01 232.04 L 157.01 229.07 L 158.02 226.10 L 159.02 223.15 L 160.02 220.20 L 161.02 217.27 L 162.02 214.34 L 163.03 211.44 L 164.03 208.55 L 165.03 205.67 L 166.03 202.82 L 167.03 199.98 L 168.04 197.16 L 169.04 194.36 L 170.04 191.59 L 171.04 188.84 L 172.04 186.11 L 173.05 183.41 L 174.05 180.73 L 175.05 178.09 L 176.05 175.47 L 177.05 172.88 L 178.06 170.32 L 179.06 167.80 L 180.06 165.30 L 181.06 162.84 L 182.06 160.42 L 183.07 158.03 L 184.07 155.68 L 185.07 153.37 L 186.07 151.09 L 187.07 148.86 L 188.08 146.66 L 189.08 144.51 L 190.08 142.40 L 191.08 140.33 L 192.08 138.30 L 193.09 136.32 L 194.09 134.39 L 195.09 132.50 L 196.09 130.66 L 197.09 128.87 L 198.10 127.12 L 199.10 125.43 L 200.10 123.78 L 201.10 122.18 L 202.10 120.64 L 203.11 119.15 L 204.11 117.71 L 205.11 116.32 L 206.11 114.98 L 207.11 113.70 L 208.12 112.48 L 209.12 111.31 L 210.12 110.19 L 211.12 109.14 L 212.12 108.13 L 213.13 107.19 L 214.13 106.30 L 215.13 105.47 L 216.13 104.69 L 217.13 103.98 L 218.14 103.32 L 219.14 102.72 L 220.14 102.18 L 221.14 101.70 L 222.14 101.28 L 223.15 100.92 L 224.15 100.62 L 225.15 100.38 L 226.15 100.19 L 227.15 100.07 L 228.16 100.01 L 229.16 100.01 L 230.16 100.06 L 231.16 100.18 L 232.16 100.36 L 233.17 100.60 L 234.17 100.89 L 235.17 101.25 L 236.17 101.67 L 237.17 102.14 L 238.18 102.68 L 239.18 103.27 L 240.18 103.92 L 241.18 104.63 L 242.18 105.40 L 243.19 106.23 L 244.19 107.11 L 245.19 108.05 L 246.19 109.05 L 247.19 110.11 L 248.20 111.22 L 249.20 112.38 L 250.20 113.61 L 251.20 114.88 L 252.20 116.21 L 253.21 117.59 L 254.21 119.03 L 255.21 120.52 L 256.21 122.06 L 257.21 123.65 L 258.22 125.29 L 259.22 126.98 L 260.22 128.73 L 261.22 130.52 L 262.22 132.35 L 263.23 134.24 L 264.23 136.17 L 265.23 138.14 L 266.23 140.17 L 267.23 142.23 L 268.24 144.34 L 269.24 146.49 L 270.24 148.68 L 271.24 150.91 L 272.24 153.18 L 273.25 155.50 L 274.25 157.84 L 275.25 160.23 L 276.25 162.65 L 277.25 165.11 L 278.26 167.60 L 279.26 170.12 L 280.26 172.67 L 281.26 175.26 L 282.26 177.88 L 283.27 180.52 L 284.27 183.19 L 285.27 185.89 L 286.27 188.62 L 287.27 191.37 L 288.28 194.14 L 289.28 196.94 L 290.28 199.75 L 291.28 202.59 L 292.28 205.44 L 293.29 208.32 L 294.29 211.21 L 295.29 214.11 L 296.29 217.03 L 297.29 219.97 L 298.30 222.91 L 299.30 225.87 L 300.30 228.83 L 301.30 231.81 L 302.30 234.79 L 303.31 237.77 L 304.31 240.77 L 305.31 243.76 L 306.31 246.76 L 307.31 249.76 L 308.32 252.76 L 309.32 255.76 L 310.32 258.76 L 311.32 261.75 L 312.32 264.74 L 313.33 267.72 L 314.33 270.69 L 315.33 273.66 L 316.33 276.62 L 317.33 279.57 L 318.34 282.50 L 319.34 285.42 L 320.34 288.33 L 321.34 291.22 L 322.34 294.10 L 323.35 296.96 L 324.35 299.80 L 325.35 302.62 L 326.35 305.42 L 327.35 308.19 L 328.36 310.95 L 329.36 313.67 L 330.36 316.38 L 331.36 319.06 L 332.36 321.70 L 333.37 324.32 L 334.37 326.92 L 335.37 329.48 L 336.37 332.00 L 337.37 334.50 L 338.38 336.96 L 339.38 339.39 L 340.38 341.78 L 341.38 344.13 L 342.38 346.45 L 343.39 348.73 L 344.39 350.97 L 345.39 353.17 L 346.39 355.32 L 347.39 357.44 L 348.40 359.51 L 349.40 361.54 L 350.40 363.52 L 351.40 365.46 L 352.40 367.35 L 353.41 369.20 L 354.41 370.99 L 355.41 372.74 L 356.41 374.44 L 357.41 376.09 L 358.42 377.69 L 359.42 379.24 L 360.42 380.74 L 361.42 382.18 L 362.42 383.57 L 363.43 384.91 L 364.43 386.20 L 365.43 387.43 L 366.43 388.60 L 367.43 389.72 L 368.44 390.78 L 369.44 391.79 L 370.44 392.74 L 371.44 393.63 L 372.44 394.47 L 373.45 395.25 L 374.45 395.97 L 375.45 396.63 L 376.45 397.23 L 377.45 397.78 L 378.46 398.26 L 379.46 398.69 L 380.46 399.05 L 381.46 399.36 L 382.46 399.61 L 383.47 399.79 L 384.47 399.92 L 385.47 399.99 L 386.47 400.00 L 387.47 399.94 L 388.48 399.83 L 389.48 399.66 L 390.48 399.42 L 391.48 399.13 L 392.48 398.78 L 393.49 398.37 L 394.49 397.90 L 395.49 397.37 L 396.49 396.78 L 397.49 396.13 L 398.50 395.43 L 399.50 394.66 L 400.50 393.84 L 401.50 392.96 L 402.51 392.02 L 403.51 391.03 L 404.51 389.98 L 405.51 388.87 L 406.51 387.71 L 407.52 386.49 L 408.52 385.22 L 409.52 383.90 L 410.52 382.52 L 411.52 381.09 L 412.53 379.60 L 413.53 378.07 L 414.53 376.48 L 415.53 374.84 L 416.53 373.15 L 417.54 371.42 L 418.54 369.63 L 419.54 367.80 L 420.54 365.91 L 421.54 363.99 L 422.55 362.01 L 423.55 360.00 L 424.55 357.94 L 425.55 355.83 L 426.55 353.68 L 427.56 351.50 L 428.56 349.27 L 429.56 347.00 L 430.56 344.69 L 431.56 342.34 L 432.57 339.96 L 433.57 337.54 L 434.57 335.09 L 435.57 332.60 L 436.57 330.08 L 437.58 327.53 L 438.58 324.95 L 439.58 322.33 L 440.58 319.69 L 441.58 317.02 L 442.59 314.32 L 443.59 311.60 L 444.59 308.85 L 445.59 306.08 L 446.59 303.29 L 447.60 300.47 L 448.60 297.64 L 449.60 294.78 L 450.60 291.91 L 451.60 289.02 L 452.61 286.12 L 453.61 283.20 L 454.61 280.27 L 455.61 277.32 L 456.61 274.37 L 457.62 271.40 L 458.62 268.43 L 459.62 265.45 L 460.62 262.46 L 461.62 259.47 L 462.63 256.48 L 463.63 253.48 L 464.63 250.48 L 465.63 247.48 L 466.63 244.48 L 467.64 241.48 L 468.64 238.49 L 469.64 235.50 L 470.64 232.52 L 471.64 229.54 L 472.65 226.57 L 473.65 223.62 L 474.65 220.67 L 475.65 217.73 L 476.65 214.81 L 477.66 211.90 L 478.66 209.01 L 479.66 206.13 L 480.66 203.27 L 481.66 200.43 L 482.67 197.61 L 483.67 194.81 L 484.67 192.03 L 485.67 189.27 L 486.67 186.54 L 487.68 183.84 L 488.68 181.16 L 489.68 178.51 L 490.68 175.88 L 491.68 173.29 L 492.69 170.73 L 493.69 168.20 L 494.69 165.70 L 495.69 163.23 L 496.69 160.80 L 497.70 158.41 L 498.70 156.05 L 499.70 153.73 L 500.70 151.45 L 501.70 149.21 L 502.71 147.01 L 503.71 144.85 L 504.71 142.73 L 505.71 140.65 L 506.71 138.62 L 507.72 136.64 L 508.72 134.69 L 509.72 132.80 L 510.72 130.95 L 511.72 129.15 L 512.73 127.40 L 513.73 125.69 L 514.73 124.04 L 515.73 122.43 L 516.73 120.88 L 517.74 119.38 L 518.74 117.93 L 519.74 116.54 L 520.74 115.19 L 521.74 113.91 L 522.75 112.67 L 523.75 111.49 L 524.75 110.37 L 525.75 109.30 L 526.75 108.29 L 527.76 107.33 L 528.76 106.44 L 529.76 105.59 L 530.76 104.81 L 531.76 104.09 L 532.77 103.42 L 533.77 102.81 L 534.77 102.26 L 535.77 101.77 L 536.77 101.34 L 537.78 100.97 L 538.78 100.66 L 539.78 100.41 L 540.78 100.22 L 541.78 100.09 L 542.79 100.01 L 543.79 100.00 L 544.79 100.05 L 545.79 100.16 L 546.79 100.33 L 547.80 100.55 L 548.80 100.84 L 549.80 101.19 L 550.80 101.60 L 551.80 102.06 L 552.81 102.59 L 553.81 103.17 L 554.81 103.82 L 555.81 104.52 L 556.81 105.28 L 557.82 106.09 L 558.82 106.97 L 559.82 107.90 L 560.82 108.89 L 561.82 109.94 L 562.83 111.04 L 563.83 112.19 L 564.83 113.41 L 565.83 114.67 L 566.83 116.00 L 567.84 117.37 L 568.84 118.80 L 569.84 120.28 L 570.84 121.81 L 571.84 123.39 L 572.85 125.03 L 573.85 126.71 L 574.85 128.44 L 575.85 130.23 L 576.85 132.06 L 577.86 133.93 L 578.86 135.86 L 579.86 137.83 L 580.86 139.84 L 581.86 141.90 L 582.87 144.00 L 583.87 146.14 L 584.87 148.33 L 585.87 150.55 L 586.87 152.82 L 587.88 155.12 L 588.88 157.47 L 589.88 159.85 L 590.88 162.26 L 591.88 164.71 L 592.89 167.20 L 593.89 169.72 L 594.89 172.27 L 595.89 174.85 L 596.89 177.46 L 597.90 180.10 L 598.90 182.77 L 599.90 185.46 L 600.90 188.18 L 601.90 190.93 L 602.91 193.70 L 603.91 196.49 L 604.91 199.30 L 605.91 202.14 L 606.91 204.99 L 607.92 207.86 L 608.92 210.75 L 609.92 213.65 L 610.92 216.57 L 611.92 219.50 L 612.93 222.44 L 613.93 225.40 L 614.93 228.36 L 615.93 231.33 L 616.93 234.31 L 617.94 237.30 L 618.94 240.29 L 619.94 243.29 L 620.94 246.28 L 621.94 249.28 L 622.95 252.28 L 623.95 255.28 L 624.95 258.28 L 625.95 261.27 L 626.95 264.26 L 627.96 267.25 L 628.96 270.22 L 629.96 273.19 L 630.96 276.15 L 631.96 279.10 L 632.97 282.03 L 633.97 284.96 L 634.97 287.87 L 635.97 290.76 L 636.97 293.64 L 637.98 296.50 L 638.98 299.35 L 639.98 302.17 L 640.98 304.97 L 641.98 307.75 L 642.99 310.51 L 643.99 313.24 L 644.99 315.95 L 645.99 318.63 L 646.99 321.28 L 648.00 323.91 L 649.00 326.50 L 650.00 329.07"/>
	<line class="poloto_legend poloto_imgs poloto_line poloto0stroke" x1="680" x2="730" y1="81.25" y2="81.25"/>
	<line class="poloto_legend poloto_imgs poloto_line poloto1stroke" x1="680" x2="730" y1="131.25" y2="131.25"/>
	<text class="poloto_legend poloto_text" x="675" y="100">test 1</text>
	<text class="poloto_legend poloto_text" x="675" y="150">test 2</text>
	<text class="poloto_text poloto_names poloto_title" x="400.00" y="37.50">cos per year</text>
	<text class="poloto_text poloto_names poloto_x" x="400.00" y="481.25">year</text>
	<text class="poloto_text poloto_names poloto_y" x="37.50" y="250.00" transform="rotate(-90,37.50,250.00)">cows</text>
	<text class="poloto_text poloto_ticks poloto_y" x="135.00" y="325.00">-0.5</text>
	<text class="poloto_text poloto_ticks poloto_y" x="135.00" y="250.00">0.0</text>
	<text class="poloto_text poloto_ticks poloto_y" x="135.00" y="175.00">0.5</text>
	<text class="poloto_text poloto_ticks poloto_y" x="135.00" y="100.00">1.0</text>
	<line class="poloto_imgs poloto_ticks poloto_y" x1="150.00" x2="144.00" y1="325.00" y2="325.00"/>
	<line class="poloto_imgs poloto_ticks poloto_y" x1="150.00" x2="144.00" y1="250.00" y2="250.00"/>
	<line class="poloto_imgs poloto_ticks poloto_y" x1="150.00" x2="144.00" y1="175.00" y2="175.00"/>
	<line class="poloto_imgs poloto_ticks poloto_y" x1="150.00" x2="144.00" y1="100.00" y2="100.00"/>
	<text class="poloto_text poloto_ticks poloto_x" x="150.00" y="430.00">0</text>
	<text class="poloto_text poloto_ticks poloto_x" x="250.20" y="430.00">2</text>
	<text class="poloto_text poloto_ticks poloto_x" x="350.40" y="430.00">4</text>
	<text class="poloto_text poloto_ticks poloto_x" x="450.60" y="430.00">6</text>
	<text class="poloto_text poloto_ticks poloto_x" x="550.80" y="430.00">8</text>
	<line class="poloto_imgs poloto_ticks poloto_x" x1="150.00" x2="150.00" y1="400.00" y2="405.00"/>
	<line class="poloto_imgs poloto_ticks poloto_x" x1="250.20" x2="250.20" y1="400.00" y2="405.00"/>
	<line class="poloto_imgs poloto_ticks poloto_x" x1="350.40" x2="350.40" y1="400.00" y2="405.00"/>
	<line class="poloto_imgs poloto_ticks poloto_x" x1="450.60" x2="450.60" y1="400.00" y2="405.00"/>
	<line class="poloto_imgs poloto_ticks poloto_x" x1="550.80" x2="550.80" y1="400.00" y2="405.00"/>
	<path class="poloto_imgs poloto_ticks poloto_x" style="stroke-dasharray:12.525050100200401;stroke-dashoffset:-0;" d=" M 150.00 400.00 L 650.00 400.00"/>
	<path class="poloto_imgs poloto_ticks poloto_y" style="stroke-dasharray:7.500004756024742;stroke-dashoffset:-74.9998573192577;" d=" M 150.00 400.00 L 150.00 100.00"/>
</svg>
