<svg class="poloto" width="800" height="500" viewBox="0 0 800 500" xmlns="http://www.w3.org/2000/svg">
	<style>
.poloto{
  stroke-linecap:round;
  stroke-linejoin:round;
  font-family:Roboto,sans-serif;
  font-size:16px;
}
.poloto_background{fill:AliceBlue;}
.poloto_scatter{stroke-width:7}
.poloto_line{stroke-width:2}
.poloto_text{fill: black;}
.poloto_name{font-size:24px;dominant-baseline:start;text-anchor:middle;}
.poloto_where{dominant-baseline:middle;text-anchor:start}
.poloto_text.poloto_legend{font-size:20px;dominant-baseline:middle;text-anchor:start;}
.poloto_text.poloto_ticks.poloto_y{dominant-baseline:middle;text-anchor:end}
.poloto_text.poloto_ticks.poloto_x{dominant-baseline:start;text-anchor:middle}
.poloto_imgs.poloto_ticks{stroke: black;stroke-width:3;fill:none;stroke-dasharray:none}
.poloto_grid{stroke:gray;stroke-width:0.5}

.poloto0.poloto_stroke{stroke:blue;}
.poloto1.poloto_stroke{stroke:red;}
.poloto2.poloto_stroke{stroke:green;}
.poloto3.poloto_stroke{stroke:gold;}
.poloto4.poloto_stroke{stroke:aqua;}
.poloto5.poloto_stroke{stroke:lime;}
.poloto6.poloto_stroke{stroke:orange;}
.poloto7.poloto_stroke{stroke:chocolate;}
.poloto0.poloto_fill{fill:blue;}
.poloto1.poloto_fill{fill:red;}
.poloto2.poloto_fill{fill:green;}
.poloto3.poloto_fill{fill:gold;}
.poloto4.poloto_fill{fill:aqua;}
.poloto5.poloto_fill{fill:lime;}
.poloto6.poloto_fill{fill:orange;}
.poloto7.poloto_fill{fill:chocolate;}
	</style>
	<circle r="1e5" class="poloto_background"/>
	<g id="poloto_plot0" class="poloto_plot poloto_imgs poloto_line poloto0 poloto_stroke" fill="none" stroke="black">
		<path d=" M 150.00 198.55 L 250.00 174.58 L 350.00 154.27 L 404.17 263.33 L 450.00 135.18 L 550.00 117.24 L 650.00 100.00"/>
	</g>
	<text class="poloto_text poloto_name poloto_title" x="400.00" y="37.50">Number of Wikipedia Articles</text>
	<text class="poloto_text poloto_name poloto_x" x="400.00" y="481.25">Day</text>
	<text class="poloto_text poloto_name poloto_y" x="37.50" y="250.00" transform="rotate(-90,37.50,250.00)">Number of Articles</text>
	<text class="poloto_text poloto_where poloto_x" x="440.00" y="70.00">ยน2020-01-30 00:00:00 UTC in Days</text>
	<text class="poloto_text poloto_ticks poloto_y">
		<tspan x="135.00" y="400.00">0</tspan>
		<tspan x="135.00" y="335.92">1e6</tspan>
		<tspan x="135.00" y="271.85">2.0e6</tspan>
		<tspan x="135.00" y="207.77">3.0e6</tspan>
		<tspan x="135.00" y="143.70">4.0e6</tspan>
	</text>
	<g class="poloto_imgs poloto_ticks poloto_y">
		<line x1="150.00" x2="144.00" y1="400.00" y2="400.00"/>
		<line x1="150.00" x2="144.00" y1="335.92" y2="335.92"/>
		<line x1="150.00" x2="144.00" y1="271.85" y2="271.85"/>
		<line x1="150.00" x2="144.00" y1="207.77" y2="207.77"/>
		<line x1="150.00" x2="144.00" y1="143.70" y2="143.70"/>
	</g>
	<text class="poloto_text poloto_ticks poloto_x">
		<tspan x="150.00" y="430.00">Jan 30ยน</tspan>
		<tspan x="250.00" y="430.00">Jan 31</tspan>
		<tspan x="350.00" y="430.00">Feb 01</tspan>
		<tspan x="450.00" y="430.00">Feb 02</tspan>
		<tspan x="550.00" y="430.00">Feb 03</tspan>
		<tspan x="650.00" y="430.00">Feb 04</tspan>
	</text>
	<g class="poloto_imgs poloto_ticks poloto_x">
		<line x1="150.00" x2="150.00" y1="400.00" y2="405.00"/>
		<line x1="250.00" x2="250.00" y1="400.00" y2="405.00"/>
		<line x1="350.00" x2="350.00" y1="400.00" y2="405.00"/>
		<line x1="450.00" x2="450.00" y1="400.00" y2="405.00"/>
		<line x1="550.00" x2="550.00" y1="400.00" y2="405.00"/>
		<line x1="650.00" x2="650.00" y1="400.00" y2="405.00"/>
	</g>
	<path class="poloto_imgs poloto_ticks poloto_x" d=" M 150.00 400.00 L 650.00 400.00"/>
	<path class="poloto_imgs poloto_ticks poloto_y" style="stroke-dasharray:6.40751815463477;stroke-dashoffset:-0;" d=" M 150.00 400.00 L 150.00 100.00"/>
</svg>
