<svg class="poloto" width="800" height="500" viewBox="0 0 800 500" xmlns="http://www.w3.org/2000/svg">
	<style>
.poloto{
  stroke-linecap:round;
  stroke-linejoin:round;
  font-family:Roboto,sans-serif;
  font-size:16px;
}
.poloto_background{fill:AliceBlue;}
.poloto_scatter{stroke-width:7}
.poloto_tick_line{stroke:gray;stroke-width:0.5}
.poloto_line{stroke-width:2}
.poloto_text{fill: black;}
.poloto_axis_lines{stroke: black;stroke-width:3;fill:none;stroke-dasharray:none}
.poloto_title{font-size:24px;dominant-baseline:start;text-anchor:middle;}
.poloto_xname{font-size:24px;dominant-baseline:start;text-anchor:middle;}
.poloto_yname{font-size:24px;dominant-baseline:start;text-anchor:middle;}
.poloto_legend_text{font-size:20px;dominant-baseline:middle;text-anchor:start;}
.poloto0stroke{stroke:blue;}
.poloto1stroke{stroke:red;}
.poloto2stroke{stroke:green;}
.poloto3stroke{stroke:gold;}
.poloto4stroke{stroke:aqua;}
.poloto5stroke{stroke:lime;}
.poloto6stroke{stroke:orange;}
.poloto7stroke{stroke:chocolate;}
.poloto0fill{fill:blue;}
.poloto1fill{fill:red;}
.poloto2fill{fill:green;}
.poloto3fill{fill:gold;}
.poloto4fill{fill:aqua;}
.poloto5fill{fill:lime;}
.poloto6fill{fill:orange;}
.poloto7fill{fill:chocolate;}
	</style>
	<circle r="1e5" class="poloto_background"/>
	<text class="poloto_text poloto_legend_text" x="675" y="100">σ=1.0</text>
	<line class="poloto_line poloto_legend_icon poloto0stroke poloto0legend" stroke="black" x1="680" x2="730" y1="81.25" y2="81.25"/>
	<path class="poloto_line poloto0stroke" fill="none" stroke="black" d=" M 150.00 400.00 L 152.51 400.00 L 155.03 400.00 L 157.54 400.00 L 160.05 400.00 L 162.56 400.00 L 165.08 400.00 L 167.59 400.00 L 170.10 400.00 L 172.61 399.99 L 175.13 399.99 L 177.64 399.99 L 180.15 399.99 L 182.66 399.99 L 185.18 399.98 L 187.69 399.98 L 190.20 399.98 L 192.71 399.97 L 195.23 399.96 L 197.74 399.95 L 200.25 399.94 L 202.76 399.93 L 205.28 399.92 L 207.79 399.90 L 210.30 399.88 L 212.81 399.85 L 215.33 399.83 L 217.84 399.79 L 220.35 399.75 L 222.86 399.70 L 225.38 399.64 L 227.89 399.57 L 230.40 399.49 L 232.91 399.40 L 235.43 399.29 L 237.94 399.16 L 240.45 399.02 L 242.96 398.85 L 245.48 398.65 L 247.99 398.43 L 250.50 398.17 L 253.02 397.88 L 255.53 397.55 L 258.04 397.17 L 260.55 396.74 L 263.07 396.25 L 265.58 395.71 L 268.09 395.09 L 270.60 394.41 L 273.12 393.64 L 275.63 392.78 L 278.14 391.83 L 280.65 390.78 L 283.17 389.61 L 285.68 388.33 L 288.19 386.93 L 290.70 385.39 L 293.22 383.71 L 295.73 381.88 L 298.24 379.90 L 300.75 377.76 L 303.27 375.45 L 305.78 372.97 L 308.29 370.32 L 310.80 367.48 L 313.32 364.46 L 315.83 361.26 L 318.34 357.88 L 320.85 354.31 L 323.37 350.57 L 325.88 346.65 L 328.39 342.57 L 330.90 338.33 L 333.42 333.94 L 335.93 329.42 L 338.44 324.77 L 340.95 320.02 L 343.47 315.18 L 345.98 310.27 L 348.49 305.32 L 351.01 300.34 L 353.52 295.36 L 356.03 290.40 L 358.54 285.50 L 361.06 280.68 L 363.57 275.97 L 366.08 271.39 L 368.59 266.97 L 371.11 262.75 L 373.62 258.75 L 376.13 254.99 L 378.64 251.51 L 381.16 248.32 L 383.67 245.45 L 386.18 242.91 L 388.69 240.74 L 391.21 238.94 L 393.72 237.52 L 396.23 236.50 L 398.74 235.89 L 401.26 235.68 L 403.77 235.89 L 406.28 236.50 L 408.79 237.52 L 411.31 238.94 L 413.82 240.74 L 416.33 242.91 L 418.84 245.45 L 421.36 248.32 L 423.87 251.51 L 426.38 254.99 L 428.89 258.75 L 431.41 262.75 L 433.92 266.97 L 436.43 271.39 L 438.94 275.97 L 441.46 280.68 L 443.97 285.50 L 446.48 290.40 L 448.99 295.36 L 451.51 300.34 L 454.02 305.32 L 456.53 310.27 L 459.05 315.18 L 461.56 320.02 L 464.07 324.77 L 466.58 329.42 L 469.10 333.94 L 471.61 338.33 L 474.12 342.57 L 476.63 346.65 L 479.15 350.57 L 481.66 354.31 L 484.17 357.88 L 486.68 361.26 L 489.20 364.46 L 491.71 367.48 L 494.22 370.32 L 496.73 372.97 L 499.25 375.45 L 501.76 377.76 L 504.27 379.90 L 506.78 381.88 L 509.30 383.71 L 511.81 385.39 L 514.32 386.93 L 516.83 388.33 L 519.35 389.61 L 521.86 390.78 L 524.37 391.83 L 526.88 392.78 L 529.40 393.64 L 531.91 394.41 L 534.42 395.09 L 536.93 395.71 L 539.45 396.25 L 541.96 396.74 L 544.47 397.17 L 546.98 397.55 L 549.50 397.88 L 552.01 398.17 L 554.52 398.43 L 557.04 398.65 L 559.55 398.85 L 562.06 399.02 L 564.57 399.16 L 567.09 399.29 L 569.60 399.40 L 572.11 399.49 L 574.62 399.57 L 577.14 399.64 L 579.65 399.70 L 582.16 399.75 L 584.67 399.79 L 587.19 399.83 L 589.70 399.85 L 592.21 399.88 L 594.72 399.90 L 597.24 399.92 L 599.75 399.93 L 602.26 399.94 L 604.77 399.95 L 607.29 399.96 L 609.80 399.97 L 612.31 399.98 L 614.82 399.98 L 617.34 399.98 L 619.85 399.99 L 622.36 399.99 L 624.87 399.99 L 627.39 399.99 L 629.90 399.99 L 632.41 400.00 L 634.92 400.00 L 637.44 400.00 L 639.95 400.00 L 642.46 400.00 L 644.97 400.00 L 647.49 400.00 L 650.00 400.00"/>
	<text class="poloto_text poloto_legend_text" x="675" y="150">σ=0.5</text>
	<line class="poloto_line poloto_legend_icon poloto1stroke poloto1legend" stroke="black" x1="680" x2="730" y1="131.25" y2="131.25"/>
	<path class="poloto_line poloto1stroke" fill="none" stroke="black" d=" M 150.00 400.00 L 152.51 400.00 L 155.03 400.00 L 157.54 400.00 L 160.05 400.00 L 162.56 400.00 L 165.08 400.00 L 167.59 400.00 L 170.10 400.00 L 172.61 400.00 L 175.13 400.00 L 177.64 400.00 L 180.15 400.00 L 182.66 400.00 L 185.18 400.00 L 187.69 400.00 L 190.20 400.00 L 192.71 400.00 L 195.23 400.00 L 197.74 400.00 L 200.25 400.00 L 202.76 400.00 L 205.28 400.00 L 207.79 400.00 L 210.30 400.00 L 212.81 400.00 L 215.33 400.00 L 217.84 400.00 L 220.35 400.00 L 222.86 400.00 L 225.38 400.00 L 227.89 400.00 L 230.40 400.00 L 232.91 400.00 L 235.43 400.00 L 237.94 400.00 L 240.45 400.00 L 242.96 400.00 L 245.48 400.00 L 247.99 400.00 L 250.50 400.00 L 253.02 400.00 L 255.53 400.00 L 258.04 400.00 L 260.55 400.00 L 263.07 400.00 L 265.58 400.00 L 268.09 400.00 L 270.60 400.00 L 273.12 400.00 L 275.63 400.00 L 278.14 400.00 L 280.65 400.00 L 283.17 400.00 L 285.68 399.99 L 288.19 399.99 L 290.70 399.99 L 293.22 399.98 L 295.73 399.97 L 298.24 399.95 L 300.75 399.92 L 303.27 399.88 L 305.78 399.83 L 308.29 399.75 L 310.80 399.64 L 313.32 399.49 L 315.83 399.28 L 318.34 399.00 L 320.85 398.61 L 323.37 398.10 L 325.88 397.42 L 328.39 396.53 L 330.90 395.39 L 333.42 393.93 L 335.93 392.09 L 338.44 389.79 L 340.95 386.96 L 343.47 383.50 L 345.98 379.34 L 348.49 374.38 L 351.01 368.55 L 353.52 361.78 L 356.03 354.01 L 358.54 345.22 L 361.06 335.39 L 363.57 324.56 L 366.08 312.79 L 368.59 300.18 L 371.11 286.89 L 373.62 273.10 L 376.13 259.06 L 378.64 245.01 L 381.16 231.26 L 383.67 218.12 L 386.18 205.90 L 388.69 194.93 L 391.21 185.49 L 393.72 177.85 L 396.23 172.22 L 398.74 168.78 L 401.26 167.62 L 403.77 168.78 L 406.28 172.22 L 408.79 177.85 L 411.31 185.49 L 413.82 194.93 L 416.33 205.90 L 418.84 218.12 L 421.36 231.26 L 423.87 245.01 L 426.38 259.06 L 428.89 273.10 L 431.41 286.89 L 433.92 300.18 L 436.43 312.79 L 438.94 324.56 L 441.46 335.39 L 443.97 345.22 L 446.48 354.01 L 448.99 361.78 L 451.51 368.55 L 454.02 374.38 L 456.53 379.34 L 459.05 383.50 L 461.56 386.96 L 464.07 389.79 L 466.58 392.09 L 469.10 393.93 L 471.61 395.39 L 474.12 396.53 L 476.63 397.42 L 479.15 398.10 L 481.66 398.61 L 484.17 399.00 L 486.68 399.28 L 489.20 399.49 L 491.71 399.64 L 494.22 399.75 L 496.73 399.83 L 499.25 399.88 L 501.76 399.92 L 504.27 399.95 L 506.78 399.97 L 509.30 399.98 L 511.81 399.99 L 514.32 399.99 L 516.83 399.99 L 519.35 400.00 L 521.86 400.00 L 524.37 400.00 L 526.88 400.00 L 529.40 400.00 L 531.91 400.00 L 534.42 400.00 L 536.93 400.00 L 539.45 400.00 L 541.96 400.00 L 544.47 400.00 L 546.98 400.00 L 549.50 400.00 L 552.01 400.00 L 554.52 400.00 L 557.04 400.00 L 559.55 400.00 L 562.06 400.00 L 564.57 400.00 L 567.09 400.00 L 569.60 400.00 L 572.11 400.00 L 574.62 400.00 L 577.14 400.00 L 579.65 400.00 L 582.16 400.00 L 584.67 400.00 L 587.19 400.00 L 589.70 400.00 L 592.21 400.00 L 594.72 400.00 L 597.24 400.00 L 599.75 400.00 L 602.26 400.00 L 604.77 400.00 L 607.29 400.00 L 609.80 400.00 L 612.31 400.00 L 614.82 400.00 L 617.34 400.00 L 619.85 400.00 L 622.36 400.00 L 624.87 400.00 L 627.39 400.00 L 629.90 400.00 L 632.41 400.00 L 634.92 400.00 L 637.44 400.00 L 639.95 400.00 L 642.46 400.00 L 644.97 400.00 L 647.49 400.00 L 650.00 400.00"/>
	<text class="poloto_text poloto_legend_text" x="675" y="200">σ=0.3</text>
	<line class="poloto_line poloto_legend_icon poloto2stroke poloto2legend" stroke="black" x1="680" x2="730" y1="181.25" y2="181.25"/>
	<path class="poloto_line poloto2stroke" fill="none" stroke="black" d=" M 150.00 400.00 L 152.51 400.00 L 155.03 400.00 L 157.54 400.00 L 160.05 400.00 L 162.56 400.00 L 165.08 400.00 L 167.59 400.00 L 170.10 400.00 L 172.61 400.00 L 175.13 400.00 L 177.64 400.00 L 180.15 400.00 L 182.66 400.00 L 185.18 400.00 L 187.69 400.00 L 190.20 400.00 L 192.71 400.00 L 195.23 400.00 L 197.74 400.00 L 200.25 400.00 L 202.76 400.00 L 205.28 400.00 L 207.79 400.00 L 210.30 400.00 L 212.81 400.00 L 215.33 400.00 L 217.84 400.00 L 220.35 400.00 L 222.86 400.00 L 225.38 400.00 L 227.89 400.00 L 230.40 400.00 L 232.91 400.00 L 235.43 400.00 L 237.94 400.00 L 240.45 400.00 L 242.96 400.00 L 245.48 400.00 L 247.99 400.00 L 250.50 400.00 L 253.02 400.00 L 255.53 400.00 L 258.04 400.00 L 260.55 400.00 L 263.07 400.00 L 265.58 400.00 L 268.09 400.00 L 270.60 400.00 L 273.12 400.00 L 275.63 400.00 L 278.14 400.00 L 280.65 400.00 L 283.17 400.00 L 285.68 400.00 L 288.19 400.00 L 290.70 400.00 L 293.22 400.00 L 295.73 400.00 L 298.24 400.00 L 300.75 400.00 L 303.27 400.00 L 305.78 400.00 L 308.29 400.00 L 310.80 400.00 L 313.32 400.00 L 315.83 400.00 L 318.34 400.00 L 320.85 400.00 L 323.37 400.00 L 325.88 400.00 L 328.39 400.00 L 330.90 399.99 L 333.42 399.99 L 335.93 399.97 L 338.44 399.95 L 340.95 399.90 L 343.47 399.81 L 345.98 399.64 L 348.49 399.34 L 351.01 398.84 L 353.52 398.01 L 356.03 396.67 L 358.54 394.58 L 361.06 391.43 L 363.57 386.82 L 366.08 380.28 L 368.59 371.31 L 371.11 359.40 L 373.62 344.12 L 376.13 325.19 L 378.64 302.60 L 381.16 276.67 L 383.67 248.10 L 386.18 218.04 L 388.69 188.01 L 391.21 159.78 L 393.72 135.25 L 396.23 116.21 L 398.74 104.14 L 401.26 100.00 L 403.77 104.14 L 406.28 116.21 L 408.79 135.25 L 411.31 159.78 L 413.82 188.01 L 416.33 218.04 L 418.84 248.10 L 421.36 276.67 L 423.87 302.60 L 426.38 325.19 L 428.89 344.12 L 431.41 359.40 L 433.92 371.31 L 436.43 380.28 L 438.94 386.82 L 441.46 391.43 L 443.97 394.58 L 446.48 396.67 L 448.99 398.01 L 451.51 398.84 L 454.02 399.34 L 456.53 399.64 L 459.05 399.81 L 461.56 399.90 L 464.07 399.95 L 466.58 399.97 L 469.10 399.99 L 471.61 399.99 L 474.12 400.00 L 476.63 400.00 L 479.15 400.00 L 481.66 400.00 L 484.17 400.00 L 486.68 400.00 L 489.20 400.00 L 491.71 400.00 L 494.22 400.00 L 496.73 400.00 L 499.25 400.00 L 501.76 400.00 L 504.27 400.00 L 506.78 400.00 L 509.30 400.00 L 511.81 400.00 L 514.32 400.00 L 516.83 400.00 L 519.35 400.00 L 521.86 400.00 L 524.37 400.00 L 526.88 400.00 L 529.40 400.00 L 531.91 400.00 L 534.42 400.00 L 536.93 400.00 L 539.45 400.00 L 541.96 400.00 L 544.47 400.00 L 546.98 400.00 L 549.50 400.00 L 552.01 400.00 L 554.52 400.00 L 557.04 400.00 L 559.55 400.00 L 562.06 400.00 L 564.57 400.00 L 567.09 400.00 L 569.60 400.00 L 572.11 400.00 L 574.62 400.00 L 577.14 400.00 L 579.65 400.00 L 582.16 400.00 L 584.67 400.00 L 587.19 400.00 L 589.70 400.00 L 592.21 400.00 L 594.72 400.00 L 597.24 400.00 L 599.75 400.00 L 602.26 400.00 L 604.77 400.00 L 607.29 400.00 L 609.80 400.00 L 612.31 400.00 L 614.82 400.00 L 617.34 400.00 L 619.85 400.00 L 622.36 400.00 L 624.87 400.00 L 627.39 400.00 L 629.90 400.00 L 632.41 400.00 L 634.92 400.00 L 637.44 400.00 L 639.95 400.00 L 642.46 400.00 L 644.97 400.00 L 647.49 400.00 L 650.00 400.00"/>
	<text class="poloto_labels poloto_text poloto_title" x="400.00" y="37.50">gaussian</text>
	<text class="poloto_labels poloto_text poloto_xname" x="400.00" y="481.25">x</text>
	<text class="poloto_labels poloto_text poloto_yname" transform="rotate(-90,37.50,250.00)" x="37.50" y="250.00">y</text>
	<text class="poloto_tick_labels poloto_text" dominant-baseline="middle" text-anchor="end" x="135.00" y="400.00">0.0</text>
	<text class="poloto_tick_labels poloto_text" dominant-baseline="middle" text-anchor="end" x="135.00" y="317.62">0.2</text>
	<text class="poloto_tick_labels poloto_text" dominant-baseline="middle" text-anchor="end" x="135.00" y="235.25">0.4</text>
	<text class="poloto_tick_labels poloto_text" dominant-baseline="middle" text-anchor="end" x="135.00" y="152.87">0.6</text>
	<line class="poloto_axis_lines" stroke="black" x1="150.00" x2="144.00" y1="400.00" y2="400.00"/>
	<line class="poloto_axis_lines" stroke="black" x1="150.00" x2="144.00" y1="317.62" y2="317.62"/>
	<line class="poloto_axis_lines" stroke="black" x1="150.00" x2="144.00" y1="235.25" y2="235.25"/>
	<line class="poloto_axis_lines" stroke="black" x1="150.00" x2="144.00" y1="152.87" y2="152.87"/>
	<text class="poloto_tick_labels poloto_text" dominant-baseline="start" text-anchor="middle" x="200.25" y="430.00">-4</text>
	<text class="poloto_tick_labels poloto_text" dominant-baseline="start" text-anchor="middle" x="300.75" y="430.00">-2</text>
	<text class="poloto_tick_labels poloto_text" dominant-baseline="start" text-anchor="middle" x="401.26" y="430.00">0</text>
	<text class="poloto_tick_labels poloto_text" dominant-baseline="start" text-anchor="middle" x="501.76" y="430.00">2</text>
	<text class="poloto_tick_labels poloto_text" dominant-baseline="start" text-anchor="middle" x="602.26" y="430.00">4</text>
	<line class="poloto_axis_lines" stroke="black" x1="200.25" x2="200.25" y1="400.00" y2="405.00"/>
	<line class="poloto_axis_lines" stroke="black" x1="300.75" x2="300.75" y1="400.00" y2="405.00"/>
	<line class="poloto_axis_lines" stroke="black" x1="401.26" x2="401.26" y1="400.00" y2="405.00"/>
	<line class="poloto_axis_lines" stroke="black" x1="501.76" x2="501.76" y1="400.00" y2="405.00"/>
	<line class="poloto_axis_lines" stroke="black" x1="602.26" x2="602.26" y1="400.00" y2="405.00"/>
	<path stroke="black" fill="none" class="poloto_axis_lines" style="stroke-dasharray:12.56281407035176;stroke-dashoffset:-50.25125628140705;" d=" M 150.00 400.00 L 650.00 400.00"/>
	<path stroke="black" fill="none" class="poloto_axis_lines" style="stroke-dasharray:10.2970263697174;stroke-dashoffset:-0;" d=" M 150.00 400.00 L 150.00 100.00"/>
</svg>
