<svg class="poloto" width="500" height="500" viewBox="0 0 500 500" xmlns="http://www.w3.org/2000/svg"><style>.poloto { stroke-linecap:round; stroke-linejoin:round; font-family: 'Tahoma', sans-serif; background-color: #262626;} .poloto_scatter{stroke-width:7} .poloto_line{stroke-width:2} .poloto_text{fill: white;} .poloto_axis_lines{stroke: white;stroke-width:3;fill:none;stroke-dasharray:none} .poloto0stroke{stroke:  blue;} .poloto1stroke{stroke:  red;} .poloto2stroke{stroke:  green;} .poloto3stroke{stroke:  gold;} .poloto4stroke{stroke:  aqua;} .poloto5stroke{stroke:  lime;} .poloto6stroke{stroke:  orange;} .poloto7stroke{stroke:  chocolate;} .poloto0fill{fill:blue;} .poloto1fill{fill:red;} .poloto2fill{fill:green;} .poloto3fill{fill:gold;} .poloto4fill{fill:aqua;} .poloto5fill{fill:lime;} .poloto6fill{fill:orange;} .poloto7fill{fill:chocolate;}</style><text  class="poloto_text poloto_legend_text" alignment-baseline="middle" text-anchor="start" font-size="large" x="375" y="100" >heart</text><rect  class="poloto_linefillraw poloto_legend_icon poloto0fill poloto0legend" x="380" y="76.25" width="50" height="7.5" rx="5" ry="5" /><path  class="poloto_linefillraw poloto0fill" d=" M 249.7751692212431 333.4617366201038 L 249.35778960683515 331.9134070612 L 248.61620093505093 329.87258484478866 L 247.47377141220883 327.37943277383187 L 245.86842497741125 324.4802460509053 L 243.75500340287195 321.22492006004023 L 241.1070746817426 317.66428363660566 L 237.91812801293105 313.84747336671825 L 234.20211554296344 309.81952313360154 L 229.99332216725367 305.6193306701894 L 225.345566443914 301.27813996251905 L 220.33075732950965 296.818646297873 L 215.03685230800332 292.25479145386856 L 209.56528187728247 287.5922723267272 L 204.0279226552899 282.82973986677655 L 198.54371601075457 277.960619358724 L 193.23504063849413 272.9754406814575 L 188.22395551392134 267.86453086264424 L 183.62843391654246 262.6208933307306 L 179.55870957014145 257.2430806113171 L 176.11385239618852 251.7378610787846 L 173.37868403128635 246.12248635137794 L 171.42113235626329 240.42638389166981 L 170.29011017588115 234.69212851531503 L 170.01398632965635 228.9755853184641 L 170.5996984504548 223.3451629155322 L 172.03253593403505 217.88016726475303 L 174.27660010665454 212.66829984640341 L 177.27592677611813 207.80239647606012 L 180.95623502841374 203.37655151746526 L 185.22724597606936 199.48181382434086 L 189.9854968265845 196.20167285642333 L 195.11755971200097 193.60757405063987 L 200.5035617182436 191.75471027404436 L 206.02089289516232 190.67833034036494 L 211.54798302702756 190.39078619323828 L 216.9680257922301 190.87950826495725 L 222.1725307093579 192.10605525246498 L 227.0645888972853 194.00633229979945 L 231.56174798723015 196.49201305411003 L 235.5984042138618 199.45313936815066 L 239.1276353702237 202.76181086530016 L 242.12241643134476 206.27681850278492 L 244.57617964823612 209.84902484831622 L 246.50270214119357 213.32725187488472 L 247.9353257928693 216.56440703466757 L 248.9255358538014 219.4235619258714 L 249.5409454275128 221.7836960200632 L 249.86275222816664 223.54483089147521 L 249.98275107974982 224.63230760269974 L 250 225 L 250.01724892025018 224.63230760269974 L 250.13724777183336 223.54483089147521 L 250.4590545724872 221.7836960200632 L 251.0744641461986 219.4235619258714 L 252.0646742071307 216.56440703466757 L 253.49729785880646 213.32725187488472 L 255.42382035176388 209.84902484831622 L 257.8775835686552 206.27681850278492 L 260.8723646297763 202.76181086530016 L 264.4015957861382 199.45313936815066 L 268.43825201276985 196.49201305411003 L 272.93541110271474 194.00633229979945 L 277.8274692906421 192.10605525246498 L 283.0319742077699 190.87950826495725 L 288.45201697297244 190.39078619323828 L 293.9791071048377 190.67833034036494 L 299.49643828175647 191.75471027404436 L 304.88244028799903 193.60757405063987 L 310.01450317341545 196.2016728564233 L 314.7727540239306 199.4818138243408 L 319.04376497158626 203.37655151746523 L 322.72407322388193 207.80239647606015 L 325.72339989334546 212.66829984640341 L 327.9674640659649 217.88016726475297 L 329.4003015495452 223.3451629155322 L 329.98601367034365 228.97558531846417 L 329.7098898241188 234.69212851531503 L 328.5788676437367 240.4263838916698 L 326.62131596871365 246.12248635137797 L 323.8861476038114 251.73786107878468 L 320.4412904298585 257.2430806113171 L 316.37156608345754 262.6208933307306 L 311.7760444860787 267.86453086264424 L 306.7649593615059 272.9754406814575 L 301.45628398924543 277.96061935872393 L 295.9720773447101 282.82973986677655 L 290.4347181227175 287.5922723267272 L 284.9631476919967 292.25479145386856 L 279.66924267049035 296.818646297873 L 274.65443355608596 301.27813996251905 L 270.00667783274633 305.6193306701894 L 265.79788445703656 309.81952313360154 L 262.08187198706895 313.84747336671825 L 258.8929253182574 317.66428363660566 L 256.2449965971281 321.2249200600402 L 254.13157502258875 324.4802460509053 L 252.52622858779117 327.3794327738319 L 251.38379906494907 329.87258484478866 L 250.64221039316485 331.9134070612 Z" /><text  class="poloto_labels poloto_text poloto_title" alignment-baseline="start" text-anchor="middle" font-size="x-large" x="250" y="37.5" >Heart Graph</text><text  class="poloto_labels poloto_text poloto_xname" alignment-baseline="start" text-anchor="middle" font-size="x-large" x="250" y="481.25" >x</text><text  class="poloto_labels poloto_text poloto_yname" alignment-baseline="start" text-anchor="middle" font-size="x-large" transform="rotate(-90,37.5,250)" x="37.5" y="250" >y</text><text  class="poloto_tick_labels poloto_text" alignment-baseline="middle" text-anchor="start" x="275" y="70" ></text><line  class="poloto_axis_lines" stroke="black" x1="150" x2="150" y1="350" y2="355" /><text  class="poloto_tick_labels poloto_text" alignment-baseline="start" text-anchor="middle" x="150" y="380" >-20</text><line  class="poloto_axis_lines" stroke="black" x1="250" x2="250" y1="350" y2="355" /><text  class="poloto_tick_labels poloto_text" alignment-baseline="start" text-anchor="middle" x="250" y="380" >0</text><line  class="poloto_axis_lines" stroke="black" x1="350" x2="350" y1="350" y2="355" /><text  class="poloto_tick_labels poloto_text" alignment-baseline="start" text-anchor="middle" x="350" y="380" >20</text><text  class="poloto_tick_labels poloto_text" alignment-baseline="middle" text-anchor="start" x="150" y="70" ></text><line  class="poloto_axis_lines" stroke="black" x1="150" x2="144" y1="350" y2="350" /><text  class="poloto_tick_labels poloto_text" alignment-baseline="middle" text-anchor="end" x="135" y="350" >-20</text><line  class="poloto_axis_lines" stroke="black" x1="150" x2="144" y1="250" y2="250" /><text  class="poloto_tick_labels poloto_text" alignment-baseline="middle" text-anchor="end" x="135" y="250" >0</text><line  class="poloto_axis_lines" stroke="black" x1="150" x2="144" y1="150" y2="150" /><text  class="poloto_tick_labels poloto_text" alignment-baseline="middle" text-anchor="end" x="135" y="150" >20</text><path  stroke="black" fill="none" class="poloto_axis_lines" style="stroke-dasharray:12.5;stroke-dashoffset:-0;" d=" M 150 350 L 350 350" /><path  stroke="black" fill="none" class="poloto_axis_lines" style="stroke-dasharray:12.5;stroke-dashoffset:-0;" d=" M 150 350 L 150 150" /></svg>
