<svg class="poloto" width="800" height="500" viewBox="0 0 800 500" xmlns="http://www.w3.org/2000/svg"><style>.poloto { stroke-linecap:round; stroke-linejoin:round; font-family: 'Tahoma', sans-serif; background-color: #262626;} .poloto_scatter{stroke-width:7} .poloto_line{stroke-width:2} .poloto_text{fill: white;} .poloto_axis_lines{stroke: white;stroke-width:3;fill:none;stroke-dasharray:none} .poloto0stroke{stroke:  blue;} .poloto1stroke{stroke:  red;} .poloto2stroke{stroke:  green;} .poloto3stroke{stroke:  gold;} .poloto4stroke{stroke:  aqua;} .poloto5stroke{stroke:  lime;} .poloto6stroke{stroke:  orange;} .poloto7stroke{stroke:  chocolate;} .poloto0fill{fill:blue;} .poloto1fill{fill:red;} .poloto2fill{fill:green;} .poloto3fill{fill:gold;} .poloto4fill{fill:aqua;} .poloto5fill{fill:lime;} .poloto6fill{fill:orange;} .poloto7fill{fill:chocolate;}</style><text  class="poloto_text poloto_legend_text" alignment-baseline="middle" text-anchor="start" font-size="large" x="675" y="100" >heart</text><rect  class="poloto_linefillraw poloto_legend_icon poloto0fill poloto0legend" x="680" y="76.25" width="50" height="7.5" rx="5" ry="5" /><path  class="poloto_linefillraw poloto0fill" d=" M 399.43792305310774 375.1926049301557 L 398.39447401708793 372.87011059179997 L 396.5405023376273 369.808877267183 L 393.6844285305221 366.06914916074777 L 389.67106244352817 361.7203690763579 L 384.38750850717986 356.8373800900604 L 377.7676867043565 351.49642545490855 L 369.7953200323276 345.77121005007734 L 360.5052888574086 339.7292847004023 L 349.98330541813414 333.42899600528415 L 338.363916109785 326.9172099437785 L 325.82689332377413 320.2279694468095 L 312.5921307700083 313.3821871808028 L 298.9132046932062 306.3884084900908 L 285.06980663822475 299.2446098001649 L 271.35929002688647 291.940929038086 L 258.08760159623534 284.46316102218617 L 245.5598887848033 276.7967962939664 L 234.07108479135616 268.93133999609597 L 223.89677392535364 260.86462091697564 L 215.2846309904713 252.60679161817689 L 208.44671007821586 244.18372952706693 L 203.55283089065816 235.63957583750474 L 200.72527543970287 227.03819277297254 L 200.03496582414084 218.46337797769618 L 201.499246126137 210.0177443732983 L 205.08133983508765 201.8202508971295 L 210.69150026663635 194.00244976960514 L 218.18981694029526 186.7035947140902 L 227.3905875710344 180.0648272761979 L 238.0681149401734 174.2227207365113 L 249.9637420664613 169.30250928463497 L 262.79389928000245 165.4113610759598 L 276.258904295609 162.63206541106655 L 290.0522322379058 161.0174955105474 L 303.8699575675689 160.58617928985745 L 317.4200644805752 161.31926239743586 L 330.43132677339474 163.1590828786975 L 342.6614722432132 166.0094984496992 L 353.9043699680754 169.73801958116502 L 363.9960105346545 174.17970905222597 L 372.81908842555924 179.14271629795024 L 380.3060410783619 184.41522775417738 L 386.44044912059024 189.7735372724743 L 391.2567553529839 194.9908778123271 L 394.83831448217325 199.84661055200138 L 397.3138396345035 204.13534288880714 L 398.85236356878204 207.67554403009478 L 399.6568805704166 210.3172463372128 L 399.9568776993745 211.94846140404962 L 400 212.5 L 400.0431223006255 211.94846140404962 L 400.3431194295834 210.3172463372128 L 401.14763643121796 207.67554403009478 L 402.68616036549656 204.13534288880712 L 405.16168551782675 199.84661055200132 L 408.7432446470161 194.99087781232708 L 413.55955087940976 189.7735372724743 L 419.69395892163806 184.4152277541774 L 427.18091157444076 179.14271629795024 L 436.0039894653455 174.17970905222597 L 446.0956300319246 169.73801958116502 L 457.3385277567868 166.0094984496992 L 469.56867322660526 163.1590828786975 L 482.5799355194248 161.31926239743586 L 496.1300424324311 160.58617928985745 L 509.9477677620942 161.0174955105474 L 523.7410957043911 162.63206541106655 L 537.2061007199975 165.4113610759598 L 550.0362579335386 169.30250928463494 L 561.9318850598264 174.22272073651118 L 572.6094124289656 180.06482727619786 L 581.8101830597047 186.70359471409023 L 589.3084997333636 194.00244976960514 L 594.9186601649124 201.82025089712945 L 598.500753873863 210.0177443732983 L 599.9650341758592 218.46337797769624 L 599.274724560297 227.03819277297256 L 596.4471691093419 235.6395758375047 L 591.5532899217842 244.18372952706696 L 584.7153690095286 252.606791618177 L 576.1032260746463 260.8646209169757 L 565.9289152086438 268.93133999609597 L 554.4401112151968 276.79679629396634 L 541.9123984037647 284.46316102218617 L 528.6407099731136 291.9409290380859 L 514.9301933617752 299.2446098001649 L 501.0867953067938 306.3884084900908 L 487.4078692299917 313.3821871808028 L 474.17310667622587 320.2279694468095 L 461.6360838902149 326.9172099437786 L 450.01669458186586 333.42899600528415 L 439.49471114259137 339.72928470040233 L 430.2046799676724 345.77121005007734 L 422.23231329564356 351.4964254549085 L 415.61249149282025 356.83738009006026 L 410.32893755647183 361.7203690763579 L 406.3155714694779 366.0691491607478 L 403.4594976623727 369.808877267183 L 401.60552598291207 372.87011059179997 Z" /><text  class="poloto_labels poloto_text poloto_title" alignment-baseline="start" text-anchor="middle" font-size="x-large" x="400" y="37.5" >Heart Graph</text><text  class="poloto_labels poloto_text poloto_xname" alignment-baseline="start" text-anchor="middle" font-size="x-large" x="400" y="481.25" >x</text><text  class="poloto_labels poloto_text poloto_yname" alignment-baseline="start" text-anchor="middle" font-size="x-large" transform="rotate(-90,37.5,250)" x="37.5" y="250" >y</text><line  class="poloto_axis_lines" stroke="black" x1="150" x2="150" y1="400" y2="405" /><text  class="poloto_tick_labels poloto_text" alignment-baseline="start" text-anchor="middle" x="150" y="430" >-20</text><line  class="poloto_axis_lines" stroke="black" x1="212.5" x2="212.5" y1="400" y2="405" /><text  class="poloto_tick_labels poloto_text" alignment-baseline="start" text-anchor="middle" x="212.5" y="430" >-15</text><line  class="poloto_axis_lines" stroke="black" x1="275" x2="275" y1="400" y2="405" /><text  class="poloto_tick_labels poloto_text" alignment-baseline="start" text-anchor="middle" x="275" y="430" >-10</text><line  class="poloto_axis_lines" stroke="black" x1="337.5" x2="337.5" y1="400" y2="405" /><text  class="poloto_tick_labels poloto_text" alignment-baseline="start" text-anchor="middle" x="337.5" y="430" >-5</text><line  class="poloto_axis_lines" stroke="black" x1="400" x2="400" y1="400" y2="405" /><text  class="poloto_tick_labels poloto_text" alignment-baseline="start" text-anchor="middle" x="400" y="430" >0</text><line  class="poloto_axis_lines" stroke="black" x1="462.5" x2="462.5" y1="400" y2="405" /><text  class="poloto_tick_labels poloto_text" alignment-baseline="start" text-anchor="middle" x="462.5" y="430" >5</text><line  class="poloto_axis_lines" stroke="black" x1="525" x2="525" y1="400" y2="405" /><text  class="poloto_tick_labels poloto_text" alignment-baseline="start" text-anchor="middle" x="525" y="430" >10</text><line  class="poloto_axis_lines" stroke="black" x1="587.5" x2="587.5" y1="400" y2="405" /><text  class="poloto_tick_labels poloto_text" alignment-baseline="start" text-anchor="middle" x="587.5" y="430" >15</text><line  class="poloto_axis_lines" stroke="black" x1="650" x2="650" y1="400" y2="405" /><text  class="poloto_tick_labels poloto_text" alignment-baseline="start" text-anchor="middle" x="650" y="430" >20</text><line  class="poloto_axis_lines" stroke="black" x1="150" x2="144" y1="400" y2="400" /><text  class="poloto_tick_labels poloto_text" alignment-baseline="middle" text-anchor="end" x="135" y="400" >-20</text><line  class="poloto_axis_lines" stroke="black" x1="150" x2="144" y1="325" y2="325" /><text  class="poloto_tick_labels poloto_text" alignment-baseline="middle" text-anchor="end" x="135" y="325" >-10</text><line  class="poloto_axis_lines" stroke="black" x1="150" x2="144" y1="250" y2="250" /><text  class="poloto_tick_labels poloto_text" alignment-baseline="middle" text-anchor="end" x="135" y="250" >0</text><line  class="poloto_axis_lines" stroke="black" x1="150" x2="144" y1="175" y2="175" /><text  class="poloto_tick_labels poloto_text" alignment-baseline="middle" text-anchor="end" x="135" y="175" >10</text><line  class="poloto_axis_lines" stroke="black" x1="150" x2="144" y1="100" y2="100" /><text  class="poloto_tick_labels poloto_text" alignment-baseline="middle" text-anchor="end" x="135" y="100" >20</text><path  stroke="black" fill="none" class="poloto_axis_lines" style="stroke-dasharray:6.25;stroke-dashoffset:-0;" d=" M 150 400 L 650 400" /><path  stroke="black" fill="none" class="poloto_axis_lines" style="stroke-dasharray:7.5;stroke-dashoffset:-0;" d=" M 150 400 L 150 100" /></svg>
