<svg class="poloto" width="500" height="800" viewBox="0 0 500 800" xmlns="http://www.w3.org/2000/svg"><style>.poloto { stroke-linecap:round; stroke-linejoin:round; font-family: 'Tahoma', sans-serif; background-color: #262626;} .poloto_scatter{stroke-width:7} .poloto_line{stroke-width:2} .poloto_text{fill: white;} .poloto_axis_lines{stroke: white;stroke-width:3;fill:none;stroke-dasharray:none} .poloto0stroke{stroke:  blue;} .poloto1stroke{stroke:  red;} .poloto2stroke{stroke:  green;} .poloto3stroke{stroke:  gold;} .poloto4stroke{stroke:  aqua;} .poloto5stroke{stroke:  lime;} .poloto6stroke{stroke:  orange;} .poloto7stroke{stroke:  chocolate;} .poloto0fill{fill:blue;} .poloto1fill{fill:red;} .poloto2fill{fill:green;} .poloto3fill{fill:gold;} .poloto4fill{fill:aqua;} .poloto5fill{fill:lime;} .poloto6fill{fill:orange;} .poloto7fill{fill:chocolate;}</style><text  class="poloto_text poloto_legend_text" alignment-baseline="middle" text-anchor="start" font-size="large" x="375" y="100" >heart</text><rect  class="poloto_linefillraw poloto_legend_icon poloto0fill poloto0legend" x="380" y="76.25" width="50" height="7.5" rx="5" ry="5" /><path  class="poloto_linefillraw poloto0fill" d=" M 99.3255076637293 650.3852098603114 L 98.07336882050551 645.7402211835999 L 95.84860280515277 639.617754534366 L 92.42131423662649 632.1382983214955 L 87.6052749322338 623.4407381527158 L 81.2650102086158 613.6747601801208 L 73.32122404522778 602.9928509098171 L 63.75438403879314 591.5424201001547 L 52.60634662889029 579.4585694008045 L 39.97996650176098 566.8579920105683 L 26.036699331742014 553.834419887557 L 10.99227198852897 540.455938893619 L -4.8894430759900445 526.7643743616056 L -21.304154368152567 512.7768169801816 L -37.916232034130275 498.4892196003297 L -54.36885196773625 483.88185807617197 L -70.29487808451756 468.92632204437234 L -85.32813345823604 453.5935925879328 L -99.11469825037264 437.8626799921919 L -111.3238712895756 421.7292418339513 L -121.65844281143444 405.21358323635377 L -129.86394790614096 388.36745905413386 L -135.7366029312102 371.2791516750095 L -139.12966947235657 354.0763855459451 L -139.95804101103099 336.92675595539237 L -138.20090464863563 320.0354887465966 L -133.9023921978948 303.640501794259 L -127.17019968003638 288.00489953921027 L -118.17221967164568 273.4071894281804 L -107.13129491475874 260.1296545523958 L -94.31826207179193 248.44544147302256 L -80.04350952024646 238.60501856926993 L -64.64732086399707 230.82272215191963 L -48.489314845269206 225.26413082213307 L -31.937321314513042 222.03499102109478 L -15.356050918917333 221.17235857971488 L 0.9040773766902817 222.63852479487173 L 16.51759212807366 226.31816575739498 L 31.19376669185587 232.0189968993984 L 44.685243961690475 239.47603916233007 L 56.79521264158542 248.35941810445198 L 67.38290611067106 258.2854325959005 L 76.36724929403427 268.83045550835476 L 83.72853894470833 279.5470745449486 L 89.50810642358066 289.9817556246542 L 93.80597737860789 299.69322110400276 L 96.77660756140418 308.2706857776143 L 98.62283628253843 315.35108806018957 L 99.58825668449991 320.6344926744256 L 99.94825323924942 323.89692280809925 L 100 325 L 100.05174676075058 323.89692280809925 L 100.41174331550009 320.6344926744256 L 101.37716371746157 315.35108806018957 L 103.22339243859585 308.27068577761423 L 106.19402262139214 299.69322110400265 L 110.49189357641937 289.98175562465417 L 116.27146105529167 279.5470745449486 L 123.63275070596566 268.8304555083548 L 132.61709388932894 258.2854325959005 L 143.2047873584146 248.35941810445198 L 155.31475603830953 239.47603916233007 L 168.80623330814413 232.0189968993984 L 183.48240787192634 226.31816575739498 L 199.09592262330972 222.63852479487173 L 215.35605091891733 221.17235857971488 L 231.93732131451304 222.03499102109478 L 248.48931484526932 225.26413082213307 L 264.64732086399704 230.82272215191963 L 280.0435095202464 238.6050185692699 L 294.3182620717917 248.44544147302238 L 307.13129491475866 260.1296545523957 L 318.17221967164573 273.40718942818046 L 327.1701996800364 288.00489953921027 L 333.9023921978948 303.6405017942589 L 338.2009046486356 320.0354887465966 L 339.958041011031 336.9267559553925 L 339.12966947235645 354.07638554594513 L 335.7366029312102 371.2791516750094 L 329.863947906141 388.3674590541339 L 321.65844281143427 405.213583236354 L 311.3238712895755 421.7292418339514 L 299.1146982503726 437.8626799921919 L 285.32813345823615 453.5935925879327 L 270.29487808451756 468.92632204437234 L 254.36885196773636 483.8818580761718 L 237.91623203413027 498.4892196003297 L 221.30415436815258 512.7768169801816 L 204.88944307599004 526.7643743616056 L 189.00772801147104 540.455938893619 L 173.9633006682579 553.8344198875571 L 160.02003349823903 566.8579920105683 L 147.39365337110962 579.4585694008047 L 136.24561596120685 591.5424201001547 L 126.67877595477229 602.992850909817 L 118.7349897913843 613.6747601801205 L 112.3947250677662 623.4407381527158 L 107.57868576337349 632.1382983214957 L 104.15139719484723 639.617754534366 L 101.9266311794945 645.7402211835999 Z" /><text  class="poloto_labels poloto_text poloto_title" alignment-baseline="start" text-anchor="middle" font-size="x-large" x="250" y="37.5" >Heart Graph</text><text  class="poloto_labels poloto_text poloto_xname" alignment-baseline="start" text-anchor="middle" font-size="x-large" x="250" y="781.25" >x</text><text  class="poloto_labels poloto_text poloto_yname" alignment-baseline="start" text-anchor="middle" font-size="x-large" transform="rotate(-90,37.5,400)" x="37.5" y="400" >y</text><text  class="poloto_tick_labels poloto_text" alignment-baseline="middle" text-anchor="start" x="275" y="70" ></text><line  class="poloto_axis_lines" stroke="black" x1="-200" x2="-200" y1="700" y2="705" /><text  class="poloto_tick_labels poloto_text" alignment-baseline="start" text-anchor="middle" x="-200" y="730" >-20</text><line  class="poloto_axis_lines" stroke="black" x1="-50" x2="-50" y1="700" y2="705" /><text  class="poloto_tick_labels poloto_text" alignment-baseline="start" text-anchor="middle" x="-50" y="730" >-10</text><line  class="poloto_axis_lines" stroke="black" x1="100" x2="100" y1="700" y2="705" /><text  class="poloto_tick_labels poloto_text" alignment-baseline="start" text-anchor="middle" x="100" y="730" >0</text><line  class="poloto_axis_lines" stroke="black" x1="250" x2="250" y1="700" y2="705" /><text  class="poloto_tick_labels poloto_text" alignment-baseline="start" text-anchor="middle" x="250" y="730" >10</text><line  class="poloto_axis_lines" stroke="black" x1="400" x2="400" y1="700" y2="705" /><text  class="poloto_tick_labels poloto_text" alignment-baseline="start" text-anchor="middle" x="400" y="730" >20</text><text  class="poloto_tick_labels poloto_text" alignment-baseline="middle" text-anchor="start" x="150" y="70" ></text><line  class="poloto_axis_lines" stroke="black" x1="-200" x2="-206" y1="700" y2="700" /><text  class="poloto_tick_labels poloto_text" alignment-baseline="middle" text-anchor="end" x="-215" y="700" >-20</text><line  class="poloto_axis_lines" stroke="black" x1="-200" x2="-206" y1="550" y2="550" /><text  class="poloto_tick_labels poloto_text" alignment-baseline="middle" text-anchor="end" x="-215" y="550" >-10</text><line  class="poloto_axis_lines" stroke="black" x1="-200" x2="-206" y1="400" y2="400" /><text  class="poloto_tick_labels poloto_text" alignment-baseline="middle" text-anchor="end" x="-215" y="400" >0</text><line  class="poloto_axis_lines" stroke="black" x1="-200" x2="-206" y1="250" y2="250" /><text  class="poloto_tick_labels poloto_text" alignment-baseline="middle" text-anchor="end" x="-215" y="250" >10</text><line  class="poloto_axis_lines" stroke="black" x1="-200" x2="-206" y1="100" y2="100" /><text  class="poloto_tick_labels poloto_text" alignment-baseline="middle" text-anchor="end" x="-215" y="100" >20</text><path  stroke="black" fill="none" class="poloto_axis_lines" style="stroke-dasharray:7.5;stroke-dashoffset:-0;" d=" M -200 700 L 400 700" /><path  stroke="black" fill="none" class="poloto_axis_lines" style="stroke-dasharray:7.5;stroke-dashoffset:-0;" d=" M -200 700 L -200 100" /></svg>
