<svg class="poloto" width="800" height="500" viewBox="0 0 800 500" xmlns="http://www.w3.org/2000/svg"><style>.poloto { stroke-linecap:round; stroke-linejoin:round; font-family: 'Tahoma', sans-serif; background-color: AliceBlue;} .poloto_scatter{stroke-width:7} .poloto_line{stroke-width:2} .poloto_text{fill: black;} .poloto_axis_lines{stroke: black;stroke-width:3;fill:none;stroke-dasharray:none} .poloto0stroke{stroke:  blue;} .poloto1stroke{stroke:  red;} .poloto2stroke{stroke:  green;} .poloto3stroke{stroke:  gold;} .poloto4stroke{stroke:  aqua;} .poloto5stroke{stroke:  lime;} .poloto6stroke{stroke:  orange;} .poloto7stroke{stroke:  chocolate;} .poloto0fill{fill:blue;} .poloto1fill{fill:red;} .poloto2fill{fill:green;} .poloto3fill{fill:gold;} .poloto4fill{fill:aqua;} .poloto5fill{fill:lime;} .poloto6fill{fill:orange;} .poloto7fill{fill:chocolate;}</style><text  class="poloto_text poloto_legend_text" alignment-baseline="middle" text-anchor="start" font-size="large" x="675" y="100" ></text><g  class="poloto_histo poloto0fill" ><rect  x="150" y="400" width="18.739130433648825" height="0" /><rect  x="171.73913043364882" y="400" width="18.73913043551147" height="0" /><rect  x="193.4782608691603" y="400" width="18.739130433648825" height="0" /><rect  x="215.21739130280912" y="400" width="18.73913043551147" height="0" /><rect  x="236.9565217383206" y="400" width="18.73913043551147" height="0" /><rect  x="258.69565217383206" y="387.14285714285717" width="18.739130433648825" height="12.857142857142833" /><rect  x="280.4347826074809" y="378.57142857142856" width="18.73913043551147" height="21.428571428571445" /><rect  x="302.17391304299235" y="378.57142857142856" width="18.73913043551147" height="21.428571428571445" /><rect  x="323.9130434785038" y="357.14285714285717" width="18.739130433648825" height="42.85714285714283" /><rect  x="345.65217391215265" y="314.2857142857143" width="18.73913043551147" height="85.71428571428572" /><rect  x="367.3913043476641" y="185.71428571428572" width="18.739130433648825" height="214.28571428571428" /><rect  x="389.13043478131294" y="142.8571428571429" width="18.73913043551147" height="257.1428571428571" /><rect  x="410.8695652168244" y="100" width="18.73913043551147" height="300" /><rect  x="432.6086956523359" y="185.71428571428572" width="18.739130433648825" height="214.28571428571428" /><rect  x="454.3478260859847" y="228.57142857142858" width="18.73913043551147" height="171.42857142857142" /><rect  x="476.0869565214962" y="254.28571428571428" width="18.739130433648825" height="145.71428571428572" /><rect  x="497.826086955145" y="254.28571428571428" width="18.73913043551147" height="145.71428571428572" /><rect  x="519.5652173906565" y="314.2857142857143" width="18.73913043551147" height="85.71428571428572" /><rect  x="541.3043478261679" y="357.14285714285717" width="18.739130433648825" height="42.85714285714283" /><rect  x="563.0434782598168" y="314.2857142857143" width="18.73913043551147" height="85.71428571428572" /><rect  x="584.7826086953282" y="357.14285714285717" width="18.739130433648825" height="42.85714285714283" /><rect  x="606.5217391289771" y="382.85714285714283" width="18.73913043551147" height="17.142857142857167" /><rect  x="628.2608695644885" y="391.42857142857144" width="18.73913043551147" height="8.571428571428555" /></g><text  class="poloto_labels poloto_text poloto_title" alignment-baseline="start" text-anchor="middle" font-size="x-large" x="400" y="37.5" >Number of rides at theme park hourly</text><text  class="poloto_labels poloto_text poloto_xname" alignment-baseline="start" text-anchor="middle" font-size="x-large" x="400" y="481.25" >Hour</text><text  class="poloto_labels poloto_text poloto_yname" alignment-baseline="start" text-anchor="middle" font-size="x-large" transform="rotate(-90,37.5,250)" x="37.5" y="250" >Number of rides</text><line  class="poloto_axis_lines" stroke="black" x1="150" x2="150" y1="400" y2="405" /><text  class="poloto_tick_labels poloto_text" alignment-baseline="start" text-anchor="middle" x="150" y="430" >0</text><line  class="poloto_axis_lines" stroke="black" x1="236.9565217383206" x2="236.9565217383206" y1="400" y2="405" /><text  class="poloto_tick_labels poloto_text" alignment-baseline="start" text-anchor="middle" x="236.9565217383206" y="430" >4</text><line  class="poloto_axis_lines" stroke="black" x1="323.9130434785038" x2="323.9130434785038" y1="400" y2="405" /><text  class="poloto_tick_labels poloto_text" alignment-baseline="start" text-anchor="middle" x="323.9130434785038" y="430" >8</text><line  class="poloto_axis_lines" stroke="black" x1="410.8695652168244" x2="410.8695652168244" y1="400" y2="405" /><text  class="poloto_tick_labels poloto_text" alignment-baseline="start" text-anchor="middle" x="410.8695652168244" y="430" >12</text><line  class="poloto_axis_lines" stroke="black" x1="497.826086955145" x2="497.826086955145" y1="400" y2="405" /><text  class="poloto_tick_labels poloto_text" alignment-baseline="start" text-anchor="middle" x="497.826086955145" y="430" >16</text><line  class="poloto_axis_lines" stroke="black" x1="584.7826086953282" x2="584.7826086953282" y1="400" y2="405" /><text  class="poloto_tick_labels poloto_text" alignment-baseline="start" text-anchor="middle" x="584.7826086953282" y="430" >20</text><line  class="poloto_axis_lines" stroke="black" x1="150" x2="144" y1="400" y2="400" /><text  class="poloto_tick_labels poloto_text" alignment-baseline="middle" text-anchor="end" x="135" y="400" >0</text><line  class="poloto_axis_lines" stroke="black" x1="150" x2="144" y1="314.2857142857143" y2="314.2857142857143" /><text  class="poloto_tick_labels poloto_text" alignment-baseline="middle" text-anchor="end" x="135" y="314.2857142857143" >20</text><line  class="poloto_axis_lines" stroke="black" x1="150" x2="144" y1="228.57142857142856" y2="228.57142857142856" /><text  class="poloto_tick_labels poloto_text" alignment-baseline="middle" text-anchor="end" x="135" y="228.57142857142856" >40</text><line  class="poloto_axis_lines" stroke="black" x1="150" x2="144" y1="142.8571428571429" y2="142.8571428571429" /><text  class="poloto_tick_labels poloto_text" alignment-baseline="middle" text-anchor="end" x="135" y="142.8571428571429" >60</text><path  stroke="black" fill="none" class="poloto_axis_lines" d=" M 150 400 L 650 400" /><path  stroke="black" fill="none" class="poloto_axis_lines" style="stroke-dasharray:10.714285714285714;stroke-dashoffset:-0;" d=" M 150 400 L 150 100" /></svg>
