<svg class="poloto" width="800" height="500" viewBox="0 0 800 500" xmlns="http://www.w3.org/2000/svg"><style>.poloto{stroke-linecap:round;stroke-linejoin:round;font-family:Roboto,sans-serif;font-size:16px;}.poloto_background{fill:#262626;}.poloto_scatter{stroke-width:7}.poloto_tick_line{stroke:dimgray;stroke-width:0.5}.poloto_line{stroke-width:2}.poloto_text{fill: white;}.poloto_axis_lines{stroke: white;stroke-width:3;fill:none;stroke-dasharray:none}.poloto_title{font-size:24px;dominant-baseline:start;text-anchor:middle;}.poloto_xname{font-size:24px;dominant-baseline:start;text-anchor:middle;}.poloto_yname{font-size:24px;dominant-baseline:start;text-anchor:middle;}.poloto0stroke{stroke:blue;}.poloto1stroke{stroke:red;}.poloto2stroke{stroke:green;}.poloto3stroke{stroke:gold;}.poloto4stroke{stroke:aqua;}.poloto5stroke{stroke:lime;}.poloto6stroke{stroke:orange;}.poloto7stroke{stroke:chocolate;}.poloto0fill{fill:blue;}.poloto1fill{fill:red;}.poloto2fill{fill:green;}.poloto3fill{fill:gold;}.poloto4fill{fill:aqua;}.poloto5fill{fill:lime;}.poloto6fill{fill:orange;}.poloto7fill{fill:chocolate;}.poloto_scatter{stroke-width:33;}.poloto_scatter.poloto_legend_icon{stroke-width:10}</style><circle  r="1e5" class="poloto_background" /><text  class="poloto_text poloto_legend_text" x="675" y="100" >a</text><line  class="poloto_scatter poloto_legend_icon poloto0stroke poloto0legend" stroke="black" x1="685" x2="685" y1="81.25" y2="81.25" /><path  class="poloto_scatter poloto0stroke" d=" M 150.00 100.00 h 0 M 167.24 108.26 h 0 M 184.48 132.13 h 0 M 201.72 168.99 h 0 M 218.97 214.77 h 0 M 236.21 264.44 h 0 M 253.45 312.53 h 0 M 270.69 353.75 h 0 M 287.93 383.55 h 0 M 305.17 398.65 h 0 M 322.41 397.41 h 0 M 339.66 379.94 h 0 M 356.90 348.18 h 0 M 374.14 305.61 h 0 M 391.38 256.94 h 0 M 408.62 207.51 h 0 M 425.86 162.76 h 0 M 443.10 127.63 h 0 M 460.34 105.98 h 0 M 477.59 100.19 h 0 M 494.83 110.90 h 0 M 512.07 136.93 h 0 M 529.31 175.42 h 0 M 546.55 222.13 h 0 M 563.79 271.91 h 0 M 581.03 319.30 h 0 M 598.28 359.06 h 0 M 615.52 386.82 h 0 M 632.76 399.53 h 0 M 650.00 395.79 h 0" /><text  class="poloto_text poloto_legend_text" x="675" y="150" >b</text><line  class="poloto_line poloto_legend_icon poloto1stroke poloto1legend" stroke="black" x1="680" x2="730" y1="131.25" y2="131.25" /><path  class="poloto_line poloto1stroke" fill="none" stroke="black" d=" M 150.00 250.08 L 167.24 200.97 L 184.48 157.27 L 201.72 123.79 L 218.97 104.21 L 236.21 100.69 L 253.45 113.61 L 270.69 141.56 L 287.93 181.45 L 305.17 228.90 L 322.41 278.68 L 339.66 325.31 L 356.90 363.66 L 374.14 389.50 L 391.38 400.00 L 408.62 393.99 L 425.86 372.14 L 443.10 336.85 L 460.34 292.01 L 477.59 242.56 L 494.83 193.93 L 512.07 151.48 L 529.31 119.89 L 546.55 102.63 L 563.79 101.60 L 581.03 116.91 L 598.28 146.89 L 615.52 188.23 L 632.76 236.37 L 650.00 286.03" /><text  class="poloto_labels poloto_text poloto_title" x="400" y="37.5" >cows per year</text><text  class="poloto_labels poloto_text poloto_xname" x="400" y="481.25" >year</text><text  class="poloto_labels poloto_text poloto_yname" transform="rotate(-90,37.5,250)" x="37.5" y="250" >cows</text><text  class="poloto_tick_labels poloto_text" dominant-baseline="middle" text-anchor="start" x="150" y="70" ></text><line  class="poloto_axis_lines" stroke="black" x1="150" x2="144" y1="325.1176332947556" y2="325.1176332947556" /><text  class="poloto_tick_labels poloto_text" dominant-baseline="middle" text-anchor="end" x="135" y="325.1176332947556" >-0.5</text><line  class="poloto_axis_lines" stroke="black" x1="150" x2="144" y1="250.07842219650377" y2="250.07842219650377" /><text  class="poloto_tick_labels poloto_text" dominant-baseline="middle" text-anchor="end" x="135" y="250.07842219650377" >0.0</text><line  class="poloto_axis_lines" stroke="black" x1="150" x2="144" y1="175.03921109825188" y2="175.03921109825188" /><text  class="poloto_tick_labels poloto_text" dominant-baseline="middle" text-anchor="end" x="135" y="175.03921109825188" >0.5</text><line  class="poloto_axis_lines" stroke="black" x1="150" x2="144" y1="100" y2="100" /><text  class="poloto_tick_labels poloto_text" dominant-baseline="middle" text-anchor="end" x="135" y="100" >1.0</text><text  class="poloto_tick_labels poloto_text" dominant-baseline="middle" text-anchor="start" x="440.00000000000006" y="70" ></text><line  class="poloto_axis_lines" stroke="black" x1="150" x2="150" y1="400" y2="405" /><text  class="poloto_tick_labels poloto_text" dominant-baseline="start" text-anchor="middle" x="150" y="430" >0</text><line  class="poloto_axis_lines" stroke="black" x1="253.44827586206895" x2="253.44827586206895" y1="400" y2="405" /><text  class="poloto_tick_labels poloto_text" dominant-baseline="start" text-anchor="middle" x="253.44827586206895" y="430" >2</text><line  class="poloto_axis_lines" stroke="black" x1="356.8965517241379" x2="356.8965517241379" y1="400" y2="405" /><text  class="poloto_tick_labels poloto_text" dominant-baseline="start" text-anchor="middle" x="356.8965517241379" y="430" >4</text><line  class="poloto_axis_lines" stroke="black" x1="460.3448275862069" x2="460.3448275862069" y1="400" y2="405" /><text  class="poloto_tick_labels poloto_text" dominant-baseline="start" text-anchor="middle" x="460.3448275862069" y="430" >6</text><line  class="poloto_axis_lines" stroke="black" x1="563.7931034482758" x2="563.7931034482758" y1="400" y2="405" /><text  class="poloto_tick_labels poloto_text" dominant-baseline="start" text-anchor="middle" x="563.7931034482758" y="430" >8</text><path  stroke="black" fill="none" class="poloto_axis_lines" style="stroke-dasharray:12.931034482758621;stroke-dashoffset:-0;" d=" M 150 400 L 650 400" /><path  stroke="black" fill="none" class="poloto_axis_lines" style="stroke-dasharray:7.503921109825187;stroke-dashoffset:-74.8823667052444;" d=" M 150 400 L 150 100" /></svg>