<svg class="poloto" width="800" height="500" viewBox="0 0 800 500" xmlns="http://www.w3.org/2000/svg"><style>.poloto { stroke-linecap:round; stroke-linejoin:round; font-family: Roboto,sans-serif ; font-size:16px; } .poloto_background{fill:AliceBlue;} .poloto_scatter{stroke-width:7} .poloto_tick_line{stroke:gray;stroke-width:0.5} .poloto_line{stroke-width:2} .poloto_text{fill: black;} .poloto_axis_lines{stroke: black;stroke-width:3;fill:none;stroke-dasharray:none} .poloto_title{font-size:24px;dominant-baseline:start;text-anchor:middle;} .poloto_xname{font-size:24px;dominant-baseline:start;text-anchor:middle;} .poloto_yname{font-size:24px;dominant-baseline:start;text-anchor:middle;} .poloto_legend_text{font-size:20px;dominant-baseline:middle;text-anchor:start;}.poloto0stroke{stroke:  blue;} .poloto1stroke{stroke:  red;} .poloto2stroke{stroke:  green;} .poloto3stroke{stroke:  gold;} .poloto4stroke{stroke:  aqua;} .poloto5stroke{stroke:  lime;} .poloto6stroke{stroke:  orange;} .poloto7stroke{stroke:  chocolate;} .poloto0fill{fill:blue;} .poloto1fill{fill:red;} .poloto2fill{fill:green;} .poloto3fill{fill:gold;} .poloto4fill{fill:aqua;} .poloto5fill{fill:lime;} .poloto6fill{fill:orange;} .poloto7fill{fill:chocolate;}</style><circle  r="1e5" class="poloto_background" /><text  class="poloto_text poloto_legend_text" x="675" y="100" >tan(x)</text><rect  class="poloto_linefill poloto_legend_icon poloto0fill poloto0legend" x="680" y="76.25" width="50" height="7.5" rx="5" ry="5" /><path  class="poloto_linefill poloto0fill" d=" M 150.00 399.89 M 150.00 400.00 L 150.00 399.89 L 151.47 399.21 L 152.93 398.53 L 154.40 397.85 L 155.87 397.17 L 157.33 396.48 L 158.80 395.79 L 160.26 395.10 L 161.73 394.40 L 163.20 393.70 L 164.66 392.99 L 166.13 392.27 L 167.60 391.55 L 169.06 390.82 L 170.53 390.08 L 171.99 389.34 L 173.46 388.58 L 174.93 387.81 L 176.39 387.03 L 177.86 386.24 L 179.33 385.43 L 180.79 384.61 L 182.26 383.78 L 183.72 382.93 L 185.19 382.06 L 186.66 381.17 L 188.12 380.26 L 189.59 379.33 L 191.06 378.37 L 192.52 377.39 L 193.99 376.38 L 195.45 375.35 L 196.92 374.28 L 198.39 373.18 L 199.85 372.04 L 201.32 370.86 L 202.79 369.65 L 204.25 368.38 L 205.72 367.07 L 207.18 365.70 L 208.65 364.28 L 210.12 362.80 L 211.58 361.25 L 213.05 359.62 L 214.52 357.91 L 215.98 356.12 L 217.45 354.23 L 218.91 352.23 L 220.38 350.12 L 221.85 347.88 L 223.31 345.49 L 224.78 342.94 L 226.25 340.22 L 227.71 337.29 L 229.18 334.14 L 230.65 330.73 L 232.11 327.02 L 233.58 322.99 L 235.04 318.56 L 236.51 313.68 L 237.98 308.28 L 239.44 302.26 L 240.91 295.50 L 242.38 287.84 L 243.84 279.09 L 245.31 269.00 L 246.77 257.20 L 248.24 243.23 L 249.71 226.40 L 251.17 205.72 L 252.64 179.67 L 254.11 145.82 L 255.57 100.00 L 255.57 400.00 M 380.21 399.95 L 381.67 399.27 L 383.14 398.59 L 384.60 397.91 L 386.07 397.22 L 387.54 396.54 L 389.00 395.85 L 390.47 395.15 L 391.94 394.46 L 393.40 393.75 L 394.87 393.05 L 396.33 392.33 L 397.80 391.61 L 399.27 390.88 L 400.73 390.14 L 402.20 389.40 L 403.67 388.64 L 405.13 387.87 L 406.60 387.09 L 408.06 386.30 L 409.53 385.50 L 411.00 384.68 L 412.46 383.85 L 413.93 383.00 L 415.40 382.13 L 416.86 381.24 L 418.33 380.33 L 419.79 379.40 L 421.26 378.45 L 422.73 377.47 L 424.19 376.46 L 425.66 375.43 L 427.13 374.37 L 428.59 373.27 L 430.06 372.13 L 431.52 370.96 L 432.99 369.74 L 434.46 368.48 L 435.92 367.18 L 437.39 365.82 L 438.86 364.40 L 440.32 362.92 L 441.79 361.37 L 443.26 359.75 L 444.72 358.05 L 446.19 356.27 L 447.65 354.38 L 449.12 352.40 L 450.59 350.29 L 452.05 348.06 L 453.52 345.69 L 454.99 343.15 L 456.45 340.44 L 457.92 337.53 L 459.38 334.40 L 460.85 331.01 L 462.32 327.33 L 463.78 323.32 L 465.25 318.93 L 466.72 314.09 L 468.18 308.73 L 469.65 302.77 L 471.11 296.07 L 472.58 288.49 L 474.05 279.83 L 475.51 269.86 L 476.98 258.21 L 478.45 244.44 L 479.91 227.87 L 481.38 207.54 L 482.84 181.99 L 484.31 148.88 L 485.78 104.23 L 485.78 400.00 M 610.41 400.00 L 611.88 399.32 L 613.34 398.64 L 614.81 397.96 L 616.28 397.28 L 617.74 396.59 L 619.21 395.90 L 620.67 395.21 L 622.14 394.51 L 623.61 393.81 L 625.07 393.10 L 626.54 392.39 L 628.01 391.67 L 629.47 390.94 L 630.94 390.20 L 632.40 389.46 L 633.87 388.70 L 635.34 387.93 L 636.80 387.16 L 638.27 386.37 L 639.74 385.56 L 641.20 384.75 L 642.67 383.91 L 644.13 383.06 L 645.60 382.20 L 647.07 381.31 L 648.53 380.40 L 650.00 379.48 L 650.00 400.00 Z" /><text  class="poloto_labels poloto_text poloto_title" x="400" y="37.5" >from 3.16 to 9.98</text><text  class="poloto_labels poloto_text poloto_xname" x="400" y="481.25" >This is the x label</text><text  class="poloto_labels poloto_text poloto_yname" transform="rotate(-90,37.5,250)" x="37.5" y="250" >This is the y label</text><text  class="poloto_tick_labels poloto_text" dominant-baseline="middle" text-anchor="start" x="440.00000000000006" y="70" ></text><line  class="poloto_axis_lines" stroke="black" x1="211.58357771260995" x2="211.58357771260995" y1="400" y2="405" /><text  class="poloto_tick_labels poloto_text" dominant-baseline="start" text-anchor="middle" x="211.58357771260995" y="430" >4</text><line  class="poloto_axis_lines" stroke="black" x1="284.8973607038123" x2="284.8973607038123" y1="400" y2="405" /><text  class="poloto_tick_labels poloto_text" dominant-baseline="start" text-anchor="middle" x="284.8973607038123" y="430" >5</text><line  class="poloto_axis_lines" stroke="black" x1="358.21114369501464" x2="358.21114369501464" y1="400" y2="405" /><text  class="poloto_tick_labels poloto_text" dominant-baseline="start" text-anchor="middle" x="358.21114369501464" y="430" >6</text><line  class="poloto_axis_lines" stroke="black" x1="431.52492668621704" x2="431.52492668621704" y1="400" y2="405" /><text  class="poloto_tick_labels poloto_text" dominant-baseline="start" text-anchor="middle" x="431.52492668621704" y="430" >7</text><line  class="poloto_axis_lines" stroke="black" x1="504.83870967741933" x2="504.83870967741933" y1="400" y2="405" /><text  class="poloto_tick_labels poloto_text" dominant-baseline="start" text-anchor="middle" x="504.83870967741933" y="430" >8</text><line  class="poloto_axis_lines" stroke="black" x1="578.1524926686216" x2="578.1524926686216" y1="400" y2="405" /><text  class="poloto_tick_labels poloto_text" dominant-baseline="start" text-anchor="middle" x="578.1524926686216" y="430" >9</text><text  class="poloto_tick_labels poloto_text" dominant-baseline="middle" text-anchor="start" x="150" y="70" ></text><line  class="poloto_axis_lines" stroke="black" x1="150" x2="144" y1="332.68103015270617" y2="332.68103015270617" /><text  class="poloto_tick_labels poloto_text" dominant-baseline="middle" text-anchor="end" x="135" y="332.68103015270617" >2</text><line  class="poloto_axis_lines" stroke="black" x1="150" x2="144" y1="264.84572458336515" y2="264.84572458336515" /><text  class="poloto_tick_labels poloto_text" dominant-baseline="middle" text-anchor="end" x="135" y="264.84572458336515" >4</text><line  class="poloto_axis_lines" stroke="black" x1="150" x2="144" y1="197.01041901402414" y2="197.01041901402414" /><text  class="poloto_tick_labels poloto_text" dominant-baseline="middle" text-anchor="end" x="135" y="197.01041901402414" >6</text><line  class="poloto_axis_lines" stroke="black" x1="150" x2="144" y1="129.17511344468306" y2="129.17511344468306" /><text  class="poloto_tick_labels poloto_text" dominant-baseline="middle" text-anchor="end" x="135" y="129.17511344468306" >8</text><path  stroke="black" fill="none" class="poloto_axis_lines" style="stroke-dasharray:7.331378299120234;stroke-dashoffset:-61.58357771260995;" d=" M 150 400 L 650 400" /><path  stroke="black" fill="none" class="poloto_axis_lines" style="stroke-dasharray:8.47941319616763;stroke-dashoffset:-67.31896984729381;" d=" M 150 400 L 150 100.00000000000006" /></svg>