<svg  class="poloto"  width="1200"  height="500"  viewBox="0 0 1200 500"  xmlns="http://www.w3.org/2000/svg" ><style  > .poloto{stroke-linecap:round;stroke-linejoin:round;font-family:Roboto,sans-serif;font-size:16px;}.poloto_background{fill:#262626;}.poloto_scatter{stroke-width:7}.poloto_tick_line{stroke:dimgray;stroke-width:0.5}.poloto_line{stroke-width:2}.poloto_text{fill: white;}.poloto_axis_lines{stroke: white;stroke-width:3;fill:none;stroke-dasharray:none}.poloto_title{font-size:24px;dominant-baseline:start;text-anchor:middle;}.poloto_xname{font-size:24px;dominant-baseline:start;text-anchor:middle;}.poloto_yname{font-size:24px;dominant-baseline:start;text-anchor:middle;}.poloto0stroke{stroke:blue;}.poloto1stroke{stroke:red;}.poloto2stroke{stroke:green;}.poloto3stroke{stroke:gold;}.poloto4stroke{stroke:aqua;}.poloto5stroke{stroke:lime;}.poloto6stroke{stroke:orange;}.poloto7stroke{stroke:chocolate;}.poloto0fill{fill:blue;}.poloto1fill{fill:red;}.poloto2fill{fill:green;}.poloto3fill{fill:gold;}.poloto4fill{fill:aqua;}.poloto5fill{fill:lime;}.poloto6fill{fill:orange;}.poloto7fill{fill:chocolate;}</style><circle  r="1e5"  class="poloto_background" /><text  class="poloto_text poloto_legend_text"  x="675"  y="100" >Some notes here</text><text  class="poloto_text poloto_legend_text"  x="675"  y="150" >c(1000) The quick brown fox jumps over the lazy dog</text><line  class="poloto_line poloto_legend_icon poloto0stroke poloto0legend"  stroke="black"  x1="680"  x2="730"  y1="131.25"  y2="131.25" /><path  class="poloto_line poloto0stroke"  fill="none"  stroke="black"  d=" M 150.00 393.08 L 153.55 396.54 L 157.09 398.27 L 160.64 394.80 L 164.18 397.40 L 167.73 398.70 L 171.28 399.35 L 174.82 398.04 L 178.37 399.02 L 181.91 397.04 L 185.46 398.52 L 189.01 395.55 L 192.55 397.77 L 196.10 393.31 L 199.65 396.65 L 203.19 398.33 L 206.74 394.96 L 210.28 397.48 L 213.83 398.74 L 217.38 396.21 L 220.92 398.10 L 224.47 394.30 L 228.01 397.15 L 231.56 398.58 L 235.11 395.71 L 238.65 397.86 L 242.20 393.55 L 245.74 396.78 L 249.29 390.32 L 252.84 395.16 L 256.38 397.58 L 259.93 392.72 L 263.48 396.36 L 267.02 389.07 L 270.57 394.54 L 274.11 383.59 L 277.66 391.80 L 281.21 375.38 L 284.75 387.69 L 288.30 393.84 L 291.84 381.52 L 295.39 390.76 L 298.94 395.38 L 302.48 397.69 L 306.03 393.06 L 309.57 396.53 L 313.12 389.57 L 316.67 394.79 L 320.21 384.34 L 323.76 392.17 L 327.30 396.09 L 330.85 388.24 L 334.40 394.12 L 337.94 382.35 L 341.49 391.17 L 345.04 395.59 L 348.58 386.75 L 352.13 393.37 L 355.67 380.11 L 359.22 390.05 L 362.77 370.15 L 366.31 385.07 L 369.86 355.21 L 373.40 377.61 L 376.95 332.80 L 380.50 366.40 L 384.04 299.19 L 387.59 349.59 L 391.13 374.80 L 394.68 387.40 L 398.23 362.18 L 401.77 381.09 L 405.32 343.26 L 408.87 371.63 L 412.41 314.87 L 415.96 357.44 L 419.50 272.30 L 423.05 336.15 L 426.60 368.07 L 430.14 384.04 L 433.69 392.02 L 437.23 376.04 L 440.78 388.02 L 444.33 394.01 L 447.87 382.02 L 451.42 391.01 L 454.96 395.50 L 458.51 386.50 L 462.06 393.25 L 465.60 396.62 L 469.15 398.31 L 472.70 399.16 L 476.24 397.45 L 479.79 398.73 L 483.33 399.36 L 486.88 399.68 L 490.43 399.03 L 493.97 399.52 L 497.52 398.53 L 501.06 399.27 L 504.61 397.79 L 508.16 398.89 L 511.70 399.45 L 515.25 399.72 L 518.79 399.86 L 522.34 399.93 L 525.89 399.78 L 529.43 399.89 L 532.98 399.94 L 536.52 399.97 L 540.07 399.99" /><text  class="poloto_text poloto_legend_text"  x="675"  y="200" >c(1001) The quick brown fox jumps over the lazy dog</text><line  class="poloto_line poloto_legend_icon poloto1stroke poloto1legend"  stroke="black"  x1="680"  x2="730"  y1="181.25"  y2="181.25" /><path  class="poloto_line poloto1stroke"  fill="none"  stroke="black"  d=" M 150.00 358.45 L 153.55 379.22 L 157.09 389.61 L 160.64 368.82 L 164.18 384.41 L 167.73 353.22 L 171.28 376.61 L 174.82 329.81 L 178.37 364.91 L 181.91 294.71 L 185.46 347.35 L 189.01 373.68 L 192.55 321.02 L 196.10 360.51 L 199.65 281.51 L 203.19 340.76 L 206.74 222.25 L 210.28 311.13 L 213.83 133.36 L 217.38 266.68 L 220.92 333.34 L 224.47 200.01 L 228.01 300.00 L 231.56 100.00 L 235.11 250.00 L 238.65 325.00 L 242.20 362.50 L 245.74 287.49 L 249.29 343.74 L 252.84 231.22 L 256.38 315.61 L 259.93 146.81 L 263.48 273.40 L 267.02 336.70 L 270.57 368.35 L 274.11 384.18 L 277.66 392.09 L 281.21 396.04 L 284.75 398.02 L 288.30 394.05 L 291.84 397.03 L 295.39 391.06 L 298.94 395.53 L 302.48 386.58 L 306.03 393.29 L 309.57 379.86 L 313.12 389.93 L 316.67 394.96 L 320.21 397.48 L 323.76 398.74 L 327.30 396.21 L 330.85 398.10 L 334.40 394.30 L 337.94 397.15 L 341.49 398.58 L 345.04 395.71 L 348.58 397.86 L 352.13 393.55 L 355.67 396.78 L 359.22 390.32 L 362.77 395.16 L 366.31 397.58 L 369.86 392.72 L 373.40 396.36 L 376.95 389.07 L 380.50 394.54 L 384.04 383.59 L 387.59 391.80 L 391.13 375.38 L 394.68 387.69 L 398.23 393.84 L 401.77 381.52 L 405.32 390.76 L 408.87 395.38 L 412.41 397.69 L 415.96 393.06 L 419.50 396.53 L 423.05 389.57 L 426.60 394.79 L 430.14 384.34 L 433.69 392.17 L 437.23 396.09 L 440.78 388.24 L 444.33 394.12 L 447.87 382.35 L 451.42 391.17 L 454.96 395.59 L 458.51 386.75 L 462.06 393.37 L 465.60 380.11 L 469.15 390.05 L 472.70 370.15 L 476.24 385.07 L 479.79 355.21 L 483.33 377.61 L 486.88 332.80 L 490.43 366.40 L 493.97 299.19 L 497.52 349.59 L 501.06 374.80 L 504.61 387.40 L 508.16 362.18 L 511.70 381.09 L 515.25 343.26 L 518.79 371.63 L 522.34 314.87 L 525.89 357.44 L 529.43 272.30 L 532.98 336.15 L 536.52 368.07 L 540.07 384.04 L 543.62 392.02 L 547.16 376.04 L 550.71 388.02 L 554.26 394.01 L 557.80 382.02 L 561.35 391.01 L 564.89 395.50 L 568.44 386.50 L 571.99 393.25 L 575.53 396.62 L 579.08 398.31 L 582.62 399.16 L 586.17 397.45 L 589.72 398.73 L 593.26 399.36 L 596.81 399.68 L 600.35 399.03 L 603.90 399.52 L 607.45 398.53 L 610.99 399.27 L 614.54 397.79 L 618.09 398.89 L 621.63 399.45 L 625.18 399.72 L 628.72 399.86 L 632.27 399.93 L 635.82 399.78 L 639.36 399.89 L 642.91 399.94 L 646.45 399.97 L 650.00 399.99" /><text  class="poloto_text poloto_legend_text"  x="675"  y="250" > 🍆 Here is a note using the text() function.🍎</text><text  class="poloto_text poloto_legend_text"  x="675"  y="300" >c(1002) The quick brown fox jumps over the lazy dog</text><line  class="poloto_line poloto_legend_icon poloto2stroke poloto2legend"  stroke="black"  x1="680"  x2="730"  y1="281.25"  y2="281.25" /><path  class="poloto_line poloto2stroke"  fill="none"  stroke="black"  d=" M 150.00 393.07 L 153.55 379.20 L 157.09 389.60 L 160.64 394.80 L 164.18 397.40 L 167.73 398.70 L 171.28 399.35 L 174.82 398.04 L 178.37 399.02 L 181.91 397.04 L 185.46 398.52 L 189.01 395.55 L 192.55 397.77 L 196.10 393.31 L 199.65 396.65 L 203.19 398.33 L 206.74 394.96 L 210.28 397.48 L 213.83 398.74 L 217.38 396.21 L 220.92 398.10 L 224.47 394.30 L 228.01 397.15 L 231.56 398.58 L 235.11 395.71 L 238.65 397.86 L 242.20 393.55 L 245.74 396.78 L 249.29 390.32 L 252.84 395.16 L 256.38 397.58 L 259.93 392.72 L 263.48 396.36 L 267.02 389.07 L 270.57 394.54 L 274.11 383.59 L 277.66 391.80 L 281.21 375.38 L 284.75 387.69 L 288.30 393.84 L 291.84 381.52 L 295.39 390.76 L 298.94 395.38 L 302.48 397.69 L 306.03 393.06 L 309.57 396.53 L 313.12 389.57 L 316.67 394.79 L 320.21 384.34 L 323.76 392.17 L 327.30 396.09 L 330.85 388.24 L 334.40 394.12 L 337.94 382.35 L 341.49 391.17 L 345.04 395.59 L 348.58 386.75 L 352.13 393.37 L 355.67 380.11 L 359.22 390.05 L 362.77 370.15 L 366.31 385.07 L 369.86 355.21 L 373.40 377.61 L 376.95 332.80 L 380.50 366.40 L 384.04 299.19 L 387.59 349.59 L 391.13 374.80 L 394.68 387.40 L 398.23 362.18 L 401.77 381.09 L 405.32 343.26 L 408.87 371.63 L 412.41 314.87 L 415.96 357.44 L 419.50 272.30 L 423.05 336.15 L 426.60 368.07 L 430.14 384.04 L 433.69 392.02 L 437.23 376.04 L 440.78 388.02 L 444.33 394.01 L 447.87 382.02 L 451.42 391.01 L 454.96 395.50 L 458.51 386.50 L 462.06 393.25 L 465.60 396.62 L 469.15 398.31 L 472.70 399.16 L 476.24 397.45 L 479.79 398.73 L 483.33 399.36 L 486.88 399.68 L 490.43 399.03 L 493.97 399.52 L 497.52 398.53 L 501.06 399.27 L 504.61 397.79 L 508.16 398.89 L 511.70 399.45 L 515.25 399.72 L 518.79 399.86 L 522.34 399.93 L 525.89 399.78 L 529.43 399.89 L 532.98 399.94 L 536.52 399.97 L 540.07 399.99" /><text  class="poloto_labels poloto_text poloto_title"  x="400"  y="37.5" >collatz</text><text  class="poloto_labels poloto_text poloto_xname"  x="400"  y="481.25" >x</text><text  class="poloto_labels poloto_text poloto_yname"  transform="rotate(-90,37.5,250)"  x="37.5"  y="250" >y</text><text  class="poloto_tick_labels poloto_text"  dominant-baseline="middle"  text-anchor="start"  x="150"  y="70" ></text><line  class="poloto_axis_lines"  stroke="black"  x1="150"  x2="144"  y1="400"  y2="400" /><text  class="poloto_tick_labels poloto_text"  dominant-baseline="middle"  text-anchor="end"  x="135"  y="400" >0</text><line  class="poloto_axis_lines"  stroke="black"  x1="150"  x2="144"  y1="330.83732939874585"  y2="330.83732939874585" /><text  class="poloto_tick_labels poloto_text"  dominant-baseline="middle"  text-anchor="end"  x="135"  y="330.83732939874585" >5000</text><line  class="poloto_axis_lines"  stroke="black"  x1="150"  x2="144"  y1="261.6746587974917"  y2="261.6746587974917" /><text  class="poloto_tick_labels poloto_text"  dominant-baseline="middle"  text-anchor="end"  x="135"  y="261.6746587974917" >10000</text><line  class="poloto_axis_lines"  stroke="black"  x1="150"  x2="144"  y1="192.51198819623755"  y2="192.51198819623755" /><text  class="poloto_tick_labels poloto_text"  dominant-baseline="middle"  text-anchor="end"  x="135"  y="192.51198819623755" >15000</text><line  class="poloto_axis_lines"  stroke="black"  x1="150"  x2="144"  y1="123.3493175949834"  y2="123.3493175949834" /><text  class="poloto_tick_labels poloto_text"  dominant-baseline="middle"  text-anchor="end"  x="135"  y="123.3493175949834" >20000</text><text  class="poloto_tick_labels poloto_text"  dominant-baseline="middle"  text-anchor="start"  x="440.00000000000006"  y="70" ></text><line  class="poloto_axis_lines"  stroke="black"  x1="150"  x2="150"  y1="400"  y2="405" /><text  class="poloto_tick_labels poloto_text"  dominant-baseline="start"  text-anchor="middle"  x="150"  y="430" >0</text><line  class="poloto_axis_lines"  stroke="black"  x1="220.92198581560285"  x2="220.92198581560285"  y1="400"  y2="405" /><text  class="poloto_tick_labels poloto_text"  dominant-baseline="start"  text-anchor="middle"  x="220.92198581560285"  y="430" >20</text><line  class="poloto_axis_lines"  stroke="black"  x1="291.8439716312057"  x2="291.8439716312057"  y1="400"  y2="405" /><text  class="poloto_tick_labels poloto_text"  dominant-baseline="start"  text-anchor="middle"  x="291.8439716312057"  y="430" >40</text><line  class="poloto_axis_lines"  stroke="black"  x1="362.7659574468085"  x2="362.7659574468085"  y1="400"  y2="405" /><text  class="poloto_tick_labels poloto_text"  dominant-baseline="start"  text-anchor="middle"  x="362.7659574468085"  y="430" >60</text><line  class="poloto_axis_lines"  stroke="black"  x1="433.68794326241135"  x2="433.68794326241135"  y1="400"  y2="405" /><text  class="poloto_tick_labels poloto_text"  dominant-baseline="start"  text-anchor="middle"  x="433.68794326241135"  y="430" >80</text><line  class="poloto_axis_lines"  stroke="black"  x1="504.60992907801415"  x2="504.60992907801415"  y1="400"  y2="405" /><text  class="poloto_tick_labels poloto_text"  dominant-baseline="start"  text-anchor="middle"  x="504.60992907801415"  y="430" >100</text><line  class="poloto_axis_lines"  stroke="black"  x1="575.531914893617"  x2="575.531914893617"  y1="400"  y2="405" /><text  class="poloto_tick_labels poloto_text"  dominant-baseline="start"  text-anchor="middle"  x="575.531914893617"  y="430" >120</text><line  class="poloto_axis_lines"  stroke="black"  x1="646.4539007092199"  x2="646.4539007092199"  y1="400"  y2="405" /><text  class="poloto_tick_labels poloto_text"  dominant-baseline="start"  text-anchor="middle"  x="646.4539007092199"  y="430" >140</text><path  stroke="black"  fill="none"  class="poloto_axis_lines"  style="stroke-dasharray:8.865248226950355;stroke-dashoffset:-0;"  d=" M 150 400 L 650 400" /><path  stroke="black"  fill="none"  class="poloto_axis_lines"  style="stroke-dasharray:6.916267060125415;stroke-dashoffset:-0;"  d=" M 150 400 L 150 100" /></svg>