<svg class="poloto" width="800" height="500" viewBox="0 0 800 500" xmlns="http://www.w3.org/2000/svg">
	<style>
.poloto{
  stroke-linecap:round;
  stroke-linejoin:round;
  font-family:Roboto,sans-serif;
  font-size:16px;
}
.poloto_background{fill:#262626;}
.poloto_scatter{stroke-width:7}
.poloto_line{stroke-width:2}
.poloto_text{fill: white;}
.poloto_names{font-size:24px;dominant-baseline:start;text-anchor:middle;}
.poloto_where{dominant-baseline:middle;text-anchor:start}
.poloto_text.poloto_legend{font-size:20px;dominant-baseline:middle;text-anchor:start;}
.poloto_text.poloto_ticks.poloto_y{dominant-baseline:middle;text-anchor:end}
.poloto_text.poloto_ticks.poloto_x{dominant-baseline:start;text-anchor:middle}
.poloto_imgs.poloto_ticks{stroke: white;stroke-width:3;fill:none;stroke-dasharray:none}
.poloto_grid{stroke:gray;stroke-width:0.5}

.poloto0.poloto_stroke{stroke:blue;}
.poloto1.poloto_stroke{stroke:red;}
.poloto2.poloto_stroke{stroke:green;}
.poloto3.poloto_stroke{stroke:gold;}
.poloto4.poloto_stroke{stroke:aqua;}
.poloto5.poloto_stroke{stroke:lime;}
.poloto6.poloto_stroke{stroke:orange;}
.poloto7.poloto_stroke{stroke:chocolate;}
.poloto0.poloto_fill{fill:blue;}
.poloto1.poloto_fill{fill:red;}
.poloto2.poloto_fill{fill:green;}
.poloto3.poloto_fill{fill:gold;}
.poloto4.poloto_fill{fill:aqua;}
.poloto5.poloto_fill{fill:lime;}
.poloto6.poloto_fill{fill:orange;}
.poloto7.poloto_fill{fill:chocolate;}
	</style>
	<circle r="1e5" class="poloto_background"/>
	<path id="poloto_plot0" class="poloto_plot poloto_imgs poloto_line poloto0 poloto_stroke" fill="none" stroke="black" d=" M 150.00 133.33 L 316.65 133.33 L 483.30 133.33 L 649.96 100.00 L 650.00 300.00"/>
	<g class="poloto_legend poloto_imgs poloto_line poloto0 poloto_stroke"><line x1="680" x2="730" y1="81.25" y2="81.25"/></g>
	<text class="poloto_legend poloto_text poloto_line poloto0" x="675" y="100">hay</text>
	<text class="poloto_text poloto_names poloto_title" x="400.00" y="37.50">collatz</text>
	<text class="poloto_text poloto_names poloto_x" x="400.00" y="481.25">x</text>
	<text class="poloto_text poloto_names poloto_y" x="37.50" y="250.00" transform="rotate(-90,37.50,250.00)">y</text>
	<g class="poloto_text poloto_ticks poloto_y">
		<text x="135.00" y="400.00">0</text>
		<text x="135.00" y="333.33">20</text>
		<text x="135.00" y="266.67">40</text>
		<text x="135.00" y="200.00">60</text>
		<text x="135.00" y="133.33">80</text>
	</g>
	<g class="poloto_imgs poloto_ticks poloto_y">
		<line x1="150.00" x2="144.00" y1="400.00" y2="400.00"/>
		<line x1="150.00" x2="144.00" y1="333.33" y2="333.33"/>
		<line x1="150.00" x2="144.00" y1="266.67" y2="266.67"/>
		<line x1="150.00" x2="144.00" y1="200.00" y2="200.00"/>
		<line x1="150.00" x2="144.00" y1="133.33" y2="133.33"/>
	</g>
	<g class="poloto_text poloto_ticks poloto_x">
		<text x="150.00" y="430.00">0 hr</text>
		<text x="316.65" y="430.00">1 hr</text>
		<text x="483.30" y="430.00">2 hr</text>
		<text x="649.95" y="430.00">3 hr</text>
	</g>
	<g class="poloto_imgs poloto_ticks poloto_x">
		<line x1="150.00" x2="150.00" y1="400.00" y2="405.00"/>
		<line x1="316.65" x2="316.65" y1="400.00" y2="405.00"/>
		<line x1="483.30" x2="483.30" y1="400.00" y2="405.00"/>
		<line x1="649.95" x2="649.95" y1="400.00" y2="405.00"/>
	</g>
	<path class="poloto_imgs poloto_ticks poloto_x" d=" M 150.00 400.00 L 650.00 400.00"/>
	<path class="poloto_imgs poloto_ticks poloto_y" style="stroke-dasharray:8.333333333333334;stroke-dashoffset:-0;" d=" M 150.00 400.00 L 150.00 100.00"/>
</svg>
