<svg class="poloto" width="800" height="500" viewBox="0 0 800 500" xmlns="http://www.w3.org/2000/svg">
	<style>
.poloto{
  stroke-linecap:round;
  stroke-linejoin:round;
  font-family:Roboto,sans-serif;
  font-size:16px;
}
.poloto_background{fill:#262626;}
.poloto_scatter{stroke-width:7}
.poloto_tick_line{stroke:dimgray;stroke-width:0.5}
.poloto_line{stroke-width:2}
.poloto_text{fill: white;}
.poloto_axis_lines{stroke: white;stroke-width:3;fill:none;stroke-dasharray:none}
.poloto_title{font-size:24px;dominant-baseline:start;text-anchor:middle;}
.poloto_xname{font-size:24px;dominant-baseline:start;text-anchor:middle;}
.poloto_yname{font-size:24px;dominant-baseline:start;text-anchor:middle;}
.poloto0stroke{stroke:blue;}
.poloto1stroke{stroke:red;}
.poloto2stroke{stroke:green;}
.poloto3stroke{stroke:gold;}
.poloto4stroke{stroke:aqua;}
.poloto5stroke{stroke:lime;}
.poloto6stroke{stroke:orange;}
.poloto7stroke{stroke:chocolate;}
.poloto0fill{fill:blue;}
.poloto1fill{fill:red;}
.poloto2fill{fill:green;}
.poloto3fill{fill:gold;}
.poloto4fill{fill:aqua;}
.poloto5fill{fill:lime;}
.poloto6fill{fill:orange;}
.poloto7fill{fill:chocolate;}
	</style>
	<circle r="1e5" class="poloto_background"/>
	<text class="poloto_text poloto_legend_text" x="675" y="100">hay</text>
	<line class="poloto_line poloto_legend_icon poloto0stroke poloto0legend" stroke="black" x1="680" x2="730" y1="81.25" y2="81.25"/>
	<path class="poloto_line poloto0stroke" fill="none" stroke="black" d=" M 150.00 133.33 L 316.65 133.33 L 483.30 133.33 L 649.96 100.00 L 650.00 300.00"/>
	<text class="poloto_labels poloto_text poloto_title" x="400.00" y="37.50">collatz</text>
	<text class="poloto_labels poloto_text poloto_xname" x="400.00" y="481.25">x</text>
	<text class="poloto_labels poloto_text poloto_yname" transform="rotate(-90,37.50,250.00)" x="37.50" y="250.00">y</text>
	<g class="poloto_tick_labels poloto_text" dominant-baseline="middle" text-anchor="end">
		<text x="135.00" y="400.00">0</text>
		<text x="135.00" y="333.33">20</text>
		<text x="135.00" y="266.67">40</text>
		<text x="135.00" y="200.00">60</text>
		<text x="135.00" y="133.33">80</text>
	</g>
	<g class="poloto_axis_lines" stroke="black">
		<line x1="150.00" x2="144.00" y1="400.00" y2="400.00"/>
		<line x1="150.00" x2="144.00" y1="333.33" y2="333.33"/>
		<line x1="150.00" x2="144.00" y1="266.67" y2="266.67"/>
		<line x1="150.00" x2="144.00" y1="200.00" y2="200.00"/>
		<line x1="150.00" x2="144.00" y1="133.33" y2="133.33"/>
	</g>
	<g class="poloto_tick_labels poloto_text" dominant-baseline="start" text-anchor="middle">
		<text x="150.00" y="430.00">0 hr</text>
		<text x="316.65" y="430.00">1 hr</text>
		<text x="483.30" y="430.00">2 hr</text>
		<text x="649.95" y="430.00">3 hr</text>
	</g>
	<g class="poloto_axis_lines" stroke="black">
		<line x1="150.00" x2="150.00" y1="400.00" y2="405.00"/>
		<line x1="316.65" x2="316.65" y1="400.00" y2="405.00"/>
		<line x1="483.30" x2="483.30" y1="400.00" y2="405.00"/>
		<line x1="649.95" x2="649.95" y1="400.00" y2="405.00"/>
	</g>
	<path stroke="black" fill="none" class="poloto_axis_lines" d=" M 150.00 400.00 L 650.00 400.00"/>
	<path stroke="black" fill="none" class="poloto_axis_lines" style="stroke-dasharray:8.333333333333334;stroke-dashoffset:-0;" d=" M 150.00 400.00 L 150.00 100.00"/>
</svg>
