<svg class="poloto" width="800" height="500" viewBox="0 0 800 500" xmlns="http://www.w3.org/2000/svg">
	<style>
.poloto{
  stroke-linecap:round;
  stroke-linejoin:round;
  font-family:Roboto,sans-serif;
  font-size:16px;
}
.poloto_background{fill:#262626;}
.poloto_scatter{stroke-width:7}
.poloto_tick_line{stroke:dimgray;stroke-width:0.5}
.poloto_line{stroke-width:2}
.poloto_text{fill: white;}
.poloto_axis_lines{stroke: white;stroke-width:3;fill:none;stroke-dasharray:none}
.poloto_title{font-size:24px;dominant-baseline:start;text-anchor:middle;}
.poloto_xname{font-size:24px;dominant-baseline:start;text-anchor:middle;}
.poloto_yname{font-size:24px;dominant-baseline:start;text-anchor:middle;}
.poloto0stroke{stroke:blue;}
.poloto1stroke{stroke:red;}
.poloto2stroke{stroke:green;}
.poloto3stroke{stroke:gold;}
.poloto4stroke{stroke:aqua;}
.poloto5stroke{stroke:lime;}
.poloto6stroke{stroke:orange;}
.poloto7stroke{stroke:chocolate;}
.poloto0fill{fill:blue;}
.poloto1fill{fill:red;}
.poloto2fill{fill:green;}
.poloto3fill{fill:gold;}
.poloto4fill{fill:aqua;}
.poloto5fill{fill:lime;}
.poloto6fill{fill:orange;}
.poloto7fill{fill:chocolate;}
	</style>
	<circle r="1e5" class="poloto_background"/>
	<path class="poloto_line poloto0stroke" fill="none" stroke="black" d=" M 150.00 171.79 L 477.32 144.64 L 488.17 121.63 L 581.55 245.17 L 650.00 100.00"/>
	<g class="poloto_legend_icon">
	</g>
	<g class="poloto_text poloto_legend_text">
	</g>
	<g class="poloto_labels poloto_text">
		<text class="poloto_title" x="400.00" y="37.50">Number of Wikipedia Articles</text>
		<text class="poloto_xname" x="400.00" y="481.25">time</text>
		<text class="poloto_yname" transform="rotate(-90,37.50,250.00)" x="37.50" y="250.00">Number of Articles</text>
	</g>
	<g class="poloto_tick_labels poloto_text" dominant-baseline="middle" text-anchor="end">
		<text x="135.00" y="400.00">0</text>
		<text x="135.00" y="327.41">1e6</text>
		<text x="135.00" y="254.83">2.0e6</text>
		<text x="135.00" y="182.24">3.0e6</text>
		<text x="135.00" y="109.65">4.0e6</text>
	</g>
	<g class="poloto_axis_lines" stroke="black">
		<line x1="150.00" x2="144.00" y1="400.00" y2="400.00"/>
		<line x1="150.00" x2="144.00" y1="327.41" y2="327.41"/>
		<line x1="150.00" x2="144.00" y1="254.83" y2="254.83"/>
		<line x1="150.00" x2="144.00" y1="182.24" y2="182.24"/>
		<line x1="150.00" x2="144.00" y1="109.65" y2="109.65"/>
	</g>
	<text class="poloto_tick_labels poloto_text" dominant-baseline="middle" text-anchor="start" x="440.00" y="70.00">ยน2020-01-31 00:00:00 -05:00 in Minutes</text>
	<g class="poloto_tick_labels poloto_text" dominant-baseline="start" text-anchor="middle">
		<text x="254.35" y="430.00">00:00ยน</text>
		<text x="362.24" y="430.00">00:30</text>
		<text x="470.13" y="430.00">01:00</text>
		<text x="578.01" y="430.00">01:30</text>
	</g>
	<g class="poloto_axis_lines" stroke="black">
		<line x1="254.35" x2="254.35" y1="400.00" y2="405.00"/>
		<line x1="362.24" x2="362.24" y1="400.00" y2="405.00"/>
		<line x1="470.13" x2="470.13" y1="400.00" y2="405.00"/>
		<line x1="578.01" x2="578.01" y1="400.00" y2="405.00"/>
	</g>
	<path stroke="black" fill="none" class="poloto_axis_lines" d=" M 150.00 400.00 L 650.00 400.00"/>
	<path stroke="black" fill="none" class="poloto_axis_lines" style="stroke-dasharray:7.2586498911202515;stroke-dashoffset:-0;" d=" M 150.00 400.00 L 150.00 100.00"/>
</svg>
