<svg class="poloto" width="800" height="500" viewBox="0 0 800 500" xmlns="http://www.w3.org/2000/svg">
	<style>
.poloto{
  stroke-linecap:round;
  stroke-linejoin:round;
  font-family:Roboto,sans-serif;
  font-size:16px;
}
.poloto_background{fill:#262626;}
.poloto_scatter{stroke-width:7}
.poloto_tick_line{stroke:dimgray;stroke-width:0.5}
.poloto_line{stroke-width:2}
.poloto_text{fill: white;}
.poloto_axis_lines{stroke: white;stroke-width:3;fill:none;stroke-dasharray:none}
.poloto_title{font-size:24px;dominant-baseline:start;text-anchor:middle;}
.poloto_xname{font-size:24px;dominant-baseline:start;text-anchor:middle;}
.poloto_yname{font-size:24px;dominant-baseline:start;text-anchor:middle;}
.poloto0stroke{stroke:blue;}
.poloto1stroke{stroke:red;}
.poloto2stroke{stroke:green;}
.poloto3stroke{stroke:gold;}
.poloto4stroke{stroke:aqua;}
.poloto5stroke{stroke:lime;}
.poloto6stroke{stroke:orange;}
.poloto7stroke{stroke:chocolate;}
.poloto0fill{fill:blue;}
.poloto1fill{fill:red;}
.poloto2fill{fill:green;}
.poloto3fill{fill:gold;}
.poloto4fill{fill:aqua;}
.poloto5fill{fill:lime;}
.poloto6fill{fill:orange;}
.poloto7fill{fill:chocolate;}
	</style>
	<circle r="1e5" class="poloto_background"/>
	<path class="poloto_line poloto0stroke" fill="none" stroke="black" d=" M 150.00 100.00 L 289.53 284.18 L 298.84 270.41 L 363.95 258.73 L 365.21 321.43 L 508.14 247.75 L 582.56 237.44 L 650.00 227.53"/>
	<g class="poloto_labels poloto_text">
		<text class="poloto_title" x="400.00" y="37.50">Number of Wikipedia Articles</text>
		<text class="poloto_xname" x="400.00" y="481.25">duration</text>
		<text class="poloto_yname" transform="rotate(-90,37.50,250.00)" x="37.50" y="250.00">Number of Articles</text>
	</g>
	<g class="poloto_tick_labels poloto_text" dominant-baseline="middle" text-anchor="end">
		<text x="135.00" y="400.00">0</text>
		<text x="135.00" y="326.33">2e6</text>
		<text x="135.00" y="252.65">4e6</text>
		<text x="135.00" y="178.98">6e6</text>
		<text x="135.00" y="105.30">8e6</text>
	</g>
	<g class="poloto_axis_lines" stroke="black">
		<line x1="150.00" x2="144.00" y1="400.00" y2="400.00"/>
		<line x1="150.00" x2="144.00" y1="326.33" y2="326.33"/>
		<line x1="150.00" x2="144.00" y1="252.65" y2="252.65"/>
		<line x1="150.00" x2="144.00" y1="178.98" y2="178.98"/>
		<line x1="150.00" x2="144.00" y1="105.30" y2="105.30"/>
	</g>
	<text class="poloto_tick_labels poloto_text" dominant-baseline="middle" text-anchor="start" x="440.00" y="70.00">¹2020-09-01 00:00:00 UTC in Months</text>
	<g class="poloto_tick_labels poloto_text" dominant-baseline="start" text-anchor="middle">
		<text x="222.09" y="430.00">2020 Sep¹</text>
		<text x="363.95" y="430.00">2020 Nov</text>
		<text x="505.81" y="430.00">2021 Jan</text>
		<text x="643.02" y="430.00">2021 Mar</text>
	</g>
	<g class="poloto_axis_lines" stroke="black">
		<line x1="222.09" x2="222.09" y1="400.00" y2="405.00"/>
		<line x1="363.95" x2="363.95" y1="400.00" y2="405.00"/>
		<line x1="505.81" x2="505.81" y1="400.00" y2="405.00"/>
		<line x1="643.02" x2="643.02" y1="400.00" y2="405.00"/>
	</g>
	<path stroke="black" fill="none" class="poloto_axis_lines" d=" M 150.00 400.00 L 650.00 400.00"/>
	<path stroke="black" fill="none" class="poloto_axis_lines" style="stroke-dasharray:9.209233791748527;stroke-dashoffset:-0;" d=" M 150.00 400.00 L 150.00 100.00"/>
</svg>
