<svg class="poloto" width="800" height="500" viewBox="0 0 800 500" xmlns="http://www.w3.org/2000/svg"><style>.poloto { stroke-linecap:round; stroke-linejoin:round; font-family: 'Tahoma', sans-serif; background-color: AliceBlue;} .poloto_scatter{stroke-width:7} .poloto_line{stroke-width:2} .poloto_text{fill: black;} .poloto_axis_lines{stroke: black;stroke-width:3;fill:none;stroke-dasharray:none} .poloto0stroke{stroke:  blue;} .poloto1stroke{stroke:  red;} .poloto2stroke{stroke:  green;} .poloto3stroke{stroke:  gold;} .poloto4stroke{stroke:  aqua;} .poloto5stroke{stroke:  lime;} .poloto6stroke{stroke:  orange;} .poloto7stroke{stroke:  chocolate;} .poloto0fill{fill:blue;} .poloto1fill{fill:red;} .poloto2fill{fill:green;} .poloto3fill{fill:gold;} .poloto4fill{fill:aqua;} .poloto5fill{fill:lime;} .poloto6fill{fill:orange;} .poloto7fill{fill:chocolate;}</style><text  class="poloto_text poloto_legend_text" alignment-baseline="middle" text-anchor="start" font-size="large" x="675" y="100" ></text><g  class="poloto_histo poloto0fill" ><rect  x="150" y="400" width="43.268656716416444" height="0" /><rect  x="196.26865671641644" y="377.5" width="40.28358208955251" height="22.5" /><rect  x="239.55223880596895" y="362.5" width="43.26865671642008" height="37.5" /><rect  x="285.82089552238904" y="325" width="41.77611940298448" height="75" /><rect  x="330.5970149253735" y="175" width="43.268656716416444" height="225" /><rect  x="376.86567164178996" y="100" width="41.77611940298448" height="300" /><rect  x="421.64179104477444" y="212.5" width="43.26865671642008" height="187.5" /><rect  x="467.9104477611945" y="227.5" width="43.268656716416444" height="172.5" /><rect  x="514.179104477611" y="242.5" width="41.77611940298448" height="157.5" /><rect  x="558.9552238805954" y="362.5" width="43.26865671642008" height="37.5" /><rect  x="605.2238805970155" y="370" width="41.77611940298448" height="30" /></g><text  class="poloto_labels poloto_text poloto_title" alignment-baseline="start" text-anchor="middle" font-size="x-large" x="400" y="37.5" >Some monthly data</text><text  class="poloto_labels poloto_text poloto_xname" alignment-baseline="start" text-anchor="middle" font-size="x-large" x="400" y="481.25" >Month</text><text  class="poloto_labels poloto_text poloto_yname" alignment-baseline="start" text-anchor="middle" font-size="x-large" transform="rotate(-90,37.5,250)" x="37.5" y="250" >Things</text><line  class="poloto_axis_lines" stroke="black" x1="150" x2="150" y1="400" y2="405" /><text  class="poloto_tick_labels poloto_text" alignment-baseline="start" text-anchor="middle" x="150" y="430" >Jan</text><line  class="poloto_axis_lines" stroke="black" x1="239.55223880596895" x2="239.55223880596895" y1="400" y2="405" /><text  class="poloto_tick_labels poloto_text" alignment-baseline="start" text-anchor="middle" x="239.55223880596895" y="430" >Mar</text><line  class="poloto_axis_lines" stroke="black" x1="330.5970149253735" x2="330.5970149253735" y1="400" y2="405" /><text  class="poloto_tick_labels poloto_text" alignment-baseline="start" text-anchor="middle" x="330.5970149253735" y="430" >May</text><line  class="poloto_axis_lines" stroke="black" x1="421.64179104477444" x2="421.64179104477444" y1="400" y2="405" /><text  class="poloto_tick_labels poloto_text" alignment-baseline="start" text-anchor="middle" x="421.64179104477444" y="430" >Jul</text><line  class="poloto_axis_lines" stroke="black" x1="514.179104477611" x2="514.179104477611" y1="400" y2="405" /><text  class="poloto_tick_labels poloto_text" alignment-baseline="start" text-anchor="middle" x="514.179104477611" y="430" >Sep</text><line  class="poloto_axis_lines" stroke="black" x1="605.2238805970155" x2="605.2238805970155" y1="400" y2="405" /><text  class="poloto_tick_labels poloto_text" alignment-baseline="start" text-anchor="middle" x="605.2238805970155" y="430" >Nov</text><line  class="poloto_axis_lines" stroke="black" x1="150" x2="144" y1="400" y2="400" /><text  class="poloto_tick_labels poloto_text" alignment-baseline="middle" text-anchor="end" x="135" y="400" >0</text><line  class="poloto_axis_lines" stroke="black" x1="150" x2="144" y1="325" y2="325" /><text  class="poloto_tick_labels poloto_text" alignment-baseline="middle" text-anchor="end" x="135" y="325" >10</text><line  class="poloto_axis_lines" stroke="black" x1="150" x2="144" y1="250" y2="250" /><text  class="poloto_tick_labels poloto_text" alignment-baseline="middle" text-anchor="end" x="135" y="250" >20</text><line  class="poloto_axis_lines" stroke="black" x1="150" x2="144" y1="175" y2="175" /><text  class="poloto_tick_labels poloto_text" alignment-baseline="middle" text-anchor="end" x="135" y="175" >30</text><line  class="poloto_axis_lines" stroke="black" x1="150" x2="144" y1="100" y2="100" /><text  class="poloto_tick_labels poloto_text" alignment-baseline="middle" text-anchor="end" x="135" y="100" >40</text><path  stroke="black" fill="none" class="poloto_axis_lines" d=" M 150 400 L 650 400" /><path  stroke="black" fill="none" class="poloto_axis_lines" style="stroke-dasharray:7.5;stroke-dashoffset:-0;" d=" M 150 400 L 150 100" /></svg>
