<svg class="poloto" width="800" height="500" viewBox="0 0 800 500" xmlns="http://www.w3.org/2000/svg"><style>.poloto{stroke-linecap:round;stroke-linejoin:round;font-family:Roboto,sans-serif;font-size:16px;}.poloto_background{fill:AliceBlue;}.poloto_scatter{stroke-width:7}.poloto_tick_line{stroke:gray;stroke-width:0.5}.poloto_line{stroke-width:2}.poloto_text{fill: black;}.poloto_axis_lines{stroke: black;stroke-width:3;fill:none;stroke-dasharray:none}.poloto_title{font-size:24px;dominant-baseline:start;text-anchor:middle;}.poloto_xname{font-size:24px;dominant-baseline:start;text-anchor:middle;}.poloto_yname{font-size:24px;dominant-baseline:start;text-anchor:middle;}.poloto_legend_text{font-size:20px;dominant-baseline:middle;text-anchor:start;}.poloto0stroke{stroke:blue;}.poloto1stroke{stroke:red;}.poloto2stroke{stroke:green;}.poloto3stroke{stroke:gold;}.poloto4stroke{stroke:aqua;}.poloto5stroke{stroke:lime;}.poloto6stroke{stroke:orange;}.poloto7stroke{stroke:chocolate;}.poloto0fill{fill:blue;}.poloto1fill{fill:red;}.poloto2fill{fill:green;}.poloto3fill{fill:gold;}.poloto4fill{fill:aqua;}.poloto5fill{fill:lime;}.poloto6fill{fill:orange;}.poloto7fill{fill:chocolate;}</style><circle  r="1e5" class="poloto_background" /><text  class="poloto_text poloto_legend_text" x="675" y="100" ></text><g  class="poloto_histo poloto0fill" ><rect  x="150.00" y="400.00" width="18.739130434782624" height="0" /><rect  x="171.74" y="400.00" width="18.739130434782595" height="0" /><rect  x="193.48" y="400.00" width="18.739130434782595" height="0" /><rect  x="215.22" y="400.00" width="18.739130434782624" height="0" /><rect  x="236.96" y="400.00" width="18.739130434782624" height="0" /><rect  x="258.70" y="387.14" width="18.739130434782567" height="12.857142857142833" /><rect  x="280.43" y="378.57" width="18.739130434782624" height="21.428571428571445" /><rect  x="302.17" y="378.57" width="18.739130434782624" height="21.428571428571445" /><rect  x="323.91" y="357.14" width="18.739130434782624" height="42.85714285714283" /><rect  x="345.65" y="314.29" width="18.739130434782624" height="85.71428571428572" /><rect  x="367.39" y="185.71" width="18.739130434782567" height="214.28571428571428" /><rect  x="389.13" y="142.86" width="18.739130434782624" height="257.1428571428571" /><rect  x="410.87" y="100.00" width="18.739130434782624" height="300" /><rect  x="432.61" y="185.71" width="18.739130434782567" height="214.28571428571428" /><rect  x="454.35" y="228.57" width="18.739130434782624" height="171.42857142857142" /><rect  x="476.09" y="254.29" width="18.739130434782624" height="145.71428571428572" /><rect  x="497.83" y="254.29" width="18.739130434782624" height="145.71428571428572" /><rect  x="519.57" y="314.29" width="18.739130434782624" height="85.71428571428572" /><rect  x="541.30" y="357.14" width="18.73913043478251" height="42.85714285714283" /><rect  x="563.04" y="314.29" width="18.739130434782737" height="85.71428571428572" /><rect  x="584.78" y="357.14" width="18.73913043478251" height="42.85714285714283" /><rect  x="606.52" y="382.86" width="18.739130434782624" height="17.142857142857167" /><rect  x="628.26" y="391.43" width="18.739130434782624" height="8.571428571428555" /></g><text  class="poloto_labels poloto_text poloto_title" x="400" y="37.5" >Number of rides at theme park hourly</text><text  class="poloto_labels poloto_text poloto_xname" x="400" y="481.25" >Hour</text><text  class="poloto_labels poloto_text poloto_yname" transform="rotate(-90,37.5,250)" x="37.5" y="250" >Number of rides</text><text  class="poloto_tick_labels poloto_text" dominant-baseline="middle" text-anchor="start" x="440.00000000000006" y="70" ></text><line  class="poloto_axis_lines" stroke="black" x1="150" x2="150" y1="400" y2="405" /><text  class="poloto_tick_labels poloto_text" dominant-baseline="start" text-anchor="middle" x="150" y="430" >0 hr</text><line  class="poloto_axis_lines" stroke="black" x1="280.4347826086956" x2="280.4347826086956" y1="400" y2="405" /><text  class="poloto_tick_labels poloto_text" dominant-baseline="start" text-anchor="middle" x="280.4347826086956" y="430" >6 hr</text><line  class="poloto_axis_lines" stroke="black" x1="410.8695652173913" x2="410.8695652173913" y1="400" y2="405" /><text  class="poloto_tick_labels poloto_text" dominant-baseline="start" text-anchor="middle" x="410.8695652173913" y="430" >12 hr</text><line  class="poloto_axis_lines" stroke="black" x1="541.304347826087" x2="541.304347826087" y1="400" y2="405" /><text  class="poloto_tick_labels poloto_text" dominant-baseline="start" text-anchor="middle" x="541.304347826087" y="430" >18 hr</text><text  class="poloto_tick_labels poloto_text" dominant-baseline="middle" text-anchor="start" x="150" y="70" ></text><line  class="poloto_axis_lines" stroke="black" x1="150" x2="144" y1="400" y2="400" /><text  class="poloto_tick_labels poloto_text" dominant-baseline="middle" text-anchor="end" x="135" y="400" >0</text><line  class="poloto_axis_lines" stroke="black" x1="150" x2="144" y1="314.2857142857143" y2="314.2857142857143" /><text  class="poloto_tick_labels poloto_text" dominant-baseline="middle" text-anchor="end" x="135" y="314.2857142857143" >20</text><line  class="poloto_axis_lines" stroke="black" x1="150" x2="144" y1="228.57142857142856" y2="228.57142857142856" /><text  class="poloto_tick_labels poloto_text" dominant-baseline="middle" text-anchor="end" x="135" y="228.57142857142856" >40</text><line  class="poloto_axis_lines" stroke="black" x1="150" x2="144" y1="142.8571428571429" y2="142.8571428571429" /><text  class="poloto_tick_labels poloto_text" dominant-baseline="middle" text-anchor="end" x="135" y="142.8571428571429" >60</text><path  stroke="black" fill="none" class="poloto_axis_lines" d=" M 150 400 L 650 400" /><path  stroke="black" fill="none" class="poloto_axis_lines" style="stroke-dasharray:10.714285714285714;stroke-dashoffset:-0;" d=" M 150 400 L 150 100" /></svg>