<svg class="poloto" width="800" height="500" viewBox="0 0 800 500" xmlns="http://www.w3.org/2000/svg">
	<style>
.poloto{
  stroke-linecap:round;
  stroke-linejoin:round;
  font-family:Roboto,sans-serif;
  font-size:16px;
}
.poloto_background{fill:AliceBlue;}
.poloto_scatter{stroke-width:7}
.poloto_tick_line{stroke:gray;stroke-width:0.5}
.poloto_line{stroke-width:2}
.poloto_text{fill: black;}
.poloto_axis_lines{stroke: black;stroke-width:3;fill:none;stroke-dasharray:none}
.poloto_title{font-size:24px;dominant-baseline:start;text-anchor:middle;}
.poloto_xname{font-size:24px;dominant-baseline:start;text-anchor:middle;}
.poloto_yname{font-size:24px;dominant-baseline:start;text-anchor:middle;}
.poloto_legend_text{font-size:20px;dominant-baseline:middle;text-anchor:start;}
.poloto0stroke{stroke:blue;}
.poloto1stroke{stroke:red;}
.poloto2stroke{stroke:green;}
.poloto3stroke{stroke:gold;}
.poloto4stroke{stroke:aqua;}
.poloto5stroke{stroke:lime;}
.poloto6stroke{stroke:orange;}
.poloto7stroke{stroke:chocolate;}
.poloto0fill{fill:blue;}
.poloto1fill{fill:red;}
.poloto2fill{fill:green;}
.poloto3fill{fill:gold;}
.poloto4fill{fill:aqua;}
.poloto5fill{fill:lime;}
.poloto6fill{fill:orange;}
.poloto7fill{fill:chocolate;}
	</style>
	<circle r="1e5" class="poloto_background"/>
	<path class="poloto_line poloto0stroke" fill="none" stroke="black" d=" M 250.20 282.32 M 250.20 282.32 L 251.20 280.52 L 252.20 278.85 L 253.21 277.32 L 254.21 275.89 L 255.21 274.57 L 256.21 273.33 L 257.21 272.17 L 258.22 271.08 L 259.22 270.05 L 260.22 269.09 L 261.22 268.17 L 262.22 267.30 L 263.23 266.47 L 264.23 265.68 L 265.23 264.93 L 266.23 264.21 L 267.23 263.52 L 268.24 262.86 L 269.24 262.23 L 270.24 261.62 L 271.24 261.03 L 272.24 260.46 L 273.25 259.91 L 274.25 259.37 L 275.25 258.86 L 276.25 258.36 L 277.25 257.87 L 278.26 257.40 L 279.26 256.93 L 280.26 256.48 L 281.26 256.05 L 282.26 255.62 L 283.27 255.20 L 284.27 254.79 L 285.27 254.38 L 286.27 253.99 L 287.27 253.60 L 288.28 253.22 L 289.28 252.84 L 290.28 252.47 L 291.28 252.10 L 292.28 251.74 L 293.29 251.39 L 294.29 251.04 L 295.29 250.69 L 296.29 250.34 L 297.29 250.00 L 298.30 249.66 L 299.30 249.33 L 300.30 248.99 L 301.30 248.66 L 302.30 248.33 L 303.31 248.00 L 304.31 247.67 L 305.31 247.35 L 306.31 247.02 L 307.31 246.69 L 308.32 246.37 L 309.32 246.04 L 310.32 245.71 L 311.32 245.39 L 312.32 245.06 L 313.33 244.73 L 314.33 244.40 L 315.33 244.06 L 316.33 243.73 L 317.33 243.39 L 318.34 243.05 L 319.34 242.70 L 320.34 242.36 L 321.34 242.00 L 322.34 241.65 L 323.35 241.29 L 324.35 240.93 L 325.35 240.56 L 326.35 240.18 L 327.35 239.80 L 328.36 239.41 L 329.36 239.02 L 330.36 238.62 L 331.36 238.21 L 332.36 237.79 L 333.37 237.36 L 334.37 236.92 L 335.37 236.47 L 336.37 236.02 L 337.37 235.54 L 338.38 235.06 L 339.38 234.56 L 340.38 234.05 L 341.38 233.52 L 342.38 232.97 L 343.39 232.40 L 344.39 231.82 L 345.39 231.21 L 346.39 230.58 L 347.39 229.92 L 348.40 229.24 L 349.40 228.52 L 350.40 227.78 L 351.40 226.99 L 352.40 226.17 L 353.41 225.31 L 354.41 224.40 L 355.41 223.44 L 356.41 222.42 L 357.41 221.34 L 358.42 220.20 L 359.42 218.97 L 360.42 217.66 L 361.42 216.25 L 362.42 214.74 L 363.43 213.09 L 364.43 211.31 L 365.43 209.37 L 366.43 207.24 L 367.43 204.90 L 368.44 202.30 L 369.44 199.40 L 370.44 196.15 L 371.44 192.46 L 372.44 188.25 L 373.45 183.40 L 374.45 177.72 L 375.45 171.00 L 376.45 162.90 L 377.45 152.95 L 378.46 140.42 L 379.46 124.14 L 380.46 102.10 M 391.48 397.71 L 392.48 373.84 L 393.49 356.41 L 394.49 343.11 L 395.49 332.62 L 396.49 324.13 L 397.49 317.11 L 398.50 311.21 L 399.50 306.18 L 400.50 301.83 L 401.50 298.03 L 402.51 294.68 L 403.51 291.70 L 404.51 289.04 L 405.51 286.64 L 406.51 284.46 L 407.52 282.47 L 408.52 280.65 L 409.52 278.98 L 410.52 277.44 L 411.52 276.00 L 412.53 274.67 L 413.53 273.43 L 414.53 272.26 L 415.53 271.16 L 416.53 270.13 L 417.54 269.16 L 418.54 268.24 L 419.54 267.37 L 420.54 266.54 L 421.54 265.74 L 422.55 264.99 L 423.55 264.27 L 424.55 263.58 L 425.55 262.91 L 426.55 262.28 L 427.56 261.66 L 428.56 261.07 L 429.56 260.50 L 430.56 259.95 L 431.56 259.42 L 432.57 258.90 L 433.57 258.40 L 434.57 257.91 L 435.57 257.43 L 436.57 256.97 L 437.58 256.52 L 438.58 256.08 L 439.58 255.65 L 440.58 255.23 L 441.58 254.82 L 442.59 254.41 L 443.59 254.02 L 444.59 253.63 L 445.59 253.25 L 446.59 252.87 L 447.60 252.50 L 448.60 252.13 L 449.60 251.77 L 450.60 251.42 L 451.60 251.06 L 452.61 250.72 L 453.61 250.37 L 454.61 250.03 L 455.61 249.69 L 456.61 249.36 L 457.62 249.02 L 458.62 248.69 L 459.62 248.36 L 460.62 248.03 L 461.62 247.70 L 462.63 247.37 L 463.63 247.05 L 464.63 246.72 L 465.63 246.39 L 466.63 246.07 L 467.64 245.74 L 468.64 245.41 L 469.64 245.08 L 470.64 244.75 L 471.64 244.42 L 472.65 244.09 L 473.65 243.75 L 474.65 243.41 L 475.65 243.07 L 476.65 242.73 L 477.66 242.38 L 478.66 242.03 L 479.66 241.68 L 480.66 241.32 L 481.66 240.95 L 482.67 240.59 L 483.67 240.21 L 484.67 239.83 L 485.67 239.44 L 486.67 239.05 L 487.68 238.65 L 488.68 238.24 L 489.68 237.82 L 490.68 237.39 L 491.68 236.96 L 492.69 236.51 L 493.69 236.05 L 494.69 235.58 L 495.69 235.10 L 496.69 234.60 L 497.70 234.09 L 498.70 233.56 L 499.70 233.01 L 500.70 232.45 L 501.70 231.86 L 502.71 231.26 L 503.71 230.63 L 504.71 229.97 L 505.71 229.29 L 506.71 228.58 L 507.72 227.84 L 508.72 227.06 L 509.72 226.24 L 510.72 225.38 L 511.72 224.48 L 512.73 223.52 L 513.73 222.51 L 514.73 221.43 L 515.73 220.29 L 516.73 219.07 L 517.74 217.77 L 518.74 216.37 L 519.74 214.86 L 520.74 213.23 L 521.74 211.46 L 522.75 209.53 L 523.75 207.42 L 524.75 205.09 L 525.75 202.51 L 526.75 199.64 L 527.76 196.42 L 528.76 192.77 L 529.76 188.61 L 530.76 183.81 L 531.76 178.21 L 532.77 171.58 L 533.77 163.61 L 534.77 153.83 L 535.77 141.54 L 536.77 125.61 L 537.78 104.13 M 548.80 400.00 L 549.80 375.46 L 550.80 357.62 L 551.80 344.05 L 552.81 333.37 L 553.81 324.75 L 554.81 317.63 L 555.81 311.65 L 556.81 306.55 L 557.82 302.15 L 558.82 298.31 L 559.82 294.93 L 560.82 291.93 L 561.82 289.24 L 562.83 286.82 L 563.83 284.62 L 564.83 282.62 L 565.83 280.79 L 566.83 279.11 L 567.84 277.56 L 568.84 276.11 L 569.84 274.77 L 570.84 273.52 L 571.84 272.35 L 572.85 271.25 L 573.85 270.21 L 574.85 269.24 L 575.85 268.31 L 576.85 267.43 L 577.86 266.60 L 578.86 265.81 L 579.86 265.05 L 580.86 264.32 L 581.86 263.63 L 582.87 262.97 L 583.87 262.33 L 584.87 261.71 L 585.87 261.12 L 586.87 260.55 L 587.88 259.99 L 588.88 259.46 L 589.88 258.94 L 590.88 258.44 L 591.88 257.95 L 592.89 257.47 L 593.89 257.01 L 594.89 256.56 L 595.89 256.11 L 596.89 255.68 L 597.90 255.26 L 598.90 254.85 L 599.90 254.45 L 600.90 254.05 L 601.90 253.66 L 602.91 253.28 L 603.91 252.90 L 604.91 252.53 L 605.91 252.16 L 606.91 251.80 L 607.92 251.45 L 608.92 251.09 L 609.92 250.74 L 610.92 250.40 L 611.92 250.06 L 612.93 249.72 L 613.93 249.38 L 614.93 249.05 L 615.93 248.72 L 616.93 248.38 L 617.94 248.06 L 618.94 247.73 L 619.94 247.40 L 620.94 247.07 L 621.94 246.75 L 622.95 246.42 L 623.95 246.09 L 624.95 245.77 L 625.95 245.44 L 626.95 245.11 L 627.96 244.78 L 628.96 244.45 L 629.96 244.12 L 630.96 243.78 L 631.96 243.44 L 632.97 243.10 L 633.97 242.76 L 634.97 242.41 L 635.97 242.06 L 636.97 241.71 L 637.98 241.35 L 638.98 240.98 L 639.98 240.62 L 640.98 240.24 L 641.98 239.86 L 642.99 239.47 L 643.99 239.08 L 644.99 238.68 L 645.99 238.27 L 646.99 237.86 L 648.00 237.43 L 649.00 236.99 L 650.00 236.55"/>
	<path class="poloto_line poloto1stroke" fill="none" stroke="black" d=" M 190.08 223.93 M 190.08 223.93 L 191.08 224.40 L 192.08 224.89 L 193.09 225.38 L 194.09 225.88 L 195.09 226.38 L 196.09 226.90 L 197.09 227.42 L 198.10 227.95 L 199.10 228.49 L 200.10 229.04 L 201.10 229.59 L 202.10 230.15 L 203.11 230.71 L 204.11 231.29 L 205.11 231.87 L 206.11 232.45 L 207.11 233.04 L 208.12 233.64 L 209.12 234.24 L 210.12 234.84 L 211.12 235.45 L 212.12 236.07 L 213.13 236.69 L 214.13 237.31 L 215.13 237.94 L 216.13 238.57 L 217.13 239.20 L 218.14 239.84 L 219.14 240.48 L 220.14 241.12 L 221.14 241.77 L 222.14 242.41 L 223.15 243.06 L 224.15 243.71 L 225.15 244.36 L 226.15 245.01 L 227.15 245.66 L 228.16 246.32 L 229.16 246.97 L 230.16 247.62 L 231.16 248.27 L 232.16 248.93 L 233.17 249.58 L 234.17 250.23 L 235.17 250.87 L 236.17 251.52 L 237.17 252.16 L 238.18 252.81 L 239.18 253.45 L 240.18 254.08 L 241.18 254.72 L 242.18 255.35 L 243.19 255.98 L 244.19 256.60 L 245.19 257.22 L 246.19 257.83 L 247.19 258.45 L 248.20 259.05 L 249.20 259.65 L 250.20 260.25 L 251.20 260.84 L 252.20 261.42 L 253.21 262.00 L 254.21 262.58 L 255.21 263.14 L 256.21 263.70 L 257.21 264.26 L 258.22 264.80 L 259.22 265.34 L 260.22 265.87 L 261.22 266.40 L 262.22 266.91 L 263.23 267.42 L 264.23 267.92 L 265.23 268.41 L 266.23 268.89 L 267.23 269.37 L 268.24 269.83 L 269.24 270.29 L 270.24 270.73 L 271.24 271.17 L 272.24 271.59 L 273.25 272.01 L 274.25 272.42 L 275.25 272.81 L 276.25 273.20 L 277.25 273.57 L 278.26 273.94 L 279.26 274.29 L 280.26 274.63 L 281.26 274.96 L 282.26 275.28 L 283.27 275.59 L 284.27 275.89 L 285.27 276.17 L 286.27 276.45 L 287.27 276.71 L 288.28 276.96 L 289.28 277.19 L 290.28 277.42 L 291.28 277.63 L 292.28 277.83 L 293.29 278.02 L 294.29 278.19 L 295.29 278.35 L 296.29 278.50 L 297.29 278.64 L 298.30 278.77 L 299.30 278.88 L 300.30 278.98 L 301.30 279.06 L 302.30 279.13 L 303.31 279.19 L 304.31 279.24 L 305.31 279.27 L 306.31 279.30 L 307.31 279.30 L 308.32 279.30 L 309.32 279.28 L 310.32 279.25 L 311.32 279.20 L 312.32 279.14 L 313.33 279.07 L 314.33 278.99 L 315.33 278.89 L 316.33 278.78 L 317.33 278.66 L 318.34 278.53 L 319.34 278.38 L 320.34 278.22 L 321.34 278.05 L 322.34 277.86 L 323.35 277.66 L 324.35 277.45 L 325.35 277.23 L 326.35 276.99 L 327.35 276.75 L 328.36 276.49 L 329.36 276.22 L 330.36 275.93 L 331.36 275.64 L 332.36 275.33 L 333.37 275.01 L 334.37 274.69 L 335.37 274.35 L 336.37 273.99 L 337.37 273.63 L 338.38 273.26 L 339.38 272.88 L 340.38 272.48 L 341.38 272.08 L 342.38 271.66 L 343.39 271.24 L 344.39 270.80 L 345.39 270.36 L 346.39 269.91 L 347.39 269.44 L 348.40 268.97 L 349.40 268.49 L 350.40 268.00 L 351.40 267.50 L 352.40 266.99 L 353.41 266.48 L 354.41 265.96 L 355.41 265.43 L 356.41 264.89 L 357.41 264.34 L 358.42 263.79 L 359.42 263.23 L 360.42 262.67 L 361.42 262.10 L 362.42 261.52 L 363.43 260.93 L 364.43 260.34 L 365.43 259.75 L 366.43 259.15 L 367.43 258.54 L 368.44 257.93 L 369.44 257.32 L 370.44 256.70 L 371.44 256.07 L 372.44 255.45 L 373.45 254.82 L 374.45 254.18 L 375.45 253.55 L 376.45 252.91 L 377.45 252.27 L 378.46 251.62 L 379.46 250.98 L 380.46 250.33 L 381.46 249.68 L 382.46 249.03 L 383.47 248.38 L 384.47 247.73 L 385.47 247.07 L 386.47 246.42 L 387.47 245.77 L 388.48 245.12 L 389.48 244.46 L 390.48 243.81 L 391.48 243.16 L 392.48 242.52 L 393.49 241.87 L 394.49 241.22 L 395.49 240.58 L 396.49 239.94 L 397.49 239.30 L 398.50 238.67 L 399.50 238.04 L 400.50 237.41 L 401.50 236.79 L 402.51 236.17 L 403.51 235.55 L 404.51 234.94 L 405.51 234.33 L 406.51 233.73 L 407.52 233.14 L 408.52 232.54 L 409.52 231.96 L 410.52 231.38 L 411.52 230.81 L 412.53 230.24 L 413.53 229.68 L 414.53 229.12 L 415.53 228.58 L 416.53 228.04 L 417.54 227.51 L 418.54 226.98 L 419.54 226.46 L 420.54 225.96 L 421.54 225.46 L 422.55 224.96 L 423.55 224.48 L 424.55 224.01 M 504.71 223.86 L 505.71 224.33 L 506.71 224.81 L 507.72 225.30 L 508.72 225.80 L 509.72 226.30 L 510.72 226.82 L 511.72 227.34 L 512.73 227.87 L 513.73 228.40 L 514.73 228.95 L 515.73 229.50 L 516.73 230.06 L 517.74 230.62 L 518.74 231.20 L 519.74 231.77 L 520.74 232.36 L 521.74 232.95 L 522.75 233.54 L 523.75 234.14 L 524.75 234.75 L 525.75 235.36 L 526.75 235.97 L 527.76 236.59 L 528.76 237.21 L 529.76 237.84 L 530.76 238.47 L 531.76 239.10 L 532.77 239.74 L 533.77 240.38 L 534.77 241.02 L 535.77 241.66 L 536.77 242.31 L 537.78 242.96 L 538.78 243.61 L 539.78 244.26 L 540.78 244.91 L 541.78 245.56 L 542.79 246.21 L 543.79 246.86 L 544.79 247.52 L 545.79 248.17 L 546.79 248.82 L 547.80 249.47 L 548.80 250.12 L 549.80 250.77 L 550.80 251.42 L 551.80 252.06 L 552.81 252.70 L 553.81 253.34 L 554.81 253.98 L 555.81 254.62 L 556.81 255.25 L 557.82 255.88 L 558.82 256.50 L 559.82 257.12 L 560.82 257.74 L 561.82 258.35 L 562.83 258.96 L 563.83 259.56 L 564.83 260.15 L 565.83 260.75 L 566.83 261.33 L 567.84 261.91 L 568.84 262.49 L 569.84 263.05 L 570.84 263.62 L 571.84 264.17 L 572.85 264.72 L 573.85 265.26 L 574.85 265.79 L 575.85 266.31 L 576.85 266.83 L 577.86 267.34 L 578.86 267.84 L 579.86 268.33 L 580.86 268.82 L 581.86 269.29 L 582.87 269.76 L 583.87 270.22 L 584.87 270.66 L 585.87 271.10 L 586.87 271.53 L 587.88 271.95 L 588.88 272.35 L 589.88 272.75 L 590.88 273.14 L 591.88 273.51 L 592.89 273.88 L 593.89 274.23 L 594.89 274.58 L 595.89 274.91 L 596.89 275.23 L 597.90 275.54 L 598.90 275.84 L 599.90 276.13 L 600.90 276.40 L 601.90 276.67 L 602.91 276.92 L 603.91 277.16 L 604.91 277.38 L 605.91 277.60 L 606.91 277.80 L 607.92 277.99 L 608.92 278.17 L 609.92 278.33 L 610.92 278.48 L 611.92 278.62 L 612.93 278.75 L 613.93 278.86 L 614.93 278.96 L 615.93 279.05 L 616.93 279.12 L 617.94 279.19 L 618.94 279.23 L 619.94 279.27 L 620.94 279.29 L 621.94 279.30 L 622.95 279.30 L 623.95 279.28 L 624.95 279.25 L 625.95 279.21 L 626.95 279.15 L 627.96 279.09 L 628.96 279.00 L 629.96 278.91 L 630.96 278.80 L 631.96 278.68 L 632.97 278.55 L 633.97 278.40 L 634.97 278.25 L 635.97 278.07 L 636.97 277.89 L 637.98 277.69 L 638.98 277.49 L 639.98 277.27 L 640.98 277.03 L 641.98 276.79 L 642.99 276.53 L 643.99 276.26 L 644.99 275.98 L 645.99 275.69 L 646.99 275.38 L 648.00 275.07 L 649.00 274.74 L 650.00 274.40"/>
	<g class="poloto_legend_icon">
		<line class="poloto_line poloto0stroke poloto0legend" stroke="black" x1="680" x2="730" y1="81.25" y2="81.25"/>
		<line class="poloto_line poloto1stroke poloto1legend" stroke="black" x1="680" x2="730" y1="131.25" y2="131.25"/>
	</g>
	<g class="poloto_text poloto_legend_text">
		<text x="675" y="100">tan(x)</text>
		<text x="675" y="150">2*cos(x)</text>
	</g>
	<g class="poloto_labels poloto_text">
		<text class="poloto_title" x="400.00" y="37.50">Some Trigonometry Plots 🥳</text>
		<text class="poloto_xname" x="400.00" y="481.25">This is the x label</text>
		<text class="poloto_yname" x="37.50" y="250.00" transform="rotate(-90,37.50,250.00)">This is the y label</text>
	</g>
	<g class="poloto_tick_labels poloto_text" dominant-baseline="middle" text-anchor="end">
		<text x="135.00" y="328.25">-5</text>
		<text x="135.00" y="246.67">0</text>
		<text x="135.00" y="165.08">5</text>
	</g>
	<g class="poloto_axis_lines" stroke="black">
		<line x1="150.00" x2="144.00" y1="328.25" y2="328.25"/>
		<line x1="150.00" x2="144.00" y1="246.67" y2="246.67"/>
		<line x1="150.00" x2="144.00" y1="165.08" y2="165.08"/>
	</g>
	<g class="poloto_tick_labels poloto_text" dominant-baseline="start" text-anchor="middle">
		<text x="150.00" y="430.00">0</text>
		<text x="250.20" y="430.00">2</text>
		<text x="350.40" y="430.00">4</text>
		<text x="450.60" y="430.00">6</text>
		<text x="550.80" y="430.00">8</text>
	</g>
	<g class="poloto_axis_lines" stroke="black">
		<line x1="150.00" x2="150.00" y1="400.00" y2="405.00"/>
		<line x1="250.20" x2="250.20" y1="400.00" y2="405.00"/>
		<line x1="350.40" x2="350.40" y1="400.00" y2="405.00"/>
		<line x1="450.60" x2="450.60" y1="400.00" y2="405.00"/>
		<line x1="550.80" x2="550.80" y1="400.00" y2="405.00"/>
	</g>
	<path stroke="black" fill="none" class="poloto_axis_lines" style="stroke-dasharray:12.525050100200401;stroke-dashoffset:-0;" d=" M 150.00 400.00 L 650.00 400.00"/>
	<path stroke="black" fill="none" class="poloto_axis_lines" style="stroke-dasharray:8.158572355529564;stroke-dashoffset:-71.74586545644497;" d=" M 150.00 400.00 L 150.00 100.00"/>
</svg>
