<svg class="poloto" width="800" height="500" viewBox="0 0 800 500" xmlns="http://www.w3.org/2000/svg"><style>.poloto { stroke-linecap:round; stroke-linejoin:round; font-family: Roboto,sans-serif ; font-size:16px; } .poloto_background{fill:AliceBlue;} .poloto_scatter{stroke-width:7} .poloto_tick_line{stroke:gray;stroke-width:0.5} .poloto_line{stroke-width:2} .poloto_text{fill: black;} .poloto_axis_lines{stroke: black;stroke-width:3;fill:none;stroke-dasharray:none} .poloto_title{font-size:24px;dominant-baseline:start;text-anchor:middle;} .poloto_xname{font-size:24px;dominant-baseline:start;text-anchor:middle;} .poloto_yname{font-size:24px;dominant-baseline:start;text-anchor:middle;} .poloto_legend_text{font-size:20px;dominant-baseline:middle;text-anchor:start;}.poloto0stroke{stroke:  blue;} .poloto1stroke{stroke:  red;} .poloto2stroke{stroke:  green;} .poloto3stroke{stroke:  gold;} .poloto4stroke{stroke:  aqua;} .poloto5stroke{stroke:  lime;} .poloto6stroke{stroke:  orange;} .poloto7stroke{stroke:  chocolate;} .poloto0fill{fill:blue;} .poloto1fill{fill:red;} .poloto2fill{fill:green;} .poloto3fill{fill:gold;} .poloto4fill{fill:aqua;} .poloto5fill{fill:lime;} .poloto6fill{fill:orange;} .poloto7fill{fill:chocolate;}</style><circle  r="1e5" class="poloto_background" /><text  class="poloto_text poloto_legend_text" x="675" y="100" >tan(x)</text><line  class="poloto_line poloto_legend_icon poloto0stroke poloto0legend" stroke="black" x1="680" x2="730" y1="81.25" y2="81.25" /><path  class="poloto_line poloto0stroke" fill="none" stroke="black" d=" M 250.00 288.46 M 250.00 288.46 L 251.00 286.75 L 252.00 285.17 L 253.00 283.72 L 254.00 282.37 L 255.00 281.11 L 256.00 279.93 L 257.00 278.84 L 258.00 277.80 L 259.00 276.83 L 260.00 275.91 L 261.00 275.04 L 262.00 274.22 L 263.00 273.43 L 264.00 272.69 L 265.00 271.97 L 266.00 271.29 L 267.00 270.64 L 268.00 270.01 L 269.00 269.41 L 270.00 268.83 L 271.00 268.27 L 272.00 267.73 L 273.00 267.21 L 274.00 266.71 L 275.00 266.22 L 276.00 265.74 L 277.00 265.28 L 278.00 264.83 L 279.00 264.39 L 280.00 263.97 L 281.00 263.55 L 282.00 263.14 L 283.00 262.75 L 284.00 262.36 L 285.00 261.97 L 286.00 261.60 L 287.00 261.23 L 288.00 260.87 L 289.00 260.51 L 290.00 260.16 L 291.00 259.82 L 292.00 259.47 L 293.00 259.14 L 294.00 258.80 L 295.00 258.47 L 296.00 258.15 L 297.00 257.82 L 298.00 257.50 L 299.00 257.18 L 300.00 256.87 L 301.00 256.55 L 302.00 256.24 L 303.00 255.93 L 304.00 255.62 L 305.00 255.31 L 306.00 255.00 L 307.00 254.69 L 308.00 254.38 L 309.00 254.07 L 310.00 253.76 L 311.00 253.45 L 312.00 253.14 L 313.00 252.82 L 314.00 252.51 L 315.00 252.19 L 316.00 251.87 L 317.00 251.55 L 318.00 251.23 L 319.00 250.90 L 320.00 250.58 L 321.00 250.24 L 322.00 249.91 L 323.00 249.57 L 324.00 249.22 L 325.00 248.87 L 326.00 248.51 L 327.00 248.15 L 328.00 247.79 L 329.00 247.41 L 330.00 247.03 L 331.00 246.64 L 332.00 246.25 L 333.00 245.84 L 334.00 245.43 L 335.00 245.00 L 336.00 244.57 L 337.00 244.12 L 338.00 243.66 L 339.00 243.19 L 340.00 242.70 L 341.00 242.20 L 342.00 241.68 L 343.00 241.14 L 344.00 240.59 L 345.00 240.01 L 346.00 239.41 L 347.00 238.79 L 348.00 238.14 L 349.00 237.46 L 350.00 236.76 L 351.00 236.01 L 352.00 235.24 L 353.00 234.42 L 354.00 233.56 L 355.00 232.65 L 356.00 231.68 L 357.00 230.66 L 358.00 229.57 L 359.00 228.41 L 360.00 227.17 L 361.00 225.83 L 362.00 224.40 L 363.00 222.84 L 364.00 221.15 L 365.00 219.31 L 366.00 217.29 L 367.00 215.07 L 368.00 212.61 L 369.00 209.86 L 370.00 206.77 L 371.00 203.28 L 372.00 199.29 L 373.00 194.69 L 374.00 189.31 L 375.00 182.94 L 376.00 175.27 L 377.00 165.84 L 378.00 153.96 L 379.00 138.52 L 380.00 117.63 M 391.00 397.83 L 392.00 375.20 L 393.00 358.68 L 394.00 346.07 L 395.00 336.13 L 396.00 328.09 L 397.00 321.44 L 398.00 315.84 L 399.00 311.07 L 400.00 306.95 L 401.00 303.35 L 402.00 300.17 L 403.00 297.35 L 404.00 294.82 L 405.00 292.55 L 406.00 290.48 L 407.00 288.60 L 408.00 286.88 L 409.00 285.29 L 410.00 283.83 L 411.00 282.47 L 412.00 281.21 L 413.00 280.03 L 414.00 278.92 L 415.00 277.88 L 416.00 276.91 L 417.00 275.98 L 418.00 275.11 L 419.00 274.28 L 420.00 273.49 L 421.00 272.74 L 422.00 272.03 L 423.00 271.35 L 424.00 270.69 L 425.00 270.06 L 426.00 269.46 L 427.00 268.88 L 428.00 268.32 L 429.00 267.77 L 430.00 267.25 L 431.00 266.75 L 432.00 266.26 L 433.00 265.78 L 434.00 265.32 L 435.00 264.87 L 436.00 264.43 L 437.00 264.00 L 438.00 263.58 L 439.00 263.18 L 440.00 262.78 L 441.00 262.39 L 442.00 262.00 L 443.00 261.63 L 444.00 261.26 L 445.00 260.90 L 446.00 260.54 L 447.00 260.19 L 448.00 259.84 L 449.00 259.50 L 450.00 259.16 L 451.00 258.83 L 452.00 258.50 L 453.00 258.17 L 454.00 257.85 L 455.00 257.53 L 456.00 257.21 L 457.00 256.89 L 458.00 256.58 L 459.00 256.26 L 460.00 255.95 L 461.00 255.64 L 462.00 255.33 L 463.00 255.02 L 464.00 254.71 L 465.00 254.40 L 466.00 254.09 L 467.00 253.78 L 468.00 253.47 L 469.00 253.16 L 470.00 252.85 L 471.00 252.53 L 472.00 252.22 L 473.00 251.90 L 474.00 251.58 L 475.00 251.26 L 476.00 250.93 L 477.00 250.60 L 478.00 250.27 L 479.00 249.93 L 480.00 249.59 L 481.00 249.25 L 482.00 248.90 L 483.00 248.54 L 484.00 248.18 L 485.00 247.82 L 486.00 247.44 L 487.00 247.06 L 488.00 246.67 L 489.00 246.28 L 490.00 245.87 L 491.00 245.46 L 492.00 245.04 L 493.00 244.60 L 494.00 244.15 L 495.00 243.70 L 496.00 243.22 L 497.00 242.74 L 498.00 242.24 L 499.00 241.72 L 500.00 241.19 L 501.00 240.63 L 502.00 240.06 L 503.00 239.46 L 504.00 238.84 L 505.00 238.19 L 506.00 237.52 L 507.00 236.81 L 508.00 236.08 L 509.00 235.30 L 510.00 234.49 L 511.00 233.63 L 512.00 232.72 L 513.00 231.76 L 514.00 230.74 L 515.00 229.66 L 516.00 228.51 L 517.00 227.27 L 518.00 225.94 L 519.00 224.51 L 520.00 222.97 L 521.00 221.29 L 522.00 219.46 L 523.00 217.46 L 524.00 215.25 L 525.00 212.81 L 526.00 210.09 L 527.00 207.03 L 528.00 203.58 L 529.00 199.63 L 530.00 195.08 L 531.00 189.77 L 532.00 183.49 L 533.00 175.94 L 534.00 166.67 L 535.00 155.02 L 536.00 139.92 L 537.00 119.56 M 548.00 400.00 L 549.00 376.74 L 550.00 359.83 L 551.00 346.97 L 552.00 336.85 L 553.00 328.67 L 554.00 321.92 L 555.00 316.26 L 556.00 311.43 L 557.00 307.26 L 558.00 303.62 L 559.00 300.41 L 560.00 297.56 L 561.00 295.01 L 562.00 292.72 L 563.00 290.64 L 564.00 288.74 L 565.00 287.01 L 566.00 285.41 L 567.00 283.94 L 568.00 282.57 L 569.00 281.30 L 570.00 280.12 L 571.00 279.01 L 572.00 277.96 L 573.00 276.98 L 574.00 276.05 L 575.00 275.18 L 576.00 274.35 L 577.00 273.56 L 578.00 272.80 L 579.00 272.08 L 580.00 271.40 L 581.00 270.74 L 582.00 270.11 L 583.00 269.50 L 584.00 268.92 L 585.00 268.36 L 586.00 267.82 L 587.00 267.29 L 588.00 266.79 L 589.00 266.29 L 590.00 265.82 L 591.00 265.35 L 592.00 264.90 L 593.00 264.46 L 594.00 264.04 L 595.00 263.62 L 596.00 263.21 L 597.00 262.81 L 598.00 262.42 L 599.00 262.04 L 600.00 261.66 L 601.00 261.29 L 602.00 260.93 L 603.00 260.57 L 604.00 260.22 L 605.00 259.87 L 606.00 259.53 L 607.00 259.19 L 608.00 258.86 L 609.00 258.53 L 610.00 258.20 L 611.00 257.88 L 612.00 257.55 L 613.00 257.24 L 614.00 256.92 L 615.00 256.60 L 616.00 256.29 L 617.00 255.98 L 618.00 255.67 L 619.00 255.36 L 620.00 255.05 L 621.00 254.74 L 622.00 254.43 L 623.00 254.12 L 624.00 253.81 L 625.00 253.50 L 626.00 253.19 L 627.00 252.87 L 628.00 252.56 L 629.00 252.24 L 630.00 251.93 L 631.00 251.61 L 632.00 251.28 L 633.00 250.96 L 634.00 250.63 L 635.00 250.30 L 636.00 249.96 L 637.00 249.62 L 638.00 249.28 L 639.00 248.93 L 640.00 248.57 L 641.00 248.21 L 642.00 247.84 L 643.00 247.47 L 644.00 247.09 L 645.00 246.71 L 646.00 246.31 L 647.00 245.91 L 648.00 245.49 L 649.00 245.07" /><text  class="poloto_text poloto_legend_text" x="675" y="150" >sin(2x)</text><line  class="poloto_line poloto_legend_icon poloto1stroke poloto1legend" stroke="black" x1="680" x2="730" y1="131.25" y2="131.25" /><path  class="poloto_line poloto1stroke" fill="none" stroke="black" d=" M 150.00 254.66 L 151.00 254.04 L 152.00 253.43 L 153.00 252.81 L 154.00 252.20 L 155.00 251.59 L 156.00 250.99 L 157.00 250.39 L 158.00 249.80 L 159.00 249.22 L 160.00 248.64 L 161.00 248.08 L 162.00 247.52 L 163.00 246.98 L 164.00 246.45 L 165.00 245.93 L 166.00 245.43 L 167.00 244.94 L 168.00 244.47 L 169.00 244.01 L 170.00 243.57 L 171.00 243.15 L 172.00 242.74 L 173.00 242.36 L 174.00 241.99 L 175.00 241.65 L 176.00 241.33 L 177.00 241.02 L 178.00 240.74 L 179.00 240.48 L 180.00 240.25 L 181.00 240.04 L 182.00 239.85 L 183.00 239.68 L 184.00 239.54 L 185.00 239.42 L 186.00 239.33 L 187.00 239.26 L 188.00 239.22 L 189.00 239.20 L 190.00 239.20 L 191.00 239.23 L 192.00 239.29 L 193.00 239.37 L 194.00 239.47 L 195.00 239.60 L 196.00 239.75 L 197.00 239.93 L 198.00 240.13 L 199.00 240.35 L 200.00 240.60 L 201.00 240.87 L 202.00 241.16 L 203.00 241.47 L 204.00 241.80 L 205.00 242.16 L 206.00 242.53 L 207.00 242.93 L 208.00 243.34 L 209.00 243.77 L 210.00 244.22 L 211.00 244.68 L 212.00 245.16 L 213.00 245.66 L 214.00 246.17 L 215.00 246.69 L 216.00 247.23 L 217.00 247.78 L 218.00 248.33 L 219.00 248.90 L 220.00 249.48 L 221.00 250.07 L 222.00 250.66 L 223.00 251.26 L 224.00 251.87 L 225.00 252.48 L 226.00 253.09 L 227.00 253.71 L 228.00 254.33 L 229.00 254.95 L 230.00 255.57 L 231.00 256.18 L 232.00 256.80 L 233.00 257.41 L 234.00 258.01 L 235.00 258.62 L 236.00 259.21 L 237.00 259.80 L 238.00 260.38 L 239.00 260.95 L 240.00 261.51 L 241.00 262.06 L 242.00 262.59 L 243.00 263.12 L 244.00 263.63 L 245.00 264.13 L 246.00 264.61 L 247.00 265.07 L 248.00 265.52 L 249.00 265.95 L 250.00 266.37 L 251.00 266.76 L 252.00 267.14 L 253.00 267.49 L 254.00 267.83 L 255.00 268.14 L 256.00 268.44 L 257.00 268.71 L 258.00 268.95 L 259.00 269.18 L 260.00 269.38 L 261.00 269.56 L 262.00 269.71 L 263.00 269.84 L 264.00 269.95 L 265.00 270.03 L 266.00 270.09 L 267.00 270.12 L 268.00 270.13 L 269.00 270.11 L 270.00 270.07 L 271.00 270.00 L 272.00 269.91 L 273.00 269.80 L 274.00 269.66 L 275.00 269.49 L 276.00 269.31 L 277.00 269.10 L 278.00 268.86 L 279.00 268.61 L 280.00 268.33 L 281.00 268.03 L 282.00 267.70 L 283.00 267.36 L 284.00 267.00 L 285.00 266.62 L 286.00 266.21 L 287.00 265.79 L 288.00 265.35 L 289.00 264.90 L 290.00 264.43 L 291.00 263.94 L 292.00 263.44 L 293.00 262.92 L 294.00 262.39 L 295.00 261.85 L 296.00 261.30 L 297.00 260.73 L 298.00 260.16 L 299.00 259.58 L 300.00 258.98 L 301.00 258.39 L 302.00 257.78 L 303.00 257.18 L 304.00 256.56 L 305.00 255.95 L 306.00 255.33 L 307.00 254.71 L 308.00 254.09 L 309.00 253.48 L 310.00 252.86 L 311.00 252.25 L 312.00 251.64 L 313.00 251.03 L 314.00 250.44 L 315.00 249.84 L 316.00 249.26 L 317.00 248.69 L 318.00 248.12 L 319.00 247.57 L 320.00 247.02 L 321.00 246.49 L 322.00 245.97 L 323.00 245.47 L 324.00 244.98 L 325.00 244.50 L 326.00 244.04 L 327.00 243.60 L 328.00 243.18 L 329.00 242.77 L 330.00 242.39 L 331.00 242.02 L 332.00 241.68 L 333.00 241.35 L 334.00 241.05 L 335.00 240.76 L 336.00 240.50 L 337.00 240.27 L 338.00 240.05 L 339.00 239.86 L 340.00 239.69 L 341.00 239.55 L 342.00 239.43 L 343.00 239.34 L 344.00 239.27 L 345.00 239.22 L 346.00 239.20 L 347.00 239.20 L 348.00 239.23 L 349.00 239.28 L 350.00 239.36 L 351.00 239.46 L 352.00 239.59 L 353.00 239.74 L 354.00 239.92 L 355.00 240.11 L 356.00 240.34 L 357.00 240.58 L 358.00 240.85 L 359.00 241.14 L 360.00 241.45 L 361.00 241.78 L 362.00 242.13 L 363.00 242.50 L 364.00 242.89 L 365.00 243.30 L 366.00 243.73 L 367.00 244.18 L 368.00 244.64 L 369.00 245.12 L 370.00 245.62 L 371.00 246.13 L 372.00 246.65 L 373.00 247.18 L 374.00 247.73 L 375.00 248.29 L 376.00 248.86 L 377.00 249.44 L 378.00 250.02 L 379.00 250.62 L 380.00 251.22 L 381.00 251.82 L 382.00 252.43 L 383.00 253.05 L 384.00 253.66 L 385.00 254.28 L 386.00 254.90 L 387.00 255.52 L 388.00 256.13 L 389.00 256.75 L 390.00 257.36 L 391.00 257.97 L 392.00 258.57 L 393.00 259.16 L 394.00 259.75 L 395.00 260.33 L 396.00 260.90 L 397.00 261.46 L 398.00 262.01 L 399.00 262.55 L 400.00 263.08 L 401.00 263.59 L 402.00 264.09 L 403.00 264.57 L 404.00 265.04 L 405.00 265.49 L 406.00 265.92 L 407.00 266.34 L 408.00 266.73 L 409.00 267.11 L 410.00 267.47 L 411.00 267.80 L 412.00 268.12 L 413.00 268.41 L 414.00 268.69 L 415.00 268.94 L 416.00 269.16 L 417.00 269.37 L 418.00 269.55 L 419.00 269.70 L 420.00 269.83 L 421.00 269.94 L 422.00 270.03 L 423.00 270.09 L 424.00 270.12 L 425.00 270.13 L 426.00 270.11 L 427.00 270.07 L 428.00 270.01 L 429.00 269.92 L 430.00 269.81 L 431.00 269.67 L 432.00 269.51 L 433.00 269.32 L 434.00 269.11 L 435.00 268.88 L 436.00 268.63 L 437.00 268.35 L 438.00 268.05 L 439.00 267.73 L 440.00 267.39 L 441.00 267.03 L 442.00 266.65 L 443.00 266.25 L 444.00 265.83 L 445.00 265.39 L 446.00 264.94 L 447.00 264.46 L 448.00 263.98 L 449.00 263.48 L 450.00 262.96 L 451.00 262.43 L 452.00 261.89 L 453.00 261.34 L 454.00 260.78 L 455.00 260.20 L 456.00 259.62 L 457.00 259.03 L 458.00 258.44 L 459.00 257.83 L 460.00 257.22 L 461.00 256.61 L 462.00 256.00 L 463.00 255.38 L 464.00 254.76 L 465.00 254.14 L 466.00 253.53 L 467.00 252.91 L 468.00 252.30 L 469.00 251.69 L 470.00 251.08 L 471.00 250.48 L 472.00 249.89 L 473.00 249.31 L 474.00 248.73 L 475.00 248.16 L 476.00 247.61 L 477.00 247.06 L 478.00 246.53 L 479.00 246.01 L 480.00 245.51 L 481.00 245.02 L 482.00 244.54 L 483.00 244.08 L 484.00 243.64 L 485.00 243.21 L 486.00 242.81 L 487.00 242.42 L 488.00 242.05 L 489.00 241.70 L 490.00 241.38 L 491.00 241.07 L 492.00 240.79 L 493.00 240.52 L 494.00 240.28 L 495.00 240.07 L 496.00 239.87 L 497.00 239.71 L 498.00 239.56 L 499.00 239.44 L 500.00 239.34 L 501.00 239.27 L 502.00 239.22 L 503.00 239.20 L 504.00 239.20 L 505.00 239.23 L 506.00 239.28 L 507.00 239.35 L 508.00 239.45 L 509.00 239.58 L 510.00 239.73 L 511.00 239.90 L 512.00 240.10 L 513.00 240.32 L 514.00 240.56 L 515.00 240.82 L 516.00 241.11 L 517.00 241.42 L 518.00 241.75 L 519.00 242.10 L 520.00 242.47 L 521.00 242.86 L 522.00 243.27 L 523.00 243.70 L 524.00 244.14 L 525.00 244.61 L 526.00 245.08 L 527.00 245.58 L 528.00 246.08 L 529.00 246.61 L 530.00 247.14 L 531.00 247.69 L 532.00 248.24 L 533.00 248.81 L 534.00 249.39 L 535.00 249.98 L 536.00 250.57 L 537.00 251.17 L 538.00 251.77 L 539.00 252.38 L 540.00 253.00 L 541.00 253.61 L 542.00 254.23 L 543.00 254.85 L 544.00 255.47 L 545.00 256.08 L 546.00 256.70 L 547.00 257.31 L 548.00 257.92 L 549.00 258.52 L 550.00 259.12 L 551.00 259.70 L 552.00 260.29 L 553.00 260.86 L 554.00 261.42 L 555.00 261.97 L 556.00 262.51 L 557.00 263.04 L 558.00 263.55 L 559.00 264.05 L 560.00 264.53 L 561.00 265.00 L 562.00 265.45 L 563.00 265.89 L 564.00 266.30 L 565.00 266.70 L 566.00 267.08 L 567.00 267.44 L 568.00 267.78 L 569.00 268.09 L 570.00 268.39 L 571.00 268.66 L 572.00 268.92 L 573.00 269.15 L 574.00 269.35 L 575.00 269.53 L 576.00 269.69 L 577.00 269.83 L 578.00 269.94 L 579.00 270.02 L 580.00 270.08 L 581.00 270.12 L 582.00 270.13 L 583.00 270.12 L 584.00 270.08 L 585.00 270.02 L 586.00 269.93 L 587.00 269.82 L 588.00 269.68 L 589.00 269.52 L 590.00 269.34 L 591.00 269.13 L 592.00 268.90 L 593.00 268.65 L 594.00 268.37 L 595.00 268.08 L 596.00 267.76 L 597.00 267.42 L 598.00 267.06 L 599.00 266.68 L 600.00 266.28 L 601.00 265.86 L 602.00 265.43 L 603.00 264.97 L 604.00 264.50 L 605.00 264.02 L 606.00 263.52 L 607.00 263.00 L 608.00 262.48 L 609.00 261.94 L 610.00 261.38 L 611.00 260.82 L 612.00 260.25 L 613.00 259.67 L 614.00 259.08 L 615.00 258.48 L 616.00 257.88 L 617.00 257.27 L 618.00 256.66 L 619.00 256.05 L 620.00 255.43 L 621.00 254.81 L 622.00 254.19 L 623.00 253.57 L 624.00 252.96 L 625.00 252.35 L 626.00 251.74 L 627.00 251.13 L 628.00 250.53 L 629.00 249.94 L 630.00 249.35 L 631.00 248.78 L 632.00 248.21 L 633.00 247.65 L 634.00 247.11 L 635.00 246.57 L 636.00 246.05 L 637.00 245.55 L 638.00 245.05 L 639.00 244.58 L 640.00 244.12 L 641.00 243.67 L 642.00 243.25 L 643.00 242.84 L 644.00 242.45 L 645.00 242.08 L 646.00 241.73 L 647.00 241.40 L 648.00 241.09 L 649.00 240.81" /><text  class="poloto_text poloto_legend_text" x="675" y="200" >2*cos(x)</text><line  class="poloto_line poloto_legend_icon poloto2stroke poloto2legend" stroke="black" x1="680" x2="730" y1="181.25" y2="181.25" /><path  class="poloto_line poloto2stroke" fill="none" stroke="black" d=" M 190.00 233.11 M 190.00 233.11 L 191.00 233.56 L 192.00 234.02 L 193.00 234.48 L 194.00 234.95 L 195.00 235.44 L 196.00 235.92 L 197.00 236.42 L 198.00 236.92 L 199.00 237.43 L 200.00 237.95 L 201.00 238.47 L 202.00 239.00 L 203.00 239.54 L 204.00 240.08 L 205.00 240.63 L 206.00 241.19 L 207.00 241.75 L 208.00 242.31 L 209.00 242.88 L 210.00 243.45 L 211.00 244.03 L 212.00 244.62 L 213.00 245.20 L 214.00 245.79 L 215.00 246.39 L 216.00 246.99 L 217.00 247.59 L 218.00 248.19 L 219.00 248.80 L 220.00 249.41 L 221.00 250.02 L 222.00 250.63 L 223.00 251.24 L 224.00 251.86 L 225.00 252.48 L 226.00 253.09 L 227.00 253.71 L 228.00 254.33 L 229.00 254.95 L 230.00 255.57 L 231.00 256.18 L 232.00 256.80 L 233.00 257.42 L 234.00 258.03 L 235.00 258.65 L 236.00 259.26 L 237.00 259.87 L 238.00 260.48 L 239.00 261.09 L 240.00 261.69 L 241.00 262.29 L 242.00 262.89 L 243.00 263.49 L 244.00 264.08 L 245.00 264.66 L 246.00 265.25 L 247.00 265.83 L 248.00 266.40 L 249.00 266.97 L 250.00 267.54 L 251.00 268.10 L 252.00 268.65 L 253.00 269.20 L 254.00 269.74 L 255.00 270.28 L 256.00 270.81 L 257.00 271.33 L 258.00 271.85 L 259.00 272.36 L 260.00 272.87 L 261.00 273.36 L 262.00 273.85 L 263.00 274.33 L 264.00 274.81 L 265.00 275.27 L 266.00 275.73 L 267.00 276.18 L 268.00 276.62 L 269.00 277.05 L 270.00 277.47 L 271.00 277.89 L 272.00 278.29 L 273.00 278.68 L 274.00 279.07 L 275.00 279.44 L 276.00 279.81 L 277.00 280.17 L 278.00 280.51 L 279.00 280.85 L 280.00 281.17 L 281.00 281.48 L 282.00 281.79 L 283.00 282.08 L 284.00 282.36 L 285.00 282.63 L 286.00 282.89 L 287.00 283.14 L 288.00 283.37 L 289.00 283.60 L 290.00 283.81 L 291.00 284.01 L 292.00 284.20 L 293.00 284.38 L 294.00 284.54 L 295.00 284.70 L 296.00 284.84 L 297.00 284.97 L 298.00 285.09 L 299.00 285.19 L 300.00 285.29 L 301.00 285.37 L 302.00 285.44 L 303.00 285.49 L 304.00 285.54 L 305.00 285.57 L 306.00 285.59 L 307.00 285.60 L 308.00 285.59 L 309.00 285.57 L 310.00 285.54 L 311.00 285.50 L 312.00 285.45 L 313.00 285.38 L 314.00 285.30 L 315.00 285.21 L 316.00 285.11 L 317.00 284.99 L 318.00 284.86 L 319.00 284.72 L 320.00 284.57 L 321.00 284.40 L 322.00 284.23 L 323.00 284.04 L 324.00 283.84 L 325.00 283.63 L 326.00 283.41 L 327.00 283.17 L 328.00 282.93 L 329.00 282.67 L 330.00 282.40 L 331.00 282.12 L 332.00 281.83 L 333.00 281.53 L 334.00 281.22 L 335.00 280.90 L 336.00 280.56 L 337.00 280.22 L 338.00 279.87 L 339.00 279.50 L 340.00 279.13 L 341.00 278.75 L 342.00 278.35 L 343.00 277.95 L 344.00 277.54 L 345.00 277.12 L 346.00 276.69 L 347.00 276.25 L 348.00 275.80 L 349.00 275.35 L 350.00 274.88 L 351.00 274.41 L 352.00 273.93 L 353.00 273.44 L 354.00 272.95 L 355.00 272.44 L 356.00 271.93 L 357.00 271.42 L 358.00 270.89 L 359.00 270.36 L 360.00 269.83 L 361.00 269.29 L 362.00 268.74 L 363.00 268.18 L 364.00 267.63 L 365.00 267.06 L 366.00 266.49 L 367.00 265.92 L 368.00 265.34 L 369.00 264.76 L 370.00 264.17 L 371.00 263.58 L 372.00 262.99 L 373.00 262.39 L 374.00 261.79 L 375.00 261.18 L 376.00 260.58 L 377.00 259.97 L 378.00 259.36 L 379.00 258.75 L 380.00 258.13 L 381.00 257.52 L 382.00 256.90 L 383.00 256.28 L 384.00 255.67 L 385.00 255.05 L 386.00 254.43 L 387.00 253.81 L 388.00 253.19 L 389.00 252.57 L 390.00 251.96 L 391.00 251.34 L 392.00 250.73 L 393.00 250.11 L 394.00 249.50 L 395.00 248.89 L 396.00 248.29 L 397.00 247.68 L 398.00 247.08 L 399.00 246.48 L 400.00 245.89 L 401.00 245.30 L 402.00 244.71 L 403.00 244.13 L 404.00 243.55 L 405.00 242.97 L 406.00 242.40 L 407.00 241.84 L 408.00 241.28 L 409.00 240.72 L 410.00 240.17 L 411.00 239.63 L 412.00 239.09 L 413.00 238.56 L 414.00 238.03 L 415.00 237.52 L 416.00 237.00 L 417.00 236.50 L 418.00 236.00 L 419.00 235.51 L 420.00 235.03 L 421.00 234.56 L 422.00 234.09 L 423.00 233.63 L 424.00 233.18 M 504.00 233.04 L 505.00 233.49 L 506.00 233.94 L 507.00 234.41 L 508.00 234.88 L 509.00 235.36 L 510.00 235.85 L 511.00 236.34 L 512.00 236.84 L 513.00 237.35 L 514.00 237.87 L 515.00 238.39 L 516.00 238.92 L 517.00 239.46 L 518.00 240.00 L 519.00 240.54 L 520.00 241.10 L 521.00 241.66 L 522.00 242.22 L 523.00 242.79 L 524.00 243.36 L 525.00 243.94 L 526.00 244.52 L 527.00 245.11 L 528.00 245.70 L 529.00 246.29 L 530.00 246.89 L 531.00 247.49 L 532.00 248.09 L 533.00 248.70 L 534.00 249.31 L 535.00 249.92 L 536.00 250.53 L 537.00 251.15 L 538.00 251.76 L 539.00 252.38 L 540.00 252.99 L 541.00 253.61 L 542.00 254.23 L 543.00 254.85 L 544.00 255.47 L 545.00 256.09 L 546.00 256.70 L 547.00 257.32 L 548.00 257.94 L 549.00 258.55 L 550.00 259.16 L 551.00 259.78 L 552.00 260.38 L 553.00 260.99 L 554.00 261.60 L 555.00 262.20 L 556.00 262.80 L 557.00 263.39 L 558.00 263.98 L 559.00 264.57 L 560.00 265.15 L 561.00 265.73 L 562.00 266.31 L 563.00 266.88 L 564.00 267.45 L 565.00 268.01 L 566.00 268.56 L 567.00 269.11 L 568.00 269.66 L 569.00 270.19 L 570.00 270.73 L 571.00 271.25 L 572.00 271.77 L 573.00 272.28 L 574.00 272.79 L 575.00 273.29 L 576.00 273.78 L 577.00 274.26 L 578.00 274.73 L 579.00 275.20 L 580.00 275.66 L 581.00 276.11 L 582.00 276.55 L 583.00 276.98 L 584.00 277.41 L 585.00 277.82 L 586.00 278.23 L 587.00 278.62 L 588.00 279.01 L 589.00 279.39 L 590.00 279.75 L 591.00 280.11 L 592.00 280.46 L 593.00 280.79 L 594.00 281.12 L 595.00 281.43 L 596.00 281.74 L 597.00 282.03 L 598.00 282.31 L 599.00 282.59 L 600.00 282.85 L 601.00 283.10 L 602.00 283.33 L 603.00 283.56 L 604.00 283.78 L 605.00 283.98 L 606.00 284.17 L 607.00 284.35 L 608.00 284.52 L 609.00 284.67 L 610.00 284.82 L 611.00 284.95 L 612.00 285.07 L 613.00 285.18 L 614.00 285.27 L 615.00 285.36 L 616.00 285.43 L 617.00 285.48 L 618.00 285.53 L 619.00 285.57 L 620.00 285.59 L 621.00 285.60 L 622.00 285.59 L 623.00 285.58 L 624.00 285.55 L 625.00 285.51 L 626.00 285.46 L 627.00 285.39 L 628.00 285.31 L 629.00 285.22 L 630.00 285.12 L 631.00 285.01 L 632.00 284.88 L 633.00 284.74 L 634.00 284.59 L 635.00 284.43 L 636.00 284.26 L 637.00 284.07 L 638.00 283.87 L 639.00 283.66 L 640.00 283.44 L 641.00 283.21 L 642.00 282.97 L 643.00 282.71 L 644.00 282.45 L 645.00 282.17 L 646.00 281.88 L 647.00 281.58 L 648.00 281.27 L 649.00 280.95" /><text  class="poloto_labels poloto_text poloto_title" x="400" y="37.5" >Some Trigonometry Plots 🥳</text><text  class="poloto_labels poloto_text poloto_xname" x="400" y="481.25" >This is the x label</text><text  class="poloto_labels poloto_text poloto_yname" transform="rotate(-90,37.5,250)" x="37.5" y="250" >This is the y label</text><text  class="poloto_tick_labels poloto_text" dominant-baseline="middle" text-anchor="start" x="440.00000000000006" y="70" ></text><line  class="poloto_axis_lines" stroke="black" x1="150" x2="150" y1="400" y2="405" /><text  class="poloto_tick_labels poloto_text" dominant-baseline="start" text-anchor="middle" x="150" y="430" >0</text><line  class="poloto_axis_lines" stroke="black" x1="250" x2="250" y1="400" y2="405" /><text  class="poloto_tick_labels poloto_text" dominant-baseline="start" text-anchor="middle" x="250" y="430" >2</text><line  class="poloto_axis_lines" stroke="black" x1="350" x2="350" y1="400" y2="405" /><text  class="poloto_tick_labels poloto_text" dominant-baseline="start" text-anchor="middle" x="350" y="430" >4</text><line  class="poloto_axis_lines" stroke="black" x1="450" x2="450" y1="400" y2="405" /><text  class="poloto_tick_labels poloto_text" dominant-baseline="start" text-anchor="middle" x="450" y="430" >6</text><line  class="poloto_axis_lines" stroke="black" x1="550" x2="550" y1="400" y2="405" /><text  class="poloto_tick_labels poloto_text" dominant-baseline="start" text-anchor="middle" x="550" y="430" >8</text><line  class="poloto_axis_lines" stroke="black" x1="650" x2="650" y1="400" y2="405" /><text  class="poloto_tick_labels poloto_text" dominant-baseline="start" text-anchor="middle" x="650" y="430" >10</text><text  class="poloto_tick_labels poloto_text" dominant-baseline="middle" text-anchor="start" x="150" y="70" ></text><line  class="poloto_axis_lines" stroke="black" x1="150" x2="144" y1="331.9950926833627" y2="331.9950926833627" /><text  class="poloto_tick_labels poloto_text" dominant-baseline="middle" text-anchor="end" x="135" y="331.9950926833627" >-5</text><line  class="poloto_axis_lines" stroke="black" x1="150" x2="144" y1="254.6633951222418" y2="254.6633951222418" /><text  class="poloto_tick_labels poloto_text" dominant-baseline="middle" text-anchor="end" x="135" y="254.6633951222418" >0</text><line  class="poloto_axis_lines" stroke="black" x1="150" x2="144" y1="177.3316975611209" y2="177.3316975611209" /><text  class="poloto_tick_labels poloto_text" dominant-baseline="middle" text-anchor="end" x="135" y="177.3316975611209" >5</text><line  class="poloto_axis_lines" stroke="black" x1="150" x2="144" y1="100" y2="100" /><text  class="poloto_tick_labels poloto_text" dominant-baseline="middle" text-anchor="end" x="135" y="100" >10</text><path  stroke="black" fill="none" class="poloto_axis_lines" style="stroke-dasharray:12.5;stroke-dashoffset:-0;" d=" M 150 400 L 650 400" /><path  stroke="black" fill="none" class="poloto_axis_lines" style="stroke-dasharray:7.733169756112089;stroke-dashoffset:-68.0049073166373;" d=" M 150 400 L 150 100" /></svg>