<svg class="poloto" width="800" height="500" viewBox="0 0 800 500" xmlns="http://www.w3.org/2000/svg" style="overflow:hidden;"><style>.poloto { stroke-linecap:round; stroke-linejoin:round; font-family: 'Tahoma', sans-serif; background-color: AliceBlue;} .poloto_scatter{stroke-width:7} .poloto_tick_line{stroke:gray;stroke-width:0.5} .poloto_line{stroke-width:2} .poloto_text{fill: black;} .poloto_axis_lines{stroke: black;stroke-width:3;fill:none;stroke-dasharray:none} .poloto0stroke{stroke:  blue;} .poloto1stroke{stroke:  red;} .poloto2stroke{stroke:  green;} .poloto3stroke{stroke:  gold;} .poloto4stroke{stroke:  aqua;} .poloto5stroke{stroke:  lime;} .poloto6stroke{stroke:  orange;} .poloto7stroke{stroke:  chocolate;} .poloto0fill{fill:blue;} .poloto1fill{fill:red;} .poloto2fill{fill:green;} .poloto3fill{fill:gold;} .poloto4fill{fill:aqua;} .poloto5fill{fill:lime;} .poloto6fill{fill:orange;} .poloto7fill{fill:chocolate;}</style><text  class="poloto_text poloto_legend_text" alignment-baseline="middle" text-anchor="start" font-size="large" x="675" y="100" >tan(x)</text><line  class="poloto_line poloto_legend_icon poloto0stroke poloto0legend" stroke="black" x1="680" x2="730" y1="81.25" y2="81.25" /><path  class="poloto_line poloto0stroke" fill="none" stroke="black" d=" M 250 288.4579634951884 M 250 288.4579634951884 L 251 286.74635745226647 L 252 285.17113191006956 L 253 283.7154914734112 L 254 282.3652759414903 L 255 281.1084622686057 L 256 279.93477534058246 L 257 278.83538080263827 L 258 277.8026404423202 L 259 276.82991575161327 L 260 275.9114089479496 L 261 275.0420333759024 L 262 274.2173071427552 L 263 273.43326526811296 L 264 272.6863866925203 L 265 271.97353329201474 L 266 271.2918986548225 L 267 270.6389648431098 L 268 270.01246572296134 L 269 269.4103557258754 L 270 268.83078312437965 L 271 268.27206707719137 L 272 267.7326778363803 L 273 267.21121961828334 L 274 266.706415727571 L 275 266.2170955945366 L 276 265.7421834429442 L 277 265.2806883524025 L 278 264.8316955173677 L 279 264.39435853621825 L 280 263.9678925896922 L 281 263.55156838939257 L 282 263.1447067948696 L 283 262.746674012647 L 284 262.35687730300145 L 285 261.97476113075817 L 286 261.599803705179 L 287 261.23151386146617 L 288 260.86942824272325 L 289 260.51310874658213 L 290 260.1621402052828 L 291 259.8161282718987 L 292 259.47469748874903 L 293 259.13748951690707 L 294 258.80416150818013 L 295 258.4743846030556 L 296 258.14784253993366 L 297 257.82423036253954 L 298 257.5032532137613 L 299 257.1846252053255 L 300 256.8680683537225 L 301 256.5533115736512 L 302 256.2400897209842 L 303 255.92814267787156 L 304 255.6172144731217 L 305 255.30705243142623 L 306 254.99740634534191 L 307 254.6880276642141 L 308 254.378668694426 L 309 254.06908180549215 L 310 253.75901863658157 L 311 253.4482292980626 L 312 253.13646156260174 L 313 252.82346004022716 L 314 252.50896533157754 L 315 252.19271315329766 L 316 251.87443342920795 L 317 251.5538493404603 L 318 251.23067632738804 L 319 250.9046210351564 L 320 250.5753801946073 L 321 250.2426394288569 L 322 249.90607197522692 L 323 249.565337310954 L 324 249.2200796697994 L 325 248.86992643514515 L 326 248.51448639338173 L 327 248.15334782932092 L 328 247.78607644296207 L 329 247.41221306413874 L 330 247.03127113830823 L 331 246.64273395293347 L 332 246.24605156944583 L 333 245.84063742054295 L 334 245.42586452642325 L 335 245.0010612763028 L 336 244.56550671298407 L 337 244.11842524807338 L 338 243.658980723346 L 339 243.18626971931556 L 340 242.69931399477164 L 341 242.19705192026078 L 342 241.6783287434063 L 343 241.14188549358067 L 344 240.58634629648992 L 345 240.01020382408313 L 346 239.41180254979608 L 347 238.78931941081697 L 348 238.14074139439734 L 349 237.46383945974975 L 350 236.75613807494446 L 351 236.01487948172888 L 352 235.23698159013964 L 353 234.41898813548477 L 354 233.55700938433273 L 355 232.64665122851528 L 356 231.68292992251108 L 357 230.6601689523909 L 358 229.57187350732826 L 359 228.41057666359433 L 360 227.16764955172272 L 361 225.8330652659425 L 362 224.39510280636134 L 363 222.83997249565158 L 364 221.15133744476725 L 365 219.3096957775871 L 366 217.2915739345499 L 367 215.06846002997807 L 368 212.60537398920866 L 369 209.858921479374 L 370 206.7746002909393 L 371 203.28300123254218 L 372 199.29433535092045 L 373 194.6903590893186 L 374 189.31212980284323 L 375 182.9408431356331 L 376 175.26671798295752 L 377 165.83622228002105 L 378 153.95774130004912 L 379 138.52174183771405 L 380 117.62892204846261 M 391 397.8326790694665 L 392 375.20387847238976 L 393 358.67896216947526 L 394 346.07285770518735 L 395 336.13223125660477 L 396 328.08669702680766 L 397 321.4366358817636 L 398 315.8438436672154 L 399 311.0712141292065 L 400 306.9475879350201 L 401 303.34631419281897 L 402 300.171664624768 L 403 297.3499377449386 L 404 294.8234669129255 L 405 292.54648342132157 L 406 290.48219747821844 L 407 288.6006983452982 L 408 286.87741742276097 L 409 285.29198573792115 L 410 283.8273725984303 L 411.00000000000006 282.46922786423966 L 412 281.205373808481 L 413 280.0254083237659 L 414 278.9203920105887 L 415.00000000000006 277.8825991624615 L 416 276.9053179250676 L 417 275.982688660043 L 418 275.10957225409214 L 419.00000000000006 274.2814420935591 L 420 273.4942948858167 L 421 272.7445765983768 L 422 272.02912060662504 L 423.00000000000006 271.34509576365394 L 424 270.689962582248 L 425 270.0614360867377 L 426 269.45745417815294 L 427.00000000000006 268.8761505796807 L 428 268.31583160552316 L 429 267.7749561358111 L 430 267.25211829148134 L 431.00000000000006 266.7460323922144 L 432 266.2555198524084 L 432.99999999999994 265.77949772838735 L 434 265.3169686774329 L 434.99999999999994 264.86701212797584 L 436 264.42877649210976 L 436.99999999999994 264.0014722778358 L 438 263.58436598017863 L 438.99999999999994 263.176774648383 L 440 262.77806104146697 L 440.99999999999994 262.38762929702995 L 442 262.00492104881016 L 443 261.62941193741807 L 444 261.260608466222 L 445 260.89804516075935 L 446 260.54128199548774 L 447 260.1899020563223 L 448 259.8435094113641 L 449 259.5017271656125 L 450 259.1641956783576 L 451 258.83057092444574 L 452 258.50052298275455 L 453 258.1737346370635 L 454 257.84990007609485 L 455 257.52872368087196 L 456 257.2099188887187 L 457 256.89320712423984 L 458 256.57831678848754 L 459 256.2649822982609 L 460 255.9529431681117 L 461 255.64194312815698 L 462 255.33172927123442 L 463 255.02205122328795 L 464 254.71266033115006 L 465 254.40330886209173 L 466 254.09374920964916 L 467 253.78373310031063 L 468 253.4730107956569 L 469 253.16133028449485 L 470 252.84843645940657 L 471 252.53407027195294 L 472 252.2179678605158 L 473 251.89985964443582 L 474 251.57946937769412 L 475 251.25651315488994 L 476 250.93069836167135 L 477 250.60172256107512 L 478 250.2692723064045 L 479 249.9330218703102 L 480 249.5926318786154 L 481 249.24774783611983 L 482 248.89799853009987 L 483 248.54299429546165 L 484.00000000000006 248.1823251234574 L 485 247.81555859349828 L 486.00000000000006 247.44223760482998 L 487 247.06187788161196 L 488.00000000000006 246.67396522117662 L 489 246.2779524508377 L 490.00000000000006 245.87325605345112 L 491 245.45925241585743 L 492.00000000000006 245.0352736471744 L 493 244.60060290544692 L 493.99999999999994 244.15446916112708 L 495 243.69604131392572 L 496 243.22442156534058 L 497 242.73863793211933 L 497.99999999999994 242.2376357654348 L 499 241.72026811584365 L 500 241.18528475418464 L 501 240.6313196221938 L 501.99999999999994 240.0568764421914 L 503 239.46031216069466 L 504 238.83981783363342 L 505 238.1933964776294 L 505.99999999999994 237.51883730817062 L 507 236.8136856557576 L 508 236.07520768768353 L 509 235.30034885605184 L 509.99999999999994 234.48568472858426 L 511 233.62736251974854 L 512 232.72103120132073 L 513 231.76175750022145 L 514 230.74392434103902 L 515 229.66110729639377 L 516 228.5059232788827 L 517 227.2698439133579 L 518 225.94296357923483 L 519 224.51370873341264 L 520 222.9684704054806 L 521 221.29113508074062 L 522 219.46247960763455 L 523 217.4593818108477 L 524 215.25377781925138 L 525 212.8112659339488 L 526 210.08920887117392 L 527 207.03411071217852 L 528 203.577923160651 L 529 199.63273400159534 L 530 195.08294599695506 L 531 189.77344465177555 L 532 183.49113052203785 L 533 175.93502713545524 L 534 166.66577151908882 L 535 155.01574201324243 L 536 139.91869251068124 L 537 119.56002543438063 M 548 400 L 549 376.7438620950313 L 550 359.8300410738401 L 551 346.96633229218645 L 552 336.84632092214656 L 553 328.67088580841863 L 554 321.9237514209105 L 555 316.25651847945585 L 556 311.4255568749026 L 557 307.2553753785282 L 558 303.6163553033663 L 559 300.4106798964963 L 560 297.56314344643437 L 561 295.0149736414502 L 562 292.7195743417035 L 563 290.6395265833306 L 564 288.74443432867537 L 565 287.00934980646014 L 566 285.413604322841 L 567 283.9399277452642 L 568 282.57377679188033 L 569 281.3028165526377 L 570 280.11651595299156 L 571 279.0058289772476 L 572 277.9629411633074 L 573 276.98106628984596 L 574 276.05428203086507 L 575 275.177396132677 L 576 274.34583669711174 L 577 273.5555616511769 L 578 272.80298359831454 L 579 272.0849070848933 L 580 271.3984759517576 L 581 270.7411289273433 L 582 270.11056199410547 L 583 269.5046963514378 L 584 268.9216510261915 L 585 268.3597193613316 L 586 267.8173487554027 L 587 267.29312313873464 L 588 266.78574776307033 L 589 266.2940359544116 L 590 265.81689753807376 L 591 265.35332869310685 L 592 264.90240303260725 L 593 264.46326373876934 L 594 264.03511660817213 L 595 263.617223884857 L 596 263.2088987770818 L 597 262.80950056892686 L 598 262.4184302507237 L 599 262.03512660302187 L 600 261.6590626778644 L 601 261.2897426287912 L 602 260.9266988474724 L 603 260.5694893703828 L 604 260.2176955236231 L 605 259.87091977799724 L 606 259.5287837898905 L 607 259.19092660642684 L 608 258.85700301591396 L 609 258.5266820267545 L 610 258.1996454598697 L 611 257.87558664129506 L 612 257.55420918299006 L 613 257.2352258411016 L 614 256.91835744194316 L 615 256.60333186683187 L 616 256.28988308767543 L 617 255.97775024583646 L 618 255.66667676733587 L 619 255.35640950789943 L 620 255.0466979217105 L 621 254.73729324801585 L 622 254.4279477099409 L 623 254.11841372001555 L 624 253.8084430869907 L 625 253.49778621853963 L 626 253.18619131439064 L 627 252.87340354432584 L 628 252.55916420530096 L 629 252.243209851694 L 630 251.92527139236864 L 631 251.60507314783607 L 632 251.28233186031002 L 633 250.95675564886437 L 634 250.6280429012081 L 635 250.29588109277816 L 636 249.95994552289756 L 637 249.6198979566351 L 638 249.2753851597134 L 639 248.92603731231137 L 640 248.57146628586813 L 641 248.2112637649735 L 642 247.84499919408 L 643 247.47221752604003 L 644 247.09243674628362 L 645 246.7051451427354 L 646 246.309798287217 L 647 245.90581568898045 L 648 245.49257707502275 L 649 245.06941824476547" /><text  class="poloto_text poloto_legend_text" alignment-baseline="middle" text-anchor="start" font-size="large" x="675" y="150" >sin(2x)</text><line  class="poloto_line poloto_legend_icon poloto1stroke poloto1legend" stroke="black" x1="680" x2="730" y1="131.25" y2="131.25" /><path  class="poloto_line poloto1stroke" fill="none" stroke="black" d=" M 150 254.6633951222418 L 151 254.04490650284353 L 152 253.4274073332991 L 153 252.81188548055363 L 154 252.1993256482672 L 155 251.590707801499 L 156 250.98700559897236 L 157 250.38918483542832 L 158 249.79820189656027 L 159 249.21500222900082 L 160 248.64051882780868 L 161 248.07567074387592 L 162 247.52136161364226 L 163 246.97847821346983 L 164 246.4478890409899 L 165 245.93044292569218 L 166 245.42696767097848 L 167 244.93826872985403 L 168 244.46512791637443 L 169 244.0083021549099 L 170 243.56852226922783 L 171 243.1464918133306 L 172 242.7428859459193 L 173 242.35835035028379 L 174 241.9935002013472 L 175 241.64891918151724 L 176 241.325158546919 L 177 241.02273624550256 L 178 240.74213608843687 L 179 240.48380697611506 L 180 240.2481621800096 L 181 240.035578681526 L 182 239.84639656891312 L 183 239.6809184931945 L 184 239.5394091839911 L 185 239.42209502601065 L 186 239.32916369688022 L 187 239.26076386690212 L 188 239.21700496121315 L 189 239.19795698472765 L 190 239.2036504101447 L 191 239.2340761291981 L 192 239.28918546722787 L 193 239.36889026104916 L 194 239.4730629999947 L 195 239.60153702990448 L 196 239.75410681973696 L 197 239.9305282903749 L 198 240.13051920509986 L 199 240.35375962111073 L 200 240.599892401364 L 201 240.86852378591675 L 202 241.15922402185868 L 203 241.47152805082504 L 204 241.80493625299079 L 205 242.15891524635572 L 206 242.532898740042 L 207 242.92628844023855 L 208 243.33845500734378 L 209 243.76873906277444 L 210 244.21645224383093 L 211 244.6808783049306 L 212 245.16127426344792 L 213 245.65687158832833 L 214 246.1668774295738 L 215 246.69047588663372 L 216 247.2268293136719 L 217 247.77507965962107 L 218 248.3343498408815 L 219 248.90374514446773 L 220 249.48235465935866 L 221 250.0692527337605 L 222 250.66350045595246 L 223 251.26414715634513 L 224 251.870231928349 L 225 252.4807851656201 L 226 253.09483011322314 L 227 253.71138443023125 L 228 254.32946176126183 L 229 254.94807331443462 L 230 255.56622944322802 L 231 256.18294122970224 L 232 256.7972220665571 L 233 257.40808923549315 L 234 258.0145654793515 L 235 258.6156805655167 L 236 259.2104728380819 L 237 259.7979907562933 L 238 260.3772944168122 L 239 260.94745705736 L 240 261.50756653933996 L 241 262.0567268070646 L 242 262.59405932125344 L 243 263.1187044645087 L 244 263.6298229165195 L 245 264.12659699679534 L 246 264.60823197278063 L 247 265.0739573312571 L 248 265.52302801100063 L 249 265.9547255947203 L 250 266.36835945837265 L 251 266.7632678760131 L 252 267.1388190784161 L 253 267.494412263771 L 254 267.82947855883714 L 255 268.1434819290194 L 256 268.4359200359093 L 257 268.7063250409193 L 258 268.9542643537246 L 259 269.1793413243158 L 260 269.3811958775537 L 261 269.55950508921313 L 262 269.7139837025927 L 263 269.84438458486477 L 264 269.95049912243496 L 265 270.03215755467977 L 266 270.0892292455271 L 267 270.12162289244634 L 268 270.12928667251265 L 269 270.1122083253127 L 270 270.0704151725589 L 271 270.00397407438027 L 272 269.91299132236054 L 273 269.79761246949425 L 274 269.65802209733323 L 275 269.4944435206952 L 276 269.3071384304079 L 277 269.09640647465955 L 278 268.8625847796255 L 279 268.60604741013856 L 280 268.3272047712648 L 281 268.0265029517433 L 282 267.7044230103388 L 283 267.3614802062509 L 284 266.998223174809 L 285 266.61523304977266 L 286 266.21312253364164 L 287 265.7925349174629 L 288 265.3541430517016 L 289 264.89864826982443 L 290 264.4267792663154 L 291 263.93929093092004 L 292 263.43696314098304 L 293 262.9205995138107 L 294 262.39102612105484 L 295 261.84909016717427 L 296 261.29565863408834 L 297 260.73161689419084 L 298 260.1578672939432 L 299 259.57532771031237 L 300 258.98493008236363 L 301 258.38761892035706 L 302 257.78434979473224 L 303 257.17608780739954 L 304 256.5638060477831 L 305 255.94848403608518 L 306 255.33110615626276 L 307 254.7126600812234 L 308 254.0941351927589 L 309 253.47652099874597 L 310 252.8608055501443 L 311 252.24797386032608 L 312 251.63900632926453 L 313 251.0348771751032 L 314 250.43655287561475 L 315 249.84499062204264 L 316 249.2611367877994 L 317 248.68592541447092 L 318 248.12027671754936 L 319 247.5650956142845 L 320 247.02127027600923 L 321 246.48967070725493 L 322 245.97114735392972 L 323 245.46652974278652 L 324 244.97662515435712 L 325 244.50221733147563 L 326 244.04406522545705 L 327 243.60290178193708 L 328 243.17943276831556 L 329 242.77433564467898 L 330 242.38825848000909 L 331 242.02181891541062 L 332 241.67560317601732 L 333 241.3501651331568 L 334 241.04602541827455 L 335 240.76367059003468 L 336 240.50355235592997 L 337 240.26608684964597 L 338 240.0516539653362 L 339 239.86059674987223 L 340 239.69322085404215 L 341 239.54979404357437 L 342 239.4305457707695 L 343 239.33566680742575 L 344 239.26530893964477 L 345 239.21958472500603 L 346 239.19856731249905 L 347 239.20229032550037 L 348 239.23074780798333 L 349 239.28389423404658 L 350 239.36164458074578 L 351 239.46387446411197 L 352 239.59042033813972 L 353 239.74107975642556 L 354 239.9156116960392 L 355 240.1137369431088 L 356 240.33513853950342 L 357 240.57946228989874 L 358 240.8463173284137 L 359 241.1352767439127 L 360 241.4458782629724 L 361 241.77762498942036 L 362 242.12998619926316 L 363 242.5023981897314 L 364 242.894265181084 L 365 243.30496026972864 L 366 243.7338264311338 L 367 244.1801775709277 L 368 244.64329962250326 L 369 245.12245168937204 L 370 245.6168672304407 L 371 246.1257552863132 L 372 246.64830174465718 L 373 247.18367064260988 L 374 247.73100550414054 L 375 248.28943071022925 L 376 248.85805289967064 L 377 249.43596239826115 L 378 250.0222346740839 L 379 250.61593181656224 L 380 251.21610403691693 L 381 251.8217911876252 L 382 252.4320242984524 L 383 253.04582712659723 L 384 253.66221771847236 L 385 254.28020998062036 L 386 254.89881525725318 L 387 255.51704391189028 L 388 256.13390691056594 L 389 256.7484174040727 L 390 257.35959230670966 L 391 257.96645386900946 L 392 258.5680312419294 L 393 259.1633620300024 L 394 259.7514938309648 L 395 260.3314857593964 L 396 260.9024099519367 L 397 261.4633530516684 L 398 262.0134176692933 L 399 262.5517238187641 L 400 263.07741032507414 L 401 263.58963620195385 L 402 264.08758199726924 L 403 264.5704511039706 L 404 265.0374710344937 L 405 265.48789465657535 L 406 265.92100138850554 L 407 266.33609835190424 L 408 266.7325214801794 L 409 267.10963658089145 L 410 267.46684035032627 L 411.00000000000006 267.8035613386522 L 412 268.1192608641177 L 413 268.41343387482783 L 414 268.68560975671903 L 415.00000000000006 268.9353530864413 L 416 269.1622643279428 L 417 269.3659804716424 L 418 269.54617561516716 L 419.00000000000006 269.7025614847271 L 420 269.83488789629143 L 421 269.94294315582977 L 422 270.0265543979775 L 423.00000000000006 270.0855878625832 L 424 270.1199491086967 L 425 270.1295831656542 L 426 270.11447462101967 L 427.00000000000006 270.07464764524167 L 428 270.01016595298535 L 429 269.921132701203 L 430 269.8076903241048 L 431.00000000000006 269.6700203052942 L 432 269.5083428874334 L 432.99999999999994 269.3229167199016 L 434 269.1140384450114 L 434.99999999999994 268.8820422234442 L 436 268.6272991996647 L 436.99999999999994 268.35021690816865 L 438 268.0512386215147 L 438.99999999999994 267.7308426411829 L 440 267.3895415323943 L 440.99999999999994 267.0278813041158 L 442 266.6464405355627 L 443 266.245829450595 L 444 265.8266889414895 L 445 265.38968954364884 L 446 264.9355303628881 L 447 264.46493795701423 L 448 263.978665173489 L 449 263.4774899450335 L 450 262.96221404510135 L 451 262.433661805213 L 452 261.89267879620036 L 453 261.3401304754743 L 454 260.7769008024773 L 455 260.203890824537 L 456 259.6220172353823 L 457 259.0322109086296 L 458 258.435415408583 L 459 257.83258548073303 L 460 257.2246855243673 L 461 256.6126880497377 L 462 255.99757212225103 L 463 255.38032179617366 L 464 254.76192454035413 L 465 254.14336965848418 L 466 253.52564670642332 L 467 252.90974390912112 L 468 252.29664657966754 L 469 251.68733554300272 L 470 251.08278556680577 L 471 250.48396380207492 L 472 249.89182823589186 L 473 249.307326158847 L 474 248.73139264957643 L 475 248.16494907883578 L 476 247.60890163550334 L 477 247.06413987687137 L 478 246.53153530554394 L 479 246.01193997521904 L 480 245.50618512758402 L 481 245.01507986250652 L 482 244.5394098436471 L 483 244.0799360415651 L 484.00000000000006 243.637393516328 L 485 243.2124902415721 L 486.00000000000006 242.80590597189587 L 487 242.4182911553974 L 488.00000000000006 242.0502658930964 L 489 241.7024189469046 L 490.00000000000006 241.37530679773255 L 491 241.06945275523873 L 492.00000000000006 240.78534612064573 L 493 240.52344140396275 L 493.99999999999994 240.2841575968664 L 495 240.0678775024036 L 496 239.87494712258817 L 497 239.70567510487155 L 497.99999999999994 239.56033224837262 L 499 239.43915107065698 L 500 239.3423254357583 L 501 239.2700102440375 L 501.99999999999994 239.22232118437486 L 503 239.1993345490927 L 504 239.20108711190392 L 505 239.22757606908192 L 505.99999999999994 239.27875904394583 L 507 239.35455415465438 L 508 239.45484014519917 L 509 239.5794565793885 L 509.99999999999994 239.72820409751117 L 511 239.90084473526923 L 512 240.09710230447033 L 513 240.3166628348698 L 514 240.55917507645603 L 515 240.82425106137575 L 516 241.11146672459955 L 517 241.42036258233574 L 518 241.75044446710615 L 519 242.1011843183089 L 520 242.47202102700257 L 521 242.86236133356084 L 522 243.27158077676137 L 523 243.6990246927906 L 524 244.144009262566 L 525 244.60582260570087 L 526 245.0837259193612 L 527 245.57695466019237 L 528 246.08471976742555 L 529 246.60620892520663 L 530 247.14058786212826 L 531 247.68700168588612 L 532 248.24457625092427 L 533 248.81241955688148 L 534 249.38962317560174 L 535 249.9752637044253 L 536 250.568404243436 L 537 251.16809589430127 L 538 251.77337927830723 L 539 252.38328607115963 L 540 252.99684055209647 L 541 253.61306116483283 L 542 254.23096208784176 L 543 254.8495548114583 L 544 255.467849719284 L 545 256.0848576713623 L 546 256.6995915865911 L 547 257.31106802184246 L 548 257.91830874526113 L 549 258.5203423012276 L 550 259.1162055644791 L 551 259.7049452809053 L 552 260.28561959255103 L 553 260.8572995443881 L 554 261.41907057044557 L 555 261.9700339569199 L 556 262.50930827992516 L 557 263.03603081558356 L 558 263.5493589201998 L 559 264.0484713783104 L 560 264.53256971645413 L 561 265.00087948055875 L 562 265.4526514749025 L 563 265.8871629606672 L 564 266.30371881216655 L 565 266.7016526288986 L 566 267.0803278016447 L 567 267.43913853090805 L 568 267.7775107960642 L 569 268.0949032736709 L 570 268.390808203471 L 571 268.66475220069975 L 572 268.9162970133998 L 573 269.14504022353094 L 574 269.35061589075286 L 575 269.5326951378518 L 576 269.690986676874 L 577 269.8252372751239 L 578 269.9352321602831 L 579 270.0207953639995 L 580 270.0817900033998 L 581 270.11811850007246 L 582 270.1297227361723 L 583 270.1165841473972 L 584 270.0787237526863 L 585 270.01620212059476 L 586 269.92911927239663 L 587 269.8176145220724 L 588 269.6818662534362 L 589 269.5220916347597 L 590 269.3385462713494 L 591 269.13152379663245 L 592 268.901355402406 L 593 268.64840930900084 L 594 268.37309017620737 L 595 268.0758384559066 L 596 267.75712968744057 L 597 267.4174737368513 L 598 267.05741398120364 L 599 266.677526439298 L 600 266.278418850163 L 601 265.860729700803 L 602 265.4251272047545 L 603 264.97230823308786 L 604 264.50299719956126 L 605 264.0179449017142 L 606 263.51792731975075 L 607 263.00374437513744 L 608 262.47621865089917 L 609 261.9361940756618 L 610 261.3845345735466 L 611 260.822122682076 L 612 260.24985814030146 L 613 259.6686564494133 L 614 259.07944740813366 L 615 258.4831736252376 L 616 257.88078901157934 L 617 257.2732572540389 L 618 256.6615502738285 L 619 256.046646671626 L 620 255.4295301620223 L 621 254.81118799978836 L 622 254.19260940047786 L 623 253.57478395789326 L 624 252.9587000609469 L 625 252.34534331244978 L 626 251.735694952357 L 627 251.13073028799326 L 628 250.5314171337694 L 629 249.93871426288538 L 630 249.35356987349823 L 631 248.77692007180676 L 632 248.20968737448158 L 633 247.6527792328353 L 634 247.10708658109377 L 635 246.57348241109156 L 636 246.0528203756712 L 637 245.54593342302064 L 638 245.05363246413413 L 639 244.57670507552723 L 640 244.11591423928257 L 641 243.67199712244144 L 642 243.24566389769348 L 643 242.837596607252 L 644 242.4484480717321 L 645 242.07884084577654 L 646 241.72936622210165 L 647 241.4005832855546 L 648 241.0930180186973 L 649 240.80716246034632" /><text  class="poloto_text poloto_legend_text" alignment-baseline="middle" text-anchor="start" font-size="large" x="675" y="200" >2*cos(x)</text><line  class="poloto_line poloto_legend_icon poloto2stroke poloto2legend" stroke="black" x1="680" x2="730" y1="181.25" y2="181.25" /><path  class="poloto_line poloto2stroke" fill="none" stroke="black" d=" M 190 233.11239010782631 M 190 233.11239010782631 L 191 233.5604654935424 L 192 234.01698176974136 L 193 234.48175633599945 L 194 234.9546032886871 L 195 235.43533349532782 L 196 235.92375467024854 L 197 236.41967145149152 L 198 236.9228854789564 L 199 237.43319547374165 L 200 237.95039731865333 L 201 238.47428413984946 L 202 239.00464638958658 L 203 239.54127193003626 L 204 240.0839461181372 L 205 240.63245189144973 L 206 241.18656985497782 L 207 241.7460783689242 L 208 242.3107536373433 L 209 242.8803697976567 L 210 243.454699010995 L 211 244.03351155333053 L 212 244.6165759073637 L 213 245.20365885512706 L 214 245.7945255712691 L 215 246.38893971698153 L 216 246.98666353453146 L 217 247.58745794236143 L 218 248.19108263071874 L 219 248.79729615777634 L 220 249.4058560462061 L 221 250.0165188801667 L 222 250.62904040266662 L 223 251.24317561326367 L 224 251.858678866062 L 225 252.47530396796708 L 226 253.09280427715973 L 227 253.71093280174944 L 228 254.32944229856804 L 229 254.94808537206347 L 230 255.5666145732548 L 231 256.1847824987085 L 232 256.80234188949646 L 233 257.41904573009646 L 234 258.03464734719483 L 235 258.64890050835265 L 236 259.2615595204954 L 237 259.87237932818687 L 238 260.48111561164814 L 239 261.08752488448226 L 240 261.6913645910654 L 241 262.292393203566 L 242 262.8903703185527 L 243 263.48505675315243 L 244 264.07621464072037 L 245 264.6636075259835 L 246 265.2470004596195 L 247 265.82616009223347 L 248 266.4008547676943 L 249 266.9708546157943 L 250 267.53593164419414 L 251 268.09585982961676 L 252 268.65041520825355 L 253 269.1993759653471 L 254 269.74252252391386 L 255 270.2796376325723 L 256 270.8105064524404 L 257 271.33491664306837 L 258 271.852658447372 L 259 272.3635247755327 L 260 272.86731128783066 L 261 273.363816476378 L 262 273.8528417457194 L 263 274.3341914922672 L 264 274.80767318254084 L 265 275.27309743017713 L 266 275.7302780716826 L 267 276.17903224089633 L 268 276.61918044213394 L 269 277.0505466219835 L 270 277.4729582397245 L 271 277.886246336342 L 272 278.29024560210775 L 273 278.684794442702 L 274 279.06973504384916 L 275 279.44491343444116 L 276 279.81017954812415 L 277 280.16538728332273 L 278 280.51039456167894 L 279 280.8450633848814 L 280 281.16925988986316 L 281 281.4828544023446 L 282 281.78572148870205 L 283 282.0777400061391 L 284 282.3587931511423 L 285 282.628768506201 L 286 282.8875580847729 L 287 283.1350583744768 L 288 283.37117037849697 L 289 283.59579965517986 L 290 283.80885635580984 L 291 284.01025526054735 L 292 284.1999158125158 L 293 284.37776215002316 L 294 284.54372313690567 L 295 284.6977323909814 L 296 284.83972831060214 L 297 284.9696540992932 L 298 285.0874577884716 L 299 285.19309225823224 L 300 285.2865152561957 L 301 285.36768941440835 L 302 285.4365822642893 L 303 285.4931662496171 L 304 285.5374187375521 L 305 285.56932202768917 L 306 285.5888633591375 L 307 285.59603491562524 L 308 285.5908338286253 L 309 285.5732621785031 L 310 285.54332699368456 L 311 285.5010402478443 L 312 285.446418855117 L 313 285.3794846633313 L 314 285.3002644452716 L 315 285.20878988796886 L 316 285.10509758002627 L 317 284.9892289969846 L 318 284.861230484732 L 319 284.72115324096694 L 320 284.5690532947191 L 321 284.40499148393906 L 322 284.22903343116366 L 323 284.041249517268 L 324 283.84171485331376 L 325 283.63050925050624 L 326 283.4077171882704 L 327 283.17342778046066 L 328 282.92773473971636 L 329 282.6707363399779 L 330 282.4025353771786 L 331 282.1232391281276 L 332 281.8329593076006 L 333 281.53181202365545 L 334 281.21991773119055 L 335 280.8974011837643 L 336 280.5643913836956 L 337 280.22102153046427 L 338 279.86742896743345 L 339 279.50375512691386 L 340 279.1301454735928 L 341 278.7467494463502 L 342 278.35372039848505 L 343 277.95121553637614 L 344 277.5393958566018 L 345 277.11842608154296 L 346 276.6884745934968 L 347 276.24971336732597 L 348 275.80231790167085 L 349 275.3464671487525 L 350 274.88234344279414 L 351 274.41013242708993 L 352 273.93002297975016 L 353 273.4422071381523 L 354 272.9468800221289 L 355 272.44423975592207 L 356 271.9344873889366 L 357 271.41782681532254 L 358 270.89446469242074 L 359 270.3646103581022 L 360 269.82847574703607 L 361 269.2862753059184 L 362 268.73822590769646 L 363 268.1845467648222 L 364 267.6254593415705 L 365 267.06118726545634 L 366 266.49195623778655 L 367 265.9179939433826 L 368 265.3395299595095 L 369 264.75679566404807 L 370 264.1700241429468 L 371 263.57945009699057 L 372 262.9853097479236 L 373 262.3878407439638 L 374 261.7872820647465 L 375 261.1838739257361 L 376 260.57785768214285 L 377 259.9694757323841 L 378 259.3589714211281 L 379 258.7465889419594 L 380 258.13257323970464 L 381 257.51716991245803 L 382 256.9006251133451 L 383 256.2831854520651 L 384 255.66509789625007 L 385 255.04660967268134 L 386 254.42796816840183 L 387 253.8094208317649 L 388 253.191215073458 L 389 252.5735981675418 L 390 251.9568171525439 L 391 251.34111873264663 L 392 250.72674917900878 L 393 250.11395423126032 L 394 249.50297899920986 L 395 248.89406786480393 L 396 248.2874643843777 L 397 247.6834111912353 L 398 247.0821498986001 L 399 246.48392100297244 L 400 245.8889637879343 L 401 245.297516228439 L 402 244.7098148956245 L 403 244.126094862188 L 404 243.5465896083601 L 405 242.97153092851568 L 406 242.40114883845925 L 407 241.8356714834219 L 408 241.27532504680605 L 409 240.72033365971518 L 410 240.17091931130426 L 411.00000000000006 239.62730175998732 L 412 239.0896984455367 L 413 238.55832440211026 L 414 238.0333921722404 L 415.00000000000006 237.51511172182018 L 416 237.0036903561194 L 417 236.49933263686546 L 418 236.0022403004214 L 419.00000000000006 235.51261217709398 L 420 235.03064411160426 L 421 234.5565288847523 L 422 234.09045613630732 L 423.00000000000006 233.6326122891545 L 424 233.1831804747283 M 504 233.0418184011549 L 505 233.48853281191035 L 505.99999999999994 233.9437168852622 L 507 234.40718855365017 L 508 234.87876243458643 L 509 235.35824990480614 L 509.99999999999994 235.84545917571432 L 511 236.34019537009868 L 512 236.84226060007782 L 513 237.35145404625382 L 514 237.86757203803742 L 515 238.39040813511343 L 516 238.919753210014 L 517 239.455395531767 L 518 239.9971208505856 L 519 240.54471248356515 L 520 241.09795140135358 L 521 241.65661631576017 L 522 242.22048376826794 L 523 242.78932821941407 L 524 243.36292213900254 L 525 243.9410360971133 L 526 244.52343885587126 L 527 245.10989746193817 L 528 245.70017733969092 L 529 246.2940423850487 L 530 246.89125505991146 L 531 247.49157648717204 L 532 248.09476654626368 L 533 248.70058396920513 L 534 249.3087864371047 L 535 249.91913067708452 L 536 250.5313725595864 L 537 251.1452671960204 L 538 251.76056903671716 L 539 252.37703196914433 L 540 252.99440941634828 L 541 253.61245443558172 L 542 254.23091981707748 L 543 254.84955818292906 L 544 255.4681220860385 L 545 256.08636410909196 L 546 256.7040369635233 L 547 257.32089358842643 L 548 257.9366872493759 L 549 258.55117163711776 L 550 259.16410096609 L 551 259.7752300727334 L 552 260.3843145135535 L 553 260.99111066289487 L 554 261.5953758103885 L 555 262.196868258032 L 556 262.79534741686615 L 557 263.390573903207 L 558 263.98230963439636 L 559 264.5703179240313 L 560 265.1543635766362 L 561 265.73421298173696 L 562 266.3096342073029 L 563 266.8803970925159 L 564 267.44627333983203 L 565 268.0070366062972 L 566 268.56246259408164 L 567 269.1123291401957 L 568 269.6564163053525 L 569 270.1945064619403 L 570 270.72638438107106 L 571 271.2518373186685 L 572 271.77065510056366 L 573 272.2826302065613 L 574 272.7875578534452 L 575 273.2852360768889 L 576 273.7754658122386 L 577 274.25805097413655 L 578 274.7327985349524 L 579 275.19951860199154 L 580 275.65802449345017 L 581 276.1081328130849 L 582 276.54966352356945 L 583 276.9824400185064 L 584 277.4062891930681 L 585 277.8210415132361 L 586 278.2265310836122 L 587 278.6225957137747 L 588 279.0090769831523 L 589 279.3858203043903 L 590 279.7526749851834 L 591 280.1094942885506 L 592 280.456135491528 L 593 280.7924599422564 L 594 281.11833311543967 L 595 281.43362466615343 L 596 281.7382084819813 L 597 282.03196273345793 L 598 282.3147699227995 L 599 282.58651693090087 L 600 282.84709506258207 L 601 283.0964000900649 L 602 283.3343322946622 L 603 283.5607965066646 L 604 283.7757021434068 L 605 283.9789632454995 L 606 284.1704985112118 L 607 284.3502313289914 L 608 284.5180898081075 L 609 284.67400680740656 L 610 284.81791996216765 L 611 284.9497717090478 L 612 285.06950930910614 L 613 285.1770848688992 L 614 285.27245535963743 L 615 285.355582634396 L 616 285.4264334433734 L 617 285.48497944719077 L 618 285.53119722822714 L 619 285.5650682999863 L 620 285.5865791144912 L 621 285.5957210677028 L 622 285.59249050296177 L 623 285.57688871245085 L 624 285.54892193667825 L 625 285.50860136198145 L 626 285.4559431160527 L 627 285.39096826148824 L 628 285.3137027873636 L 629 285.2241775988382 L 630 285.12242850479385 L 631 285.00849620351147 L 632 284.8824262663926 L 633 284.7442691197311 L 634 284.59408002454353 L 635 284.43191905446554 L 636 284.25785107172305 L 637 284.0719457011882 L 638 283.8742773025306 L 639 283.66492494047407 L 640 283.44397235317217 L 641 283.21150791871383 L 642 282.96762461977335 L 643 282.71242000641854 L 644 282.44599615709205 L 645 282.1684596377814 L 646 281.8799214593938 L 647 281.58049703335354 L 648 281.2703061254387 L 649 280.9494728078767" /><text  class="poloto_labels poloto_text poloto_title" alignment-baseline="start" text-anchor="middle" font-size="x-large" x="400" y="37.5" >Some Trigonometry Plots 🥳</text><text  class="poloto_labels poloto_text poloto_xname" alignment-baseline="start" text-anchor="middle" font-size="x-large" x="400" y="481.25" >This is the x label</text><text  class="poloto_labels poloto_text poloto_yname" alignment-baseline="start" text-anchor="middle" font-size="x-large" transform="rotate(-90,37.5,250)" x="37.5" y="250" >This is the y label</text><text  class="poloto_tick_labels poloto_text" alignment-baseline="middle" text-anchor="start" x="440.00000000000006" y="70" ></text><line  class="poloto_axis_lines" stroke="black" x1="150" x2="150" y1="400" y2="405" /><text  class="poloto_tick_labels poloto_text" alignment-baseline="start" text-anchor="middle" x="150" y="430" >0</text><line  class="poloto_axis_lines" stroke="black" x1="250" x2="250" y1="400" y2="405" /><text  class="poloto_tick_labels poloto_text" alignment-baseline="start" text-anchor="middle" x="250" y="430" >2</text><line  class="poloto_axis_lines" stroke="black" x1="350" x2="350" y1="400" y2="405" /><text  class="poloto_tick_labels poloto_text" alignment-baseline="start" text-anchor="middle" x="350" y="430" >4</text><line  class="poloto_axis_lines" stroke="black" x1="450" x2="450" y1="400" y2="405" /><text  class="poloto_tick_labels poloto_text" alignment-baseline="start" text-anchor="middle" x="450" y="430" >6</text><line  class="poloto_axis_lines" stroke="black" x1="550" x2="550" y1="400" y2="405" /><text  class="poloto_tick_labels poloto_text" alignment-baseline="start" text-anchor="middle" x="550" y="430" >8</text><line  class="poloto_axis_lines" stroke="black" x1="650" x2="650" y1="400" y2="405" /><text  class="poloto_tick_labels poloto_text" alignment-baseline="start" text-anchor="middle" x="650" y="430" >10</text><text  class="poloto_tick_labels poloto_text" alignment-baseline="middle" text-anchor="start" x="150" y="70" ></text><line  class="poloto_axis_lines" stroke="black" x1="150" x2="144" y1="331.9950926833627" y2="331.9950926833627" /><text  class="poloto_tick_labels poloto_text" alignment-baseline="middle" text-anchor="end" x="135" y="331.9950926833627" >-5</text><line  class="poloto_axis_lines" stroke="black" x1="150" x2="144" y1="254.6633951222418" y2="254.6633951222418" /><text  class="poloto_tick_labels poloto_text" alignment-baseline="middle" text-anchor="end" x="135" y="254.6633951222418" >0</text><line  class="poloto_axis_lines" stroke="black" x1="150" x2="144" y1="177.3316975611209" y2="177.3316975611209" /><text  class="poloto_tick_labels poloto_text" alignment-baseline="middle" text-anchor="end" x="135" y="177.3316975611209" >5</text><line  class="poloto_axis_lines" stroke="black" x1="150" x2="144" y1="100" y2="100" /><text  class="poloto_tick_labels poloto_text" alignment-baseline="middle" text-anchor="end" x="135" y="100" >10</text><path  stroke="black" fill="none" class="poloto_axis_lines" style="stroke-dasharray:12.5;stroke-dashoffset:-0;" d=" M 150 400 L 650 400" /><path  stroke="black" fill="none" class="poloto_axis_lines" style="stroke-dasharray:7.733169756112089;stroke-dashoffset:-68.0049073166373;" d=" M 150 400 L 150 100" /></svg>