<svg  width="800" class="poloto_background poloto" height="500" viewBox="0 0 800 500" xmlns="http://www.w3.org/2000/svg" > <style>.poloto {
    stroke-linecap:round;
    stroke-linejoin:round;
    font-family: 'Tahoma', sans-serif;
    stroke-width:2;
    }
    .scatter{stroke-width:7}
    .poloto_text{fill: white;}
    .poloto_axis_lines{stroke: white;stroke-width:3;fill:none;stroke-dasharray:none}
    .poloto_background{background-color: #262626;}
    .poloto0stroke{stroke:  blue;}
    .poloto1stroke{stroke:  red;}
    .poloto2stroke{stroke:  green;}
    .poloto3stroke{stroke:  gold;}
    .poloto4stroke{stroke:  aqua;}
    .poloto5stroke{stroke:  lime;}
    .poloto6stroke{stroke:  orange;}
    .poloto7stroke{stroke:  chocolate;}
    .poloto0fill{fill:blue;}
    .poloto1fill{fill:red;}
    .poloto2fill{fill:green;}
    .poloto3fill{fill:gold;}
    .poloto4fill{fill:aqua;}
    .poloto5fill{fill:lime;}
    .poloto6fill{fill:orange;}
    .poloto7fill{fill:chocolate;}</style><style>.poloto{stroke-dasharray:2;stroke-width:1;}</style><text  class="poloto_text" alignment-baseline="middle" text-anchor="start" font-size="large" x="675" y="100" >c(1000)</text><line  class="poloto0stroke poloto0legend" stroke="black" x1="680" x2="730" y1="81.25" y2="81.25" /><path  class="poloto0stroke" fill="none" stroke="black" d=" M 150 386.16746587974916 L 153.54609929078015 393.0837329398746 L 157.0921985815603 396.5418664699373 L 160.63829787234042 398.27093323496865 L 164.18439716312056 394.7989671707857 L 167.7304964539007 397.39948358539283 L 171.27659574468086 398.69974179269644 L 174.82269503546098 399.3498708963482 L 178.36879432624113 398.0357801549244 L 181.91489361702128 399.0178900774622 L 185.46099290780143 397.0398376982663 L 189.00709219858157 398.51991884913315 L 192.5531914893617 395.5459240132792 L 196.09929078014184 397.7729620066396 L 199.645390070922 393.3050534857986 L 203.1914893617021 396.6525267428993 L 206.73758865248226 398.32626337144967 L 210.2836879432624 394.9649575802287 L 213.82978723404256 397.4824787901143 L 217.3758865248227 398.74123939505716 L 220.92198581560285 396.20988565105125 L 224.46808510638297 398.10494282552565 L 228.01418439716312 394.30099594245667 L 231.56028368794324 397.15049797122833 L 235.1063829787234 398.57524898561417 L 238.65248226950354 395.71191442272226 L 242.19858156028369 397.8559572113611 L 245.74468085106383 393.5540390999631 L 249.29078014184398 396.77701954998156 L 252.8368794326241 390.31722611582444 L 256.3829787234042 395.1586130579122 L 259.92907801418437 397.5793065289561 L 263.4751773049645 392.7240870527481 L 267.02127659574467 396.362043526374 L 270.5673758865248 389.07229804500184 L 274.11347517730496 394.5361490225009 L 277.6595744680851 383.5946145333825 L 281.20567375886526 391.79730726669123 L 284.7517730496454 375.3780892659535 L 288.29787234042556 387.6890446329768 L 291.8439716312057 393.8445223164884 L 295.3900709219858 381.5197344153449 L 298.93617021276594 390.75986720767247 L 302.4822695035461 395.3799336038362 L 306.02836879432624 397.6899668019181 L 309.57446808510633 393.05606787163407 L 313.1205673758865 396.52803393581706 L 316.66666666666663 389.5702692733309 L 320.2127659574468 394.7851346366654 L 323.7588652482269 384.3415713758761 L 327.3049645390071 392.170785687938 L 330.8510638297872 396.08539284396903 L 334.39716312056737 388.2423459977868 L 337.9432624113475 394.12117299889337 L 341.48936170212767 382.34968646255993 L 345.0354609929078 391.17484323127997 L 348.58156028368796 395.58742161564 L 352.1276595744681 386.7484323127997 L 355.6737588652482 393.3742161563998 L 359.21985815602835 380.1088159350793 L 362.7659574468085 390.05440796753965 L 366.31205673758865 370.1493913684987 L 369.85815602836874 385.0746956842494 L 373.4042553191489 355.21025451862783 L 376.95035460992904 377.6051272593139 L 380.4964539007092 332.80154924382146 L 384.04255319148933 366.4007746219107 L 387.5886524822695 299.18849133161194 L 391.13475177304963 349.59424566580594 L 394.6808510638298 374.79712283290297 L 398.2269503546099 387.3985614164515 L 401.7730496453901 362.18185171523425 L 405.3191489361702 381.0909258576171 L 408.8652482269503 343.2589450387311 L 412.41134751773046 371.62947251936555 L 415.9574468085106 314.8745850239764 L 419.50354609929076 357.4372925119882 L 423.0496453900709 272.29804500184434 L 426.59574468085106 336.1490225009222 L 430.1418439716312 368.07451125046106 L 433.68794326241135 384.03725562523056 L 437.2340425531915 392.01862781261525 L 440.7801418439716 376.04205090372557 L 444.32624113475174 388.0210254518628 L 447.8723404255319 394.0105127259314 L 451.41843971631204 382.01770564367393 L 454.9645390070922 391.00885282183697 L 458.51063829787233 395.5044264109185 L 462.0567375886525 386.4994466986352 L 465.60283687943263 393.2497233493176 L 469.1489361702127 396.6248616746588 L 472.69503546099287 398.3124308373294 L 476.241134751773 399.1562154186647 L 479.78723404255317 397.45481372187385 L 483.3333333333333 398.7274068609369 L 486.87943262411346 399.36370343046843 L 490.4255319148936 399.68185171523425 L 493.97163120567376 399.03172261158244 L 497.5177304964539 399.51586130579125 L 501.063829787234 398.5337513832534 L 504.60992907801415 399.2668756916267 L 508.1560283687943 397.78679454075984 L 511.70212765957444 398.8933972703799 L 515.2482269503546 399.44669863519 L 518.7943262411347 399.72334931759497 L 522.3404255319149 399.8616746587975 L 525.886524822695 399.93083732939874 L 529.4326241134752 399.778679454076 L 532.9787234042553 399.889339727038 L 536.5248226950355 399.944669863519 L 540.0709219858156 399.9723349317595" /><text  class="poloto_text" alignment-baseline="middle" text-anchor="start" font-size="large" x="675" y="150" >c(1001)</text><line  class="poloto1stroke poloto1legend" stroke="black" x1="680" x2="730" y1="131.25" y2="131.25" /><path  class="poloto1stroke" fill="none" stroke="black" d=" M 150 386.1536333456289 L 153.54609929078015 358.4470675027665 L 157.0921985815603 379.22353375138323 L 160.63829787234042 389.6117668756916 L 164.18439716312056 368.8214680929546 L 167.7304964539007 384.41073404647733 L 171.27659574468086 353.2183696053117 L 174.82269503546098 376.6091848026558 L 178.36879432624113 329.81372187384727 L 181.91489361702128 364.90686093692364 L 185.46099290780143 294.70675027665067 L 189.00709219858157 347.35337513832536 L 192.5531914893617 373.67668756916265 L 196.09929078014184 321.0162301733678 L 199.645390070922 360.50811508668386 L 203.1914893617021 281.5105127259314 L 206.73758865248226 340.7552563629657 L 210.2836879432624 222.25193655477682 L 213.82978723404256 311.12596827738844 L 217.3758865248227 133.36407229804502 L 220.92198581560285 266.6820361490225 L 224.46808510638297 333.3410180745112 L 228.01418439716312 200.0092216894135 L 231.56028368794324 300.00461084470675 L 235.1063829787234 100 L 238.65248226950354 250 L 242.19858156028369 325 L 245.74468085106383 362.5 L 249.29078014184398 287.48616746587976 L 252.8368794326241 343.74308373293985 L 256.3829787234042 231.21541866469937 L 259.92907801418437 315.6077093323497 L 263.4751773049645 146.8092954629288 L 267.02127659574467 273.40464773146437 L 270.5673758865248 336.7023238657322 L 274.11347517730496 368.3511619328661 L 277.6595744680851 384.1755809664331 L 281.20567375886526 392.0877904832165 L 284.7517730496454 396.04389524160825 L 288.29787234042556 398.02194762080416 L 291.8439716312057 394.05201032829217 L 295.3900709219858 397.02600516414606 L 298.93617021276594 391.064182958318 L 302.4822695035461 395.53209147915896 L 306.02836879432624 386.5824419033567 L 309.57446808510633 393.2912209516783 L 313.1205673758865 379.8598303209148 L 316.66666666666663 389.92991516045737 L 320.2127659574468 394.9649575802287 L 323.7588652482269 397.4824787901143 L 327.3049645390071 398.74123939505716 L 330.8510638297872 396.20988565105125 L 334.39716312056737 398.10494282552565 L 337.9432624113475 394.30099594245667 L 341.48936170212767 397.15049797122833 L 345.0354609929078 398.57524898561417 L 348.58156028368796 395.71191442272226 L 352.1276595744681 397.8559572113611 L 355.6737588652482 393.5540390999631 L 359.21985815602835 396.77701954998156 L 362.7659574468085 390.31722611582444 L 366.31205673758865 395.1586130579122 L 369.85815602836874 397.5793065289561 L 373.4042553191489 392.7240870527481 L 376.95035460992904 396.362043526374 L 380.4964539007092 389.07229804500184 L 384.04255319148933 394.5361490225009 L 387.5886524822695 383.5946145333825 L 391.13475177304963 391.79730726669123 L 394.6808510638298 375.3780892659535 L 398.2269503546099 387.6890446329768 L 401.7730496453901 393.8445223164884 L 405.3191489361702 381.5197344153449 L 408.8652482269503 390.75986720767247 L 412.41134751773046 395.3799336038362 L 415.9574468085106 397.6899668019181 L 419.50354609929076 393.05606787163407 L 423.0496453900709 396.52803393581706 L 426.59574468085106 389.5702692733309 L 430.1418439716312 394.7851346366654 L 433.68794326241135 384.3415713758761 L 437.2340425531915 392.170785687938 L 440.7801418439716 396.08539284396903 L 444.32624113475174 388.2423459977868 L 447.8723404255319 394.12117299889337 L 451.41843971631204 382.34968646255993 L 454.9645390070922 391.17484323127997 L 458.51063829787233 395.58742161564 L 462.0567375886525 386.7484323127997 L 465.60283687943263 393.3742161563998 L 469.1489361702127 380.1088159350793 L 472.69503546099287 390.05440796753965 L 476.241134751773 370.1493913684987 L 479.78723404255317 385.0746956842494 L 483.3333333333333 355.21025451862783 L 486.87943262411346 377.6051272593139 L 490.4255319148936 332.80154924382146 L 493.97163120567376 366.4007746219107 L 497.5177304964539 299.18849133161194 L 501.063829787234 349.59424566580594 L 504.60992907801415 374.79712283290297 L 508.1560283687943 387.3985614164515 L 511.70212765957444 362.18185171523425 L 515.2482269503546 381.0909258576171 L 518.7943262411347 343.2589450387311 L 522.3404255319149 371.62947251936555 L 525.886524822695 314.8745850239764 L 529.4326241134752 357.4372925119882 L 532.9787234042553 272.29804500184434 L 536.5248226950355 336.1490225009222 L 540.0709219858156 368.07451125046106 L 543.6170212765958 384.03725562523056 L 547.1631205673759 392.01862781261525 L 550.7092198581561 376.04205090372557 L 554.2553191489362 388.0210254518628 L 557.8014184397164 394.0105127259314 L 561.3475177304964 382.01770564367393 L 564.8936170212766 391.00885282183697 L 568.4397163120567 395.5044264109185 L 571.9858156028369 386.4994466986352 L 575.531914893617 393.2497233493176 L 579.0780141843971 396.6248616746588 L 582.6241134751773 398.3124308373294 L 586.1702127659574 399.1562154186647 L 589.7163120567375 397.45481372187385 L 593.2624113475176 398.7274068609369 L 596.8085106382978 399.36370343046843 L 600.3546099290779 399.68185171523425 L 603.9007092198581 399.03172261158244 L 607.4468085106382 399.51586130579125 L 610.9929078014184 398.5337513832534 L 614.5390070921985 399.2668756916267 L 618.0851063829787 397.78679454075984 L 621.6312056737588 398.8933972703799 L 625.177304964539 399.44669863519 L 628.7234042553191 399.72334931759497 L 632.2695035460993 399.8616746587975 L 635.8156028368794 399.93083732939874 L 639.3617021276596 399.778679454076 L 642.9078014184397 399.889339727038 L 646.4539007092199 399.944669863519 L 650 399.9723349317595" /><text  class="poloto_text" alignment-baseline="middle" text-anchor="start" font-size="large" x="675" y="200" >c(1002)</text><line  class="poloto2stroke poloto2legend" stroke="black" x1="680" x2="730" y1="181.25" y2="181.25" /><path  class="poloto2stroke" fill="none" stroke="black" d=" M 150 386.1398008115087 L 153.54609929078015 393.0699004057543 L 157.0921985815603 379.19586868314275 L 160.63829787234042 389.5979343415714 L 164.18439716312056 394.7989671707857 L 167.7304964539007 397.39948358539283 L 171.27659574468086 398.69974179269644 L 174.82269503546098 399.3498708963482 L 178.36879432624113 398.0357801549244 L 181.91489361702128 399.0178900774622 L 185.46099290780143 397.0398376982663 L 189.00709219858157 398.51991884913315 L 192.5531914893617 395.5459240132792 L 196.09929078014184 397.7729620066396 L 199.645390070922 393.3050534857986 L 203.1914893617021 396.6525267428993 L 206.73758865248226 398.32626337144967 L 210.2836879432624 394.9649575802287 L 213.82978723404256 397.4824787901143 L 217.3758865248227 398.74123939505716 L 220.92198581560285 396.20988565105125 L 224.46808510638297 398.10494282552565 L 228.01418439716312 394.30099594245667 L 231.56028368794324 397.15049797122833 L 235.1063829787234 398.57524898561417 L 238.65248226950354 395.71191442272226 L 242.19858156028369 397.8559572113611 L 245.74468085106383 393.5540390999631 L 249.29078014184398 396.77701954998156 L 252.8368794326241 390.31722611582444 L 256.3829787234042 395.1586130579122 L 259.92907801418437 397.5793065289561 L 263.4751773049645 392.7240870527481 L 267.02127659574467 396.362043526374 L 270.5673758865248 389.07229804500184 L 274.11347517730496 394.5361490225009 L 277.6595744680851 383.5946145333825 L 281.20567375886526 391.79730726669123 L 284.7517730496454 375.3780892659535 L 288.29787234042556 387.6890446329768 L 291.8439716312057 393.8445223164884 L 295.3900709219858 381.5197344153449 L 298.93617021276594 390.75986720767247 L 302.4822695035461 395.3799336038362 L 306.02836879432624 397.6899668019181 L 309.57446808510633 393.05606787163407 L 313.1205673758865 396.52803393581706 L 316.66666666666663 389.5702692733309 L 320.2127659574468 394.7851346366654 L 323.7588652482269 384.3415713758761 L 327.3049645390071 392.170785687938 L 330.8510638297872 396.08539284396903 L 334.39716312056737 388.2423459977868 L 337.9432624113475 394.12117299889337 L 341.48936170212767 382.34968646255993 L 345.0354609929078 391.17484323127997 L 348.58156028368796 395.58742161564 L 352.1276595744681 386.7484323127997 L 355.6737588652482 393.3742161563998 L 359.21985815602835 380.1088159350793 L 362.7659574468085 390.05440796753965 L 366.31205673758865 370.1493913684987 L 369.85815602836874 385.0746956842494 L 373.4042553191489 355.21025451862783 L 376.95035460992904 377.6051272593139 L 380.4964539007092 332.80154924382146 L 384.04255319148933 366.4007746219107 L 387.5886524822695 299.18849133161194 L 391.13475177304963 349.59424566580594 L 394.6808510638298 374.79712283290297 L 398.2269503546099 387.3985614164515 L 401.7730496453901 362.18185171523425 L 405.3191489361702 381.0909258576171 L 408.8652482269503 343.2589450387311 L 412.41134751773046 371.62947251936555 L 415.9574468085106 314.8745850239764 L 419.50354609929076 357.4372925119882 L 423.0496453900709 272.29804500184434 L 426.59574468085106 336.1490225009222 L 430.1418439716312 368.07451125046106 L 433.68794326241135 384.03725562523056 L 437.2340425531915 392.01862781261525 L 440.7801418439716 376.04205090372557 L 444.32624113475174 388.0210254518628 L 447.8723404255319 394.0105127259314 L 451.41843971631204 382.01770564367393 L 454.9645390070922 391.00885282183697 L 458.51063829787233 395.5044264109185 L 462.0567375886525 386.4994466986352 L 465.60283687943263 393.2497233493176 L 469.1489361702127 396.6248616746588 L 472.69503546099287 398.3124308373294 L 476.241134751773 399.1562154186647 L 479.78723404255317 397.45481372187385 L 483.3333333333333 398.7274068609369 L 486.87943262411346 399.36370343046843 L 490.4255319148936 399.68185171523425 L 493.97163120567376 399.03172261158244 L 497.5177304964539 399.51586130579125 L 501.063829787234 398.5337513832534 L 504.60992907801415 399.2668756916267 L 508.1560283687943 397.78679454075984 L 511.70212765957444 398.8933972703799 L 515.2482269503546 399.44669863519 L 518.7943262411347 399.72334931759497 L 522.3404255319149 399.8616746587975 L 525.886524822695 399.93083732939874 L 529.4326241134752 399.778679454076 L 532.9787234042553 399.889339727038 L 536.5248226950355 399.944669863519 L 540.0709219858156 399.9723349317595" /><text  class="poloto_text" alignment-baseline="middle" text-anchor="start" font-size="large" x="675" y="250" >c(1003)</text><line  class="poloto3stroke poloto3legend" stroke="black" x1="680" x2="730" y1="231.25" y2="231.25" /><path  class="poloto3stroke" fill="none" stroke="black" d=" M 150 386.12596827738844 L 153.54609929078015 358.364072298045 L 157.0921985815603 379.1820361490225 L 160.63829787234042 337.5322759129472 L 164.18439716312056 368.76613795647364 L 167.7304964539007 384.3830689782368 L 171.27659574468086 353.1353744005902 L 174.82269503546098 376.5676872002951 L 178.36879432624113 388.2838436001475 L 181.91489361702128 364.8376982663224 L 185.46099290780143 382.4188491331612 L 189.00709219858157 347.2427148653633 L 192.5531914893617 373.6213574326817 L 196.09929078014184 320.8502397639247 L 199.645390070922 360.42511988196236 L 203.1914893617021 281.2615271117669 L 206.73758865248226 340.63076355588345 L 210.2836879432624 370.3153817779417 L 213.82978723404256 385.1576908889709 L 217.3758865248227 355.45924013279233 L 220.92198581560285 377.72962006639614 L 224.46808510638297 388.86481003319807 L 228.01418439716312 366.580597565474 L 231.56028368794324 383.290298782737 L 235.1063829787234 391.6451493913685 L 238.65248226950354 395.82257469568424 L 242.19858156028369 397.9112873478421 L 245.74468085106383 393.7200295094061 L 249.29078014184398 396.86001475470306 L 252.8368794326241 390.56621172998894 L 256.3829787234042 395.28310586499447 L 259.92907801418437 385.83548506086316 L 263.4751773049645 392.91774253043155 L 267.02127659574467 396.4588712652158 L 270.5673758865248 398.2294356326079 L 274.11347517730496 399.11471781630394 L 277.6595744680851 399.55735890815197 L 281.20567375886526 399.778679454076 L 284.7517730496454 399.889339727038 L 288.29787234042556 399.944669863519 L 291.8439716312057 399.9723349317595" /><text  class="poloto_text" alignment-baseline="middle" text-anchor="start" font-size="large" x="675" y="300" >c(1004)</text><line  class="poloto4stroke poloto4legend" stroke="black" x1="680" x2="730" y1="281.25" y2="281.25" /><path  class="poloto4stroke" fill="none" stroke="black" d=" M 150 386.11213574326814 L 153.54609929078015 393.05606787163407 L 157.0921985815603 396.52803393581706 L 160.63829787234042 389.5702692733309 L 164.18439716312056 394.7851346366654 L 167.7304964539007 384.3415713758761 L 171.27659574468086 392.170785687938 L 174.82269503546098 396.08539284396903 L 178.36879432624113 388.2423459977868 L 181.91489361702128 394.12117299889337 L 185.46099290780143 382.34968646255993 L 189.00709219858157 391.17484323127997 L 192.5531914893617 395.58742161564 L 196.09929078014184 386.7484323127997 L 199.645390070922 393.3742161563998 L 203.1914893617021 380.1088159350793 L 206.73758865248226 390.05440796753965 L 210.2836879432624 370.1493913684987 L 213.82978723404256 385.0746956842494 L 217.3758865248227 355.21025451862783 L 220.92198581560285 377.6051272593139 L 224.46808510638297 332.80154924382146 L 228.01418439716312 366.4007746219107 L 231.56028368794324 299.18849133161194 L 235.1063829787234 349.59424566580594 L 238.65248226950354 374.79712283290297 L 242.19858156028369 387.3985614164515 L 245.74468085106383 362.18185171523425 L 249.29078014184398 381.0909258576171 L 252.8368794326241 343.2589450387311 L 256.3829787234042 371.62947251936555 L 259.92907801418437 314.8745850239764 L 263.4751773049645 357.4372925119882 L 267.02127659574467 272.29804500184434 L 270.5673758865248 336.1490225009222 L 274.11347517730496 368.07451125046106 L 277.6595744680851 384.03725562523056 L 281.20567375886526 392.01862781261525 L 284.7517730496454 376.04205090372557 L 288.29787234042556 388.0210254518628 L 291.8439716312057 394.0105127259314 L 295.3900709219858 382.01770564367393 L 298.93617021276594 391.00885282183697 L 302.4822695035461 395.5044264109185 L 306.02836879432624 386.4994466986352 L 309.57446808510633 393.2497233493176 L 313.1205673758865 396.6248616746588 L 316.66666666666663 398.3124308373294 L 320.2127659574468 399.1562154186647 L 323.7588652482269 397.45481372187385 L 327.3049645390071 398.7274068609369 L 330.8510638297872 399.36370343046843 L 334.39716312056737 399.68185171523425 L 337.9432624113475 399.03172261158244 L 341.48936170212767 399.51586130579125 L 345.0354609929078 398.5337513832534 L 348.58156028368796 399.2668756916267 L 352.1276595744681 397.78679454075984 L 355.6737588652482 398.8933972703799 L 359.21985815602835 399.44669863519 L 362.7659574468085 399.72334931759497 L 366.31205673758865 399.8616746587975 L 369.85815602836874 399.93083732939874 L 373.4042553191489 399.778679454076 L 376.95035460992904 399.889339727038 L 380.4964539007092 399.944669863519 L 384.04255319148933 399.9723349317595" /><text  class="poloto_text" alignment-baseline="middle" text-anchor="start" font-size="large" x="675" y="350" >c(1005)</text><line  class="poloto5stroke poloto5legend" stroke="black" x1="680" x2="730" y1="331.25" y2="331.25" /><path  class="poloto5stroke" fill="none" stroke="black" d=" M 150 386.0983032091479 L 153.54609929078015 358.2810770933235 L 157.0921985815603 379.14053854666173 L 160.63829787234042 389.5702692733309 L 164.18439716312056 394.7851346366654 L 167.7304964539007 384.3415713758761 L 171.27659574468086 392.170785687938 L 174.82269503546098 396.08539284396903 L 178.36879432624113 388.2423459977868 L 181.91489361702128 394.12117299889337 L 185.46099290780143 382.34968646255993 L 189.00709219858157 391.17484323127997 L 192.5531914893617 395.58742161564 L 196.09929078014184 386.7484323127997 L 199.645390070922 393.3742161563998 L 203.1914893617021 380.1088159350793 L 206.73758865248226 390.05440796753965 L 210.2836879432624 370.1493913684987 L 213.82978723404256 385.0746956842494 L 217.3758865248227 355.21025451862783 L 220.92198581560285 377.6051272593139 L 224.46808510638297 332.80154924382146 L 228.01418439716312 366.4007746219107 L 231.56028368794324 299.18849133161194 L 235.1063829787234 349.59424566580594 L 238.65248226950354 374.79712283290297 L 242.19858156028369 387.3985614164515 L 245.74468085106383 362.18185171523425 L 249.29078014184398 381.0909258576171 L 252.8368794326241 343.2589450387311 L 256.3829787234042 371.62947251936555 L 259.92907801418437 314.8745850239764 L 263.4751773049645 357.4372925119882 L 267.02127659574467 272.29804500184434 L 270.5673758865248 336.1490225009222 L 274.11347517730496 368.07451125046106 L 277.6595744680851 384.03725562523056 L 281.20567375886526 392.01862781261525 L 284.7517730496454 376.04205090372557 L 288.29787234042556 388.0210254518628 L 291.8439716312057 394.0105127259314 L 295.3900709219858 382.01770564367393 L 298.93617021276594 391.00885282183697 L 302.4822695035461 395.5044264109185 L 306.02836879432624 386.4994466986352 L 309.57446808510633 393.2497233493176 L 313.1205673758865 396.6248616746588 L 316.66666666666663 398.3124308373294 L 320.2127659574468 399.1562154186647 L 323.7588652482269 397.45481372187385 L 327.3049645390071 398.7274068609369 L 330.8510638297872 399.36370343046843 L 334.39716312056737 399.68185171523425 L 337.9432624113475 399.03172261158244 L 341.48936170212767 399.51586130579125 L 345.0354609929078 398.5337513832534 L 348.58156028368796 399.2668756916267 L 352.1276595744681 397.78679454075984 L 355.6737588652482 398.8933972703799 L 359.21985815602835 399.44669863519 L 362.7659574468085 399.72334931759497 L 366.31205673758865 399.8616746587975 L 369.85815602836874 399.93083732939874 L 373.4042553191489 399.778679454076 L 376.95035460992904 399.889339727038 L 380.4964539007092 399.944669863519 L 384.04255319148933 399.9723349317595" /><text  class="poloto_text" alignment-baseline="start" text-anchor="middle" font-size="x-large" x="400" y="37.5" >collatz</text><text  class="poloto_text" alignment-baseline="start" text-anchor="middle" font-size="x-large" x="400" y="481.25" >x</text><text  class="poloto_text" alignment-baseline="start" text-anchor="middle" font-size="x-large" transform="rotate(-90,37.5,250)" x="37.5" y="250" >y</text><line  class="poloto_axis_lines" stroke="black" x1="150" x2="150" y1="400" y2="405" /><text  class="poloto_text" alignment-baseline="start" text-anchor="middle" x="150" y="430" > 0</text><line  class="poloto_axis_lines" stroke="black" x1="220.92198581560285" x2="220.92198581560285" y1="400" y2="405" /><text  class="poloto_text" alignment-baseline="start" text-anchor="middle" x="220.92198581560285" y="430" > 20</text><line  class="poloto_axis_lines" stroke="black" x1="291.8439716312057" x2="291.8439716312057" y1="400" y2="405" /><text  class="poloto_text" alignment-baseline="start" text-anchor="middle" x="291.8439716312057" y="430" > 40</text><line  class="poloto_axis_lines" stroke="black" x1="362.7659574468085" x2="362.7659574468085" y1="400" y2="405" /><text  class="poloto_text" alignment-baseline="start" text-anchor="middle" x="362.7659574468085" y="430" > 60</text><line  class="poloto_axis_lines" stroke="black" x1="433.68794326241135" x2="433.68794326241135" y1="400" y2="405" /><text  class="poloto_text" alignment-baseline="start" text-anchor="middle" x="433.68794326241135" y="430" > 80</text><line  class="poloto_axis_lines" stroke="black" x1="504.60992907801415" x2="504.60992907801415" y1="400" y2="405" /><text  class="poloto_text" alignment-baseline="start" text-anchor="middle" x="504.60992907801415" y="430" > 100</text><line  class="poloto_axis_lines" stroke="black" x1="575.531914893617" x2="575.531914893617" y1="400" y2="405" /><text  class="poloto_text" alignment-baseline="start" text-anchor="middle" x="575.531914893617" y="430" > 120</text><line  class="poloto_axis_lines" stroke="black" x1="646.4539007092199" x2="646.4539007092199" y1="400" y2="405" /><text  class="poloto_text" alignment-baseline="start" text-anchor="middle" x="646.4539007092199" y="430" > 140</text><line  class="poloto_axis_lines" stroke="black" x1="150" x2="144" y1="400" y2="400" /><text  class="poloto_text" alignment-baseline="middle" text-anchor="end" x="135" y="400" > 0</text><line  class="poloto_axis_lines" stroke="black" x1="150" x2="144" y1="330.83732939874585" y2="330.83732939874585" /><text  class="poloto_text" alignment-baseline="middle" text-anchor="end" x="135" y="330.83732939874585" > 5000</text><line  class="poloto_axis_lines" stroke="black" x1="150" x2="144" y1="261.6746587974917" y2="261.6746587974917" /><text  class="poloto_text" alignment-baseline="middle" text-anchor="end" x="135" y="261.6746587974917" > 10000</text><line  class="poloto_axis_lines" stroke="black" x1="150" x2="144" y1="192.51198819623755" y2="192.51198819623755" /><text  class="poloto_text" alignment-baseline="middle" text-anchor="end" x="135" y="192.51198819623755" > 15000</text><line  class="poloto_axis_lines" stroke="black" x1="150" x2="144" y1="123.3493175949834" y2="123.3493175949834" /><text  class="poloto_text" alignment-baseline="middle" text-anchor="end" x="135" y="123.3493175949834" > 20000</text><path  stroke="black" fill="none" class="poloto_axis_lines" style="stroke-dasharray:8.865248226950355;stroke-dashoffset:0;" d=" M 150 400 L 650 400" /><path  stroke="black" fill="none" class="poloto_axis_lines" style="stroke-dasharray:6.916267060125415;stroke-dashoffset:-0;" d=" M 150 400 L 150 100" /></svg>