<svg  width="800" class="poloto" height="500" viewBox="0 0 800 500" xmlns="http://www.w3.org/2000/svg" > <style>.poloto {
    stroke-linecap:round;
    font-family: sans-serif;
    stroke-width:2;
    }
    .scatter{stroke-width:7}
    .poloto_text{fill: white;}
    .poloto_axis_lines{stroke: white;stroke-width:3;fill:none}
    .poloto_background{fill: black;}
    .poloto0stroke{stroke:  blue;}
    .poloto1stroke{stroke:  red;}
    .poloto2stroke{stroke:  green;}
    .poloto3stroke{stroke:  gold;}
    .poloto4stroke{stroke:  aqua;}
    .poloto5stroke{stroke:  brown;}
    .poloto6stroke{stroke:  lime;}
    .poloto7stroke{stroke:  chocolate;}
    .poloto0fill{fill:blue;}
    .poloto1fill{fill:red;}
    .poloto2fill{fill:green;}
    .poloto3fill{fill:gold;}
    .poloto4fill{fill:aqua;}
    .poloto5fill{fill:brown;}
    .poloto6fill{fill:lime;}
    .poloto7fill{fill:chocolate;}</style><rect  class="poloto_background" fill="white" x="0" y="0" width="800" height="500" /><text  class="poloto_text" alignment-baseline="middle" text-anchor="start" font-size="large" x="675" y="100" >c(1000)</text><line  class="poloto0stroke" stroke="black" x1="680" x2="730" y1="81.25" y2="81.25" /><path  class="poloto0stroke" fill="none" stroke="black" d=" M 150 386.1938577884349 L 153.54609929078015 393.1107627040487 L 157.0921985815603 396.5692151618556 L 160.63829787234042 398.298441390759 L 164.18439716312056 394.8261551231209 L 167.7304964539007 397.42691137139167 L 171.27659574468086 398.7272894955271 L 174.82269503546098 399.37747855759477 L 178.36879432624113 398.0632666236281 L 181.91489361702128 399.0454671216453 L 185.46099290780143 397.0672323157798 L 189.00709219858157 398.5474499677211 L 192.5531914893617 395.5731808540072 L 196.09929078014184 397.80042423683483 L 199.645390070922 393.33210366134836 L 203.1914893617021 396.6798856405054 L 206.73758865248226 398.3537766300839 L 210.2836879432624 394.99216084109565 L 213.82978723404256 397.509914230379 L 217.3758865248227 398.76879092502077 L 220.92198581560285 396.2372037259061 L 224.46808510638297 398.1324356727843 L 228.01418439716312 394.3281379691967 L 231.56028368794324 397.1779027944296 L 235.1063829787234 398.602785207046 L 238.65248226950354 395.7391865719819 L 242.19858156028369 397.8834270958222 L 245.74468085106383 393.5811122383104 L 249.29078014184398 396.80438992898644 L 252.8368794326241 390.3440007378032 L 256.3829787234042 395.1858341787328 L 259.92907801418437 397.60675089919766 L 263.4751773049645 392.7510836484368 L 267.02127659574467 396.3893756340496 L 270.5673758865248 389.0989578529927 L 274.11347517730496 394.5633127363276 L 277.6595744680851 383.62076915982664 L 281.20567375886526 391.82421838974454 L 284.7517730496454 375.40348612007745 L 288.29787234042556 387.71557686986995 L 291.8439716312057 393.87162224476623 L 295.3900709219858 381.5456976851425 L 298.93617021276594 390.7866826524025 L 302.4822695035461 395.40717513603244 L 306.02836879432624 397.7174213778475 L 309.57446808510633 393.08309508438623 L 313.1205673758865 396.55538135202437 L 316.66666666666663 389.5969750069169 L 320.2127659574468 394.81232131328966 L 323.7588652482269 384.3677948907129 L 327.3049645390071 392.1977312551877 L 330.8510638297872 396.1126994374251 L 334.39716312056737 388.26892926311905 L 337.9432624113475 394.14829844139075 L 341.48936170212767 382.3757262750161 L 345.0354609929078 391.2016969473393 L 348.58156028368796 395.6146822835009 L 352.1276595744681 386.7748778013465 L 355.6737588652482 393.4012727105045 L 359.21985815602835 380.13464908235727 L 362.7659574468085 390.0811583510099 L 366.31205673758865 370.1743060038735 L 369.85815602836874 385.10098681176794 L 373.4042553191489 355.23379138614774 L 376.95035460992904 377.6307295029051 L 380.4964539007092 332.8230194595592 L 384.04255319148933 366.4253435396108 L 387.5886524822695 299.2068615696763 L 391.13475177304963 349.6172645946694 L 394.6808510638298 374.8224661071659 L 398.2269503546099 387.4250668634142 L 401.7730496453901 362.2060315410864 L 405.3191489361702 381.11684958037443 L 408.8652482269503 343.2813796919672 L 412.41134751773046 371.65452365581484 L 415.9574468085106 314.8944019182883 L 419.50354609929076 357.46103476897537 L 423.0496453900709 272.31393525777 L 426.59574468085106 336.17080143871624 L 430.1418439716312 368.09923452918935 L 433.68794326241135 384.06345107442587 L 437.2340425531915 392.04555934704416 L 440.7801418439716 376.0675089919764 L 444.32624113475174 388.04758830581943 L 447.8723404255319 394.03762796274094 L 451.41843971631204 382.0437148390667 L 454.9645390070922 391.03569122936455 L 458.51063829787233 395.5316794245135 L 462.0567375886525 386.5258692243844 L 465.60283687943263 393.27676842202345 L 469.1489361702127 396.65221802084295 L 472.69503546099287 398.3399428202527 L 476.241134751773 399.18380521995755 L 479.78723404255317 397.4822466107166 L 483.3333333333333 398.75495711518954 L 486.87943262411346 399.391312367426 L 490.4255319148936 399.7094899935442 L 493.97163120567376 399.0593009314765 L 497.5177304964539 399.5434842755695 L 501.063829787234 398.5612837775523 L 504.60992907801415 399.2944756986074 L 508.1560283687943 397.81425804666605 L 511.70212765957444 398.92096283316425 L 515.2482269503546 399.47431522641335 L 518.7943262411347 399.75099142303793 L 522.3404255319149 399.8893295213502 L 525.886524822695 399.9584985705063 L 529.4326241134752 399.80632666236284 L 532.9787234042553 399.91699714101264 L 536.5248226950355 399.97233238033755 L 540.0709219858156 400" /><text  class="poloto_text" alignment-baseline="middle" text-anchor="start" font-size="large" x="675" y="150" >c(1001)</text><line  class="poloto1stroke" stroke="black" x1="680" x2="730" y1="131.25" y2="131.25" /><path  class="poloto1stroke" fill="none" stroke="black" d=" M 150 386.1800239786037 L 153.54609929078015 358.470902886655 L 157.0921985815603 379.24928525315875 L 160.63829787234042 389.6384764364106 L 164.18439716312056 368.8462602600756 L 167.7304964539007 384.43696393986903 L 171.27659574468086 353.24172277045096 L 174.82269503546098 376.63469519505674 L 178.36879432624113 329.834916536014 L 181.91489361702128 364.93129207783824 L 185.46099290780143 294.7247071843586 L 189.00709219858157 347.3761874020105 L 192.5531914893617 373.70192751083647 L 196.09929078014184 321.03661348335334 L 199.645390070922 360.5321405515079 L 203.1914893617021 281.5272526053675 L 206.73758865248226 340.777460112515 L 210.2836879432624 222.26321128838882 L 213.82978723404256 311.1454394540256 L 217.3758865248227 133.3671493129208 L 220.92198581560285 266.6974084662916 L 224.46808510638297 333.362538042977 L 228.01418439716312 200.01844507977498 L 231.56028368794324 300.02305634971873 L 235.1063829787234 100 L 238.65248226950354 250.01383380983123 L 242.19858156028369 325.02075071474684 L 245.74468085106383 362.5242091672046 L 249.29078014184398 287.50345845245783 L 252.8368794326241 343.76556303606014 L 256.3829787234042 231.22752005902427 L 259.92907801418437 315.6275938393434 L 263.4751773049645 146.81361246887394 L 267.02127659574467 273.4206400442682 L 270.5673758865248 336.72415383196534 L 274.11347517730496 368.37591072581387 L 277.6595744680851 384.2017891727382 L 281.20567375886526 392.1147283962003 L 284.7517730496454 396.0711980079314 L 288.29787234042556 398.0494328137969 L 291.8439716312057 394.0791293922346 L 295.3900709219858 397.05339850594856 L 298.93617021276594 391.0910264686895 L 302.4822695035461 395.559347044176 L 306.02836879432624 386.60887208337175 L 309.57446808510633 393.31826985151713 L 313.1205673758865 379.8856405053952 L 316.66666666666663 389.9566540625288 L 320.2127659574468 394.99216084109565 L 323.7588652482269 397.509914230379 L 327.3049645390071 398.76879092502077 L 330.8510638297872 396.2372037259061 L 334.39716312056737 398.1324356727843 L 337.9432624113475 394.3281379691967 L 341.48936170212767 397.1779027944296 L 345.0354609929078 398.602785207046 L 348.58156028368796 395.7391865719819 L 352.1276595744681 397.8834270958222 L 355.6737588652482 393.5811122383104 L 359.21985815602835 396.80438992898644 L 362.7659574468085 390.3440007378032 L 366.31205673758865 395.1858341787328 L 369.85815602836874 397.60675089919766 L 373.4042553191489 392.7510836484368 L 376.95035460992904 396.3893756340496 L 380.4964539007092 389.0989578529927 L 384.04255319148933 394.5633127363276 L 387.5886524822695 383.62076915982664 L 391.13475177304963 391.82421838974454 L 394.6808510638298 375.40348612007745 L 398.2269503546099 387.71557686986995 L 401.7730496453901 393.87162224476623 L 405.3191489361702 381.5456976851425 L 408.8652482269503 390.7866826524025 L 412.41134751773046 395.40717513603244 L 415.9574468085106 397.7174213778475 L 419.50354609929076 393.08309508438623 L 423.0496453900709 396.55538135202437 L 426.59574468085106 389.5969750069169 L 430.1418439716312 394.81232131328966 L 433.68794326241135 384.3677948907129 L 437.2340425531915 392.1977312551877 L 440.7801418439716 396.1126994374251 L 444.32624113475174 388.26892926311905 L 447.8723404255319 394.14829844139075 L 451.41843971631204 382.3757262750161 L 454.9645390070922 391.2016969473393 L 458.51063829787233 395.6146822835009 L 462.0567375886525 386.7748778013465 L 465.60283687943263 393.4012727105045 L 469.1489361702127 380.13464908235727 L 472.69503546099287 390.0811583510099 L 476.241134751773 370.1743060038735 L 479.78723404255317 385.10098681176794 L 483.3333333333333 355.23379138614774 L 486.87943262411346 377.6307295029051 L 490.4255319148936 332.8230194595592 L 493.97163120567376 366.4253435396108 L 497.5177304964539 299.2068615696763 L 501.063829787234 349.6172645946694 L 504.60992907801415 374.8224661071659 L 508.1560283687943 387.4250668634142 L 511.70212765957444 362.2060315410864 L 515.2482269503546 381.11684958037443 L 518.7943262411347 343.2813796919672 L 522.3404255319149 371.65452365581484 L 525.886524822695 314.8944019182883 L 529.4326241134752 357.46103476897537 L 532.9787234042553 272.31393525777 L 536.5248226950355 336.17080143871624 L 540.0709219858156 368.09923452918935 L 543.6170212765958 384.06345107442587 L 547.1631205673759 392.04555934704416 L 550.7092198581561 376.0675089919764 L 554.2553191489362 388.04758830581943 L 557.8014184397164 394.03762796274094 L 561.3475177304964 382.0437148390667 L 564.8936170212766 391.03569122936455 L 568.4397163120567 395.5316794245135 L 571.9858156028369 386.5258692243844 L 575.531914893617 393.27676842202345 L 579.0780141843971 396.65221802084295 L 582.6241134751773 398.3399428202527 L 586.1702127659574 399.18380521995755 L 589.7163120567375 397.4822466107166 L 593.2624113475176 398.75495711518954 L 596.8085106382978 399.391312367426 L 600.3546099290779 399.7094899935442 L 603.9007092198581 399.0593009314765 L 607.4468085106382 399.5434842755695 L 610.9929078014184 398.5612837775523 L 614.5390070921985 399.2944756986074 L 618.0851063829787 397.81425804666605 L 621.6312056737588 398.92096283316425 L 625.177304964539 399.47431522641335 L 628.7234042553191 399.75099142303793 L 632.2695035460993 399.8893295213502 L 635.8156028368794 399.9584985705063 L 639.3617021276596 399.80632666236284 L 642.9078014184397 399.91699714101264 L 646.4539007092199 399.97233238033755 L 650 400" /><text  class="poloto_text" alignment-baseline="middle" text-anchor="start" font-size="large" x="675" y="200" >c(1002)</text><line  class="poloto2stroke" stroke="black" x1="680" x2="730" y1="181.25" y2="181.25" /><path  class="poloto2stroke" fill="none" stroke="black" d=" M 150 386.16619016877246 L 153.54609929078015 393.09692889421746 L 157.0921985815603 379.2216176334963 L 160.63829787234042 389.6246426265794 L 164.18439716312056 394.8261551231209 L 167.7304964539007 397.42691137139167 L 171.27659574468086 398.7272894955271 L 174.82269503546098 399.37747855759477 L 178.36879432624113 398.0632666236281 L 181.91489361702128 399.0454671216453 L 185.46099290780143 397.0672323157798 L 189.00709219858157 398.5474499677211 L 192.5531914893617 395.5731808540072 L 196.09929078014184 397.80042423683483 L 199.645390070922 393.33210366134836 L 203.1914893617021 396.6798856405054 L 206.73758865248226 398.3537766300839 L 210.2836879432624 394.99216084109565 L 213.82978723404256 397.509914230379 L 217.3758865248227 398.76879092502077 L 220.92198581560285 396.2372037259061 L 224.46808510638297 398.1324356727843 L 228.01418439716312 394.3281379691967 L 231.56028368794324 397.1779027944296 L 235.1063829787234 398.602785207046 L 238.65248226950354 395.7391865719819 L 242.19858156028369 397.8834270958222 L 245.74468085106383 393.5811122383104 L 249.29078014184398 396.80438992898644 L 252.8368794326241 390.3440007378032 L 256.3829787234042 395.1858341787328 L 259.92907801418437 397.60675089919766 L 263.4751773049645 392.7510836484368 L 267.02127659574467 396.3893756340496 L 270.5673758865248 389.0989578529927 L 274.11347517730496 394.5633127363276 L 277.6595744680851 383.62076915982664 L 281.20567375886526 391.82421838974454 L 284.7517730496454 375.40348612007745 L 288.29787234042556 387.71557686986995 L 291.8439716312057 393.87162224476623 L 295.3900709219858 381.5456976851425 L 298.93617021276594 390.7866826524025 L 302.4822695035461 395.40717513603244 L 306.02836879432624 397.7174213778475 L 309.57446808510633 393.08309508438623 L 313.1205673758865 396.55538135202437 L 316.66666666666663 389.5969750069169 L 320.2127659574468 394.81232131328966 L 323.7588652482269 384.3677948907129 L 327.3049645390071 392.1977312551877 L 330.8510638297872 396.1126994374251 L 334.39716312056737 388.26892926311905 L 337.9432624113475 394.14829844139075 L 341.48936170212767 382.3757262750161 L 345.0354609929078 391.2016969473393 L 348.58156028368796 395.6146822835009 L 352.1276595744681 386.7748778013465 L 355.6737588652482 393.4012727105045 L 359.21985815602835 380.13464908235727 L 362.7659574468085 390.0811583510099 L 366.31205673758865 370.1743060038735 L 369.85815602836874 385.10098681176794 L 373.4042553191489 355.23379138614774 L 376.95035460992904 377.6307295029051 L 380.4964539007092 332.8230194595592 L 384.04255319148933 366.4253435396108 L 387.5886524822695 299.2068615696763 L 391.13475177304963 349.6172645946694 L 394.6808510638298 374.8224661071659 L 398.2269503546099 387.4250668634142 L 401.7730496453901 362.2060315410864 L 405.3191489361702 381.11684958037443 L 408.8652482269503 343.2813796919672 L 412.41134751773046 371.65452365581484 L 415.9574468085106 314.8944019182883 L 419.50354609929076 357.46103476897537 L 423.0496453900709 272.31393525777 L 426.59574468085106 336.17080143871624 L 430.1418439716312 368.09923452918935 L 433.68794326241135 384.06345107442587 L 437.2340425531915 392.04555934704416 L 440.7801418439716 376.0675089919764 L 444.32624113475174 388.04758830581943 L 447.8723404255319 394.03762796274094 L 451.41843971631204 382.0437148390667 L 454.9645390070922 391.03569122936455 L 458.51063829787233 395.5316794245135 L 462.0567375886525 386.5258692243844 L 465.60283687943263 393.27676842202345 L 469.1489361702127 396.65221802084295 L 472.69503546099287 398.3399428202527 L 476.241134751773 399.18380521995755 L 479.78723404255317 397.4822466107166 L 483.3333333333333 398.75495711518954 L 486.87943262411346 399.391312367426 L 490.4255319148936 399.7094899935442 L 493.97163120567376 399.0593009314765 L 497.5177304964539 399.5434842755695 L 501.063829787234 398.5612837775523 L 504.60992907801415 399.2944756986074 L 508.1560283687943 397.81425804666605 L 511.70212765957444 398.92096283316425 L 515.2482269503546 399.47431522641335 L 518.7943262411347 399.75099142303793 L 522.3404255319149 399.8893295213502 L 525.886524822695 399.9584985705063 L 529.4326241134752 399.80632666236284 L 532.9787234042553 399.91699714101264 L 536.5248226950355 399.97233238033755 L 540.0709219858156 400" /><text  class="poloto_text" alignment-baseline="middle" text-anchor="start" font-size="large" x="675" y="250" >c(1003)</text><line  class="poloto3stroke" stroke="black" x1="680" x2="730" y1="231.25" y2="231.25" /><path  class="poloto3stroke" fill="none" stroke="black" d=" M 150 386.15235635894123 L 153.54609929078015 358.3879000276676 L 157.0921985815603 379.20778382366507 L 160.63829787234042 337.55418242183896 L 164.18439716312056 368.7909250207507 L 167.7304964539007 384.4092963202066 L 171.27659574468086 353.1587199114636 L 174.82269503546098 376.59319376556306 L 178.36879432624113 388.3104306926127 L 181.91489361702128 364.8621230286821 L 185.46099290780143 382.4448953241723 L 189.00709219858157 347.2655169233607 L 192.5531914893617 373.64659227151157 L 196.09929078014184 320.87060776537857 L 199.645390070922 360.44913769252054 L 203.1914893617021 281.2782440284054 L 206.73758865248226 340.65295582403394 L 210.2836879432624 370.3403117218482 L 213.82978723404256 385.18398967075535 L 217.3758865248227 355.48279996310987 L 220.92198581560285 377.75523379138616 L 224.46808510638297 388.8914507055243 L 228.01418439716312 366.60518306741676 L 231.56028368794324 383.3164253435396 L 235.1063829787234 391.67204648160106 L 238.65248226950354 395.8498570506317 L 242.19858156028369 397.9387623351471 L 245.74468085106383 393.74711795628514 L 249.29078014184398 396.8873927879738 L 252.8368794326241 390.5930093147653 L 256.3829787234042 395.31033846721385 L 259.92907801418437 385.8618463524855 L 263.4751773049645 392.94475698607397 L 267.02127659574467 396.4862123028682 L 270.5673758865248 398.25693996126535 L 274.11347517730496 399.14230379046387 L 277.6595744680851 399.58498570506316 L 281.20567375886526 399.80632666236284 L 284.7517730496454 399.91699714101264 L 288.29787234042556 399.97233238033755 L 291.8439716312057 400" /><text  class="poloto_text" alignment-baseline="middle" text-anchor="start" font-size="large" x="675" y="300" >c(1004)</text><line  class="poloto4stroke" stroke="black" x1="680" x2="730" y1="281.25" y2="281.25" /><path  class="poloto4stroke" fill="none" stroke="black" d=" M 150 386.13852254911 L 153.54609929078015 393.08309508438623 L 157.0921985815603 396.55538135202437 L 160.63829787234042 389.5969750069169 L 164.18439716312056 394.81232131328966 L 167.7304964539007 384.3677948907129 L 171.27659574468086 392.1977312551877 L 174.82269503546098 396.1126994374251 L 178.36879432624113 388.26892926311905 L 181.91489361702128 394.14829844139075 L 185.46099290780143 382.3757262750161 L 189.00709219858157 391.2016969473393 L 192.5531914893617 395.6146822835009 L 196.09929078014184 386.7748778013465 L 199.645390070922 393.4012727105045 L 203.1914893617021 380.13464908235727 L 206.73758865248226 390.0811583510099 L 210.2836879432624 370.1743060038735 L 213.82978723404256 385.10098681176794 L 217.3758865248227 355.23379138614774 L 220.92198581560285 377.6307295029051 L 224.46808510638297 332.8230194595592 L 228.01418439716312 366.4253435396108 L 231.56028368794324 299.2068615696763 L 235.1063829787234 349.6172645946694 L 238.65248226950354 374.8224661071659 L 242.19858156028369 387.4250668634142 L 245.74468085106383 362.2060315410864 L 249.29078014184398 381.11684958037443 L 252.8368794326241 343.2813796919672 L 256.3829787234042 371.65452365581484 L 259.92907801418437 314.8944019182883 L 263.4751773049645 357.46103476897537 L 267.02127659574467 272.31393525777 L 270.5673758865248 336.17080143871624 L 274.11347517730496 368.09923452918935 L 277.6595744680851 384.06345107442587 L 281.20567375886526 392.04555934704416 L 284.7517730496454 376.0675089919764 L 288.29787234042556 388.04758830581943 L 291.8439716312057 394.03762796274094 L 295.3900709219858 382.0437148390667 L 298.93617021276594 391.03569122936455 L 302.4822695035461 395.5316794245135 L 306.02836879432624 386.5258692243844 L 309.57446808510633 393.27676842202345 L 313.1205673758865 396.65221802084295 L 316.66666666666663 398.3399428202527 L 320.2127659574468 399.18380521995755 L 323.7588652482269 397.4822466107166 L 327.3049645390071 398.75495711518954 L 330.8510638297872 399.391312367426 L 334.39716312056737 399.7094899935442 L 337.9432624113475 399.0593009314765 L 341.48936170212767 399.5434842755695 L 345.0354609929078 398.5612837775523 L 348.58156028368796 399.2944756986074 L 352.1276595744681 397.81425804666605 L 355.6737588652482 398.92096283316425 L 359.21985815602835 399.47431522641335 L 362.7659574468085 399.75099142303793 L 366.31205673758865 399.8893295213502 L 369.85815602836874 399.9584985705063 L 373.4042553191489 399.80632666236284 L 376.95035460992904 399.91699714101264 L 380.4964539007092 399.97233238033755 L 384.04255319148933 400" /><text  class="poloto_text" alignment-baseline="middle" text-anchor="start" font-size="large" x="675" y="350" >c(1005)</text><line  class="poloto5stroke" stroke="black" x1="680" x2="730" y1="331.25" y2="331.25" /><path  class="poloto5stroke" fill="none" stroke="black" d=" M 150 386.1246887392788 L 153.54609929078015 358.30489716868027 L 157.0921985815603 379.16628239417133 L 160.63829787234042 389.5969750069169 L 164.18439716312056 394.81232131328966 L 167.7304964539007 384.3677948907129 L 171.27659574468086 392.1977312551877 L 174.82269503546098 396.1126994374251 L 178.36879432624113 388.26892926311905 L 181.91489361702128 394.14829844139075 L 185.46099290780143 382.3757262750161 L 189.00709219858157 391.2016969473393 L 192.5531914893617 395.6146822835009 L 196.09929078014184 386.7748778013465 L 199.645390070922 393.4012727105045 L 203.1914893617021 380.13464908235727 L 206.73758865248226 390.0811583510099 L 210.2836879432624 370.1743060038735 L 213.82978723404256 385.10098681176794 L 217.3758865248227 355.23379138614774 L 220.92198581560285 377.6307295029051 L 224.46808510638297 332.8230194595592 L 228.01418439716312 366.4253435396108 L 231.56028368794324 299.2068615696763 L 235.1063829787234 349.6172645946694 L 238.65248226950354 374.8224661071659 L 242.19858156028369 387.4250668634142 L 245.74468085106383 362.2060315410864 L 249.29078014184398 381.11684958037443 L 252.8368794326241 343.2813796919672 L 256.3829787234042 371.65452365581484 L 259.92907801418437 314.8944019182883 L 263.4751773049645 357.46103476897537 L 267.02127659574467 272.31393525777 L 270.5673758865248 336.17080143871624 L 274.11347517730496 368.09923452918935 L 277.6595744680851 384.06345107442587 L 281.20567375886526 392.04555934704416 L 284.7517730496454 376.0675089919764 L 288.29787234042556 388.04758830581943 L 291.8439716312057 394.03762796274094 L 295.3900709219858 382.0437148390667 L 298.93617021276594 391.03569122936455 L 302.4822695035461 395.5316794245135 L 306.02836879432624 386.5258692243844 L 309.57446808510633 393.27676842202345 L 313.1205673758865 396.65221802084295 L 316.66666666666663 398.3399428202527 L 320.2127659574468 399.18380521995755 L 323.7588652482269 397.4822466107166 L 327.3049645390071 398.75495711518954 L 330.8510638297872 399.391312367426 L 334.39716312056737 399.7094899935442 L 337.9432624113475 399.0593009314765 L 341.48936170212767 399.5434842755695 L 345.0354609929078 398.5612837775523 L 348.58156028368796 399.2944756986074 L 352.1276595744681 397.81425804666605 L 355.6737588652482 398.92096283316425 L 359.21985815602835 399.47431522641335 L 362.7659574468085 399.75099142303793 L 366.31205673758865 399.8893295213502 L 369.85815602836874 399.9584985705063 L 373.4042553191489 399.80632666236284 L 376.95035460992904 399.91699714101264 L 380.4964539007092 399.97233238033755 L 384.04255319148933 400" /><text  class="poloto_text" alignment-baseline="start" text-anchor="middle" font-size="x-large" x="400" y="37.5" >collatz</text><text  class="poloto_text" alignment-baseline="start" text-anchor="middle" font-size="x-large" x="400" y="481.25" >x</text><text  class="poloto_text" alignment-baseline="start" text-anchor="middle" font-size="x-large" transform="rotate(-90,37.5,250)" x="37.5" y="250" >y</text><path  stroke="black" fill="none" class="poloto_axis_lines" d=" M 150 100 L 150 400 L 650 400" /><line  class="poloto_axis_lines" stroke="black" x1="150" x2="150" y1="400" y2="405" /><text  class="poloto_text" alignment-baseline="start" text-anchor="middle" x="150" y="430" > 0</text><line  class="poloto_axis_lines" stroke="black" x1="220.92198581560285" x2="220.92198581560285" y1="400" y2="405" /><text  class="poloto_text" alignment-baseline="start" text-anchor="middle" x="220.92198581560285" y="430" > 20</text><line  class="poloto_axis_lines" stroke="black" x1="291.8439716312057" x2="291.8439716312057" y1="400" y2="405" /><text  class="poloto_text" alignment-baseline="start" text-anchor="middle" x="291.8439716312057" y="430" > 40</text><line  class="poloto_axis_lines" stroke="black" x1="362.7659574468085" x2="362.7659574468085" y1="400" y2="405" /><text  class="poloto_text" alignment-baseline="start" text-anchor="middle" x="362.7659574468085" y="430" > 60</text><line  class="poloto_axis_lines" stroke="black" x1="433.68794326241135" x2="433.68794326241135" y1="400" y2="405" /><text  class="poloto_text" alignment-baseline="start" text-anchor="middle" x="433.68794326241135" y="430" > 80</text><line  class="poloto_axis_lines" stroke="black" x1="504.60992907801415" x2="504.60992907801415" y1="400" y2="405" /><text  class="poloto_text" alignment-baseline="start" text-anchor="middle" x="504.60992907801415" y="430" > 100</text><line  class="poloto_axis_lines" stroke="black" x1="575.531914893617" x2="575.531914893617" y1="400" y2="405" /><text  class="poloto_text" alignment-baseline="start" text-anchor="middle" x="575.531914893617" y="430" > 120</text><line  class="poloto_axis_lines" stroke="black" x1="646.4539007092199" x2="646.4539007092199" y1="400" y2="405" /><text  class="poloto_text" alignment-baseline="start" text-anchor="middle" x="646.4539007092199" y="430" > 140</text><line  class="poloto_axis_lines" stroke="black" x1="150" x2="144" y1="330.85861846352486" y2="330.85861846352486" /><text  class="poloto_text" alignment-baseline="middle" text-anchor="end" x="135" y="330.85861846352486" > 5000</text><line  class="poloto_axis_lines" stroke="black" x1="150" x2="144" y1="261.6895693073873" y2="261.6895693073873" /><text  class="poloto_text" alignment-baseline="middle" text-anchor="end" x="135" y="261.6895693073873" > 10000</text><line  class="poloto_axis_lines" stroke="black" x1="150" x2="144" y1="192.52052015124968" y2="192.52052015124968" /><text  class="poloto_text" alignment-baseline="middle" text-anchor="end" x="135" y="192.52052015124968" > 15000</text><line  class="poloto_axis_lines" stroke="black" x1="150" x2="144" y1="123.35147099511204" y2="123.35147099511204" /><text  class="poloto_text" alignment-baseline="middle" text-anchor="end" x="135" y="123.35147099511204" > 20000</text></svg>