<svg class="poloto" width="800" height="500" viewBox="0 0 800 500" xmlns="http://www.w3.org/2000/svg"><style>.poloto { stroke-linecap:round; stroke-linejoin:round; font-family: 'Tahoma', sans-serif; background-color: #262626;} .poloto_scatter{stroke-width:7} .poloto_line{stroke-width:2} .poloto_text{fill: white;} .poloto_axis_lines{stroke: white;stroke-width:3;fill:none;stroke-dasharray:none} .poloto0stroke{stroke:  blue;} .poloto1stroke{stroke:  red;} .poloto2stroke{stroke:  green;} .poloto3stroke{stroke:  gold;} .poloto4stroke{stroke:  aqua;} .poloto5stroke{stroke:  lime;} .poloto6stroke{stroke:  orange;} .poloto7stroke{stroke:  chocolate;} .poloto0fill{fill:blue;} .poloto1fill{fill:red;} .poloto2fill{fill:green;} .poloto3fill{fill:gold;} .poloto4fill{fill:aqua;} .poloto5fill{fill:lime;} .poloto6fill{fill:orange;} .poloto7fill{fill:chocolate;}.poloto_line{stroke-dasharray:2;stroke-width:1;}</style><text  class="poloto_text poloto_legend_text" alignment-baseline="middle" text-anchor="start" font-size="large" x="675" y="100" >c(1000)</text><line  class="poloto_line poloto_legend_icon poloto0stroke poloto0legend" stroke="black" x1="680" x2="730" y1="81.25" y2="81.25" /><path  class="poloto_line poloto0stroke" fill="none" stroke="black" d=" M 150 393.0837329398746 L 153.54609929078015 396.5418664699373 L 157.0921985815603 398.27093323496865 L 160.63829787234042 394.7989671707857 L 164.18439716312056 397.39948358539283 L 167.7304964539007 398.69974179269644 L 171.27659574468086 399.3498708963482 L 174.82269503546098 398.0357801549244 L 178.36879432624113 399.0178900774622 L 181.91489361702128 397.0398376982663 L 185.46099290780143 398.51991884913315 L 189.00709219858157 395.5459240132792 L 192.5531914893617 397.7729620066396 L 196.09929078014184 393.3050534857986 L 199.645390070922 396.6525267428993 L 203.1914893617021 398.32626337144967 L 206.73758865248226 394.9649575802287 L 210.2836879432624 397.4824787901143 L 213.82978723404256 398.74123939505716 L 217.3758865248227 396.20988565105125 L 220.92198581560285 398.10494282552565 L 224.46808510638297 394.30099594245667 L 228.01418439716312 397.15049797122833 L 231.56028368794324 398.57524898561417 L 235.1063829787234 395.71191442272226 L 238.65248226950354 397.8559572113611 L 242.19858156028369 393.5540390999631 L 245.74468085106383 396.77701954998156 L 249.29078014184398 390.31722611582444 L 252.8368794326241 395.1586130579122 L 256.3829787234042 397.5793065289561 L 259.92907801418437 392.7240870527481 L 263.4751773049645 396.362043526374 L 267.02127659574467 389.07229804500184 L 270.5673758865248 394.5361490225009 L 274.11347517730496 383.5946145333825 L 277.6595744680851 391.79730726669123 L 281.20567375886526 375.3780892659535 L 284.7517730496454 387.6890446329768 L 288.29787234042556 393.8445223164884 L 291.8439716312057 381.5197344153449 L 295.3900709219858 390.75986720767247 L 298.93617021276594 395.3799336038362 L 302.4822695035461 397.6899668019181 L 306.02836879432624 393.05606787163407 L 309.57446808510633 396.52803393581706 L 313.1205673758865 389.5702692733309 L 316.66666666666663 394.7851346366654 L 320.2127659574468 384.3415713758761 L 323.7588652482269 392.170785687938 L 327.3049645390071 396.08539284396903 L 330.8510638297872 388.2423459977868 L 334.39716312056737 394.12117299889337 L 337.9432624113475 382.34968646255993 L 341.48936170212767 391.17484323127997 L 345.0354609929078 395.58742161564 L 348.58156028368796 386.7484323127997 L 352.1276595744681 393.3742161563998 L 355.6737588652482 380.1088159350793 L 359.21985815602835 390.05440796753965 L 362.7659574468085 370.1493913684987 L 366.31205673758865 385.0746956842494 L 369.85815602836874 355.21025451862783 L 373.4042553191489 377.6051272593139 L 376.95035460992904 332.80154924382146 L 380.4964539007092 366.4007746219107 L 384.04255319148933 299.18849133161194 L 387.5886524822695 349.59424566580594 L 391.13475177304963 374.79712283290297 L 394.6808510638298 387.3985614164515 L 398.2269503546099 362.18185171523425 L 401.7730496453901 381.0909258576171 L 405.3191489361702 343.2589450387311 L 408.8652482269503 371.62947251936555 L 412.41134751773046 314.8745850239764 L 415.9574468085106 357.4372925119882 L 419.50354609929076 272.29804500184434 L 423.0496453900709 336.1490225009222 L 426.59574468085106 368.07451125046106 L 430.1418439716312 384.03725562523056 L 433.68794326241135 392.01862781261525 L 437.2340425531915 376.04205090372557 L 440.7801418439716 388.0210254518628 L 444.32624113475174 394.0105127259314 L 447.8723404255319 382.01770564367393 L 451.41843971631204 391.00885282183697 L 454.9645390070922 395.5044264109185 L 458.51063829787233 386.4994466986352 L 462.0567375886525 393.2497233493176 L 465.60283687943263 396.6248616746588 L 469.1489361702127 398.3124308373294 L 472.69503546099287 399.1562154186647 L 476.241134751773 397.45481372187385 L 479.78723404255317 398.7274068609369 L 483.3333333333333 399.36370343046843 L 486.87943262411346 399.68185171523425 L 490.4255319148936 399.03172261158244 L 493.97163120567376 399.51586130579125 L 497.5177304964539 398.5337513832534 L 501.063829787234 399.2668756916267 L 504.60992907801415 397.78679454075984 L 508.1560283687943 398.8933972703799 L 511.70212765957444 399.44669863519 L 515.2482269503546 399.72334931759497 L 518.7943262411347 399.8616746587975 L 522.3404255319149 399.93083732939874 L 525.886524822695 399.778679454076 L 529.4326241134752 399.889339727038 L 532.9787234042553 399.944669863519 L 536.5248226950355 399.9723349317595 L 540.0709219858156 399.98616746587976" /><text  class="poloto_text poloto_legend_text" alignment-baseline="middle" text-anchor="start" font-size="large" x="675" y="150" >c(1001)</text><line  class="poloto_line poloto_legend_icon poloto1stroke poloto1legend" stroke="black" x1="680" x2="730" y1="131.25" y2="131.25" /><path  class="poloto_line poloto1stroke" fill="none" stroke="black" d=" M 150 358.4470675027665 L 153.54609929078015 379.22353375138323 L 157.0921985815603 389.6117668756916 L 160.63829787234042 368.8214680929546 L 164.18439716312056 384.41073404647733 L 167.7304964539007 353.2183696053117 L 171.27659574468086 376.6091848026558 L 174.82269503546098 329.81372187384727 L 178.36879432624113 364.90686093692364 L 181.91489361702128 294.70675027665067 L 185.46099290780143 347.35337513832536 L 189.00709219858157 373.67668756916265 L 192.5531914893617 321.0162301733678 L 196.09929078014184 360.50811508668386 L 199.645390070922 281.5105127259314 L 203.1914893617021 340.7552563629657 L 206.73758865248226 222.25193655477682 L 210.2836879432624 311.12596827738844 L 213.82978723404256 133.36407229804502 L 217.3758865248227 266.6820361490225 L 220.92198581560285 333.3410180745112 L 224.46808510638297 200.0092216894135 L 228.01418439716312 300.00461084470675 L 231.56028368794324 100 L 235.1063829787234 250 L 238.65248226950354 325 L 242.19858156028369 362.5 L 245.74468085106383 287.48616746587976 L 249.29078014184398 343.74308373293985 L 252.8368794326241 231.21541866469937 L 256.3829787234042 315.6077093323497 L 259.92907801418437 146.8092954629288 L 263.4751773049645 273.40464773146437 L 267.02127659574467 336.7023238657322 L 270.5673758865248 368.3511619328661 L 274.11347517730496 384.1755809664331 L 277.6595744680851 392.0877904832165 L 281.20567375886526 396.04389524160825 L 284.7517730496454 398.02194762080416 L 288.29787234042556 394.05201032829217 L 291.8439716312057 397.02600516414606 L 295.3900709219858 391.064182958318 L 298.93617021276594 395.53209147915896 L 302.4822695035461 386.5824419033567 L 306.02836879432624 393.2912209516783 L 309.57446808510633 379.8598303209148 L 313.1205673758865 389.92991516045737 L 316.66666666666663 394.9649575802287 L 320.2127659574468 397.4824787901143 L 323.7588652482269 398.74123939505716 L 327.3049645390071 396.20988565105125 L 330.8510638297872 398.10494282552565 L 334.39716312056737 394.30099594245667 L 337.9432624113475 397.15049797122833 L 341.48936170212767 398.57524898561417 L 345.0354609929078 395.71191442272226 L 348.58156028368796 397.8559572113611 L 352.1276595744681 393.5540390999631 L 355.6737588652482 396.77701954998156 L 359.21985815602835 390.31722611582444 L 362.7659574468085 395.1586130579122 L 366.31205673758865 397.5793065289561 L 369.85815602836874 392.7240870527481 L 373.4042553191489 396.362043526374 L 376.95035460992904 389.07229804500184 L 380.4964539007092 394.5361490225009 L 384.04255319148933 383.5946145333825 L 387.5886524822695 391.79730726669123 L 391.13475177304963 375.3780892659535 L 394.6808510638298 387.6890446329768 L 398.2269503546099 393.8445223164884 L 401.7730496453901 381.5197344153449 L 405.3191489361702 390.75986720767247 L 408.8652482269503 395.3799336038362 L 412.41134751773046 397.6899668019181 L 415.9574468085106 393.05606787163407 L 419.50354609929076 396.52803393581706 L 423.0496453900709 389.5702692733309 L 426.59574468085106 394.7851346366654 L 430.1418439716312 384.3415713758761 L 433.68794326241135 392.170785687938 L 437.2340425531915 396.08539284396903 L 440.7801418439716 388.2423459977868 L 444.32624113475174 394.12117299889337 L 447.8723404255319 382.34968646255993 L 451.41843971631204 391.17484323127997 L 454.9645390070922 395.58742161564 L 458.51063829787233 386.7484323127997 L 462.0567375886525 393.3742161563998 L 465.60283687943263 380.1088159350793 L 469.1489361702127 390.05440796753965 L 472.69503546099287 370.1493913684987 L 476.241134751773 385.0746956842494 L 479.78723404255317 355.21025451862783 L 483.3333333333333 377.6051272593139 L 486.87943262411346 332.80154924382146 L 490.4255319148936 366.4007746219107 L 493.97163120567376 299.18849133161194 L 497.5177304964539 349.59424566580594 L 501.063829787234 374.79712283290297 L 504.60992907801415 387.3985614164515 L 508.1560283687943 362.18185171523425 L 511.70212765957444 381.0909258576171 L 515.2482269503546 343.2589450387311 L 518.7943262411347 371.62947251936555 L 522.3404255319149 314.8745850239764 L 525.886524822695 357.4372925119882 L 529.4326241134752 272.29804500184434 L 532.9787234042553 336.1490225009222 L 536.5248226950355 368.07451125046106 L 540.0709219858156 384.03725562523056 L 543.6170212765958 392.01862781261525 L 547.1631205673759 376.04205090372557 L 550.7092198581561 388.0210254518628 L 554.2553191489362 394.0105127259314 L 557.8014184397164 382.01770564367393 L 561.3475177304964 391.00885282183697 L 564.8936170212766 395.5044264109185 L 568.4397163120567 386.4994466986352 L 571.9858156028369 393.2497233493176 L 575.531914893617 396.6248616746588 L 579.0780141843971 398.3124308373294 L 582.6241134751773 399.1562154186647 L 586.1702127659574 397.45481372187385 L 589.7163120567375 398.7274068609369 L 593.2624113475176 399.36370343046843 L 596.8085106382978 399.68185171523425 L 600.3546099290779 399.03172261158244 L 603.9007092198581 399.51586130579125 L 607.4468085106382 398.5337513832534 L 610.9929078014184 399.2668756916267 L 614.5390070921985 397.78679454075984 L 618.0851063829787 398.8933972703799 L 621.6312056737588 399.44669863519 L 625.177304964539 399.72334931759497 L 628.7234042553191 399.8616746587975 L 632.2695035460993 399.93083732939874 L 635.8156028368794 399.778679454076 L 639.3617021276596 399.889339727038 L 642.9078014184397 399.944669863519 L 646.4539007092199 399.9723349317595 L 650 399.98616746587976" /><text  class="poloto_text poloto_legend_text" alignment-baseline="middle" text-anchor="start" font-size="large" x="675" y="200" >c(1002)</text><line  class="poloto_line poloto_legend_icon poloto2stroke poloto2legend" stroke="black" x1="680" x2="730" y1="181.25" y2="181.25" /><path  class="poloto_line poloto2stroke" fill="none" stroke="black" d=" M 150 393.0699004057543 L 153.54609929078015 379.19586868314275 L 157.0921985815603 389.5979343415714 L 160.63829787234042 394.7989671707857 L 164.18439716312056 397.39948358539283 L 167.7304964539007 398.69974179269644 L 171.27659574468086 399.3498708963482 L 174.82269503546098 398.0357801549244 L 178.36879432624113 399.0178900774622 L 181.91489361702128 397.0398376982663 L 185.46099290780143 398.51991884913315 L 189.00709219858157 395.5459240132792 L 192.5531914893617 397.7729620066396 L 196.09929078014184 393.3050534857986 L 199.645390070922 396.6525267428993 L 203.1914893617021 398.32626337144967 L 206.73758865248226 394.9649575802287 L 210.2836879432624 397.4824787901143 L 213.82978723404256 398.74123939505716 L 217.3758865248227 396.20988565105125 L 220.92198581560285 398.10494282552565 L 224.46808510638297 394.30099594245667 L 228.01418439716312 397.15049797122833 L 231.56028368794324 398.57524898561417 L 235.1063829787234 395.71191442272226 L 238.65248226950354 397.8559572113611 L 242.19858156028369 393.5540390999631 L 245.74468085106383 396.77701954998156 L 249.29078014184398 390.31722611582444 L 252.8368794326241 395.1586130579122 L 256.3829787234042 397.5793065289561 L 259.92907801418437 392.7240870527481 L 263.4751773049645 396.362043526374 L 267.02127659574467 389.07229804500184 L 270.5673758865248 394.5361490225009 L 274.11347517730496 383.5946145333825 L 277.6595744680851 391.79730726669123 L 281.20567375886526 375.3780892659535 L 284.7517730496454 387.6890446329768 L 288.29787234042556 393.8445223164884 L 291.8439716312057 381.5197344153449 L 295.3900709219858 390.75986720767247 L 298.93617021276594 395.3799336038362 L 302.4822695035461 397.6899668019181 L 306.02836879432624 393.05606787163407 L 309.57446808510633 396.52803393581706 L 313.1205673758865 389.5702692733309 L 316.66666666666663 394.7851346366654 L 320.2127659574468 384.3415713758761 L 323.7588652482269 392.170785687938 L 327.3049645390071 396.08539284396903 L 330.8510638297872 388.2423459977868 L 334.39716312056737 394.12117299889337 L 337.9432624113475 382.34968646255993 L 341.48936170212767 391.17484323127997 L 345.0354609929078 395.58742161564 L 348.58156028368796 386.7484323127997 L 352.1276595744681 393.3742161563998 L 355.6737588652482 380.1088159350793 L 359.21985815602835 390.05440796753965 L 362.7659574468085 370.1493913684987 L 366.31205673758865 385.0746956842494 L 369.85815602836874 355.21025451862783 L 373.4042553191489 377.6051272593139 L 376.95035460992904 332.80154924382146 L 380.4964539007092 366.4007746219107 L 384.04255319148933 299.18849133161194 L 387.5886524822695 349.59424566580594 L 391.13475177304963 374.79712283290297 L 394.6808510638298 387.3985614164515 L 398.2269503546099 362.18185171523425 L 401.7730496453901 381.0909258576171 L 405.3191489361702 343.2589450387311 L 408.8652482269503 371.62947251936555 L 412.41134751773046 314.8745850239764 L 415.9574468085106 357.4372925119882 L 419.50354609929076 272.29804500184434 L 423.0496453900709 336.1490225009222 L 426.59574468085106 368.07451125046106 L 430.1418439716312 384.03725562523056 L 433.68794326241135 392.01862781261525 L 437.2340425531915 376.04205090372557 L 440.7801418439716 388.0210254518628 L 444.32624113475174 394.0105127259314 L 447.8723404255319 382.01770564367393 L 451.41843971631204 391.00885282183697 L 454.9645390070922 395.5044264109185 L 458.51063829787233 386.4994466986352 L 462.0567375886525 393.2497233493176 L 465.60283687943263 396.6248616746588 L 469.1489361702127 398.3124308373294 L 472.69503546099287 399.1562154186647 L 476.241134751773 397.45481372187385 L 479.78723404255317 398.7274068609369 L 483.3333333333333 399.36370343046843 L 486.87943262411346 399.68185171523425 L 490.4255319148936 399.03172261158244 L 493.97163120567376 399.51586130579125 L 497.5177304964539 398.5337513832534 L 501.063829787234 399.2668756916267 L 504.60992907801415 397.78679454075984 L 508.1560283687943 398.8933972703799 L 511.70212765957444 399.44669863519 L 515.2482269503546 399.72334931759497 L 518.7943262411347 399.8616746587975 L 522.3404255319149 399.93083732939874 L 525.886524822695 399.778679454076 L 529.4326241134752 399.889339727038 L 532.9787234042553 399.944669863519 L 536.5248226950355 399.9723349317595 L 540.0709219858156 399.98616746587976" /><text  class="poloto_text poloto_legend_text" alignment-baseline="middle" text-anchor="start" font-size="large" x="675" y="250" >c(1003)</text><line  class="poloto_line poloto_legend_icon poloto3stroke poloto3legend" stroke="black" x1="680" x2="730" y1="231.25" y2="231.25" /><path  class="poloto_line poloto3stroke" fill="none" stroke="black" d=" M 150 358.364072298045 L 153.54609929078015 379.1820361490225 L 157.0921985815603 337.5322759129472 L 160.63829787234042 368.76613795647364 L 164.18439716312056 384.3830689782368 L 167.7304964539007 353.1353744005902 L 171.27659574468086 376.5676872002951 L 174.82269503546098 388.2838436001475 L 178.36879432624113 364.8376982663224 L 181.91489361702128 382.4188491331612 L 185.46099290780143 347.2427148653633 L 189.00709219858157 373.6213574326817 L 192.5531914893617 320.8502397639247 L 196.09929078014184 360.42511988196236 L 199.645390070922 281.2615271117669 L 203.1914893617021 340.63076355588345 L 206.73758865248226 370.3153817779417 L 210.2836879432624 385.1576908889709 L 213.82978723404256 355.45924013279233 L 217.3758865248227 377.72962006639614 L 220.92198581560285 388.86481003319807 L 224.46808510638297 366.580597565474 L 228.01418439716312 383.290298782737 L 231.56028368794324 391.6451493913685 L 235.1063829787234 395.82257469568424 L 238.65248226950354 397.9112873478421 L 242.19858156028369 393.7200295094061 L 245.74468085106383 396.86001475470306 L 249.29078014184398 390.56621172998894 L 252.8368794326241 395.28310586499447 L 256.3829787234042 385.83548506086316 L 259.92907801418437 392.91774253043155 L 263.4751773049645 396.4588712652158 L 267.02127659574467 398.2294356326079 L 270.5673758865248 399.11471781630394 L 274.11347517730496 399.55735890815197 L 277.6595744680851 399.778679454076 L 281.20567375886526 399.889339727038 L 284.7517730496454 399.944669863519 L 288.29787234042556 399.9723349317595 L 291.8439716312057 399.98616746587976" /><text  class="poloto_text poloto_legend_text" alignment-baseline="middle" text-anchor="start" font-size="large" x="675" y="300" >c(1004)</text><line  class="poloto_line poloto_legend_icon poloto4stroke poloto4legend" stroke="black" x1="680" x2="730" y1="281.25" y2="281.25" /><path  class="poloto_line poloto4stroke" fill="none" stroke="black" d=" M 150 393.05606787163407 L 153.54609929078015 396.52803393581706 L 157.0921985815603 389.5702692733309 L 160.63829787234042 394.7851346366654 L 164.18439716312056 384.3415713758761 L 167.7304964539007 392.170785687938 L 171.27659574468086 396.08539284396903 L 174.82269503546098 388.2423459977868 L 178.36879432624113 394.12117299889337 L 181.91489361702128 382.34968646255993 L 185.46099290780143 391.17484323127997 L 189.00709219858157 395.58742161564 L 192.5531914893617 386.7484323127997 L 196.09929078014184 393.3742161563998 L 199.645390070922 380.1088159350793 L 203.1914893617021 390.05440796753965 L 206.73758865248226 370.1493913684987 L 210.2836879432624 385.0746956842494 L 213.82978723404256 355.21025451862783 L 217.3758865248227 377.6051272593139 L 220.92198581560285 332.80154924382146 L 224.46808510638297 366.4007746219107 L 228.01418439716312 299.18849133161194 L 231.56028368794324 349.59424566580594 L 235.1063829787234 374.79712283290297 L 238.65248226950354 387.3985614164515 L 242.19858156028369 362.18185171523425 L 245.74468085106383 381.0909258576171 L 249.29078014184398 343.2589450387311 L 252.8368794326241 371.62947251936555 L 256.3829787234042 314.8745850239764 L 259.92907801418437 357.4372925119882 L 263.4751773049645 272.29804500184434 L 267.02127659574467 336.1490225009222 L 270.5673758865248 368.07451125046106 L 274.11347517730496 384.03725562523056 L 277.6595744680851 392.01862781261525 L 281.20567375886526 376.04205090372557 L 284.7517730496454 388.0210254518628 L 288.29787234042556 394.0105127259314 L 291.8439716312057 382.01770564367393 L 295.3900709219858 391.00885282183697 L 298.93617021276594 395.5044264109185 L 302.4822695035461 386.4994466986352 L 306.02836879432624 393.2497233493176 L 309.57446808510633 396.6248616746588 L 313.1205673758865 398.3124308373294 L 316.66666666666663 399.1562154186647 L 320.2127659574468 397.45481372187385 L 323.7588652482269 398.7274068609369 L 327.3049645390071 399.36370343046843 L 330.8510638297872 399.68185171523425 L 334.39716312056737 399.03172261158244 L 337.9432624113475 399.51586130579125 L 341.48936170212767 398.5337513832534 L 345.0354609929078 399.2668756916267 L 348.58156028368796 397.78679454075984 L 352.1276595744681 398.8933972703799 L 355.6737588652482 399.44669863519 L 359.21985815602835 399.72334931759497 L 362.7659574468085 399.8616746587975 L 366.31205673758865 399.93083732939874 L 369.85815602836874 399.778679454076 L 373.4042553191489 399.889339727038 L 376.95035460992904 399.944669863519 L 380.4964539007092 399.9723349317595 L 384.04255319148933 399.98616746587976" /><text  class="poloto_text poloto_legend_text" alignment-baseline="middle" text-anchor="start" font-size="large" x="675" y="350" >c(1005)</text><line  class="poloto_line poloto_legend_icon poloto5stroke poloto5legend" stroke="black" x1="680" x2="730" y1="331.25" y2="331.25" /><path  class="poloto_line poloto5stroke" fill="none" stroke="black" d=" M 150 358.2810770933235 L 153.54609929078015 379.14053854666173 L 157.0921985815603 389.5702692733309 L 160.63829787234042 394.7851346366654 L 164.18439716312056 384.3415713758761 L 167.7304964539007 392.170785687938 L 171.27659574468086 396.08539284396903 L 174.82269503546098 388.2423459977868 L 178.36879432624113 394.12117299889337 L 181.91489361702128 382.34968646255993 L 185.46099290780143 391.17484323127997 L 189.00709219858157 395.58742161564 L 192.5531914893617 386.7484323127997 L 196.09929078014184 393.3742161563998 L 199.645390070922 380.1088159350793 L 203.1914893617021 390.05440796753965 L 206.73758865248226 370.1493913684987 L 210.2836879432624 385.0746956842494 L 213.82978723404256 355.21025451862783 L 217.3758865248227 377.6051272593139 L 220.92198581560285 332.80154924382146 L 224.46808510638297 366.4007746219107 L 228.01418439716312 299.18849133161194 L 231.56028368794324 349.59424566580594 L 235.1063829787234 374.79712283290297 L 238.65248226950354 387.3985614164515 L 242.19858156028369 362.18185171523425 L 245.74468085106383 381.0909258576171 L 249.29078014184398 343.2589450387311 L 252.8368794326241 371.62947251936555 L 256.3829787234042 314.8745850239764 L 259.92907801418437 357.4372925119882 L 263.4751773049645 272.29804500184434 L 267.02127659574467 336.1490225009222 L 270.5673758865248 368.07451125046106 L 274.11347517730496 384.03725562523056 L 277.6595744680851 392.01862781261525 L 281.20567375886526 376.04205090372557 L 284.7517730496454 388.0210254518628 L 288.29787234042556 394.0105127259314 L 291.8439716312057 382.01770564367393 L 295.3900709219858 391.00885282183697 L 298.93617021276594 395.5044264109185 L 302.4822695035461 386.4994466986352 L 306.02836879432624 393.2497233493176 L 309.57446808510633 396.6248616746588 L 313.1205673758865 398.3124308373294 L 316.66666666666663 399.1562154186647 L 320.2127659574468 397.45481372187385 L 323.7588652482269 398.7274068609369 L 327.3049645390071 399.36370343046843 L 330.8510638297872 399.68185171523425 L 334.39716312056737 399.03172261158244 L 337.9432624113475 399.51586130579125 L 341.48936170212767 398.5337513832534 L 345.0354609929078 399.2668756916267 L 348.58156028368796 397.78679454075984 L 352.1276595744681 398.8933972703799 L 355.6737588652482 399.44669863519 L 359.21985815602835 399.72334931759497 L 362.7659574468085 399.8616746587975 L 366.31205673758865 399.93083732939874 L 369.85815602836874 399.778679454076 L 373.4042553191489 399.889339727038 L 376.95035460992904 399.944669863519 L 380.4964539007092 399.9723349317595 L 384.04255319148933 399.98616746587976" /><text  class="poloto_labels poloto_text poloto_title" alignment-baseline="start" text-anchor="middle" font-size="x-large" x="400" y="37.5" > collatz</text><text  class="poloto_labels poloto_text poloto_xname" alignment-baseline="start" text-anchor="middle" font-size="x-large" x="400" y="481.25" > x</text><text  class="poloto_labels poloto_text poloto_yname" alignment-baseline="start" text-anchor="middle" font-size="x-large" transform="rotate(-90,37.5,250)" x="37.5" y="250" > y</text><line  class="poloto_axis_lines" stroke="black" x1="150" x2="150" y1="400" y2="405" /><text  class="poloto_tick_labels poloto_text" alignment-baseline="start" text-anchor="middle" x="150" y="430" > 0</text><line  class="poloto_axis_lines" stroke="black" x1="220.92198581560285" x2="220.92198581560285" y1="400" y2="405" /><text  class="poloto_tick_labels poloto_text" alignment-baseline="start" text-anchor="middle" x="220.92198581560285" y="430" > 20</text><line  class="poloto_axis_lines" stroke="black" x1="291.8439716312057" x2="291.8439716312057" y1="400" y2="405" /><text  class="poloto_tick_labels poloto_text" alignment-baseline="start" text-anchor="middle" x="291.8439716312057" y="430" > 40</text><line  class="poloto_axis_lines" stroke="black" x1="362.7659574468085" x2="362.7659574468085" y1="400" y2="405" /><text  class="poloto_tick_labels poloto_text" alignment-baseline="start" text-anchor="middle" x="362.7659574468085" y="430" > 60</text><line  class="poloto_axis_lines" stroke="black" x1="433.68794326241135" x2="433.68794326241135" y1="400" y2="405" /><text  class="poloto_tick_labels poloto_text" alignment-baseline="start" text-anchor="middle" x="433.68794326241135" y="430" > 80</text><line  class="poloto_axis_lines" stroke="black" x1="504.60992907801415" x2="504.60992907801415" y1="400" y2="405" /><text  class="poloto_tick_labels poloto_text" alignment-baseline="start" text-anchor="middle" x="504.60992907801415" y="430" > 100</text><line  class="poloto_axis_lines" stroke="black" x1="575.531914893617" x2="575.531914893617" y1="400" y2="405" /><text  class="poloto_tick_labels poloto_text" alignment-baseline="start" text-anchor="middle" x="575.531914893617" y="430" > 120</text><line  class="poloto_axis_lines" stroke="black" x1="646.4539007092199" x2="646.4539007092199" y1="400" y2="405" /><text  class="poloto_tick_labels poloto_text" alignment-baseline="start" text-anchor="middle" x="646.4539007092199" y="430" > 140</text><line  class="poloto_axis_lines" stroke="black" x1="150" x2="144" y1="400" y2="400" /><text  class="poloto_tick_labels poloto_text" alignment-baseline="middle" text-anchor="end" x="135" y="400" > 0</text><line  class="poloto_axis_lines" stroke="black" x1="150" x2="144" y1="330.83732939874585" y2="330.83732939874585" /><text  class="poloto_tick_labels poloto_text" alignment-baseline="middle" text-anchor="end" x="135" y="330.83732939874585" > 5000</text><line  class="poloto_axis_lines" stroke="black" x1="150" x2="144" y1="261.6746587974917" y2="261.6746587974917" /><text  class="poloto_tick_labels poloto_text" alignment-baseline="middle" text-anchor="end" x="135" y="261.6746587974917" > 10000</text><line  class="poloto_axis_lines" stroke="black" x1="150" x2="144" y1="192.51198819623755" y2="192.51198819623755" /><text  class="poloto_tick_labels poloto_text" alignment-baseline="middle" text-anchor="end" x="135" y="192.51198819623755" > 15000</text><line  class="poloto_axis_lines" stroke="black" x1="150" x2="144" y1="123.3493175949834" y2="123.3493175949834" /><text  class="poloto_tick_labels poloto_text" alignment-baseline="middle" text-anchor="end" x="135" y="123.3493175949834" > 20000</text><path  stroke="black" fill="none" class="poloto_axis_lines" d=" M 150 400 L 650 400" /><path  stroke="black" fill="none" class="poloto_axis_lines" d=" M 150 400 L 150 100" /></svg>
