<svg class="poloto" height="500" viewBox="0 0 800 500" width="800" xmlns="http://www.w3.org/2000/svg">
<rect class="poloto_background" fill="white" height="500" width="800" x="0" y="0"/>
<style>
.poloto {
font-family: "Arial";
stroke-width:2;
}
.poloto_text{fill: var(--poloto_fg_color,black);  }
.poloto_axis_lines{stroke: var(--poloto_fg_color,black);stoke-width:3;fill:none}
.poloto_background{fill: var(--poloto_bg_color,aliceblue); }
.poloto0stroke{stroke:  var(--poloto_color0,blue); }
.poloto1stroke{stroke:  var(--poloto_color1,red); }
.poloto2stroke{stroke:  var(--poloto_color2,green); }
.poloto3stroke{stroke:  var(--poloto_color3,gold); }
.poloto4stroke{stroke:  var(--poloto_color4,aqua); }
.poloto5stroke{stroke:  var(--poloto_color5,brown); }
.poloto6stroke{stroke:  var(--poloto_color6,lime); }
.poloto7stroke{stroke:  var(--poloto_color7,chocolate); }
.poloto0fill{fill:var(--poloto_color0,blue);}
.poloto1fill{fill:var(--poloto_color1,red);}
.poloto2fill{fill:var(--poloto_color2,green);}
.poloto3fill{fill:var(--poloto_color3,gold);}
.poloto4fill{fill:var(--poloto_color4,aqua);}
.poloto5fill{fill:var(--poloto_color5,brown);}
.poloto6fill{fill:var(--poloto_color6,lime);}
.poloto7fill{fill:var(--poloto_color7,chocolate);}
</style>
<line class="poloto_axis_lines" stroke="black" x1="162.19513" x2="162.19513" y1="400" y2="405"/>
<text alignment-baseline="start" class="poloto_text" text-anchor="middle" x="162.19513" y="440">
1980
</text>
<line class="poloto_axis_lines" stroke="black" x1="284.14633" x2="284.14633" y1="400" y2="405"/>
<text alignment-baseline="start" class="poloto_text" text-anchor="middle" x="284.14633" y="440">
1990
</text>
<line class="poloto_axis_lines" stroke="black" x1="406.09756" x2="406.09756" y1="400" y2="405"/>
<text alignment-baseline="start" class="poloto_text" text-anchor="middle" x="406.09756" y="440">
2000
</text>
<line class="poloto_axis_lines" stroke="black" x1="528.04877" x2="528.04877" y1="400" y2="405"/>
<text alignment-baseline="start" class="poloto_text" text-anchor="middle" x="528.04877" y="440">
2010
</text>
<line class="poloto_axis_lines" stroke="black" x1="650" x2="650" y1="400" y2="405"/>
<text alignment-baseline="start" class="poloto_text" text-anchor="middle" x="650" y="440">
2020
</text>
<line class="poloto_axis_lines" stroke="black" x1="150" x2="144" y1="370" y2="370"/>
<text alignment-baseline="middle" class="poloto_text" text-anchor="end" x="120" y="370">
4
</text>
<line class="poloto_axis_lines" stroke="black" x1="150" x2="144" y1="310" y2="310"/>
<text alignment-baseline="middle" class="poloto_text" text-anchor="end" x="120" y="310">
6
</text>
<line class="poloto_axis_lines" stroke="black" x1="150" x2="144" y1="250" y2="250"/>
<text alignment-baseline="middle" class="poloto_text" text-anchor="end" x="120" y="250">
8
</text>
<line class="poloto_axis_lines" stroke="black" x1="150" x2="144" y1="190" y2="190"/>
<text alignment-baseline="middle" class="poloto_text" text-anchor="end" x="120" y="190">
10
</text>
<line class="poloto_axis_lines" stroke="black" x1="150" x2="144" y1="130" y2="130"/>
<text alignment-baseline="middle" class="poloto_text" text-anchor="end" x="120" y="130">
12
</text>
<text alignment-baseline="middle" class="poloto_text" font-size="large" text-anchor="start" x="675" y="100">
cows
</text>
<rect class="poloto0fill" height="7.5" rx="5" ry="5" width="50" x="680" y="76.25"/>
<path class="poloto0fill" d="M150,400 L150,190 L271.95123,130 L418.29266,100 L528.04877,370 L576.8292,400 L650,310 L650,400 z"/>
<text alignment-baseline="start" class="poloto_text" font-size="x-large" text-anchor="middle" x="400" y="37.5">
Cows Per Year
</text>
<text alignment-baseline="start" class="poloto_text" font-size="large" text-anchor="middle" x="400" y="481.25">
Year
</text>
<text alignment-baseline="start" class="poloto_text" font-size="large" text-anchor="middle" transform="rotate(-90,37.5,250)" x="37.5" y="250">
Cow
</text>
<path class="poloto_axis_lines" d="M150,100 L150,400 L650,400" stroke="black"/>
</svg>