<svg class = "poloto" height = "500" width = "800" viewBox = "0 0 800 500" xmlns = "http://www.w3.org/2000/svg">

        <defs>
            <pattern id="pattern" patternUnits="userSpaceOnUse" width="10" height="10">
                <circle cx="5" cy="5" r="5" fill="black" fill-opacity="0.2"/>
            </pattern>
            <pattern id="pattern2" patternUnits="userSpaceOnUse" width="10" height="10">
                <line x1="0" y1="5" x2="10" y2="5" stroke="red" stroke-width="5"/>
                </pattern> 
        </defs>
        <style>
        .poloto_background.poloto_background{
            fill: url(#pattern);
        }
        .poloto0stroke.poloto0stroke{
            stroke-dasharray:10 2 2;
        }
        .poloto1fill.poloto1fill{
            fill: url(#pattern2);
        }
        </style>
        	<rect class = "poloto_background" fill = "white" x = "0" y = "0" width = "800" height = "500"/>
	<style>
.poloto {
font-family: "Arial";
stroke-width:2;
}
.poloto_text{fill: var(--poloto_fg_color,black);  }
.poloto_axis_lines{stroke: var(--poloto_fg_color,black);stoke-width:3;fill:none}
.poloto_background{fill: var(--poloto_bg_color,aliceblue); }
.poloto0stroke{stroke:  var(--poloto_color0,blue); }
.poloto1stroke{stroke:  var(--poloto_color1,red); }
.poloto2stroke{stroke:  var(--poloto_color2,green); }
.poloto3stroke{stroke:  var(--poloto_color3,gold); }
.poloto4stroke{stroke:  var(--poloto_color4,aqua); }
.poloto5stroke{stroke:  var(--poloto_color5,brown); }
.poloto6stroke{stroke:  var(--poloto_color6,lime); }
.poloto7stroke{stroke:  var(--poloto_color7,chocolate); }
.poloto0fill{fill:var(--poloto_color0,blue);}
.poloto1fill{fill:var(--poloto_color1,red);}
.poloto2fill{fill:var(--poloto_color2,green);}
.poloto3fill{fill:var(--poloto_color3,gold);}
.poloto4fill{fill:var(--poloto_color4,aqua);}
.poloto5fill{fill:var(--poloto_color5,brown);}
.poloto6fill{fill:var(--poloto_color6,lime);}
.poloto7fill{fill:var(--poloto_color7,chocolate);}	</style>
	<line x1 = "150" x2 = "150" y1 = "400" y2 = "405" stroke = "black" class = "poloto_axis_lines"/>
	<text x = "150" y = "440" alignment-baseline = "start" text-anchor = "middle" class = "poloto_text">
0
	</text>
	<line x1 = "252.04082" x2 = "252.04082" y1 = "400" y2 = "405" stroke = "black" class = "poloto_axis_lines"/>
	<text x = "252.04082" y = "440" alignment-baseline = "start" text-anchor = "middle" class = "poloto_text">
2
	</text>
	<line x1 = "354.08163" x2 = "354.08163" y1 = "400" y2 = "405" stroke = "black" class = "poloto_axis_lines"/>
	<text x = "354.08163" y = "440" alignment-baseline = "start" text-anchor = "middle" class = "poloto_text">
4
	</text>
	<line x1 = "456.12244" x2 = "456.12244" y1 = "400" y2 = "405" stroke = "black" class = "poloto_axis_lines"/>
	<text x = "456.12244" y = "440" alignment-baseline = "start" text-anchor = "middle" class = "poloto_text">
6
	</text>
	<line x1 = "558.16327" x2 = "558.16327" y1 = "400" y2 = "405" stroke = "black" class = "poloto_axis_lines"/>
	<text x = "558.16327" y = "440" alignment-baseline = "start" text-anchor = "middle" class = "poloto_text">
8
	</text>
	<line x1 = "150" x2 = "144" y1 = "375.08792" y2 = "375.08792" stroke = "black" class = "poloto_axis_lines"/>
	<text x = "120" y = "375.08792" alignment-baseline = "middle" text-anchor = "end" class = "poloto_text">
-10
	</text>
	<line x1 = "150" x2 = "144" y1 = "325.07196" y2 = "325.07196" stroke = "black" class = "poloto_axis_lines"/>
	<text x = "120" y = "325.07196" alignment-baseline = "middle" text-anchor = "end" class = "poloto_text">
-8
	</text>
	<line x1 = "150" x2 = "144" y1 = "275.05597" y2 = "275.05597" stroke = "black" class = "poloto_axis_lines"/>
	<text x = "120" y = "275.05597" alignment-baseline = "middle" text-anchor = "end" class = "poloto_text">
-6
	</text>
	<line x1 = "150" x2 = "144" y1 = "225.03998" y2 = "225.03998" stroke = "black" class = "poloto_axis_lines"/>
	<text x = "120" y = "225.03998" alignment-baseline = "middle" text-anchor = "end" class = "poloto_text">
-4
	</text>
	<line x1 = "150" x2 = "144" y1 = "175.02399" y2 = "175.02399" stroke = "black" class = "poloto_axis_lines"/>
	<text x = "120" y = "175.02399" alignment-baseline = "middle" text-anchor = "end" class = "poloto_text">
-2
	</text>
	<line x1 = "150" x2 = "144" y1 = "125.007996" y2 = "125.007996" stroke = "black" class = "poloto_axis_lines"/>
	<text x = "120" y = "125.007996" alignment-baseline = "middle" text-anchor = "end" class = "poloto_text">
0
	</text>
	<text x = "675" y = "100" alignment-baseline = "middle" text-anchor = "start" font-size = "large" class = "poloto_text">
cos	</text>
	<line x1 = "680" y1 = "81.25" x2 = "730" y2 = "81.25" class = "poloto0stroke"/>
	<polyline class = "poloto0stroke" fill = "none" stroke = "black" points="150,100 160.20409,100.498505 170.40816,101.97412 180.61224,104.36801 190.81633,107.58475 201.02042,111.496124 211.22449,115.94614 221.42857,120.75748 231.63266,125.73822 241.83673,130.68988 252.04082,135.41501 262.2449,139.72522 272.44897,143.44873 282.65308,146.43706 292.85715,148.57109 303.06122,149.76572 313.26532,149.97334 323.4694,149.18567 333.67346,147.43411 343.87756,144.78851 354.08163,141.35431 364.2857,137.26843 374.4898,132.69379 384.69388,127.81271 394.89795,122.819824 405.10205,117.914185 415.30612,113.29135 425.51022,109.13559 435.7143,105.61264 445.91837,102.862946 456.12244,100.99603 466.32654,100.08649 476.5306,100.17044 486.7347,101.2446 496.93878,103.26611 507.14285,106.15442 517.3469,109.79437 527.551,114.0408 537.7551,118.72449 547.95917,123.65866 558.16327,128.64667 568.3673,133.48956 578.5714,137.99435 588.7755,141.98141 598.9796,145.29181 609.1837,147.79352 619.38776,149.38689 629.5918,150.0083 639.7959,149.63306 650,148.2761 "/>
	<text x = "675" y = "150" alignment-baseline = "middle" text-anchor = "start" font-size = "large" class = "poloto_text">
sin-10	</text>
	<rect class = "poloto1fill" x = "680" y = "126.25" width = "50" height = "7.5" rx = "5" ry = "5"/>
	<rect x = "150" y = "375.08792" width = "27.612244" height = "24.912079" class = "poloto1fill"/>
	<rect x = "180.61224" y = "360.96738" width = "27.612244" height = "39.032623" class = "poloto1fill"/>
	<rect x = "211.22449" y = "351.77948" width = "27.612244" height = "48.22052" class = "poloto1fill"/>
	<rect x = "241.83673" y = "350.73395" width = "27.612244" height = "49.266052" class = "poloto1fill"/>
	<rect x = "272.44897" y = "358.19592" width = "27.612244" height = "41.804077" class = "poloto1fill"/>
	<rect x = "303.06122" y = "371.5588" width = "27.612244" height = "28.441193" class = "poloto1fill"/>
	<rect x = "333.67346" y = "386.15448" width = "27.612244" height = "13.84552" class = "poloto1fill"/>
	<rect x = "364.2857" y = "396.88428" width = "27.612244" height = "3.1157227" class = "poloto1fill"/>
	<rect x = "394.89795" y = "400" width = "27.612274" height = "0" class = "poloto1fill"/>
	<rect x = "425.51022" y = "394.4132" width = "27.612213" height = "5.586792" class = "poloto1fill"/>
	<rect x = "456.12244" y = "382.07553" width = "27.612274" height = "17.924469" class = "poloto1fill"/>
	<rect x = "486.7347" y = "367.2969" width = "27.612213" height = "32.703094" class = "poloto1fill"/>
	<rect x = "517.3469" y = "355.2399" width = "27.612244" height = "44.7601" class = "poloto1fill"/>
	<rect x = "547.95917" y = "350.11636" width = "27.612244" height = "49.883636" class = "poloto1fill"/>
	<rect x = "578.5714" y = "353.71613" width = "27.612305" height = "46.283875" class = "poloto1fill"/>
	<rect x = "609.1837" y = "364.78168" width = "27.612183" height = "35.218323" class = "poloto1fill"/>
	<text x = "400" y = "37.5" alignment-baseline = "start" text-anchor = "middle" font-size = "x-large" class = "poloto_text">
Demo: you can change the style of the svg file itself!	</text>
	<text x = "400" y = "481.25" alignment-baseline = "start" text-anchor = "middle" font-size = "large" class = "poloto_text">
x	</text>
	<text x = "37.5" y = "250" alignment-baseline = "start" text-anchor = "middle" transform = "rotate(-90,37.5,250)" font-size = "large" class = "poloto_text">
y	</text>
	<path stroke = "black" class = "poloto_axis_lines" d="M 150 100 L 150 400 L 650 400 "/>
</svg>
