<svg class="poloto" width="800" height="500" viewBox="0 0 800 500" xmlns="http://www.w3.org/2000/svg"><style>
.poloto {
    font-family: "Arial";
    stroke-width:2;
    }
    .poloto_text{fill: black;  }
    .poloto_axis_lines{stroke: black;stoke-width:3;fill:none}
    .poloto_background{fill: aliceblue; }
    .poloto0stroke{stroke:  purple; }
    .poloto1stroke{stroke:  purple; }
    .poloto2stroke{stroke:  purple; }
    .poloto3stroke{stroke:  purple; }
    .poloto4stroke{stroke:  purple; }
    .poloto5stroke{stroke:  purple; }
    .poloto6stroke{stroke:  purple; }
    .poloto7stroke{stroke:  purple; }
    .poloto0fill{fill:purple;}
    .poloto1fill{fill:purple;}
    .poloto2fill{fill:purple;}
    .poloto3fill{fill:purple;}
    .poloto4fill{fill:purple;}
    .poloto5fill{fill:purple;}
    .poloto6fill{fill:purple;}
    .poloto7fill{fill:purple;}
</style><rect class="poloto_background" fill="white" x="0" y="0" width="800" height="500"/><line class="poloto_axis_lines" stroke="black" x1="150" x2="150" y1="400" y2="405"/><text class="poloto_text" alignment-baseline="start" text-anchor="middle" x="150" y="430">1.0</text><line class="poloto_axis_lines" stroke="black" x1="275" x2="275" y1="400" y2="405"/><text class="poloto_text" alignment-baseline="start" text-anchor="middle" x="275" y="430">1.5</text><line class="poloto_axis_lines" stroke="black" x1="400" x2="400" y1="400" y2="405"/><text class="poloto_text" alignment-baseline="start" text-anchor="middle" x="400" y="430">2.0</text><line class="poloto_axis_lines" stroke="black" x1="525" x2="525" y1="400" y2="405"/><text class="poloto_text" alignment-baseline="start" text-anchor="middle" x="525" y="430">2.5</text><line class="poloto_axis_lines" stroke="black" x1="650" x2="650" y1="400" y2="405"/><text class="poloto_text" alignment-baseline="start" text-anchor="middle" x="650" y="430">3.0</text><line class="poloto_axis_lines" stroke="black" x1="150" x2="144" y1="400" y2="400"/><text class="poloto_text" alignment-baseline="middle" text-anchor="end" x="135" y="400">4.0</text><line class="poloto_axis_lines" stroke="black" x1="150" x2="144" y1="325" y2="325"/><text class="poloto_text" alignment-baseline="middle" text-anchor="end" x="135" y="325">4.5</text><line class="poloto_axis_lines" stroke="black" x1="150" x2="144" y1="250" y2="250"/><text class="poloto_text" alignment-baseline="middle" text-anchor="end" x="135" y="250">5.0</text><line class="poloto_axis_lines" stroke="black" x1="150" x2="144" y1="175" y2="175"/><text class="poloto_text" alignment-baseline="middle" text-anchor="end" x="135" y="175">5.5</text><line class="poloto_axis_lines" stroke="black" x1="150" x2="144" y1="100" y2="100"/><text class="poloto_text" alignment-baseline="middle" text-anchor="end" x="135" y="100">6.0</text><text class="poloto_text" alignment-baseline="middle" text-anchor="start" font-size="large" x="675" y="100">cow</text><line class="poloto0stroke" stroke="black" x1="680" x2="730" y1="81.25" y2="81.25"/><polyline class="poloto0stroke" fill="none" stroke="black" points="150,400 400,250 650,100 "/><text class="poloto_text" alignment-baseline="start" text-anchor="middle" font-size="x-large" x="400" y="37.5">cows per year</text><text class="poloto_text" alignment-baseline="start" text-anchor="middle" font-size="x-large" x="400" y="481.25">year</text><text class="poloto_text" alignment-baseline="start" text-anchor="middle" font-size="x-large" transform="rotate(-90,37.5,250)" x="37.5" y="250">cows</text><path stroke="black" fill="none" class="poloto_axis_lines" d=" M 150 100 L 150 400 L 650 400"/></svg>