<svg  width="800" class="poloto_background poloto" height="500" viewBox="0 0 800 500" xmlns="http://www.w3.org/2000/svg" > <style>.poloto{stroke-linecap:round;stroke-linejoin:round;font-family:'Tahoma',sans-serif;stroke-width:2;}.scatter{stroke-width:33}.poloto_text{fill:black;}.poloto_axis_lines{stroke:black;stroke-width:3;fill:none}.poloto_background{background-color:rgba(100,0,0,0.5)}.poloto0stroke{stroke:purple;}.poloto1stroke{stroke:green;}.poloto2stroke{stroke:purple;}.poloto3stroke{stroke:purple;}.poloto4stroke{stroke:purple;}.poloto5stroke{stroke:purple;}.poloto6stroke{stroke:purple;}.poloto7stroke{stroke:purple;}.poloto0fill{fill:purple;}.poloto1fill{fill:green;}.poloto2fill{fill:purple;}.poloto3fill{fill:purple;}.poloto4fill{fill:purple;}.poloto5fill{fill:purple;}.poloto6fill{fill:purple;}.poloto7fill{fill:purple;}</style><text  class="poloto_text" alignment-baseline="middle" text-anchor="start" font-size="large" x="675" y="100" >ints</text><line  class="scatter poloto0stroke poloto0legend" stroke="black" x1="685" x2="685" y1="81.25" y2="81.25" /><path  class="scatter poloto0stroke" d=" M 150 400 h 0 M 400 280 h 0 M 650 160 h 0" /><text  class="poloto_text" alignment-baseline="middle" text-anchor="start" font-size="large" x="675" y="150" >floats</text><line  class="poloto1stroke poloto1legend" stroke="black" x1="680" x2="730" y1="131.25" y2="131.25" /><path  class="poloto1stroke" fill="none" stroke="black" d=" M 150 340 L 400 220 L 650 100" /><text  class="poloto_text" alignment-baseline="start" text-anchor="middle" font-size="x-large" x="400" y="37.5" >cows per year</text><text  class="poloto_text" alignment-baseline="start" text-anchor="middle" font-size="x-large" x="400" y="481.25" >year</text><text  class="poloto_text" alignment-baseline="start" text-anchor="middle" font-size="x-large" transform="rotate(-90,37.5,250)" x="37.5" y="250" >cows</text><line  class="poloto_axis_lines" stroke="black" x1="150" x2="150" y1="400" y2="405" /><text  class="poloto_text" alignment-baseline="start" text-anchor="middle" x="150" y="430" > 1.0</text><line  class="poloto_axis_lines" stroke="black" x1="275" x2="275" y1="400" y2="405" /><text  class="poloto_text" alignment-baseline="start" text-anchor="middle" x="275" y="430" > 1.5</text><line  class="poloto_axis_lines" stroke="black" x1="400" x2="400" y1="400" y2="405" /><text  class="poloto_text" alignment-baseline="start" text-anchor="middle" x="400" y="430" > 2.0</text><line  class="poloto_axis_lines" stroke="black" x1="525" x2="525" y1="400" y2="405" /><text  class="poloto_text" alignment-baseline="start" text-anchor="middle" x="525" y="430" > 2.5</text><line  class="poloto_axis_lines" stroke="black" x1="650" x2="650" y1="400" y2="405" /><text  class="poloto_text" alignment-baseline="start" text-anchor="middle" x="650" y="430" > 3.0</text><line  class="poloto_axis_lines" stroke="black" x1="150" x2="144" y1="400" y2="400" /><text  class="poloto_text" alignment-baseline="middle" text-anchor="end" x="135" y="400" > 4.0</text><line  class="poloto_axis_lines" stroke="black" x1="150" x2="144" y1="340" y2="340" /><text  class="poloto_text" alignment-baseline="middle" text-anchor="end" x="135" y="340" > 4.5</text><line  class="poloto_axis_lines" stroke="black" x1="150" x2="144" y1="280" y2="280" /><text  class="poloto_text" alignment-baseline="middle" text-anchor="end" x="135" y="280" > 5.0</text><line  class="poloto_axis_lines" stroke="black" x1="150" x2="144" y1="220" y2="220" /><text  class="poloto_text" alignment-baseline="middle" text-anchor="end" x="135" y="220" > 5.5</text><line  class="poloto_axis_lines" stroke="black" x1="150" x2="144" y1="160" y2="160" /><text  class="poloto_text" alignment-baseline="middle" text-anchor="end" x="135" y="160" > 6.0</text><line  class="poloto_axis_lines" stroke="black" x1="150" x2="144" y1="100" y2="100" /><text  class="poloto_text" alignment-baseline="middle" text-anchor="end" x="135" y="100" > 6.5</text><path  stroke="black" fill="none" class="poloto_axis_lines" style="stroke-dasharray:6.25;stroke-dashoffset:0;" d=" M 150 400 L 650 400" /><path  stroke="black" fill="none" class="poloto_axis_lines" style="stroke-dasharray:6;stroke-dashoffset:-0;" d=" M 150 400 L 150 100" /></svg>