<svg class="poloto_background poloto" width="800" height="500" viewBox="0 0 800 500" xmlns="http://www.w3.org/2000/svg"><style>.poloto { stroke-linecap:round; stroke-linejoin:round; font-family: 'Tahoma', sans-serif; stroke-width:2; } .poloto_scatter{stroke-width:7} .poloto_text{fill: white;} .poloto_axis_lines{stroke: white;stroke-width:3;fill:none;stroke-dasharray:none} .poloto_background{background-color: #262626;} .poloto0stroke{stroke:  blue;} .poloto1stroke{stroke:  red;} .poloto2stroke{stroke:  green;} .poloto3stroke{stroke:  gold;} .poloto4stroke{stroke:  aqua;} .poloto5stroke{stroke:  lime;} .poloto6stroke{stroke:  orange;} .poloto7stroke{stroke:  chocolate;} .poloto0fill{fill:blue;} .poloto1fill{fill:red;} .poloto2fill{fill:green;} .poloto3fill{fill:gold;} .poloto4fill{fill:aqua;} .poloto5fill{fill:lime;} .poloto6fill{fill:orange;} .poloto7fill{fill:chocolate;}</style><text  class="poloto_legend_text poloto_text" alignment-baseline="middle" text-anchor="start" font-size="large" x="675" y="100" >test 1</text><line  class="poloto_legend_icon poloto0stroke poloto0legend" stroke="black" x1="680" x2="730" y1="81.25" y2="81.25" /><path  class="poloto0stroke" fill="none" stroke="black" d=" M 150 100 L 151.00200400801603 100.02999901903684 L 152.00400801603206 100.1199840769396 L 153.0060120240481 100.26991918088493 L 154.00801603206412 100.47974435883043 L 155.01002004008015 100.74937568350242 L 156.01202404809618 101.0787053059662 L 157.01402805611224 101.46760149876377 L 158.01603206412827 101.91590870860313 L 159.0180360721443 102.42344761857771 L 160.02004008016033 102.99001521989078 L 161.02204408817636 103.61538489305576 L 162.0240480961924 104.29930649854157 L 163.02605210420842 105.04150647682496 L 164.02805611222445 105.84168795781034 L 165.03006012024048 106.69953087957435 L 166.0320641282565 107.6146921163861 L 167.03406813627254 108.58680561595264 L 168.03607214428857 109.61548254583568 L 169.0380761523046 110.70031144897865 L 170.04008016032066 111.84085840828459 L 171.0420841683367 113.03666722017681 L 172.04408817635272 114.28725957707445 L 173.04609218436875 115.5921352587091 L 174.04809619238478 116.95077233220627 L 175.0501002004008 118.36262736085143 L 176.05210420841684 119.82713562145761 L 177.05410821643287 121.34371133024706 L 178.0561122244489 122.91174787715704 L 179.05811623246493 124.53061806847563 L 180.06012024048096 126.199674377711 L 181.06212424849699 127.91824920459328 L 182.06412825651302 129.6856551421056 L 183.06613226452907 131.50118525143813 L 184.0681362725451 133.3641133447539 L 185.07014028056113 135.2736942756543 L 186.07214428857716 137.22916423722762 L 187.0741482965932 139.22974106756192 L 188.07615230460922 141.27462456259906 L 189.07815631262525 143.36299679620572 L 190.08016032064128 145.49402244733312 L 191.0821643286573 147.66684913413403 L 192.08416833667334 149.8806077549044 L 193.08617234468937 152.13441283571228 L 194.0881763527054 154.4273628845757 L 195.09018036072143 156.75854075204742 L 196.09218436873746 159.12701399806235 L 197.0941883767535 161.53183526490133 L 198.09619238476955 163.9720426561215 L 199.09819639278558 166.446660121302 L 200.1002004008016 168.9546978464512 L 201.10220440881764 171.4951526499192 L 202.10420841683367 174.06700838365674 L 203.1062124248497 176.6692363396614 L 204.10821643286573 179.30079566144664 L 205.11022044088176 181.96063376037074 L 206.1122244488978 184.64768673665816 L 207.11422845691385 187.3608798049453 L 208.11623246492985 190.09912772418028 L 209.11823647294588 192.8613352317048 L 210.1202404809619 195.6463974813449 L 211.12224448897797 198.45320048533438 L 212.124248496994 201.28062155989514 L 213.12625250501003 204.12752977429582 L 214.12825651302606 206.99278640320892 L 215.1302605210421 209.87524538218582 L 216.13226452905812 212.77375376606716 L 217.13426853707415 215.6871521901457 L 218.1362725450902 218.61427533389656 L 219.1382765531062 221.55395238709002 L 220.14028056112227 224.5050075181 L 221.14228456913827 227.46626034422096 L 222.14428857715433 230.43652640380532 L 223.14629258517033 233.41461763003227 L 224.1482965931864 236.39934282611864 L 225.1503006012024 239.38950814178182 L 226.15230460921845 242.38391755076387 L 227.15430861723448 245.38137332922614 L 228.1563126252505 248.38067653482278 L 229.15831663326654 251.38062748626172 L 230.16032064128257 254.3800262431612 L 231.16232464929863 257.37767308600996 L 232.16432865731463 260.37236899603886 L 233.16633266533069 263.36291613481274 L 234.1683366733467 266.34811832334935 L 235.17034068136275 269.32678152057565 L 236.17234468937875 272.29771430092757 L 237.17434869739478 275.259728330905 L 238.1763527054108 278.21163884438886 L 239.17835671342687 281.152265116532 L 240.18036072144287 284.0804309360336 L 241.18236472945893 286.9949650756073 L 242.18436873747493 289.89470176045734 L 243.18637274549098 292.7784811345724 L 244.18837675350701 295.6451497246527 L 245.19038076152304 298.493560901484 L 246.19238476953907 301.32257533857376 L 247.1943887775551 304.13106146786686 L 248.19639278557116 306.9178959323577 L 249.19839679358716 309.68196403541765 L 250.20040080160322 312.42216018665926 L 251.20240480961922 315.1373883441575 L 252.20440881763528 317.826562452852 L 253.2064128256513 320.48860687895433 L 254.20841683366734 323.1224568401876 L 255.21042084168337 325.7270588316848 L 256.2124248496994 328.3013710473769 L 257.21442885771546 330.8443637967014 L 258.21643286573146 333.3550199164646 L 259.2184368737475 335.83233517769355 L 260.2204408817635 338.2753186873142 L 261.2224448897796 340.6829932844955 L 262.2244488977956 343.0543959315004 L 263.22645290581164 345.3885780988883 L 264.2284569138277 347.68460614491437 L 265.2304609218437 349.94156168897337 L 266.2324649298597 352.1585419789402 L 267.23446893787576 354.334660252258 L 268.23647294589176 356.46904609063216 L 269.2384769539078 358.56084576818535 L 270.2404809619238 360.6092225929368 L 271.2424849699399 362.613357241468 L 272.24448897795594 364.572448086641 L 273.24649298597194 366.4857115182385 L 274.248496993988 368.35238225639773 L 275.250501002004 370.1717136577121 L 276.25250501002006 371.9429780138784 L 277.25450901803606 373.66546684277085 L 278.2565130260521 375.338491171824 L 279.2585170340682 376.96138181361295 L 280.2605210420842 378.53348963351925 L 281.2625250501002 380.054185809376 L 282.26452905811624 381.5228620829887 L 283.2665330661323 382.9389310034299 L 284.2685370741483 384.30182616201216 L 285.2705410821643 385.61100241884355 L 286.2725450901804 386.865936120877 L 287.2745490981964 388.06612531136386 L 288.2765531062124 389.21108993063024 L 289.2785571142285 390.30037200809437 L 290.28056112224453 391.3335358454489 L 291.28256513026054 392.3101681909342 L 292.28456913827654 393.22987840463367 L 293.2865731462926 394.0922986147244 L 294.28857715430865 394.8970838646213 L 295.29058116232466 395.6439122509546 L 296.29258517034066 396.33248505232734 L 297.2945891783567 396.96252684879994 L 298.2965931863728 397.53378563205416 L 299.2985971943888 398.04603290619343 L 300.3006012024048 398.4990637791378 L 301.30260521042084 398.89269704457877 L 302.3046092184369 399.2267752544582 L 303.3066132264529 399.5011647819466 L 304.30861723446895 399.71575587489144 L 305.310621242485 399.8704626997167 L 306.312625250501 399.9652233757552 L 307.314629258517 400 L 308.3166332665331 399.97477866226507 L 309.31863727454913 399.8895694507492 L 310.32064128256513 399.7444064480009 L 311.32264529058114 399.5393477172858 L 312.32464929859725 399.27447527936215 L 313.32665330661325 398.9498950796734 L 314.32865731462925 398.5657369459719 L 315.3306613226453 398.12215453638896 L 316.33266533066137 397.61932527797416 L 317.3346693386774 397.05745029572654 L 318.3366733466934 396.4367543321474 L 319.33867735470943 395.75748565734636 L 320.3406813627255 395.01991596973653 L 321.3426853707415 394.2243402873588 L 322.3446893787575 393.3710768298787 L 323.34669338677355 392.4604668913024 L 324.34869739478955 391.4928747034641 L 325.3507014028056 390.4686872903378 L 326.3527054108216 389.3883143132332 L 327.3547094188377 388.25218790693634 L 328.35671342685373 387.0607625068615 L 329.35871743486973 385.81451466728333 L 330.36072144288573 384.5139428707213 L 331.36272545090185 383.15956732855307 L 332.36472945891785 381.75192977293773 L 333.36673346693385 380.29159324012903 L 334.36873747494985 378.77914184526935 L 335.37074148296597 377.21518054875077 L 336.37274549098197 375.6003349142395 L 337.37474949899797 373.9352508584582 L 338.37675350701403 372.2205943928284 L 339.3787575150301 370.4570513570746 L 340.3807615230461 368.6453271448976 L 341.38276553106215 366.786146421826 L 342.38476953907815 364.88025283536064 L 343.3867735470942 362.9284087175242 L 344.3887775551102 360.9313947799398 L 345.39078156312627 358.89000980155583 L 346.3927855711423 356.8050703091457 L 347.3947895791583 354.6774102507074 L 348.39679358717433 352.507880661896 L 349.39879759519044 350.2973493256202 L 350.40080160320645 348.0467004249413 L 351.40280561122245 345.7568341894112 L 352.40480961923845 343.42866653499317 L 353.40681362725456 341.0631286977069 L 354.40881763527057 338.66116686114736 L 355.41082164328657 336.2237417780235 L 356.4128256513026 333.75182838586977 L 357.4148296593186 331.2464154170849 L 358.4168336673347 328.70850500345114 L 359.4188376753507 326.13911227529576 L 360.42084168336675 323.5392649554517 L 361.42284569138275 320.910002948183 L 362.4248496993988 318.2523779232359 L 363.4268537074148 315.56745289518614 L 364.42885771543087 312.85630179824614 L 365.4308617234469 310.12000905670675 L 366.4328657314629 307.3596691511809 L 367.4348697394789 304.5763861808271 L 368.43687374749504 301.7712734217232 L 369.43887775551104 298.94545288157207 L 370.44088176352705 296.10005485091244 L 371.44288577154305 293.2362174510188 L 372.44488977955916 290.3550861786666 L 373.44689378757516 287.4578134479508 L 374.4488977955912 284.54555812933336 L 375.4509018036072 281.6194850861126 L 376.4529058116233 278.68076470849167 L 377.4549098196393 275.7305724454395 L 378.45691382765534 272.7700883345257 L 379.45891783567134 269.8004965299223 L 380.4609218436874 266.82298482875683 L 381.4629258517034 263.8387441960104 L 382.46492985971946 260.84896828814647 L 383.4669338677355 257.85485297566527 L 384.4689378757515 254.85759586477067 L 385.4709418837675 251.8583958183444 L 386.4729458917835 248.85845247641572 L 387.47494989979964 245.858965776323 L 388.47695390781564 242.86113547275374 L 389.47895791583164 239.86616065785873 L 390.4809619238477 236.8752392816313 L 391.48296593186376 233.8895676727437 L 392.48496993987976 230.91034006003113 L 393.48697394789576 227.9387480948161 L 394.4889779559118 224.97598037426383 L 395.4909819639279 222.02322196595964 L 396.4929859719439 219.0816539338974 L 397.4949899799599 216.15245286606938 L 398.496993987976 213.23679040384715 L 399.498997995992 210.3358327733407 L 400.501002004008 207.4507403189235 L 401.503006012024 204.5826670391097 L 402.5050100200401 201.73276012497075 L 403.5070140280561 198.9021595012741 L 404.5090180360721 196.09199737052853 L 405.5110220440881 193.30339776011792 L 406.51302605210424 190.53747607270543 L 407.5150300601203 187.79533864008772 L 408.5170340681363 185.0780822806766 L 409.5190380761523 182.3867938607861 L 410.52104208416836 179.7225498599007 L 411.5230460921844 177.0864159400981 L 412.5250501002004 174.47944651979833 L 413.5270541082164 171.9026843520103 L 414.5290581162325 169.35716010724462 L 415.53106212424854 166.84389196125946 L 416.53306613226454 164.3638851878035 L 417.53507014028054 161.9181317565197 L 418.5370741482966 159.50760993617087 L 419.53907815631266 157.1332839033454 L 420.54108216432866 154.79610335679922 L 421.5430861723447 152.49700313758893 L 422.5450901803608 150.23690285514778 L 423.5470941883768 148.01670651945463 L 424.54909819639283 145.8373021794416 L 425.55110220440883 143.69956156778625 L 426.5531062124249 141.60433975223037 L 427.55511022044095 139.55247479356433 L 428.55711422845695 137.5447874104138 L 429.55911823647295 135.58208065096323 L 430.561122244489 133.6651395717472 L 431.56312625250507 131.7947309236386 L 432.565130260521 129.97160284515843 L 433.567134268537 128.19648456322972 L 434.5691382765531 126.47008610149737 L 435.57114228456913 124.79309799632784 L 436.5731462925852 123.16619102060355 L 437.5751503006012 121.59001591542312 L 438.57715430861725 120.06520312981309 L 439.57915831663325 118.59236256855723 L 440.5811623246493 117.17208334824238 L 441.5831663326653 115.80493356161992 L 442.5851703406814 114.49146005037608 L 443.5871743486974 113.23218818640254 L 444.58917835671343 112.02762166165485 L 445.59118236472943 110.87824228668228 L 446.5931863727455 109.78450979790983 L 447.5951903807615 108.74686167375035 L 448.59719438877755 107.7657129596181 L 449.59919839679355 106.84145610191717 L 450.6012024048096 105.97446079106714 L 451.6032064128256 105.16507381363283 L 452.6052104208417 104.41361891361328 L 453.60721442885773 103.72039666294944 L 454.60921843687373 103.08568434129859 L 455.6112224448898 102.50973582512677 L 456.61322645290585 101.9927814861611 L 457.61523046092185 101.53502809924476 L 458.6172344689379 101.13665875962897 L 459.6192384769539 100.79783280973828 L 460.62124248496997 100.51868577543485 L 461.62324649298597 100.29932931181054 L 462.62525050100203 100.1398511585262 L 463.62725450901803 100.04031510471663 L 464.6292585170341 100.0007609634763 L 465.6312625250501 100.02120455593433 L 466.63326653306615 100.1016377049263 L 467.63527054108215 100.2420282382651 L 468.6372745490982 100.44232000160912 L 469.6392785571142 100.70243288092365 L 470.64128256513027 101.02226283452501 L 471.64328657314627 101.40168193469617 L 472.6452905811623 101.84053841885594 L 473.6472945891784 102.33865675026192 L 474.64929859719444 102.89583768822308 L 475.65130260521045 103.51185836779314 L 476.6533066132265 104.1864723889139 L 477.6553106212425 104.91940991497154 L 478.65731462925856 105.71037778072804 L 479.65931863727457 106.55905960958319 L 480.6613226452906 107.46511594012111 L 481.6633266533066 108.42818436189009 L 482.6653306613227 109.44787966036222 L 483.6673346693387 110.52379397101384 L 484.66933867735474 111.65549694246613 L 485.67134268537075 112.84253590861942 L 486.6733466933868 114.08443606971451 L 487.6753507014028 115.38070068224522 L 488.67735470941886 116.73081125764998 L 489.67935871743487 118.13422776969969 L 490.6813627254509 119.59038887050167 L 491.683366733467 121.09871211503071 L 492.685370741483 122.65859419409975 L 493.68737474949904 124.26941117567526 L 494.689378757515 125.93051875444189 L 495.69138276553105 127.64125250951611 L 496.6933867735471 129.40092817020525 L 497.6953907815631 131.20884188970695 L 498.6973947895791 133.06427052663867 L 499.69939879759517 134.96647193428453 L 500.7014028056112 136.9146852574437 L 501.7034068136272 138.90813123676259 L 502.7054108216432 140.94601252042855 L 503.7074148296593 143.0275139830996 L 504.70941883767534 145.15180305194355 L 505.71142284569135 147.3180300396562 L 506.7134268537074 149.52532848432529 L 507.71543086172346 151.77281549600323 L 508.7174348697395 154.05959210985137 L 509.7194388777555 156.384743645714 L 510.7214428857715 158.74734007397853 L 511.7234468937876 161.14643638757457 L 512.7254509018037 163.58107297996412 L 513.7274549098197 166.0502760289715 L 514.7294589178357 168.5530578862995 L 515.7314629258517 171.08841747257532 L 516.7334669338677 173.65534067776858 L 517.7354709418837 176.25280076682233 L 518.7374749498997 178.87975879033343 L 519.7394789579158 181.5351640001182 L 520.7414829659319 184.2179542694975 L 521.7434869739479 186.9270565181336 L 522.7454909819639 189.661387141248 L 523.7474949899799 192.41985244304885 L 524.7494989979959 195.20134907419435 L 525.7515030060121 198.00476447311803 L 526.7535070140281 200.82897731103884 L 527.7555110220442 203.6728579404774 L 528.7575150300602 206.5352688470997 L 529.7595190380762 209.41506510470794 L 530.7615230460922 212.31109483319597 L 531.7635270541082 215.22219965928574 L 532.7655310621243 218.1472151798609 L 533.7675350701403 221.0849714277128 L 534.7695390781563 224.03429333951195 L 535.7715430861724 226.99400122581756 L 536.7735470941884 229.96291124293722 L 537.7755511022044 232.93983586644887 L 538.7775551102204 235.92358436619506 L 539.7795591182364 238.9129632825588 L 540.7815631262525 241.90677690383126 L 541.7835671342685 244.90382774448076 L 542.7855711422847 247.90291702413134 L 543.7875751503007 250.90284514705863 L 544.7895791583167 253.90241218201177 L 545.7915831663327 256.9004183421704 L 546.7935871743487 259.8956644650434 L 547.7955911823648 262.88695249211787 L 548.7975951903809 265.8730859480662 L 549.7995991983969 268.8528704193204 L 550.8016032064129 271.8251140318221 L 551.8036072144289 274.78862792775567 L 552.8056112224449 277.7422267410759 L 553.8076152304609 280.6847290716378 L 554.8096192384769 283.61495795774226 L 555.8116232464931 286.53174134690425 L 556.8136272545091 289.43391256465753 L 557.815631262525 292.3203107812101 L 558.8176352705411 295.1897814757609 L 559.8196392785571 298.0411768982906 L 560.8216432865731 300.8733565286483 L 561.8236472945891 303.68518753274384 L 562.8256513026053 306.4755452156664 L 563.8276553106213 309.2433134715466 L 564.8296593186373 311.9873852299855 L 565.8316633266533 314.70666289886674 L 566.8336673346694 317.4000588033796 L 567.8356713426854 320.0664956210733 L 568.8376753507014 322.70490681277295 L 569.8396793587174 325.31423704918024 L 570.8416833667335 327.8934426329915 L 571.8436873747495 330.4414919163616 L 572.8456913827655 332.95736571355104 L 573.8476953907816 335.4400577085854 L 574.8496993987976 337.88857485776913 L 575.8517034068136 340.3019377868885 L 576.8537074148296 342.67918118294983 L 577.8557114228456 345.0193541802908 L 578.8577154308617 347.32152074091465 L 579.8597194388778 349.5847600288919 L 580.8617234468938 351.8081667786835 L 581.8637274549098 353.99085165723477 L 582.8657314629259 356.1319416196964 L 583.8677354709419 358.23058025863065 L 584.8697394789579 360.2859281465635 L 585.8717434869739 362.29716317174405 L 586.8737474949901 364.2634808669786 L 587.8757515030061 366.1840947314059 L 588.8777555110221 368.05823654508816 L 589.8797595190381 369.88515667628815 L 590.8817635270541 371.66412438131215 L 591.8837675350701 373.39442809679707 L 592.8857715430861 375.07537572432733 L 593.8877755511022 376.70629490726424 L 594.8897795591183 378.28653329968006 L 595.8917835671343 379.8154588272871 L 596.8937875751503 381.29245994025985 L 597.8957915831663 382.7169458578462 L 598.8977955911824 384.08834680467214 L 599.8997995991984 385.40611423864385 L 600.9018036072144 386.6697210703578 L 601.9038076152304 387.8786618739292 L 602.9058116232466 389.0324530891557 L 603.9078156312626 390.1306332149347 L 604.9098196392786 391.17276299385816 L 605.9118236472946 392.1584255879094 L 606.9138276553107 393.087226745193 L 607.9158316633267 393.9587949576295 L 608.9178356713427 394.77278160955495 L 609.9198396793587 395.5288611171615 L 610.9218436873748 396.2267310587272 L 611.9238476953908 396.8661122955799 L 612.9258517034068 397.4467490837501 L 613.9278557114228 397.9684091762641 L 614.9298597194389 398.43088391604044 L 615.931863727455 398.8339883193494 L 616.933867735471 399.17756114980415 L 617.935871743487 399.4614649828536 L 618.937875751503 399.6855862607498 L 619.939879759519 399.8498353379698 L 620.941883767535 399.9541465170727 L 621.943887775551 399.9984780749777 L 622.945891783567 399.98281227965265 L 623.947895791583 399.9071553972069 L 624.9498997995993 399.77153768938456 L 625.9519038076153 399.5760134014606 L 626.9539078156313 399.3206607405433 L 627.9559118236473 399.00558184429224 L 628.9579158316633 398.63090274006504 L 629.9599198396794 398.19677329450764 L 630.9619238476954 397.70336715361003 L 631.9639278557114 397.1508816732499 L 632.9659318637275 396.53953784025293 L 633.9679358717435 395.8695801840013 L 634.9699398797595 395.14127667862476 L 635.9719438877755 394.354918635815 L 636.9739478957915 393.5108205883044 L 637.9759519038076 392.6093201640574 L 638.9779559118236 391.6507779512241 L 639.9799599198396 390.63557735390907 L 640.9819639278558 389.56412443881527 L 641.9839679358718 388.4368477728232 L 642.9859719438878 387.254198251569 L 643.9879759519038 386.01664891909263 L 644.9899799599198 384.7246947786267 L 645.9919839679359 383.3788525946014 L 646.993987975952 381.97966068594644 L 647.995991983968 380.52767871076924 L 648.997995991984 379.0234874425004 L 650 377.4676885375919" /><text  class="poloto_legend_text poloto_text" alignment-baseline="middle" text-anchor="start" font-size="large" x="675" y="150" >test 2</text><line  class="poloto_legend_icon poloto1stroke poloto1legend" stroke="black" x1="680" x2="730" y1="131.25" y2="131.25" /><path  class="poloto1stroke" fill="none" stroke="black" d=" M 150 250.00009512049488 L 151.00200400801603 247.00029321421184 L 152.00400801603206 244.0016911886945 L 153.0060120240481 241.00548844477223 L 154.00801603206412 238.01288342359373 L 155.01002004008015 235.02507312726667 L 156.01202404809618 232.04325264007258 L 157.01402805611224 229.0686146504493 L 158.01603206412827 226.10234897393133 L 159.0180360721443 223.14564207723964 L 160.02004008016033 220.19967660371063 L 161.02204408817636 217.26563090025473 L 162.0240480961924 214.34467854603324 L 163.02605210420842 211.4379878830423 L 164.02805611222445 208.54672154879177 L 165.03006012024048 205.67203601126565 L 166.0320641282565 202.8150811063503 L 167.03406813627254 199.97699957791548 L 168.03607214428857 197.158926620732 L 169.0380761523046 194.36198942640888 L 170.04008016032066 191.58730673253189 L 171.0420841683367 188.83598837518326 L 172.04408817635272 186.10913484502225 L 173.04609218436875 183.40783684710328 L 174.04809619238478 180.73317486460877 L 175.0501002004008 178.08621872666996 L 176.05210420841684 175.46802718044978 L 177.05410821643287 172.87964746765795 L 178.0561122244489 170.32211490566834 L 179.05811623246493 167.79645247340576 L 180.06012024048096 165.3036704021681 L 181.06212424849699 162.84476577154712 L 182.06412825651302 160.42072211061014 L 183.06613226452907 158.03250900450143 L 184.0681362725451 155.681081706621 L 185.07014028056113 153.36738075653602 L 186.07214428857716 151.0923316037776 L 187.0741482965932 148.8568442376733 L 188.07615230460922 146.6618128233634 L 189.07815631262525 144.50811534414697 L 190.08016032064128 142.3966132503001 L 191.0821643286573 140.32815111450736 L 192.08416833667334 138.30355629404391 L 193.08617234468937 136.32363859984378 L 194.0881763527054 134.38918997258594 L 195.09018036072143 132.50098416592914 L 196.09218436873746 130.65977643702018 L 197.0941883767535 128.8663032444016 L 198.09619238476955 127.1212819534378 L 199.09819639278558 125.42541054937846 L 200.1002004008016 123.77936735817394 L 201.10220440881764 122.18381077515369 L 202.10420841683367 120.6393790016773 L 203.1062124248497 119.14668978986174 L 204.10821643286573 117.7063401954897 L 205.11022044088176 116.31890633919443 L 206.1122244488978 114.98494317601967 L 207.11422845691385 113.70498427344461 L 208.11623246492985 112.47954159796444 L 209.11823647294588 111.30910531031043 L 210.1202404809619 110.19414356939183 L 211.12224448897797 109.13510234503929 L 212.124248496994 108.13240523962202 L 213.12625250501003 107.18645331861308 L 214.12825651302606 106.29762495016843 L 215.1302605210421 105.46627565378452 L 216.13226452905812 104.69273795809539 L 217.13426853707415 103.97732126786565 L 218.1362725450902 103.32031174023257 L 219.1382765531062 102.72197217024723 L 220.14028056112227 102.18254188575986 L 221.14228456913827 101.70223665169203 L 222.14428857715433 101.2812485837332 L 223.14629258517033 100.91974607149757 L 224.1482965931864 100.61787371117009 L 225.1503006012024 100.37575224767 L 226.15230460921845 100.19347852635428 L 227.15430861723448 100.0711254542814 L 228.1563126252505 100.00874197104872 L 229.15831663326654 100.00635302921773 L 230.16032064128257 100.06395958433336 L 231.16232464929863 100.18153859454162 L 232.16432865731463 100.35904302980617 L 233.16633266533069 100.59640189071956 L 234.1683366733467 100.89352023690219 L 235.17034068136275 101.25027922497713 L 236.17234468937875 101.66653615610574 L 237.17434869739478 102.14212453306578 L 238.1763527054108 102.67685412684745 L 239.17835671342687 103.2705110527429 L 240.18036072144287 103.92285785589706 L 241.18236472945893 104.63363360628648 L 242.18436873747493 105.40255400308803 L 243.18637274549098 106.22931148839496 L 244.18837675350701 107.11357537023662 L 245.19038076152304 108.0549919548501 L 246.19238476953907 109.05318468815369 L 247.1943887775551 110.10775430636318 L 248.19639278557116 111.21827899569195 L 249.19839679358716 112.38431456107111 L 250.20040080160322 113.60539460382142 L 251.20240480961922 114.88103070820665 L 252.20440881763528 116.21071263679329 L 253.2064128256513 117.59390853453874 L 254.20841683366734 119.03006514152634 L 255.21042084168337 120.5186080142617 L 256.2124248496994 122.05894175544279 L 257.21442885771546 123.65045025211055 L 258.21643286573146 125.29249692208623 L 259.2184368737475 126.98442496859542 L 260.2204408817635 128.72555764297834 L 261.2224448897796 130.51519851538 L 262.2244488977956 132.352631753313 L 263.22645290581164 134.2371224079809 L 264.2284569138277 136.16791670824813 L 265.2304609218437 138.14424236213807 L 266.2324649298597 140.16530886573992 L 267.23446893787576 142.23030781939934 L 268.23647294589176 144.33841325106783 L 269.2384769539078 146.4887819466805 L 270.2404809619238 148.68055378743026 L 271.2424849699399 150.91285209380402 L 272.24448897795594 153.18478397624284 L 273.24649298597194 155.49544069228574 L 274.248496993988 157.8438980100547 L 275.250501002004 160.2292165779349 L 276.25250501002006 162.65044230030304 L 277.25450901803606 165.10660671915275 L 278.2565130260521 167.59672740146493 L 279.2585170340682 170.1198083321678 L 280.2605210420842 172.67484031252968 L 281.2625250501002 175.2608013638251 L 282.26452905811624 177.87665713611256 L 283.2665330661323 180.52136132196077 L 284.2685370741483 183.19385607495764 L 285.2705410821643 185.8930724328347 L 286.2725450901804 188.61793074503797 L 287.2745490981964 191.36734110457346 L 288.2765531062124 194.14020378395566 L 289.2785571142285 196.9354096750839 L 290.28056112224453 199.75184073287056 L 291.28256513026054 202.58837042244443 L 292.28456913827654 205.4438641697497 L 293.2865731462926 208.31717981536008 L 294.28857715430865 211.20716807132774 L 295.29058116232466 214.11267298088293 L 296.29258517034066 217.03253238080137 L 297.2945891783567 219.96557836625408 L 298.2965931863728 222.91063775795357 L 299.2985971943888 225.86653257141015 L 300.3006012024048 228.8320804881098 L 301.30260521042084 231.80609532842598 L 302.3046092184369 234.78738752607555 L 303.3066132264529 237.7747646039295 L 304.30861723446895 240.76703165098783 L 305.310621242485 243.7629918003281 L 306.312625250501 246.7614467078362 L 307.314629258517 249.76119703152793 L 308.3166332665331 252.76104291126998 L 309.31863727454913 255.75978444870785 L 310.32064128256513 258.7562221872093 L 311.32264529058114 261.7491575916308 L 312.32464929859725 264.737393527716 L 313.32665330661325 267.719734740933 L 314.32865731462925 270.69498833456055 L 315.3306613226453 273.6619642468307 L 316.33266533066137 276.61947572693765 L 317.3346693386774 279.56633980972236 L 318.3366733466934 282.5013777888428 L 319.33867735470943 285.4234156882404 L 320.3406813627255 288.3312847317157 L 321.3426853707415 291.2238218104222 L 322.3446893787575 294.0998699480949 L 323.34669338677355 296.95827876382594 L 324.34869739478955 299.7979049322003 L 325.3507014028056 302.61761264061204 L 326.3527054108216 305.41627404357314 L 327.3547094188377 308.1927697138377 L 328.35671342685373 310.9459890901568 L 329.35871743486973 313.67483092148916 L 330.36072144288573 316.37820370748625 L 331.36272545090185 319.05502613507826 L 332.36472945891785 321.7042275109844 L 333.36673346693385 324.3247481899769 L 334.36873747494985 326.91553999872366 L 335.37074148296597 329.4755666550448 L 336.37274549098197 332.0038041824108 L 337.37474949899797 334.4992413195204 L 338.37675350701403 336.96087992479056 L 339.3787575150301 339.38773537560076 L 340.3807615230461 341.7788369621281 L 341.38276553106215 344.1332282756191 L 342.38476953907815 346.44996759093976 L 343.3867735470942 348.7281282432534 L 344.3887775551102 350.9667989986741 L 345.39078156312627 353.1650844187484 L 346.3927855711423 355.32210521861816 L 347.3947895791583 357.43699861872346 L 348.39679358717433 359.5089186899024 L 349.39879759519044 361.5370366917518 L 350.40080160320645 363.52054140411195 L 351.40280561122245 365.45863945154457 L 352.40480961923845 367.35055562067146 L 353.40681362725456 369.1955331702502 L 354.40881763527057 370.99283413386036 L 355.41082164328657 372.7417396150801 L 356.4128256513026 374.44155007503565 L 357.4148296593186 376.0915856122065 L 358.4168336673347 377.69118623437816 L 359.4188376753507 379.2397121226295 L 360.42084168336675 380.73654388725186 L 361.42284569138275 382.1810828154969 L 362.4248496993988 383.57275111105366 L 363.4268537074148 384.91099212515917 L 364.42885771543087 386.19527057925086 L 365.4308617234469 387.4250727790704 L 366.4328657314629 388.5999068201352 L 367.4348697394789 389.7193027844929 L 368.43687374749504 390.78281292868303 L 369.43887775551104 391.79001186282767 L 370.44088176352705 392.7404967207824 L 371.44288577154305 393.63388732127703 L 372.44488977955916 394.4698263199831 L 373.44689378757516 395.2479793524467 L 374.4488977955912 395.9680351678302 L 375.4509018036072 396.62970575340796 L 376.4529058116233 397.232726449768 L 377.4549098196393 397.7768560566719 L 378.45691382765534 398.26187692953187 L 379.45891783567134 398.68759506646563 L 380.4609218436874 399.05384018589456 L 381.4629258517034 399.3604657946541 L 382.46492985971946 399.607349246589 L 383.4669338677355 399.79439179161034 L 384.4689378757515 399.9215186151938 L 385.4709418837675 399.9886788683051 L 386.4729458917835 399.9958456877383 L 387.47494989979964 399.94301620686144 L 388.47695390781564 399.8302115567622 L 389.47895791583164 399.6574768577967 L 390.4809619238477 399.42488120154155 L 391.48296593186376 399.1325176231578 L 392.48496993987976 398.7805030641788 L 393.48697394789576 398.36897832573464 L 394.4889779559118 397.89810801223376 L 395.4909819639279 397.36808046552346 L 396.4929859719439 396.77910768955536 L 397.4949899799599 396.13142526558704 L 398.496993987976 395.4252922579525 L 399.498997995992 394.6609911104397 L 400.501002004008 393.83882753331716 L 401.503006012024 392.9591303810537 L 402.5050100200401 392.0222515207811 L 403.5070140280561 391.0285656915518 L 404.5090180360721 389.9784703544487 L 405.5110220440881 388.87238553360544 L 406.51302605210424 387.71075364820274 L 407.5150300601203 386.4940393355066 L 408.5170340681363 385.22272926501955 L 409.5190380761523 383.89733194381904 L 410.52104208416836 382.5183775131619 L 411.5230460921844 381.0864175364345 L 412.5250501002004 379.6020247785351 L 413.5270541082164 378.06579297677524 L 414.5290581162325 376.4783366033927 L 415.53106212424854 374.84029061977094 L 416.53306613226454 373.15231022246337 L 417.53507014028054 371.4150705811226 L 418.5370741482966 369.6292665684423 L 419.53907815631266 367.79561248221717 L 420.54108216432866 365.9148417596334 L 421.5430861723447 363.9877066839033 L 422.5450901803608 362.01497808336234 L 423.5470941883768 359.9974450231481 L 424.54909819639283 357.9359144895846 L 425.55110220440883 355.83121106739856 L 426.5531062124249 353.68417660989644 L 427.55511022044095 351.49566990223445 L 428.55711422845695 349.2665663179163 L 429.55911823647295 346.9977574686543 L 430.561122244489 344.690150847738 L 431.56312625250507 342.344669467048 L 432.565130260521 339.96225148786414 L 433.567134268537 337.54384984561267 L 434.5691382765531 335.09043186870554 L 435.57114228456913 332.60297889162194 L 436.5731462925852 330.0824858623869 L 437.5751503006012 327.52996094460616 L 438.57715430861725 324.9464251142134 L 439.57915831663325 322.3329117510944 L 440.5811623246493 319.6904662257477 L 441.5831663326653 317.0201454811516 L 442.5851703406814 314.32301760999985 L 443.5871743486974 311.60016142748 L 444.58917835671343 308.8526660397604 L 445.59118236472943 306.08163040836376 L 446.5931863727455 303.2881629105957 L 447.5951903807615 300.4733808962098 L 448.59719438877755 297.6384102404817 L 449.59919839679355 294.78438489387474 L 450.6012024048096 291.9124464284742 L 451.6032064128256 289.02374358137456 L 452.6052104208417 286.11943179519875 L 453.60721442885773 283.20067275593794 L 454.60921843687373 280.2686339282913 L 455.6112224448898 277.3244880886968 L 456.61322645290585 274.3694128562353 L 457.61523046092185 271.4045902215995 L 458.6172344689379 268.4312060743126 L 459.6192384769539 265.4504497283892 L 460.62124248496997 262.46351344662446 L 461.62324649298597 259.4715919637061 L 462.62525050100203 256.47588200833525 L 463.62725450901803 253.4775818245521 L 464.6292585170341 250.47789069245306 L 465.6312625250501 247.47800844849587 L 466.63326653306615 244.47913500558 L 467.63527054108215 241.4824698730984 L 468.6372745490982 238.4892116771488 L 469.6392785571142 235.50055768110028 L 470.64128256513027 232.5177033067028 L 471.64328657314627 229.5418416559355 L 472.6452905811623 226.57416303378082 L 473.6472945891784 223.61585447211937 L 474.64929859719444 220.66809925493195 L 475.65130260521045 217.73207644500283 L 476.6533066132265 214.80896041230926 L 477.6553106212425 211.8999203642902 L 478.65731462925856 209.00611987817797 L 479.65931863727457 206.12871643558373 L 480.6613226452906 203.2688609595194 L 481.6633266533066 200.4276973540448 L 482.6653306613227 197.60636204672014 L 483.6673346693387 194.80598353405134 L 484.66933867735474 192.0276819301053 L 485.67134268537075 189.27256851848034 L 486.6733466933868 186.5417453078065 L 487.6753507014028 183.8363045909578 L 488.67735470941886 181.15732850814874 L 489.67935871743487 178.50588861409335 L 490.6813627254509 175.88304544939706 L 491.683366733467 173.2898481163552 L 492.685370741483 170.72733385932514 L 493.68737474949904 168.1965276498437 L 494.689378757515 165.6984417766509 L 495.69138276553105 163.23407544078833 L 496.6933867735471 160.80441435593283 L 497.6953907815631 158.41043035412338 L 498.6973947895791 156.0530809970412 L 499.69939879759517 153.7333091929982 L 500.7014028056112 151.45204281978613 L 501.7034068136272 149.21019435353793 L 502.7054108216432 147.00866050374913 L 503.7074148296593 144.84832185460607 L 504.70941883767534 142.73004251276444 L 505.71142284569135 140.65466976171763 L 506.7134268537074 138.6230337228949 L 507.71543086172346 136.63594702362332 L 508.7174348697395 134.6942044720887 L 509.7194388777555 132.79858273942216 L 510.7214428857715 130.949840049042 L 511.7234468937876 129.14871587337484 L 512.7254509018037 127.39593063807627 L 513.7274549098197 125.69218543387035 L 514.7294589178357 124.03816173612239 L 515.7314629258517 122.43452113225806 L 516.7334669338677 120.88190505713737 L 517.7354709418837 119.38093453648912 L 518.7374749498997 117.93220993850895 L 519.7394789579158 116.5363107337198 L 520.7414829659319 115.19379526319204 L 521.7434869739479 113.90520051521389 L 522.7454909819639 112.67104191050339 L 523.7474949899799 111.49181309604722 L 524.7494989979959 110.36798574764839 L 525.7515030060121 109.30000938126204 L 526.7535070140281 108.28831117319532 L 527.7555110220442 107.33329578924224 L 528.7575150300602 106.435345222823 L 529.7595190380762 105.59481864219174 L 530.7615230460922 104.81205224677376 L 531.7635270541082 104.0873591326905 L 532.7655310621243 103.42102916752515 L 533.7675350701403 102.81332887437952 L 534.7695390781563 102.26450132526827 L 535.7715430861724 101.77476604389341 L 536.7735470941884 101.34431891783788 L 537.7755511022044 100.97333212021283 L 538.7775551102204 100.66195404079087 L 539.7795591182364 100.41030922665209 L 540.7815631262525 100.21849833236695 L 541.7835671342685 100.08659807973584 L 542.7855711422847 100.01466122710099 L 543.7875751503007 100.0027165482444 L 544.7895791583167 100.05076882087826 L 545.7915831663327 100.15879882473428 L 546.7935871743487 100.32676334925134 L 547.7955911823648 100.55459521085913 L 548.7975951903809 100.8422032798506 L 549.7995991983969 101.18947251683295 L 550.8016032064129 101.59626401874164 L 551.8036072144289 102.06241507439961 L 552.8056112224449 102.58773922959995 L 553.8076152304609 103.17202636168474 L 554.8096192384769 103.81504276359158 L 555.8116232464931 104.51653123733325 L 556.8136272545091 105.27621119687308 L 557.815631262525 106.09377878035622 L 558.8176352705411 106.96890697165031 L 559.8196392785571 107.90124573114673 L 560.8216432865731 108.89042213577284 L 561.8236472945891 109.93604052815562 L 562.8256513026053 111.03768267487959 L 563.8276553106213 112.19490793377429 L 564.8296593186373 113.40725343016561 L 565.8316633266533 114.67423424201951 L 566.8336673346694 115.99534359390412 L 567.8356713426854 117.37005305969308 L 568.8376753507014 118.79781277392937 L 569.8396793587174 120.27805165176386 L 570.8416833667335 121.81017761738178 L 571.8436873747495 123.39357784082466 L 572.8456913827655 125.02761898311508 L 573.8476953907816 126.71164744958298 L 574.8496993987976 128.44498965129532 L 575.8517034068136 130.22695227448207 L 576.8537074148296 132.05682255785325 L 577.8557114228456 133.9338685776935 L 578.8577154308617 135.85733954062198 L 579.8597194388778 137.82646608389916 L 580.8617234468938 139.8404605831625 L 581.8637274549098 141.89851746746524 L 582.8657314629259 143.99981354149423 L 583.8677354709419 146.14350831483637 L 584.8697394789579 148.32874433816477 L 585.8717434869739 150.55464754620613 L 586.8737474949901 152.8203276073558 L 587.8757515030061 155.1248782797976 L 588.8777555110221 157.4673777739896 L 589.8797595190381 159.84688912136713 L 590.8817635270541 162.2624605491178 L 591.8837675350701 164.71312586087726 L 592.8857715430861 167.19790482319615 L 593.8877755511022 169.71580355761944 L 594.8897795591183 172.26581493822522 L 595.8917835671343 174.8469189944604 L 596.8937875751503 177.45808331911698 L 597.8957915831663 180.0982634812802 L 598.8977955911824 182.76640344408736 L 599.8997995991984 185.46143598712757 L 600.9018036072144 188.18228313331713 L 601.9038076152304 190.92785658007506 L 602.9058116232466 193.69705813463008 L 603.9078156312626 196.48878015328205 L 604.9098196392786 199.3019059844462 L 605.9118236472946 202.1353104152979 L 606.9138276553107 204.98786012184337 L 607.9158316633267 207.8584141222329 L 608.9178356713427 210.74582423314013 L 609.9198396793587 213.648935529019 L 610.9218436873748 216.56658680405906 L 611.9238476953908 219.49761103665128 L 612.9258517034068 222.44083585618264 L 613.9278557114228 225.39508401196787 L 614.9298597194389 228.35917384413432 L 615.931863727455 231.33191975626926 L 616.933867735471 234.31213268964424 L 617.935871743487 237.2986205988215 L 618.937875751503 240.29018892845696 L 619.939879759519 243.285641091105 L 620.941883767535 246.28377894584023 L 621.943887775551 249.28340327749532 L 622.945891783567 252.28331427633162 L 623.947895791583 255.2823120179481 L 624.9498997995993 258.27919694323447 L 625.9519038076153 261.272770338178 L 626.9539078156313 264.2618348133349 L 627.9559118236473 267.2451947827685 L 628.9579158316633 270.2216569422689 L 629.9599198396794 273.19003074665807 L 630.9619238476954 276.1491288859915 L 631.9639278557114 279.0977677604679 L 632.9659318637275 282.03476795385234 L 633.9679358717435 284.95895470522646 L 634.9699398797595 287.86915837887864 L 635.9719438877755 290.7642149321415 L 636.9739478957915 293.6429663809941 L 637.9759519038076 296.5042612632399 L 638.9779559118236 299.34695509907567 L 639.9799599198396 302.1699108488694 L 640.9819639278558 304.9719993679603 L 641.9839679358718 307.7520998583009 L 642.9859719438878 310.5091003167628 L 643.9879759519038 313.24189797992216 L 644.9899799599198 315.9493997651506 L 645.9919839679359 318.63052270783373 L 646.993987975952 321.2841943945418 L 647.995991983968 323.90935339198234 L 648.997995991984 326.5049496715581 L 650 329.0699450293643" /><text  class="poloto_text" alignment-baseline="start" text-anchor="middle" font-size="x-large" x="400" y="37.5" >cos per year</text><text  class="poloto_text" alignment-baseline="start" text-anchor="middle" font-size="x-large" x="400" y="481.25" >year</text><text  class="poloto_text" alignment-baseline="start" text-anchor="middle" font-size="x-large" transform="rotate(-90,37.5,250)" x="37.5" y="250" >cows</text><line  class="poloto_axis_lines" stroke="black" x1="150" x2="150" y1="400" y2="405" /><text  class="poloto_text" alignment-baseline="start" text-anchor="middle" x="150" y="430" > 0</text><line  class="poloto_axis_lines" stroke="black" x1="250.20040080160322" x2="250.20040080160322" y1="400" y2="405" /><text  class="poloto_text" alignment-baseline="start" text-anchor="middle" x="250.20040080160322" y="430" > 2</text><line  class="poloto_axis_lines" stroke="black" x1="350.40080160320645" x2="350.40080160320645" y1="400" y2="405" /><text  class="poloto_text" alignment-baseline="start" text-anchor="middle" x="350.40080160320645" y="430" > 4</text><line  class="poloto_axis_lines" stroke="black" x1="450.6012024048096" x2="450.6012024048096" y1="400" y2="405" /><text  class="poloto_text" alignment-baseline="start" text-anchor="middle" x="450.6012024048096" y="430" > 6</text><line  class="poloto_axis_lines" stroke="black" x1="550.8016032064129" x2="550.8016032064129" y1="400" y2="405" /><text  class="poloto_text" alignment-baseline="start" text-anchor="middle" x="550.8016032064129" y="430" > 8</text><line  class="poloto_axis_lines" stroke="black" x1="150" x2="144" y1="325.00014268074233" y2="325.00014268074233" /><text  class="poloto_text" alignment-baseline="middle" text-anchor="end" x="135" y="325.00014268074233" > -0.5</text><line  class="poloto_axis_lines" stroke="black" x1="150" x2="144" y1="250.00009512049485" y2="250.00009512049485" /><text  class="poloto_text" alignment-baseline="middle" text-anchor="end" x="135" y="250.00009512049485" > 0.0</text><line  class="poloto_axis_lines" stroke="black" x1="150" x2="144" y1="175.00004756024748" y2="175.00004756024748" /><text  class="poloto_text" alignment-baseline="middle" text-anchor="end" x="135" y="175.00004756024748" > 0.5</text><line  class="poloto_axis_lines" stroke="black" x1="150" x2="144" y1="100" y2="100" /><text  class="poloto_text" alignment-baseline="middle" text-anchor="end" x="135" y="100" > 1.0</text><path  stroke="black" fill="none" class="poloto_axis_lines" style="stroke-dasharray:12.525050100200401;stroke-dashoffset:-0;" d=" M 150 400 L 650 400" /><path  stroke="black" fill="none" class="poloto_axis_lines" style="stroke-dasharray:7.500004756024742;stroke-dashoffset:-74.9998573192577;" d=" M 150 400 L 150 100" /></svg>