<svg class="poloto" width="800" height="500" viewBox="0 0 800 500" xmlns="http://www.w3.org/2000/svg" ><style>.poloto {stroke-linecap:round;font-family: sans-serif;stroke-width:2;}.scatter{stroke-width:7}.poloto_text{fill: white;}.poloto_axis_lines{stroke: white;stoke-width:3;fill:none}.poloto_background{fill: black;}.poloto0stroke{stroke:  blue;}.poloto1stroke{stroke:  red;}.poloto2stroke{stroke:  green;}.poloto3stroke{stroke:  gold;}.poloto4stroke{stroke:  aqua;}.poloto5stroke{stroke:  brown;}.poloto6stroke{stroke:  lime;}.poloto7stroke{stroke:  chocolate;}.poloto0fill{fill:blue;}.poloto1fill{fill:red;}.poloto2fill{fill:green;}.poloto3fill{fill:gold;}.poloto4fill{fill:aqua;}.poloto5fill{fill:brown;}.poloto6fill{fill:lime;}.poloto7fill{fill:chocolate;}</style><rect class="poloto_background" fill="white" x="0" y="0" width="800" height="500" /><line class="poloto_axis_lines" stroke="black" x1="150" x2="150" y1="400" y2="405" /><text class="poloto_text" alignment-baseline="start" text-anchor="middle" x="150" y="430" >0</text><line class="poloto_axis_lines" stroke="black" x1="250.2003958226009" x2="250.2003958226009" y1="400" y2="405" /><text class="poloto_text" alignment-baseline="start" text-anchor="middle" x="250.2003958226009" y="430" >2</text><line class="poloto_axis_lines" stroke="black" x1="350.4007916452018" x2="350.4007916452018" y1="400" y2="405" /><text class="poloto_text" alignment-baseline="start" text-anchor="middle" x="350.4007916452018" y="430" >4</text><line class="poloto_axis_lines" stroke="black" x1="450.60118746780273" x2="450.60118746780273" y1="400" y2="405" /><text class="poloto_text" alignment-baseline="start" text-anchor="middle" x="450.60118746780273" y="430" >6</text><line class="poloto_axis_lines" stroke="black" x1="550.8015832904036" x2="550.8015832904036" y1="400" y2="405" /><text class="poloto_text" alignment-baseline="start" text-anchor="middle" x="550.8015832904036" y="430" >8</text><line class="poloto_axis_lines" stroke="black" x1="150" x2="144" y1="325.0001408160614" y2="325.0001408160614" /><text class="poloto_text" alignment-baseline="middle" text-anchor="end" x="135" y="325.0001408160614" />-0.5<line class="poloto_axis_lines" stroke="black" x1="150" x2="144" y1="250.0000938773743" y2="250.0000938773743" /><text class="poloto_text" alignment-baseline="middle" text-anchor="end" x="135" y="250.0000938773743" />0.0<line class="poloto_axis_lines" stroke="black" x1="150" x2="144" y1="175.00004693868715" y2="175.00004693868715" /><text class="poloto_text" alignment-baseline="middle" text-anchor="end" x="135" y="175.00004693868715" />0.5<line class="poloto_axis_lines" stroke="black" x1="150" x2="144" y1="100" y2="100" /><text class="poloto_text" alignment-baseline="middle" text-anchor="end" x="135" y="100" />1.0<line class="poloto0stroke" stroke="black" x1="680" x2="730" y1="81.25" y2="81.25" /><polyline class="poloto0stroke" fill="none" stroke="black" points="150,100 151.00200402914837,100.02999605625621 152.00400805829673,100.11998422502484 153.0060119941262,100.26991980279433 154.00801611659347,100.47974020464852 155.0100194925096,100.74937390496888 156.01202398825242,101.07870467462533 157.0140277374441,101.46759840308329 158.01603223318693,101.9159120391057 159.01803523582748,102.4234488872417 160.0200389850192,102.99001225204046 161.02204348076202,103.61538755664645 162.02404797650482,104.29930657999034 163.0260509791454,105.04151004170512 164.02805547488822,105.84168501720984 165.0300584775288,106.69952752262589 166.03206446637387,107.6146888705631 167.03406896211666,108.58681143292904 168.036070471655,109.61548393741737 169.03807496739782,110.70031299312632 170.0400779700384,111.84086050564264 171.0420824657812,113.03667049914839 172.04408696152402,114.28726017571881 173.04609145726684,115.59213779672666 174.04809595300966,116.95077586073558 175.05009895565024,118.36262898490457 176.0521019582908,119.82713390498793 177.05410794713586,121.34370947533546 178.05611094977644,122.91174772818988 179.058113952417,124.53061387368712 180.06011695505757,126.19967312196303 181.06212294390264,127.91824597964182 182.0641289327477,129.68566189405027 183.0661289491838,131.50117878689633 184.06813792423335,133.36411716480438 185.0701379406694,135.27369024597095 186.07214094331,137.22916489280652 187.07414693215506,139.22974538280528 188.07614993479564,141.27462705275917 189.07815592364068,143.36299629875788 190.08015594007676,145.494012694784 191.08216491512633,147.66685369622493 192.0841649315624,149.8806073514448 193.08617092040748,152.1344153530217 194.08817392304803,154.42736574931982 195.0901799118931,156.75854658870335 196.09218291453368,159.12701909742955 197.09418293096974,161.53182662035107 198.09619190601933,163.97204826512973 199.09819192245538,166.44665585099975 200.10019791130046,168.95470166351603 201.10220091394103,171.4951485812104 202.10420391658158,174.06700418612624 203.10620691922216,176.66922688644425 204.10821589427172,179.300801912452 205.1102188969123,181.96063849846746 206.11222189955288,184.64768611196902 207.11422490219343,187.36087633903037 208.116227904834,190.09912288432065 209.11823687988357,192.8613439228601 210.12023391011513,195.64638610405052 211.12224288516472,198.45320336572144 212.12424588780527,201.2806200055188 213.12624889044585,204.12752737635597 214.1282578654954,206.99279894974165 215.13025489572698,209.87523667156609 216.13225789836756,212.77374307062044 217.13426687341712,215.6871558556042 218.1362758484667,218.61429485381223 219.13827287869827,221.5539508352568 220.14027588133882,224.5050039769734 221.14228485638841,227.4662696359057 222.14428188661998,230.43651623031025 223.14629086166954,233.41462170204687 224.14829386431012,236.39934441108204 225.15029686695067,239.389507537474 226.15229986959125,242.38391358590678 227.15430287223182,245.38136645804929 228.1563118472814,248.3806845842116 229.15831484992196,251.38063261079148 230.16031188015353,254.38001066759898 231.1623208552031,257.377672528658 232.16432983025265,260.3723836785572 233.16632686048422,263.36291002098056 234.16832986312482,266.34810882241385 235.17033883817436,269.32678761668626 236.17234184081494,272.29771817481765 237.17434484345551,275.2597281472174 238.17634784609606,278.21163512600475 239.17835084873667,281.1522589384746 240.1803598237862,284.0804395285019 241.18235685401777,286.9949542550456 242.18436582906736,289.8947056468969 243.1863688317079,292.77848000371694 244.1883658619395,295.64512844525865 245.19037483698906,298.4935557354888 246.19238381203863,301.3225861720535 247.1943868146792,304.13106640435444 248.19638384491077,306.91788331495377 249.19839281996036,309.6819640195741 250.2003958226009,312.4221596379683 251.20239882524146,315.1373838748056 252.20440182788207,317.8265549051062 253.20640483052262,320.4885953742415 254.2084078331632,323.12244580898766 255.21041083580377,325.72704673612066 256.2124138384443,328.3013520934699 257.2144287859029,330.8443739334301 258.21643178854345,333.3550304310214 259.218422846366,335.83231128688266 260.2204377938246,338.27532243078264 261.22244079646515,340.68299097844397 262.22444379910576,343.0543960375284 263.2264468017463,345.3885720121864 264.22844980438686,347.6845980100798 265.23045280702746,349.94155313887046 266.232455809668,352.1585343876249 267.2344588123086,354.33464768611196 268.23647375976714,356.4690615490166 269.23847676240774,358.5608550840007 270.24046782023026,360.6092057464516 271.24248276768884,362.61336251737515 272.24448577032945,364.57244920794466 273.24648877297,366.48571479916603 274.24849177561055,368.35238144993815 275.25049477825115,370.17170708196903 276.2524977808917,371.94297643907385 277.2545007835323,373.66546532436524 278.2565157309908,375.3385031851699 279.2585067888134,376.9613747653028 280.26050979145396,378.5334810377092 281.26251279409456,380.0541782718224 282.2645157967351,381.52284955918316 283.2665307441937,382.9389316355456 284.26853374683424,384.301825473855 285.27053674947484,385.61100357267486 286.2725516969334,386.8659473712711 287.27453080993797,388.06611148680275 288.27654575739655,389.2110846469634 289.2785487600371,390.30036617242365 290.28055176267765,391.3335269094725 291.2825667101363,392.31017346720824 292.28456971277683,393.2298856326222 293.2865727154174,394.0923057776219 294.28856377323996,394.8970762741149 295.2905667758805,395.6439020789249 296.2925817233391,396.33248814887554 297.2945847259797,396.96253050008835 298.29658772862024,397.53378773360083 299.2985907312608,398.04602739115285 300.30059373390134,398.49906171799586 301.30259673654194,398.8926940186791 302.3045997391825,399.22677230126317 303.3066027418231,399.50116245521343 304.30860574446365,399.7157482513998 305.3106087471042,399.8704581642038 306.3126236945628,399.96522066800696 307.3146266972034,400 308.31662969984393,399.97477827877833 309.3186207576665,399.8895644450442 310.32062376030706,399.74440320230923 311.32263870776563,399.5393481947873 312.3246417104062,399.2744709480968 313.3266447130468,398.94989663207025 314.3286596605053,398.5657325351352 315.3306626631459,398.1221485306358 316.33265372096844,397.61932343261816 317.33465672360904,397.05745393653314 318.33665972624965,396.4367546192362 319.33867467370817,395.75747582039213 320.3406776763487,395.0199125831772 321.3426806789893,394.2243331286608 322.3446836816299,393.3710682628284 323.34667473945245,392.46047561377253 324.34868968691103,391.49286810607407 325.3506926895516,390.4686838341463 326.3526956921921,389.38831618889094 327.35469869483273,388.25218538331666 328.35670169747334,387.06076527464603 329.35871664493186,385.81450289799454 330.3607196475724,384.513934695501 331.362710705395,383.15957028719714 332.36471370803554,381.7519371745193 333.36671671067614,380.29159862171326 334.3687316581347,378.77913577442916 335.37073466077527,377.2151744818289 336.3727376634158,375.600331652372 337.37475261087445,373.93522419451796 338.376731723879,372.2206120679633 339.3787466713376,370.4570495962513 340.38074967397813,368.64533250188776 341.3827526766187,366.7861492189507 342.38476762407726,364.8802328850296 343.38677062671786,362.928397104035 344.3887736293584,360.93138395425865 345.390764687181,358.8900249210156 346.39276768982154,356.8050889047047 347.3947826372801,354.67739844993855 348.3967856399207,352.5078744490553 349.39878864256127,350.29734838737 350.4007916452018,348.04669645370916 351.40279464784237,345.7568305997086 352.4047976504829,343.4286717177065 353.4068006531235,341.0631317593386 354.40880365576413,338.66117632045456 355.4108066584047,336.2237531154995 356.41280966104523,333.75183668102534 357.4148126636858,331.24642837569104 358.4168156663264,328.70852061745325 359.41884255860293,326.1390700614593 360.42082167160754,323.53928817287243 361.4228246742481,320.91002878876344 362.42482767688864,318.25240502657016 363.42685456916524,315.56741824495145 364.4288575718058,312.85627096836834 365.43086057444634,310.11998243688436 366.4328635770869,307.35964341618154 367.4348426900915,304.5764296086139 368.43684569273205,301.77132002108453 369.43887258500865,298.9454367117337 370.4408755876492,296.1000403195872 371.44287859028975,293.23620372892253 372.4448815929303,290.35507581998684 373.4468845955709,287.45780547302707 374.4488875982115,284.5455527441683 375.45089060085206,281.6194843950621 376.4528936034926,278.6807649521847 377.45489660613316,275.73057682341675 378.45689960877377,272.77009571111233 379.4589026114143,269.8005062583277 380.4609056140549,266.8229975784704 381.4629086166955,263.8387599025356 382.464911619336,260.84898681428206 383.46691462197657,257.8548746914378 384.4689176246172,254.85762047052472 385.4709206272577,251.8584231835421 386.4729475195343,248.85841117506132 387.4749505221749,245.85892736650928 388.4769535248155,242.86110010245747 389.47893263782,239.86619896263417 390.4809356404606,236.87528034689686 391.4829386431012,233.8896121585922 392.4849655353777,230.9103153382725 393.4869685380183,227.93872763852121 394.4889715406589,224.9759621767761 395.49097454329944,222.0232058312691 396.49297754594,219.08164100988094 397.49498054858054,216.15244341496563 398.49698355122115,213.23678427852602 399.4989865538617,210.33583036221378 400.5009895565023,207.45073725180276 401.50296866950686,204.58273876421197 402.5049955617834,201.73276473248183 403.50699856442395,198.90216520266145 404.50900156706456,196.09200858867706 405.5110045697051,193.30340800796654 406.5130314619817,190.53742740410493 407.51501057498626,187.7953542382252 408.5170135776268,185.07810046196312 409.5190404699034,182.3867523706496 410.52101958290797,179.72257507366172 411.5230464751845,177.0863821749099 412.5250255881891,174.4794745465805 413.52705248046567,171.90265685188157 414.5290315934702,169.35719420019026 415.5310345961108,166.84392701752387 416.5330614883874,164.36386560324365 417.5350406013919,161.9181722486501 418.53706749366853,159.50758903203518 419.5390704963091,157.13326930399703 420.5410734989497,154.79608925336225 421.54307650159024,152.4969965945759 422.5451033938668,150.2368406943576 423.5470825068714,148.01670337768707 424.54906161987594,145.83735354496315 425.5510885121525,143.6995600965846 426.5530915147931,141.6043422726151 427.55509451743364,139.55247791415565 428.5570975200742,137.54478956581892 429.5591244123508,135.58203718730158 430.56110352535535,133.66515061164387 431.5631065279959,131.79473780660317 432.5651334202725,129.97156767257815 433.56711253327705,128.1964985169908 434.5691394255536,126.4700578412776 435.5711185385582,124.79311289356264 436.57314543083476,123.16617329387782 437.5751245438393,121.59003476472884 438.5771275464799,120.06522480755211 439.57915443875646,118.59235139010485 440.581133551761,117.17210294646509 441.5831604440376,115.80491757104602 442.58516344667817,114.49144793511653 443.5871664493188,113.2321768366013 444.5891694519593,112.02761389553223 445.5911485649639,110.8782597912388 446.5931754572405,109.78450791462262 447.59515457024503,108.74688576712015 448.5971814625216,107.76571521401462 449.5991844651622,106.84145223112398 450.60118746780273,105.9744633872429 451.6031904704433,105.1650705476547 452.6051934730839,104.4136223997495 453.60719647572444,103.72039610529896 454.609199478365,103.0856867074794 455.6112263706416,102.5097266645509 456.61320548364614,101.99278419758286 457.6152323759227,101.53502023921686 458.6172114889273,101.13665830701069 459.61921449156785,100.797832511499 460.6212174942084,100.51868590391888 461.623220496849,100.2993347134003 462.62524738912555,100.13985046556178 463.62722650213016,100.04031362672407 464.6292533944067,100.0007599596965 465.63125639704725,100.02120734588368 466.63325939968786,100.10163790388094 467.6352624023284,100.2420337522837 468.63724151533296,100.44231442477115 469.63926840760956,100.70243521783175 470.6412475206141,101.02225308022844 471.64327441289066,101.40168754564041 472.64527741553127,101.8405419186169 473.6472804181718,102.33865526651624 474.64928342081237,102.89583983458988 475.651286423453,103.51185422387539 476.6532894260935,104.18647491681497 477.65529242873407,104.91940687023236 478.6573193210107,105.7103908037605 479.6592984340152,106.5590601486046 480.66132532629183,107.46513774299302 481.6633044392964,108.42817655181017 482.66530744193693,109.44787259117737 483.66731044457754,110.52378776668144 484.6693134472181,111.655483983909 485.67134033949463,112.84254997055382 486.67331945249924,114.08442246237018 487.6753463447758,115.38071700915867 488.67734934741634,116.73082564316212 489.67932846042095,118.13421192224178 490.6813553526975,119.59040198917512 491.68333446570205,121.09868952847961 492.68536135797865,122.6586096236349 493.6873404709832,124.26938443353993 494.68936736325975,125.93053116026982 495.69137036590035,127.64126302202118 496.6933494789049,129.40089158471596 497.69537637118145,131.20884464340622 498.69737937382206,133.0642728313723 499.6993823764626,134.9664698331316 500.70138537910316,136.91468462969 501.70341227137976,138.90817514275545 502.7053913843843,140.94601153928767 503.7073704973889,143.027460681697 504.70939738966547,145.15179837309617 505.711400392306,147.31802325482633 506.7134033949466,149.52531278227474 507.7154063975872,151.77279970731718 508.7174332898637,154.05962572253168 509.71941240286833,156.38472688434317 510.7214392951449,158.74737005516207 511.7234422977854,161.1464644693063 512.72542141079,163.58104453092622 513.7274483030666,166.05030557681374 514.7294274160711,168.55302273075216 515.7314543083478,171.08844497374727 516.7334334213523,173.6553027260708 517.7354603136289,176.25281814662162 518.7374633162694,178.87977529988532 519.739442429274,181.53511471263795 520.7414693215505,184.21796466640407 521.7434723241911,186.92706452215776 522.7454753268316,189.66139503983547 523.7474783294723,192.4198565130528 524.7495052217489,195.20141629069275 525.7514843347534,198.00476455986666 526.753463447758,200.82890443226674 527.7554903400346,203.6728524306387 528.7574933426752,206.53525850893345 529.7594963453157,209.41505425322472 530.7614993479563,212.3110818425631 531.7635262402327,215.22225051126662 532.7655053532374,218.14719456705708 533.7675083558779,221.0849484140848 534.7695352481545,224.03433634999584 535.7715143611591,226.9939725659318 536.7735412534357,229.96294958060804 537.7755203664402,232.93980111884545 538.7775472587168,235.92361746418376 539.7795263717214,238.9129222831538 540.781529374362,241.90673265729504 541.7835562666385,244.9038522088795 542.7855353796431,247.90286718935403 543.7875622719197,250.90286390085197 544.7895652745602,253.9024279661771 545.7915682772008,256.9004312503057 546.7935712798414,259.8956743719924 547.7955981721179,262.887031082143 548.7975772851225,265.8730904261738 549.7995563981272,268.85280075397543 550.8015832904036,271.82511265061396 551.8035624034083,274.7885531353836 552.8055892956847,277.74221919735083 553.8075684086893,280.6846490316877 554.8095953009658,283.61494633298736 555.8116221932426,286.53179458283444 556.813601306247,289.4338929090426 557.8156281985237,292.3203584172585 558.8176073115283,295.18975612476106 559.8196342038048,298.04121878342613 560.8216133168094,300.87332929193724 561.8236402090859,303.68522487252125 562.8256193220905,306.4755107756175 563.8276462143671,309.2433421048577 564.8296253273716,311.9873464624368 565.8316522196482,314.7066878926887 566.8336313326528,317.4000163495643 567.8356582249294,320.0665137588021 568.8376851172059,322.70498653664345 569.8396642302105,325.31424556968085 570.8416433432151,327.89338784698083 571.8436702354916,330.4414969465564 572.8456493484962,332.9573122293817 573.8476762407727,335.44006479505776 574.8496553537773,337.8885208266657 575.8516822460539,340.3019382459135 576.8537091383305,342.67923522782144 577.855688251335,345.0193478288145 578.8577151436116,347.32156973341 579.8596942566162,349.5847475910097 580.8617211488927,351.80821084894023 581.8637002618973,353.99083297871033 582.8657271541738,356.13197919045575 583.8677062671784,358.2305587184946 584.869685380183,360.2858563066418 585.8717122724595,362.2971388173078 586.8736913854641,364.26341383253606 587.8757182777407,366.18407338456933 588.8777451700173,368.05825916598565 589.8797720622938,369.88522015779085 590.8817511752984,371.6641427560746 591.8837780675749,373.3944815779958 592.8857571805795,375.07538725683486 593.8877362935841,376.7062607655369 594.8897631858606,378.28653883985623 595.8917422988652,379.8154257572872 596.8937691911418,381.29246554201177 597.8957483041463,382.7169161157381 598.897775196423,384.08834832475526 599.8997543094275,385.40608267568757 600.9017812017041,386.66971683693095 601.9038080939806,387.8786875442397 602.9057872069852,389.03244941477294 603.9078140992618,390.13065376114037 604.9097932122663,391.17275520050106 605.9118201045429,392.15844080827407 606.9137992175475,393.08721884583224 607.915778330552,393.95876744789234 608.9178052228286,394.7727736898734 609.9198321151052,395.5288710029808 610.9218112281098,396.22671964052654 611.9238381203863,396.8661139663575 612.925817233391,397.44674105589274 613.9278441256674,397.96841315438377 614.929823238672,398.43087992216584 615.9318501309486,398.8339893672996 616.9338292439531,399.1775537350365 617.9358561362297,399.46146573694887 618.9378352492344,399.68558232179964 619.939862141511,399.8498319639704 620.9418412545155,399.9541431378426 621.943868146792,399.998480080607 622.9458950390685,399.98280702945436 623.9478741520732,399.9071508064916 624.9499010443498,399.77152929312336 625.9518801573543,399.5760140149681 626.953907049631,399.3206496755374 627.9558861626355,399.00557932606836 628.95786527564,398.6309102549885 629.9598921679167,398.19677657283273 630.9618712809212,397.70338391575405 631.9638981731978,397.1508842756918 632.9658772862024,396.53955481441767 633.9679041784789,395.86958328668027 634.9699310707554,395.1412647356558 635.9719579630321,394.35488526381823 636.9739370760366,393.5108024992601 637.9759161890411,392.6093293665623 638.9779430813178,391.6507609089011 639.9799221943223,390.63558886490364 640.9819490865989,389.56410827774624 641.9839281996035,388.43686453026993 642.98595509188,387.2541884284603 643.9879342048846,386.0166700586698 644.9899610971611,384.7246849303956 645.9919402101657,383.3788767742042 646.9939671024423,381.9796568624018 647.9959939947189,380.5276331627457 648.9979731077234,379.02348516861167 650,377.4676509744129 "/><text class="poloto_text" alignment-baseline="middle" text-anchor="start" font-size="large" x="675" y="100" >test 1</text><line class="poloto1stroke" stroke="black" x1="680" x2="730" y1="131.25" y2="131.25" /><polyline class="poloto1stroke" fill="none" stroke="black" points="150,250.00009387737427 151.00200402914837,247.00029183569933 152.00400805829673,244.00168952451588 153.0060119941262,241.00548695371228 154.00801611659347,238.01288189800144 155.0100194925096,235.02507241149308 156.01202398825242,232.0432509603581 157.0140277374441,229.06861336353066 158.01603223318693,226.10234538165489 159.01803523582748,223.14564171607722 160.0200389850192,220.19967806915162 161.02204348076202,217.26563014323213 162.02404797650482,214.34467587584834 163.0260509791454,211.43798649900307 164.02805547488822,208.5467198336457 165.0300584775288,205.67203817107682 166.03206446637387,202.81507698049 167.03406896211666,199.9769940828346 168.036070471655,197.1589294176554 169.03807496739782,194.36198716168792 170.0400779700384,191.5873072544769 171.0420824657812,188.83598940240674 172.04408696152402,186.10913331186174 173.04609145726684,183.40783421887514 174.04809595300966,180.7331694780755 175.05009895565024,178.08621644409138 176.0521019582908,175.46803011979557 177.05410794713586,172.87964315630515 178.05611094977644,170.32211055649287 179.058113952417,167.79645156042227 180.06011695505757,165.3036764674546 181.06212294390264,162.84476875484418 182.0641289327477,160.42071189984532 183.0661289491838,158.0325162018192 184.06813792423335,155.68107573099704 185.0701379406694,153.36738290533546 186.07214094331,151.09233179506563 187.07414693215506,148.8568432925257 188.07614993479564,146.6618114679468 189.07815592364068,144.50811251015554 190.08015594007676,142.39661366727614 191.08216491512633,140.32814642462358 192.0841649315624,138.30356014891754 193.08617092040748,136.32363268125914 194.08817392304803,134.389186566261 195.0901799118931,132.50098176361968 196.09218291453368,130.65977823303172 197.09418293096974,128.86630911208664 198.09619190601933,127.12128071626711 199.09819192245538,125.4254172424603 200.10019791130046,123.77937136193509 201.10220091394103,122.18381362736483 202.10420391658158,120.63937882861364 203.10620691922216,119.14669281484333 204.10821589427172,117.7063367317042 205.1102188969123,116.31890066554888 206.11222189955288,114.9849389399206 207.11422490219343,113.70498799695815 208.116227904834,112.47953957528864 209.11823687988357,111.30910329494384 210.12023391011513,110.19414407244403 211.12224288516472,109.13510000220242 212.12424588780527,108.13240023792997 213.12624889044585,107.18645605193308 214.1282578654954,106.29762507230424 215.13025489572698,105.46627386783814 216.13225789836756,104.6927421852227 217.13426687341712,103.9773161269319 218.1362758484667,103.32030861754657 219.13827287869827,102.72196999673162 220.14027588133882,102.18254166344929 221.14228485638841,101.7022381945551 222.14428188661998,101.28124734479769 223.14629086166954,100.91974792822322 224.14829386431012,100.61787405536637 225.15029686695067,100.37575089605957 226.15229986959125,100.19347679802814 227.15430287223182,100.07112328689067 228.1563118472814,100.00874400686098 229.15831484992196,100.00635683934371 230.16031188015353,100.06396178433891 231.1623208552031,100.18154096044185 232.16432983025265,100.35904072343874 233.16632686048422,100.59639848841334 234.16832986312482,100.89351590764028 235.17033883817436,101.25027675198947 236.17234184081494,101.66653797022394 237.17434484345551,102.14212074829743 238.17634784609606,102.67685521286609 239.17835084873667,103.27050890566966 240.1803598237862,103.92285830915046 241.18235685401777,104.63363520223913 242.18436582906736,105.40255348246166 243.1863688317079,106.22930916593947 244.1883658619395,107.11357144668699 245.19037483698906,108.05499163731412 246.19238381203863,109.05318528762137 247.1943868146792,110.10775900670706 248.19638384491077,111.2182747001579 249.19839281996036,112.38431215496524 250.2003958226009,113.60539751390661 251.20239882524146,114.88103009765246 252.20440182788207,116.21070922687335 253.20640483052262,117.59390740013288 254.2084078331632,119.03006135318543 255.21041083580377,120.51859888108305 256.2124138384443,122.05892989747309 257.2144287859029,123.65045537530074 258.21643178854345,125.29250476189259 259.218422846366,126.98440750457519 260.2204377938246,128.72556457629372 261.22244079646515,130.515198135947 262.22444379910576,132.3526286901594 263.2264468017463,134.2371231013413 264.22844980438686,136.1679124690939 265.23045280702746,138.14423683372064 266.232455809668,140.16530047271578 267.2344588123086,142.23029872287134 268.23647375976714,144.3384269209792 269.23847676240774,146.48879099680815 270.24046782023026,148.6805415836386 271.24248276768884,150.91285613685784 272.24448577032945,153.18478694202085 273.24648877297,155.4954488695987 274.24849177561055,157.8439031458487 275.25049477825115,160.2292199377304 276.2524977808917,162.65044259009645 277.2545007835323,165.10660550709713 278.2565157309908,167.5967520335851 279.2585067888134,170.11980034458063 280.26050979145396,172.67482954774562 281.26251279409456,175.26078464020722 282.2645157967351,177.87663744119962 283.2665307441937,180.5213731810104 284.26853374683424,183.19386533114826 285.27053674947484,185.89307677014506 286.2725516969334,188.61796590618147 287.27453080993797,191.36730786304074 288.27654575739655,194.14019962978938 289.2785487600371,196.93540291915718 290.28055176267765,199.75183143581333 291.2825667101363,202.5883944140757 292.28456971277683,205.44388485913223 293.2865727154174,208.31719859424743 294.28856377323996,211.20715097636494 295.2905667758805,214.11265123980272 296.2925817233391,217.03254156361143 297.2945847259797,219.9655858956964 298.29658772862024,222.91064206133734 299.2985907312608,225.86653435818022 300.30059373390134,228.8320803783443 301.30259673654194,231.80609100842213 302.3045997391825,234.78738048776955 303.3066027418231,237.774755232628 304.30860574446365,240.7670188652693 305.3106087471042,243.76297612555322 306.3126236945628,246.76146416338526 307.3146266972034,249.76121153057008 308.31662969984393,252.76105455628473 309.3186207576665,255.7597574503692 310.32062376030706,258.7561924794329 311.32263870776563,261.7491601923813 312.3246417104062,264.73739324466163 313.3266447130468,267.71973213894296 314.3286596605053,270.69501905427575 315.3306626631459,273.6619911164586 316.33265372096844,276.6194636824351 317.33465672360904,279.566325869943 318.33665972624965,282.50136174346795 319.33867467370817,285.42343136346517 320.3406776763487,288.33129867784 321.3426806789893,291.2238304525745 322.3446836816299,294.09987557224594 323.34667473945245,296.95824939379804 324.34868968691103,299.7979058550603 325.3506926895516,302.6176111391137 326.3526956921921,305.4162700099251 327.35469869483273,308.1927648797054 328.35670169747334,310.9459781606657 329.35871664493186,313.674850379582 330.3607196475724,316.3782192451538 331.362710705395,319.0550074027525 332.36471370803554,321.70420902336804 333.36671671067614,324.32472440061605 334.3687316581347,326.9155432351353 335.37073466077527,329.4755702908926 336.3727376634158,332.003804209229 337.37475261087445,334.49927045359254 338.376731723879,336.96085143619416 339.3787466713376,339.3877335531236 340.38074967397813,341.77882603869875 341.3827526766187,344.1332169412838 342.38476762407726,346.44998536854064 343.38677062671786,348.7281389025127 344.3887736293584,350.9668102950757 345.390764687181,353.16506971318915 346.39276768982154,355.3220856715381 347.3947826372801,357.43699986270065 348.3967856399207,359.5089182164455 349.39878864256127,361.53703606956475 350.4007916452018,363.5205398181479 351.40279464784237,365.4586337396893 352.4047976504829,367.35054893379 353.4068006531235,369.1955254407535 354.40880365576413,370.9928211822881 355.4108066584047,372.74172984291096 356.41280966104523,374.44153616643723 357.4148126636858,376.09156960019357 358.4168156663264,377.6911685322088 359.41884255860293,379.23973393542803 360.42082167160754,380.7365237315595 361.4228246742481,382.1810640633805 362.42482767688864,383.5727290817294 363.42685456916524,384.9110091665743 364.4288575718058,386.1952784687533 365.43086057444634,387.4250810124487 366.4328635770869,388.5999161183309 367.4348426900915,389.7192831070705 368.43684569273205,390.7827885877657 369.43887258500865,391.7900123474079 370.4408755876492,392.7404984101792 371.44287859028975,393.63388914798713 372.4448815929303,394.4698269327392 373.4468845955709,395.24798095844983 374.4488875982115,395.9680293598359 375.45089060085206,396.6297039158279 376.4528936034926,397.2327274646544 377.45489660613316,397.7768496666504 378.45689960877377,398.26187382636516 379.4589026114143,398.68759430764555 380.4609056140549,399.0538322964453 381.4629086166955,399.36046262293206 382.464911619336,399.60734223586877 383.46691462197657,399.7943906689347 384.4689176246172,399.9215185151067 385.4709206272577,399.9886721301709 386.4729475195343,399.995842573425 387.4749505221749,399.94301196346436 388.4769535248155,399.8302071223959 389.47893263782,399.65747275373127 390.4809356404606,399.4248803830888 391.4829386431012,399.1325194174918 392.4849655353777,398.78049714536786 393.4869685380183,398.36897449935867 394.4889715406589,397.8981034714035 395.49097454329944,397.3680718162509 396.49297754594,396.7791030514587 397.49498054858054,396.1314206945847 398.49698355122115,395.4252840259959 399.4989865538617,394.6609880888686 400.5009895565023,393.83882792637905 401.50296866950686,392.9591522259175 402.5049955617834,392.0222470899579 403.50699856442395,391.02856849431805 404.50900156706456,389.9784740670906 405.5110045697051,388.8723929619864 406.5130314619817,387.71072751060956 407.51501057498626,386.49404097720566 408.5170135776268,385.22273569337875 409.5190404699034,383.8973123384583 410.52101958290797,382.5183878209038 411.5230464751845,381.0863912944262 412.5250255881891,379.60203801521055 413.52705248046567,378.0657750183724 414.5290315934702,376.4783533229059 415.5310345961108,374.84030937094974 416.5330614883874,373.15229583377277 417.5350406013919,371.4150994931784 418.53706749366853,369.629247850603 419.5390704963091,367.79559921346856 420.5410734989497,365.9148330751507 421.54307650159024,363.9877004546437 422.5451033938668,362.0149255488347 423.5470825068714,359.9974381907642 424.54906161987594,357.9359625773196 425.5510885121525,355.8312050239833 426.5530915147931,353.68417583011666 427.55509451743364,351.49567071822537 428.5570975200742,349.26657481783843 429.5591244123508,346.99771067356835 430.56110352535535,344.690160110395 431.5631065279959,342.34468308801485 432.5651334202725,339.9622094394683 433.56711253327705,337.5438656932467 434.5691394255536,335.0903939276419 435.5711185385582,332.603001137466 436.57314543083476,330.0824472824154 437.5751245438393,327.52998406081394 438.5771275464799,324.94645636903 439.57915443875646,322.33288344712713 440.581133551761,319.6905035823755 441.5831604440376,317.0201214379832 442.58516344667817,314.32299318262505 443.5871664493188,311.6001425267158 444.5891694519593,308.8526468248839 445.5911485649639,306.08168177948346 446.5931754572405,303.288150401448 447.59515457024503,300.47343849963573 448.5971814625216,297.63840438146866 449.5991844651622,294.78438021159127 450.60118746780273,291.9124433446321 451.6031904704433,289.02374266083825 452.6051934730839,286.1194359811591 453.60719647572444,283.2006788913684 454.609199478365,280.2686426234691 455.6112263706416,277.32443135419663 456.61320548364614,274.36942865723375 457.6152323759227,271.40453754351404 458.6172114889273,268.4312276409799 459.61921449156785,265.4504734861834 460.6212174942084,262.4635401885016 461.623220496849,259.47162244928097 462.62524738912555,256.47584344424945 463.62722650213016,253.47761776015082 464.6292533944067,250.47785797726416 465.63125639704725,247.47797875218254 466.63325939968786,244.47910794053277 467.6352624023284,241.4824460411479 468.63724151533296,238.48926151616848 469.63926840760956,235.50053896043653 470.6412475206141,232.5177586189786 471.64327441289066,229.5418290906671 472.64527741553127,226.57415294817721 473.6472804181718,223.61584889688572 474.64928342081237,220.66809487432218 475.651286423453,217.73207552354296 476.6532894260935,214.80896207655084 477.65529242873407,211.8999257653487 478.6573193210107,209.00605735561862 479.6592984340152,206.12872477481426 480.66132532629183,203.26880421176222 481.6633044392964,200.42771276777887 482.66530744193693,197.6063802759047 483.66731044457754,194.8060047902495 484.6693134472181,192.0277038986022 485.67134033949463,189.27252813348446 486.67331945249924,186.54177389673148 487.6753463447758,183.83627267365833 488.67734934741634,181.15729851434438 489.67932846042095,178.50592430306705 490.6813553526975,175.88302175830177 491.68333446570205,173.28988728188375 492.68536135797865,170.7273121259676 493.6873404709832,168.19656587028157 494.68936736325975,165.6984263559268 495.69137036590035,163.23406481490616 496.6933494789049,160.80446472447395 497.69537637118145,158.4104218071359 498.69737937382206,156.0530804727879 499.6993823764626,153.7333079695543 500.70138537910316,151.45204307117774 501.70341227137976,149.2101440850802 502.7053913843843,147.0086660141345 503.7073704973889,144.8483777587394 504.70939738966547,142.73004821929374 505.711400392306,140.65467875445648 506.7134033949466,138.6230472053287 507.7154063975872,136.6359582351185 508.7174332898637,134.69417180352235 509.71941240286833,132.7985998621761 510.7214392951449,130.9498146160277 511.7234422977854,129.14869225390368 512.72542141079,127.39594803198901 513.7274483030666,125.69216309593395 514.7294274160711,124.03818681245815 515.7314543083478,122.43450197948641 516.7334334213523,120.88193114163141 517.7354603136289,119.3809213340088 518.7374633162694,117.93219675350582 519.739442429274,116.53633854577271 520.7414693215505,115.19378480522278 521.7434723241911,113.90519714382708 522.7454753268316,112.67104047810585 523.7474783294723,111.49180654668623 524.7495052217489,110.3679602660884 525.7514843347534,109.30001125634425 526.753463447758,108.28833502695073 527.7554903400346,107.3332981467027 528.7574933426752,106.43534765071576 529.7594963453157,105.5948232856777 530.7614993479563,104.81205585757414 531.7635262402327,104.08734935028366 532.7655053532374,103.42103456979174 533.7675083558779,102.81333503365624 534.7695352481545,102.26449214083954 535.7715143611591,101.77477411241102 536.7735412534357,101.34431505890541 537.7755203664402,100.97333849788038 538.7775472587168,100.66195171776371 539.7795263717214,100.4103156511971 540.781529374362,100.21850182379899 541.7835562666385,100.08659964259243 542.7855353796431,100.01466275179143 543.7875622719197,100.0027179735028 544.7895652745602,100.05076530772664 545.7915682772008,100.15879581376055 546.7935712798414,100.32676478809299 547.7955981721179,100.55460070510554 548.7975772851225,100.84220521707266 549.7995563981272,101.18946209486438 550.8015832904036,101.59626405005292 551.8035624034083,102.06240544648512 552.8055892956847,102.58773429222168 553.8075684086893,103.1720091883002 554.8095953009658,103.81504237997206 555.8116221932426,104.51654776476335 556.813601306247,105.27620347739082 557.8156281985237,106.09379494099898 558.8176073115283,106.96890194257918 559.8196342038048,107.90125626106209 560.8216133168094,108.8904108613321 561.8236402090859,109.93605281880826 562.8256193220905,111.0376725134588 563.8276462143671,112.19492125789367 564.8296253273716,113.40723578786708 565.8316522196482,114.6742495345843 566.8336313326528,115.99531876747892 567.8356582249294,117.37006797705374 568.8376851172059,118.79785343274244 569.8396642302105,120.27805822608542 570.8416433432151,121.81014591494397 571.8436702354916,123.39358005717935 572.8456493484962,125.02758281169054 573.8476762407727,126.71165349914799 574.8496553537773,128.44495169353445 575.8516822460539,130.2269498934134 576.8537091383305,132.05686131698155 577.855688251335,133.9338634196261 578.8577151436116,135.85738399639916 579.8596942566162,137.826457451451 580.8617211488927,139.84050263913144 581.8637002618973,141.8985092600791 582.8657271541738,143.99985146513228 583.8677062671784,146.14349213282273 584.869685380183,148.32867130345397 585.8717122724595,150.55462901732952 586.8736913854641,152.82024768666034 587.8757182777407,155.12484781807078 588.8777451700173,157.46740123079496 589.8797720622938,159.84696915109015 590.8817511752984,162.26248763538123 591.8837780675749,164.71320566467404 592.8857571805795,167.19792518485872 593.8877362935841,169.71576106640646 594.8897631858606,172.26582817978834 595.8917422988652,174.84686588597845 596.8937691911418,177.45809187352447 597.8957483041463,180.09820527024004 598.897775196423,182.76640588326822 599.8997543094275,185.46137495901806 600.9017812017041,188.18228101217454 601.9038080939806,190.92791704792555 602.9057872069852,193.6970537197032 603.9078140992618,196.48883719043675 604.9097932122663,199.30189506232134 605.9118201045429,202.1353645575838 606.9137992175475,204.98784198596127 607.915778330552,207.85832598879475 608.9178052228286,210.74580179637186 609.9198321151052,213.64897971238418 610.9218112281098,216.56655886464526 611.9238381203863,219.4976496532751 612.925817233391,222.4408014493236 613.9278441256674,225.39511794738402 614.929823238672,228.35913287227723 615.9318501309486,231.33194656583302 616.9338292439531,234.31208604734562 617.9358561362297,237.29864271794253 618.9378352492344,240.2901368913911 619.939862141511,243.28565717484955 620.9418412545155,246.28372052932176 621.943868146792,249.2834134664888 622.9458950390685,252.28339306492373 623.9478741520732,255.28231668259653 624.9499010443498,258.2792697136004 625.9518801573543,261.2727693983363 626.953907049631,264.26190210878684 627.9558861626355,267.24518759992543 628.95786527564,270.22157533923036 629.9598921679167,273.1900181469435 630.9618712809212,276.1490419247711 631.9638981731978,279.0977503673064 632.9658772862024,282.0346771993703 633.9679041784789,284.9589305859072 634.9699310707554,287.8692029492039 635.9719579630321,290.7643230572577 636.9739370760366,293.64300121375993 637.9759161890411,296.50422711934954 638.9779430813178,299.34698600431403 639.9799221943223,302.1698697080393 640.9819490865989,304.97202439345455 641.9839281996035,307.7520553109992 642.98595509188,310.50911756430474 643.9879342048846,313.2418476962686 644.9899610971611,315.9494142215758 645.9919402101657,318.6304715645284 646.9939671024423,321.28420165086493 647.9959939947189,323.90941983752896 648.9979731077234,326.50495042216653 650,329.0700021526231 "/><text class="poloto_text" alignment-baseline="middle" text-anchor="start" font-size="large" x="675" y="150" >test 2</text><text class="poloto_text" alignment-baseline="start" text-anchor="middle" font-size="x-large" x="400" y="37.5" >cos per year</text><text class="poloto_text" alignment-baseline="start" text-anchor="middle" font-size="x-large" x="400" y="481.25" >year</text><text class="poloto_text" alignment-baseline="start" text-anchor="middle" font-size="x-large" transform="rotate(-90,37.5,250)" x="37.5" y="250" >cows</text><path stroke="black" fill="none" class="poloto_axis_lines" d=" M 150 100 L 150 400 L 650 400"/></svg>
