<svg class="poloto" width="800" height="500" viewBox="0 0 800 500" xmlns="http://www.w3.org/2000/svg"><style>.poloto {
            font-family: "Arial";
            stroke-width:2;
            }
            .poloto_text{fill: var(--poloto_fg_color,black);  }
            .poloto_axis_lines{stroke: var(--poloto_fg_color,black);stoke-width:3;fill:none}
            .poloto_background{fill: var(--poloto_bg_color,aliceblue); }
            .poloto0stroke{stroke:  var(--poloto_color0,blue); }
            .poloto1stroke{stroke:  var(--poloto_color1,red); }
            .poloto2stroke{stroke:  var(--poloto_color2,green); }
            .poloto3stroke{stroke:  var(--poloto_color3,gold); }
            .poloto4stroke{stroke:  var(--poloto_color4,aqua); }
            .poloto5stroke{stroke:  var(--poloto_color5,brown); }
            .poloto6stroke{stroke:  var(--poloto_color6,lime); }
            .poloto7stroke{stroke:  var(--poloto_color7,chocolate); }
            .poloto0fill{fill:var(--poloto_color0,blue);}
            .poloto1fill{fill:var(--poloto_color1,red);}
            .poloto2fill{fill:var(--poloto_color2,green);}
            .poloto3fill{fill:var(--poloto_color3,gold);}
            .poloto4fill{fill:var(--poloto_color4,aqua);}
            .poloto5fill{fill:var(--poloto_color5,brown);}
            .poloto6fill{fill:var(--poloto_color6,lime);}
            .poloto7fill{fill:var(--poloto_color7,chocolate);}</style><rect class="poloto_background" fill="white" x="0" y="0" width="800" height="500"/><line class="poloto_axis_lines" stroke="black" x1="150" x2="150" y1="400" y2="405"/><text class="poloto_text" alignment-baseline="start" text-anchor="middle" x="150" y="430">0</text><line class="poloto_axis_lines" stroke="black" x1="252.0408163265306" x2="252.0408163265306" y1="400" y2="405"/><text class="poloto_text" alignment-baseline="start" text-anchor="middle" x="252.0408163265306" y="430">2</text><line class="poloto_axis_lines" stroke="black" x1="354.0816326530612" x2="354.0816326530612" y1="400" y2="405"/><text class="poloto_text" alignment-baseline="start" text-anchor="middle" x="354.0816326530612" y="430">4</text><line class="poloto_axis_lines" stroke="black" x1="456.1224489795918" x2="456.1224489795918" y1="400" y2="405"/><text class="poloto_text" alignment-baseline="start" text-anchor="middle" x="456.1224489795918" y="430">6</text><line class="poloto_axis_lines" stroke="black" x1="558.1632653061224" x2="558.1632653061224" y1="400" y2="405"/><text class="poloto_text" alignment-baseline="start" text-anchor="middle" x="558.1632653061224" y="430">8</text><line class="poloto_axis_lines" stroke="black" x1="150" x2="144" y1="325.0345380719074" y2="325.0345380719074"/><text class="poloto_text" alignment-baseline="middle" text-anchor="end" x="135" y="325.0345380719074">-0.5</text><line class="poloto_axis_lines" stroke="black" x1="150" x2="144" y1="250.02302538127162" y2="250.02302538127162"/><text class="poloto_text" alignment-baseline="middle" text-anchor="end" x="135" y="250.02302538127162">0.0</text><line class="poloto_axis_lines" stroke="black" x1="150" x2="144" y1="175.01151269063575" y2="175.01151269063575"/><text class="poloto_text" alignment-baseline="middle" text-anchor="end" x="135" y="175.01151269063575">0.5</text><line class="poloto_axis_lines" stroke="black" x1="150" x2="144" y1="100" y2="100"/><text class="poloto_text" alignment-baseline="middle" text-anchor="end" x="135" y="100">1.0</text><text class="poloto_text" alignment-baseline="middle" text-anchor="start" font-size="large" x="675" y="100">cos</text><line class="poloto0stroke" stroke="black" x1="680" x2="730" y1="81.25" y2="81.25"/><polyline class="poloto0stroke" fill="none" stroke="black" points="150,100 160.20408163265307,102.99047229845905 170.40816326530611,111.84266850027751 180.6122448979592,126.20367947760951 190.81632653061223,145.5009770415796 201.0204081632653,168.9652388344561 211.22448979591837,195.66101878431704 221.42857142857144,224.52404038796655 231.6326530612245,254.40362605659888 241.83673469387753,284.10857100009065 252.0408163265306,312.45463280291943 262.2448979591837,338.311743432177 272.44897959183675,360.64906148390605 282.65306122448976,378.5760685768674 292.8571428571429,391.37807151020684 303.0612244897959,398.54469482602866 313.265306122449,399.7902278683187 323.46938775510205,395.06501516518756 333.67346938775506,384.5574360358383 343.87755102040813,368.68639450157445 354.0816326530612,348.0846189043995 364.2857142857143,323.5734370247104 374.48979591836735,296.13003233454305 384.6938775510204,266.84848677622296 394.89795918367344,236.89616316790006 405.1020408163265,207.46716613181505 415.3061224489796,179.73473691122626 425.51020408163265,154.80447994441744 435.7142857142857,133.67028590468016 445.91836734693874,117.17470841557275 456.1224489795918,105.97537409678091 466.3265306122449,100.51876506605186 476.53061224489795,101.02241910611514 486.734693877551,107.46625711976571 496.9387755102041,119.59338362010601 507.1428571428571,136.92032834292814 517.3469387755101,158.75632068046912 527.5510204081633,184.23082852569001 537.7551020408163,212.32826364025954 547.9591836734694,241.92846995274417 558.1632653061224,271.8513806463171 568.3673469387754,300.90406369883107 578.5714285714286,327.9282803180255 588.7755102040816,351.84666026713967 598.9795918367347,371.7056532164155 609.1836734693877,386.71354378564115 619.3877551020408,396.27201473795924 629.5918367346937,400 639.7959183673469,397.74887656370385 650,389.6083896166449 "/><text class="poloto_text" alignment-baseline="start" text-anchor="middle" font-size="x-large" x="400" y="37.5">Demo: Some Trigonometry Plots 5</text><text class="poloto_text" alignment-baseline="start" text-anchor="middle" font-size="x-large" x="400" y="481.25">This is the x label</text><text class="poloto_text" alignment-baseline="start" text-anchor="middle" font-size="x-large" transform="rotate(-90,37.5,250)" x="37.5" y="250">This is the y label</text><path stroke="black" fill="none" class="poloto_axis_lines" d=" M 150 100 L 150 400 L 650 400"/></svg>