<svg class="poloto" width="800" height="500" viewBox="0 0 800 500" xmlns="http://www.w3.org/2000/svg"><style>.poloto {
                font-family: "Arial";
                stroke-width:2;
                }
                .poloto_text{fill: white;  }
                .poloto_axis_lines{stroke: white;stoke-width:3;fill:none}
                .poloto_background{fill: black; }
                .poloto0stroke{stroke:  red; }
                .poloto1stroke{stroke:  red; }
                .poloto2stroke{stroke:  red; }
                .poloto3stroke{stroke:  red; }
                .poloto4stroke{stroke:  red; }
                .poloto5stroke{stroke:  red; }
                .poloto6stroke{stroke:  red; }
                .poloto7stroke{stroke:  red; }
                .poloto0fill{fill:red;}
                .poloto1fill{fill:red;}
                .poloto2fill{fill:red;}
                .poloto3fill{fill:red;}
                .poloto4fill{fill:red;}
                .poloto5fill{fill:red;}
                .poloto6fill{fill:red;}
                .poloto7fill{fill:red;}</style><rect class="poloto_background" fill="white" x="0" y="0" width="800" height="500"/><line class="poloto_axis_lines" stroke="black" x1="150" x2="150" y1="400" y2="405"/><text class="poloto_text" alignment-baseline="start" text-anchor="middle" x="150" y="430">0</text><line class="poloto_axis_lines" stroke="black" x1="250.20040080160322" x2="250.20040080160322" y1="400" y2="405"/><text class="poloto_text" alignment-baseline="start" text-anchor="middle" x="250.20040080160322" y="430">2</text><line class="poloto_axis_lines" stroke="black" x1="350.40080160320645" x2="350.40080160320645" y1="400" y2="405"/><text class="poloto_text" alignment-baseline="start" text-anchor="middle" x="350.40080160320645" y="430">4</text><line class="poloto_axis_lines" stroke="black" x1="450.6012024048096" x2="450.6012024048096" y1="400" y2="405"/><text class="poloto_text" alignment-baseline="start" text-anchor="middle" x="450.6012024048096" y="430">6</text><line class="poloto_axis_lines" stroke="black" x1="550.8016032064129" x2="550.8016032064129" y1="400" y2="405"/><text class="poloto_text" alignment-baseline="start" text-anchor="middle" x="550.8016032064129" y="430">8</text><line class="poloto_axis_lines" stroke="black" x1="150" x2="144" y1="381.27026936738355" y2="381.27026936738355"/><text class="poloto_text" alignment-baseline="middle" text-anchor="end" x="135" y="381.27026936738355">-150</text><line class="poloto_axis_lines" stroke="black" x1="150" x2="144" y1="323.305201774696" y2="323.305201774696"/><text class="poloto_text" alignment-baseline="middle" text-anchor="end" x="135" y="323.305201774696">-100</text><line class="poloto_axis_lines" stroke="black" x1="150" x2="144" y1="265.34013418200846" y2="265.34013418200846"/><text class="poloto_text" alignment-baseline="middle" text-anchor="end" x="135" y="265.34013418200846">-50</text><line class="poloto_axis_lines" stroke="black" x1="150" x2="144" y1="207.3750665893209" y2="207.3750665893209"/><text class="poloto_text" alignment-baseline="middle" text-anchor="end" x="135" y="207.3750665893209">0</text><line class="poloto_axis_lines" stroke="black" x1="150" x2="144" y1="149.40999899663336" y2="149.40999899663336"/><text class="poloto_text" alignment-baseline="middle" text-anchor="end" x="135" y="149.40999899663336">50</text><text class="poloto_text" alignment-baseline="middle" text-anchor="start" font-size="large" x="675" y="100">test1</text><line class="poloto0stroke" stroke="black" x1="680" x2="730" y1="81.25" y2="81.25"/><polyline class="poloto0stroke" fill="none" stroke="black" points="150,206.21576523746717 151.00200400801603,206.21599709000895 152.00400801603206,206.21669255489644 153.0060120240481,206.21785135395288 154.00801603206412,206.21947302367417 155.01002004008015,206.22155691541397 156.01202404809618,206.22410219564344 157.01402805611224,206.22710784628438 158.01603206412827,206.23057266511663 159.0180360721443,206.23449526625885 160.02004008016033,206.2388740807229 161.02204408817636,206.24370735704133 162.0240480961924,206.2489931619681 163.02605210420842,206.25472938125165 164.02805611222445,206.26091372048083 165.03006012024048,206.26754370600239 166.0320641282565,206.27461668591047 167.03406813627254,206.28212983110745 168.03607214428857,206.29008013643548 169.0380761523046,206.29846442187826 170.04008016032066,206.3072793338336 171.0420841683367,206.31652134645412 172.04408817635272,206.32618676305808 173.04609218436875,206.33627171760764 174.04809619238478,206.34677217625548 175.0501002004008,206.35768393895813 176.05210420841684,206.36900264115602 177.05410821643287,206.38072375551914 178.0561122244489,206.39284259375805 179.05811623246493,206.40535430849908 180.06012024048096,206.41825389522307 181.06212424849699,206.43153619426738 182.06412825651302,206.44519589288947 183.06613226452907,206.45922752739204 184.0681362725451,206.4736254853084 185.07014028056113,206.4883840076472 186.07214428857716,206.5034971911965 187.0741482965932,206.51895899088422 188.07615230460922,206.5347632221967 189.07815631262525,206.55090356365216 190.08016032064128,206.56737355932918 191.0821643286573,206.58416662144907 192.08416833667334,206.60127603301095 193.08617234468937,206.6186949504783 194.0881763527054,206.63641640651633 195.09018036072143,206.65443331277896 196.09218436873746,206.6727384627439 197.0941883767535,206.6913245345952 198.09619238476955,206.71018409415197 199.09819639278558,206.72930959784182 200.1002004008016,206.74869339571828 201.10220440881764,206.76832773452062 202.10420841683367,206.78820476077522 203.1062124248497,206.80831652393644 204.10821643286573,206.8286549795673 205.11022044088176,206.8492119925566 206.1122244488978,206.8699793403734 207.11422845691385,206.8909487163553 208.11623246492985,206.9121117330316 209.11823647294588,206.93345992547773 210.1202404809619,206.9549847547014 211.12224448897797,206.97667761105794 212.124248496994,206.99852981769396 213.12625250501003,207.02053263401822 214.12825651302606,207.04267725919755 215.1302605210421,207.06495483567713 216.13226452905812,207.0873564527234 217.13426853707415,207.10987314998823 218.1362725450902,207.13249592109293 219.1382765531062,207.15521571723067 220.14028056112227,207.17802345078593 221.14228456913827,207.20090999896945 222.14428857715433,207.223866207467 223.14629258517033,207.24688289410133 224.1482965931864,207.26995085250468 225.1503006012024,207.2930608558012 226.15230460921845,207.31620366029773 227.15430861723448,207.33937000918104 228.1563126252505,207.36255063622048 229.15831663326654,207.38573626947428 230.16032064128257,207.4089176349983 231.16232464929863,207.43208546055536 232.16432865731463,207.45523047932414 233.16633266533069,207.4783434336058 234.1683366733467,207.50141507852675 235.17034068136275,207.52443618573662 236.17234468937875,207.5473975470995 237.17434869739478,207.570289978377 238.1763527054108,207.59310432290178 239.17835671342687,207.6158314552403 240.18036072144287,207.63846228484263 241.18236472945893,207.66098775967862 242.18436873747493,207.68339886985865 243.18637274549098,207.70568665123758 244.18837675350701,207.7278421889999 245.19038076152304,207.749856621226 246.19238476953907,207.77172114243643 247.1943887775551,207.7934270071143 248.19639278557116,207.8149655332031 249.19839679358716,207.8363281055796 250.20040080160322,207.85750617949967 251.20240480961922,207.8784912840161 252.20440881763528,207.8992750253669 253.2064128256513,207.91984909033263 254.20841683366734,207.94020524956164 255.21042084168337,207.96033536086162 256.2124248496994,207.98023137245647 257.21442885771546,207.99988532620682 258.21643286573146,208.01928936079324 259.2184368737475,208.03843571486055 260.2204408817635,208.05731673012247 261.2224448897796,208.07592485442464 262.2244488977956,208.0942526447654 263.22645290581164,208.11229277027297 264.2284569138277,208.13003801513776 265.2304609218437,208.14748128149836 266.2324649298597,208.1646155922808 267.23446893787576,208.18143409398922 268.23647294589176,208.19793005944723 269.2384769539078,208.21409689048855 270.2404809619238,208.22992812059636 271.2424849699399,208.24541741748962 272.24448897795594,208.26055858565613 273.24649298597194,208.27534556883052 274.248496993988,208.28977245241666 275.250501002004,208.30383346585344 276.25250501002006,208.31752298492304 277.25450901803606,208.33083553400036 278.2565130260521,208.3437657882432 279.2585170340682,208.35630857572224 280.2605210420842,208.3684588794898 281.2625250501002,208.38021183958634 282.26452905811624,208.39156275498456 283.2665330661323,208.4025070854696 284.2685370741483,208.4130404534552 285.2705410821643,208.42315864573462 286.2725450901804,208.43285761516583 287.2745490981964,208.44213348229042 288.2765531062124,208.45098253688516 289.2785571142285,208.45940123944627 290.28056112224453,208.4673862226049 291.28256513026054,208.47493429247427 292.28456913827654,208.48204242992713 293.2865731462926,208.4887077918032 294.28857715430865,208.49492771204663 295.29058116232466,208.50069970277227 296.29258517034066,208.50602145526076 297.2945891783567,208.51089084088207 298.2965931863728,208.51530591194688 299.2985971943888,208.51926490248562 300.3006012024048,208.52276622895488 301.30260521042084,208.52580849087073 302.3046092184369,208.528390471369 303.3066132264529,208.53051113769186 304.30861723446895,208.53216964160114 305.310621242485,208.53336531971732 306.312625250501,208.53409769378513 307.314629258517,208.53436647086468 308.3166332665331,208.53417154344874 309.31863727454913,208.53351298950568 310.32064128256513,208.53239107244832 311.32264529058114,208.53080624102844 312.32464929859725,208.52875912915758 313.32665330661325,208.52625055565312 314.32865731462925,208.52328152391107 315.3306613226453,208.5198532215045 316.33266533066137,208.51596701970868 317.3346693386774,208.5116244729525 318.3366733466934,208.50682731819674 319.33867735470943,208.5015774742394 320.3406813627255,208.49587704094805 321.3426853707415,208.48972829841998 322.3446893787575,208.48313370607022 323.34669338677355,208.4760959016478 324.34869739478955,208.46861770018063 325.3507014028056,208.4607020928496 326.3527054108216,208.45235224579216 327.3547094188377,208.4435714988357 328.35671342685373,208.43436336416198 329.35871743486973,208.42473152490209 330.36072144288573,208.4146798336633 331.36272545090185,208.40421231098813 332.36472945891785,208.39333314374608 333.36673346693385,208.3820466834589 334.36873747494985,208.3703574445603 335.37074148296597,208.35827010258998 336.37274549098197,208.34578949232358 337.37474949899797,208.33292060583878 338.37675350701403,208.31966859051855 339.3787575150301,208.30603874699239 340.3807615230461,208.29203652701597 341.38276553106215,208.27766753129055 342.38476953907815,208.26293750722286 343.3867735470942,208.24785234662613 344.3887775551102,208.23241808336348 345.39078156312627,208.21664089093446 346.3927855711423,208.20052708000557 347.3947895791583,208.18408309588642 348.39679358717433,208.16731551595137 349.39879759519044,208.15023104700887 350.40080160320645,208.13283652261867 351.40280561122245,208.11513890035863 352.40480961923845,208.09714525904167 353.40681362725456,208.0788627958844 354.40881763527057,208.06029882362833 355.41082164328657,208.04146076761484 356.4128256513026,208.02235616281516 357.4148296593186,208.00299265081654 358.4168336673347,207.98337797676552 359.4188376753507,207.96351998627023 360.42084168336675,207.94342662226214 361.42284569138275,207.92310592181886 362.4248496993988,207.90256601294968 363.4268537074148,207.88181511134428 364.42885771543087,207.86086151708665 365.4308617234469,207.8397136113351 366.4328657314629,207.8183798529699 367.4348697394789,207.79686877521007 368.43687374749504,207.7751889821998 369.43887775551104,207.7533491455673 370.44088176352705,207.73135800095596 371.44288577154305,207.70922434453053 372.44488977955916,207.68695702945834 373.44689378757516,207.66456496236856 374.4488977955912,207.64205709978953 375.4509018036072,207.6194424445661 376.4529058116233,207.59673004225888 377.4549098196393,207.57392897752598 378.45691382765534,207.55104837048927 379.45891783567134,207.52809737308647 380.4609218436874,207.50508516541055 381.4629258517034,207.48202095203771 382.46492985971946,207.45891395834587 383.4669338677355,207.43577342682437 384.4689378757515,207.41260861337727 385.4709418837675,207.3894287836211 386.4729458917835,207.3662432091787 387.47494989979964,207.3430611639707 388.47695390781564,207.31989192050617 389.47895791583164,207.29674474617346 390.4809619238477,207.27362889953375 391.48296593186376,207.25055362661743 392.48496993987976,207.2275281572261 393.48697394789576,207.20456170124044 394.4889779559118,207.18166344493662 395.4909819639279,207.15884254731185 396.4929859719439,207.13610813642097 397.4949899799599,207.1134693057252 398.496993987976,207.09093511045498 399.498997995992,207.06851456398786 400.501002004008,207.04621663424362 401.503006012024,207.02405024009678 402.5050100200401,207.00202424780946 403.5070140280561,206.98014746748495 404.5090180360721,206.95842864954363 405.5110220440881,206.93687648122312 406.51302605210424,206.9154995831034 407.5150300601203,206.8943065056587 408.5170340681363,206.87330572583738 409.5190380761523,206.85250564367144 410.52104208416836,206.83191457891638 411.5230460921844,206.81154076772353 412.5250501002004,206.79139235934574 413.5270541082164,206.77147741287772 414.5290581162325,206.75180389403252 415.53106212424854,206.73237967195539 416.53306613226454,206.71321251607614 417.53507014028054,206.6943100930016 418.5370741482966,206.67567996344897 419.53907815631266,206.65732957922165 420.54108216432866,206.63926628022867 421.5430861723447,206.6214972915488 422.5450901803608,206.60402972054055 423.5470941883768,206.58687055399946 424.54909819639283,206.5700266553634 425.55110220440883,206.55350476196716 426.5531062124249,206.53731148234786 427.55511022044095,206.52145329360144 428.55711422845695,206.50593653879196 429.55911823647295,206.4907674244144 430.561122244489,206.47595201791233 431.56312625250507,206.4614962452508 432.565130260521,206.44740588854611 433.567134268537,206.4336865837531 434.5691382765531,206.42034381841071 435.57114228456913,206.40738292944727 436.5731462925852,206.3948091010455 437.5751503006012,206.38262736256905 438.57715430861725,206.37084258655102 439.57915831663325,206.3594594867446 440.5811623246493,206.34848261623796 441.5831663326653,206.33791636563296 442.5851703406814,206.32776496128892 443.5871743486974,206.31803246363228 444.58917835671343,206.30872276553234 445.59118236472943,206.29983959074417 446.5931863727455,206.29138649241924 447.5951903807615,206.28336685168424 448.59719438877755,206.27578387628841 449.59919839679355,206.26864059932097 450.6012024048096,206.26193987799735 451.6032064128256,206.25568439251677 452.6052104208417,206.24987664499 453.60721442885773,206.24451895843865 454.60921843687373,206.23961347586587 455.6112224448898,206.2351621593993 456.61322645290585,206.23116678950618 457.61523046092185,206.2276289642812 458.6172344689379,206.22455009880727 459.6192384769539,206.2219314245895 460.62124248496997,206.21977398906273 461.62324649298597,206.21807865517235 462.62525050100203,206.21684610102932 463.62725450901803,206.2160768196389 464.6292585170341,206.21577111870332 465.6312625250501,206.21592912049897 466.63326653306615,206.21655076182716 467.63527054108215,206.21763579403967 468.6372745490982,206.2191837831381 469.6392785571142,206.22119410994745 470.64128256513027,206.22366597036378 471.64328657314627,206.22659837567588 472.6452905811623,206.22999015296074 473.6472945891784,206.2338399455527 474.64929859719444,206.23814621358594 475.65130260521045,206.24290723461075 476.6533066132265,206.2481211042822 477.6553106212425,206.25378573712197 478.65731462925856,206.25989886735238 479.65931863727457,206.26645804980288 480.6613226452906,206.2734606608879 481.6633266533066,206.28090389965644 482.6653306613227,206.2887847889122 483.6673346693387,206.29710017640454 484.66933867735474,206.30584673608936 485.67134268537075,206.31502096945943 486.6733466933868,206.32461920694365 487.6753507014028,206.33463760937505 488.67735470941886,206.34507216952625 489.67935871743487,206.35591871371227 490.6813627254509,206.3671729034601 491.683366733467,206.37883023724387 492.685370741483,206.39088605228548 493.68737474949904,206.40333552641968 494.689378757515,206.41617368002278 495.69138276553105,206.42939537800456 496.6933867735471,206.44299533186205 497.6953907815631,206.4569681017951 498.6973947895791,206.47130809888202 499.69939879759517,206.48600958731512 500.7014028056112,206.50106668669514 501.7034068136272,206.516473374383 502.7054108216432,206.5322234879091 503.7074148296593,206.54831072743798 504.70941883767534,206.56472865828837 505.71142284569135,206.5814707135068 506.7134268537074,206.5985301964944 507.71543086172346,206.61590028368548 508.7174348697395,206.63357402727672 509.7194388777555,206.65154435800633 510.7214428857715,206.66980408798165 511.7234468937876,206.68834591355414 512.7254509018037,206.70716241824078 513.7274549098197,206.72624607569054 514.7294589178357,206.74558925269497 515.7314629258517,206.76518421224114 516.7334669338677,206.78502311660645 517.7354709418837,206.80509803049372 518.7374749498997,206.82540092420504 519.7394789579158,206.84592367685363 520.7414829659319,206.86665807961208 521.7434869739479,206.8875958389957 522.7454909819639,206.90872858017994 523.7474949899799,206.93004785035006 524.7494989979959,206.95154512208228 525.7515030060121,206.97321179675453 526.7535070140281,206.9950392079858 527.7555110220442,207.01701862510262 528.7575150300602,207.03914125663124 529.7595190380762,207.06139825381396 530.7615230460922,207.08378071414876 531.7635270541082,207.1062796849498 532.7655310621243,207.12888616692885 533.7675350701403,207.15159111779448 534.7695390781563,207.1743854558691 535.7715430861724,207.1972600637214 536.7735470941884,207.22020579181319 537.7755511022044,207.24321346215922 538.7775551102204,207.26627387199807 539.7795591182364,207.2893777974733 540.7815631262525,207.31251599732278 541.7835671342685,207.33567921657507 542.7855711422847,207.3588581902513 543.7875751503007,207.38204364707104 544.7895791583167,207.4052263131607 545.7915831663327,207.428396915763 546.7935871743487,207.4515461869457 547.7955911823648,207.47466486730912 548.7975951903809,207.49774370968927 549.7995991983969,207.52077348285698 550.8016032064129,207.54374497521002 551.8036072144289,207.56664899845768 552.8056112224449,207.5894763912961 553.8076152304609,207.6122180230725 554.8096192384769,207.63486479743736 555.8116232464931,207.6574076559829 556.8136272545091,207.67983758186628 557.815631262525,207.7021456034162 558.8176352705411,207.72432279772147 559.8196392785571,207.74636029420006 560.8216432865731,207.76824927814724 561.8236472945891,207.78998099426124 562.8256513026053,207.8115467501454 563.8276553106213,207.83293791978488 564.8296593186373,207.85414594699705 565.8316633266533,207.87516234885376 566.8336673346694,207.89597871907452 567.8356713426854,207.9165867313888 568.8376753507014,207.93697814286642 569.8396793587174,207.95714479721465 570.8416833667335,207.9770786280407 571.8436873747495,207.99677166207795 572.8456913827655,208.0162160223754 573.8476953907816,208.0354039314482 574.8496993987976,208.0543277143885 575.8517034068136,208.0729798019355 576.8537074148296,208.0913527335028 577.8557114228456,208.10943916016276 578.8577154308617,208.12723184758596 579.8597194388778,208.14472367893453 580.8617234468938,208.16190765770924 581.8637274549098,208.17877691054767 582.8657314629259,208.1953246899736 583.8677354709419,208.2115443770959 584.8697394789579,208.22742948425596 585.8717434869739,208.24297365762277 586.8737474949901,208.25817067973415 587.8757515030061,208.27301447198394 588.8777555110221,208.2874990970532 589.8797595190381,208.30161876128489 590.8817635270541,208.31536781700174 591.8837675350701,208.32874076476463 592.8857715430861,208.34173225557288 593.8877755511022,208.3543370930033 594.8897795591183,208.36655023528903 595.8917835671343,208.37836679733596 596.8937875751503,208.38978205267685 597.8957915831663,208.40079143536175 598.8977955911824,208.4113905417844 599.8997995991984,208.42157513244354 600.9018036072144,208.43134113363865 601.9038076152304,208.44068463909957 602.9058116232466,208.4496019115486 603.9078156312626,208.45808938419566 604.9098196392786,208.4661436621649 605.9118236472946,208.47376152385252 606.9138276553107,208.48093992221536 607.9158316633267,208.48767598598988 608.9178356713427,208.49396702084027 609.9198396793587,208.49981051043656 610.9218436873748,208.50520411746078 611.9238476953908,208.510145684542 612.9258517034068,208.5146332351194 613.9278557114228,208.51866497423245 614.9298597194389,208.5222392892393 615.931863727455,208.52535475046164 616.933867735471,208.5280101117565 617.935871743487,208.53020431101473 618.937875751503,208.53193647058592 619.939879759519,208.53320589762936 620.941883767535,208.53401208439112 621.943887775551,208.53435470840725 622.945891783567,208.5342336326327 623.947895791583,208.53364890549616 624.9498997995993,208.53260076088077 625.9519038076153,208.53108961803028 626.9539078156313,208.52911608138177 627.9559118236473,208.52668094032356 628.9579158316633,208.52378516887958 629.9599198396794,208.52042992531986 630.9619238476954,208.516616551697 631.9639278557114,208.51234657330969 632.9659318637275,208.5076216980923 633.9679358717435,208.5024438159319 634.9699398797595,208.49681499791245 635.9719438877755,208.49073749548592 636.9739478957915,208.48421373957237 637.9759519038076,208.47724633958714 638.9779559118236,208.46983808239733 639.9799599198396,208.46199193120708 640.9819639278558,208.45371102437218 641.9839679358718,208.44499867414504 642.9859719438878,208.4358583653495 643.9879759519038,208.42629375398727 644.9899799599198,208.41630866577535 645.9919839679359,208.40590709461588 646.993987975952,208.39509320099867 647.995991983968,208.38387131033693 648.997995991984,208.37224591123734 650,208.36022165370457 "/><text class="poloto_text" alignment-baseline="middle" text-anchor="start" font-size="large" x="675" y="150">test2</text><line class="poloto1stroke" stroke="black" x1="680" x2="730" y1="131.25" y2="131.25"/><polyline class="poloto1stroke" fill="none" stroke="black" points="150,207.3750665893209 151.00200400801603,207.35188210798805 152.00400801603206,207.32870690013863 153.0060120240481,207.30555023554672 154.00801603206412,207.28242137656946 155.01002004008015,207.2593295744421 156.01202404809618,207.23628406557745 157.01402805611224,207.21329406787197 158.01603206412827,207.1903687770181 159.0180360721443,207.16751736282654 160.02004008016033,207.1447489655583 161.02204408817636,207.12207269226872 162.0240480961924,207.09949761316474 163.02605210420842,207.07703275797704 164.02805611222445,207.05468711234812 165.03006012024048,207.03246961423832 166.0320641282565,207.01038915035065 167.03406813627254,206.9884545525763 168.03607214428857,206.96667459446184 169.0380761523046,206.9450579877002 170.04008016032066,206.92361337864583 171.0420841683367,206.90234934485645 172.04408817635272,206.88127439166203 173.04609218436875,206.86039694876288 174.04809619238478,206.83972536685775 175.0501002004008,206.81926791430385 176.05210420841684,206.7990327738094 177.05410821643287,206.77902803916078 178.0561122244489,206.75926171198518 179.05811623246493,206.73974169854986 180.06012024048096,206.7204758066 181.06212424849699,206.70147174223544 182.06412825651302,206.68273710682857 183.06613226452907,206.66427939398378 184.0681362725451,206.64610598654008 185.07014028056113,206.62822415361816 186.07214428857716,206.61064104771273 187.0741482965932,206.59336370183178 188.07615230460922,206.57639902668322 189.07815631262525,206.55975380791097 190.08016032064128,206.54343470338057 191.0821643286573,206.5274482405163 192.08416833667334,206.51180081369012 193.08617234468937,206.49649868166412 194.0881763527054,206.4815479650871 195.09018036072143,206.46695464404635 196.09218436873746,206.45272455567573 197.0941883767535,206.4388633918208 198.09619238476955,206.42537669676238 199.09819639278558,206.4122698649986 200.1002004008016,206.39954813908741 201.10220440881764,206.3872166075496 202.10420841683367,206.37528020283332 203.1062124248497,206.3637436993413 204.10821643286573,206.35261171152123 205.11022044088176,206.3418886920197 206.1122244488978,206.33157892990155 207.11422845691385,206.32168654893414 208.11623246492985,206.31221550593807 209.11823647294588,206.30316958920417 210.1202404809619,206.29455241697858 211.12224448897797,206.2863674360152 212.124248496994,206.27861792019743 213.12625250501003,206.27130696922814 214.12825651302606,206.26443750739026 215.1302605210421,206.25801228237702 216.13226452905812,206.25203386419267 217.13426853707415,206.2465046441248 218.1362725450902,206.24142683378773 219.1382765531062,206.23680246423788 220.14028056112227,206.23263338516136 221.14228456913827,206.2289212641343 222.14428857715433,206.2256675859556 223.14629258517033,206.22287365205312 224.1482965931864,206.22054057996317 225.1503006012024,206.21866930288348 226.15230460921845,206.21726056929995 227.15430861723448,206.21631494268723 228.1563126252505,206.21583280128334 229.15831663326654,206.21581433793844 230.16032064128257,206.21625956003757 231.16232464929863,206.21716828949786 232.16432865731463,206.21854016283967 233.16633266533069,206.2203746313319 234.1683366733467,206.22267096121166 235.17034068136275,206.22542823397757 236.17234468937875,206.22864534675733 237.17434869739478,206.23232101274868 238.1763527054108,206.23645376173425 239.17835671342687,206.2410419406696 240.18036072144287,206.24608371434425 241.18236472945893,206.25157706611597 242.18436873747493,206.25751979871734 243.18637274549098,206.26390953513453 244.18837675350701,206.27074371955817 245.19038076152304,206.27801961840558 246.19238476953907,206.28573432141425 247.1943887775551,206.2938847428059 248.19639278557116,206.30246762252054 249.19839679358716,206.3114795275208 250.20040080160322,206.32091685316476 251.20240480961922,206.33077582464807 252.20440881763528,206.34105249851356 253.2064128256513,206.35174276422873 254.20841683366734,206.36284234582976 255.21042084168337,206.37434680363205 256.2124248496994,206.38625153600586 257.21442885771546,206.398551781217 258.21643286573146,206.41124261933135 259.2184368737475,206.42431897418288 260.2204408817635,206.43777561540398 261.2224448897796,206.4516071605176 262.2244488977956,206.46580807709012 263.22645290581164,206.48037268494423 264.2284569138277,206.49529515843102 265.2304609218437,206.51056952876004 266.2324649298597,206.52618968638683 267.23446893787576,206.54214938345655 268.23647294589176,206.55844223630322 269.2384769539078,206.5750617280029 270.2404809619238,206.59200121098053 271.2424849699399,206.60925390966875 272.24448897795594,206.62681292321815 273.24649298597194,206.64467122825738 274.248496993988,206.6628216817026 275.250501002004,206.68125702361436 276.25250501002006,206.69996988010175 277.25450901803606,206.71895276627168 278.2565130260521,206.73819808922272 279.2585170340682,206.75769815108237 280.2605210420842,206.77744515208582 281.2625250501002,206.79743119369599 282.26452905811624,206.8176482817627 283.2665330661323,206.8380883297203 284.2685370741483,206.85874316182216 285.2705410821643,206.87960451641072 286.2725450901804,206.90066404922243 287.2745490981964,206.92191333672488 288.2765531062124,206.9433438794864 289.2785571142285,206.96494710557565 290.28056112224453,206.98671437399017 291.28256513026054,207.00863697811292 292.28456913827654,207.03070614919443 293.2865731462926,207.05291305986063 294.28857715430865,207.07524882764326 295.29058116232466,207.09770451853305 296.29258517034066,207.12027115055304 297.2945891783567,207.1429396973513 298.2965931863728,207.1657010918114 299.2985971943888,207.18854622967896 300.3006012024048,207.2114659732035 301.30260521042084,207.23445115479316 302.3046092184369,207.2574925806818 303.3066132264529,207.28058103460623 304.30861723446895,207.3037072814928 305.310621242485,207.32686207115103 306.312625250501,207.35003614197382 307.314629258517,207.37322022464178 308.3166332665331,207.39640504583105 309.31863727454913,207.4195813319222 310.32064128256513,207.44273981270982 311.32264529058114,207.46587122511036 312.32464929859725,207.48896631686733 313.32665330661325,207.51201585025194 314.32865731462925,207.53501060575812 315.3306613226453,207.5579413857903 316.33266533066137,207.58079901834216 317.3346693386774,207.60357436066548 318.3366733466934,207.62625830292703 319.33867735470943,207.6488417718523 320.3406813627255,207.6713157343548 321.3426853707415,207.69367120114927 322.3446893787575,207.715899230347 323.34669338677355,207.7379909310327 324.34869739478955,207.75993746682062 325.3507014028056,207.7817300593891 326.3527054108216,207.80335999199167 327.3547094188377,207.82481861294366 328.35671342685373,207.8460973390828 329.35871743486973,207.8671876592024 330.36072144288573,207.88808113745554 331.36272545090185,207.90876941672957 332.36472945891785,207.92924422198854 333.36673346693385,207.9494973635834 334.36873747494985,207.96952074052749 335.37074148296597,207.9893063437371 336.37274549098197,208.00884625923467 337.37474949899797,208.02813267131458 338.37675350701403,208.0471578656691 339.3787575150301,208.06591423247417 340.3807615230461,208.0843942694332 341.38276553106215,208.10259058477772 342.38476953907815,208.12049590022428 343.3867735470942,208.13810305388537 344.3887775551102,208.15540500313432 345.39078156312627,208.17239482742215 346.3927855711423,208.18906573104562 347.3947895791583,208.2054110458656 348.39679358717433,208.22142423397406 349.39879759519044,208.23709889030926 350.40080160320645,208.25242874521768 351.40280561122245,208.26740766696176 352.40480961923845,208.2820296641725 353.40681362725456,208.29628888824598 354.40881763527057,208.31017963568272 355.41082164328657,208.32369635036886 356.4128256513026,208.33683362579885 357.4148296593186,208.34958620723762 358.4168336673347,208.36194899382266 359.4188376753507,208.37391704060414 360.42084168336675,208.38548556052297 361.42284569138275,208.39664992632538 362.4248496993988,208.4074056724139 363.4268537074148,208.41774849663352 364.42885771543087,208.42767426199245 365.4308617234469,208.4371789983169 366.4328657314629,208.44625890383907 367.4348697394789,208.4549103467178 368.43687374749504,208.46312986649133 369.43887775551104,208.47091417546125 370.44088176352705,208.47826016000786 371.44288577154305,208.48516488183523 372.44488977955916,208.49162557914673 373.44689378757516,208.49763966774955 374.4488977955912,208.5032047420884 375.4509018036072,208.50831857620784 376.4529058116233,208.5129791246423 377.4549098196393,208.51718452323462 378.45691382765534,208.52093308988142 379.45891783567134,208.524223325206 380.4609218436874,208.5270539131581 381.4629258517034,208.52942372154033 382.46492985971946,208.53133180246084 383.4669338677355,208.5327773927128 384.4689378757515,208.53375991407933 385.4709418837675,208.53427897356497 386.4729458917835,208.53433436355292 387.47494989979964,208.53392606188785 388.47695390781564,208.533054231885 389.47895791583164,208.53171922226477 390.4809619238477,208.52992156701316 391.48296593186376,208.52766198516835 392.48496993987976,208.52494138053297 393.48697394789576,208.52176084131253 394.4889779559118,208.51812163968034 395.4909819639279,208.51402523126856 396.4929859719439,208.5094732545859 397.4949899799599,208.50446753036235 398.496993987976,208.4990100608209 399.498997995992,208.4931030288765 400.501002004008,208.48674879726326 401.503006012024,208.4799499075891 402.5050100200401,208.47270907931917 403.5070140280561,208.4650292086883 404.5090180360721,208.45691336754234 405.5110220440881,208.44836480210952 406.51302605210424,208.43938693170202 407.5150300601203,208.42998334734833 408.5170340681363,208.42015781035678 409.5190380761523,208.40991425081117 410.52104208416836,208.39925676599879 411.5230460921844,208.38818961877138 412.5250501002004,208.37671723584037 413.5270541082164,208.36484420600587 414.5290581162325,208.35257527832155 415.53106212424854,208.33991536019494 416.53306613226454,208.32686951542445 417.53507014028054,208.31344296217407 418.5370741482966,208.29964107088603 419.53907815631266,208.28546936213286 420.54108216432866,208.27093350440913 421.5430861723447,208.2560393118641 422.5450901803608,208.24079274197618 423.5470941883768,208.2251998931701 424.54909819639283,208.2092670023774 425.55110220440883,208.193000442542 426.5531062124249,208.17640672007096 427.55511022044095,208.15949247223202 428.55711422845695,208.14226446449877 429.55911823647295,208.12472958784466 430.561122244489,208.10689485598647 431.56312625250507,208.0887674025792 432.565130260521,208.07035447836253 433.567134268537,208.0516634482606 434.5691382765531,208.0327017884363 435.57114228456913,208.01347708330067 436.5731462925852,207.9939970224795 437.5751503006012,207.97426939773734 438.57715430861725,207.9543020998611 439.57915831663325,207.93410311550366 440.5811623246493,207.91368052398948 441.5831663326653,207.89304249408283 442.5851703406814,207.8721972807206 443.5871743486974,207.85115322171006 444.58917835671343,207.82991873439434 445.59118236472943,207.80850231228519 446.5931863727455,207.7869125216659 447.5951903807615,207.7651579981649 448.59719438877755,207.74324744330153 449.59919839679355,207.72118962100555 450.6012024048096,207.6989933541118 451.6032064128256,207.67666752083113 452.6052104208417,207.65422105119916 453.60721442885773,207.6316629235044 454.60921843687373,207.60900216069726 455.6112224448898,207.58624782678064 456.61322645290585,207.5634090231847 457.61523046092185,207.5404948851265 458.6172344689379,207.5175145779556 459.6192384769539,207.49447729348856 460.62124248496997,207.47139224633196 461.62324649298597,207.44826867019688 462.62525050100203,207.42511581420547 463.62725450901803,207.40194293919143 464.6292585170341,207.37875931399577 465.6312625250501,207.35557421175946 466.63326653306615,207.3323969062143 467.63527054108215,207.30923666797347 468.6372745490982,207.28610276082344 469.6392785571142,207.26300443801864 470.64128256513027,207.23995093858025 471.64328657314627,207.21695148360064 472.6452905811623,207.1940152725551 473.6472945891784,207.17115147962232 474.64929859719444,207.14836925001455 475.65130260521045,207.12567769631994 476.6533066132265,207.10308589485737 477.6553106212425,207.08060288204626 478.65731462925856,207.05823765079188 479.65931863727457,207.03599914688863 480.6613226452906,207.01389626544147 481.6633266533066,206.99193784730835 482.6653306613227,206.97013267556372 483.6673346693387,206.94848947198557 484.66933867735474,206.92701689356667 485.67134268537075,206.9057235290522 486.6733466933868,206.884617895504 487.6753507014028,206.86370843489414 488.67735470941886,206.84300351072798 489.67935871743487,206.82251140469916 490.6813627254509,206.80224031337693 491.683366733467,206.78219834492748 492.685370741483,206.762393515871 493.68737474949904,206.742833747875 494.689378757515,206.72352686458595 495.69138276553105,206.7044805884997 496.6933867735471,206.68570253787277 497.6953907815631,206.667200223675 498.6973947895791,206.6489810465854 499.69939879759517,206.63105229403186 500.7014028056112,206.61342113727642 501.7034068136272,206.59609462854667 502.7054108216432,206.57907969821503 503.7074148296593,206.56238315202683 504.70941883767534,206.5460116683779 505.71142284569135,206.52997179564343 506.7134268537074,206.51426994955867 507.71543086172346,206.4989124106527 508.7174348697395,206.48390532173624 509.7194388777555,206.4692546854449 510.7214428857715,206.4549663618377 511.7234468937876,206.4410460660537 512.7254509018037,206.42749936602556 513.7274549098197,206.41433168025267 514.7294589178357,206.4015482756338 515.7314629258517,206.3891542653603 516.7334669338677,206.37715460687104 517.7354709418837,206.36555409986948 518.7374749498997,206.35435738440373 519.7394789579158,206.34356893901068 520.7414829659319,206.33319307892458 521.7434869739479,206.32323395435122 522.7454909819639,206.31369554880757 523.7474949899799,206.30458167752872 524.7494989979959,206.29589598594166 525.7515030060121,206.28764194820718 526.7535070140281,206.27982286583034 527.7555110220442,206.27244186633985 528.7575150300602,206.26550190203707 529.7595190380762,206.2590057488152 530.7615230460922,206.252956005049 531.7635270541082,206.24735509055515 532.7655310621243,206.24220524562486 533.7675350701403,206.23750853012746 534.7695390781563,206.2332668226865 535.7715430861724,206.2294818199284 536.7735470941884,206.22615503580377 537.7755511022044,206.22328780098192 538.7775551102204,206.22088126231858 539.7795591182364,206.21893638239712 540.7815631262525,206.21745393914358 541.7835671342685,206.21643452551544 542.7855711422847,206.21587854926463 543.7875751503007,206.2157862327742 544.7895791583167,206.2161576129695 545.7915831663327,206.21699254130345 546.7935871743487,206.21829068381584 547.7955911823648,206.22005152126695 548.7975951903809,206.22227434934524 549.7995991983969,206.22495827894923 550.8016032064129,206.22810223654278 551.8036072144289,206.23170496458476 552.8056112224449,206.23576502203204 553.8076152304609,206.24028078491574 554.8096192384769,206.24525044699092 555.8116232464931,206.25067202045904 556.8136272545091,206.25654333676295 557.815631262525,206.26286204745443 558.8176352705411,206.2696256251335 559.8196392785571,206.2768313644592 560.8216432865731,206.28447638323192 561.8236472945891,206.29255762354606 562.8256513026053,206.30107185301324 563.8276553106213,206.3100156660552 564.8296593186373,206.31938548526603 565.8316633266533,206.3291775628429 566.8336673346694,206.3393879820853 567.8356713426854,206.3500126589618 568.8376753507014,206.36104734374317 569.8396793587174,206.37248762270278 570.8416833667335,206.38432891988143 571.8436873747495,206.39656649891822 572.8456913827655,206.40919546494467 573.8476953907816,206.42221076654275 574.8496993987976,206.4356071977654 575.8517034068136,206.4493794002187 576.8537074148296,206.4635218652053 577.8557114228456,206.47802893592777 578.8577154308617,206.49289480975128 579.8597194388778,206.50811354052448 580.8617234468938,206.52367904095797 581.8637274549098,206.53958508505914 582.8657314629259,206.5558253106224 583.8677354709419,206.57239322177404 584.8697394789579,206.5892821915706 585.8717434869739,206.60648546464918 586.8737474949901,206.62399615993007 587.8757515030061,206.64180727336858 588.8777555110221,206.6599116807568 589.8797595190381,206.67830214057318 590.8817635270541,206.69697129687898 591.8837675350701,206.71591168226064 592.8857715430861,206.73511572081645 593.8877755511022,206.75457573118715 594.8897795591183,206.77428392962798 595.8917835671343,206.79423243312237 596.8937875751503,206.81441326253486 597.8957915831663,206.8348183458028 598.8977955911824,206.85543952116495 599.8997995991984,206.87626854042608 600.9018036072144,206.8972970722562 601.9038076152304,206.91851670552302 602.9058116232466,206.93991895265606 603.9078156312626,206.9614952530419 604.9098196392786,206.983236976448 605.9118236472946,207.00513542647496 606.9138276553107,207.02718184403474 607.9158316633267,207.0493674108542 608.9178356713427,207.07168325300245 609.9198396793587,207.09412044444014 610.9218436873748,207.11667001058993 611.9238476953908,207.13932293192596 612.9258517034068,207.16207014758172 613.9278557114228,207.1849025589743 614.9298597194389,207.2078110334435 615.931863727455,207.230786407905 616.933867735471,207.25381949251536 617.935871743487,207.27690107434785 618.937875751503,207.30002192107747 619.939879759519,207.32317278467377 620.941883767535,207.3463444051001 621.943887775551,207.3695275140171 622.945891783567,207.39271283849038 623.947895791583,207.41589110469928 624.9498997995993,207.43905304164633 625.9519038076153,207.4621893848656 626.9539078156313,207.4852908801283 627.9559118236473,207.5083482871443 628.9579158316633,207.53135238325822 629.9599198396794,207.55429396713836 630.9619238476954,207.57716386245704 631.9639278557114,207.59995292156106 632.9659318637275,207.62265202913062 633.9679358717435,207.64525210582534 634.9699398797595,207.6677441119159 635.9719438877755,207.69011905089974 636.9739478957915,207.7123679730996 637.9759519038076,207.73448197924324 638.9779559118236,207.756452224023 639.9799599198396,207.77826991963403 640.9819639278558,207.79992633928885 641.9839679358718,207.82141282070842 642.9859719438878,207.84272076958666 643.9879759519038,207.86384166302807 644.9899799599198,207.88476705295693 645.9919839679359,207.90548856949624 646.993987975952,207.9259979243157 647.995991983968,207.9462869139468 648.997995991984,207.9663474230642 650,207.9861714277318 "/><text class="poloto_text" alignment-baseline="middle" text-anchor="start" font-size="large" x="675" y="200">test3</text><line class="poloto2stroke" stroke="black" x1="680" x2="730" y1="181.25" y2="181.25"/><polyline class="poloto2stroke" fill="none" stroke="black" points="150,207.3750665893209 151.00200400801603,207.35187747031887 152.00400801603206,207.32866978764602 153.0060120240481,207.3054249181406 154.00801603206412,207.2821241192532 155.01002004008015,207.25874846833446 156.01202404809618,207.23527880068622 157.01402805611224,207.21169564594322 158.01603206412827,207.18797916232916 159.0180360721443,207.16410906830842 160.02004008016033,207.1400645711214 161.02204408817636,207.11582429165355 162.0240480961924,207.09136618504283 163.02605210420842,207.06666745637543 164.02805611222445,207.04170447075686 165.03006012024048,207.0164526569711 166.0320641282565,206.99088640385446 167.03406813627254,206.96497894840965 168.03607214428857,206.9387022545707 169.0380761523046,206.91202688139262 170.04008016032066,206.88492183928318 171.0420841683367,206.8573544327124 172.04408817635272,206.82929008762156 173.04609218436875,206.80069216150633 174.04809619238478,206.77152173386028 175.0501002004008,206.74173737432395 176.05210420841684,206.7112948854903 177.05410821643287,206.68014701684746 178.0561122244489,206.64824314579025 179.05811623246493,206.61552892097976 180.06012024048096,206.5819458625575 181.06212424849699,206.54743091280028 182.06412825651302,206.51191592970576 183.06613226452907,206.4753271146809 184.0681362725451,206.43758436392622 185.07014028056113,206.39860053119935 186.07214428857716,206.35828058732847 187.0741482965932,206.3165206590325 188.07615230460922,206.27320692616576 189.07815631262525,206.22821435228295 190.08016032064128,206.1814052182117 191.0821643286573,206.1326274218629 192.08416833667334,206.08171249946173 193.08617234468937,206.02847331329542 194.0881763527054,205.97270133836042 195.09018036072143,205.9141634641652 196.09218436873746,205.85259820735848 197.0941883767535,205.78771120439131 198.09619238476955,205.71916981916274 199.09819639278558,205.6465966559011 200.1002004008016,205.56956170874102 201.10220440881764,205.4875728014487 202.10420841683367,205.40006386629108 203.1062124248497,205.30638046977256 204.10821643286573,205.2057617998837 205.11022044088176,205.0973180626048 206.1122244488978,204.98000186193312 207.11422845691385,204.85257160818057 208.11623246492985,204.71354423774443 209.11823647294588,204.5611334152405 210.1202404809619,204.39316773661707 211.12224448897797,204.20698095178062 212.124248496994,203.99926236478038 213.12625250501003,203.7658494732828 214.12825651302606,203.50143503919736 215.1302605210421,203.19914435187593 216.13226452905812,202.84991022252075 217.13426853707415,202.44152301445433 218.1362725450902,201.95713988488725 219.1382765531062,201.37285642554352 220.14028056112227,200.65357216007075 221.14228456913827,199.7455659070439 222.14428857715433,198.56225935905744 223.14629258517033,196.95456164535918 224.1482965931864,194.64202010230017 225.1503006012024,191.02727138150732 226.15230460921845,184.57215639662206 227.15430861723448,169.74282436493363 228.1563126252505,100 229.15831663326654,333.3322352062489 230.16032064128257,247.0608880670303 231.16232464929863,230.9173261120489 232.16432865731463,224.10033590472017 233.16633266533069,220.33669372985054 234.1683366733467,217.94878866494463 235.17034068136275,216.29774785427637 236.17234468937875,215.08724850619575 237.17434869739478,214.1610695275471 238.1763527054108,213.42904343351458 239.17835671342687,212.8354825150276 240.18036072144287,212.34413554311615 241.18236472945893,211.93038832858085 242.18436873747493,211.57694095306562 243.18637274549098,211.2712786569505 244.18837675350701,211.004124259307 245.19038076152304,210.7684546950946 246.19238476953907,210.55885550812425 247.1943887775551,210.37108514881007 248.19639278557116,210.20177360806204 249.19839679358716,210.04820942716287 250.20040080160322,209.90818625665432 251.20240480961922,209.77989040501907 252.20440881763528,209.66181714669574 253.2064128256513,209.5527075590847 254.20841683366734,209.45150024430848 255.21042084168337,209.35729399797256 256.2124248496994,209.26931863436212 257.21442885771546,209.18691196192023 258.21643286573146,209.10950144762984 259.2184368737475,209.03658949273407 260.2204408817635,208.96774151624084 261.2224448897796,208.90257624069864 262.2244488977956,208.84075771950035 263.22645290581164,208.7819887519328 264.2284569138277,208.72600541200475 265.2304609218437,208.67257247719644 266.2324649298597,208.62147958894434 267.23446893787576,208.572538011657 268.23647294589176,208.5255778840619 269.2384769539078,208.48044587767896 270.2404809619238,208.43700319365664 271.2424849699399,208.39512384215942 272.24448897795594,208.3546931587677 273.24649298597194,208.31560652054299 274.248496993988,208.27776823098125 275.250501002004,208.2410905483746 276.25250501002006,208.2054928363938 277.25450901803606,208.17090081919957 278.2565130260521,208.13724592624854 279.2585170340682,208.1044647143101 280.2605210420842,208.0724983561465 281.2625250501002,208.04129218691457 282.26452905811624,208.01079530068142 283.2665330661323,207.98096019056064 284.2685370741483,207.95174242690797 285.2705410821643,207.92310036879869 286.2725450901804,207.89499490467009 287.2745490981964,207.86738921857008 288.2765531062124,207.84024857892723 289.2785571142285,207.8135401471589 290.28056112224453,207.78723280377847 291.28256513026054,207.76129698995433 292.28456913827654,207.73570456272506 293.2865731462926,207.7104286622896 294.28857715430865,207.68544358997676 295.29058116232466,207.66072469565668 296.29258517034066,207.6362482734939 297.2945891783567,207.61199146505948 298.2965931863728,207.58793216892164 299.2985971943888,207.56404895592053 300.3006012024048,207.540320989409 301.30260521042084,207.51672794980493 302.3046092184369,207.4932499628553 303.3066132264529,207.4698675310587 304.30861723446895,207.44656146773255 305.310621242485,207.42331283324165 306.312625250501,207.40010287293336 307.314629258517,207.37691295634173 308.3166332665331,207.35372451724146 309.31863727454913,207.33051899413925 310.32064128256513,207.3072777707978 311.32264529058114,207.2839821163864 312.32464929859725,207.26061312484845 313.32665330661325,207.23715165306746 314.32865731462925,207.21357825739744 315.3306613226453,207.18987312810575 316.33266533066137,207.16601602125039 317.3346693386774,207.14198618748304 318.3366733466934,207.11776229723145 319.33867735470943,207.09332236166918 320.3406813627255,207.06864364882753 321.3426853707415,207.0437025941425 322.3446893787575,207.0184747046555 323.34669338677355,206.9929344560011 324.34869739478955,206.96705518121783 325.3507014028056,206.94080895030007 326.3527054108216,206.91416643927838 327.3547094188377,206.8870967874586 328.35671342685373,206.85956744126997 329.35871743486973,206.83154398296324 330.36072144288573,206.80298994215457 331.36272545090185,206.77386658792494 332.36472945891785,206.74413269885116 333.36673346693385,206.71374430795152 334.36873747494985,206.68265441906829 335.37074148296597,206.65081269066533 336.37274549098197,206.6181650823762 337.37474949899797,206.58465345887603 338.37675350701403,206.55021514474245 339.3787575150301,206.51478242289025 340.3807615230461,206.47828196786594 341.38276553106215,206.4406342037324 342.38476953907815,206.40175257439213 343.3867735470942,206.36154271192117 344.3887775551102,206.31990148571597 345.39078156312627,206.27671591187067 346.3927855711423,206.23186189805028 347.3947895791583,206.18520279400346 348.39679358717433,206.13658771151262 349.39879759519044,206.0858495696731 350.40080160320645,206.032802811488 351.40280561122245,205.97724072528726 352.40480961923845,205.91893228865874 353.40681362725456,205.85761843239433 354.40881763527057,205.79300759602353 355.41082164328657,205.72477041295406 356.4128256513026,205.652533319492 357.4148296593186,205.57587082450752 358.4168336673347,205.49429610026976 359.4188376753507,205.40724945295028 360.42084168336675,205.31408409343456 361.42284569138275,205.21404844081974 362.4248496993988,205.1062639309821 363.4268537074148,204.98969693915512 364.42885771543087,204.86312291071548 365.4308617234469,204.72508005495735 366.4328657314629,204.5738088780257 367.4348697394789,204.4071722312058 368.43687374749504,204.22254813352973 369.43887775551104,204.01668390140574 370.44088176352705,203.78549424463674 371.44288577154305,203.52377649912032 372.44488977955916,203.22480040687805 373.44689378757516,202.879702854884 374.4488977955912,202.47657007240093 375.4509018036072,201.99900126948498 376.4529058116233,201.42377636531424 377.4549098196393,200.71690022255115 378.45691382765534,199.82653188121438 379.45891783567134,198.66950471070936 380.4609218436874,197.10345385513537 381.4629258517034,194.86274123942184 382.46492985971946,191.38816276297146 383.4669338677355,185.26658993952887 384.4689378757515,171.59450409860824 385.4709418837675,113.80465136928274 386.4729458917835,359.6909224368254 387.47494989979964,249.351304631962 388.47695390781564,231.7060987149795 389.47895791583164,224.49556461529838 390.4809619238477,220.57356252946482 391.48296593186376,218.10652274885805 392.48496993987976,216.41034899667284 393.48697394789576,215.17170052435023 394.4889779559118,214.22679213568415 395.4909819639279,213.4816784214141 396.4929859719439,212.87861402459174 397.4949899799599,212.38014928642494 398.496993987976,211.96093363621642 399.498997995992,211.60319443936652 400.501002004008,211.29410220602446 401.503006012024,211.02416363947293 402.5050100200401,210.78620329126034 403.5070140280561,210.57469676227439 404.5090180360721,210.3853215679269 405.5110220440881,210.21464705002438 406.51302605210424,210.0599155776834 407.5150300601203,209.91888514921118 408.5170340681363,209.78971419046283 409.5190380761523,209.67087591628336 410.52104208416836,209.56109376704163 411.5230460921844,209.45929210769515 412.5250501002004,209.36455813950386 413.5270541082164,209.27611215779694 414.5290581162325,209.1932840972417 415.53106212424854,209.11549486658194 416.53306613226454,209.04224136928502 417.53507014028054,208.9730843878702 418.5370741482966,208.90763871283218 419.53907815631266,208.84556504544253 420.54108216432866,208.78656331324066 421.5430861723447,208.73036711869494 422.5450901803608,208.676739102979 423.5470941883768,208.62546705347236 424.54909819639283,208.57636061931913 425.55110220440883,208.5292485269365 426.5531062124249,208.48397620877978 427.55511022044095,208.44040377543098 428.55711422845695,208.39840427427578 429.55911823647295,208.35786218849486 430.561122244489,208.31867213843466 431.56312625250507,208.2807377541086 432.565130260521,208.24397069296597 433.567134268537,208.20828978143203 434.5691382765531,208.17362026227275 435.57114228456913,208.1398931327442 436.5731462925852,208.10704456087052 437.5751503006012,208.07501536916234 438.57715430861725,208.0437505767169 439.57915831663325,208.0131989919944 440.5811623246493,207.98331284969584 441.5831663326653,207.95404748611224 442.5851703406814,207.9253610481108 443.5871743486974,207.89721423159187 444.58917835671343,207.86957004581745 445.59118236472943,207.84239360049094 446.5931863727455,207.81565191287544 447.5951903807615,207.7893137325861 448.59719438877755,207.76334938198752 449.59919839679355,207.73773061038185 450.6012024048096,207.71243046039106 451.6032064128256,207.6874231451232 452.6052104208417,207.66268393487397 453.60721442885773,207.63818905225287 454.60921843687373,207.61391557474315 455.6112224448898,207.58984134380628 456.61322645290585,207.56594487973157 457.61523046092185,207.54220530150636 458.6172344689379,207.51860225104735 459.6192384769539,207.4951158211901 460.62124248496997,207.47172648687945 461.62324649298597,207.4484150390439 462.62525050100203,207.42516252066943 463.62725450901803,207.40195016461453 464.6292585170341,207.37875933272937 465.6312625250501,207.3555714558569 466.63326653306615,207.33236797430445 467.63527054108215,207.3091302783798 468.6372745490982,207.2858396485865 469.6392785571142,207.2624771950692 470.64128256513027,207.2390237958907 471.64328657314627,207.21546003370867 472.6452905811623,207.1917661304025 473.6472945891784,207.16792187917252 474.64929859719444,207.14390657360778 475.65130260521045,207.11969893317738 476.6533066132265,207.09527702455873 477.6553106212425,207.07061817816157 478.65731462925856,207.04569889914538 479.65931863727457,207.0204947721561 480.6613226452906,206.99498035892228 481.6633266533066,206.96912908775488 482.6653306613227,206.94291313387913 483.6673346693387,206.9163032893969 484.66933867735474,206.8892688215226 485.67134268537075,206.8617773175594 486.6733466933868,206.83379451487383 487.6753507014028,206.80528411388536 488.67735470941886,206.7762075718058 489.67935871743487,206.7465238745326 490.6813627254509,206.716189283713 491.683366733467,206.68515705554063 492.685370741483,206.65337712730985 493.68737474949904,206.62079576711807 494.689378757515,206.5873551813551 495.69138276553105,206.55299307372337 496.6933867735471,206.51764214846642 497.6953907815631,206.48122954920484 498.6973947895791,206.4436762232443 499.69939879759517,206.40489619936713 500.7014028056112,206.3647957648784 501.7034068136272,206.32327252494892 502.7054108216432,206.28021432396906 503.7074148296593,206.23549800454128 504.70941883767534,206.18898797470447 505.71142284569135,206.14053454774523 506.7134268537074,206.08997201118376 507.71543086172346,206.03711637179615 508.7174348697395,205.9817627112855 509.7194388777555,205.9236820716942 510.7214428857715,205.8626177698577 511.7234468937876,205.7982810147876 512.7254509018037,205.7303456690097 513.7274549098197,205.65844195206344 514.7294589178357,205.5821488281171 515.7314629258517,205.50098474513064 516.7334669338677,205.4143962933459 517.7354709418837,205.32174421634224 518.7374749498997,205.22228602431943 519.7394789579158,205.11515420598607 520.7414829659319,204.99932868171825 521.7434869739479,204.87360164023266 522.7454909819639,204.7365321830175 523.7474949899799,204.5863871547207 524.7494989979959,204.4210629881918 525.7515030060121,204.23798105543634 526.7535070140281,204.03394541854863 527.7555110220442,203.8049462152808 528.7575150300602,203.54588278934352 529.7595190380762,203.2501655563294 530.7615230460922,202.9091297617732 531.7635270541082,202.51114857933044 532.7655310621243,202.0402488387927 533.7675350701403,201.47387042301511 534.7695390781563,200.77908025897932 535.7715430861724,199.9058358209797 536.7735470941884,198.7742151240792 537.7755511022044,197.24820244054533 538.7775551102204,195.07600243493567 539.7795591182364,191.73354238403755 540.7815631262525,185.92008323258446 541.7835671342685,173.27267223724058 542.7855711422847,124.46445610159702 543.7875751503007,400 544.7895791583167,251.92205084208996 545.7915831663327,232.5494260763558 546.7935871743487,224.90983288899298 547.7955911823648,220.81917984964173 548.7975951903809,218.2689773544021 549.7995991983969,216.525780647074 550.8016032064129,215.25798127157333 551.8036072144289,214.29376378697478 552.8056112224449,213.53520402221662 553.8076152304609,212.92240272092317 554.8096192384769,212.41666172057884 555.8116232464931,211.99186626040512 556.8136272545091,211.62975470100957 557.815631262525,211.31717284914984 558.8176352705411,211.04440495282742 559.8196392785571,210.80411901898694 560.8216432865731,210.5906778971623 561.8236472945891,210.39967622560735 562.8256513026053,210.22762132476043 563.8276553106213,210.07170840326432 564.8296593186373,209.92965908312794 565.8316633266533,209.79960336887217 566.8336673346694,209.67999200931862 567.8356713426854,209.5695304972569 568.8376753507014,209.46712872042778 569.8396793587174,209.3718620982033 570.8416833667335,209.2829412589971 571.8436873747495,209.19968814590928 572.8456913827655,209.12151701488133 573.8476953907816,209.04791919509628 574.8496993987976,208.97845077023314 575.8517034068136,208.91272254757334 576.8537074148296,208.85039183402372 577.8557114228456,208.79115565028653 578.8577154308617,208.7347450979791 579.8597194388778,208.68092065735524 580.8617234468938,208.62946824096613 581.8637274549098,208.58019586507922 582.8657314629259,208.53293082880097 583.8677354709419,208.48751731269192 584.8697394789579,208.4438143257495 585.8717434869739,208.40169394308194 586.8737474949901,208.36103978725131 587.8757515030061,208.3217457147528 588.8777555110221,208.2837146758997 589.8797595190381,208.24685772186413 590.8817635270541,208.21109313706083 591.8837675350701,208.17634567867074 592.8857715430861,208.14254590805345 593.8877755511022,208.10962960121847 594.8897795591183,208.07753722752517 595.8917835671343,208.0462134874323 596.8937875751503,208.0156069014935 597.8957915831663,207.98566944394085 598.8977955911824,207.95635621515748 599.8997995991984,207.9276251481458 600.9018036072144,207.8994367447764 601.9038076152304,207.87175383817666 602.9058116232466,207.84454137810278 603.9078156312626,207.81776623655378 604.9098196392786,207.79139703123533 605.9118236472946,207.7654039647844 606.9138276553107,207.7397586779202 607.9158316633267,207.71443411490947 608.9178356713427,207.68940439992153 609.9198396793587,207.66464472301314 610.9218436873748,207.64013123462144 611.9238476953908,207.6158409475657 612.9258517034068,207.59175164566113 613.9278557114228,207.56784179813852 614.9298597194389,207.54409047913936 615.931863727455,207.52047729162294 616.933867735471,207.49698229507734 617.935871743487,207.47358593647445 618.937875751503,207.45026898394883 619.939879759519,207.42701246271338 620.941883767535,207.40379759275208 621.943887775551,207.38060572785085 622.945891783567,207.35741829554362 623.947895791583,207.33421673756143 624.9498997995993,207.3109824503782 625.9519038076153,207.28769672544803 626.9539078156313,207.2643406887255 627.9559118236473,207.2408952390512 628.9579158316633,207.2173409849726 629.9599198396794,207.19365817955045 630.9619238476954,207.16982665267813 631.9639278557114,207.1458257404096 632.9659318637275,207.12163421075698 633.9679358717435,207.09723018537255 634.9699398797595,207.07259105648052 635.9719438877755,207.04769339836028 636.9739478957915,207.02251287261333 637.9759519038076,206.9970241263621 638.9779559118236,206.97120068243171 639.9799599198396,206.94501482045447 640.9819639278558,206.91843744770514 641.9839679358718,206.89143795832473 642.9859719438878,206.8639840794132 643.9879759519038,206.83604170226812 644.9899799599198,206.80757469680557 645.9919839679359,206.77854470692333 646.993987975952,206.74891092423732 647.995991983968,206.7186298372425 648.997995991984,206.68765495249872 650,206.65593648391226 "/><text class="poloto_text" alignment-baseline="start" text-anchor="middle" font-size="x-large" x="400" y="37.5">cows per year</text><text class="poloto_text" alignment-baseline="start" text-anchor="middle" font-size="x-large" x="400" y="481.25">year</text><text class="poloto_text" alignment-baseline="start" text-anchor="middle" font-size="x-large" transform="rotate(-90,37.5,250)" x="37.5" y="250">cows</text><path stroke="black" fill="none" class="poloto_axis_lines" d=" M 150 100 L 150 400 L 650 400"/></svg>