<svg class="poloto" width="800" height="500" viewBox="0 0 800 500" xmlns="http://www.w3.org/2000/svg"><style>.poloto {
            font-family: "Arial";
            stroke-width:2;
            }
            .poloto_text{fill: white;  }
            .poloto_axis_lines{stroke: white;stoke-width:3;fill:none}
            .poloto_background{fill: black; }
            .poloto0stroke{stroke:  red; }
            .poloto1stroke{stroke:  red; }
            .poloto2stroke{stroke:  red; }
            .poloto3stroke{stroke:  red; }
            .poloto4stroke{stroke:  red; }
            .poloto5stroke{stroke:  red; }
            .poloto6stroke{stroke:  red; }
            .poloto7stroke{stroke:  red; }
            .poloto0fill{fill:red;}
            .poloto1fill{fill:red;}
            .poloto2fill{fill:red;}
            .poloto3fill{fill:red;}
            .poloto4fill{fill:red;}
            .poloto5fill{fill:red;}
            .poloto6fill{fill:red;}
            .poloto7fill{fill:red;}</style><rect class="poloto_background" fill="white" x="0" y="0" width="800" height="500"/><line class="poloto_axis_lines" stroke="black" x1="150" x2="150" y1="400" y2="405"/><text class="poloto_text" alignment-baseline="start" text-anchor="middle" x="150" y="430">0</text><line class="poloto_axis_lines" stroke="black" x1="252.0408163265306" x2="252.0408163265306" y1="400" y2="405"/><text class="poloto_text" alignment-baseline="start" text-anchor="middle" x="252.0408163265306" y="430">2</text><line class="poloto_axis_lines" stroke="black" x1="354.0816326530612" x2="354.0816326530612" y1="400" y2="405"/><text class="poloto_text" alignment-baseline="start" text-anchor="middle" x="354.0816326530612" y="430">4</text><line class="poloto_axis_lines" stroke="black" x1="456.1224489795918" x2="456.1224489795918" y1="400" y2="405"/><text class="poloto_text" alignment-baseline="start" text-anchor="middle" x="456.1224489795918" y="430">6</text><line class="poloto_axis_lines" stroke="black" x1="558.1632653061224" x2="558.1632653061224" y1="400" y2="405"/><text class="poloto_text" alignment-baseline="start" text-anchor="middle" x="558.1632653061224" y="430">8</text><line class="poloto_axis_lines" stroke="black" x1="150" x2="144" y1="325.0345380719074" y2="325.0345380719074"/><text class="poloto_text" alignment-baseline="middle" text-anchor="end" x="135" y="325.0345380719074">-0.5</text><line class="poloto_axis_lines" stroke="black" x1="150" x2="144" y1="250.02302538127162" y2="250.02302538127162"/><text class="poloto_text" alignment-baseline="middle" text-anchor="end" x="135" y="250.02302538127162">0.0</text><line class="poloto_axis_lines" stroke="black" x1="150" x2="144" y1="175.01151269063575" y2="175.01151269063575"/><text class="poloto_text" alignment-baseline="middle" text-anchor="end" x="135" y="175.01151269063575">0.5</text><line class="poloto_axis_lines" stroke="black" x1="150" x2="144" y1="100" y2="100"/><text class="poloto_text" alignment-baseline="middle" text-anchor="end" x="135" y="100">1.0</text><text class="poloto_text" alignment-baseline="middle" text-anchor="start" font-size="large" x="675" y="100">test1</text><line class="poloto0stroke" stroke="black" x1="680" x2="730" y1="81.25" y2="81.25"/><polyline class="poloto0stroke" fill="none" stroke="black" points="150,100 160.20408163265307,102.99047229845905 170.40816326530611,111.84266850027751 180.6122448979592,126.20367947760951 190.81632653061223,145.5009770415796 201.0204081632653,168.9652388344561 211.22448979591837,195.66101878431704 221.42857142857144,224.52404038796655 231.6326530612245,254.40362605659888 241.83673469387753,284.10857100009065 252.0408163265306,312.45463280291943 262.2448979591837,338.311743432177 272.44897959183675,360.64906148390605 282.65306122448976,378.5760685768674 292.8571428571429,391.37807151020684 303.0612244897959,398.54469482602866 313.265306122449,399.7902278683187 323.46938775510205,395.06501516518756 333.67346938775506,384.5574360358383 343.87755102040813,368.68639450157445 354.0816326530612,348.0846189043995 364.2857142857143,323.5734370247104 374.48979591836735,296.13003233454305 384.6938775510204,266.84848677622296 394.89795918367344,236.89616316790006 405.1020408163265,207.46716613181505 415.3061224489796,179.73473691122626 425.51020408163265,154.80447994441744 435.7142857142857,133.67028590468016 445.91836734693874,117.17470841557275 456.1224489795918,105.97537409678091 466.3265306122449,100.51876506605186 476.53061224489795,101.02241910611514 486.734693877551,107.46625711976571 496.9387755102041,119.59338362010601 507.1428571428571,136.92032834292814 517.3469387755101,158.75632068046912 527.5510204081633,184.23082852569001 537.7551020408163,212.32826364025954 547.9591836734694,241.92846995274417 558.1632653061224,271.8513806463171 568.3673469387754,300.90406369883107 578.5714285714286,327.9282803180255 588.7755102040816,351.84666026713967 598.9795918367347,371.7056532164155 609.1836734693877,386.71354378564115 619.3877551020408,396.27201473795924 629.5918367346937,400 639.7959183673469,397.74887656370385 650,389.6083896166449 "/><text class="poloto_text" alignment-baseline="middle" text-anchor="start" font-size="large" x="675" y="150">test1</text><line class="poloto1stroke" stroke="black" x1="680" x2="730" y1="131.25" y2="131.25"/><polyline class="poloto1stroke" fill="none" stroke="black" points="150,250.0230253812716 160.20408163265307,220.2180513249239 170.40816326530611,191.60130752916822 180.6122448979592,165.31365326378423 190.81632653061223,142.40309434884273 201.0204081632653,123.78300246983298 211.22448979591837,110.19570193087321 221.42857142857144,102.18287552724559 231.6326530612245,100.06396936172678 241.83673469387753,103.92345753654092 252.0408163265306,113.60747443747744 262.2448979591837,128.7299488703784 272.44897959183675,148.68799550133184 282.65306122448976,172.68594999241975 292.8571428571429,199.76708962800708 303.0612244897959,228.85177483030088 313.265306122449,258.7804909823175 323.46938775510205,288.3600746166011 333.67346938775506,316.41128107742674 343.87755102040813,341.81579728390244 354.0816326530612,363.5608253434626 364.2857142857143,380.77945960777674 374.48979591836735,392.78524746526915 384.6938775510204,399.0995560405161 394.89795918367344,399.47065377657543 405.1020408163265,393.8837461777771 415.3061224489796,382.5615656195787 425.51020408163265,365.9554917116288 435.7142857142857,344.7275562171408 445.91836734693874,319.72404993565584 456.1224489795918,291.9417837594897 466.3265306122449,262.48834896907556 476.53061224489795,232.53796106381898 486.734693877551,203.28464749558805 496.9387755102041,175.8946455621789 507.1428571428571,151.45990820652742 517.3469387755101,130.95457129873057 527.5510204081633,115.19611791296967 537.7551020408163,104.81278785705985 547.9591836734694,100.21853173383738 558.1632653061224,101.59650803692165 568.3673469387754,108.89178119956426 578.5714285714286,121.81351170233654 588.7755102040816,139.8465509269713 598.9795918367347,162.2719785061287 609.1836734693877,188.19576340975635 619.3877551020408,216.58440614098097 629.5918367346937,246.30614109965046 639.7959183673469,276.1760565053221 650,305.00333309073994 "/><text class="poloto_text" alignment-baseline="start" text-anchor="middle" font-size="x-large" x="400" y="37.5">cows per year</text><text class="poloto_text" alignment-baseline="start" text-anchor="middle" font-size="x-large" x="400" y="481.25">year</text><text class="poloto_text" alignment-baseline="start" text-anchor="middle" font-size="x-large" transform="rotate(-90,37.5,250)" x="37.5" y="250">cows</text><path stroke="black" fill="none" class="poloto_axis_lines" d=" M 150 100 L 150 400 L 650 400"/></svg>
