<svg class="poloto" width="800" height="500" viewBox="0 0 800 500" xmlns="http://www.w3.org/2000/svg"><style>.poloto {
                font-family: "Arial";
                stroke-width:2;
                }
                .poloto_text{fill: white;  }
                .poloto_axis_lines{stroke: white;stoke-width:3;fill:none}
                .poloto_background{fill: black; }
                .poloto0stroke{stroke:  blue; }
                .poloto1stroke{stroke:  red; }
                .poloto2stroke{stroke:  green; }
                .poloto3stroke{stroke:  gold; }
                .poloto4stroke{stroke:  aqua; }
                .poloto5stroke{stroke:  brown; }
                .poloto6stroke{stroke:  lime; }
                .poloto7stroke{stroke:  chocolate; }
                .poloto0fill{fill:blue;}
                .poloto1fill{fill:red;}
                .poloto2fill{fill:green;}
                .poloto3fill{fill:gold;}
                .poloto4fill{fill:aqua;}
                .poloto5fill{fill:brown;}
                .poloto6fill{fill:lime;}
                .poloto7fill{fill:chocolate;}</style><rect class="poloto_background" fill="white" x="0" y="0" width="800" height="500"/><line class="poloto_axis_lines" stroke="black" x1="150" x2="150" y1="400" y2="405"/><text class="poloto_text" alignment-baseline="start" text-anchor="middle" x="150" y="430">0</text><line class="poloto_axis_lines" stroke="black" x1="250.20040080160322" x2="250.20040080160322" y1="400" y2="405"/><text class="poloto_text" alignment-baseline="start" text-anchor="middle" x="250.20040080160322" y="430">2</text><line class="poloto_axis_lines" stroke="black" x1="350.40080160320645" x2="350.40080160320645" y1="400" y2="405"/><text class="poloto_text" alignment-baseline="start" text-anchor="middle" x="350.40080160320645" y="430">4</text><line class="poloto_axis_lines" stroke="black" x1="450.6012024048096" x2="450.6012024048096" y1="400" y2="405"/><text class="poloto_text" alignment-baseline="start" text-anchor="middle" x="450.6012024048096" y="430">6</text><line class="poloto_axis_lines" stroke="black" x1="550.8016032064129" x2="550.8016032064129" y1="400" y2="405"/><text class="poloto_text" alignment-baseline="start" text-anchor="middle" x="550.8016032064129" y="430">8</text><line class="poloto_axis_lines" stroke="black" x1="150" x2="144" y1="325.0001426807423" y2="325.0001426807423"/><text class="poloto_text" alignment-baseline="middle" text-anchor="end" x="135" y="325.0001426807423">-0.5</text><line class="poloto_axis_lines" stroke="black" x1="150" x2="144" y1="250.00009512049485" y2="250.00009512049485"/><text class="poloto_text" alignment-baseline="middle" text-anchor="end" x="135" y="250.00009512049485">0.0</text><line class="poloto_axis_lines" stroke="black" x1="150" x2="144" y1="175.00004756024742" y2="175.00004756024742"/><text class="poloto_text" alignment-baseline="middle" text-anchor="end" x="135" y="175.00004756024742">0.5</text><line class="poloto_axis_lines" stroke="black" x1="150" x2="144" y1="100" y2="100"/><text class="poloto_text" alignment-baseline="middle" text-anchor="end" x="135" y="100">1.0</text><text class="poloto_text" alignment-baseline="middle" text-anchor="start" font-size="large" x="675" y="100">test 1</text><line class="poloto0stroke" stroke="black" x1="680" x2="730" y1="81.25" y2="81.25"/><polyline class="poloto0stroke" fill="none" stroke="black" points="150,100 151.00200400801603,100.02999901903684 152.00400801603206,100.11998407693955 153.0060120240481,100.26991918088493 154.00801603206412,100.47974435883037 155.01002004008015,100.74937568350242 156.01202404809618,101.0787053059662 157.01402805611224,101.46760149876377 158.01603206412827,101.91590870860313 159.0180360721443,102.42344761857771 160.02004008016033,102.99001521989078 161.02204408817636,103.61538489305576 162.0240480961924,104.29930649854163 163.02605210420842,105.04150647682496 164.02805611222445,105.84168795781034 165.03006012024048,106.69953087957441 166.0320641282565,107.61469211638604 167.03406813627254,108.58680561595264 168.03607214428857,109.61548254583562 169.0380761523046,110.70031144897865 170.04008016032066,111.84085840828453 171.0420841683367,113.03666722017681 172.04408817635272,114.2872595770744 173.04609218436875,115.5921352587091 174.04809619238478,116.95077233220627 175.0501002004008,118.36262736085138 176.05210420841684,119.82713562145756 177.05410821643287,121.343711330247 178.0561122244489,122.91174787715704 179.05811623246493,124.53061806847563 180.06012024048096,126.199674377711 181.06212424849699,127.91824920459322 182.06412825651302,129.68565514210553 183.06613226452907,131.50118525143807 184.0681362725451,133.3641133447539 185.07014028056113,135.2736942756543 186.07214428857716,137.22916423722762 187.0741482965932,139.22974106756192 188.07615230460922,141.27462456259906 189.07815631262525,143.36299679620578 190.08016032064128,145.4940224473331 191.0821643286573,147.666849134134 192.08416833667334,149.8806077549044 193.08617234468937,152.13441283571223 194.0881763527054,154.4273628845757 195.09018036072143,156.7585407520474 196.09218436873746,159.12701399806235 197.0941883767535,161.53183526490133 198.09619238476955,163.97204265612146 199.09819639278558,166.446660121302 200.1002004008016,168.95469784645118 201.10220440881764,171.49515264991916 202.10420841683367,174.06700838365674 203.1062124248497,176.66923633966138 204.10821643286573,179.30079566144664 205.11022044088176,181.96063376037074 206.1122244488978,184.64768673665816 207.11422845691385,187.36087980494528 208.11623246492985,190.09912772418025 209.11823647294588,192.8613352317048 210.1202404809619,195.64639748134493 211.12224448897797,198.45320048533438 212.124248496994,201.2806215598951 213.12625250501003,204.12752977429582 214.12825651302606,206.99278640320892 215.1302605210421,209.87524538218582 216.13226452905812,212.77375376606716 217.13426853707415,215.68715219014567 218.1362725450902,218.61427533389653 219.1382765531062,221.55395238709002 220.14028056112227,224.5050075181 221.14228456913827,227.46626034422093 222.14428857715433,230.43652640380532 223.14629258517033,233.41461763003224 224.1482965931864,236.39934282611864 225.1503006012024,239.3895081417818 226.15230460921845,242.38391755076384 227.15430861723448,245.3813733292261 228.1563126252505,248.38067653482275 229.15831663326654,251.38062748626172 230.16032064128257,254.3800262431612 231.16232464929863,257.37767308600996 232.16432865731463,260.37236899603886 233.16633266533069,263.3629161348127 234.1683366733467,266.34811832334935 235.17034068136275,269.32678152057565 236.17234468937875,272.2977143009275 237.17434869739478,275.259728330905 238.1763527054108,278.21163884438886 239.17835671342687,281.152265116532 240.18036072144287,284.08043093603357 241.18236472945893,286.9949650756073 242.18436873747493,289.89470176045734 243.18637274549098,292.7784811345724 244.18837675350701,295.6451497246527 245.19038076152304,298.49356090148393 246.19238476953907,301.32257533857376 247.1943887775551,304.13106146786686 248.19639278557116,306.9178959323577 249.19839679358716,309.68196403541765 250.20040080160322,312.42216018665926 251.20240480961922,315.1373883441575 252.20440881763528,317.82656245285193 253.2064128256513,320.48860687895433 254.20841683366734,323.12245684018757 255.21042084168337,325.72705883168476 256.2124248496994,328.3013710473769 257.21442885771546,330.8443637967014 258.21643286573146,333.3550199164645 259.2184368737475,335.83233517769355 260.2204408817635,338.2753186873142 261.2224448897796,340.6829932844955 262.2244488977956,343.0543959315004 263.22645290581164,345.3885780988883 264.2284569138277,347.6846061449143 265.2304609218437,349.94156168897337 266.2324649298597,352.15854197894015 267.23446893787576,354.334660252258 268.23647294589176,356.4690460906321 269.2384769539078,358.5608457681853 270.2404809619238,360.6092225929368 271.2424849699399,362.613357241468 272.24448897795594,364.572448086641 273.24649298597194,366.4857115182385 274.248496993988,368.35238225639773 275.250501002004,370.1717136577121 276.25250501002006,371.9429780138784 277.25450901803606,373.66546684277085 278.2565130260521,375.338491171824 279.2585170340682,376.96138181361295 280.2605210420842,378.5334896335192 281.2625250501002,380.054185809376 282.26452905811624,381.5228620829887 283.2665330661323,382.9389310034299 284.2685370741483,384.3018261620121 285.2705410821643,385.61100241884355 286.2725450901804,386.865936120877 287.2745490981964,388.06612531136386 288.2765531062124,389.21108993063024 289.2785571142285,390.30037200809437 290.28056112224453,391.3335358454489 291.28256513026054,392.3101681909342 292.28456913827654,393.22987840463367 293.2865731462926,394.0922986147244 294.28857715430865,394.89708386462127 295.29058116232466,395.6439122509546 296.29258517034066,396.33248505232734 297.2945891783567,396.96252684879994 298.2965931863728,397.53378563205416 299.2985971943888,398.0460329061934 300.3006012024048,398.4990637791378 301.30260521042084,398.8926970445787 302.3046092184369,399.2267752544582 303.3066132264529,399.50116478194656 304.30861723446895,399.71575587489144 305.310621242485,399.8704626997167 306.312625250501,399.9652233757552 307.314629258517,400 308.3166332665331,399.97477866226507 309.31863727454913,399.8895694507492 310.32064128256513,399.7444064480009 311.32264529058114,399.5393477172858 312.32464929859725,399.2744752793621 313.32665330661325,398.9498950796734 314.32865731462925,398.5657369459719 315.3306613226453,398.12215453638896 316.33266533066137,397.61932527797416 317.3346693386774,397.0574502957265 318.3366733466934,396.43675433214736 319.33867735470943,395.7574856573463 320.3406813627255,395.0199159697365 321.3426853707415,394.2243402873588 322.3446893787575,393.3710768298787 323.34669338677355,392.4604668913024 324.34869739478955,391.4928747034641 325.3507014028056,390.4686872903378 326.3527054108216,389.38831431323325 327.3547094188377,388.2521879069363 328.35671342685373,387.0607625068615 329.35871743486973,385.81451466728333 330.36072144288573,384.5139428707213 331.36272545090185,383.15956732855307 332.36472945891785,381.75192977293773 333.36673346693385,380.29159324012903 334.36873747494985,378.77914184526935 335.37074148296597,377.21518054875077 336.37274549098197,375.60033491423945 337.37474949899797,373.9352508584581 338.37675350701403,372.2205943928284 339.3787575150301,370.4570513570746 340.3807615230461,368.6453271448976 341.38276553106215,366.786146421826 342.38476953907815,364.8802528353606 343.3867735470942,362.9284087175242 344.3887775551102,360.9313947799398 345.39078156312627,358.89000980155583 346.3927855711423,356.8050703091457 347.3947895791583,354.6774102507074 348.39679358717433,352.50788066189597 349.39879759519044,350.2973493256202 350.40080160320645,348.0467004249413 351.40280561122245,345.7568341894112 352.40480961923845,343.42866653499317 353.40681362725456,341.0631286977069 354.40881763527057,338.66116686114736 355.41082164328657,336.2237417780235 356.4128256513026,333.75182838586977 357.4148296593186,331.2464154170849 358.4168336673347,328.70850500345114 359.4188376753507,326.13911227529576 360.42084168336675,323.5392649554517 361.42284569138275,320.910002948183 362.4248496993988,318.2523779232359 363.4268537074148,315.56745289518614 364.42885771543087,312.85630179824614 365.4308617234469,310.12000905670675 366.4328657314629,307.3596691511809 367.4348697394789,304.57638618082706 368.43687374749504,301.77127342172315 369.43887775551104,298.94545288157207 370.44088176352705,296.10005485091244 371.44288577154305,293.2362174510187 372.44488977955916,290.3550861786666 373.44689378757516,287.45781344795074 374.4488977955912,284.54555812933336 375.4509018036072,281.6194850861126 376.4529058116233,278.68076470849167 377.4549098196393,275.7305724454395 378.45691382765534,272.7700883345257 379.45891783567134,269.8004965299223 380.4609218436874,266.82298482875683 381.4629258517034,263.83874419601034 382.46492985971946,260.84896828814647 383.4669338677355,257.85485297566527 384.4689378757515,254.85759586477064 385.4709418837675,251.85839581834438 386.4729458917835,248.85845247641572 387.47494989979964,245.858965776323 388.47695390781564,242.86113547275374 389.47895791583164,239.8661606578587 390.4809619238477,236.87523928163128 391.48296593186376,233.8895676727437 392.48496993987976,230.91034006003113 393.48697394789576,227.93874809481608 394.4889779559118,224.97598037426383 395.4909819639279,222.02322196595964 396.4929859719439,219.08165393389737 397.4949899799599,216.15245286606938 398.496993987976,213.23679040384715 399.498997995992,210.3358327733407 400.501002004008,207.45074031892347 401.503006012024,204.58266703910968 402.5050100200401,201.73276012497072 403.5070140280561,198.90215950127407 404.5090180360721,196.09199737052853 405.5110220440881,193.30339776011792 406.51302605210424,190.5374760727054 407.5150300601203,187.7953386400877 408.5170340681363,185.0780822806766 409.5190380761523,182.38679386078607 410.52104208416836,179.72254985990068 411.5230460921844,177.0864159400981 412.5250501002004,174.47944651979836 413.5270541082164,171.9026843520103 414.5290581162325,169.35716010724462 415.53106212424854,166.84389196125943 416.53306613226454,164.3638851878035 417.53507014028054,161.91813175651967 418.5370741482966,159.50760993617084 419.53907815631266,157.1332839033454 420.54108216432866,154.79610335679922 421.5430861723447,152.49700313758893 422.5450901803608,150.2369028551478 423.5470941883768,148.0167065194546 424.54909819639283,145.8373021794416 425.55110220440883,143.69956156778625 426.5531062124249,141.60433975223037 427.55511022044095,139.55247479356427 428.55711422845695,137.5447874104138 429.55911823647295,135.58208065096323 430.561122244489,133.66513957174715 431.56312625250507,131.7947309236386 432.565130260521,129.97160284515843 433.567134268537,128.19648456322966 434.5691382765531,126.47008610149737 435.57114228456913,124.79309799632784 436.5731462925852,123.16619102060355 437.5751503006012,121.59001591542312 438.57715430861725,120.06520312981309 439.57915831663325,118.59236256855723 440.5811623246493,117.17208334824238 441.5831663326653,115.80493356161992 442.5851703406814,114.49146005037602 443.5871743486974,113.23218818640254 444.58917835671343,112.02762166165485 445.59118236472943,110.87824228668228 446.5931863727455,109.78450979790983 447.5951903807615,108.74686167375029 448.59719438877755,107.76571295961804 449.59919839679355,106.84145610191712 450.6012024048096,105.97446079106714 451.6032064128256,105.16507381363277 452.6052104208417,104.41361891361328 453.60721442885773,103.72039666294944 454.60921843687373,103.08568434129859 455.6112224448898,102.50973582512677 456.61322645290585,101.9927814861611 457.61523046092185,101.53502809924476 458.6172344689379,101.13665875962897 459.6192384769539,100.79783280973828 460.62124248496997,100.51868577543485 461.62324649298597,100.2993293118106 462.62525050100203,100.13985115852614 463.62725450901803,100.04031510471663 464.6292585170341,100.0007609634763 465.6312625250501,100.02120455593433 466.63326653306615,100.1016377049263 467.63527054108215,100.24202823826505 468.6372745490982,100.44232000160906 469.6392785571142,100.70243288092365 470.64128256513027,101.02226283452501 471.64328657314627,101.40168193469623 472.6452905811623,101.84053841885594 473.6472945891784,102.33865675026192 474.64929859719444,102.89583768822303 475.65130260521045,103.51185836779308 476.6533066132265,104.18647238891384 477.6553106212425,104.91940991497148 478.65731462925856,105.71037778072798 479.65931863727457,106.55905960958319 480.6613226452906,107.46511594012111 481.6633266533066,108.42818436189003 482.6653306613227,109.44787966036228 483.6673346693387,110.52379397101384 484.66933867735474,111.65549694246607 485.67134268537075,112.84253590861942 486.6733466933868,114.08443606971451 487.6753507014028,115.38070068224522 488.67735470941886,116.73081125764992 489.67935871743487,118.13422776969969 490.6813627254509,119.59038887050161 491.683366733467,121.09871211503065 492.685370741483,122.65859419409975 493.68737474949904,124.26941117567526 494.689378757515,125.93051875444183 495.69138276553105,127.64125250951605 496.6933867735471,129.40092817020525 497.6953907815631,131.20884188970695 498.6973947895791,133.06427052663867 499.69939879759517,134.96647193428453 500.7014028056112,136.9146852574437 501.7034068136272,138.90813123676259 502.7054108216432,140.94601252042855 503.7074148296593,143.0275139830996 504.70941883767534,145.15180305194355 505.71142284569135,147.31803003965624 506.7134268537074,149.52532848432526 507.71543086172346,151.77281549600323 508.7174348697395,154.05959210985134 509.7194388777555,156.384743645714 510.7214428857715,158.74734007397848 511.7234468937876,161.14643638757457 512.7254509018037,163.58107297996412 513.7274549098197,166.05027602897147 514.7294589178357,168.55305788629948 515.7314629258517,171.0884174725753 516.7334669338677,173.65534067776858 517.7354709418837,176.25280076682233 518.7374749498997,178.87975879033343 519.7394789579158,181.53516400011816 520.7414829659319,184.21795426949748 521.7434869739479,186.9270565181336 522.7454909819639,189.661387141248 523.7474949899799,192.41985244304885 524.7494989979959,195.20134907419435 525.7515030060121,198.00476447311803 526.7535070140281,200.8289773110388 527.7555110220442,203.67285794047737 528.7575150300602,206.53526884709967 529.7595190380762,209.4150651047079 530.7615230460922,212.31109483319594 531.7635270541082,215.2221996592857 532.7655310621243,218.1472151798609 533.7675350701403,221.0849714277128 534.7695390781563,224.03429333951195 535.7715430861724,226.99400122581756 536.7735470941884,229.96291124293722 537.7755511022044,232.93983586644887 538.7775551102204,235.92358436619503 539.7795591182364,238.9129632825588 540.7815631262525,241.90677690383123 541.7835671342685,244.90382774448074 542.7855711422847,247.9029170241313 543.7875751503007,250.9028451470586 544.7895791583167,253.90241218201174 545.7915831663327,256.9004183421704 546.7935871743487,259.8956644650434 547.7955911823648,262.88695249211787 548.7975951903809,265.8730859480662 549.7995991983969,268.8528704193204 550.8016032064129,271.8251140318221 551.8036072144289,274.78862792775567 552.8056112224449,277.7422267410759 553.8076152304609,280.6847290716378 554.8096192384769,283.6149579577422 555.8116232464931,286.5317413469042 556.8136272545091,289.4339125646575 557.815631262525,292.3203107812101 558.8176352705411,295.189781475761 559.8196392785571,298.0411768982906 560.8216432865731,300.87335652864823 561.8236472945891,303.6851875327438 562.8256513026053,306.4755452156664 563.8276553106213,309.24331347154657 564.8296593186373,311.9873852299855 565.8316633266533,314.70666289886674 566.8336673346694,317.4000588033796 567.8356713426854,320.0664956210733 568.8376753507014,322.7049068127729 569.8396793587174,325.31423704918024 570.8416833667335,327.8934426329914 571.8436873747495,330.4414919163616 572.8456913827655,332.957365713551 573.8476953907816,335.4400577085854 574.8496993987976,337.88857485776913 575.8517034068136,340.3019377868885 576.8537074148296,342.67918118294983 577.8557114228456,345.0193541802908 578.8577154308617,347.32152074091465 579.8597194388778,349.5847600288918 580.8617234468938,351.80816677868347 581.8637274549098,353.9908516572347 582.8657314629259,356.1319416196964 583.8677354709419,358.2305802586306 584.8697394789579,360.2859281465635 585.8717434869739,362.29716317174405 586.8737474949901,364.2634808669786 587.8757515030061,366.1840947314059 588.8777555110221,368.05823654508816 589.8797595190381,369.88515667628815 590.8817635270541,371.66412438131215 591.8837675350701,373.39442809679707 592.8857715430861,375.07537572432733 593.8877755511022,376.70629490726424 594.8897795591183,378.28653329968006 595.8917835671343,379.81545882728705 596.8937875751503,381.29245994025985 597.8957915831663,382.7169458578462 598.8977955911824,384.08834680467214 599.8997995991984,385.40611423864385 600.9018036072144,386.6697210703578 601.9038076152304,387.87866187392916 602.9058116232466,389.0324530891557 603.9078156312626,390.1306332149347 604.9098196392786,391.17276299385816 605.9118236472946,392.15842558790945 606.9138276553107,393.08722674519294 607.9158316633267,393.9587949576295 608.9178356713427,394.77278160955495 609.9198396793587,395.5288611171615 610.9218436873748,396.2267310587271 611.9238476953908,396.8661122955799 612.9258517034068,397.4467490837501 613.9278557114228,397.9684091762641 614.9298597194389,398.43088391604044 615.931863727455,398.8339883193493 616.933867735471,399.17756114980415 617.935871743487,399.46146498285356 618.937875751503,399.68558626074974 619.939879759519,399.84983533796975 620.941883767535,399.9541465170727 621.943887775551,399.9984780749777 622.945891783567,399.98281227965265 623.947895791583,399.90715539720685 624.9498997995993,399.7715376893845 625.9519038076153,399.57601340146056 626.9539078156313,399.32066074054325 627.9559118236473,399.00558184429224 628.9579158316633,398.630902740065 629.9599198396794,398.19677329450764 630.9619238476954,397.70336715361003 631.9639278557114,397.1508816732499 632.9659318637275,396.53953784025293 633.9679358717435,395.8695801840013 634.9699398797595,395.1412766786248 635.9719438877755,394.354918635815 636.9739478957915,393.5108205883044 637.9759519038076,392.6093201640574 638.9779559118236,391.6507779512241 639.9799599198396,390.635577353909 640.9819639278558,389.56412443881527 641.9839679358718,388.4368477728232 642.9859719438878,387.254198251569 643.9879759519038,386.01664891909263 644.9899799599198,384.7246947786267 645.9919839679359,383.3788525946014 646.993987975952,381.9796606859464 647.995991983968,380.52767871076924 648.997995991984,379.0234874425004 650,377.4676885375919 "/><text class="poloto_text" alignment-baseline="middle" text-anchor="start" font-size="large" x="675" y="150">test 2</text><line class="poloto1stroke" stroke="black" x1="680" x2="730" y1="131.25" y2="131.25"/><polyline class="poloto1stroke" fill="none" stroke="black" points="150,250.00009512049488 151.00200400801603,247.00029321421184 152.00400801603206,244.0016911886945 153.0060120240481,241.00548844477223 154.00801603206412,238.01288342359373 155.01002004008015,235.02507312726667 156.01202404809618,232.04325264007258 157.01402805611224,229.0686146504493 158.01603206412827,226.10234897393133 159.0180360721443,223.14564207723961 160.02004008016033,220.19967660371063 161.02204408817636,217.26563090025473 162.0240480961924,214.34467854603324 163.02605210420842,211.43798788304227 164.02805611222445,208.54672154879177 165.03006012024048,205.67203601126565 166.0320641282565,202.8150811063503 167.03406813627254,199.97699957791545 168.03607214428857,197.15892662073196 169.0380761523046,194.36198942640885 170.04008016032066,191.58730673253189 171.0420841683367,188.8359883751833 172.04408817635272,186.10913484502223 173.04609218436875,183.40783684710328 174.04809619238478,180.73317486460874 175.0501002004008,178.08621872666993 176.05210420841684,175.46802718044975 177.05410821643287,172.87964746765795 178.0561122244489,170.32211490566837 179.05811623246493,167.79645247340576 180.06012024048096,165.30367040216808 181.06212424849699,162.84476577154712 182.06412825651302,160.42072211061014 183.06613226452907,158.0325090045014 184.0681362725451,155.68108170662097 185.07014028056113,153.367380756536 186.07214428857716,151.09233160377764 187.0741482965932,148.85684423767327 188.07615230460922,146.6618128233634 189.07815631262525,144.50811534414694 190.08016032064128,142.3966132503001 191.0821643286573,140.32815111450736 192.08416833667334,138.30355629404386 193.08617234468937,136.32363859984372 194.0881763527054,134.38918997258594 195.09018036072143,132.50098416592908 196.09218436873746,130.65977643702018 197.0941883767535,128.8663032444016 198.09619238476955,127.12128195343774 199.09819639278558,125.42541054937846 200.1002004008016,123.77936735817394 201.10220440881764,122.18381077515369 202.10420841683367,120.63937900167724 203.1062124248497,119.14668978986174 204.10821643286573,117.7063401954897 205.11022044088176,116.31890633919443 206.1122244488978,114.98494317601967 207.11422845691385,113.70498427344461 208.11623246492985,112.47954159796444 209.11823647294588,111.30910531031037 210.1202404809619,110.19414356939183 211.12224448897797,109.13510234503923 212.124248496994,108.13240523962202 213.12625250501003,107.18645331861308 214.12825651302606,106.29762495016843 215.1302605210421,105.46627565378452 216.13226452905812,104.69273795809539 217.13426853707415,103.97732126786565 218.1362725450902,103.32031174023257 219.1382765531062,102.72197217024723 220.14028056112227,102.18254188575986 221.14228456913827,101.70223665169203 222.14428857715433,101.2812485837332 223.14629258517033,100.91974607149757 224.1482965931864,100.61787371117009 225.1503006012024,100.37575224766994 226.15230460921845,100.19347852635428 227.15430861723448,100.0711254542814 228.1563126252505,100.00874197104866 229.15831663326654,100.00635302921768 230.16032064128257,100.06395958433336 231.16232464929863,100.18153859454162 232.16432865731463,100.35904302980617 233.16633266533069,100.59640189071956 234.1683366733467,100.89352023690219 235.17034068136275,101.25027922497708 236.17234468937875,101.66653615610574 237.17434869739478,102.14212453306573 238.1763527054108,102.67685412684745 239.17835671342687,103.27051105274285 240.18036072144287,103.922857855897 241.18236472945893,104.63363360628648 242.18436873747493,105.40255400308803 243.18637274549098,106.22931148839496 244.18837675350701,107.11357537023656 245.19038076152304,108.0549919548501 246.19238476953907,109.05318468815369 247.1943887775551,110.10775430636312 248.19639278557116,111.21827899569195 249.19839679358716,112.38431456107111 250.20040080160322,113.60539460382142 251.20240480961922,114.88103070820665 252.20440881763528,116.21071263679329 253.2064128256513,117.59390853453874 254.20841683366734,119.03006514152628 255.21042084168337,120.5186080142617 256.2124248496994,122.05894175544279 257.21442885771546,123.65045025211055 258.21643286573146,125.29249692208623 259.2184368737475,126.98442496859542 260.2204408817635,128.72555764297834 261.2224448897796,130.51519851538 262.2244488977956,132.352631753313 263.22645290581164,134.2371224079809 264.2284569138277,136.16791670824813 265.2304609218437,138.14424236213807 266.2324649298597,140.16530886573992 267.23446893787576,142.2303078193993 268.23647294589176,144.3384132510678 269.2384769539078,146.48878194668046 270.2404809619238,148.68055378743023 271.2424849699399,150.91285209380402 272.24448897795594,153.18478397624284 273.24649298597194,155.49544069228577 274.248496993988,157.8438980100547 275.250501002004,160.2292165779349 276.25250501002006,162.650442300303 277.25450901803606,165.10660671915275 278.2565130260521,167.5967274014649 279.2585170340682,170.11980833216776 280.2605210420842,172.67484031252965 281.2625250501002,175.2608013638251 282.26452905811624,177.87665713611256 283.2665330661323,180.52136132196074 284.2685370741483,183.1938560749576 285.2705410821643,185.8930724328347 286.2725450901804,188.61793074503794 287.2745490981964,191.36734110457343 288.2765531062124,194.14020378395566 289.2785571142285,196.9354096750839 290.28056112224453,199.75184073287053 291.28256513026054,202.58837042244443 292.28456913827654,205.4438641697497 293.2865731462926,208.31717981536008 294.28857715430865,211.20716807132774 295.29058116232466,214.1126729808829 296.29258517034066,217.03253238080137 297.2945891783567,219.96557836625408 298.2965931863728,222.91063775795357 299.2985971943888,225.86653257141012 300.3006012024048,228.83208048810977 301.30260521042084,231.80609532842598 302.3046092184369,234.78738752607552 303.3066132264529,237.7747646039295 304.30861723446895,240.76703165098783 305.310621242485,243.7629918003281 306.312625250501,246.76144670783617 307.314629258517,249.7611970315279 308.3166332665331,252.76104291126995 309.31863727454913,255.75978444870785 310.32064128256513,258.7562221872093 311.32264529058114,261.7491575916308 312.32464929859725,264.737393527716 313.32665330661325,267.719734740933 314.32865731462925,270.69498833456055 315.3306613226453,273.6619642468306 316.33266533066137,276.6194757269376 317.3346693386774,279.56633980972236 318.3366733466934,282.5013777888428 319.33867735470943,285.4234156882404 320.3406813627255,288.3312847317157 321.3426853707415,291.2238218104222 322.3446893787575,294.0998699480949 323.34669338677355,296.95827876382594 324.34869739478955,299.7979049322003 325.3507014028056,302.61761264061204 326.3527054108216,305.41627404357314 327.3547094188377,308.1927697138377 328.35671342685373,310.9459890901568 329.35871743486973,313.67483092148916 330.36072144288573,316.37820370748625 331.36272545090185,319.05502613507826 332.36472945891785,321.7042275109844 333.36673346693385,324.3247481899769 334.36873747494985,326.91553999872366 335.37074148296597,329.47556665504476 336.37274549098197,332.0038041824108 337.37474949899797,334.49924131952037 338.37675350701403,336.96087992479056 339.3787575150301,339.3877353756007 340.3807615230461,341.7788369621281 341.38276553106215,344.1332282756191 342.38476953907815,346.4499675909397 343.3867735470942,348.7281282432534 344.3887775551102,350.9667989986741 345.39078156312627,353.1650844187484 346.3927855711423,355.3221052186181 347.3947895791583,357.43699861872346 348.39679358717433,359.5089186899023 349.39879759519044,361.5370366917517 350.40080160320645,363.52054140411195 351.40280561122245,365.45863945154457 352.40480961923845,367.3505556206714 353.40681362725456,369.1955331702502 354.40881763527057,370.99283413386036 355.41082164328657,372.7417396150801 356.4128256513026,374.4415500750356 357.4148296593186,376.0915856122065 358.4168336673347,377.69118623437816 359.4188376753507,379.23971212262944 360.42084168336675,380.73654388725186 361.42284569138275,382.1810828154969 362.4248496993988,383.57275111105366 363.4268537074148,384.91099212515917 364.42885771543087,386.1952705792508 365.4308617234469,387.4250727790704 366.4328657314629,388.5999068201352 367.4348697394789,389.71930278449287 368.43687374749504,390.782812928683 369.43887775551104,391.79001186282767 370.44088176352705,392.74049672078246 371.44288577154305,393.63388732127703 372.44488977955916,394.4698263199831 373.44689378757516,395.2479793524467 374.4488977955912,395.9680351678302 375.4509018036072,396.62970575340796 376.4529058116233,397.232726449768 377.4549098196393,397.7768560566719 378.45691382765534,398.26187692953187 379.45891783567134,398.6875950664656 380.4609218436874,399.05384018589456 381.4629258517034,399.3604657946541 382.46492985971946,399.607349246589 383.4669338677355,399.7943917916103 384.4689378757515,399.9215186151938 385.4709418837675,399.98867886830504 386.4729458917835,399.9958456877383 387.47494989979964,399.9430162068614 388.47695390781564,399.8302115567622 389.47895791583164,399.6574768577967 390.4809619238477,399.4248812015415 391.48296593186376,399.13251762315775 392.48496993987976,398.7805030641788 393.48697394789576,398.36897832573464 394.4889779559118,397.89810801223376 395.4909819639279,397.3680804655234 396.4929859719439,396.77910768955536 397.4949899799599,396.1314252655871 398.496993987976,395.4252922579525 399.498997995992,394.6609911104397 400.501002004008,393.83882753331716 401.503006012024,392.95913038105374 402.5050100200401,392.0222515207811 403.5070140280561,391.0285656915518 404.5090180360721,389.9784703544487 405.5110220440881,388.87238553360544 406.51302605210424,387.71075364820274 407.5150300601203,386.4940393355066 408.5170340681363,385.22272926501955 409.5190380761523,383.89733194381904 410.52104208416836,382.51837751316185 411.5230460921844,381.0864175364345 412.5250501002004,379.6020247785351 413.5270541082164,378.06579297677524 414.5290581162325,376.4783366033926 415.53106212424854,374.84029061977094 416.53306613226454,373.15231022246337 417.53507014028054,371.4150705811226 418.5370741482966,369.6292665684423 419.53907815631266,367.79561248221717 420.54108216432866,365.9148417596334 421.5430861723447,363.9877066839033 422.5450901803608,362.01497808336234 423.5470941883768,359.99744502314803 424.54909819639283,357.9359144895846 425.55110220440883,355.83121106739856 426.5531062124249,353.6841766098964 427.55511022044095,351.49566990223445 428.55711422845695,349.2665663179162 429.55911823647295,346.9977574686543 430.561122244489,344.690150847738 431.56312625250507,342.344669467048 432.565130260521,339.96225148786414 433.567134268537,337.54384984561267 434.5691382765531,335.09043186870554 435.57114228456913,332.60297889162194 436.5731462925852,330.0824858623869 437.5751503006012,327.52996094460616 438.57715430861725,324.9464251142134 439.57915831663325,322.3329117510944 440.5811623246493,319.6904662257477 441.5831663326653,317.0201454811516 442.5851703406814,314.32301760999985 443.5871743486974,311.6001614274799 444.58917835671343,308.8526660397604 445.59118236472943,306.08163040836376 446.5931863727455,303.2881629105957 447.5951903807615,300.4733808962098 448.59719438877755,297.6384102404817 449.59919839679355,294.7843848938747 450.6012024048096,291.9124464284742 451.6032064128256,289.0237435813745 452.6052104208417,286.11943179519875 453.60721442885773,283.20067275593794 454.60921843687373,280.26863392829125 455.6112224448898,277.3244880886968 456.61322645290585,274.3694128562353 457.61523046092185,271.4045902215995 458.6172344689379,268.4312060743126 459.6192384769539,265.4504497283892 460.62124248496997,262.46351344662446 461.62324649298597,259.4715919637061 462.62525050100203,256.47588200833525 463.62725450901803,253.4775818245521 464.6292585170341,250.47789069245306 465.6312625250501,247.4780084484959 466.63326653306615,244.47913500558002 467.63527054108215,241.4824698730984 468.6372745490982,238.4892116771488 469.6392785571142,235.50055768110028 470.64128256513027,232.5177033067028 471.64328657314627,229.5418416559355 472.6452905811623,226.57416303378085 473.6472945891784,223.61585447211937 474.64929859719444,220.66809925493195 475.65130260521045,217.73207644500283 476.6533066132265,214.80896041230926 477.6553106212425,211.89992036429018 478.65731462925856,209.00611987817797 479.65931863727457,206.12871643558373 480.6613226452906,203.2688609595194 481.6633266533066,200.4276973540448 482.6653306613227,197.60636204672014 483.6673346693387,194.80598353405134 484.66933867735474,192.02768193010527 485.67134268537075,189.27256851848034 486.6733466933868,186.54174530780648 487.6753507014028,183.8363045909578 488.67735470941886,181.1573285081487 489.67935871743487,178.50588861409335 490.6813627254509,175.88304544939706 491.683366733467,173.28984811635513 492.685370741483,170.72733385932514 493.68737474949904,168.1965276498437 494.689378757515,165.69844177665087 495.69138276553105,163.23407544078833 496.6933867735471,160.80441435593283 497.6953907815631,158.41043035412335 498.6973947895791,156.0530809970412 499.69939879759517,153.7333091929982 500.7014028056112,151.4520428197861 501.7034068136272,149.21019435353793 502.7054108216432,147.0086605037491 503.7074148296593,144.84832185460604 504.70941883767534,142.73004251276444 505.71142284569135,140.65466976171768 506.7134268537074,138.62303372289483 507.71543086172346,136.63594702362326 508.7174348697395,134.6942044720887 509.7194388777555,132.7985827394221 510.7214428857715,130.949840049042 511.7234468937876,129.14871587337484 512.7254509018037,127.39593063807627 513.7274549098197,125.69218543387029 514.7294589178357,124.03816173612233 515.7314629258517,122.434521132258 516.7334669338677,120.88190505713732 517.7354709418837,119.38093453648912 518.7374749498997,117.93220993850895 519.7394789579158,116.5363107337198 520.7414829659319,115.19379526319204 521.7434869739479,113.90520051521389 522.7454909819639,112.67104191050339 523.7474949899799,111.49181309604722 524.7494989979959,110.36798574764839 525.7515030060121,109.30000938126204 526.7535070140281,108.28831117319532 527.7555110220442,107.33329578924224 528.7575150300602,106.435345222823 529.7595190380762,105.59481864219174 530.7615230460922,104.81205224677376 531.7635270541082,104.0873591326905 532.7655310621243,103.42102916752509 533.7675350701403,102.81332887437947 534.7695390781563,102.26450132526821 535.7715430861724,101.77476604389341 536.7735470941884,101.34431891783788 537.7755511022044,100.97333212021277 538.7775551102204,100.66195404079087 539.7795591182364,100.41030922665209 540.7815631262525,100.218498332367 541.7835671342685,100.08659807973584 542.7855711422847,100.01466122710093 543.7875751503007,100.00271654824434 544.7895791583167,100.05076882087826 545.7915831663327,100.15879882473428 546.7935871743487,100.32676334925134 547.7955911823648,100.55459521085908 548.7975951903809,100.8422032798506 549.7995991983969,101.18947251683295 550.8016032064129,101.59626401874158 551.8036072144289,102.06241507439961 552.8056112224449,102.58773922959995 553.8076152304609,103.17202636168474 554.8096192384769,103.81504276359158 555.8116232464931,104.51653123733325 556.8136272545091,105.27621119687308 557.815631262525,106.09377878035622 558.8176352705411,106.96890697165031 559.8196392785571,107.90124573114673 560.8216432865731,108.89042213577284 561.8236472945891,109.93604052815556 562.8256513026053,111.03768267487959 563.8276553106213,112.19490793377429 564.8296593186373,113.40725343016561 565.8316633266533,114.67423424201951 566.8336673346694,115.99534359390407 567.8356713426854,117.37005305969308 568.8376753507014,118.79781277392937 569.8396793587174,120.2780516517638 570.8416833667335,121.81017761738178 571.8436873747495,123.39357784082466 572.8456913827655,125.02761898311508 573.8476953907816,126.71164744958293 574.8496993987976,128.44498965129526 575.8517034068136,130.22695227448202 576.8537074148296,132.05682255785325 577.8557114228456,133.93386857769354 578.8577154308617,135.85733954062198 579.8597194388778,137.82646608389916 580.8617234468938,139.8404605831625 581.8637274549098,141.89851746746524 582.8657314629259,143.99981354149418 583.8677354709419,146.14350831483637 584.8697394789579,148.32874433816474 585.8717434869739,150.55464754620613 586.8737474949901,152.8203276073558 587.8757515030061,155.1248782797976 588.8777555110221,157.4673777739896 589.8797595190381,159.84688912136713 590.8817635270541,162.26246054911778 591.8837675350701,164.71312586087723 592.8857715430861,167.19790482319613 593.8877755511022,169.71580355761944 594.8897795591183,172.2658149382252 595.8917835671343,174.84691899446037 596.8937875751503,177.45808331911698 597.8957915831663,180.09826348128018 598.8977955911824,182.76640344408736 599.8997995991984,185.46143598712757 600.9018036072144,188.18228313331713 601.9038076152304,190.92785658007506 602.9058116232466,193.69705813463008 603.9078156312626,196.48878015328202 604.9098196392786,199.30190598444617 605.9118236472946,202.13531041529794 606.9138276553107,204.98786012184337 607.9158316633267,207.8584141222329 608.9178356713427,210.74582423314013 609.9198396793587,213.64893552901898 610.9218436873748,216.56658680405906 611.9238476953908,219.49761103665128 612.9258517034068,222.44083585618264 613.9278557114228,225.39508401196787 614.9298597194389,228.3591738441343 615.931863727455,231.3319197562693 616.933867735471,234.31213268964422 617.935871743487,237.2986205988215 618.937875751503,240.29018892845693 619.939879759519,243.285641091105 620.941883767535,246.2837789458402 621.943887775551,249.28340327749532 622.945891783567,252.28331427633162 623.947895791583,255.2823120179481 624.9498997995993,258.27919694323447 625.9519038076153,261.272770338178 626.9539078156313,264.2618348133349 627.9559118236473,267.2451947827685 628.9579158316633,270.2216569422689 629.9599198396794,273.19003074665807 630.9619238476954,276.1491288859915 631.9639278557114,279.0977677604679 632.9659318637275,282.03476795385234 633.9679358717435,284.95895470522646 634.9699398797595,287.8691583788786 635.9719438877755,290.7642149321415 636.9739478957915,293.6429663809941 637.9759519038076,296.5042612632399 638.9779559118236,299.34695509907567 639.9799599198396,302.1699108488694 640.9819639278558,304.9719993679603 641.9839679358718,307.7520998583008 642.9859719438878,310.5091003167628 643.9879759519038,313.24189797992216 644.9899799599198,315.9493997651506 645.9919839679359,318.6305227078337 646.993987975952,321.2841943945418 647.995991983968,323.90935339198234 648.997995991984,326.50494967155805 650,329.0699450293643 "/><text class="poloto_text" alignment-baseline="start" text-anchor="middle" font-size="x-large" x="400" y="37.5">cows per year</text><text class="poloto_text" alignment-baseline="start" text-anchor="middle" font-size="x-large" x="400" y="481.25">year</text><text class="poloto_text" alignment-baseline="start" text-anchor="middle" font-size="x-large" transform="rotate(-90,37.5,250)" x="37.5" y="250">cows</text><path stroke="black" fill="none" class="poloto_axis_lines" d=" M 150 100 L 150 400 L 650 400"/></svg>