<svg class="poloto" width="800" height="500" viewBox="0 0 800 500" xmlns="http://www.w3.org/2000/svg" ><style>.poloto {stroke-linecap:round;font-family: sans-serif;stroke-width:2;}.scatter{stroke-width:7}.poloto_text{fill: black;}.poloto_axis_lines{stroke: black;stoke-width:3;fill:none}.poloto_background{fill: aliceblue;}.poloto0stroke{stroke:  blue;}.poloto1stroke{stroke:  red;}.poloto2stroke{stroke:  green;}.poloto3stroke{stroke:  gold;}.poloto4stroke{stroke:  aqua;}.poloto5stroke{stroke:  brown;}.poloto6stroke{stroke:  lime;}.poloto7stroke{stroke:  chocolate;}.poloto0fill{fill:blue;}.poloto1fill{fill:red;}.poloto2fill{fill:green;}.poloto3fill{fill:gold;}.poloto4fill{fill:aqua;}.poloto5fill{fill:brown;}.poloto6fill{fill:lime;}.poloto7fill{fill:chocolate;}</style><rect class="poloto_background" fill="white" x="0" y="0" width="800" height="500" /><line class="poloto0stroke" stroke="black" x1="680" x2="730" y1="81.25" y2="81.25" /><polyline class="poloto0stroke" fill="none" stroke="black" points="150,399.9993876483981 152.51256281407035,399.999214707209 155.0251256281407,399.9989954382754 157.53768844221108,399.9987181538398 160.05025125628143,399.99836841595203 162.56281407035175,399.9979284412329 165.0753768844221,399.9973763896865 167.58793969849245,399.99668551800175 170.10050251256283,399.9958231751548 172.61306532663318,399.99474961529285 175.12562814070353,399.9934165998534 177.63819095477385,399.99176575768524 180.1507537688442,399.989726668616 182.6633165829146,399.9872146325189 185.17587939698493,399.98412808251936 187.68844221105527,399.98034559764835 190.20100502512562,399.97572246707995 192.71356783919597,399.9700867552221 195.22613065326635,399.9632348144897 197.7386934673367,399.9549261907582 200.25125628140705,399.94487786544937 202.76381909547737,399.9327577781564 205.27638190954775,399.9181775749032 207.7889447236181,399.9006845297989 210.30150753768845,399.8797525922627 212.8140703517588,399.8547725184326 215.32663316582915,399.82504105411215 217.8391959798995,399.78974914793446 220.35175879396985,399.7479691875975 222.8643216080402,399.69864126929804 225.37688442211055,399.64055853106873 227.8894472361809,399.5723516047756 230.40201005025125,399.4924722691585 232.91457286432163,399.3991764175211 235.42713567839198,399.29050648843634 237.9396984924623,399.1642735459424 240.45226130653265,399.0180392368714 242.96482412060303,398.84909789672724 245.47738693467335,398.65445912132856 247.98994974874373,398.4308311684904 250.50251256281408,398.17460560142734 253.01507537688443,397.881843632213 255.5276381909548,397.5482646682788 258.0402010050251,397.1692376061533 260.5527638190955,396.73977545287335 263.06532663316585,396.25453388505775 265.5778894472362,395.7078143767514 268.0904522613065,395.0935725379997 270.6030150753769,394.4054323048672 273.11557788944725,393.6367066064886 275.6281407035176,392.7804251040558 278.14070351758795,391.82936954889016 280.6532663316583,390.7761172406627 283.1658291457287,389.6130929814364 285.678391959799,388.3326298159501 288.19095477386935,386.92703872329935 290.7035175879397,385.3886872802947 293.21608040201005,383.7100871532334 295.7286432160804,381.8839900941818 298.24120603015075,379.90349192233657 300.7537688442211,377.76214376348696 303.26633165829145,375.45406960455375 305.7788944723618,372.9740889997865 308.2914572864322,370.3178435451837 310.8040201005025,367.48192552329317 313.3165829145729,364.4640069173958 315.8291457286432,361.2629668081041 318.3417085427136,357.8790150027023 320.85427135678395,354.31380961418324 323.3668341708543,350.57056620878825 325.8793969849246,346.65415608343665 328.391959798995,342.57119122269967 330.9045226130653,338.3300935231112 333.4170854271357,333.9411459638894 335.92964824120605,329.41652354969534 338.4422110552764,324.77030205377906 340.9547738693467,320.01844284825853 343.4673366834171,315.1787524203684 345.97989949748745,310.27081553581934 348.4924623115578,305.3159014178947 351.00502512562815,300.33684275707026 353.5175879396985,295.3578878428495 356.03015075376885,290.4045266079871 358.5427135678392,285.50329188504963 361.0552763819096,280.6815376852253 363.5678391959799,275.9671968077198 366.08040201005025,271.3885205629792 368.5929648241206,266.9738038323854 371.105527638191,262.75109907938116 373.6180904522613,258.74792326131455 376.1306532663317,254.9909618577934 378.643216080402,251.50577442153184 381.1557788944724,248.31650616468607 383.66834170854275,245.44561011257537 386.18090452261305,242.91358428456283 388.6934673366834,240.73872819808375 391.2060301507538,238.93692273797598 393.7185929648241,237.52143709331966 396.2311557788945,236.50276604410845 398.74371859296485,235.888500388512 401.2562814070352,235.68323274845017 403.7688442211055,235.888500388512 406.2814070351759,236.50276604410845 408.79396984924625,237.52143709331966 411.3065326633166,238.93692273797598 413.81909547738695,240.73872819808375 416.33165829145736,242.91358428456283 418.84422110552765,245.44561011257545 421.356783919598,248.31650616468613 423.86934673366835,251.50577442153184 426.3819095477387,254.9909618577934 428.8944723618091,258.74792326131455 431.40703517587946,262.7510990793812 433.91959798994975,266.97380383238533 436.4321608040201,271.3885205629791 438.94472361809045,275.9671968077198 441.4572864321608,280.6815376852253 443.96984924623115,285.5032918850496 446.4824120603015,290.404526607987 448.99497487437185,295.3578878428495 451.5075376884422,300.33684275707026 454.02010050251255,305.3159014178947 456.5326633165829,310.27081553581934 459.0452261306533,315.1787524203685 461.55778894472365,320.01844284825853 464.070351758794,324.77030205377906 466.58291457286435,329.41652354969534 469.09547738693465,333.9411459638894 471.60804020100505,338.3300935231112 474.1206030150754,342.57119122269967 476.63316582914575,346.65415608343665 479.14572864321616,350.57056620878825 481.65829145728645,354.3138096141833 484.1708542713568,357.8790150027023 486.68341708542715,361.2629668081041 489.1959798994975,364.4640069173958 491.7085427135679,367.4819255232932 494.22110552763826,370.31784354518373 496.73366834170855,372.9740889997865 499.2462311557789,375.4540696045537 501.75879396984925,377.76214376348696 504.2713567839196,379.90349192233657 506.78391959798995,381.8839900941818 509.2964824120603,383.71008715323336 511.80904522613065,385.3886872802946 514.321608040201,386.92703872329935 516.8341708542714,388.3326298159501 519.3467336683417,389.6130929814364 521.8592964824121,390.7761172406627 524.3718592964824,391.82936954889016 526.8844221105528,392.7804251040558 529.3969849246232,393.6367066064886 531.9095477386934,394.40543230486713 534.4221105527638,395.0935725379997 536.9346733668342,395.7078143767514 539.4472361809046,396.25453388505775 541.9597989949749,396.73977545287335 544.4723618090452,397.16923760615333 546.9849246231156,397.5482646682788 549.497487437186,397.881843632213 552.0100502512563,398.17460560142734 554.5226130653267,398.4308311684904 557.035175879397,398.65445912132856 559.5477386934673,398.84909789672724 562.0603015075377,399.01803923687135 564.572864321608,399.1642735459424 567.0854271356784,399.29050648843634 569.5979899497488,399.3991764175211 572.1105527638192,399.4924722691585 574.6231155778894,399.5723516047756 577.1356783919598,399.64055853106873 579.6482412060302,399.69864126929804 582.1608040201005,399.7479691875975 584.6733668341709,399.78974914793446 587.1859296482412,399.82504105411215 589.6984924623116,399.8547725184326 592.211055276382,399.8797525922627 594.7236180904522,399.9006845297989 597.2361809045226,399.9181775749032 599.748743718593,399.9327577781564 602.2613065326634,399.94487786544937 604.7738693467337,399.9549261907582 607.286432160804,399.9632348144897 609.7989949748744,399.9700867552221 612.3115577889448,399.97572246707995 614.8241206030151,399.98034559764835 617.3366834170855,399.98412808251936 619.8492462311558,399.9872146325189 622.3618090452261,399.989726668616 624.8743718592964,399.99176575768524 627.3869346733668,399.9934165998534 629.8994974874372,399.99474961529285 632.4120603015076,399.9958231751548 634.924623115578,399.99668551800175 637.4371859296482,399.9973763896865 639.9497487437186,399.9979284412329 642.462311557789,399.99836841595203 644.9748743718593,399.9987181538398 647.4874371859297,399.9989954382754 650,399.999214707209 "/><text class="poloto_text" alignment-baseline="middle" text-anchor="start" font-size="large" x="675" y="100" >σ = 1.0</text><line class="poloto1stroke" stroke="black" x1="680" x2="730" y1="131.25" y2="131.25" /><polyline class="poloto1stroke" fill="none" stroke="black" points="150,400 152.51256281407035,400 155.0251256281407,400 157.53768844221108,400 160.05025125628143,400 162.56281407035175,400 165.0753768844221,400 167.58793969849245,400 170.10050251256283,400 172.61306532663318,400 175.12562814070353,400 177.63819095477385,400 180.1507537688442,400 182.6633165829146,400 185.17587939698493,400 187.68844221105527,399.99999999999994 190.20100502512562,399.9999999999999 192.71356783919597,399.9999999999998 195.22613065326635,399.99999999999943 197.7386934673367,399.9999999999987 200.25125628140705,399.99999999999704 202.76381909547737,399.99999999999346 205.27638190954775,399.99999999998573 207.7889447236181,399.99999999996896 210.30150753768845,399.9999999999334 212.8140703517588,399.9999999998582 215.32663316582915,399.9999999997013 217.8391959798995,399.9999999993771 220.35175879396985,399.99999999871386 222.8643216080402,399.99999999737094 225.37688442211055,399.9999999946791 227.8894472361809,399.99999998933856 230.40201005025125,399.9999999788501 232.91457286432163,399.9999999584609 235.42713567839198,399.9999999192276 237.9396984924623,399.9999998445016 240.45226130653265,399.99999970362205 242.96482412060303,399.99999944072823 245.47738693467335,399.9999989551428 247.98994974874373,399.999998067373 250.50251256281408,399.9999964608725 253.01507537688443,399.99999358345235 255.5276381909548,399.99998848235487 258.0402010050251,399.9999795316412 260.5527638190955,399.9999639869915 263.06532663316585,399.9999372674645 265.5778894472362,399.9998918109434 268.0904522613065,399.9998152727855 270.6030150753769,399.9996877262457 273.11557788944725,399.9994773666217 275.6281407035176,399.99913400405967 278.14070351758795,399.99857933518484 280.6532663316583,399.99769259171126 283.1658291457287,399.99628965471226 285.678391959799,399.99409307765626 288.19095477386935,399.99068966622616 290.7035175879397,399.985471315426 293.21608040201005,399.97755371903804 295.7286432160804,399.9656663836835 298.24120603015075,399.9480061760282 300.7537688442211,399.9220455297315 303.26633165829145,399.88428561672185 305.7788944723618,399.8299444851377 308.2914572864322,399.7525706858669 310.8040201005025,399.6435746069645 313.3165829145729,399.49167299975807 315.8291457286432,399.2822473997635 318.3417085427136,398.99662465353094 320.85427135678395,398.61129777106527 323.3668341708543,398.09711784065547 325.8793969849246,397.4185024848587 328.391959798995,396.5327226425306 330.9045226130653,395.38934622907186 333.4170854271357,393.929932879379 335.92964824120605,392.08808648992874 338.4422110552764,389.78997926758734 340.9547738693467,386.9554599040058 343.4673366834171,383.49984684848914 345.97989949748745,379.3364833877182 348.4924623115578,374.38009309510653 351.00502512562815,368.5509221122201 353.5175879396985,361.7795901280098 356.03015075376885,354.0124980527829 358.5427135678392,345.21756229392423 361.0552763819096,335.3899699432186 363.5678391959799,324.5575840369579 366.08040201005025,312.7855818701035 368.5929648241206,300.1798903245373 371.105527638191,286.8889971362883 373.6180904522613,273.10377039007847 376.1306532663317,259.05501135812636 378.643216080402,245.0085951543157 381.1557788944724,231.25821235294245 383.66834170854275,218.1159015032966 386.18090452261305,205.9007428972599 388.6934673366834,194.926251592614 391.2060301507538,185.48714582996337 393.7185929648241,177.84626043065066 396.2311557788945,172.22241173849991 398.74371859296485,168.77999432909127 401.2562814070352,167.62099922755502 403.7688442211055,168.77999432909127 406.2814070351759,172.22241173849991 408.79396984924625,177.84626043065066 411.3065326633166,185.48714582996337 413.81909547738695,194.926251592614 416.33165829145736,205.9007428972599 418.84422110552765,218.11590150329684 421.356783919598,231.2582123529427 423.86934673366835,245.0085951543157 426.3819095477387,259.05501135812636 428.8944723618091,273.1037703900787 431.40703517587946,286.88899713628854 433.91959798994975,300.1798903245371 436.4321608040201,312.7855818701033 438.94472361809045,324.5575840369579 441.4572864321608,335.3899699432186 443.96984924623115,345.21756229392406 446.4824120603015,354.01249805278275 448.99497487437185,361.7795901280098 451.5075376884422,368.5509221122201 454.02010050251255,374.38009309510653 456.5326633165829,379.3364833877182 459.0452261306533,383.4998468484892 461.55778894472365,386.9554599040058 464.070351758794,389.78997926758734 466.58291457286435,392.08808648992874 469.09547738693465,393.92993287937895 471.60804020100505,395.38934622907186 474.1206030150754,396.5327226425306 476.63316582914575,397.4185024848587 479.14572864321616,398.09711784065547 481.65829145728645,398.61129777106527 484.1708542713568,398.99662465353094 486.68341708542715,399.2822473997635 489.1959798994975,399.49167299975807 491.7085427135679,399.6435746069645 494.22110552763826,399.7525706858669 496.73366834170855,399.8299444851377 499.2462311557789,399.88428561672185 501.75879396984925,399.9220455297315 504.2713567839196,399.9480061760282 506.78391959798995,399.9656663836835 509.2964824120603,399.97755371903804 511.80904522613065,399.985471315426 514.321608040201,399.99068966622616 516.8341708542714,399.99409307765626 519.3467336683417,399.99628965471226 521.8592964824121,399.99769259171126 524.3718592964824,399.99857933518484 526.8844221105528,399.99913400405967 529.3969849246232,399.9994773666217 531.9095477386934,399.9996877262457 534.4221105527638,399.9998152727855 536.9346733668342,399.9998918109434 539.4472361809046,399.9999372674645 541.9597989949749,399.9999639869915 544.4723618090452,399.9999795316412 546.9849246231156,399.99998848235487 549.497487437186,399.99999358345235 552.0100502512563,399.9999964608725 554.5226130653267,399.999998067373 557.035175879397,399.9999989551428 559.5477386934673,399.99999944072823 562.0603015075377,399.99999970362205 564.572864321608,399.9999998445016 567.0854271356784,399.9999999192276 569.5979899497488,399.9999999584609 572.1105527638192,399.9999999788501 574.6231155778894,399.99999998933856 577.1356783919598,399.9999999946791 579.6482412060302,399.99999999737094 582.1608040201005,399.99999999871386 584.6733668341709,399.9999999993771 587.1859296482412,399.9999999997013 589.6984924623116,399.9999999998582 592.211055276382,399.9999999999334 594.7236180904522,399.99999999996896 597.2361809045226,399.99999999998573 599.748743718593,399.99999999999346 602.2613065326634,399.99999999999704 604.7738693467337,399.9999999999987 607.286432160804,399.99999999999943 609.7989949748744,399.9999999999998 612.3115577889448,399.9999999999999 614.8241206030151,399.99999999999994 617.3366834170855,400 619.8492462311558,400 622.3618090452261,400 624.8743718592964,400 627.3869346733668,400 629.8994974874372,400 632.4120603015076,400 634.924623115578,400 637.4371859296482,400 639.9497487437186,400 642.462311557789,400 644.9748743718593,400 647.4874371859297,400 650,400 "/><text class="poloto_text" alignment-baseline="middle" text-anchor="start" font-size="large" x="675" y="150" >σ = 0.5</text><line class="poloto2stroke" stroke="black" x1="680" x2="730" y1="181.25" y2="181.25" /><polyline class="poloto2stroke" fill="none" stroke="black" points="150,400 152.51256281407035,400 155.0251256281407,400 157.53768844221108,400 160.05025125628143,400 162.56281407035175,400 165.0753768844221,400 167.58793969849245,400 170.10050251256283,400 172.61306532663318,400 175.12562814070353,400 177.63819095477385,400 180.1507537688442,400 182.6633165829146,400 185.17587939698493,400 187.68844221105527,400 190.20100502512562,400 192.71356783919597,400 195.22613065326635,400 197.7386934673367,400 200.25125628140705,400 202.76381909547737,400 205.27638190954775,400 207.7889447236181,400 210.30150753768845,400 212.8140703517588,400 215.32663316582915,400 217.8391959798995,400 220.35175879396985,400 222.8643216080402,400 225.37688442211055,400 227.8894472361809,400 230.40201005025125,400 232.91457286432163,400 235.42713567839198,400 237.9396984924623,400 240.45226130653265,400 242.96482412060303,400 245.47738693467335,400 247.98994974874373,400 250.50251256281408,400 253.01507537688443,400 255.5276381909548,400 258.0402010050251,400 260.5527638190955,400 263.06532663316585,400 265.5778894472362,400 268.0904522613065,400 270.6030150753769,400 273.11557788944725,399.99999999999994 275.6281407035176,399.9999999999998 278.14070351758795,399.99999999999903 280.6532663316583,399.9999999999962 283.1658291457287,399.9999999999858 285.678391959799,399.9999999999483 288.19095477386935,399.99999999981696 290.7035175879397,399.9999999993699 293.21608040201005,399.9999999978904 295.7286432160804,399.9999999931308 298.24120603015075,399.9999999782454 300.7537688442211,399.99999993299105 303.26633165829145,399.9999997992524 305.7788944723618,399.9999994150697 308.2914572864322,399.99999834234467 310.8040201005025,399.9999954310061 313.3165829145729,399.99998775149186 315.8291457286432,399.9999680638858 318.3417085427136,399.9999190126449 320.85427135678395,399.9998002491559 323.3668341708543,399.99952082263513 325.8793969849246,399.99888200404837 328.391959798995,399.9974630002094 330.9045226130653,399.9944006592659 333.4170854271357,399.98798041078214 335.92964824120605,399.9749054958311 338.4422110552764,399.9490429970316 340.9547738693467,399.89936121162924 343.4673366834171,399.8066860538294 345.97989949748745,399.63884200155155 348.4924623115578,399.34375266454515 351.00502512562815,398.84022395815816 353.5175879396985,398.0064966151776 356.03015075376885,396.66730103852734 358.5427135678392,394.58109597406565 361.0552763819096,391.43034976463485 363.5678391959799,386.8189199129778 366.08040201005025,380.2814414150409 368.5929648241206,371.3096665502385 371.105527638191,359.3994150290161 373.6180904522613,344.1188608906897 376.1306532663317,325.19433736681117 378.643216080402,302.60425979249516 381.1557788944724,276.66631284784347 383.66834170854275,248.0993150055696 386.18090452261305,218.04080208621042 388.6934673366834,188.00551664268517 391.2060301507538,159.77877912495768 393.7185929648241,135.25092922462153 396.2311557788945,116.21215932797026 398.74371859296485,104.13786497682509 401.2562814070352,100 403.7688442211055,104.13786497682509 406.2814070351759,116.21215932797026 408.79396984924625,135.25092922462153 411.3065326633166,159.77877912495768 413.81909547738695,188.00551664268517 416.33165829145736,218.04080208621042 418.84422110552765,248.09931500557013 421.356783919598,276.666312847844 423.86934673366835,302.60425979249516 426.3819095477387,325.19433736681117 428.8944723618091,344.11886089069 431.40703517587946,359.3994150290163 433.91959798994975,371.3096665502383 436.4321608040201,380.2814414150407 438.94472361809045,386.8189199129778 441.4572864321608,391.43034976463485 443.96984924623115,394.5810959740656 446.4824120603015,396.6673010385273 448.99497487437185,398.0064966151776 451.5075376884422,398.84022395815816 454.02010050251255,399.34375266454515 456.5326633165829,399.63884200155155 459.0452261306533,399.8066860538294 461.55778894472365,399.89936121162924 464.070351758794,399.9490429970316 466.58291457286435,399.9749054958311 469.09547738693465,399.98798041078214 471.60804020100505,399.9944006592659 474.1206030150754,399.9974630002094 476.63316582914575,399.99888200404837 479.14572864321616,399.99952082263513 481.65829145728645,399.9998002491559 484.1708542713568,399.9999190126449 486.68341708542715,399.9999680638858 489.1959798994975,399.99998775149186 491.7085427135679,399.9999954310061 494.22110552763826,399.99999834234467 496.73366834170855,399.9999994150697 499.2462311557789,399.9999997992524 501.75879396984925,399.99999993299105 504.2713567839196,399.9999999782454 506.78391959798995,399.9999999931308 509.2964824120603,399.9999999978904 511.80904522613065,399.9999999993699 514.321608040201,399.99999999981696 516.8341708542714,399.9999999999483 519.3467336683417,399.9999999999858 521.8592964824121,399.9999999999962 524.3718592964824,399.99999999999903 526.8844221105528,399.9999999999998 529.3969849246232,399.99999999999994 531.9095477386934,400 534.4221105527638,400 536.9346733668342,400 539.4472361809046,400 541.9597989949749,400 544.4723618090452,400 546.9849246231156,400 549.497487437186,400 552.0100502512563,400 554.5226130653267,400 557.035175879397,400 559.5477386934673,400 562.0603015075377,400 564.572864321608,400 567.0854271356784,400 569.5979899497488,400 572.1105527638192,400 574.6231155778894,400 577.1356783919598,400 579.6482412060302,400 582.1608040201005,400 584.6733668341709,400 587.1859296482412,400 589.6984924623116,400 592.211055276382,400 594.7236180904522,400 597.2361809045226,400 599.748743718593,400 602.2613065326634,400 604.7738693467337,400 607.286432160804,400 609.7989949748744,400 612.3115577889448,400 614.8241206030151,400 617.3366834170855,400 619.8492462311558,400 622.3618090452261,400 624.8743718592964,400 627.3869346733668,400 629.8994974874372,400 632.4120603015076,400 634.924623115578,400 637.4371859296482,400 639.9497487437186,400 642.462311557789,400 644.9748743718593,400 647.4874371859297,400 650,400 "/><text class="poloto_text" alignment-baseline="middle" text-anchor="start" font-size="large" x="675" y="200" >σ = 0.3</text><line class="poloto_axis_lines" stroke="black" x1="200.25125628140705" x2="200.25125628140705" y1="400" y2="405" /><text class="poloto_text" alignment-baseline="start" text-anchor="middle" x="200.25125628140705" y="430" >-4</text><line class="poloto_axis_lines" stroke="black" x1="300.7537688442211" x2="300.7537688442211" y1="400" y2="405" /><text class="poloto_text" alignment-baseline="start" text-anchor="middle" x="300.7537688442211" y="430" >-2</text><line class="poloto_axis_lines" stroke="black" x1="401.2562814070352" x2="401.2562814070352" y1="400" y2="405" /><text class="poloto_text" alignment-baseline="start" text-anchor="middle" x="401.2562814070352" y="430" >0</text><line class="poloto_axis_lines" stroke="black" x1="501.75879396984925" x2="501.75879396984925" y1="400" y2="405" /><text class="poloto_text" alignment-baseline="start" text-anchor="middle" x="501.75879396984925" y="430" >2</text><line class="poloto_axis_lines" stroke="black" x1="602.2613065326634" x2="602.2613065326634" y1="400" y2="405" /><text class="poloto_text" alignment-baseline="start" text-anchor="middle" x="602.2613065326634" y="430" >4</text><line class="poloto_axis_lines" stroke="black" x1="150" x2="144" y1="358.8118945211304" y2="358.8118945211304" /><text class="poloto_text" alignment-baseline="middle" text-anchor="end" x="135" y="358.8118945211304" >0.1</text><line class="poloto_axis_lines" stroke="black" x1="150" x2="144" y1="317.6237890422608" y2="317.6237890422608" /><text class="poloto_text" alignment-baseline="middle" text-anchor="end" x="135" y="317.6237890422608" >0.2</text><line class="poloto_axis_lines" stroke="black" x1="150" x2="144" y1="276.4356835633912" y2="276.4356835633912" /><text class="poloto_text" alignment-baseline="middle" text-anchor="end" x="135" y="276.4356835633912" >0.3</text><line class="poloto_axis_lines" stroke="black" x1="150" x2="144" y1="235.2475780845216" y2="235.2475780845216" /><text class="poloto_text" alignment-baseline="middle" text-anchor="end" x="135" y="235.2475780845216" >0.4</text><line class="poloto_axis_lines" stroke="black" x1="150" x2="144" y1="194.059472605652" y2="194.059472605652" /><text class="poloto_text" alignment-baseline="middle" text-anchor="end" x="135" y="194.059472605652" >0.5</text><line class="poloto_axis_lines" stroke="black" x1="150" x2="144" y1="152.8713671267824" y2="152.8713671267824" /><text class="poloto_text" alignment-baseline="middle" text-anchor="end" x="135" y="152.8713671267824" >0.6</text><line class="poloto_axis_lines" stroke="black" x1="150" x2="144" y1="111.68326164791279" y2="111.68326164791279" /><text class="poloto_text" alignment-baseline="middle" text-anchor="end" x="135" y="111.68326164791279" >0.7</text><text class="poloto_text" alignment-baseline="start" text-anchor="middle" font-size="x-large" x="400" y="37.5" >gaussian</text><text class="poloto_text" alignment-baseline="start" text-anchor="middle" font-size="x-large" x="400" y="481.25" >x</text><text class="poloto_text" alignment-baseline="start" text-anchor="middle" font-size="x-large" transform="rotate(-90,37.5,250)" x="37.5" y="250" >y</text><path stroke="black" fill="none" class="poloto_axis_lines" d=" M 150 100 L 150 400 L 650 400"/></svg>
