<svg  width="800" class="poloto_background poloto" height="500" viewBox="0 0 800 500" xmlns="http://www.w3.org/2000/svg" > <style>.poloto{stroke-linecap:round;stroke-linejoin:round;font-family:'Tahoma',sans-serif;stroke-width:2;}.scatter{stroke-width:7}.poloto_text{fill:black;}.poloto_axis_lines{stroke:black;stroke-width:3;fill:none;stroke-dasharray:none}.poloto_background{background-color:AliceBlue;}.poloto0stroke{stroke:blue;}.poloto1stroke{stroke:red;}.poloto2stroke{stroke:green;}.poloto3stroke{stroke:gold;}.poloto4stroke{stroke:aqua;}.poloto5stroke{stroke:lime;}.poloto6stroke{stroke:orange;}.poloto7stroke{stroke:chocolate;}.poloto0fill{fill:blue;}.poloto1fill{fill:red;}.poloto2fill{fill:green;}.poloto3fill{fill:gold;}.poloto4fill{fill:aqua;}.poloto5fill{fill:lime;}.poloto6fill{fill:orange;}.poloto7fill{fill:chocolate;}</style><text  class="poloto_text" alignment-baseline="middle" text-anchor="start" font-size="large" x="675" y="100" ></text><path  class="poloto0fill" d=" M 299.5783685763798 400 L 299.5783685763798 400 L 298.79564495648265 396.7533670092687 L 297.40492305820055 392.47404501485477 L 295.26249314373354 387.24624986108324 L 292.25194224652193 381.16705618631573 L 288.2885838838031 374.3410877116132 L 283.32284937668805 366.8749254764193 L 277.3425288384852 358.87160210749016 L 270.37378711830854 350.4255474309141 L 262.4809196357709 341.6183246140939 L 253.76485383238867 332.5154479755072 L 244.36044257793014 323.16450639440905 L 234.4326349927351 313.59473385067236 L 224.17164651554052 303.81807594793884 L 213.78728248507193 293.8317039155846 L 203.50259696404183 283.6218314847555 L 193.5470901285473 273.16860112095463 L 184.14966257597735 262.45172993872444 L 175.53155288435246 251.4565470949632 L 167.8994854272079 240.18001743600374 L 161.43924878855506 228.63633330703033 L 156.30991134680875 216.86166896604573 L 152.63886014948758 204.91772973300095 L 150.5178227421662 192.89378910931856 L 150 180.90698847691544 L 151.09840225919825 169.10077124106212 L 153.7854423137613 157.64143103019356 L 157.99379838061358 146.71286572158377 L 163.61851925086174 136.50973918368334 L 170.52030385685003 127.22935428642097 L 178.52984968555876 119.06262788632904 L 187.45313007953976 112.18462583602269 L 197.07743059769263 106.74515933766565 L 207.17795022436252 102.85996020171109 L 217.52475510388427 100.60294031653956 L 227.88986122352054 100 L 238.0542184339089 101.02478260665941 L 247.81437151250418 103.5966820394546 L 256.9885845344638 107.58130024810873 L 265.42223227532935 112.79342908396461 L 272.9922861661291 119.0025015166405 L 279.61075168481466 125.94032814170544 L 285.2269480490887 133.31081312205413 L 289.8285585762823 140.8012358840612 L 293.4414198839431 148.09459700913433 L 296.1280589335779 154.88246376361766 L 297.9850274499985 160.87771622263878 L 299.1391221700725 165.8265910721105 L 299.7426154294943 169.51944737765155 L 299.9676526192668 171.79973567093532 L 300 172.57073578564038 L 300.0323473807332 171.79973567093532 L 300.2573845705057 169.51944737765155 L 300.8608778299275 165.8265910721105 L 302.0149725500016 160.87771622263875 L 303.87194106642215 154.88246376361758 L 306.5585801160569 148.0945970091343 L 310.17144142371774 140.8012358840612 L 314.7730519509113 133.31081312205418 L 320.38924831518534 125.94032814170544 L 327.0077138338709 119.0025015166405 L 334.57776772467065 112.79342908396461 L 343.0114154655362 107.58130024810873 L 352.1856284874958 103.5966820394546 L 361.9457815660911 101.02478260665941 L 372.11013877647946 100 L 382.4752448961157 100.60294031653956 L 392.82204977563754 102.85996020171109 L 402.92256940230743 106.74515933766565 L 412.5468699204602 112.18462583602263 L 421.47015031444107 119.06262788632893 L 429.47969614314997 127.22935428642086 L 436.38148074913835 136.5097391836834 L 442.0062016193864 146.71286572158377 L 446.2145576862387 157.6414310301935 L 448.9015977408017 169.10077124106212 L 450 180.9069884769155 L 449.48217725783377 192.89378910931862 L 447.3611398505124 204.91772973300093 L 443.69008865319125 216.86166896604578 L 438.5607512114449 228.6363333070305 L 432.100514572792 240.18001743600385 L 424.4684471156475 251.4565470949632 L 415.8503374240227 262.4517299387244 L 406.45290987145273 273.16860112095463 L 396.49740303595826 283.6218314847554 L 386.2127175149281 293.8317039155846 L 375.8283534844595 303.81807594793884 L 365.5673650072649 313.59473385067236 L 355.63955742206986 323.16450639440905 L 346.2351461676113 332.5154479755073 L 337.5190803642291 341.6183246140939 L 329.62621288169146 350.42554743091415 L 322.6574711615149 358.87160210749016 L 316.67715062331206 366.8749254764192 L 311.711416116197 374.34108771161317 L 307.74805775347807 381.16705618631573 L 304.73750685626646 387.24624986108336 L 302.59507694179945 392.47404501485477 L 301.20435504351735 396.7533670092687 L 301.20435504351735 400 Z" /><text  class="poloto_text" alignment-baseline="start" text-anchor="middle" font-size="x-large" x="400" y="37.5" >Heart Graph</text><text  class="poloto_text" alignment-baseline="start" text-anchor="middle" font-size="x-large" x="400" y="481.25" >x</text><text  class="poloto_text" alignment-baseline="start" text-anchor="middle" font-size="x-large" transform="rotate(-90,37.5,250)" x="37.5" y="250" >y</text><line  class="poloto_axis_lines" stroke="black" x1="206.2336069039434" x2="206.2336069039434" y1="400" y2="405" /><text  class="poloto_text" alignment-baseline="start" text-anchor="middle" x="206.2336069039434" y="430" > -10</text><line  class="poloto_axis_lines" stroke="black" x1="300" x2="300" y1="400" y2="405" /><text  class="poloto_text" alignment-baseline="start" text-anchor="middle" x="300" y="430" > 0</text><line  class="poloto_axis_lines" stroke="black" x1="393.7663930960566" x2="393.7663930960566" y1="400" y2="405" /><text  class="poloto_text" alignment-baseline="start" text-anchor="middle" x="393.7663930960566" y="430" > 10</text><line  class="poloto_axis_lines" stroke="black" x1="150" x2="144" y1="382.256908348919" y2="382.256908348919" /><text  class="poloto_text" alignment-baseline="middle" text-anchor="end" x="135" y="382.256908348919" > -15</text><line  class="poloto_axis_lines" stroke="black" x1="150" x2="144" y1="329.83536520809935" y2="329.83536520809935" /><text  class="poloto_text" alignment-baseline="middle" text-anchor="end" x="135" y="329.83536520809935" > -10</text><line  class="poloto_axis_lines" stroke="black" x1="150" x2="144" y1="277.4138220672797" y2="277.4138220672797" /><text  class="poloto_text" alignment-baseline="middle" text-anchor="end" x="135" y="277.4138220672797" > -5</text><line  class="poloto_axis_lines" stroke="black" x1="150" x2="144" y1="224.99227892646002" y2="224.99227892646002" /><text  class="poloto_text" alignment-baseline="middle" text-anchor="end" x="135" y="224.99227892646002" > 0</text><line  class="poloto_axis_lines" stroke="black" x1="150" x2="144" y1="172.5707357856404" y2="172.5707357856404" /><text  class="poloto_text" alignment-baseline="middle" text-anchor="end" x="135" y="172.5707357856404" > 5</text><line  class="poloto_axis_lines" stroke="black" x1="150" x2="144" y1="120.14919264482074" y2="120.14919264482074" /><text  class="poloto_text" alignment-baseline="middle" text-anchor="end" x="135" y="120.14919264482074" > 10</text><path  stroke="black" fill="none" class="poloto_axis_lines" style="stroke-dasharray:9.37663930960566;stroke-dashoffset:-56.23360690394341;" d=" M 150 400 L 450 400" /><path  stroke="black" fill="none" class="poloto_axis_lines" style="stroke-dasharray:5.242154314081965;stroke-dashoffset:-17.743091651081013;" d=" M 150 400 L 150 100" /></svg>