<svg class="poloto" width="800" height="500" viewBox="0 0 800 500" xmlns="http://www.w3.org/2000/svg"><style>.poloto { stroke-linecap:round; stroke-linejoin:round; font-family: 'Tahoma', sans-serif; background-color: #262626;} .poloto_scatter{stroke-width:7} .poloto_line{stroke-width:2} .poloto_text{fill: white;} .poloto_axis_lines{stroke: white;stroke-width:3;fill:none;stroke-dasharray:none} .poloto0stroke{stroke:  blue;} .poloto1stroke{stroke:  red;} .poloto2stroke{stroke:  green;} .poloto3stroke{stroke:  gold;} .poloto4stroke{stroke:  aqua;} .poloto5stroke{stroke:  lime;} .poloto6stroke{stroke:  orange;} .poloto7stroke{stroke:  chocolate;} .poloto0fill{fill:blue;} .poloto1fill{fill:red;} .poloto2fill{fill:green;} .poloto3fill{fill:gold;} .poloto4fill{fill:aqua;} .poloto5fill{fill:lime;} .poloto6fill{fill:orange;} .poloto7fill{fill:chocolate;}</style><text  class="poloto_text poloto_legend_text" alignment-baseline="middle" text-anchor="start" font-size="large" x="675" y="100" >heart</text><rect  class="poloto_linefillraw poloto_legend_icon poloto0fill poloto0legend" x="680" y="76.25" width="50" height="7.5" rx="5" ry="5" /><path  class="poloto_linefillraw poloto0fill" d=" M 399.6627538318646 375.1926049301557 L 399.03668441025275 372.87011059179997 L 397.92430140257636 369.808877267183 L 396.21065711831324 366.06914916074777 L 393.8026374661169 361.7203690763579 L 390.63250510430794 356.8373800900604 L 386.6606120226139 351.49642545490855 L 381.8771920193966 345.77121005007734 L 376.30317331444513 339.7292847004023 L 369.98998325088047 333.42899600528415 L 363.018349665871 326.9172099437785 L 355.4961359942645 320.2279694468095 L 347.555278462005 313.3821871808028 L 339.3479228159237 306.3884084900908 L 331.04188398293485 299.2446098001649 L 322.8155740161319 291.940929038086 L 314.8525609577412 284.46316102218617 L 307.335933270882 276.7967962939664 L 300.4426508748137 268.93133999609597 L 294.33806435521217 260.86462091697564 L 289.17077859428275 252.60679161817689 L 285.0680260469295 244.18372952706693 L 282.1316985343949 235.63957583750474 L 280.4351652638217 227.03819277297254 L 280.0209794944845 218.46337797769618 L 280.8995476756822 210.0177443732983 L 283.04880390105257 201.8202508971295 L 286.4149001599818 194.00244976960514 L 290.91389016417713 186.7035947140902 L 296.4343525426206 180.0648272761979 L 302.84086896410406 174.2227207365113 L 309.97824523987674 169.30250928463497 L 317.6763395680015 165.4113610759598 L 325.7553425773654 162.63206541106655 L 334.0313393427435 161.0174955105474 L 342.3219745405413 160.58617928985745 L 350.45203868834517 161.31926239743586 L 358.2587960640368 163.1590828786975 L 365.59688334592795 166.0094984496992 L 372.34262198084525 169.73801958116502 L 378.3976063207927 174.17970905222597 L 383.6914530553355 179.14271629795024 L 388.18362464701715 184.41522775417738 L 391.8642694723542 189.7735372724743 L 394.75405321179034 194.9908778123271 L 396.9029886893039 199.84661055200138 L 398.3883037807021 204.13534288880714 L 399.3114181412692 207.67554403009478 L 399.79412834224996 210.3172463372128 L 399.9741266196247 211.94846140404962 L 400 212.5 L 400.0258733803753 211.94846140404962 L 400.20587165775004 210.3172463372128 L 400.6885818587308 207.67554403009478 L 401.6116962192979 204.13534288880712 L 403.0970113106961 199.84661055200132 L 405.2459467882097 194.99087781232708 L 408.1357305276458 189.7735372724743 L 411.81637535298285 184.4152277541774 L 416.3085469446645 179.14271629795024 L 421.6023936792073 174.17970905222597 L 427.65737801915475 169.73801958116502 L 434.40311665407205 166.0094984496992 L 441.7412039359632 163.1590828786975 L 449.54796131165483 161.31926239743586 L 457.6780254594587 160.58617928985745 L 465.9686606572565 161.0174955105474 L 474.24465742263465 162.63206541106655 L 482.3236604319985 165.4113610759598 L 490.0217547601232 169.30250928463494 L 497.1591310358958 174.22272073651118 L 503.5656474573793 180.06482727619786 L 509.08610983582287 186.70359471409023 L 513.5850998400182 194.00244976960514 L 516.9511960989474 201.82025089712945 L 519.1004523243178 210.0177443732983 L 519.9790205055156 218.46337797769624 L 519.5648347361782 227.03819277297256 L 517.8683014656051 235.6395758375047 L 514.9319739530705 244.18372952706696 L 510.82922140571713 252.606791618177 L 505.6619356447877 260.8646209169757 L 499.5573491251863 268.93133999609597 L 492.6640667291181 276.79679629396634 L 485.1474390422588 284.46316102218617 L 477.1844259838682 291.94092903808587 L 468.95811601706515 299.2446098001649 L 460.6520771840763 306.3884084900908 L 452.444721537995 313.3821871808028 L 444.5038640057355 320.2279694468095 L 436.981650334129 326.9172099437786 L 430.0100167491195 333.42899600528415 L 423.6968266855548 339.72928470040233 L 418.1228079806034 345.77121005007734 L 413.33938797738614 351.4964254549085 L 409.3674948956922 356.83738009006026 L 406.1973625338831 361.7203690763579 L 403.7893428816867 366.0691491607478 L 402.07569859742364 369.808877267183 L 400.96331558974725 372.87011059179997 Z" /><text  class="poloto_labels poloto_text poloto_title" alignment-baseline="start" text-anchor="middle" font-size="x-large" x="400" y="37.5" > Heart Graph</text><text  class="poloto_labels poloto_text poloto_xname" alignment-baseline="start" text-anchor="middle" font-size="x-large" x="400" y="481.25" > x</text><text  class="poloto_labels poloto_text poloto_yname" alignment-baseline="start" text-anchor="middle" font-size="x-large" transform="rotate(-90,37.5,250)" x="37.5" y="250" > y</text><line  class="poloto_axis_lines" stroke="black" x1="250" x2="250" y1="400" y2="405" /><text  class="poloto_tick_labels poloto_text" alignment-baseline="start" text-anchor="middle" x="250" y="430" > -2e1</text><line  class="poloto_axis_lines" stroke="black" x1="325" x2="325" y1="400" y2="405" /><text  class="poloto_tick_labels poloto_text" alignment-baseline="start" text-anchor="middle" x="325" y="430" > -1e1</text><line  class="poloto_axis_lines" stroke="black" x1="400" x2="400" y1="400" y2="405" /><text  class="poloto_tick_labels poloto_text" alignment-baseline="start" text-anchor="middle" x="400" y="430" > 0</text><line  class="poloto_axis_lines" stroke="black" x1="475" x2="475" y1="400" y2="405" /><text  class="poloto_tick_labels poloto_text" alignment-baseline="start" text-anchor="middle" x="475" y="430" > 1e1</text><line  class="poloto_axis_lines" stroke="black" x1="550" x2="550" y1="400" y2="405" /><text  class="poloto_tick_labels poloto_text" alignment-baseline="start" text-anchor="middle" x="550" y="430" > 2e1</text><line  class="poloto_axis_lines" stroke="black" x1="250" x2="244" y1="400" y2="400" /><text  class="poloto_tick_labels poloto_text" alignment-baseline="middle" text-anchor="end" x="235" y="400" > -2e1</text><line  class="poloto_axis_lines" stroke="black" x1="250" x2="244" y1="325" y2="325" /><text  class="poloto_tick_labels poloto_text" alignment-baseline="middle" text-anchor="end" x="235" y="325" > -1e1</text><line  class="poloto_axis_lines" stroke="black" x1="250" x2="244" y1="250" y2="250" /><text  class="poloto_tick_labels poloto_text" alignment-baseline="middle" text-anchor="end" x="235" y="250" > 0</text><line  class="poloto_axis_lines" stroke="black" x1="250" x2="244" y1="175" y2="175" /><text  class="poloto_tick_labels poloto_text" alignment-baseline="middle" text-anchor="end" x="235" y="175" > 1e1</text><line  class="poloto_axis_lines" stroke="black" x1="250" x2="244" y1="100" y2="100" /><text  class="poloto_tick_labels poloto_text" alignment-baseline="middle" text-anchor="end" x="235" y="100" > 2e1</text><path  stroke="black" fill="none" class="poloto_axis_lines" d=" M 250 400 L 550 400" /><path  stroke="black" fill="none" class="poloto_axis_lines" d=" M 250 400 L 250 100" /></svg>
