<svg  width="800" class="poloto_background poloto" height="500" viewBox="0 0 800 500" xmlns="http://www.w3.org/2000/svg" > <style>.poloto{stroke-linecap:round;stroke-linejoin:round;font-family:sans-serif;stroke-width:2;}.scatter{stroke-width:7}.poloto_text{fill:black;}.poloto_axis_lines{stroke:black;stroke-width:3;fill:none;stroke-dasharray:none}.poloto_background{background-color:aliceblue;}.poloto0stroke{stroke:blue;}.poloto1stroke{stroke:red;}.poloto2stroke{stroke:green;}.poloto3stroke{stroke:gold;}.poloto4stroke{stroke:aqua;}.poloto5stroke{stroke:lime;}.poloto6stroke{stroke:orange;}.poloto7stroke{stroke:chocolate;}.poloto0fill{fill:blue;}.poloto1fill{fill:red;}.poloto2fill{fill:green;}.poloto3fill{fill:gold;}.poloto4fill{fill:aqua;}.poloto5fill{fill:lime;}.poloto6fill{fill:orange;}.poloto7fill{fill:chocolate;}</style><text  class="poloto_text" alignment-baseline="middle" text-anchor="start" font-size="large" x="675" y="100" ></text><path  class="poloto0fill" d=" M 399.2972809606329 400 L 399.2972809606329 400 L 397.9927415941378 396.7533670092687 L 395.6748717636676 392.47404501485477 L 392.1041552395559 387.24624986108324 L 387.08657041086985 381.16705618631573 L 380.48097313967185 374.3410877116132 L 372.2047489611467 366.8749254764193 L 362.23754806414195 358.87160210749016 L 350.6229785305142 350.4255474309141 L 337.46819939295153 341.6183246140939 L 322.9414230539811 332.5154479755072 L 307.26740429655024 323.16450639440905 L 290.7210583212252 313.59473385067236 L 273.61941085923416 303.81807594793884 L 256.31213747511987 293.8317039155846 L 239.1709949400697 283.6218314847555 L 222.5784835475788 273.16860112095463 L 206.91610429329558 262.45172993872444 L 192.55258814058743 251.4565470949632 L 179.83247571201318 240.18001743600374 L 169.06541464759178 228.63633330703033 L 160.51651891134793 216.86166896604573 L 154.39810024914598 204.91772973300095 L 150.86303790361035 192.89378910931856 L 150 180.90698847691544 L 151.8306704319971 169.10077124106212 L 156.30907052293549 157.64143103019356 L 163.32299730102267 146.71286572158377 L 172.69753208476956 136.50973918368334 L 184.2005064280834 127.22935428642097 L 197.54974947593126 119.06262788632904 L 212.42188346589958 112.18462583602269 L 228.4623843294877 106.74515933766565 L 245.29658370727086 102.85996020171109 L 262.5412585064738 100.60294031653956 L 279.8164353725342 100 L 296.7570307231815 101.02478260665941 L 313.0239525208403 103.5966820394546 L 328.31430755743975 107.58130024810873 L 342.37038712554886 112.79342908396461 L 354.9871436102151 119.0025015166405 L 366.0179194746911 125.94032814170544 L 375.37824674848116 133.31081312205413 L 383.0475976271372 140.8012358840612 L 389.0690331399053 148.09459700913433 L 393.54676488929647 154.88246376361766 L 396.64171241666406 160.87771622263878 L 398.56520361678747 165.8265910721105 L 399.57102571582385 169.51944737765155 L 399.9460876987779 171.79973567093532 L 400 172.57073578564038 L 400.05391230122206 171.79973567093532 L 400.4289742841762 169.51944737765155 L 401.43479638321253 165.8265910721105 L 403.35828758333594 160.87771622263875 L 406.4532351107036 154.88246376361758 L 410.93096686009477 148.0945970091343 L 416.9524023728629 140.8012358840612 L 424.6217532515187 133.31081312205418 L 433.9820805253089 125.94032814170544 L 445.0128563897849 119.0025015166405 L 457.6296128744511 112.79342908396461 L 471.6856924425603 107.58130024810873 L 486.9760474791597 103.5966820394546 L 503.24296927681854 101.02478260665941 L 520.1835646274658 100 L 537.4587414935262 100.60294031653956 L 554.7034162927293 102.85996020171109 L 571.5376156705123 106.74515933766565 L 587.5781165341002 112.18462583602263 L 602.4502505240685 119.06262788632893 L 615.7994935719166 127.22935428642086 L 627.3024679152305 136.5097391836834 L 636.6770026989773 146.71286572158377 L 643.6909294770645 157.6414310301935 L 648.1693295680029 169.10077124106212 L 650 180.9069884769155 L 649.1369620963897 192.89378910931862 L 645.601899750854 204.91772973300093 L 639.4834810886521 216.86166896604578 L 630.934585352408 228.6363333070305 L 620.1675242879867 240.18001743600385 L 607.4474118594126 251.4565470949632 L 593.0838957067045 262.4517299387244 L 577.4215164524212 273.16860112095463 L 560.8290050599304 283.6218314847554 L 543.6878625248801 293.8317039155846 L 526.3805891407658 303.81807594793884 L 509.27894167877486 313.59473385067236 L 492.73259570344976 323.16450639440905 L 477.0585769460188 332.5154479755073 L 462.5318006070485 341.6183246140939 L 449.37702146948567 350.42554743091415 L 437.76245193585805 358.87160210749016 L 427.79525103885334 366.8749254764192 L 419.51902686032827 374.34108771161317 L 412.9134295891301 381.16705618631573 L 407.89584476044405 387.24624986108336 L 404.3251282363324 392.47404501485477 L 402.0072584058622 396.7533670092687 L 402.0072584058622 400 Z" /><text  class="poloto_text" alignment-baseline="start" text-anchor="middle" font-size="x-large" x="400" y="37.5" >Heart Graph</text><text  class="poloto_text" alignment-baseline="start" text-anchor="middle" font-size="x-large" x="400" y="481.25" >x</text><text  class="poloto_text" alignment-baseline="start" text-anchor="middle" font-size="x-large" transform="rotate(-90,37.5,250)" x="37.5" y="250" >y</text><path  stroke="black" fill="none" class="poloto_axis_lines" style="stroke-dasharray:5.242154314081965" d=" M 150 400 L 150 100" /><path  stroke="black" fill="none" class="poloto_axis_lines" style="stroke-dasharray:7.813866091338049;" d=" M 150 400 L 650 400" /><line  class="poloto_axis_lines" stroke="black" x1="165.5840172598585" x2="165.5840172598585" y1="400" y2="405" /><text  class="poloto_text" alignment-baseline="start" text-anchor="middle" x="165.5840172598585" y="430" > -15</text><line  class="poloto_axis_lines" stroke="black" x1="243.72267817323902" x2="243.72267817323902" y1="400" y2="405" /><text  class="poloto_text" alignment-baseline="start" text-anchor="middle" x="243.72267817323902" y="430" > -10</text><line  class="poloto_axis_lines" stroke="black" x1="321.8613390866195" x2="321.8613390866195" y1="400" y2="405" /><text  class="poloto_text" alignment-baseline="start" text-anchor="middle" x="321.8613390866195" y="430" > -5</text><line  class="poloto_axis_lines" stroke="black" x1="400" x2="400" y1="400" y2="405" /><text  class="poloto_text" alignment-baseline="start" text-anchor="middle" x="400" y="430" > 0</text><line  class="poloto_axis_lines" stroke="black" x1="478.1386609133805" x2="478.1386609133805" y1="400" y2="405" /><text  class="poloto_text" alignment-baseline="start" text-anchor="middle" x="478.1386609133805" y="430" > 5</text><line  class="poloto_axis_lines" stroke="black" x1="556.277321826761" x2="556.277321826761" y1="400" y2="405" /><text  class="poloto_text" alignment-baseline="start" text-anchor="middle" x="556.277321826761" y="430" > 10</text><line  class="poloto_axis_lines" stroke="black" x1="634.4159827401415" x2="634.4159827401415" y1="400" y2="405" /><text  class="poloto_text" alignment-baseline="start" text-anchor="middle" x="634.4159827401415" y="430" > 15</text><line  class="poloto_axis_lines" stroke="black" x1="150" x2="144" y1="382.256908348919" y2="382.256908348919" /><text  class="poloto_text" alignment-baseline="middle" text-anchor="end" x="135" y="382.256908348919" > -15</text><line  class="poloto_axis_lines" stroke="black" x1="150" x2="144" y1="329.83536520809935" y2="329.83536520809935" /><text  class="poloto_text" alignment-baseline="middle" text-anchor="end" x="135" y="329.83536520809935" > -10</text><line  class="poloto_axis_lines" stroke="black" x1="150" x2="144" y1="277.4138220672797" y2="277.4138220672797" /><text  class="poloto_text" alignment-baseline="middle" text-anchor="end" x="135" y="277.4138220672797" > -5</text><line  class="poloto_axis_lines" stroke="black" x1="150" x2="144" y1="224.99227892646002" y2="224.99227892646002" /><text  class="poloto_text" alignment-baseline="middle" text-anchor="end" x="135" y="224.99227892646002" > 0</text><line  class="poloto_axis_lines" stroke="black" x1="150" x2="144" y1="172.5707357856404" y2="172.5707357856404" /><text  class="poloto_text" alignment-baseline="middle" text-anchor="end" x="135" y="172.5707357856404" > 5</text><line  class="poloto_axis_lines" stroke="black" x1="150" x2="144" y1="120.14919264482074" y2="120.14919264482074" /><text  class="poloto_text" alignment-baseline="middle" text-anchor="end" x="135" y="120.14919264482074" > 10</text></svg>