<svg  width="800" class="poloto_background poloto" height="500" viewBox="0 0 800 500" xmlns="http://www.w3.org/2000/svg" > <style>.poloto { stroke-linecap:round; stroke-linejoin:round; font-family: 'Tahoma', sans-serif; stroke-width:2; } .scatter{stroke-width:7} .poloto_text{fill: black;} .poloto_axis_lines{stroke: black;stroke-width:3;fill:none;stroke-dasharray:none} .poloto_background{background-color: AliceBlue;} .poloto0stroke{stroke:  blue;} .poloto1stroke{stroke:  red;} .poloto2stroke{stroke:  green;} .poloto3stroke{stroke:  gold;} .poloto4stroke{stroke:  aqua;} .poloto5stroke{stroke:  lime;} .poloto6stroke{stroke:  orange;} .poloto7stroke{stroke:  chocolate;} .poloto0fill{fill:blue;} .poloto1fill{fill:red;} .poloto2fill{fill:green;} .poloto3fill{fill:gold;} .poloto4fill{fill:aqua;} .poloto5fill{fill:lime;} .poloto6fill{fill:orange;} .poloto7fill{fill:chocolate;}</style><text  class="poloto_text" alignment-baseline="middle" text-anchor="start" font-size="large" x="675" y="100" >heart</text><rect  class="poloto0fill poloto0legend" x="680" y="76.25" width="50" height="7.5" rx="5" ry="5" /><path  class="poloto0fill" d=" M 399.5783685763797 400 L 399.5783685763797 400 L 398.79564495648265 396.7533670092687 L 397.40492305820055 392.47404501485477 L 395.26249314373354 387.24624986108324 L 392.25194224652193 381.1670561863158 L 388.2885838838031 374.3410877116132 L 383.32284937668805 366.8749254764193 L 377.3425288384852 358.87160210749016 L 370.37378711830854 350.4255474309141 L 362.4809196357709 341.618324614094 L 353.76485383238867 332.51544797550724 L 344.36044257793014 323.16450639440905 L 334.4326349927351 313.59473385067236 L 324.1716465155405 303.81807594793884 L 313.7872824850719 293.8317039155846 L 303.5025969640418 283.6218314847555 L 293.54709012854727 273.16860112095463 L 284.14966257597735 262.45172993872444 L 275.53155288435244 251.4565470949632 L 267.8994854272079 240.18001743600377 L 261.43924878855506 228.63633330703033 L 256.30991134680875 216.86166896604573 L 252.63886014948758 204.91772973300098 L 250.5178227421662 192.8937891093186 L 250 180.90698847691544 L 251.09840225919825 169.10077124106215 L 253.78544231376128 157.6414310301936 L 257.9937983806136 146.7128657215838 L 263.6185192508617 136.50973918368334 L 270.52030385685003 127.22935428642097 L 278.52984968555876 119.06262788632904 L 287.45313007953973 112.18462583602269 L 297.0774305976926 106.74515933766565 L 307.1779502243625 102.85996020171115 L 317.5247551038843 100.60294031653956 L 327.8898612235205 100 L 338.0542184339089 101.02478260665941 L 347.8143715125042 103.5966820394546 L 356.9885845344638 107.58130024810873 L 365.4222322753293 112.79342908396461 L 372.9922861661291 119.0025015166405 L 379.61075168481466 125.94032814170544 L 385.2269480490887 133.31081312205413 L 389.82855857628226 140.80123588406127 L 393.4414198839431 148.09459700913436 L 396.1280589335779 154.8824637636177 L 397.9850274499985 160.87771622263878 L 399.1391221700725 165.82659107211052 L 399.7426154294943 169.51944737765155 L 399.9676526192668 171.79973567093532 L 400 172.5707357856404 L 400.0323473807332 171.79973567093532 L 400.2573845705057 169.51944737765155 L 400.8608778299275 165.82659107211052 L 402.0149725500016 160.87771622263875 L 403.87194106642215 154.88246376361764 L 406.5585801160569 148.0945970091343 L 410.17144142371774 140.80123588406127 L 414.7730519509112 133.31081312205418 L 420.38924831518534 125.94032814170544 L 427.0077138338709 119.0025015166405 L 434.5777677246707 112.79342908396461 L 443.0114154655362 107.58130024810873 L 452.1856284874958 103.5966820394546 L 461.9457815660911 101.02478260665941 L 472.1101387764795 100 L 482.4752448961157 100.60294031653956 L 492.82204977563754 102.85996020171115 L 502.9225694023074 106.74515933766565 L 512.5468699204603 112.18462583602263 L 521.4701503144411 119.06262788632893 L 529.4796961431499 127.22935428642091 L 536.3814807491383 136.50973918368345 L 542.0062016193864 146.7128657215838 L 546.2145576862388 157.6414310301935 L 548.9015977408018 169.10077124106215 L 550 180.90698847691553 L 549.4821772578338 192.89378910931862 L 547.3611398505125 204.91772973300095 L 543.6900886531912 216.86166896604578 L 538.5607512114449 228.63633330703053 L 532.100514572792 240.18001743600385 L 524.4684471156476 251.4565470949632 L 515.8503374240228 262.4517299387244 L 506.45290987145273 273.16860112095463 L 496.49740303595826 283.6218314847554 L 486.2127175149281 293.8317039155846 L 475.8283534844595 303.81807594793884 L 465.5673650072649 313.59473385067236 L 455.63955742206986 323.16450639440905 L 446.2351461676113 332.5154479755073 L 437.5190803642291 341.618324614094 L 429.62621288169146 350.42554743091415 L 422.6574711615148 358.87160210749016 L 416.677150623312 366.8749254764192 L 411.711416116197 374.34108771161317 L 407.74805775347807 381.1670561863158 L 404.73750685626646 387.24624986108336 L 402.59507694179945 392.47404501485477 L 401.20435504351735 396.7533670092687 L 401.20435504351735 400 Z" /><text  class="poloto_text" alignment-baseline="start" text-anchor="middle" font-size="x-large" x="400" y="37.5" >Heart Graph</text><text  class="poloto_text" alignment-baseline="start" text-anchor="middle" font-size="x-large" x="400" y="481.25" >x</text><text  class="poloto_text" alignment-baseline="start" text-anchor="middle" font-size="x-large" transform="rotate(-90,37.5,250)" x="37.5" y="250" >y</text><text  class="poloto_text" alignment-baseline="middle" text-anchor="start" x="440.00000000000006" y="70" > Where j = -1e1</text><line  class="poloto_axis_lines" stroke="black" x1="306.2336069039434" x2="306.2336069039434" y1="400" y2="405" /><text  class="poloto_text" alignment-baseline="start" text-anchor="middle" x="306.2336069039434" y="430" > j+-10</text><line  class="poloto_axis_lines" stroke="black" x1="400" x2="400" y1="400" y2="405" /><text  class="poloto_text" alignment-baseline="start" text-anchor="middle" x="400" y="430" > j+0</text><line  class="poloto_axis_lines" stroke="black" x1="493.7663930960566" x2="493.7663930960566" y1="400" y2="405" /><text  class="poloto_text" alignment-baseline="start" text-anchor="middle" x="493.7663930960566" y="430" > j+10</text><text  class="poloto_text" alignment-baseline="middle" text-anchor="start" x="150" y="70" > Where k = -1.5e1</text><line  class="poloto_axis_lines" stroke="black" x1="250" x2="244" y1="382.25690834891896" y2="382.25690834891896" /><text  class="poloto_text" alignment-baseline="middle" text-anchor="end" x="235" y="382.25690834891896" > k+-15</text><line  class="poloto_axis_lines" stroke="black" x1="250" x2="244" y1="329.83536520809935" y2="329.83536520809935" /><text  class="poloto_text" alignment-baseline="middle" text-anchor="end" x="235" y="329.83536520809935" > k+-10</text><line  class="poloto_axis_lines" stroke="black" x1="250" x2="244" y1="277.4138220672797" y2="277.4138220672797" /><text  class="poloto_text" alignment-baseline="middle" text-anchor="end" x="235" y="277.4138220672797" > k+-5</text><line  class="poloto_axis_lines" stroke="black" x1="250" x2="244" y1="224.99227892646002" y2="224.99227892646002" /><text  class="poloto_text" alignment-baseline="middle" text-anchor="end" x="235" y="224.99227892646002" > k+0</text><line  class="poloto_axis_lines" stroke="black" x1="250" x2="244" y1="172.5707357856404" y2="172.5707357856404" /><text  class="poloto_text" alignment-baseline="middle" text-anchor="end" x="235" y="172.5707357856404" > k+5</text><line  class="poloto_axis_lines" stroke="black" x1="250" x2="244" y1="120.14919264482074" y2="120.14919264482074" /><text  class="poloto_text" alignment-baseline="middle" text-anchor="end" x="235" y="120.14919264482074" > k+10</text><path  stroke="black" fill="none" class="poloto_axis_lines" style="stroke-dasharray:9.37663930960566;stroke-dashoffset:-56.23360690394341;" d=" M 250 400 L 550 400" /><path  stroke="black" fill="none" class="poloto_axis_lines" style="stroke-dasharray:5.242154314081965;stroke-dashoffset:-17.743091651081016;" d=" M 250 400 L 250 100" /></svg>