<svg class="poloto" width="800" height="500" viewBox="0 0 800 500" xmlns="http://www.w3.org/2000/svg"><style>.poloto { stroke-linecap:round; stroke-linejoin:round; font-family: 'Tahoma', sans-serif; background-color: #262626;} .poloto_scatter{stroke-width:7} .poloto_line{stroke-width:2} .poloto_text{fill: white;} .poloto_axis_lines{stroke: white;stroke-width:3;fill:none;stroke-dasharray:none} .poloto0stroke{stroke:  blue;} .poloto1stroke{stroke:  red;} .poloto2stroke{stroke:  green;} .poloto3stroke{stroke:  gold;} .poloto4stroke{stroke:  aqua;} .poloto5stroke{stroke:  lime;} .poloto6stroke{stroke:  orange;} .poloto7stroke{stroke:  chocolate;} .poloto0fill{fill:blue;} .poloto1fill{fill:red;} .poloto2fill{fill:green;} .poloto3fill{fill:gold;} .poloto4fill{fill:aqua;} .poloto5fill{fill:lime;} .poloto6fill{fill:orange;} .poloto7fill{fill:chocolate;}.poloto_scatter{stroke-width:33;}.poloto_scatter.poloto_legend_icon{stroke-width:10}</style><text  class="poloto_text poloto_legend_text" alignment-baseline="middle" text-anchor="start" font-size="large" x="675" y="100" >a</text><line  class="poloto_scatter poloto_legend_icon poloto0stroke poloto0legend" stroke="black" x1="685" x2="685" y1="81.25" y2="81.25" /><path  class="poloto_scatter poloto0stroke" d=" M 150 100 h 0 M 167.24137931034483 108.2607746499616 h 0 M 184.48275862068965 132.1337020747671 h 0 M 201.72413793103448 168.99070462268054 h 0 M 218.9655172413793 214.7743383538567 h 0 M 236.20689655172413 264.4444612495525 h 0 M 253.44827586206895 312.5330828275652 h 0 M 270.68965517241384 353.74631392955723 h 0 M 287.9310344827586 383.5471503713483 h 0 M 305.1724137931035 398.65493407267616 h 0 M 322.41379310344826 397.40650793486566 h 0 M 339.65517241379314 379.93930633176797 h 0 M 356.8965517241379 348.1762254945243 h 0 M 374.1379310344828 305.61393935060204 h 0 M 391.3793103448276 256.93796430237626 h 0 M 408.62068965517244 207.50684896537072 h 0 M 425.8620689655172 162.76227241001985 h 0 M 443.10344827586204 127.62999089524463 h 0 M 460.3448275862069 105.9775805360521 h 0 M 477.58620689655174 100.18867090407505 h 0 M 494.8275862068965 110.9005405266175 h 0 M 512.0689655172414 136.93396137427334 h 0 M 529.3103448275863 175.42301548438525 h 0 M 546.551724137931 222.13059271359774 h 0 M 563.7931034482758 271.9148377000384 h 0 M 581.0344827586207 319.2951967047697 h 0 M 598.2758620689656 359.0557504391426 h 0 M 615.5172413793103 386.8194143156433 h 0 M 632.7586206896552 399.52979465176446 h 0 M 650 395.7876551531035 h 0" /><text  class="poloto_text poloto_legend_text" alignment-baseline="middle" text-anchor="start" font-size="large" x="675" y="150" >b</text><line  class="poloto_line poloto_legend_icon poloto1stroke poloto1legend" stroke="black" x1="680" x2="730" y1="131.25" y2="131.25" /><path  class="poloto_line poloto1stroke" fill="none" stroke="black" d=" M 150 250.07842219650374 L 167.24137931034483 200.97355835027378 L 184.48275862068965 157.27445781783487 L 201.72413793103448 123.79178447239646 L 218.9655172413793 104.21151548691668 L 236.20689655172413 100.6891664552748 L 253.44827586206895 113.61249907116462 L 270.68965517241384 141.55883395264829 L 287.9310344827586 181.45166787735013 L 305.1724137931035 228.89935404652098 L 322.41379310344826 278.6785613860584 L 339.65517241379314 325.3092907319627 L 356.8965517241379 363.6581466066945 L 374.1379310344828 389.50345274489155 L 391.3793103448276 400 L 408.62068965517244 393.99226434387435 L 425.8620689655172 372.14161400900855 L 443.10344827586204 336.85350203428237 L 460.3448275862069 292.0126593034486 L 477.58620689655174 242.5554396439587 L 494.8275862068965 193.9263958494949 L 512.0689655172414 151.47891005654031 L 529.3103448275863 119.88586074370724 L 546.551724137931 102.62520372981027 L 563.7931034482758 101.59709755616717 L 581.0344827586207 116.91472242939795 L 598.2758620689656 146.8918206530467 L 615.5172413793103 188.2283301734078 L 632.7586206896552 236.37367556510048 L 650 286.0277231659434" /><text  class="poloto_labels poloto_text poloto_title" alignment-baseline="start" text-anchor="middle" font-size="x-large" x="400" y="37.5" > cows per year</text><text  class="poloto_labels poloto_text poloto_xname" alignment-baseline="start" text-anchor="middle" font-size="x-large" x="400" y="481.25" >year</text><text  class="poloto_labels poloto_text poloto_yname" alignment-baseline="start" text-anchor="middle" font-size="x-large" transform="rotate(-90,37.5,250)" x="37.5" y="250" >cows</text><line  class="poloto_axis_lines" stroke="black" x1="150" x2="150" y1="400" y2="405" /><text  class="poloto_tick_labels poloto_text" alignment-baseline="start" text-anchor="middle" x="150" y="430" >0</text><line  class="poloto_axis_lines" stroke="black" x1="253.44827586206895" x2="253.44827586206895" y1="400" y2="405" /><text  class="poloto_tick_labels poloto_text" alignment-baseline="start" text-anchor="middle" x="253.44827586206895" y="430" >2</text><line  class="poloto_axis_lines" stroke="black" x1="356.8965517241379" x2="356.8965517241379" y1="400" y2="405" /><text  class="poloto_tick_labels poloto_text" alignment-baseline="start" text-anchor="middle" x="356.8965517241379" y="430" >4</text><line  class="poloto_axis_lines" stroke="black" x1="460.3448275862069" x2="460.3448275862069" y1="400" y2="405" /><text  class="poloto_tick_labels poloto_text" alignment-baseline="start" text-anchor="middle" x="460.3448275862069" y="430" >6</text><line  class="poloto_axis_lines" stroke="black" x1="563.7931034482758" x2="563.7931034482758" y1="400" y2="405" /><text  class="poloto_tick_labels poloto_text" alignment-baseline="start" text-anchor="middle" x="563.7931034482758" y="430" >8</text><line  class="poloto_axis_lines" stroke="black" x1="150" x2="144" y1="325.1176332947556" y2="325.1176332947556" /><text  class="poloto_tick_labels poloto_text" alignment-baseline="middle" text-anchor="end" x="135" y="325.1176332947556" >-0.5</text><line  class="poloto_axis_lines" stroke="black" x1="150" x2="144" y1="250.07842219650377" y2="250.07842219650377" /><text  class="poloto_tick_labels poloto_text" alignment-baseline="middle" text-anchor="end" x="135" y="250.07842219650377" >0.0</text><line  class="poloto_axis_lines" stroke="black" x1="150" x2="144" y1="175.03921109825188" y2="175.03921109825188" /><text  class="poloto_tick_labels poloto_text" alignment-baseline="middle" text-anchor="end" x="135" y="175.03921109825188" >0.5</text><line  class="poloto_axis_lines" stroke="black" x1="150" x2="144" y1="100" y2="100" /><text  class="poloto_tick_labels poloto_text" alignment-baseline="middle" text-anchor="end" x="135" y="100" >1.0</text><path  stroke="black" fill="none" class="poloto_axis_lines" style="stroke-dasharray:12.931034482758621;stroke-dashoffset:-0;" d=" M 150 400 L 650 400" /><path  stroke="black" fill="none" class="poloto_axis_lines" style="stroke-dasharray:7.503921109825187;stroke-dashoffset:-74.8823667052444;" d=" M 150 400 L 150 100" /></svg>
