<svg class="poloto" width="800" height="500" viewBox="0 0 800 500" xmlns="http://www.w3.org/2000/svg"><style>.poloto { stroke-linecap:round; stroke-linejoin:round; font-family: 'Tahoma', sans-serif; background-color: AliceBlue;} .poloto_scatter{stroke-width:7} .poloto_line{stroke-width:2} .poloto_text{fill: black;} .poloto_axis_lines{stroke: black;stroke-width:3;fill:none;stroke-dasharray:none} .poloto0stroke{stroke:  blue;} .poloto1stroke{stroke:  red;} .poloto2stroke{stroke:  green;} .poloto3stroke{stroke:  gold;} .poloto4stroke{stroke:  aqua;} .poloto5stroke{stroke:  lime;} .poloto6stroke{stroke:  orange;} .poloto7stroke{stroke:  chocolate;} .poloto0fill{fill:blue;} .poloto1fill{fill:red;} .poloto2fill{fill:green;} .poloto3fill{fill:gold;} .poloto4fill{fill:aqua;} .poloto5fill{fill:lime;} .poloto6fill{fill:orange;} .poloto7fill{fill:chocolate;}</style><text  class="poloto_text poloto_legend_text" alignment-baseline="middle" text-anchor="start" font-size="large" x="675" y="100" >tan(x)</text><rect  class="poloto_linefill poloto_legend_icon poloto0fill poloto0legend" x="680" y="76.25" width="50" height="7.5" rx="5" ry="5" /><path  class="poloto_linefill poloto0fill" d=" M 150 399.8919312138155 M 150 400 L 150 399.8919312138155 L 151.46627565982405 399.2130077621968 L 152.9325513196481 398.53303982950587 L 154.39882697947215 397.85147940826124 L 155.8651026392962 397.16777336440606 L 157.33137829912025 396.4813616282235 L 158.7976539589443 395.7916753374135 L 160.26392961876832 395.09813491908665 L 161.73020527859236 394.40014809670095 L 163.1964809384164 393.69710780705526 L 164.66275659824046 392.9883900113482 L 166.1290322580645 392.2733513829917 L 167.59530791788856 391.5513268533057 L 169.0615835777126 390.821626994389 L 170.5278592375366 390.08353521631705 L 171.99413489736068 389.33630475332507 L 173.4604105571847 388.57915541073623 L 174.9266862170088 387.8112700410245 L 176.39296187683277 387.031790713497 L 177.85923753665685 386.23981453753834 L 179.32551319648087 385.43438909408303 L 180.79178885630495 384.61450742383965 L 182.25806451612897 383.7791025136325 L 183.72434017595305 382.9270412138622 L 185.19061583577707 382.05711751030617 L 186.65689149560114 381.1680450619992 L 188.12316715542516 380.25844890344297 L 189.58944281524924 379.32685619348104 L 191.05571847507326 378.37168587436656 L 192.52199413489734 377.3912370822449 L 193.98826979472136 376.3836761237386 L 195.45454545454544 375.34702180165255 L 196.92082111436946 374.27912883489506 L 198.38709677419354 373.1776690721177 L 199.85337243401756 372.04011014358093 L 201.31964809384164 370.8636911291215 L 202.78592375366566 369.6453947390606 L 204.25219941348973 368.38191540588355 L 205.71847507331375 367.0696225630211 L 207.18475073313783 365.70451823723556 L 208.65102639296185 364.28218789544366 L 210.11730205278593 362.7977432554884 L 211.58357771260995 361.2457554806123 L 213.04985337243403 359.6201768122746 L 214.51612903225805 357.9142482331174 L 215.98240469208213 356.120390161323 L 217.44868035190615 354.2300724189618 L 218.91495601173017 352.23365873527763 L 220.38123167155425 350.12021976593365 L 221.84750733137827 347.8773069268077 L 223.31378299120234 345.4906771102568 L 224.78005865102637 342.9439553669141 L 226.24633431085044 340.21821860264646 L 227.71260997067446 337.29147783239546 L 229.17888563049854 334.1380289259547 L 230.64516129032256 330.7276311474835 L 232.11143695014664 327.02445773074516 L 233.57771260997066 322.98574109893786 L 235.04398826979474 318.5600037811197 L 236.51026392961876 313.68471926687226 L 237.97653958944284 308.28317631978024 L 239.44281524926686 302.260211251379 L 240.90909090909093 295.4963008210508 L 242.37536656891496 287.8392308057188 L 243.84164222873903 279.0920942036818 L 245.30791788856305 268.99558312253976 L 246.77419354838713 257.2011366479334 L 248.2404692082111 243.22891724855737 L 249.70674486803523 226.39957555792446 L 251.1730205278592 205.71851663078036 L 252.63929618768333 179.6690307023506 L 254.1055718475073 145.81791358869611 L 255.57184750733137 100.00000000000006 L 255.57184750733137 400 M 380.20527859237535 399.9459670540854 L 381.6715542521994 399.26710333203965 L 383.13782991202345 398.58723860089964 L 384.6041055718475 397.9058251847925 L 386.07038123167155 397.22231042365667 L 387.5366568914956 396.53613486741574 L 389.00293255131965 395.8467304233412 L 390.4692082111437 395.15351844341234 L 391.93548387096774 394.45590773776183 L 393.4017595307918 393.7532924994022 L 394.8680351906158 393.0450501243358 L 396.3343108504399 392.33053890985207 L 397.8005865102639 391.60909561227265 L 399.266862170088 390.8800328435948 L 400.733137829912 390.1426362843684 L 402.19941348973606 389.39616168767697 L 403.6656891495601 388.6398316462284 L 405.13196480938416 387.8728320912342 L 406.5982404692082 387.09430848789356 L 408.06451612903226 386.30336168781156 L 409.5307917888563 385.49904339346926 L 410.99706744868035 384.680351183792 L 412.4633431085044 383.8462230427936 L 413.92961876832845 382.99553132501353 L 415.3958944281525 382.1270760818039 L 416.86217008797655 381.2395776611908 L 418.3284457478006 380.3316684807157 L 419.79472140762465 379.4018838569592 L 421.26099706744867 378.4486517568934 L 422.72727272727263 377.47028131420365 L 424.1935483870967 376.46494992755527 L 425.6598240469208 375.43068872656056 L 427.1260997067448 374.3653661538179 L 428.59237536656883 373.26666936647894 L 430.0586510263929 372.13208310662196 L 431.52492668621704 370.95886562410226 L 432.991202346041 369.74402115577607 L 434.45747800586497 368.48426836757153 L 435.92375366568905 367.17600404636283 L 437.3900293255131 365.8152611812856 L 438.8563049853372 364.3976603916346 L 440.32258064516117 362.9183534312297 L 441.78885630498525 361.3719572145827 L 443.2551319648093 359.7524764518289 L 444.7214076246334 358.05321252530985 L 446.18768328445736 356.2666556616297 L 447.65395894428144 354.38435670953106 L 449.1202346041055 352.39677387249253 L 450.5865102639296 350.2930884921454 L 452.05278592375356 348.06098233292215 L 453.51906158357764 345.6863666379432 L 454.9853372434017 343.15305031074286 L 456.4516129032258 340.442330641035 L 457.91788856304976 337.5324846219415 L 459.38416422287384 334.39813149571603 L 460.8504398826979 331.0094268164388 L 462.316715542522 327.3310336773882 L 463.78299120234595 323.3207957441928 L 465.24926686217003 318.92800613088735 L 466.7155425219941 314.0911208220965 L 468.1818181818182 308.7346969583474 L 469.64809384164215 302.76523105839823 L 471.11436950146623 296.06540667538945 L 472.5806451612903 288.48599402647153 L 474.0469208211144 279.83420179334905 L 475.51319648093835 269.8565254554361 L 476.9794721407624 258.21279922382166 L 478.4457478005865 244.4356964278912 L 479.9120234604106 227.86517624316224 L 481.37829912023454 207.53771651555266 L 482.8445747800586 181.98922423021554 L 484.3108504398827 148.8814237260214 L 485.7771260997068 104.23490600882661 L 485.7771260997068 400 M 610.4105571847506 400 L 611.8768328445747 399.3211925558052 L 613.3431085043987 398.6414275541336 L 614.8093841642228 397.96015763949293 L 616.2756598240469 397.276830614372 L 617.741935483871 396.59088763659344 L 619.2082111436948 395.90176137087906 L 620.6744868035191 395.2088740814867 L 622.140762463343 394.5116356520725 L 623.6070381231671 393.80944151804795 L 625.0733137829911 393.10167049563285 L 626.5395894428152 392.387682490518 L 628.0058651026393 391.6668160675296 L 629.4721407624634 390.93838586090243 L 630.9384164222872 390.2016798026768 L 632.4046920821115 389.4559561442994 L 633.8709677419354 388.7004402436799 L 635.3372434017595 387.9343210866622 L 636.8035190615835 387.1567475080594 L 638.2697947214076 386.36682407296274 L 639.7360703812317 385.5636065738853 L 641.2023460410558 384.746097093308 L 642.6686217008796 383.9132385742067 L 644.1348973607039 383.0639088329848 L 645.6011730205278 382.19691393969504 L 647.0674486803518 381.31098087924425 L 648.5337243401759 380.40474939413053 L 650 379.4767628937637 L 650 400 Z" /><text  class="poloto_labels poloto_text poloto_title" alignment-baseline="start" text-anchor="middle" font-size="x-large" x="400" y="37.5" > Some Trigonometry Plots 🥳</text><text  class="poloto_labels poloto_text poloto_xname" alignment-baseline="start" text-anchor="middle" font-size="x-large" x="400" y="481.25" > This is the x label</text><text  class="poloto_labels poloto_text poloto_yname" alignment-baseline="start" text-anchor="middle" font-size="x-large" transform="rotate(-90,37.5,250)" x="37.5" y="250" >This is the y label</text><line  class="poloto_axis_lines" stroke="black" x1="211.58357771260995" x2="211.58357771260995" y1="400" y2="405" /><text  class="poloto_tick_labels poloto_text" alignment-baseline="start" text-anchor="middle" x="211.58357771260995" y="430" > 4</text><line  class="poloto_axis_lines" stroke="black" x1="284.8973607038123" x2="284.8973607038123" y1="400" y2="405" /><text  class="poloto_tick_labels poloto_text" alignment-baseline="start" text-anchor="middle" x="284.8973607038123" y="430" > 5</text><line  class="poloto_axis_lines" stroke="black" x1="358.21114369501464" x2="358.21114369501464" y1="400" y2="405" /><text  class="poloto_tick_labels poloto_text" alignment-baseline="start" text-anchor="middle" x="358.21114369501464" y="430" > 6</text><line  class="poloto_axis_lines" stroke="black" x1="431.52492668621704" x2="431.52492668621704" y1="400" y2="405" /><text  class="poloto_tick_labels poloto_text" alignment-baseline="start" text-anchor="middle" x="431.52492668621704" y="430" > 7</text><line  class="poloto_axis_lines" stroke="black" x1="504.83870967741933" x2="504.83870967741933" y1="400" y2="405" /><text  class="poloto_tick_labels poloto_text" alignment-baseline="start" text-anchor="middle" x="504.83870967741933" y="430" > 8</text><line  class="poloto_axis_lines" stroke="black" x1="578.1524926686216" x2="578.1524926686216" y1="400" y2="405" /><text  class="poloto_tick_labels poloto_text" alignment-baseline="start" text-anchor="middle" x="578.1524926686216" y="430" > 9</text><line  class="poloto_axis_lines" stroke="black" x1="150" x2="144" y1="332.68103015270617" y2="332.68103015270617" /><text  class="poloto_tick_labels poloto_text" alignment-baseline="middle" text-anchor="end" x="135" y="332.68103015270617" > 2</text><line  class="poloto_axis_lines" stroke="black" x1="150" x2="144" y1="264.84572458336515" y2="264.84572458336515" /><text  class="poloto_tick_labels poloto_text" alignment-baseline="middle" text-anchor="end" x="135" y="264.84572458336515" > 4</text><line  class="poloto_axis_lines" stroke="black" x1="150" x2="144" y1="197.01041901402414" y2="197.01041901402414" /><text  class="poloto_tick_labels poloto_text" alignment-baseline="middle" text-anchor="end" x="135" y="197.01041901402414" > 6</text><line  class="poloto_axis_lines" stroke="black" x1="150" x2="144" y1="129.17511344468306" y2="129.17511344468306" /><text  class="poloto_tick_labels poloto_text" alignment-baseline="middle" text-anchor="end" x="135" y="129.17511344468306" > 8</text><path  stroke="black" fill="none" class="poloto_axis_lines" style="stroke-dasharray:9.164222873900293;stroke-dashoffset:-61.58357771260995;" d=" M 150 400 L 650 400" /><path  stroke="black" fill="none" class="poloto_axis_lines" style="stroke-dasharray:8.47941319616763;stroke-dashoffset:-67.31896984729381;" d=" M 150 400 L 150 100" /></svg>
