<svg class="poloto" width="800" height="500" viewBox="0 0 800 500" xmlns="http://www.w3.org/2000/svg" ><style>.poloto {stroke-linecap:round;font-family: sans-serif;stroke-width:2;}.scatter{stroke-width:7}.poloto_text{fill: black;}.poloto_axis_lines{stroke: black;stoke-width:3;fill:none}.poloto_background{fill: aliceblue;}.poloto0stroke{stroke:  blue;}.poloto1stroke{stroke:  red;}.poloto2stroke{stroke:  green;}.poloto3stroke{stroke:  gold;}.poloto4stroke{stroke:  aqua;}.poloto5stroke{stroke:  brown;}.poloto6stroke{stroke:  lime;}.poloto7stroke{stroke:  chocolate;}.poloto0fill{fill:blue;}.poloto1fill{fill:red;}.poloto2fill{fill:green;}.poloto3fill{fill:gold;}.poloto4fill{fill:aqua;}.poloto5fill{fill:brown;}.poloto6fill{fill:lime;}.poloto7fill{fill:chocolate;}</style><rect class="poloto_background" fill="white" x="0" y="0" width="800" height="500" /><path class="poloto0fill" d=" M 458.3333333333333 400 L 458.3333333333333 250 L 473.3333333333333 220 L 474.16666666666663 217 L 481.5 160 L 483.5 100 L 483.5 400 Z"></path><text class="poloto_text" alignment-baseline="middle" text-anchor="start" font-size="large" x="675" y="100" ></text><line class="poloto_axis_lines" stroke="black" x1="150" x2="150" y1="400" y2="405" /><text class="poloto_text" alignment-baseline="start" text-anchor="middle" x="150" y="430" >0</text><line class="poloto_axis_lines" stroke="black" x1="233.33333333333331" x2="233.33333333333331" y1="400" y2="405" /><text class="poloto_text" alignment-baseline="start" text-anchor="middle" x="233.33333333333331" y="430" >500</text><line class="poloto_axis_lines" stroke="black" x1="316.66666666666663" x2="316.66666666666663" y1="400" y2="405" /><text class="poloto_text" alignment-baseline="start" text-anchor="middle" x="316.66666666666663" y="430" >1000</text><line class="poloto_axis_lines" stroke="black" x1="400" x2="400" y1="400" y2="405" /><text class="poloto_text" alignment-baseline="start" text-anchor="middle" x="400" y="430" >1500</text><line class="poloto_axis_lines" stroke="black" x1="483.3333333333333" x2="483.3333333333333" y1="400" y2="405" /><text class="poloto_text" alignment-baseline="start" text-anchor="middle" x="483.3333333333333" y="430" >2000</text><line class="poloto_axis_lines" stroke="black" x1="566.6666666666666" x2="566.6666666666666" y1="400" y2="405" /><text class="poloto_text" alignment-baseline="start" text-anchor="middle" x="566.6666666666666" y="430" >2500</text><line class="poloto_axis_lines" stroke="black" x1="650" x2="650" y1="400" y2="405" /><text class="poloto_text" alignment-baseline="start" text-anchor="middle" x="650" y="430" >3000</text><line class="poloto_axis_lines" stroke="black" x1="150" x2="144" y1="400" y2="400" /><text class="poloto_text" alignment-baseline="middle" text-anchor="end" x="135" y="400" >0</text><line class="poloto_axis_lines" stroke="black" x1="150" x2="144" y1="325" y2="325" /><text class="poloto_text" alignment-baseline="middle" text-anchor="end" x="135" y="325" >5</text><line class="poloto_axis_lines" stroke="black" x1="150" x2="144" y1="250" y2="250" /><text class="poloto_text" alignment-baseline="middle" text-anchor="end" x="135" y="250" >10</text><line class="poloto_axis_lines" stroke="black" x1="150" x2="144" y1="175" y2="175" /><text class="poloto_text" alignment-baseline="middle" text-anchor="end" x="135" y="175" >15</text><line class="poloto_axis_lines" stroke="black" x1="150" x2="144" y1="100" y2="100" /><text class="poloto_text" alignment-baseline="middle" text-anchor="end" x="135" y="100" >20</text><text class="poloto_text" alignment-baseline="start" text-anchor="middle" font-size="x-large" x="400" y="37.5" >marker example</text><text class="poloto_text" alignment-baseline="start" text-anchor="middle" font-size="x-large" x="400" y="481.25" >x</text><text class="poloto_text" alignment-baseline="start" text-anchor="middle" font-size="x-large" transform="rotate(-90,37.5,250)" x="37.5" y="250" >y</text><path stroke="black" fill="none" class="poloto_axis_lines" d=" M 150 100 L 150 400 L 650 400"/></svg>
