<svg  width="800" class="poloto_background poloto" height="500" viewBox="0 0 800 500" xmlns="http://www.w3.org/2000/svg" > <style>.poloto { stroke-linecap:round; stroke-linejoin:round; font-family: 'Tahoma', sans-serif; stroke-width:2; } .scatter{stroke-width:7} .poloto_text{fill: white;} .poloto_axis_lines{stroke: white;stroke-width:3;fill:none;stroke-dasharray:none} .poloto_background{background-color: #262626;} .poloto0stroke{stroke:  blue;} .poloto1stroke{stroke:  red;} .poloto2stroke{stroke:  green;} .poloto3stroke{stroke:  gold;} .poloto4stroke{stroke:  aqua;} .poloto5stroke{stroke:  lime;} .poloto6stroke{stroke:  orange;} .poloto7stroke{stroke:  chocolate;} .poloto0fill{fill:blue;} .poloto1fill{fill:red;} .poloto2fill{fill:green;} .poloto3fill{fill:gold;} .poloto4fill{fill:aqua;} .poloto5fill{fill:lime;} .poloto6fill{fill:orange;} .poloto7fill{fill:chocolate;}</style><text  class="poloto_text" alignment-baseline="middle" text-anchor="start" font-size="large" x="675" y="100" ></text><g  class="poloto0fill" ><rect  x="150" y="248.35281444442657" width="24.77777777777777" height="151.64718555557343" /><rect  x="177.77777777777777" y="230.31335916523304" width="24.77777777777777" height="169.68664083476696" /><rect  x="205.55555555555554" y="215.02323263179898" width="24.7777777777778" height="184.97676736820102" /><rect  x="233.33333333333334" y="200.649549013618" width="24.777777777777743" height="199.350450986382" /><rect  x="261.1111111111111" y="187.14407447304532" width="24.77777777777783" height="212.85592552695468" /><rect  x="288.8888888888889" y="174.16917214656655" width="24.77777777777777" height="225.83082785343345" /><rect  x="316.6666666666667" y="156.66028908146694" width="24.77777777777777" height="243.33971091853306" /><rect  x="344.44444444444446" y="143.3381031239449" width="24.77777777777777" height="256.6618968760551" /><rect  x="372.22222222222223" y="132.6928951557149" width="24.77777777777777" height="267.3071048442851" /><rect  x="400" y="121.51711497339102" width="24.77777777777777" height="278.482885026609" /><rect  x="427.77777777777777" y="111.10825280962104" width="24.77777777777777" height="288.89174719037896" /><rect  x="455.55555555555554" y="100" width="24.77777777777783" height="300" /><rect  x="483.33333333333337" y="230.31335916523304" width="24.77777777777777" height="169.68664083476696" /><rect  x="511.11111111111114" y="230.31335916523304" width="24.77777777777777" height="169.68664083476696" /><rect  x="538.8888888888889" y="230.31335916523304" width="24.77777777777783" height="169.68664083476696" /><rect  x="566.6666666666667" y="230.31335916523304" width="24.777777777777715" height="169.68664083476696" /><rect  x="594.4444444444445" y="230.31335916523304" width="24.777777777777715" height="169.68664083476696" /><rect  x="622.2222222222222" y="230.31335916523304" width="24.77777777777783" height="169.68664083476696" /></g><text  class="poloto_text" alignment-baseline="start" text-anchor="middle" font-size="x-large" x="400" y="37.5" >Number of Foos in 2021</text><text  class="poloto_text" alignment-baseline="start" text-anchor="middle" font-size="x-large" x="400" y="481.25" >Months of 2021</text><text  class="poloto_text" alignment-baseline="start" text-anchor="middle" font-size="x-large" transform="rotate(-90,37.5,250)" x="37.5" y="250" >Foos</text><line  class="poloto_axis_lines" stroke="black" x1="150" x2="150" y1="400" y2="405" /><text  class="poloto_text" alignment-baseline="start" text-anchor="middle" x="150" y="430" > Jan</text><line  class="poloto_axis_lines" stroke="black" x1="316.6666666666667" x2="316.6666666666667" y1="400" y2="405" /><text  class="poloto_text" alignment-baseline="start" text-anchor="middle" x="316.6666666666667" y="430" > Jul</text><line  class="poloto_axis_lines" stroke="black" x1="483.33333333333337" x2="483.33333333333337" y1="400" y2="405" /><text  class="poloto_text" alignment-baseline="start" text-anchor="middle" x="483.33333333333337" y="430" > Jan</text><line  class="poloto_axis_lines" stroke="black" x1="650" x2="650" y1="400" y2="405" /><text  class="poloto_text" alignment-baseline="start" text-anchor="middle" x="650" y="430" > Feb</text><line  class="poloto_axis_lines" stroke="black" x1="150" x2="144" y1="400" y2="400" /><text  class="poloto_text" alignment-baseline="middle" text-anchor="end" x="135" y="400" > 0</text><line  class="poloto_axis_lines" stroke="black" x1="150" x2="144" y1="351.7661623550975" y2="351.7661623550975" /><text  class="poloto_text" alignment-baseline="middle" text-anchor="end" x="135" y="351.7661623550975" > 1e6</text><line  class="poloto_axis_lines" stroke="black" x1="150" x2="144" y1="303.53232471019504" y2="303.53232471019504" /><text  class="poloto_text" alignment-baseline="middle" text-anchor="end" x="135" y="303.53232471019504" > 2.0e6</text><line  class="poloto_axis_lines" stroke="black" x1="150" x2="144" y1="255.29848706529253" y2="255.29848706529253" /><text  class="poloto_text" alignment-baseline="middle" text-anchor="end" x="135" y="255.29848706529253" > 3.0e6</text><line  class="poloto_axis_lines" stroke="black" x1="150" x2="144" y1="207.06464942039008" y2="207.06464942039008" /><text  class="poloto_text" alignment-baseline="middle" text-anchor="end" x="135" y="207.06464942039008" > 4.0e6</text><line  class="poloto_axis_lines" stroke="black" x1="150" x2="144" y1="158.83081177548758" y2="158.83081177548758" /><text  class="poloto_text" alignment-baseline="middle" text-anchor="end" x="135" y="158.83081177548758" > 5.0e6</text><line  class="poloto_axis_lines" stroke="black" x1="150" x2="144" y1="110.59697413058507" y2="110.59697413058507" /><text  class="poloto_text" alignment-baseline="middle" text-anchor="end" x="135" y="110.59697413058507" > 6.0e6</text><path  stroke="black" fill="none" class="poloto_axis_lines" style="stroke-dasharray:13.888888888888891;stroke-dashoffset:-0;" d=" M 150 400 L 650 400" /><path  stroke="black" fill="none" class="poloto_axis_lines" style="stroke-dasharray:4.823383764490249;stroke-dashoffset:-0;" d=" M 150 400 L 150 100" /></svg>