<svg  width="800" class="poloto_background poloto" height="500" viewBox="0 0 800 500" xmlns="http://www.w3.org/2000/svg" > <style>.poloto { stroke-linecap:round; stroke-linejoin:round; font-family: 'Tahoma', sans-serif; stroke-width:2; } .scatter{stroke-width:7} .poloto_text{fill: white;} .poloto_axis_lines{stroke: white;stroke-width:3;fill:none;stroke-dasharray:none} .poloto_background{background-color: #262626;} .poloto0stroke{stroke:  blue;} .poloto1stroke{stroke:  red;} .poloto2stroke{stroke:  green;} .poloto3stroke{stroke:  gold;} .poloto4stroke{stroke:  aqua;} .poloto5stroke{stroke:  lime;} .poloto6stroke{stroke:  orange;} .poloto7stroke{stroke:  chocolate;} .poloto0fill{fill:blue;} .poloto1fill{fill:red;} .poloto2fill{fill:green;} .poloto3fill{fill:gold;} .poloto4fill{fill:aqua;} .poloto5fill{fill:lime;} .poloto6fill{fill:orange;} .poloto7fill{fill:chocolate;}</style><text  class="poloto_text" alignment-baseline="middle" text-anchor="start" font-size="large" x="675" y="100" ></text><g  class="poloto0fill" ><rect  x="150" y="248.35281444442657" width="38.66666666666666" height="151.64718555557343" /><rect  x="191.66666666666666" y="230.31335916523304" width="38.66666666666666" height="169.68664083476696" /><rect  x="233.33333333333331" y="215.02323263179898" width="38.666666666666686" height="184.97676736820102" /><rect  x="275" y="200.649549013618" width="38.66666666666663" height="199.350450986382" /><rect  x="316.66666666666663" y="187.14407447304532" width="38.666666666666686" height="212.85592552695468" /><rect  x="358.3333333333333" y="174.16917214656655" width="38.666666666666686" height="225.83082785343345" /><rect  x="400" y="156.66028908146694" width="38.66666666666663" height="243.33971091853306" /><rect  x="441.66666666666663" y="143.3381031239449" width="38.666666666666686" height="256.6618968760551" /><rect  x="483.3333333333333" y="132.6928951557149" width="38.666666666666686" height="267.3071048442851" /><rect  x="525" y="121.51711497339102" width="38.66666666666663" height="278.482885026609" /><rect  x="566.6666666666666" y="111.10825280962104" width="38.66666666666663" height="288.89174719037896" /><rect  x="608.3333333333333" y="100" width="38.66666666666674" height="300" /></g><text  class="poloto_text" alignment-baseline="start" text-anchor="middle" font-size="x-large" x="400" y="37.5" >Number of Foos in 2021</text><text  class="poloto_text" alignment-baseline="start" text-anchor="middle" font-size="x-large" x="400" y="481.25" >Months of 2021</text><text  class="poloto_text" alignment-baseline="start" text-anchor="middle" font-size="x-large" transform="rotate(-90,37.5,250)" x="37.5" y="250" >Foos</text><line  class="poloto_axis_lines" stroke="black" x1="150" x2="150" y1="400" y2="405" /><text  class="poloto_text" alignment-baseline="start" text-anchor="middle" x="150" y="430" > 0</text><line  class="poloto_axis_lines" stroke="black" x1="233.33333333333331" x2="233.33333333333331" y1="400" y2="405" /><text  class="poloto_text" alignment-baseline="start" text-anchor="middle" x="233.33333333333331" y="430" > 2</text><line  class="poloto_axis_lines" stroke="black" x1="316.66666666666663" x2="316.66666666666663" y1="400" y2="405" /><text  class="poloto_text" alignment-baseline="start" text-anchor="middle" x="316.66666666666663" y="430" > 4</text><line  class="poloto_axis_lines" stroke="black" x1="400" x2="400" y1="400" y2="405" /><text  class="poloto_text" alignment-baseline="start" text-anchor="middle" x="400" y="430" > 6</text><line  class="poloto_axis_lines" stroke="black" x1="483.3333333333333" x2="483.3333333333333" y1="400" y2="405" /><text  class="poloto_text" alignment-baseline="start" text-anchor="middle" x="483.3333333333333" y="430" > 8</text><line  class="poloto_axis_lines" stroke="black" x1="566.6666666666666" x2="566.6666666666666" y1="400" y2="405" /><text  class="poloto_text" alignment-baseline="start" text-anchor="middle" x="566.6666666666666" y="430" > 10</text><line  class="poloto_axis_lines" stroke="black" x1="650" x2="650" y1="400" y2="405" /><text  class="poloto_text" alignment-baseline="start" text-anchor="middle" x="650" y="430" > 12</text><line  class="poloto_axis_lines" stroke="black" x1="150" x2="144" y1="400" y2="400" /><text  class="poloto_text" alignment-baseline="middle" text-anchor="end" x="135" y="400" > 0</text><line  class="poloto_axis_lines" stroke="black" x1="150" x2="144" y1="303.53232471019504" y2="303.53232471019504" /><text  class="poloto_text" alignment-baseline="middle" text-anchor="end" x="135" y="303.53232471019504" > 2000000</text><line  class="poloto_axis_lines" stroke="black" x1="150" x2="144" y1="207.06464942039008" y2="207.06464942039008" /><text  class="poloto_text" alignment-baseline="middle" text-anchor="end" x="135" y="207.06464942039008" > 4000000</text><line  class="poloto_axis_lines" stroke="black" x1="150" x2="144" y1="110.59697413058507" y2="110.59697413058507" /><text  class="poloto_text" alignment-baseline="middle" text-anchor="end" x="135" y="110.59697413058507" > 6000000</text><path  stroke="black" fill="none" class="poloto_axis_lines" style="stroke-dasharray:6.944444444444444;stroke-dashoffset:-0;" d=" M 150 400 L 650 400" /><path  stroke="black" fill="none" class="poloto_axis_lines" style="stroke-dasharray:8.03897294081708;stroke-dashoffset:-0;" d=" M 150 400 L 150 100" /></svg>