<svg class = "poloto" height = "500" width = "800" viewBox = "0 0 800 500" xmlns = "http://www.w3.org/2000/svg">
	<rect class = "poloto_background" fill = "white" x = "0" y = "0" width = "800" height = "500">
	</rect>
	<style>
.poloto {
font-family: "Arial";
stroke-width:2;
}
.poloto_text{fill: var(--poloto_fg_color,black);  }
.poloto_axis_lines{stroke: var(--poloto_fg_color,black);stoke-width:3;fill:none}
.poloto_background{fill: var(--poloto_bg_color,aliceblue); }
.poloto0stroke{stroke:  var(--poloto_color0,blue); }
.poloto1stroke{stroke:  var(--poloto_color1,red); }
.poloto2stroke{stroke:  var(--poloto_color2,green); }
.poloto3stroke{stroke:  var(--poloto_color3,gold); }
.poloto4stroke{stroke:  var(--poloto_color4,aqua); }
.poloto5stroke{stroke:  var(--poloto_color5,brown); }
.poloto6stroke{stroke:  var(--poloto_color6,lime); }
.poloto7stroke{stroke:  var(--poloto_color7,chocolate); }
.poloto0fill{fill:var(--poloto_color0,blue);}
.poloto1fill{fill:var(--poloto_color1,red);}
.poloto2fill{fill:var(--poloto_color2,green);}
.poloto3fill{fill:var(--poloto_color3,gold);}
.poloto4fill{fill:var(--poloto_color4,aqua);}
.poloto5fill{fill:var(--poloto_color5,brown);}
.poloto6fill{fill:var(--poloto_color6,lime);}
.poloto7fill{fill:var(--poloto_color7,chocolate);}	</style>
	<line x1 = "150" x2 = "150" y1 = "400" y2 = "405" stroke = "black" class = "poloto_axis_lines"/>
	<text x = "150" y = "440" alignment-baseline = "start" text-anchor = "middle" class = "poloto_text">
0	</text>
	<line x1 = "252.04082" x2 = "252.04082" y1 = "400" y2 = "405" stroke = "black" class = "poloto_axis_lines"/>
	<text x = "252.04082" y = "440" alignment-baseline = "start" text-anchor = "middle" class = "poloto_text">
2	</text>
	<line x1 = "354.08163" x2 = "354.08163" y1 = "400" y2 = "405" stroke = "black" class = "poloto_axis_lines"/>
	<text x = "354.08163" y = "440" alignment-baseline = "start" text-anchor = "middle" class = "poloto_text">
4	</text>
	<line x1 = "456.12244" x2 = "456.12244" y1 = "400" y2 = "405" stroke = "black" class = "poloto_axis_lines"/>
	<text x = "456.12244" y = "440" alignment-baseline = "start" text-anchor = "middle" class = "poloto_text">
6	</text>
	<line x1 = "558.16327" x2 = "558.16327" y1 = "400" y2 = "405" stroke = "black" class = "poloto_axis_lines"/>
	<text x = "558.16327" y = "440" alignment-baseline = "start" text-anchor = "middle" class = "poloto_text">
8	</text>
	<line x1 = "150" x2 = "144" y1 = "325.03455" y2 = "325.03455" stroke = "black" class = "poloto_axis_lines"/>
	<text x = "120" y = "325.03455" alignment-baseline = "middle" text-anchor = "end" class = "poloto_text">
-0.5	</text>
	<line x1 = "150" x2 = "144" y1 = "250.02301" y2 = "250.02301" stroke = "black" class = "poloto_axis_lines"/>
	<text x = "120" y = "250.02301" alignment-baseline = "middle" text-anchor = "end" class = "poloto_text">
0.0	</text>
	<line x1 = "150" x2 = "144" y1 = "175.01154" y2 = "175.01154" stroke = "black" class = "poloto_axis_lines"/>
	<text x = "120" y = "175.01154" alignment-baseline = "middle" text-anchor = "end" class = "poloto_text">
0.5	</text>
	<line x1 = "150" x2 = "144" y1 = "100" y2 = "100" stroke = "black" class = "poloto_axis_lines"/>
	<text x = "120" y = "100" alignment-baseline = "middle" text-anchor = "end" class = "poloto_text">
1.0	</text>
	<text x = "675" y = "100" alignment-baseline = "middle" text-anchor = "start" font-size = "large" class = "poloto_text">
cos	</text>
	<line x1 = "680" y1 = "81.25" x2 = "730" y2 = "81.25" class = "poloto0stroke"/>
	<polyline class = "poloto0stroke" fill = "none" stroke = "black" points="150,100 160.20409,102.99045 170.40816,111.84268 180.61224,126.203674 190.81633,145.50096 201.02042,168.96524 211.22449,195.66101 221.42857,224.52403 231.63266,254.40361 241.83673,284.10858 252.04082,312.45465 262.2449,338.31174 272.44897,360.64905 282.65308,378.57605 292.85715,391.37805 303.06122,398.5447 313.26532,399.79022 323.4694,395.065 333.67346,384.55743 343.87756,368.6864 354.08163,348.08463 364.2857,323.57346 374.4898,296.13 384.69388,266.8485 394.89795,236.89621 405.10205,207.46716 415.30612,179.73477 425.51022,154.80446 435.7143,133.67032 445.91837,117.17474 456.12244,105.97537 466.32654,100.51877 476.5306,101.02243 486.7347,107.46628 496.93878,119.59338 507.14285,136.92032 517.3469,158.75635 527.551,184.23083 537.7551,212.32825 547.95917,241.92844 558.16327,271.85138 568.3673,300.90405 578.5714,327.92822 588.7755,351.8467 598.9796,371.7057 609.1837,386.71353 619.38776,396.272 629.5918,400 639.7959,397.7489 650,389.60837 "/>
	<text x = "400" y = "37.5" alignment-baseline = "start" text-anchor = "middle" font-size = "x-large" class = "poloto_text">
Demo: Some Trigonometry Plots	</text>
	<text x = "400" y = "481.25" alignment-baseline = "start" text-anchor = "middle" font-size = "large" class = "poloto_text">
This is the x label	</text>
	<text x = "37.5" y = "250" alignment-baseline = "start" text-anchor = "middle" transform = "rotate(-90,37.5,250)" font-size = "large" class = "poloto_text">
This is the y label	</text>
	<path stroke = "black" class = "poloto_axis_lines" d="M 150 100 L 150 400 L 650 400 "/>
</svg>
