<svg class="poloto" width="800" height="500" viewBox="0 0 800 500" xmlns="http://www.w3.org/2000/svg"><style>.poloto {
                font-family: "Arial";
                stroke-width:2;
                }
                .poloto_text{fill: black;  }
                .poloto_axis_lines{stroke: black;stoke-width:3;fill:none}
                .poloto_background{fill: aliceblue; }
                .poloto0stroke{stroke:  blue; }
                .poloto1stroke{stroke:  red; }
                .poloto2stroke{stroke:  green; }
                .poloto3stroke{stroke:  gold; }
                .poloto4stroke{stroke:  aqua; }
                .poloto5stroke{stroke:  brown; }
                .poloto6stroke{stroke:  lime; }
                .poloto7stroke{stroke:  chocolate; }
                .poloto0fill{fill:blue;}
                .poloto1fill{fill:red;}
                .poloto2fill{fill:green;}
                .poloto3fill{fill:gold;}
                .poloto4fill{fill:aqua;}
                .poloto5fill{fill:brown;}
                .poloto6fill{fill:lime;}
                .poloto7fill{fill:chocolate;}</style><rect class="poloto_background" fill="white" x="0" y="0" width="800" height="500"/><line class="poloto_axis_lines" stroke="black" x1="183.11258278145695" x2="183.11258278145695" y1="400" y2="405"/><text class="poloto_text" alignment-baseline="start" text-anchor="middle" x="183.11258278145695" y="430">1860</text><line class="poloto_axis_lines" stroke="black" x1="249.33774834437088" x2="249.33774834437088" y1="400" y2="405"/><text class="poloto_text" alignment-baseline="start" text-anchor="middle" x="249.33774834437088" y="430">1880</text><line class="poloto_axis_lines" stroke="black" x1="315.5629139072848" x2="315.5629139072848" y1="400" y2="405"/><text class="poloto_text" alignment-baseline="start" text-anchor="middle" x="315.5629139072848" y="430">1900</text><line class="poloto_axis_lines" stroke="black" x1="381.7880794701987" x2="381.7880794701987" y1="400" y2="405"/><text class="poloto_text" alignment-baseline="start" text-anchor="middle" x="381.7880794701987" y="430">1920</text><line class="poloto_axis_lines" stroke="black" x1="448.0132450331126" x2="448.0132450331126" y1="400" y2="405"/><text class="poloto_text" alignment-baseline="start" text-anchor="middle" x="448.0132450331126" y="430">1940</text><line class="poloto_axis_lines" stroke="black" x1="514.2384105960265" x2="514.2384105960265" y1="400" y2="405"/><text class="poloto_text" alignment-baseline="start" text-anchor="middle" x="514.2384105960265" y="430">1960</text><line class="poloto_axis_lines" stroke="black" x1="580.4635761589404" x2="580.4635761589404" y1="400" y2="405"/><text class="poloto_text" alignment-baseline="start" text-anchor="middle" x="580.4635761589404" y="430">1980</text><line class="poloto_axis_lines" stroke="black" x1="646.6887417218543" x2="646.6887417218543" y1="400" y2="405"/><text class="poloto_text" alignment-baseline="start" text-anchor="middle" x="646.6887417218543" y="430">2000</text><line class="poloto_axis_lines" stroke="black" x1="150" x2="144" y1="400" y2="400"/><text class="poloto_text" alignment-baseline="middle" text-anchor="end" x="135" y="400">10</text><line class="poloto_axis_lines" stroke="black" x1="150" x2="144" y1="340" y2="340"/><text class="poloto_text" alignment-baseline="middle" text-anchor="end" x="135" y="340">12</text><line class="poloto_axis_lines" stroke="black" x1="150" x2="144" y1="280" y2="280"/><text class="poloto_text" alignment-baseline="middle" text-anchor="end" x="135" y="280">14</text><line class="poloto_axis_lines" stroke="black" x1="150" x2="144" y1="220" y2="220"/><text class="poloto_text" alignment-baseline="middle" text-anchor="end" x="135" y="220">16</text><line class="poloto_axis_lines" stroke="black" x1="150" x2="144" y1="160" y2="160"/><text class="poloto_text" alignment-baseline="middle" text-anchor="end" x="135" y="160">18</text><line class="poloto_axis_lines" stroke="black" x1="150" x2="144" y1="100" y2="100"/><text class="poloto_text" alignment-baseline="middle" text-anchor="end" x="135" y="100">20</text><text class="poloto_text" alignment-baseline="middle" text-anchor="start" font-size="large" x="675" y="100">data</text><rect class="poloto0fill" x="680" y="76.25" width="50" height="7.5" rx="5" ry="5"/><path class="poloto0fill" d=" M 150 400 L 150 400 L 448.0132450331126 340 L 464.56953642384104 334 L 610.2649006622516 220 L 650 100 L 650 400Z"/><text class="poloto_text" alignment-baseline="start" text-anchor="middle" font-size="x-large" x="400" y="37.5">simple</text><text class="poloto_text" alignment-baseline="start" text-anchor="middle" font-size="x-large" x="400" y="481.25">x</text><text class="poloto_text" alignment-baseline="start" text-anchor="middle" font-size="x-large" transform="rotate(-90,37.5,250)" x="37.5" y="250">y</text><path stroke="black" fill="none" class="poloto_axis_lines" d=" M 150 100 L 150 400 L 650 400"/></svg>