<svg class="poloto" width="800" height="500" viewBox="0 0 800 500" xmlns="http://www.w3.org/2000/svg" ><style>.poloto {stroke-linecap:round;font-family: sans-serif;stroke-width:2;}.scatter{stroke-width:7}.poloto_text{fill: black;}.poloto_axis_lines{stroke: black;stoke-width:3;fill:none}.poloto_background{fill: aliceblue;}.poloto0stroke{stroke:  blue;}.poloto1stroke{stroke:  red;}.poloto2stroke{stroke:  green;}.poloto3stroke{stroke:  gold;}.poloto4stroke{stroke:  aqua;}.poloto5stroke{stroke:  brown;}.poloto6stroke{stroke:  lime;}.poloto7stroke{stroke:  chocolate;}.poloto0fill{fill:blue;}.poloto1fill{fill:red;}.poloto2fill{fill:green;}.poloto3fill{fill:gold;}.poloto4fill{fill:aqua;}.poloto5fill{fill:brown;}.poloto6fill{fill:lime;}.poloto7fill{fill:chocolate;}</style><rect class="poloto_background" fill="white" x="0" y="0" width="800" height="500" /><path class="poloto0fill" d=" M 150 400 L 150 248.35281444442657 L 183.33333333333334 230.31335916523304 L 216.66666666666669 215.02323263179898 L 250 200.649549013618 L 283.33333333333337 187.14407447304532 L 316.6666666666667 174.16917214656655 L 350 156.66028908146694 L 383.33333333333337 143.3381031239449 L 416.6666666666667 132.6928951557149 L 450 121.51711497339102 L 483.33333333333337 111.10825280962104 L 516.6666666666667 100 L 516.6666666666667 400 Z"></path><text class="poloto_text" alignment-baseline="middle" text-anchor="start" font-size="large" x="675" y="100" ></text><line class="poloto_axis_lines" stroke="black" x1="150" x2="150" y1="400" y2="405" /><text class="poloto_text" alignment-baseline="start" text-anchor="middle" x="150" y="430" >2010</text><line class="poloto_axis_lines" stroke="black" x1="216.66666666666669" x2="216.66666666666669" y1="400" y2="405" /><text class="poloto_text" alignment-baseline="start" text-anchor="middle" x="216.66666666666669" y="430" >2012</text><line class="poloto_axis_lines" stroke="black" x1="283.33333333333337" x2="283.33333333333337" y1="400" y2="405" /><text class="poloto_text" alignment-baseline="start" text-anchor="middle" x="283.33333333333337" y="430" >2014</text><line class="poloto_axis_lines" stroke="black" x1="350" x2="350" y1="400" y2="405" /><text class="poloto_text" alignment-baseline="start" text-anchor="middle" x="350" y="430" >2016</text><line class="poloto_axis_lines" stroke="black" x1="416.6666666666667" x2="416.6666666666667" y1="400" y2="405" /><text class="poloto_text" alignment-baseline="start" text-anchor="middle" x="416.6666666666667" y="430" >2018</text><line class="poloto_axis_lines" stroke="black" x1="483.33333333333337" x2="483.33333333333337" y1="400" y2="405" /><text class="poloto_text" alignment-baseline="start" text-anchor="middle" x="483.33333333333337" y="430" >2020</text><line class="poloto_axis_lines" stroke="black" x1="550" x2="550" y1="400" y2="405" /><text class="poloto_text" alignment-baseline="start" text-anchor="middle" x="550" y="430" >2022</text><line class="poloto_axis_lines" stroke="black" x1="616.6666666666667" x2="616.6666666666667" y1="400" y2="405" /><text class="poloto_text" alignment-baseline="start" text-anchor="middle" x="616.6666666666667" y="430" >2024</text><line class="poloto_axis_lines" stroke="black" x1="150" x2="144" y1="400" y2="400" /><text class="poloto_text" alignment-baseline="middle" text-anchor="end" x="135" y="400" >0</text><line class="poloto_axis_lines" stroke="black" x1="150" x2="144" y1="351.76616235509755" y2="351.76616235509755" /><text class="poloto_text" alignment-baseline="middle" text-anchor="end" x="135" y="351.76616235509755" >1e6</text><line class="poloto_axis_lines" stroke="black" x1="150" x2="144" y1="303.53232471019504" y2="303.53232471019504" /><text class="poloto_text" alignment-baseline="middle" text-anchor="end" x="135" y="303.53232471019504" >2.0e6</text><line class="poloto_axis_lines" stroke="black" x1="150" x2="144" y1="255.29848706529253" y2="255.29848706529253" /><text class="poloto_text" alignment-baseline="middle" text-anchor="end" x="135" y="255.29848706529253" >3.0e6</text><line class="poloto_axis_lines" stroke="black" x1="150" x2="144" y1="207.06464942039008" y2="207.06464942039008" /><text class="poloto_text" alignment-baseline="middle" text-anchor="end" x="135" y="207.06464942039008" >4.0e6</text><line class="poloto_axis_lines" stroke="black" x1="150" x2="144" y1="158.83081177548763" y2="158.83081177548763" /><text class="poloto_text" alignment-baseline="middle" text-anchor="end" x="135" y="158.83081177548763" >5.0e6</text><line class="poloto_axis_lines" stroke="black" x1="150" x2="144" y1="110.59697413058512" y2="110.59697413058512" /><text class="poloto_text" alignment-baseline="middle" text-anchor="end" x="135" y="110.59697413058512" >6.0e6</text><text class="poloto_text" alignment-baseline="start" text-anchor="middle" font-size="x-large" x="400" y="37.5" >Number of Wikipedia Articles On Jan 1st</text><text class="poloto_text" alignment-baseline="start" text-anchor="middle" font-size="x-large" x="400" y="481.25" >Year</text><text class="poloto_text" alignment-baseline="start" text-anchor="middle" font-size="x-large" transform="rotate(-90,37.5,250)" x="37.5" y="250" >Number of Articles</text><path stroke="black" fill="none" class="poloto_axis_lines" d=" M 150 100 L 150 400 L 650 400"/></svg>
