<svg  width="800" class="poloto_background poloto" height="500" viewBox="0 0 800 500" xmlns="http://www.w3.org/2000/svg" > <style>.poloto { stroke-linecap:round; stroke-linejoin:round; font-family: 'Tahoma', sans-serif; stroke-width:2; } .scatter{stroke-width:7} .poloto_text{fill: white;} .poloto_axis_lines{stroke: white;stroke-width:3;fill:none;stroke-dasharray:none} .poloto_background{background-color: #262626;} .poloto0stroke{stroke:  blue;} .poloto1stroke{stroke:  red;} .poloto2stroke{stroke:  green;} .poloto3stroke{stroke:  gold;} .poloto4stroke{stroke:  aqua;} .poloto5stroke{stroke:  lime;} .poloto6stroke{stroke:  orange;} .poloto7stroke{stroke:  chocolate;} .poloto0fill{fill:blue;} .poloto1fill{fill:red;} .poloto2fill{fill:green;} .poloto3fill{fill:gold;} .poloto4fill{fill:aqua;} .poloto5fill{fill:lime;} .poloto6fill{fill:orange;} .poloto7fill{fill:chocolate;}</style><text  class="poloto_text" alignment-baseline="middle" text-anchor="start" font-size="large" x="675" y="100" ></text><g  class="poloto0fill" ><rect  x="150" y="248.35281444442657" width="30.333333333343035" height="151.64718555557343" /><rect  x="183.33333333334303" y="230.31335916523304" width="30.333333333328483" height="169.68664083476696" /><rect  x="216.66666666667152" y="215.02323263179898" width="30.333333333328483" height="184.97676736820102" /><rect  x="250" y="200.649549013618" width="30.333333333343035" height="199.350450986382" /><rect  x="283.33333333334303" y="187.14407447304532" width="30.333333333328483" height="212.85592552695468" /><rect  x="316.6666666666715" y="174.16917214656655" width="30.333333333328483" height="225.83082785343345" /><rect  x="350" y="156.66028908146694" width="30.333333333343035" height="243.33971091853306" /><rect  x="383.33333333334303" y="143.3381031239449" width="30.333333333328483" height="256.6618968760551" /><rect  x="416.6666666666715" y="132.6928951557149" width="30.333333333328483" height="267.3071048442851" /><rect  x="450" y="121.51711497339102" width="30.333333333343035" height="278.482885026609" /><rect  x="483.33333333334303" y="111.10825280962104" width="30.333333333328483" height="288.89174719037896" /><rect  x="516.6666666666715" y="100" width="30.333333333328483" height="300" /></g><text  class="poloto_text" alignment-baseline="start" text-anchor="middle" font-size="x-large" x="400" y="37.5" >Number of Wikipedia Articles</text><text  class="poloto_text" alignment-baseline="start" text-anchor="middle" font-size="x-large" x="400" y="481.25" >Year</text><text  class="poloto_text" alignment-baseline="start" text-anchor="middle" font-size="x-large" transform="rotate(-90,37.5,250)" x="37.5" y="250" >Number of Articles</text><line  class="poloto_axis_lines" stroke="black" x1="150" x2="150" y1="400" y2="405" /><text  class="poloto_text" alignment-baseline="start" text-anchor="middle" x="150" y="430" > 2010</text><line  class="poloto_axis_lines" stroke="black" x1="183.33333333334303" x2="183.33333333334303" y1="400" y2="405" /><text  class="poloto_text" alignment-baseline="start" text-anchor="middle" x="183.33333333334303" y="430" > 2011</text><line  class="poloto_axis_lines" stroke="black" x1="216.66666666667152" x2="216.66666666667152" y1="400" y2="405" /><text  class="poloto_text" alignment-baseline="start" text-anchor="middle" x="216.66666666667152" y="430" > 2012</text><line  class="poloto_axis_lines" stroke="black" x1="250" x2="250" y1="400" y2="405" /><text  class="poloto_text" alignment-baseline="start" text-anchor="middle" x="250" y="430" > 2013</text><line  class="poloto_axis_lines" stroke="black" x1="283.33333333334303" x2="283.33333333334303" y1="400" y2="405" /><text  class="poloto_text" alignment-baseline="start" text-anchor="middle" x="283.33333333334303" y="430" > 2014</text><line  class="poloto_axis_lines" stroke="black" x1="316.6666666666715" x2="316.6666666666715" y1="400" y2="405" /><text  class="poloto_text" alignment-baseline="start" text-anchor="middle" x="316.6666666666715" y="430" > 2015</text><line  class="poloto_axis_lines" stroke="black" x1="350" x2="350" y1="400" y2="405" /><text  class="poloto_text" alignment-baseline="start" text-anchor="middle" x="350" y="430" > 2016</text><line  class="poloto_axis_lines" stroke="black" x1="383.33333333334303" x2="383.33333333334303" y1="400" y2="405" /><text  class="poloto_text" alignment-baseline="start" text-anchor="middle" x="383.33333333334303" y="430" > 2017</text><line  class="poloto_axis_lines" stroke="black" x1="416.6666666666715" x2="416.6666666666715" y1="400" y2="405" /><text  class="poloto_text" alignment-baseline="start" text-anchor="middle" x="416.6666666666715" y="430" > 2018</text><line  class="poloto_axis_lines" stroke="black" x1="450" x2="450" y1="400" y2="405" /><text  class="poloto_text" alignment-baseline="start" text-anchor="middle" x="450" y="430" > 2019</text><line  class="poloto_axis_lines" stroke="black" x1="483.33333333334303" x2="483.33333333334303" y1="400" y2="405" /><text  class="poloto_text" alignment-baseline="start" text-anchor="middle" x="483.33333333334303" y="430" > 2020</text><line  class="poloto_axis_lines" stroke="black" x1="516.6666666666715" x2="516.6666666666715" y1="400" y2="405" /><text  class="poloto_text" alignment-baseline="start" text-anchor="middle" x="516.6666666666715" y="430" > 2021</text><line  class="poloto_axis_lines" stroke="black" x1="550" x2="550" y1="400" y2="405" /><text  class="poloto_text" alignment-baseline="start" text-anchor="middle" x="550" y="430" > 2022</text><line  class="poloto_axis_lines" stroke="black" x1="583.333333333343" x2="583.333333333343" y1="400" y2="405" /><text  class="poloto_text" alignment-baseline="start" text-anchor="middle" x="583.333333333343" y="430" > 2023</text><line  class="poloto_axis_lines" stroke="black" x1="616.6666666666715" x2="616.6666666666715" y1="400" y2="405" /><text  class="poloto_text" alignment-baseline="start" text-anchor="middle" x="616.6666666666715" y="430" > 2024</text><line  class="poloto_axis_lines" stroke="black" x1="650" x2="650" y1="400" y2="405" /><text  class="poloto_text" alignment-baseline="start" text-anchor="middle" x="650" y="430" > 2025</text><line  class="poloto_axis_lines" stroke="black" x1="150" x2="144" y1="400" y2="400" /><text  class="poloto_text" alignment-baseline="middle" text-anchor="end" x="135" y="400" > 0</text><line  class="poloto_axis_lines" stroke="black" x1="150" x2="144" y1="351.7661623550975" y2="351.7661623550975" /><text  class="poloto_text" alignment-baseline="middle" text-anchor="end" x="135" y="351.7661623550975" > 1e6</text><line  class="poloto_axis_lines" stroke="black" x1="150" x2="144" y1="303.53232471019504" y2="303.53232471019504" /><text  class="poloto_text" alignment-baseline="middle" text-anchor="end" x="135" y="303.53232471019504" > 2.0e6</text><line  class="poloto_axis_lines" stroke="black" x1="150" x2="144" y1="255.29848706529253" y2="255.29848706529253" /><text  class="poloto_text" alignment-baseline="middle" text-anchor="end" x="135" y="255.29848706529253" > 3.0e6</text><line  class="poloto_axis_lines" stroke="black" x1="150" x2="144" y1="207.06464942039008" y2="207.06464942039008" /><text  class="poloto_text" alignment-baseline="middle" text-anchor="end" x="135" y="207.06464942039008" > 4.0e6</text><line  class="poloto_axis_lines" stroke="black" x1="150" x2="144" y1="158.83081177548758" y2="158.83081177548758" /><text  class="poloto_text" alignment-baseline="middle" text-anchor="end" x="135" y="158.83081177548758" > 5.0e6</text><line  class="poloto_axis_lines" stroke="black" x1="150" x2="144" y1="110.59697413058507" y2="110.59697413058507" /><text  class="poloto_text" alignment-baseline="middle" text-anchor="end" x="135" y="110.59697413058507" > 6.0e6</text><path  stroke="black" fill="none" class="poloto_axis_lines" style="stroke-dasharray:8.333333333333334;stroke-dashoffset:-0;" d=" M 150 400 L 650 400" /><path  stroke="black" fill="none" class="poloto_axis_lines" style="stroke-dasharray:8.03897294081708;stroke-dashoffset:-0;" d=" M 150 400 L 150 100" /></svg>