<svg class="poloto" width="800" height="500" viewBox="0 0 800 500" xmlns="http://www.w3.org/2000/svg" ><rect class="poloto_background" fill="white" x="0" y="0" width="800" height="500" /><style><style>.poloto {
            font-family: "Arial";
            stroke-width:2;
            }
            .poloto_text{fill: var(--poloto_fg_color,black);  }
            .poloto_axis_lines{stroke: var(--poloto_fg_color,black);stoke-width:3;fill:none}
            .poloto_background{fill: var(--poloto_bg_color,aliceblue); }
            .poloto0stroke{stroke:  var(--poloto_color0,blue); }
            .poloto1stroke{stroke:  var(--poloto_color1,red); }
            .poloto2stroke{stroke:  var(--poloto_color2,green); }
            .poloto3stroke{stroke:  var(--poloto_color3,gold); }
            .poloto4stroke{stroke:  var(--poloto_color4,aqua); }
            .poloto5stroke{stroke:  var(--poloto_color5,brown); }
            .poloto6stroke{stroke:  var(--poloto_color6,lime); }
            .poloto7stroke{stroke:  var(--poloto_color7,chocolate); }
            .poloto0fill{fill:var(--poloto_color0,blue);}
            .poloto1fill{fill:var(--poloto_color1,red);}
            .poloto2fill{fill:var(--poloto_color2,green);}
            .poloto3fill{fill:var(--poloto_color3,gold);}
            .poloto4fill{fill:var(--poloto_color4,aqua);}
            .poloto5fill{fill:var(--poloto_color5,brown);}
            .poloto6fill{fill:var(--poloto_color6,lime);}
            .poloto7fill{fill:var(--poloto_color7,chocolate);}</style></style><line class="poloto_axis_lines" stroke="black" x1="150" x2="150" y1="400" y2="405" /><text class="poloto_text" alignment-baseline="start" text-anchor="middle" x="150" y="430" >0e0</text><line class="poloto_axis_lines" stroke="black" x1="252.04082" x2="252.04082" y1="400" y2="405" /><text class="poloto_text" alignment-baseline="start" text-anchor="middle" x="252.04082" y="430" >2e0</text><line class="poloto_axis_lines" stroke="black" x1="354.08163" x2="354.08163" y1="400" y2="405" /><text class="poloto_text" alignment-baseline="start" text-anchor="middle" x="354.08163" y="430" >4e0</text><line class="poloto_axis_lines" stroke="black" x1="456.12244" x2="456.12244" y1="400" y2="405" /><text class="poloto_text" alignment-baseline="start" text-anchor="middle" x="456.12244" y="430" >6e0</text><line class="poloto_axis_lines" stroke="black" x1="558.16327" x2="558.16327" y1="400" y2="405" /><text class="poloto_text" alignment-baseline="start" text-anchor="middle" x="558.16327" y="430" >8e0</text><line class="poloto_axis_lines" stroke="black" x1="150" x2="144" y1="386.41357" y2="386.41357" /><text class="poloto_text" alignment-baseline="middle" text-anchor="end" x="135" y="386.41357" >-2e1</text><line class="poloto_axis_lines" stroke="black" x1="150" x2="144" y1="318.21985" y2="318.21985" /><text class="poloto_text" alignment-baseline="middle" text-anchor="end" x="135" y="318.21985" >-2e1</text><line class="poloto_axis_lines" stroke="black" x1="150" x2="144" y1="250.02615" y2="250.02615" /><text class="poloto_text" alignment-baseline="middle" text-anchor="end" x="135" y="250.02615" >-1e1</text><line class="poloto_axis_lines" stroke="black" x1="150" x2="144" y1="181.83246" y2="181.83246" /><text class="poloto_text" alignment-baseline="middle" text-anchor="end" x="135" y="181.83246" >-5e0</text><line class="poloto_axis_lines" stroke="black" x1="150" x2="144" y1="113.63873" y2="113.63873" /><text class="poloto_text" alignment-baseline="middle" text-anchor="end" x="135" y="113.63873" >0e0</text><text class="poloto_text" alignment-baseline="middle" text-anchor="start" font-size="large" x="675" y="100" >cos</text><line class="poloto0stroke" stroke="black" x1="680" x2="730" y1="81.25" y2="81.25" /><polyline class="poloto0stroke" fill="none" stroke="black"  points="150,100 160.20409,100.27188 170.40816,101.07663 180.61224,102.3822 190.81633,104.136536 201.02042,106.269714 211.22449,108.696625 221.42857,111.32059 231.63266,114.03699 241.83673,116.73749 252.04082,119.31445 262.2449,121.66516 272.44897,123.69586 282.65308,125.32562 292.85715,126.48947 303.06122,127.14099 313.26532,127.25424 323.4694,126.824646 333.67346,125.869415 343.87756,124.426544 354.08163,122.55362 364.2857,120.32529 374.4898,117.83038 384.69388,115.168365 394.89795,112.44534 405.10205,109.76993 415.30612,107.24875 425.51022,104.98233 435.7143,103.061005 445.91837,101.56137 456.12244,100.54321 466.32654,100.04715 476.5306,100.09296 486.7347,100.67877 496.93878,101.78125 507.14285,103.356476 517.3469,105.34161 527.551,107.6575 537.7551,110.21185 547.95917,112.90286 558.16327,115.62317 568.3673,118.264404 578.5714,120.72119 588.7755,122.89563 598.9796,124.70102 609.1837,126.06543 619.38776,126.93439 629.5918,127.273285 639.7959,127.068634 650,126.32858 "/><text class="poloto_text" alignment-baseline="middle" text-anchor="start" font-size="large" x="675" y="150" >sin</text><circle class="poloto1fill" cx="685" cy="131.25" r="5" /><g class="poloto1fill" ><circle cx="150" cy="113.63873" r="5" /><circle cx="160.20409" cy="110.92914" r="5" /><circle cx="170.40816" cy="108.327576" r="5" /><circle cx="180.61224" cy="105.937744" r="5" /><circle cx="190.81633" cy="103.85492" r="5" /><circle cx="201.02042" cy="102.16214" r="5" /><circle cx="211.22449" cy="100.92691" r="5" /><circle cx="221.42857" cy="100.198456" r="5" /><circle cx="231.63266" cy="100.00583" r="5" /><circle cx="241.83673" cy="100.35669" r="5" /><circle cx="252.04082" cy="101.23706" r="5" /><circle cx="262.2449" cy="102.61188" r="5" /><circle cx="272.44897" cy="104.42627" r="5" /><circle cx="282.65308" cy="106.60797" r="5" /><circle cx="292.85715" cy="109.06995" r="5" /><circle cx="303.06122" cy="111.71402" r="5" /><circle cx="313.26532" cy="114.434906" r="5" /><circle cx="323.4694" cy="117.12399" r="5" /><circle cx="333.67346" cy="119.674164" r="5" /><circle cx="343.87756" cy="121.983734" r="5" /><circle cx="354.08163" cy="123.96057" r="5" /><circle cx="364.2857" cy="125.52594" r="5" /><circle cx="374.4898" cy="126.6174" r="5" /><circle cx="384.69388" cy="127.19144" r="5" /><circle cx="394.89795" cy="127.22516" r="5" /><circle cx="405.10205" cy="126.717285" r="5" /><circle cx="415.30612" cy="125.68796" r="5" /><circle cx="425.51022" cy="124.17828" r="5" /><circle cx="435.7143" cy="122.24844" r="5" /><circle cx="445.91837" cy="119.97531" r="5" /><circle cx="456.12244" cy="117.449615" r="5" /><circle cx="466.32654" cy="114.77197" r="5" /><circle cx="476.5306" cy="112.049164" r="5" /><circle cx="486.7347" cy="109.38971" r="5" /><circle cx="496.93878" cy="106.89966" r="5" /><circle cx="507.14285" cy="104.67828" r="5" /><circle cx="517.3469" cy="102.81409" r="5" /><circle cx="527.551" cy="101.3815" r="5" /><circle cx="537.7551" cy="100.43753" r="5" /><circle cx="547.95917" cy="100.01987" r="5" /><circle cx="558.16327" cy="100.14514" r="5" /><circle cx="568.3673" cy="100.80835" r="5" /><circle cx="578.5714" cy="101.98309" r="5" /><circle cx="588.7755" cy="103.6225" r="5" /><circle cx="598.9796" cy="105.661224" r="5" /><circle cx="609.1837" cy="108.017944" r="5" /><circle cx="619.38776" cy="110.598785" r="5" /><circle cx="629.5918" cy="113.30081" r="5" /><circle cx="639.7959" cy="116.01633" r="5" /><circle cx="650" cy="118.637054" r="5" /></g><text class="poloto_text" alignment-baseline="middle" text-anchor="start" font-size="large" x="675" y="200" >sin-10</text><rect class="poloto2fill" x="680" y="176.25" width="50" height="7.5" rx="5" ry="5" /><g class="poloto2fill" ><rect x="150" y="250.02615" width="27.612244" height="149.97385" /><rect x="180.61224" y="242.32515" width="27.612244" height="157.67485" /><rect x="211.22449" y="237.31432" width="27.612244" height="162.68568" /><rect x="241.83673" y="236.74411" width="27.612244" height="163.25589" /><rect x="272.44897" y="240.81369" width="27.612244" height="159.18631" /><rect x="303.06122" y="248.10146" width="27.612244" height="151.89854" /><rect x="333.67346" y="256.06158" width="27.612244" height="143.93842" /><rect x="364.2857" y="261.91333" width="27.612244" height="138.08667" /><rect x="394.89795" y="263.61258" width="27.612274" height="136.38742" /><rect x="425.51022" y="260.56567" width="27.612213" height="139.43433" /><rect x="456.12244" y="253.83702" width="27.612274" height="146.16298" /><rect x="486.7347" y="245.77713" width="27.612213" height="154.22287" /><rect x="517.3469" y="239.20152" width="27.612244" height="160.79848" /><rect x="547.95917" y="236.40727" width="27.612244" height="163.59273" /><rect x="578.5714" y="238.3705" width="27.612305" height="161.6295" /><rect x="609.1837" y="244.40538" width="27.612183" height="155.59462" /></g><text class="poloto_text" alignment-baseline="middle" text-anchor="start" font-size="large" x="675" y="250" >sin-20</text><rect class="poloto3fill" x="680" y="226.25" width="50" height="7.5" rx="5" ry="5" /><path class="poloto3fill"  d="M 150 400 L 150 386.41357 L 160.20409 383.70398 L 170.40816 381.10242 L 180.61224 378.71255 L 190.81633 376.62973 L 201.02042 374.93698 L 211.22449 373.70172 L 221.42857 372.9733 L 231.63266 372.78067 L 241.83673 373.1315 L 252.04082 374.0119 L 262.2449 375.3867 L 272.44897 377.2011 L 282.65308 379.38278 L 292.85715 381.84476 L 303.06122 384.48886 L 313.26532 387.20972 L 323.4694 389.89883 L 333.67346 392.449 L 343.87756 394.75854 L 354.08163 396.73538 L 364.2857 398.30078 L 374.4898 399.39224 L 384.69388 399.96625 L 394.89795 400 L 405.10205 399.49207 L 415.30612 398.4628 L 425.51022 396.9531 L 435.7143 395.02325 L 445.91837 392.75015 L 456.12244 390.22446 L 466.32654 387.5468 L 476.5306 384.824 L 486.7347 382.16452 L 496.93878 379.67447 L 507.14285 377.4531 L 517.3469 375.58893 L 527.551 374.1563 L 537.7551 373.21237 L 547.95917 372.7947 L 558.16327 372.91995 L 568.3673 373.5832 L 578.5714 374.7579 L 588.7755 376.39734 L 598.9796 378.43604 L 609.1837 380.7928 L 619.38776 383.37363 L 629.5918 386.07565 L 639.7959 388.79117 L 650 391.4119 L 650 400 z"/><text class="poloto_text" alignment-baseline="start" text-anchor="middle" font-size="x-large" x="400" y="37.5" >Demo: Some Trigonometry Plots</text><text class="poloto_text" alignment-baseline="start" text-anchor="middle" font-size="x-large" x="400" y="481.25" >This is the x label</text><text class="poloto_text" alignment-baseline="start" text-anchor="middle" font-size="x-large" transform="rotate(-90,37.5,250)" x="37.5" y="250" >This is the y label</text><path stroke="black" fill="none" class="poloto_axis_lines"  d="M 150 100 L 150 400 L 650 400 "/></svg>