<svg class="poloto" width="800" height="500" viewBox="0 0 800 500" xmlns="http://www.w3.org/2000/svg"><style>.poloto {
                font-family: "Arial";
                stroke-width:2;
                }
                .poloto_text{fill: black;  }
                .poloto_axis_lines{stroke: black;stoke-width:3;fill:none}
                .poloto_background{fill: aliceblue; }
                .poloto0stroke{stroke:  blue; }
                .poloto1stroke{stroke:  red; }
                .poloto2stroke{stroke:  green; }
                .poloto3stroke{stroke:  gold; }
                .poloto4stroke{stroke:  aqua; }
                .poloto5stroke{stroke:  brown; }
                .poloto6stroke{stroke:  lime; }
                .poloto7stroke{stroke:  chocolate; }
                .poloto0fill{fill:blue;}
                .poloto1fill{fill:red;}
                .poloto2fill{fill:green;}
                .poloto3fill{fill:gold;}
                .poloto4fill{fill:aqua;}
                .poloto5fill{fill:brown;}
                .poloto6fill{fill:lime;}
                .poloto7fill{fill:chocolate;}</style><rect class="poloto_background" fill="white" x="0" y="0" width="800" height="500"/><line class="poloto_axis_lines" stroke="black" x1="150" x2="150" y1="400" y2="405"/><text class="poloto_text" alignment-baseline="start" text-anchor="middle" x="150" y="430">0</text><line class="poloto_axis_lines" stroke="black" x1="233.33333333333331" x2="233.33333333333331" y1="400" y2="405"/><text class="poloto_text" alignment-baseline="start" text-anchor="middle" x="233.33333333333331" y="430">1</text><line class="poloto_axis_lines" stroke="black" x1="316.66666666666663" x2="316.66666666666663" y1="400" y2="405"/><text class="poloto_text" alignment-baseline="start" text-anchor="middle" x="316.66666666666663" y="430">2</text><line class="poloto_axis_lines" stroke="black" x1="400" x2="400" y1="400" y2="405"/><text class="poloto_text" alignment-baseline="start" text-anchor="middle" x="400" y="430">3</text><line class="poloto_axis_lines" stroke="black" x1="483.3333333333333" x2="483.3333333333333" y1="400" y2="405"/><text class="poloto_text" alignment-baseline="start" text-anchor="middle" x="483.3333333333333" y="430">4</text><line class="poloto_axis_lines" stroke="black" x1="566.6666666666666" x2="566.6666666666666" y1="400" y2="405"/><text class="poloto_text" alignment-baseline="start" text-anchor="middle" x="566.6666666666666" y="430">5</text><line class="poloto_axis_lines" stroke="black" x1="650" x2="650" y1="400" y2="405"/><text class="poloto_text" alignment-baseline="start" text-anchor="middle" x="650" y="430">6</text><line class="poloto_axis_lines" stroke="black" x1="150" x2="144" y1="336.8421052631579" y2="336.8421052631579"/><text class="poloto_text" alignment-baseline="middle" text-anchor="end" x="135" y="336.8421052631579">5</text><line class="poloto_axis_lines" stroke="black" x1="150" x2="144" y1="257.89473684210526" y2="257.89473684210526"/><text class="poloto_text" alignment-baseline="middle" text-anchor="end" x="135" y="257.89473684210526">10</text><line class="poloto_axis_lines" stroke="black" x1="150" x2="144" y1="178.9473684210526" y2="178.9473684210526"/><text class="poloto_text" alignment-baseline="middle" text-anchor="end" x="135" y="178.9473684210526">15</text><line class="poloto_axis_lines" stroke="black" x1="150" x2="144" y1="100" y2="100"/><text class="poloto_text" alignment-baseline="middle" text-anchor="end" x="135" y="100">20</text><text class="poloto_text" alignment-baseline="middle" text-anchor="start" font-size="large" x="675" y="100">data</text><rect class="poloto0fill" x="680" y="76.25" width="50" height="7.5" rx="5" ry="5"/><path class="poloto0fill" d=" M 150 400 L 150 400 L 233.33333333333331 100 L 316.66666666666663 178.94736842105263 L 400 305.2631578947369 L 566.6666666666666 100 L 650 194.73684210526318 L 650 400Z"/><text class="poloto_text" alignment-baseline="start" text-anchor="middle" font-size="x-large" x="400" y="37.5">simple</text><text class="poloto_text" alignment-baseline="start" text-anchor="middle" font-size="x-large" x="400" y="481.25">x</text><text class="poloto_text" alignment-baseline="start" text-anchor="middle" font-size="x-large" transform="rotate(-90,37.5,250)" x="37.5" y="250">y</text><path stroke="black" fill="none" class="poloto_axis_lines" d=" M 150 100 L 150 400 L 650 400"/></svg>