<svg  width="800" class="poloto_background poloto" height="500" viewBox="0 0 800 500" xmlns="http://www.w3.org/2000/svg" > <style>.poloto { stroke-linecap:round; stroke-linejoin:round; font-family: 'Tahoma', sans-serif; stroke-width:2; } .scatter{stroke-width:7} .poloto_text{fill: black;} .poloto_axis_lines{stroke: black;stroke-width:3;fill:none;stroke-dasharray:none} .poloto_background{background-color: AliceBlue;} .poloto0stroke{stroke:  blue;} .poloto1stroke{stroke:  red;} .poloto2stroke{stroke:  green;} .poloto3stroke{stroke:  gold;} .poloto4stroke{stroke:  aqua;} .poloto5stroke{stroke:  lime;} .poloto6stroke{stroke:  orange;} .poloto7stroke{stroke:  chocolate;} .poloto0fill{fill:blue;} .poloto1fill{fill:red;} .poloto2fill{fill:green;} .poloto3fill{fill:gold;} .poloto4fill{fill:aqua;} .poloto5fill{fill:lime;} .poloto6fill{fill:orange;} .poloto7fill{fill:chocolate;}</style><text  class="poloto_text" alignment-baseline="middle" text-anchor="start" font-size="large" x="675" y="100" >tan(x)</text><line  class="poloto0stroke poloto0legend" stroke="black" x1="680" x2="730" y1="81.25" y2="81.25" /><path  class="poloto0stroke" fill="none" stroke="black" d=" M 250.20040080160322 281.4941983640881 M 250.20040080160322 281.4941983640881 L 251.20240480961922 279.67573375148817 L 252.20440881763528 278.0021641136651 L 253.2064128256513 276.45564548942957 L 254.20841683366734 275.02113363178887 L 255.21042084168337 273.68585487519437 L 256.2124248496994 272.43889261205703 L 257.21442885771546 271.2708609433184 L 258.21643286573146 270.1736447895146 L 259.2184368737475 269.1401911889226 L 260.2204408817635 268.16434039323167 L 261.2224448897796 267.2406881781881 L 262.2244488977956 266.3644728386462 L 263.22645290581164 265.5314818535246 L 264.2284569138277 264.73797433744585 L 265.2304609218437 263.98061624786004 L 266.2324649298597 263.25642596378015 L 267.23446893787576 262.5627283480937 L 268.23647294589176 261.89711578816707 L 269.2384769539078 261.2574150070666 L 270.2404809619238 260.6416586707234 L 271.2424849699399 260.048060999983 L 272.24448897795594 259.4749967420667 L 273.24649298597194 258.92098297208724 L 274.248496993988 258.38466328838484 L 275.250501002004 257.864794040531 L 276.25250501002006 257.36023228969134 L 277.25450901803606 256.86992525057497 L 278.2565130260521 256.39290100472226 L 279.2585170340682 255.92826030817278 L 280.2605210420842 255.4751693440204 L 281.2625250501002 255.03285329311336 L 282.26452905811624 254.60059061507152 L 283.2665330661323 254.17770794757942 L 284.2685370741483 253.76357554513223 L 285.2705410821643 253.35760318951918 L 286.2725450901804 252.95923651369037 L 287.2745490981964 252.5679536885676 L 288.2765531062124 252.1832624290699 L 289.2785571142285 251.80469728132954 L 290.28056112224453 251.43181715793438 L 291.28256513026054 251.06420309218706 L 292.28456913827654 250.70145618592463 L 293.2865731462926 250.34319572849225 L 294.28857715430865 249.98905746708277 L 295.29058116232466 249.63869201090688 L 296.29258517034066 249.29176335359804 L 297.2945891783567 248.94794749992585 L 298.2965931863728 248.60693118433142 L 299.2985971943888 248.26841067003448 L 300.3006012024048 247.9320906185269 L 301.30260521042084 247.59768302017648 L 302.3046092184369 247.26490617744255 L 303.3066132264529 246.9334837328611 L 304.30861723446895 246.6031437345098 L 305.310621242485 246.2736177321173 L 306.312625250501 245.94463989735038 L 307.314629258517 245.6159461621008 L 308.3166332665331 245.28727336880448 L 309.31863727454913 244.95835842697002 L 310.32064128256513 244.62893747016392 L 311.32264529058114 244.2987450077061 L 312.32464929859725 243.96751306526787 L 313.32665330661325 243.63497030843322 L 314.32865731462925 243.30084114308337 L 315.3306613226453 242.9648447861893 L 316.33266533066137 242.6266943002415 L 317.3346693386774 242.28609558410528 L 318.3366733466934 241.94274631255448 L 319.33867735470943 241.59633481609703 L 320.3406813627255 241.24653889194903 L 321.3426853707415 240.89302453612592 L 322.3446893787575 240.5354445855818 L 323.34669338677355 240.17343725811952 L 324.34869739478955 239.80662457638957 L 325.3507014028056 239.43461066066445 L 326.3527054108216 239.05697987318229 L 327.3547094188377 238.67329479465297 L 328.35671342685373 238.28309401096448 L 329.35871743486973 237.88588968515091 L 330.36072144288573 237.48116488621534 L 331.36272545090185 237.06837064235006 L 332.36472945891785 236.64692268135627 L 333.36673346693385 236.21619781550532 L 334.36873747494985 235.77552992154608 L 335.37074148296597 235.32420545885444 L 336.37274549098197 234.86145845960954 L 337.37474949899797 234.3864649140729 L 338.37675350701403 233.89833646119405 L 339.3787575150301 233.39611327942234 L 340.3807615230461 232.87875605423142 L 341.38276553106215 232.34513687677753 L 342.38476953907815 231.79402890146625 L 343.3867735470942 231.22409455792376 L 344.3887775551102 230.6338720736089 L 345.39078156312627 230.02176001533465 L 346.3927855711423 229.38599949910738 L 347.3947895791583 228.72465364510396 L 348.39679358717433 228.03558376465645 L 349.39879759519044 227.31642165404847 L 350.40080160320645 226.56453722954654 L 351.40280561122245 225.77700056120958 L 352.40480961923845 224.95053713878772 L 353.40681362725456 224.0814749169175 L 354.40881763527057 223.16568131928142 L 355.41082164328657 222.1984879058253 L 356.4128256513026 221.17459978704676 L 357.4148296593186 220.08798605428794 L 358.4168336673347 218.93174641428195 L 359.4188376753507 217.6979477701447 L 360.42084168336675 216.3774225369426 L 361.42284569138275 214.959517811577 L 362.4248496993988 213.43178083155811 L 363.4268537074148 211.77956100579752 L 364.42885771543087 209.98550150458954 L 365.4308617234469 208.0288829154546 L 366.4328657314629 205.88476618330444 L 367.4348697394789 203.5228593753912 L 368.43687374749504 200.90599854958933 L 369.43887775551104 197.98808018865927 L 370.44088176352705 194.71119941445613 L 371.44288577154305 191.0016136979653 L 372.44488977955916 186.76392840396403 L 373.44689378757516 181.8725178228931 L 374.4488977955912 176.15851624154305 L 375.4509018036072 169.3894589640442 L 376.4529058116233 161.23622470753224 L 377.4549098196393 151.21696660431218 L 378.45691382765534 138.59689120621073 L 379.45891783567134 122.19719520230444 L 380.4609218436874 99.99999999999994 M 391.48296593186376 397.6973694194288 L 392.48496993987976 373.6558130802624 L 393.48697394789576 356.09921724602054 L 394.4889779559118 342.70609155226435 L 395.4909819639279 332.1448543455041 L 396.4929859719439 323.5970232912437 L 397.4949899799599 316.53178715592105 L 398.496993987976 310.58982710627174 L 399.498997995992 305.51923392870697 L 400.501002004008 301.13816251292894 L 401.503006012024 297.3120549296099 L 402.5050100200401 293.9392064164958 L 403.5070140280561 290.9413141745214 L 404.5090180360721 288.2571113336979 L 405.5110220440881 285.83797176587564 L 406.51302605210424 283.6448088278596 L 407.5150300601203 281.64584440143585 L 408.5170340681363 279.814976025993 L 409.5190380761523 278.13056305812677 L 410.52104208416836 276.57451154947097 L 411.5230460921844 275.1315754555445 L 412.5250501002004 273.78881677261495 L 413.5270541082164 272.5351839714706 L 414.5290581162325 271.3611795502032 L 415.53106212424854 270.25859547290753 L 416.53306613226454 269.2203008524207 L 417.53507014028054 268.2400702228698 L 418.5370741482966 267.3124436270957 L 419.53907815631266 266.4326118470061 L 420.54108216432866 265.5963216573882 L 421.5430861723447 264.799797141267 L 422.5450901803608 264.03967397609506 L 423.5470941883768 263.31294426149395 L 424.54909819639283 262.6169099656036 L 425.55110220440883 261.9491434577127 L 426.5531062124249 261.3074538983928 L 427.55511022044095 260.6898584958934 L 428.55711422845695 260.09455782463937 L 429.55911823647295 259.519914549943 L 430.561122244489 258.96443502124333 L 431.56312625250507 258.42675329094186 L 432.565130260521 257.90561719226866 L 433.567134268537 257.39987617147324 L 434.5691382765531 256.9084706199807 L 435.57114228456913 256.43042249332274 L 436.5731462925852 255.96482703746523 L 437.5751503006012 255.51084547103792 L 438.57715430861725 255.06769849506253 L 439.57915831663325 254.6346605209692 L 440.5811623246493 254.21105452370293 L 441.5831663326653 253.79624744012756 L 442.5851703406814 253.38964604419547 L 443.5871743486974 252.9906932398401 L 444.58917835671343 252.59886472056868 L 445.59118236472943 252.2136659515309 L 446.5931863727455 251.83462943561744 L 447.5951903807615 251.46131223006523 L 448.59719438877755 251.09329368425193 L 449.59919839679355 250.73017337296042 L 450.6012024048096 250.37156920248006 L 451.6032064128256 250.01711566956286 L 452.6052104208417 249.6664622555317 L 453.60721442885773 249.31927193980061 L 454.60921843687373 248.97521981875707 L 455.6112224448898 248.63399181741264 L 456.61322645290585 248.29528348248041 L 457.61523046092185 247.95879884661426 L 458.6172344689379 247.62424935446728 L 459.6192384769539 247.29135284201314 L 460.62124248496997 246.95983256123975 L 461.62324649298597 246.62941624288572 L 462.62525050100203 246.2998351903505 L 463.62725450901803 245.97082339828626 L 464.6292585170341 245.6421166896718 L 465.6312625250501 245.313451865389 L 466.63326653306615 244.98456586046777 L 467.63527054108215 244.65519490124538 L 468.6372745490982 244.32507365769467 L 469.6392785571142 243.99393438512135 L 470.64128256513027 243.66150604930363 L 471.64328657314627 243.32751342895364 L 472.6452905811623 242.99167618910923 L 473.6472945891784 242.65370791871723 L 474.64929859719444 242.31331512523502 L 475.65130260521045 241.97019617854926 L 476.6533066132265 241.6240401958804 L 477.6553106212425 241.27452585859476 L 478.65731462925856 240.92132015096806 L 479.65931863727457 240.56407700992082 L 480.6613226452906 240.20243587355077 L 481.6633266533066 239.83602011489992 L 482.6653306613227 239.46443534578273 L 483.6673346693387 239.0872675736296 L 484.66933867735474 238.70408119212684 L 485.67134268537075 238.31441678390934 L 486.6733466933868 237.9177887106202 L 487.6753507014028 237.5136824622282 L 488.67735470941886 237.10155173349054 L 489.67935871743487 236.68081519076972 L 490.6813627254509 236.25085288692213 L 491.683366733467 235.8110022755241 L 492.685370741483 235.3605537680932 L 493.68737474949904 234.89874576897293 L 494.689378757515 234.42475911188717 L 495.69138276553105 233.9377108094969 L 496.6933867735471 233.43664701216343 L 497.6953907815631 232.92053505401387 L 498.6973947895791 232.38825444264344 L 499.69939879759517 231.83858662254192 L 500.7014028056112 231.27020331054686 L 501.7034068136272 230.68165316297907 L 502.7054108216432 230.07134648691684 L 503.7074148296593 229.4375376501643 L 504.70941883767534 228.77830477309777 L 505.71142284569135 228.0915261971613 L 506.7134268537074 227.37485311468518 L 507.71543086172346 226.62567760684436 L 508.7174348697395 225.84109516295734 L 509.7194388777555 225.01786053434074 L 510.7214428857715 224.15233549539812 L 511.7234468937876 223.2404267244336 L 512.7254509018037 222.2775115508937 L 513.7274549098197 221.2583487088013 L 514.7294589178357 220.176970438867 L 515.7314629258517 219.02655122543277 L 516.7334669338677 217.79924704198945 L 517.7354709418837 216.4859970719586 L 518.7374749498997 215.07627726947499 L 519.7394789579158 213.55779153482675 L 520.7414829659319 211.91608126569227 L 521.7434869739479 210.13402695236647 L 522.7454909819639 208.1912053081966 L 523.7474949899799 206.06305059987625 L 524.7494989979959 203.71974687954105 L 525.7515030060121 201.12474468984607 L 526.7535070140281 198.2327448265576 L 527.7555110220442 194.98691152681747 L 528.7575150300602 191.3149481197287 L 529.7595190380762 187.1234538763989 L 530.7615230460922 182.28961462028943 L 531.7635270541082 176.64863178624995 L 532.7655310621243 169.97410175791333 L 533.7675350701403 161.94625757351767 L 534.7695390781563 152.0983060585003 L 535.7715430861724 139.7209447610598 L 536.7735470941884 123.6813599578822 L 537.7755511022044 102.05166556000762 M 548.7975951903809 400 L 549.7995991983969 375.29194058363146 L 550.8016032064129 357.3221600268982 L 551.8036072144289 343.65534732606477 L 552.8056112224449 332.90352588232247 L 553.8076152304609 324.21768400392966 L 554.8096192384769 317.04931417322115 L 555.8116232464931 311.0282659314172 L 556.8136272545091 305.8956989140022 L 557.815631262525 301.465165666801 L 558.8176352705411 297.59895518069754 L 559.8196392785571 294.1931438311866 L 560.8216432865731 291.1678306822061 L 561.8236472945891 288.46057416344024 L 562.8256513026053 286.02186905624717 L 563.8276553106213 283.8119602651671 L 564.8296593186373 281.79855407455807 L 565.8316633266533 279.9551451799902 L 566.8336673346694 278.25977450478285 L 567.8356713426854 276.69409371169206 L 568.8376753507014 275.2426515562547 L 569.8396793587174 273.8923430383327 L 570.8416833667335 272.63197960991204 L 571.8436873747495 271.45195049665983 L 572.8456913827655 270.34395336589233 L 573.8476953907816 269.30077832057486 L 574.8496993987976 268.3161332935017 L 575.8517034068136 267.3845018694733 L 576.8537074148296 266.5010267186918 L 577.8557114228456 265.6614134144527 L 578.8577154308617 264.86185059273384 L 579.8597194388778 264.0989433021248 L 580.8617234468938 263.36965706844023 L 581.8637274549098 262.67127071543666 L 582.8657314629259 262.0013363817093 L 583.8677354709419 261.35764548348106 L 584.8697394789579 260.7381996151478 L 585.8717434869739 260.14118557008004 L 586.8737474949901 259.56495381518835 L 587.8757515030061 259.00799987308733 L 588.8777555110221 258.4689481621136 L 589.8797595190381 257.9465379221281 L 590.8817635270541 257.4396109169271 L 591.8837675350701 256.9471006552567 L 592.8857715430861 256.4680229142527 L 593.8877755511022 256.00146738346996 L 594.8897795591183 255.5465902759738 L 595.8917835671343 255.10260777640616 L 596.8937875751503 254.66879021541078 L 597.8957915831663 254.24445687604862 L 598.8977955911824 253.828971351426 L 599.8997995991984 253.4217373841771 L 600.9018036072144 253.02219512805905 L 601.9038076152304 252.62981778004692 L 602.9058116232466 252.24410853820186 L 603.9078156312626 251.86459784644023 L 604.9098196392786 251.49084089231604 L 605.9118236472946 251.122415328188 L 606.9138276553107 250.7589191897852 L 607.9158316633267 250.39996898930997 L 608.9178356713427 250.04519796289821 L 609.9198396793587 249.69425445456608 L 610.9218436873748 249.34680042075647 L 611.9238476953908 249.0025100413109 L 612.9258517034068 248.66106842416323 L 613.9278557114228 248.32217039232248 L 614.9298597194389 247.9855193427987 L 615.931863727455 247.65082616806214 L 616.933867735471 247.31780823141963 L 617.935871743487 246.98618838837126 L 618.937875751503 246.655694046574 L 619.939879759519 246.32605625751222 L 620.941883767535 245.99700883335422 L 621.943887775551 245.6682874827762 L 622.945891783567 245.33962895975844 L 623.947895791583 245.01077021951048 L 624.9498997995993 244.68144757576786 L 625.9519038076153 244.35139585371678 L 626.9539078156313 244.02034753275262 L 627.9559118236473 243.68803187315967 L 628.9579158316633 243.35417402060847 L 629.9599198396794 243.01849408210444 L 630.9619238476954 242.68070616667927 L 631.9639278557114 242.34051738368976 L 632.9659318637275 241.99762679106883 L 633.9679358717435 241.65172428525182 L 634.9699398797595 241.30248942376286 L 635.9719438877755 240.94959017058198 L 636.9739478957915 240.5926815533989 L 637.9759519038076 240.23140422068198 L 638.9779559118236 239.86538288511784 L 639.9799599198396 239.49422463838476 L 640.9819639278558 239.11751712037463 L 641.9839679358718 238.7348265238294 L 642.9859719438878 238.34569541286308 L 643.9879759519038 237.94964033093578 L 644.9899799599198 237.54614917046192 L 645.9919839679359 237.134678272283 L 646.993987975952 236.71464921861389 L 647.995991983968 236.28544527765018 L 648.997995991984 235.8464074516566 L 650 235.39683007284668" /><text  class="poloto_text" alignment-baseline="middle" text-anchor="start" font-size="large" x="675" y="150" >sin(2x)</text><line  class="poloto1stroke poloto1legend" stroke="black" x1="680" x2="730" y1="131.25" y2="131.25" /><path  class="poloto1stroke" fill="none" stroke="black" d=" M 150 245.58977576729515 L 151.00200400801603 244.93267381774163 L 152.00400801603206 244.27662309113313 L 153.0060120240481 243.62267312868218 L 154.00801603206412 242.97187011082684 L 155.01002004008015 242.3252551835651 L 156.01202404809618 241.6838627928434 L 157.01402805611224 241.04871902966383 L 158.01603206412827 240.42083998855736 L 159.0180360721443 239.8012301420494 L 160.02004008016033 239.19088073371793 L 161.02204408817636 238.5907681924154 L 162.0240480961924 238.0018525701907 L 163.02605210420842 237.42507600641073 L 164.02805611222445 236.86136122053847 L 165.03006012024048 236.31161003597853 L 166.0320641282565 235.77670193735224 L 167.03406813627254 235.2574926635098 L 168.03607214428857 234.75481283853054 L 169.0380761523046 234.26946664290182 L 170.04008016032066 233.80223052700165 L 171.0420841683367 233.35385196894373 L 172.04408817635272 232.925048278772 L 173.04609218436875 232.51650545091746 L 174.04809619238478 232.12887706675352 L 175.0501002004008 231.76278324900522 L 176.05210420841684 231.4188096696851 L 177.05410821643287 231.09750661314294 L 178.0561122244489 230.79938809572823 L 179.05811623246493 230.5249310434736 L 180.06012024048096 230.27457452911494 L 181.06212424849699 230.0487190696687 L 182.06412825651302 229.84772598569003 L 183.06613226452907 229.67191682323707 L 184.0681362725451 229.52157283946582 L 185.07014028056113 229.39693455267863 L 186.07214428857716 229.29820135754625 L 187.0741482965932 229.22553120611894 L 188.07615230460922 229.1790403551369 L 189.07815631262525 229.1588031800441 L 190.08016032064128 229.1648520560037 L 191.0821643286573 229.1971773061045 L 192.08416833667334 229.25572721684205 L 193.08617234468937 229.34040812084916 L 194.0881763527054 229.4510845467437 L 195.09018036072143 229.5875794358539 L 196.09218436873746 229.7496744254746 L 197.0941883767535 229.93711019820086 L 198.09619238476955 230.1495868967804 L 199.09819639278558 230.38676460382146 L 200.1002004008016 230.64826388558802 L 201.10220440881764 230.93366639901276 L 202.10420841683367 231.24251556095686 L 203.1062124248497 231.57431727864548 L 204.10821643286573 231.92854074011092 L 205.11022044088176 232.3046192633785 L 206.1122244488978 232.70195120303674 L 207.11422845691385 233.11990091274188 L 208.11623246492985 233.5577997621162 L 209.11823647294588 234.01494720641415 L 210.1202404809619 234.49061190724444 L 211.12224448897797 234.98403290255547 L 212.124248496994 235.49442082401228 L 213.12625250501003 236.02095915981747 L 214.12825651302606 236.56280556095595 L 215.1302605210421 237.11909318877366 L 216.13226452905812 237.6889321017344 L 217.13426853707415 238.2714106791366 L 218.1362725450902 238.86559707951193 L 219.1382765531062 239.47054073137275 L 220.14028056112227 240.08527385392387 L 221.14228456913827 240.70881300530527 L 222.14428857715433 241.34016065588932 L 223.14629258517033 241.9783067841154 L 224.1482965931864 242.62223049230897 L 225.1503006012024 243.27090163989993 L 226.15230460921845 243.92328249142798 L 227.15430861723448 244.5783293766978 L 228.1563126252505 245.23499436042886 L 229.15831663326654 245.89222691872823 L 230.16032064128257 246.5489756197048 L 231.16232464929863 247.2041898055359 L 232.16432865731463 247.85682127329576 L 233.16633266533069 248.5058259518566 L 234.1683366733467 249.15016557217967 L 235.17034068136275 249.78880932832425 L 236.17234468937875 250.4207355265172 L 237.17434869739478 251.04493321964523 L 238.1763527054108 251.66040382455435 L 239.17835671342687 252.26616271957008 L 240.18036072144287 252.8612408196821 L 241.18236472945893 253.44468612687348 L 242.18436873747493 254.01556525311435 L 243.18637274549098 254.5729649135838 L 244.18837675350701 255.11599338773067 L 245.19038076152304 255.64378194583622 L 246.19238476953907 256.15548623879636 L 247.1943887775551 256.65028764890013 L 248.19639278557116 257.1273945994434 L 249.19839679358716 257.58604382108257 L 250.20040080160322 258.02550157290307 L 251.20240480961922 258.44506481624796 L 252.20440881763528 258.8440623394299 L 253.2064128256513 259.2218558315268 L 254.20841683366734 259.5778409035429 L 255.21042084168337 259.91144805530246 L 256.2124248496994 260.2221435865283 L 257.21442885771546 260.50943045064867 L 258.21643286573146 260.77284904996566 L 259.2184368737475 261.0119779709132 L 260.2204408817635 261.2264346582293 L 261.2224448897796 261.41587602696256 L 262.2244488977956 261.5799990113351 L 263.22645290581164 261.71854104958277 L 264.2284569138277 261.8312805039985 L 265.2304609218437 261.9180370155052 L 266.2324649298597 261.97867179219134 L 267.23446893787576 262.01308783134897 L 268.23647294589176 262.0212300746572 L 269.2384769539078 262.00308549626357 L 270.2404809619238 261.95868312362296 L 271.2424849699399 261.8880939910596 L 272.24448897795594 261.79143102612727 L 273.24649298597194 261.66884886894957 L 274.248496993988 261.52054362482863 L 275.250501002004 261.34675255051815 L 276.25250501002006 261.1477536746636 L 277.25450901803606 260.9238653530156 L 278.2565130260521 260.67544575912837 L 279.2585170340682 260.40289231135887 L 280.2605210420842 260.1066410370819 L 281.2625250501002 259.7871658751393 L 282.26452905811624 259.44497791763916 L 283.2665330661323 259.08062459231735 L 284.2685370741483 258.6946887867697 L 285.2705410821643 258.2877879159566 L 286.2725450901804 257.86057293447044 L 287.2745490981964 257.4137272951472 L 288.2765531062124 256.9479658556879 L 289.2785571142285 256.4640337350385 L 290.28056112224453 255.96270512135874 L 291.28256513026054 255.444782033486 L 292.28456913827654 254.91109303787658 L 293.2865731462926 254.36249192307585 L 294.28857715430865 253.79985633383885 L 295.29058116232466 253.22408636708582 L 296.29258517034066 252.6361031319392 L 297.2945891783567 252.03684727614547 L 298.2965931863728 251.42727748123949 L 299.2985971943888 250.80836892885847 L 300.3006012024048 250.18111174065947 L 301.30260521042084 249.54650939433586 L 302.3046092184369 248.90557711826713 L 303.3066132264529 248.25934026737008 L 304.30861723446895 247.6088326827496 L 305.310621242485 246.9550950377736 L 306.312625250501 246.2991731732174 L 307.314629258517 245.64211642414176 L 308.3166332665331 244.98497594118058 L 309.31863727454913 244.32880300892413 L 310.32064128256513 243.67464736408786 L 311.32264529058114 243.02355551615778 L 312.32464929859725 242.37656907319843 L 313.32665330661325 241.73472307550207 L 314.32865731462925 241.09904433974523 L 315.3306613226453 240.47054981630083 L 316.33266533066137 239.85024496233473 L 317.3346693386774 239.23912213328865 L 318.3366733466934 238.63815899532312 L 319.33867735470943 238.04831696126024 L 320.3406813627255 237.4705396525283 L 321.3426853707415 236.90575138956865 L 322.3446893787575 236.3548557131203 L 323.34669338677355 235.8187339387474 L 324.34869739478955 235.29824374692245 L 325.3507014028056 234.79421781092034 L 326.3527054108216 234.3074624647189 L 327.3547094188377 233.83875641303644 L 328.35671342685373 233.38884948557035 L 329.35871743486973 232.95846143742955 L 330.36072144288573 232.5482807976799 L 331.36272545090185 232.15896376784437 L 332.36472945891785 231.7911331721209 L 333.36673346693385 231.4453774609963 L 334.36873747494985 231.12224976985107 L 335.37074148296597 230.82226703406076 L 336.37274549098197 230.54590916200982 L 337.37474949899797 230.29361826734026 L 338.37675350701403 230.06579796166443 L 339.3787575150301 229.86281270887227 L 340.3807615230461 229.68498724206708 L 341.38276553106215 229.53260604406165 L 342.38476953907815 229.40591289226654 L 343.3867735470942 229.30511046869822 L 344.3887775551102 229.23036003573097 L 345.39078156312627 229.18178117811166 L 346.3927855711423 229.1594516116496 L 347.3947895791583 229.16340705888763 L 348.39679358717433 229.19364119195401 L 349.39879759519044 229.25010564268547 L 350.40080160320645 229.3327100800059 L 351.40280561122245 229.44132235443698 L 352.40480961923845 229.5757687095089 L 353.40681362725456 229.73583405973403 L 354.40881763527057 229.92126233469736 L 355.41082164328657 230.13175688871496 L 356.4128256513026 230.36698097540344 L 357.4148296593186 230.62655828640257 L 358.4168336673347 230.91007355338834 L 359.4188376753507 231.21707321241357 L 360.42084168336675 231.54706612951358 L 361.42284569138275 231.89952438641575 L 362.4248496993988 232.27388412509615 L 363.4268537074148 232.66954644983198 L 364.42885771543087 233.0858783853072 L 365.4308617234469 233.52221388923775 L 366.4328657314629 233.97785491789728 L 367.4348697394789 234.45207254283815 L 368.43687374749504 234.94410811702159 L 369.43887775551104 235.45317448849076 L 370.44088176352705 235.97845725964643 L 371.44288577154305 236.51911609010907 L 372.44488977955916 237.07428604108435 L 373.44689378757516 237.6430789590806 L 374.4488977955912 238.22458489676515 L 375.4509018036072 238.8178735686856 L 376.4529058116233 239.42199583952842 L 377.4549098196393 240.03598524253275 L 378.45691382765534 240.65885952563127 L 379.45891783567134 241.28962222284375 L 380.4609218436874 241.9272642484102 L 381.4629258517034 242.5707655111127 L 382.46492985971946 243.21909654620399 L 383.4669338677355 243.87122016233104 L 384.4689378757515 244.52609310082042 L 385.4709418837675 245.18266770466926 L 386.4729458917835 245.83989359457325 L 387.47494989979964 246.49671934930922 L 388.47695390781564 247.1520941877849 L 389.47895791583164 247.80496965006463 L 390.4809619238477 248.45430127468146 L 391.48296593186376 249.09905026955266 L 392.48496993987976 249.7381851738255 L 393.48697394789576 250.37068350799473 L 394.4889779559118 250.99553340965144 L 395.4909819639279 251.61173525224717 L 396.4929859719439 252.2183032442831 L 397.4949899799599 252.81426700636635 L 398.496993987976 253.39867312360968 L 399.498997995992 253.97058667089217 L 400.501002004008 254.52909270853985 L 401.503006012024 255.07329774603411 L 402.5050100200401 255.6023311714059 L 403.5070140280561 256.11534664402893 L 404.5090180360721 256.61152344858465 L 405.5110220440881 257.090067808031 L 406.51302605210424 257.550214153477 L 407.5150300601203 257.9912263489292 L 408.5170340681363 258.41239886895255 L 409.5190380761523 258.8130579273602 L 410.52104208416836 259.1925625551282 L 411.5230460921844 259.55030562580873 L 412.5250501002004 259.88571482680317 L 413.5270541082164 260.19825357494005 L 414.5290581162325 260.4874218748938 L 415.53106212424854 260.75275711907045 L 416.53306613226454 260.993834827681 L 417.53507014028054 261.210269327819 L 418.5370741482966 261.4017143704544 L 419.53907815631266 261.5678636843584 L 420.54108216432866 261.70845146607206 L 421.5430861723447 261.8232528051351 L 422.5450901803608 261.91208404389465 L 423.5470941883768 261.97480307131843 L 424.54909819639283 262.01130955034176 L 425.55110220440883 262.021545078386 L 426.5531062124249 262.0054932807896 L 427.55511022044095 261.96317983700465 L 428.55711422845695 261.8946724395147 L 429.55911823647295 261.8000806855416 L 430.561122244489 261.67955590171334 L 431.56312625250507 261.5332909019733 L 432.565130260521 261.3615196791197 L 433.567134268537 261.16451703046636 L 434.5691382765531 260.9425981182262 L 435.57114228456913 260.69611796531876 L 436.5731462925852 260.42547088740884 L 437.5751503006012 260.13108986208624 L 438.57715430861725 259.81344583619364 L 439.57915831663325 259.4730469724118 L 440.5811623246493 259.1104378363084 L 441.5831663326653 258.7261985251487 L 442.5851703406814 258.3209437398637 L 443.5871743486974 257.8953218016603 L 444.58917835671343 257.45001361484515 L 445.59118236472943 256.985731577523 L 446.5931863727455 256.50321844191205 L 447.5951903807615 256.00324612609865 L 448.59719438877755 255.486614479133 L 449.59919839679355 254.95415000144146 L 450.6012024048096 254.40670452260187 L 451.6032064128256 253.84515383859832 L 452.6052104208417 253.27039631073404 L 453.60721442885773 252.6833514284453 L 454.60921843687373 252.0849583383141 L 455.6112224448898 251.47617434163433 L 456.61322645290585 250.8579733629337 L 457.61523046092185 250.23134439190227 L 458.6172344689379 249.5972899012199 L 459.6192384769539 248.9568242428141 L 460.62124248496997 248.31097202511276 L 461.62324649298597 247.66076647388985 L 462.62525050100203 247.00724777932416 L 463.62725450901803 246.35146143191716 L 464.6292585170341 245.694456549931 L 465.6312625250501 245.03728420102337 L 466.63326653306615 244.38099572076317 L 467.63527054108215 243.72664103071813 L 468.6372745490982 243.075266958804 L 469.6392785571142 242.42791556458357 L 470.64128256513027 241.78562247219327 L 471.64328657314627 241.1494152135657 L 472.6452905811623 240.52031158459772 L 473.6472945891784 239.89931801689403 L 474.64929859719444 239.28742796769137 L 475.65130260521045 238.68562033053897 L 476.6533066132265 238.0948578692774 L 477.6553106212425 237.51608567782216 L 478.65731462925856 236.95022966821466 L 479.65931863727457 236.39819508936085 L 480.6613226452906 235.86086507882575 L 481.6633266533066 235.33909925000196 L 482.6653306613227 234.83373231691147 L 483.6673346693387 234.34557275884137 L 484.66933867735474 233.87540152694942 L 485.67134268537075 233.4239707949088 L 486.6733466933868 232.99200275559068 L 487.6753507014028 232.5801884657097 L 488.67735470941886 232.18918674028066 L 489.67935871743487 231.81962309865497 L 490.6813627254509 231.47208876382322 L 491.683366733467 231.1471397165844 L 492.685370741483 230.84529580609535 L 493.68737474949904 230.56703991822295 L 494.689378757515 230.31281720302965 L 495.69138276553105 230.0830343626285 L 496.6933867735471 229.8780590005464 L 497.6953907815631 229.69821903363695 L 498.6973947895791 229.5438021674834 L 499.69939879759517 229.41505543613104 L 500.7014028056112 229.3121848068856 L 501.7034068136272 229.23535485080927 L 502.7054108216432 229.18468847944226 L 503.7074148296593 229.1602667481705 L 504.70941883767534 229.16212872655433 L 505.71142284569135 229.19027143582557 L 506.7134268537074 229.24464985365282 L 507.71543086172346 229.32517698616766 L 508.7174348697395 229.4317240071363 L 509.7194388777555 229.56412046405396 L 510.7214428857715 229.72215455083267 L 511.7234468937876 229.90557344664575 L 512.7254509018037 230.11408372038716 L 513.7274549098197 230.3473518000987 L 514.7294589178357 230.60500450661408 L 515.7314629258517 230.88662965056582 L 516.7334669338677 231.19177669180047 L 517.7354709418837 231.51995746014654 L 518.7374749498997 231.8706469363829 L 519.7394789579158 232.24328409215738 L 520.7414829659319 232.63727278751233 L 521.7434869739479 233.05198272458165 L 522.7454909819639 233.4867504559328 L 523.7474949899799 233.9408804459411 L 524.7494989979959 234.41364618349843 L 525.7515030060121 234.904291344276 L 526.7535070140281 235.41203100068196 L 527.7555110220442 235.9360528775781 L 528.7575150300602 236.47551865174674 L 529.7595190380762 237.02956529302907 L 530.7615230460922 237.5973064449894 L 531.7635270541082 238.17783384289626 L 532.7655310621243 238.7702187667522 L 533.7675350701403 239.37351352704775 L 534.7695390781563 239.98675298086246 L 535.7715430861724 240.60895607588773 L 536.7735470941884 241.23912741990105 L 537.7755511022044 241.87625887318137 L 538.7775551102204 242.51933116131755 L 539.7795591182364 243.1673155058301 L 540.7815631262525 243.81917526999703 L 541.7835671342685 244.47386761725164 L 542.7855711422847 245.13034517949862 L 543.7875751503007 245.78755773267946 L 544.7895791583167 246.44445387690692 L 545.7915831663327 247.0999827184806 L 546.7935871743487 247.75309555109266 L 547.7955911823648 248.4027475335343 L 548.7975951903809 249.04789936121858 L 549.7995991983969 249.68751892884626 L 550.8016032064129 250.32058298155403 L 551.8036072144289 250.94607875190403 L 552.8056112224449 251.56300558009573 L 553.8076152304609 252.170376514808 L 554.8096192384769 252.76721989211083 L 555.8116232464931 253.35258088992046 L 556.8136272545091 253.92552305551058 L 557.815631262525 254.48512980363745 L 558.8176352705411 255.0305058828806 L 559.8196392785571 255.56077880785372 L 560.8216432865731 256.07510025499585 L 561.8236472945891 256.5726474197076 L 562.8256513026053 257.0526243326632 L 563.8276553106213 257.51426313319143 L 564.8296593186373 257.9568252976892 L 565.8316633266533 258.3796028211015 L 566.8336673346694 258.78191934957874 L 567.8356713426854 259.1631312624981 L 568.8376753507014 259.5226287021199 L 569.8396793587174 259.8598365492294 L 570.8416833667335 260.17421534320516 L 571.8436873747495 260.4652621450406 L 572.8456913827655 260.73251134193947 L 573.8476953907816 260.9755353921969 L 574.8496993987976 261.1939455091748 L 575.8517034068136 261.3873922832777 L 576.8537074148296 261.5555662409335 L 577.8557114228456 261.6981983396851 L 578.8577154308617 261.8150603986012 L 579.8597194388778 261.90596546331653 L 580.8617234468938 261.97076810511976 L 581.8637274549098 262.0093646536078 L 582.8657314629259 262.02169336253655 L 583.8677354709419 262.00773450860174 L 584.8697394789579 261.9675104229919 L 585.8717434869739 261.90108545566335 L 586.8737474949901 261.80856587239384 L 587.8757515030061 261.69009968478025 L 588.8777555110221 261.54587641345125 L 589.8797595190381 261.37612678487505 L 590.8817635270541 261.1811223622459 L 591.8837675350701 260.9611751110415 L 592.8857715430861 260.716636899944 L 593.8877755511022 260.44789893792586 L 594.8897795591183 260.1553911483986 L 595.8917835671343 259.83958148142716 L 596.8937875751503 259.50097516510954 L 597.8957915831663 259.1401138973197 L 598.8977955911824 258.7575749791064 L 599.8997995991984 258.3539703911349 L 600.9018036072144 257.92994581464825 L 601.9038076152304 257.48617959851504 L 602.9058116232466 257.0233816740159 L 603.9078156312626 256.54229241910537 L 604.9098196392786 256.0436814739641 L 605.9118236472946 255.52834650973983 L 606.9138276553107 254.99711195244294 L 607.9158316633267 254.45082766404119 L 608.9178356713427 253.8903675828616 L 609.9198396793587 253.31662832547556 L 610.9218436873748 252.7305277523037 L 611.9238476953908 252.13300349923503 L 612.9258517034068 251.5250114776094 L 613.9278557114228 250.9075243449634 L 614.9298597194389 250.28152994898556 L 615.931863727455 249.64802974717128 L 616.933867735471 249.00803720470384 L 617.935871743487 248.3625761731268 L 618.937875751503 247.71267925239954 L 619.939879759519 247.0593861389582 L 620.941883767535 246.40374196242223 L 621.943887775551 245.7467956136109 L 622.945891783567 245.08959806654133 L 623.947895791583 244.43320069709404 L 624.9498997995993 243.77865360103618 L 625.9519038076153 243.12700391409226 L 626.9539078156313 242.47929413675016 L 627.9559118236473 241.8365604664829 L 628.9579158316633 241.1998311400537 L 629.9599198396794 240.57012478855648 L 630.9619238476954 239.94844880782352 L 631.9639278557114 239.3357977468068 L 632.9659318637275 238.73315171651203 L 633.9679358717435 238.14147482203006 L 634.9699398797595 237.56171362017443 L 635.9719438877755 236.99479560519225 L 636.9739478957915 236.44162772497145 L 637.9759519038076 235.9030949301175 L 638.9779559118236 235.3800587582214 L 639.9799599198396 234.87335595558298 L 640.9819639278558 234.38379713859564 L 641.9839679358718 233.91216549693297 L 642.9859719438878 233.45921554061223 L 643.9879759519038 233.02567189293936 L 644.9899799599198 232.61222813126622 L 645.9919839679359 232.21954567741486 L 646.993987975952 231.8482527395437 L 647.995991983968 231.49894330714838 L 648.997995991984 231.17217620080532 L 650 230.86847417817813" /><text  class="poloto_text" alignment-baseline="middle" text-anchor="start" font-size="large" x="675" y="200" >2*cos(x)</text><line  class="poloto2stroke poloto2legend" stroke="black" x1="680" x2="730" y1="181.25" y2="181.25" /><path  class="poloto2stroke" fill="none" stroke="black" d=" M 190.08016032064128 222.69330368089305 M 190.08016032064128 222.69330368089305 L 191.0821643286573 223.16935319945563 L 192.08416833667334 223.6543705881104 L 193.08617234468937 224.14816184636865 L 194.0881763527054 224.6505294643109 L 195.09018036072143 225.16127250158812 L 196.09218436873746 225.6801866677952 L 197.0941883767535 226.20706440418445 L 198.09619238476955 226.74169496668623 L 199.09819639278558 227.28386451020384 L 200.1002004008016 227.83335617414875 L 201.10220440881764 228.38995016918182 L 202.10420841683367 228.95342386512615 L 203.1062124248497 229.52355188001633 L 204.10821643286573 230.10010617024793 L 205.11022044088176 230.68285612179216 L 206.1122244488978 231.27156864243835 L 207.11422845691385 231.86600825502757 L 208.11623246492985 232.4659371916406 L 209.11823647294588 233.07111548870165 L 210.1202404809619 233.68130108296094 L 211.12224448897797 234.2962499083164 L 212.124248496994 234.91571599343715 L 213.12625250501003 235.5394515601485 L 214.12825651302606 236.1672071225402 L 215.1302605210421 236.7987315867572 L 216.13226452905812 237.4337723514341 L 217.13426853707415 238.07207540873205 L 218.1362725450902 238.71338544593877 L 219.1382765531062 239.35744594759004 L 220.14028056112227 240.00399929807259 L 221.14228456913827 240.65278688466677 L 222.14428857715433 241.30354920098839 L 223.14629258517033 241.9560259507876 L 224.1482965931864 242.60995615206406 L 225.1503006012024 243.2650782414562 L 226.15230460921845 243.92113017886314 L 227.15430861723448 244.57784955225713 L 228.1563126252505 245.23497368264495 L 229.15831663326654 245.89223972913604 L 230.16032064128257 246.54938479407517 L 231.16232464929863 247.2061460281982 L 232.16432865731463 247.8622607357682 L 233.16633266533069 248.51746647965018 L 234.1683366733467 249.1715011862826 L 235.17034068136275 249.8241032505031 L 236.17234468937875 250.4750116401873 L 237.17434869739478 251.1239660006579 L 238.1763527054108 251.77070675882342 L 239.17835671342687 252.41497522700362 L 240.18036072144287 253.0565137064014 L 241.18236472945893 253.69506559017873 L 242.18436873747493 254.33037546609597 L 243.18637274549098 254.96218921867347 L 244.18837675350701 255.59025413083427 L 245.19038076152304 256.2143189849876 L 246.19238476953907 256.83413416351254 L 247.1943887775551 257.44945174860175 L 248.19639278557116 258.0600256214253 L 249.19839679358716 258.66561156057503 L 250.20040080160322 259.26596733974964 L 251.20240480961922 259.860852824642 L 252.20440881763528 260.4500300689899 L 253.2064128256513 261.03326340975127 L 254.20841683366734 261.61031956136605 L 255.21042084168337 262.1809677090676 L 256.2124248496994 262.7449796012054 L 257.21442885771546 263.3021296405426 L 258.21643286573146 263.8521949744921 L 259.2184368737475 264.3949555842544 L 260.2204408817635 264.93019437282226 L 261.2224448897796 265.45769725181674 L 262.2244488977956 265.9772532271195 L 263.22645290581164 266.48865448326774 L 264.2284569138277 266.99169646657765 L 265.2304609218437 267.48617796696294 L 266.2324649298597 267.9719011984165 L 267.23446893787576 268.4486718781219 L 268.23647294589176 268.9162993041643 L 269.2384769539078 269.3745964318081 L 270.2404809619238 269.8233799483127 L 271.2424849699399 270.26247034625544 L 272.24448897795594 270.69169199533144 L 273.24649298597194 271.1108732126039 L 274.248496993988 271.5198463311751 L 275.250501002004 271.9184477672503 L 276.25250501002006 272.3065180855699 L 277.25450901803606 272.68390206318065 L 278.2565130260521 273.0504487515232 L 279.2585170340682 273.40601153680956 L 280.2605210420842 273.7504481986663 L 281.2625250501002 274.08362096702103 L 282.26452905811624 274.4053965772088 L 283.2665330661323 274.7156463232758 L 284.2685370741483 275.0142461094601 L 285.2705410821643 275.3010764998286 L 286.2725450901804 275.5760227660495 L 287.2745490981964 275.8389749332822 L 288.2765531062124 276.0898278241657 L 289.2785571142285 276.3284811008885 L 290.28056112224453 276.5548393053217 L 291.28256513026054 276.7688118972018 L 292.28456913827654 276.97031329034485 L 293.2865731462926 277.15926288688024 L 294.28857715430865 277.33558510948865 L 295.29058116232466 277.49920943163204 L 296.29258517034066 277.65007040576313 L 297.2945891783567 277.7881076895037 L 298.2965931863728 277.9132660697808 L 299.2985971943888 278.02549548491106 L 300.3006012024048 278.1247510446247 L 301.30260521042084 278.2109930480213 L 302.3046092184369 278.2841869994494 L 303.3066132264529 278.3443036223043 L 304.30861723446895 278.3913188707384 L 305.310621242485 278.4252139392792 L 306.312625250501 278.44597527035125 L 307.314629258517 278.4535945596989 L 308.3166332665331 278.4480687597079 L 309.31863727454913 278.42940008062476 L 310.32064128256513 278.3975959896721 L 311.32264529058114 278.35266920806225 L 312.32464929859725 278.2946377059088 L 313.32665330661325 278.223524695039 L 314.32865731462925 278.1393586197089 L 315.3306613226453 278.04217314522646 L 316.33266533066137 277.93200714448574 L 317.3346693386774 277.8089046824182 L 318.3366733466934 277.6729149983672 L 319.33867735470943 277.5240924863933 L 320.3406813627255 277.3624966735169 L 321.3426853707415 277.1881921959087 L 322.3446893787575 277.0012487730356 L 323.34669338677355 276.80174117977435 L 324.34869739478955 276.58974921650207 L 325.3507014028056 276.36535767717754 L 326.3527054108216 276.1286563154247 L 327.3547094188377 275.8797398086323 L 328.35671342685373 275.6187077200841 L 329.35871743486973 275.3456644591352 L 330.36072144288573 275.0607192394495 L 331.36272545090185 274.76398603531555 L 332.36472945891785 274.4555835360587 L 333.36673346693385 274.1356350985667 L 334.36873747494985 273.80426869794854 L 335.37074148296597 273.46161687634634 L 336.37274549098197 273.1078166899201 L 337.37474949899797 272.74300965402716 L 338.37675350701403 272.3673416866178 L 339.3787575150301 271.9809630498702 L 340.3807615230461 271.5840282900873 L 341.38276553106215 271.17669617588075 L 342.38476953907815 270.75912963466516 L 343.3867735470942 270.3314956874895 L 344.3887775551102 269.89396538223104 L 345.39078156312627 269.44671372517803 L 346.3927855711423 268.98991961103025 L 347.3947895791583 268.5237657513426 L 348.39679358717433 268.0484386014439 L 349.39879759519044 267.5641282858563 L 350.40080160320645 267.0710285222488 L 351.40280561122245 266.5693365439522 L 352.40480961923845 266.0592530210687 L 353.40681362725456 265.5409819802063 L 354.40881763527057 265.0147307228714 L 355.41082164328657 264.4807097425502 L 356.4128256513026 263.9391326405146 L 357.4148296593186 263.3902160403846 L 358.4168336673347 262.83417950148134 L 359.4188376753507 262.2712454310068 L 360.42084168336675 261.70163899508333 L 361.42284569138275 261.1255880286908 L 362.4248496993988 260.543322944535 L 363.4268537074148 259.9550766408864 L 364.42885771543087 259.36108440842304 L 365.4308617234469 258.76158383611835 L 366.4328657314629 258.1568147162078 L 367.4348697394789 257.547018948276 L 368.43687374749504 256.93244044249957 L 369.43887775551104 256.31332502208664 L 370.44088176352705 255.6899203249505 L 371.44288577154305 255.06247570465808 L 372.44488977955916 254.43124213069171 L 373.44689378757516 253.79647208806466 L 374.4488977955912 253.1584194763304 L 375.4509018036072 252.51733950802648 L 376.4529058116233 251.87348860659253 L 377.4549098196393 251.2271243038046 L 378.45691382765534 250.57850513676567 L 379.45891783567134 249.92789054449452 L 380.4609218436874 249.2755407641532 L 381.4629258517034 248.62171672695604 L 382.46492985971946 247.9666799538003 L 383.4669338677355 247.31069245066166 L 384.4689378757515 246.6540166037949 L 385.4709418837675 245.99691507478326 L 386.4729458917835 245.33965069547702 L 387.47494989979964 244.68248636286458 L 388.47695390781564 244.0256849339169 L 389.47895791583164 243.36950912044827 L 390.4809619238477 242.71422138403523 L 391.48296593186376 242.06008383103526 L 392.48496993987976 241.40735810774788 L 393.48697394789576 240.75630529575952 L 394.4889779559118 240.10718580751433 L 395.4909819639279 239.4602592821528 L 396.4929859719439 238.8157844816596 L 397.4949899799599 238.17401918736195 L 398.496993987976 237.5352200968208 L 399.498997995992 236.8996427211552 L 400.501002004008 236.2675412828412 L 401.503006012024 235.63916861402618 L 402.5050100200401 235.01477605539944 L 403.5070140280561 234.39461335565935 L 404.5090180360721 233.7789285716171 L 405.5110220440881 233.16796796897722 L 406.51302605210424 232.56197592383478 L 407.5150300601203 231.96119482492804 L 408.5170340681363 231.36586497668628 L 409.5190380761523 230.77622450311117 L 410.52104208416836 230.1925092525303 L 411.5230460921844 229.6149527032612 L 412.5250501002004 229.0437858702229 L 413.5270541082164 228.4792372125332 L 414.5290581162325 227.92153254212792 L 415.53106212424854 227.37089493343927 L 416.53306613226454 226.827544634169 L 417.53507014028054 226.29169897719225 L 418.5370741482966 225.76357229362725 L 419.53907815631266 225.24337582710584 L 420.54108216432866 224.73131764927882 L 421.5430861723447 224.22760257658996 L 422.5450901803608 223.7324320883522 L 423.5470941883768 223.2460042461586 L 424.54909819639283 222.76851361466052 M 504.70941883767534 222.61832605869813 L 505.71142284569135 223.09292963424434 L 506.7134268537074 223.5765316482898 L 507.71543086172346 224.0689386664769 L 508.7174348697395 224.56995373256365 L 509.7194388777555 225.0793764472037 L 510.7214428857715 225.59700304810346 L 511.7234468937876 226.1226264915242 L 512.7254509018037 226.65603653509666 L 513.7274549098197 227.19701982191552 L 514.7294589178357 227.74535996587903 L 515.7314629258517 228.3008376382408 L 516.7334669338677 228.86323065533804 L 517.7354709418837 229.43231406746244 L 518.7374749498997 230.00786024883683 L 519.7394789579158 230.58963898866253 L 520.7414829659319 231.1774175832005 L 521.7434869739479 231.7709609288499 L 522.7454909819639 232.37003161618622 L 523.7474949899799 232.97439002492214 L 524.7494989979959 233.5837944197521 L 525.7515030060121 234.19800104704345 L 526.7535070140281 234.81676423233458 L 527.7555110220442 235.43983647860148 L 528.7575150300602 236.06696856525315 L 529.7595190380762 236.69790964781652 L 530.7615230460922 237.33240735827107 L 531.7635270541082 237.97020790599248 L 532.7655310621243 238.61105617926552 L 533.7675350701403 239.25469584732537 L 534.7695390781563 239.90086946288662 L 535.7715430861724 240.5493185651186 L 536.7735470941884 241.19978378302622 L 537.7755511022044 241.8520049391951 L 538.7775551102204 242.50572115385893 L 539.7795591182364 243.160670949248 L 540.7815631262525 243.81659235417663 L 541.7835671342685 244.47322300882837 L 542.7855711422847 245.1303002696963 L 543.7875751503007 245.78756131463706 L 544.7895791583167 246.444743247996 L 545.7915831663327 247.101583205762 L 546.7935871743487 247.75781846070984 L 547.7955911823648 248.41318652748714 L 548.7975951903809 249.06742526760536 L 549.7995991983969 249.72027299429146 L 550.8016032064129 250.37146857715933 L 551.8036072144289 251.02075154665832 L 552.8056112224449 251.66786219825767 L 553.8076152304609 252.31254169632462 L 554.8096192384769 252.95453217765566 L 555.8116232464931 253.59357685461805 L 556.8136272545091 254.2294201178614 L 557.815631262525 254.86180763855816 L 558.8176352705411 255.490486470132 L 559.8196392785571 256.1152051494323 L 560.8216432865731 256.735713797317 L 561.8236472945891 257.35176421860024 L 562.8256513026053 257.9631100013273 L 563.8276553106213 258.5695066153364 L 564.8296593186373 259.17071151006706 L 565.8316633266533 259.76648421157734 L 566.8336673346694 260.35658641873016 L 567.8356713426854 260.94078209851057 L 568.8376753507014 261.51883758043584 L 569.8396793587174 262.0905216500205 L 570.8416833667335 262.65560564125917 L 571.8436873747495 263.2138635280895 L 572.8456913827655 263.7650720148003 L 573.8476953907816 264.3090106253461 L 574.8496993987976 264.84546179153523 L 575.8517034068136 265.3742109400537 L 576.8537074148296 265.89504657829195 L 577.8557114228456 266.40776037893914 L 578.8577154308617 266.91214726331117 L 579.8597194388778 267.4080054833792 L 580.8617234468938 267.89513670246674 L 581.8637274549098 268.373346074581 L 582.8657314629259 268.84244232234926 L 583.8677354709419 269.30223781352686 L 584.8697394789579 269.752548636048 L 585.8717434869739 270.19319467158755 L 586.8737474949901 270.6239996676067 L 587.8757515030061 271.04479130785086 L 588.8777555110221 271.4554012812745 L 589.8797595190381 271.85566534936294 L 590.8817635270541 272.2454234118258 L 591.8837675350701 272.6245195706347 L 592.8857715430861 272.9928021923807 L 593.8877755511022 273.35012396892546 L 594.8897795591183 273.6963419763227 L 595.8917835671343 274.0313177319855 L 596.8937875751503 274.35491725007785 L 597.8957915831663 274.6670110951073 L 598.8977955911824 274.9674744336969 L 599.8997995991984 275.2561870845173 L 600.9018036072144 275.53303356635774 L 601.9038076152304 275.7979031443167 L 602.9058116232466 276.0506898740945 L 603.9078156312626 276.29129264436966 L 604.9098196392786 276.51961521724206 L 605.9118236472946 276.7355662667269 L 606.9138276553107 276.9390594152836 L 607.9158316633267 277.13001326836604 L 608.9178356713427 277.30835144697886 L 609.9198396793587 277.47400261822855 L 610.9218436873748 277.6269005238553 L 611.9238476953908 277.76698400673524 L 612.9258517034068 277.8941970353432 L 613.9278557114228 278.0084887261638 L 614.9298597194389 278.10981336404467 L 615.931863727455 278.1981304204815 L 616.933867735471 278.2734045698293 L 617.935871743487 278.33560570343207 L 618.937875751503 278.38470894166556 L 619.939879759519 278.42069464388925 L 620.941883767535 278.44354841630206 L 621.943887775551 278.45326111769975 L 622.945891783567 278.44982886313124 L 623.947895791583 278.4332530254526 L 624.9498997995993 278.40354023477784 L 625.9519038076153 278.36070237582715 L 626.9539078156313 278.3047565831729 L 627.9559118236473 278.2357252343862 L 628.9579158316633 278.15363594108624 L 629.9599198396794 278.0585215378958 L 630.9619238476954 277.9504200693079 L 631.9639278557114 277.82937477446865 L 632.9659318637275 277.6954340698822 L 633.9679358717435 277.5486515300444 L 634.9699398797595 277.3890858660142 L 635.9719438877755 277.2168009019297 L 636.9739478957915 277.03186554947933 L 637.9759519038076 276.83435378033835 L 638.9779559118236 276.624344596581 L 639.9799599198396 276.4019219990807 L 640.9819639278558 276.1671749539108 L 641.9839679358718 275.92019735675945 L 642.9859719438878 275.66108799537255 L 643.9879759519038 275.3899505100399 L 644.9899799599198 275.10689335214056 L 645.9919839679359 274.81202974076353 L 646.993987975952 274.50547761742206 L 647.995991983968 274.18735959887806 L 648.997995991984 273.8578029280974 L 650 273.5169394233545" /><text  class="poloto_text" alignment-baseline="start" text-anchor="middle" font-size="x-large" x="400" y="37.5" >Some Trigonometry Plots </text><text  class="poloto_text" alignment-baseline="start" text-anchor="middle" font-size="x-large" x="400" y="481.25" >This is the x label</text><text  class="poloto_text" alignment-baseline="start" text-anchor="middle" font-size="x-large" transform="rotate(-90,37.5,250)" x="37.5" y="250" >This is the y label</text><line  class="poloto_axis_lines" stroke="black" x1="150" x2="150" y1="400" y2="405" /><text  class="poloto_text" alignment-baseline="start" text-anchor="middle" x="150" y="430" > 0</text><line  class="poloto_axis_lines" stroke="black" x1="200.1002004008016" x2="200.1002004008016" y1="400" y2="405" /><text  class="poloto_text" alignment-baseline="start" text-anchor="middle" x="200.1002004008016" y="430" > 1</text><line  class="poloto_axis_lines" stroke="black" x1="250.20040080160322" x2="250.20040080160322" y1="400" y2="405" /><text  class="poloto_text" alignment-baseline="start" text-anchor="middle" x="250.20040080160322" y="430" > 2</text><line  class="poloto_axis_lines" stroke="black" x1="300.3006012024048" x2="300.3006012024048" y1="400" y2="405" /><text  class="poloto_text" alignment-baseline="start" text-anchor="middle" x="300.3006012024048" y="430" > 3</text><line  class="poloto_axis_lines" stroke="black" x1="350.40080160320645" x2="350.40080160320645" y1="400" y2="405" /><text  class="poloto_text" alignment-baseline="start" text-anchor="middle" x="350.40080160320645" y="430" > 4</text><line  class="poloto_axis_lines" stroke="black" x1="400.501002004008" x2="400.501002004008" y1="400" y2="405" /><text  class="poloto_text" alignment-baseline="start" text-anchor="middle" x="400.501002004008" y="430" > 5</text><line  class="poloto_axis_lines" stroke="black" x1="450.6012024048096" x2="450.6012024048096" y1="400" y2="405" /><text  class="poloto_text" alignment-baseline="start" text-anchor="middle" x="450.6012024048096" y="430" > 6</text><line  class="poloto_axis_lines" stroke="black" x1="500.7014028056112" x2="500.7014028056112" y1="400" y2="405" /><text  class="poloto_text" alignment-baseline="start" text-anchor="middle" x="500.7014028056112" y="430" > 7</text><line  class="poloto_axis_lines" stroke="black" x1="550.8016032064129" x2="550.8016032064129" y1="400" y2="405" /><text  class="poloto_text" alignment-baseline="start" text-anchor="middle" x="550.8016032064129" y="430" > 8</text><line  class="poloto_axis_lines" stroke="black" x1="600.9018036072144" x2="600.9018036072144" y1="400" y2="405" /><text  class="poloto_text" alignment-baseline="start" text-anchor="middle" x="600.9018036072144" y="430" > 9</text><line  class="poloto_axis_lines" stroke="black" x1="150" x2="144" y1="327.7494269491274" y2="327.7494269491274" /><text  class="poloto_text" alignment-baseline="middle" text-anchor="end" x="135" y="327.7494269491274" > -5</text><line  class="poloto_axis_lines" stroke="black" x1="150" x2="144" y1="245.58977576729512" y2="245.58977576729512" /><text  class="poloto_text" alignment-baseline="middle" text-anchor="end" x="135" y="245.58977576729512" > 0</text><line  class="poloto_axis_lines" stroke="black" x1="150" x2="144" y1="163.43012458546292" y2="163.43012458546292" /><text  class="poloto_text" alignment-baseline="middle" text-anchor="end" x="135" y="163.43012458546292" > 5</text><path  stroke="black" fill="none" class="poloto_axis_lines" style="stroke-dasharray:8.3500334001336;stroke-dashoffset:-0;" d=" M 150 400 L 650 400" /><path  stroke="black" fill="none" class="poloto_axis_lines" style="stroke-dasharray:8.215965118183224;stroke-dashoffset:-72.25057305087262;" d=" M 150 400 L 150 100" /></svg>