<svg class="poloto" width="800" height="500" viewBox="0 0 800 500" xmlns="http://www.w3.org/2000/svg" ><style>.poloto {stroke-linecap:round;font-family: sans-serif;stroke-width:2;}.scatter{stroke-width:7}.poloto_text{fill: white;}.poloto_axis_lines{stroke: white;stoke-width:3;fill:none}.poloto_background{fill: black;}.poloto0stroke{stroke:  blue;}.poloto1stroke{stroke:  red;}.poloto2stroke{stroke:  green;}.poloto3stroke{stroke:  gold;}.poloto4stroke{stroke:  aqua;}.poloto5stroke{stroke:  brown;}.poloto6stroke{stroke:  lime;}.poloto7stroke{stroke:  chocolate;}.poloto0fill{fill:blue;}.poloto1fill{fill:red;}.poloto2fill{fill:green;}.poloto3fill{fill:gold;}.poloto4fill{fill:aqua;}.poloto5fill{fill:brown;}.poloto6fill{fill:lime;}.poloto7fill{fill:chocolate;}</style><rect class="poloto_background" fill="white" x="0" y="0" width="800" height="500" /><line class="poloto0stroke" stroke="black" x1="680" x2="730" y1="81.25" y2="81.25" /><polyline class="poloto0stroke" fill="none" stroke="black" points="150,246.66841098825938 151.00200400801603,246.3420245746892 152.00400801603206,246.01537687780205 153.0060120240481,245.68820577694635 154.00801603206412,245.3602474710923 155.01002004008015,245.03123562430443 156.01202404809618,244.70090049381892 157.01402805611224,244.36896803461013 158.01603206412827,244.0351589740503 159.0180360721443,243.6991878499072 160.02004008016033,243.36076200448042 161.02204408817636,243.0195805271357 162.0240480961924,242.67533313685422 163.02605210420842,242.32769899565287 164.02805611222445,241.9763454428365 165.03006012024048,241.62092663900285 166.0320641282565,241.26108210750374 167.03406813627254,240.89643515965676 168.03607214428857,240.52659118836112 169.0380761523046,240.15113581286914 170.04008016032066,239.76963285525432 171.0420841683367,239.38162212654748 172.04408817635272,238.9866169975217 173.04609218436875,238.58410172561958 174.04809619238478,238.17352850544395 175.0501002004008,237.75431420546633 176.05210420841684,237.32583674801404 177.05410821643287,236.8874310830214 178.0561122244489,236.43838469827327 179.05811623246493,235.97793259969774 180.06012024048096,235.50525168438585 181.06212424849699,235.0194544160721 182.06412825651302,234.51958169735485 183.06613226452907,234.0045948144254 184.0681362725451,233.47336630781408 185.07014028056113,232.92466959579968 186.07214428857716,232.357167144577 187.0741482965932,231.76939693966918 188.07615230460922,231.15975696466802 189.07815631262525,230.52648733395907 190.08016032064128,229.8676496527825 191.0821643286573,229.1811030870971 192.08416833667334,228.46447651244202 193.08617234468937,227.71513596903125 194.0881763527054,226.93014647136428 195.09018036072143,226.10622699366016 196.09218436873746,225.23969716267007 197.0941883767535,224.32641381698167 198.09619238476955,223.3616951097335 199.09819639278558,222.3402292025424 200.1002004008016,221.25596377094402 201.10220440881764,220.10197144371082 202.10420841683367,218.87028482815222 203.1062124248497,217.55169278513256 204.10821643286573,216.1354868999369 205.11022044088176,214.6091433384822 206.1122244488978,212.9579200217396 207.11422845691385,211.1643415982156 208.11623246492985,209.20753397560966 209.11823647294588,207.062354517006 210.1202404809619,204.69824075123879 211.12224448897797,202.0776652584172 212.124248496994,199.15403005533526 213.12625250501003,195.86874799998148 214.12825651302606,192.14711981610512 215.1302605210421,187.89238408070554 216.13226452905812,182.97692028208448 217.13426853707415,177.22887801377414 218.1362725450902,170.41119458046876 219.1382765531062,162.18741588552885 220.14028056112227,152.06350338483185 221.14228456913827,139.28333246077102 222.14428857715433,122.62831506588492 223.14629258517033,100 234.1683366733467,395.49335022134875 235.17034068136275,372.2549818812616 236.17234468937875,355.21722633677734 237.17434869739478,342.1812746415727 238.1763527054108,331.8780211436791 239.17835671342687,323.5236623858856 240.18036072144287,316.6079630026322 241.18236472945893,310.78447874413905 242.18436873747493,305.80971358510254 243.18637274549098,301.50752251938036 244.18837675350701,297.74732939998574 245.19038076152304,294.4302847186382 246.19238476953907,291.48018010636713 247.1943887775551,288.83731583257145 248.19639278557116,286.45425908272824 249.19839679358716,284.29284612641595 250.20040080160322,282.32202263653045 251.20240480961922,280.5162609390967 252.20440881763528,278.8543820501542 253.2064128256513,277.31866665780484 254.20841683366734,275.8941756068965 255.21042084168337,274.5682244625364 256.2124248496994,273.32997287528156 257.21442885771546,272.1701005114294 258.21643286573146,271.08054897954025 259.2184368737475,270.054314586474 260.2204408817635,269.08528061294544 261.2224448897796,268.1680805860003 262.2244488977956,267.29798606346424 263.22645290581164,266.4708139508932 264.2284569138277,265.68284949492715 265.2304609218437,264.93078194302666 266.2324649298597,264.21165050236846 267.23446893787576,263.5227987230552 268.23647294589176,262.86183581087187 269.2384769539078,262.22660367034746 270.2404809619238,261.6151487102585 271.2424849699399,261.0256976260406 272.24448897795594,260.45663651814584 273.24649298597194,259.90649282068375 274.248496993988,259.3739196071611 275.250501002004,258.85768191469043 276.25250501002006,258.3566447884558 277.25450901803606,257.8697627974158 278.2565130260521,257.3960708124635 279.2585170340682,256.93467587132227 280.2605210420842,256.48474998172804 281.2625250501002,256.0455237370412 282.26452905811624,255.61628063721426 283.2665330661323,255.19635202371543 284.2685370741483,254.78511255013768 285.2705410821643,254.38197612124952 286.2725450901804,253.98639224254146 287.2745490981964,253.59784273018107 288.2765531062124,253.2158387379531 289.2785571142285,252.83991806342564 290.28056112224453,252.4696427004101 291.28256513026054,252.10459660890808 292.28456913827654,251.74438367726637 293.2865731462926,251.38862585429095 294.28857715430865,251.03696143166866 295.29058116232466,250.68904345928547 296.29258517034066,250.34453827795303 297.2945891783567,250.003124155715 298.2965931863728,249.66449001533437 299.2985971943888,249.32833424178924 300.3006012024048,248.9943635596636 301.30260521042084,248.6622919712214 302.3046092184369,248.33183974672488 303.3066132264529,248.00273245920977 304.30861723446895,247.67470005647843 305.310621242485,247.34747596352338 306.312625250501,247.02079620895978 307.314629258517,246.69439856933153 308.3166332665331,246.36802172536616 309.31863727454913,246.0414044243954 310.32064128256513,245.71428464322904 311.32264529058114,245.38639874577666 312.32464929859725,245.05748062964884 313.32665330661325,244.72726085584063 314.32865731462925,244.3954657554006 315.3306613226453,244.0618165067143 316.33266533066137,243.72602817667908 317.3346693386774,243.3878087186086 318.3366733466934,243.0468579191747 319.33867735470943,242.70286628605777 320.3406813627255,242.35551386722693 321.3426853707415,242.00446899188805 322.3446893787575,241.64938692210853 323.34669338677355,241.28990840292687 324.34869739478955,240.92565809736064 325.3507014028056,240.55624289110688 326.3527054108216,240.1812500498483 327.3547094188377,239.80024520989463 328.35671342685373,239.41277018034984 329.35871743486973,239.01834053204138 330.36072144288573,238.6164429450026 331.36272545090185,238.20653228227744 332.36472945891785,237.78802835311052 333.36673346693385,237.36031232306146 334.36873747494985,236.92272272209436 335.37074148296597,236.47455099403518 336.37274549098197,236.01503652174412 337.37474949899797,235.5433610516166 338.37675350701403,235.0586424282633 339.3787575150301,234.55992753498305 340.3807615230461,234.04618431739874 341.38276553106215,233.51629274569277 342.38476953907815,232.9690345444212 343.3867735470942,232.40308148683073 344.3887775551102,231.81698201161677 345.39078156312627,231.20914587243087 346.3927855711423,230.57782647199312 347.3947895791583,229.92110046058696 348.39679358717433,229.23684408939025 349.39879759519044,228.52270569781342 350.40080160320645,227.7760735746173 351.40280561122245,226.9940382569356 352.40480961923845,226.1733481086651 353.40681362725456,225.3103567355769 354.40881763527057,224.40096042953502 355.41082164328657,223.44052336195185 356.4128256513026,222.4237876308648 357.4148296593186,221.34476445662997 358.4168336673347,220.19660174809522 359.4188376753507,218.9714218251583 360.42084168336675,217.66012114320455 361.42284569138275,216.25212121516927 362.4248496993988,214.73505626754465 363.4268537074148,213.094378051193 364.42885771543087,211.31285098283473 365.4308617234469,209.36990038579503 366.4328657314629,207.24076141717478 367.4348697394789,204.89535374903227 368.43687374749504,202.29677304858544 369.43887775551104,199.39923785549055 370.44088176352705,196.14524778710378 371.44288577154305,192.46157544408857 372.44488977955916,188.25349257205247 373.44689378757516,183.39625102194535 374.4488977955912,177.7221646948404 375.4509018036072,171.00039278091458 376.4529058116233,162.90411307956597 377.4549098196393,152.954844672506 378.45691382765534,140.4229270235644 379.45891783567134,124.13779137219188 380.4609218436874,102.09565505067587 391.48296593186376,397.7134544841156 392.48496993987976,373.8398408415101 393.48697394789576,356.4058869030439 394.4889779559118,343.10631911430255 395.4909819639279,332.61885760785475 396.4929859719439,324.1307375713316 397.4949899799599,317.1148557619797 398.496993987976,311.21440337429357 399.498997995992,306.17923091073703 400.501002004008,301.8287635430919 401.503006012024,298.02938329871085 402.5050100200401,294.680095875669 403.5070140280561,291.7031454604222 404.5090180360721,289.03769316373337 405.5110220440881,286.6354525360898 406.51302605210424,284.4576099747005 407.5150300601203,282.4726093479312 408.5170340681363,280.65453053434874 409.5190380761523,278.9818840616276 410.52104208416836,277.4367023769826 411.5230460921844,276.00384593743297 412.5250501002004,274.67046711788913 413.5270541082164,273.4255915897828 414.5290581162325,272.25978819616523 415.53106212424854,271.16490623850416 416.53306613226454,270.13386464256905 417.53507014028054,269.1604814305837 418.5370741482966,268.23933478601145 419.53907815631266,267.36564908563423 420.54108216432866,266.53520081521526 421.5430861723447,265.74424043451137 422.5450901803608,264.98942712250687 423.5470941883768,264.267773990562 424.54909819639283,263.5766018539638 425.55110220440883,262.913500040256 426.5531062124249,262.2762930141559 427.55511022044095,261.66301183473826 428.55711422845695,261.07186964634553 429.55911823647295,260.501240551919 430.561122244489,259.9496413348189 431.56312625250507,259.4157155892966 432.565130260521,258.8982198956143 433.567134268537,258.3960117372342 434.5691382765531,257.90803890749464 435.57114228456913,257.4333301940736 436.5731462925852,256.97098716311166 437.5751503006012,256.5201768925597 438.57715430861725,256.08012552724557 439.57915831663325,255.6501125472107 440.5811623246493,255.22946565677 441.5831663326653,254.81755621506048 442.5851703406814,254.41379514002503 443.5871743486974,254.0176292272011 444.58917835671343,253.62853783264768 445.59118236472943,253.2460298760961 446.5931863727455,252.86964112614584 447.5951903807615,252.49893173421805 448.59719438877755,252.1334839881523 449.59919839679355,251.77290025990868 450.6012024048096,251.4168011248985 451.6032064128256,251.06482363310295 452.6052104208417,250.71661971439895 453.60721442885773,250.37185470246357 454.60921843687373,250.03020596330387 455.6112224448898,249.69136161590762 456.61322645290585,249.35501933375141 457.61523046092185,249.02088521697402 458.6172344689379,248.68867272593678 459.6192384769539,248.35810166767487 460.62124248496997,248.02889722740417 461.62324649298597,247.70078903780475 462.62525050100203,247.37351027926073 463.62725450901803,247.04679680460904 464.6292585170341,246.72038628224158 465.6312625250501,246.39401735162204 466.63326653306615,246.06742878542522 467.63527054108215,245.74035865258364 468.6372745490982,245.41254347653754 469.6392785571142,245.08371738292766 470.64128256513027,244.75361123084645 471.64328657314627,244.4219517215689 472.6452905811623,244.08846047841737 473.6472945891784,243.75285309106815 474.64929859719444,243.41483811717552 475.65130260521045,243.07411603366842 476.6533066132265,242.73037812944423 477.6553106212425,242.38330533044598 478.65731462925856,242.03256694723632 479.65931863727457,241.6778193341653 480.6613226452906,241.31870444804179 481.6633266533066,240.95484829284183 482.6653306613227,240.58585923538516 483.6673346693387,240.21132617505424 484.66933867735474,239.83081654847064 485.67134268537075,239.44387414753695 486.6733466933868,239.05001672633122 487.6753507014028,238.64873336894075 488.67735470941886,238.23948158634715 489.67935871743487,237.82168410582887 490.6813627254509,237.39472531089348 491.683366733467,236.9579472833465 492.685370741483,236.51064539154783 493.68737474949904,236.05206335998022 494.689378757515,235.58138774466738 495.69138276553105,235.0977417263932 496.6933867735471,234.60017811865168 497.6953907815631,234.08767146927482 498.6973947895791,233.5591091130764 499.69939879759517,233.01328100678617 500.7014028056112,232.4488681459861 501.7034068136272,231.86442932538276 502.7054108216432,231.25838595688103 503.7074148296593,230.62900460242815 504.70941883767534,229.97437680772293 505.71142284569135,229.292395735091 506.7134268537074,228.58072898449814 507.71543086172346,227.83678685478014 508.7174348697395,227.0576851247638 509.7194388777555,226.24020121550504 510.7214428857715,225.3807223162936 511.7234468937876,224.47518369940113 512.7254509018037,223.51899498601725 513.7274549098197,222.5069515231165 514.7294589178357,221.43312723929245 515.7314629258517,220.29074429864164 516.7334669338677,219.07201346923415 517.7354709418837,217.76793722897827 518.7374749498997,216.36806504790837 519.7394789579158,214.86018672092413 520.7414829659319,213.22994464651384 521.7434869739479,211.4603389035957 522.7454909819639,209.53108887272973 523.7474949899799,207.4178004249531 524.7494989979959,205.0908658922072 525.7515030060121,202.5139911339967 526.7535070140281,199.64219338444175 527.7555110220442,196.41903390786248 528.7575150300602,192.77272106297357 529.7595190380762,188.61050657324682 530.7615230460922,183.8104341826414 531.7635270541082,178.20885652915837 532.7655310621243,171.58095154270433 533.7675350701403,163.6091859990122 534.7695390781563,153.83002751509906 535.7715430861724,141.53912848338194 536.7735470941884,125.61158846988275 537.7755511022044,104.13298866637308 548.7975951903809,400 549.7995991983969,375.46453914865924 550.8016032064129,357.6202867965368 551.8036072144289,344.0489438459138 552.8056112224449,333.37222943188 553.8076152304609,324.74706264815995 554.8096192384769,317.6287675855875 555.8116232464931,311.6497794776446 556.8136272545091,306.55306609353954 557.815631262525,302.1534824109273 558.8176352705411,298.31427940326444 559.8196392785571,294.9322594062743 560.8216432865731,291.92807963322895 561.8236472945891,289.23973470045314 562.8256513026053,286.81806520884345 563.8276553106213,284.62359377282854 564.8296593186373,282.62425226506093 565.8316633266533,280.7937205343609 566.8336673346694,279.11019289954777 567.8356713426854,277.5554491959963 568.8376753507014,276.11414611417166 569.8396793587174,274.77327019913474 570.8416833667335,273.52171106066226 571.8436873747495,272.34992506064725 572.8456913827655,271.24966786249047 573.8476953907816,270.21377993401455 574.8496993987976,269.236013161355 575.8517034068136,268.3108896643238 576.8537074148296,267.43358604408184 577.8557114228456,266.59983787271494 578.8577154308617,265.80586041054835 579.8597194388778,265.04828242166184 580.8617234468938,264.32409062924063 581.8637274549098,263.63058286586363 582.8657314629259,262.96532836970323 583.8677354709419,262.32613398508147 584.8697394789579,261.71101526629025 585.8717434869739,261.1181716728854 586.8737474949901,260.5459651946187 587.8757515030061,259.9929018636569 588.8777555110221,259.4576157074854 589.8797595190381,258.9388547730264 590.8817635270541,258.43546891495464 591.8837675350701,257.94639909200885 592.8857715430861,257.47066795663017 593.8877755511022,257.0073715573625 594.8897795591183,256.55567200155883 595.8917835671343,256.1147909492166 596.8937875751503,255.68400382809716 597.8957915831663,255.26263467642104 598.8977955911824,254.8500515329256 599.8997995991984,254.44566230541093 600.9018036072144,254.04891105844953 601.9038076152304,253.65927466900783 602.9058116232466,253.27625980556533 603.9078156312626,252.89940019213032 604.9098196392786,252.52825412350157 605.9118236472946,252.1624022023544 606.9138276553107,251.80144527234606 607.9158316633267,251.44500252453938 608.9178356713427,251.09270975710544 609.9198396793587,250.74421777055906 610.9218436873748,250.39919088275224 611.9238476953908,250.0573055495486 612.9258517034068,249.71824907856592 613.9278557114228,249.3817184246321 614.9298597194389,249.04741905668254 615.931863727455,248.71506388675283 616.933867735471,248.3843722525133 617.935871743487,248.05506894546156 618.937875751503,247.72688327745297 619.939879759519,247.39954817871632 620.941883767535,247.07279932087948 621.943887775551,246.74637425883017 622.945891783567,246.4200115854581 623.947895791583,246.09345009347666 624.9498997995993,245.76642793860626 625.9519038076153,245.43868179841616 626.9539078156313,245.10994602107152 627.9559118236473,244.77995175811336 628.9579158316633,244.44842607521187 629.9599198396794,244.11509103456962 630.9619238476954,243.7796627423145 631.9639278557114,243.44185035379584 632.9659318637275,243.10135502918246 633.9679358717435,242.75786883114327 634.9699398797595,242.41107355565882 635.9719438877755,242.0606394861523 636.9739478957915,241.7062240601233 637.9759519038076,241.3474704362964 638.9779559118236,240.98400594893403 639.9799599198396,240.6154404343822 640.9819639278558,240.24136441308121 641.9839679358718,239.86134710814096 642.9859719438878,239.47493427910152 643.9879759519038,239.08164584661685 644.9899799599198,238.6809732804375 645.9919839679359,238.27237671914517 646.993987975952,237.8552817855019 647.995991983968,237.4290760558937 648.997995991984,236.99310513602504 650,236.5466682875637 "/><text class="poloto_text" alignment-baseline="middle" text-anchor="start" font-size="large" x="675" y="100" >tan(x)</text><line class="poloto1stroke" stroke="black" x1="680" x2="730" y1="131.25" y2="131.25" /><polyline class="poloto1stroke" fill="none" stroke="black" points="150,246.66841098825938 151.00200400801603,246.01589923543716 152.00400801603206,245.3644313622244 153.0060120240481,244.71504957824578 154.00801603206412,244.0687927558283 155.01002004008015,243.4266947680271 156.01202404809618,242.789782834649 157.01402805611224,242.15907587892016 158.01603206412827,241.53558289742602 159.0180360721443,240.92030134593236 160.02004008016033,240.31421554366838 161.02204408817636,239.71829509862636 162.0240480961924,239.13349335639543 163.02605210420842,238.56074587501212 164.02805611222445,238.00096892826704 165.03006012024048,237.45505803986222 166.0320641282565,236.92388655076442 167.03406813627254,236.40830422204556 168.03607214428857,235.9091358754466 169.0380761523046,235.42718007383854 170.04008016032066,234.96320784369217 171.0420841683367,234.5179614416003 172.04408817635272,234.09215316682543 173.04609218436875,233.68646422177292 174.04809619238478,233.30154362221253 175.0501002004008,232.9380071589915 176.05210420841684,232.59643641290072 177.05410821643287,232.27737782426934 178.0561122244489,231.98134181877705 179.05811623246493,231.7088019908816 180.06012024048096,231.4601943461689 181.06212424849699,231.23591660383698 182.06412825651302,231.03632756043032 183.06613226452907,230.86174651584153 184.0681362725451,230.71245276250002 185.07014028056113,230.58868513856353 186.07214428857716,230.490641645828 187.0741482965932,230.41847913296695 188.07615230460922,230.3723130446071 189.07815631262525,230.35221723664162 190.08016032064128,230.35822385807637 191.0821643286573,230.3903232995984 192.08416833667334,230.44846420894876 193.08617234468937,230.53255357307526 194.0881763527054,230.6424568669334 195.09018036072143,230.7779982686978 196.09218436873746,230.9389609410395 197.0941883767535,231.1250873780198 198.09619238476955,231.33607981704424 199.09819639278558,231.57160071521974 200.1002004008016,231.83127328935106 201.10220440881764,232.11468211871335 202.10420841683367,232.421373809637 203.1062124248497,232.75085772084066 204.10821643286573,233.10260674835246 205.11022044088176,233.47605816876424 206.1122244488978,233.8706145394687 207.11422845691385,234.28564465444026 208.11623246492985,234.72048455402998 209.11823647294588,235.17443858715947 210.1202404809619,235.646780524214 211.12224448897797,236.13675471885523 212.124248496994,236.64357731689404 213.12625250501003,237.16643751028988 214.12825651302606,237.70449883427094 215.1302605210421,238.25690050549906 216.13226452905812,238.82275879913973 217.13426853707415,239.40116846263314 218.1362725450902,239.99120416390517 219.1382765531062,240.59192197170134 220.14028056112227,241.20236086567547 221.14228456913827,241.82154427381724 222.14428857715433,242.44848163475905 223.14629258517033,243.08216998246286 224.1482965931864,243.721595550752 225.1503006012024,244.3657353951207 226.15230460921845,245.0135590292272 227.15430861723448,245.66403007345187 228.1563126252505,246.31610791288372 229.15831663326654,246.9687493620822 230.16032064128257,247.62091033395131 231.16232464929863,248.27154751005637 232.16432865731463,248.91962000971077 233.16633266533069,249.56409105516317 234.1683366733467,250.20392963022064 235.17034068136275,250.83811212965475 236.17234468937875,251.46562399675136 237.17434869739478,252.0854613463853 238.1763527054108,252.696632571022 239.17835671342687,253.29815992707833 240.18036072144287,253.88908109910352 241.18236472945893,254.46845073927884 242.18436873747493,255.03534197977228 243.18637274549098,255.58884791552936 244.18837675350701,256.1280830551279 245.19038076152304,256.65218473737514 246.19238476953907,257.160314511382 247.1943887775551,257.65165947790524 248.19639278557116,258.12543358981304 249.19839679358716,258.58087890959285 250.20040080160322,259.0172668218895 251.20240480961922,259.43389919913443 252.20440881763528,259.83010951840083 253.2064128256513,260.2052639276983 254.20841683366734,260.55876226000066 255.21042084168337,260.890038993385 256.2124248496994,261.1985641557468 257.21442885771546,261.4838441726412 258.21643286573146,261.74542265689786 259.2184368737475,261.98288113874224 260.2204408817635,262.1958397352586 261.2224448897796,262.38395775812126 262.2244488977956,262.54693425862325 263.22645290581164,262.6845085091304 264.2284569138277,262.7964604201893 265.2304609218437,262.88261089262426 266.2324649298597,262.942822104057 267.23446893787576,262.9769977293937 268.23647294589176,262.98508309492416 269.2384769539078,262.9670652657884 270.2404809619238,262.92297306666944 271.2424849699399,262.85287703567997 272.24448897795594,262.75688931151655 273.24649298597194,262.6351634540616 274.248496993988,262.48789419872026 275.250501002004,262.3153171448852 276.25250501002006,262.1177083790283 277.25450901803606,261.8953840330204 278.2565130260521,261.64869977838856 279.2585170340682,261.37805025731706 280.2605210420842,261.08386845130406 281.2625250501002,260.7666249884837 282.26452905811624,260.4268273907217 283.2665330661323,260.065019261688 284.2685370741483,259.6817794172075 285.2705410821643,259.2777209592779 286.2725450901804,258.8534902952373 287.2745490981964,258.4097661036505 288.2765531062124,257.9472582485679 289.2785571142285,257.4667066438946 290.28056112224453,256.96888006968584 291.28256513026054,256.454574942263 292.28456913827654,255.92461404011732 293.2865731462926,255.3798451876401 294.28857715430865,254.82113989878397 295.29058116232466,254.24939198282712 296.29258517034066,253.66551611446866 297.2945891783567,253.0704463705444 298.2965931863728,252.4651347357032 299.2985971943888,251.85054957943453 300.3006012024048,251.22767410688394 301.30260521042084,250.59750478593446 302.3046092184369,249.96104975307068 303.3066132264529,249.31932720057537 304.30861723446895,248.67336374763894 305.310621242485,248.02419279798795 306.312625250501,247.37285288665944 307.314629258517,246.72038601856642 308.3166332665331,246.06783600151232 309.31863727454913,245.41624677632117 310.32064128256513,244.766660746755 311.32264529058114,244.12011711189018 312.32464929859725,243.4776502036205 313.32665330661325,242.84028783194694 314.32865731462925,242.20904964070073 315.3306613226453,241.5849454763309 316.33266533066137,240.9689737723654 317.3346693386774,240.36211995213023 318.3366733466934,239.7653548522825 319.33867735470943,239.17963316967894 320.3406813627255,238.60589193406435 321.3426853707415,238.0450490090241 322.3446893787575,237.49800162359827 323.34669338677355,236.96562493690615 324.34869739478955,236.44877063807897 325.3507014028056,235.9482655837384 326.3527054108216,235.46491047520266 327.3547094188377,234.99947857753514 328.35671342685373,234.55271448248533 329.35871743486973,234.12533291730065 330.36072144288573,233.71801760131558 331.36272545090185,233.3314201521464 332.36472945891785,232.966159043242 333.36673346693385,232.6228186144584 334.36873747494985,232.30194813723972 335.37074148296597,232.0040609359007 336.37274549098197,231.7296335664176 337.37474949899797,231.47910505404022 338.37675350701403,231.2528761909452 339.3787575150301,231.05130889505375 340.3807615230461,230.87472563104072 341.38276553106215,230.7234088944594 342.38476953907815,230.59760075980913 343.3867735470942,230.4975024932677 344.3887775551102,230.42327423070842 345.39078156312627,230.37503472151687 346.3927855711423,230.35286113861721 347.3947895791583,230.356788955012 348.39679358717433,230.38681188703285 349.39879759519044,230.44288190439312 350.40080160320645,230.52490930702592 351.40280561122245,230.6327628685854 352.40480961923845,230.7662700463805 353.40681362725456,230.92521725740684 354.40881763527057,231.10935022003363 355.41082164328657,231.31837436080033 356.4128256513026,231.5519552856711 357.4148296593186,231.80971931499414 358.4168336673347,232.09125408130922 359.4188376753507,232.3961091890478 360.42084168336675,232.72379693506977 361.42284569138275,233.07379308888454 362.4248496993988,233.4455377313078 363.4268537074148,233.838436150213 364.42885771543087,234.2518597919438 365.4308617234469,234.6851472668656 366.4328657314629,235.13760540744846 367.4348697394789,235.6085103771866 368.43687374749504,236.09710882858286 369.43887775551104,236.60261910834367 370.44088176352705,237.124232507858 371.44288577154305,237.66111455695815 372.44488977955916,238.2124063588943 373.44689378757516,238.77722596438593 374.4488977955912,239.3546697825528 375.4509018036072,239.94381402646715 376.4529058116233,240.54371619101627 377.4549098196393,241.15341656070905 378.45691382765534,241.7719397450165 379.45891783567134,242.39829623878833 380.4609218436874,243.03148400525012 381.4629258517034,243.6704900790483 382.46492985971946,244.3142921867789 383.4669338677355,244.96186038240663 384.4689378757515,245.61215869495905 385.4709418837675,246.26414678585886 386.4729458917835,246.91678161324415 387.47494989979964,247.56901910061234 388.47695390781564,248.21981580712028 389.47895791583164,248.8681305968667 390.4809619238477,249.5129263044879 391.48296593186376,250.1531713944007 392.48496993987976,250.7878416110395 393.48697394789576,251.4159216174469 394.4889779559118,252.03640661959588 395.4909819639279,252.64830397384605 396.4929859719439,253.2506347749617 397.4949899799599,253.8424354221515 398.496993987976,254.42275916062403 399.498997995992,254.99067759619345 400.501002004008,255.54528218051237 401.503006012024,256.0856856645552 402.5050100200401,256.6110235180274 403.5070140280561,257.1204553124296 404.5090180360721,257.61316606556363 405.5110220440881,258.0883675453305 406.51302605210424,258.5452995307336 407.5150300601203,258.9832310280698 408.5170340681363,259.40146144036373 409.5190380761523,259.79932168817356 410.52104208416836,260.17617527997515 411.5230460921844,260.53141933041263 412.5250501002004,260.8644855247867 413.5270541082164,261.17484102823676 414.5290581162325,261.4619893381628 415.53106212424854,261.72547107852415 416.53306613226454,261.9648647347426 417.53507014028054,262.179787328036 418.5370741482966,262.369895028103 419.53907815631266,262.5348837031775 420.54108216432866,262.67448940657516 421.5430861723447,262.7884887989514 422.5450901803608,262.87669950559706 423.5470941883768,262.93898040819886 424.54909819639283,262.9752318705984 425.55110220440883,262.98539589818915 426.5531062124249,262.96945623069513 427.55511022044095,262.9274383681841 428.55711422845695,262.8594095302726 429.55911823647295,262.76547854858944 430.561122244489,262.64579569266766 431.56312625250507,262.5005524295458 432.565130260521,262.32998111746133 433.567134268537,262.1343546341268 434.5691382765531,261.91398594018426 435.57114228456913,261.66922757853456 436.5731462925852,261.4004711103439 437.5751503006012,261.1081464886298 438.57715430861725,260.7927213704277 439.57915831663325,260.4547003686397 440.5811623246493,260.09462424476123 441.5831663326653,259.71306904377855 442.5851703406814,259.31064517261893 443.5871743486974,258.88799642363045 444.58917835671343,258.44579894465124 445.59118236472943,257.9847601573173 446.5931863727455,257.50561762533846 447.5951903807615,257.00913787455454 448.59719438877755,256.49611516665664 449.59919839679355,255.96737022853833 450.6012024048096,255.42374893930773 451.6032064128256,254.86612097706134 452.6052104208417,254.29537842758432 453.60721442885773,253.71243435720405 454.60921843687373,253.11822135207828 455.6112224448898,252.51369002625657 456.61322645290585,251.8998075009004 457.61523046092185,251.27755585709576 458.6172344689379,250.64793056473277 459.6192384769539,250.01193888996633 460.62124248496997,249.3705982838051 461.62324649298597,248.72493475440686 462.62525050100203,248.0759812256844 463.62725450901803,247.42477588484775 464.6292585170341,246.7723605215258 465.6312625250501,246.11977886112533 466.63326653306615,245.468074895093 467.63527054108215,244.81829121075168 468.6372745490982,244.1714673233832 469.6392785571142,243.52863801322562 470.64128256513027,242.8908316700456 471.64328657314627,242.2590686479341 472.6452905811623,241.63435963295757 473.6472945891784,241.01770402627588 474.64929859719444,240.41008834531348 475.65130260521045,239.81248464554218 476.6533066132265,239.2258489653996 477.6553106212425,238.65111979683172 478.65731462925856,238.08921658390585 479.65931863727457,237.54103825189645 480.6613226452906,237.00746176919623 481.6633266533066,236.4893407443539 482.6653306613227,235.98750406048265 483.6673346693387,235.5027545492239 484.66933867735474,235.03586770638793 485.67134268537075,234.5875904513261 486.6733466933868,234.15863993201907 487.6753507014028,233.7497023777932 488.67735470941886,233.36143200149985 489.67935871743487,232.9944499529146 490.6813627254509,232.64934332502972 491.683366733467,232.32666421483114 492.685370741483,232.02692884006055 493.68737474949904,231.75061671337744 494.689378757515,231.49816987524113 495.69138276553105,231.26999218674013 496.6933867735471,231.06644868350074 497.6953907815631,230.88786499170783 498.6973947895791,230.7345268071725 499.69939879759517,230.60667943827954 500.7014028056112,230.50452741354658 501.7034068136272,230.4282341544219 502.7054108216432,230.37792171384507 503.7074148296593,230.35367058098822 504.70941883767534,230.35551955249073 505.71142284569135,230.38346567039255 506.7134268537074,230.43746422686658 507.71543086172346,230.51742883574153 508.7174348697395,230.6232315707014 509.7194388777555,230.75470316994029 510.7214428857715,230.91163330694522 511.7234468937876,231.09377092697363 512.7254509018037,231.3008246486874 513.7274549098197,231.53246323030092 514.7294589178357,231.7883160994972 515.7314629258517,232.06797394626457 516.7334669338677,232.37098937770534 517.7354709418837,232.69687763376902 518.7374749498997,233.04511736276507 519.7394789579158,233.4151514554143 520.7414829659319,233.80638793610484 521.7434869739479,234.21820090992685 522.7454909819639,234.64993156397108 523.7474949899799,235.10088922128864 524.7494989979959,235.57035244582696 525.7515030060121,236.05757019657364 526.7535070140281,236.56176302906167 527.7555110220442,237.08212434231453 528.7575150300602,237.6178216692355 529.7595190380762,238.16799800837745 530.7615230460922,238.7317731949625 531.7635270541082,239.30824530895777 532.7655310621243,239.89649211795498 533.7675350701403,240.49557255254567 534.7695390781563,241.1045282118315 535.7715430861724,241.7223848966613 536.7735470941884,242.34815416814172 537.7755511022044,242.98083492892866 538.7775551102204,243.61941502476958 539.7795591182364,244.26287286373434 540.7815631262525,244.91017905054426 541.7835671342685,245.56029803338498 542.7855711422847,246.2121897605687 543.7875751503007,246.86481134439472 544.7895791583167,247.51711872954746 545.7915831663327,248.16806836336212 546.7935871743487,248.81661886528644 547.7955911823648,249.46173269286746 548.7975951903809,250.10237780159792 549.7995991983969,250.73752929596756 550.8016032064129,251.36617106907715 551.8036072144289,251.98729742819276 552.8056112224449,252.59991470363983 553.8076152304609,253.2030428384622 554.8096192384769,253.79571695630472 555.8116232464931,254.37698890500923 556.8136272545091,254.94592877345582 557.815631262525,255.5016263792223 558.8176352705411,256.04319272468217 559.8196392785571,256.56976141921047 560.8216432865731,257.0804900652247 561.8236472945891,257.5745616058408 562.8256513026053,258.0511856319903 563.8276553106213,258.5095996469055 564.8296593186373,258.9490702859523 565.8316633266533,259.36889448985715 566.8336673346694,259.76840062945143 567.8356713426854,260.1469495801352 568.8376753507014,260.5039357443402 569.8396793587174,260.8387880203566 570.8416833667335,261.15097071597427 571.8436873747495,261.4399844054755 572.8456913827655,261.7053667286102 573.8476953907816,261.94669313027305 574.8496993987976,262.1635775397018 575.8517034068136,262.3556729881074 576.8537074148296,262.5226721637507 577.8557114228456,262.66430790357515 578.8577154308617,262.7803536206112 579.8597194388778,262.8706236664666 580.8617234468938,262.93497362832454 581.8637274549098,262.97330055997327 582.8657314629259,262.9855431464983 583.8677354709419,262.9716818023726 584.8697394789579,262.93173870279 585.8717434869739,262.865777748189 586.8737474949901,262.77390446202605 587.8757515030061,262.65626582196046 588.8777555110221,262.51305002472145 589.8797595190381,262.3444861850335 590.8817635270541,262.1508439690816 591.8837675350701,261.93243316310344 592.8857715430861,261.68960317779647 593.8877755511022,261.42274248933643 594.8897795591183,261.1322780178974 595.8917835671343,260.8186744446715 596.8937875751503,260.4824334684771 597.8957915831663,260.12409300314874 598.8977955911824,259.7442263169889 599.8997995991984,259.3434411156616 600.9018036072144,258.9223785699927 601.9038076152304,258.4817122902333 602.9058116232466,258.02214724842736 603.9078156312626,257.5444186506063 604.9098196392786,257.04929076061677 605.9118236472946,256.537555677461 606.9138276553107,256.0100320681078 607.9158316633267,255.46756385779972 608.9178356713427,254.91101887995285 609.9198396793587,254.34128748780853 610.9218436873748,253.7592811300579 611.9238476953908,253.16593089271873 612.9258517034068,252.5621860095961 613.9278557114228,251.9490123437109 614.9298597194389,251.32739084212517 615.931863727455,250.69831596663602 616.933867735471,250.06279410284864 617.935871743487,249.42184195017435 618.937875751503,248.77648489532825 619.939879759519,248.1277553719294 620.941883767535,247.47669120882682 621.943887775551,246.8243339697952 622.945891783567,246.17172728725495 623.947895791583,245.5199151926828 624.9498997995993,244.8699404463841 625.9519038076153,244.22284286929926 626.9539078156313,243.57965767951134 627.9559118236473,242.94141383611853 628.9579158316633,242.3091323931188 629.9599198396794,241.68382486594146 630.9619238476954,241.06649161323818 631.9639278557114,240.45812023652257 632.9659318637275,239.85968400021827 633.9679358717435,239.272140274644 634.9699398797595,238.69642900442452 635.9719438877755,238.1334712047804 636.9739478957915,237.58416748809978 637.9759519038076,237.0493966231508 638.9779559118236,236.53001412923908 639.9799599198396,236.02685090755915 640.9819639278558,235.5407119119299 641.9839679358718,235.07237486104026 642.9859719438878,234.62258899426504 643.9879759519038,234.19207387304195 644.9899799599198,233.78151822972657 645.9919839679359,233.3915788657676 646.993987975952,233.0228796009649 647.995991983968,232.6760102754904 648.997995991984,232.35152580627002 650,232.0499452992349 "/><text class="poloto_text" alignment-baseline="middle" text-anchor="start" font-size="large" x="675" y="150" >sin(2x)</text><line class="poloto2stroke" stroke="black" x1="680" x2="730" y1="181.25" y2="181.25" /><polyline class="poloto2stroke" fill="none" stroke="black" points="150,214.03412156614112 151.00200400801603,214.04064820646653 152.00400801603206,214.0602255168736 153.0060120240481,214.09284566669922 154.00801603206412,214.13849560831838 155.01002004008015,214.1971570823631 156.01202404809618,214.2688066250259 157.01402805611224,214.35341557744505 158.01603206412827,214.45095009716763 159.0180360721443,214.56137117168623 160.02004008016033,214.68463463404333 161.02204408817636,214.82069118049742 162.0240480961924,214.96948639024404 163.02605210420842,215.13096074718314 164.02805611222445,215.305049663725 165.03006012024048,215.49168350662404 166.0320641282565,215.6907876248316 167.03406813627254,215.90228237935506 168.03607214428857,216.12608317511248 169.0380761523046,216.36210049476958 170.04008016032066,216.61023993454532 171.0420841683367,216.87040224197227 172.04408817635272,217.14248335559623 173.04609218436875,217.42637444659948 174.04809619238478,217.7219619623308 175.0501002004008,218.02912767172495 176.05210420841684,218.34774871259373 177.05410821643287,218.67769764076894 178.0561122244489,219.01884248107865 179.05811623246493,219.3710467801352 180.06012024048096,219.734169660915 181.06212424849699,220.1080658791073 182.06412825651302,220.4925858812101 183.06613226452907,220.88757586434932 184.0681362725451,221.29287783779824 185.07014028056113,221.70832968617142 186.07214428857716,222.13376523426876 187.0741482965932,222.56901431354348 188.07615230460922,223.01390283016707 189.07815631262525,223.46825283466467 190.08016032064128,223.93188259309235 191.0821643286573,224.4046066597285 192.08416833667334,224.88623595124923 193.08617234468937,225.37657782235965 194.0881763527054,225.8754361428491 195.09018036072143,226.38261137604076 196.09218436873746,226.8979006586036 197.0941883767535,227.421097881695 198.09619238476955,227.9519937734016 199.09819639278558,228.49037598244524 200.1002004008016,229.03602916312065 201.10220440881764,229.5887350614308 202.10420841683367,230.14827260238576 203.1062124248497,230.71441797842942 204.10821643286573,231.28694473896002 205.11022044088176,231.8656238809068 206.1122244488978,232.45022394032867 207.11422845691385,233.04051108499644 208.11623246492985,233.63624920792256 209.11823647294588,234.23720002180102 210.1202404809619,234.84312315431876 211.12224448897797,235.45377624430168 212.124248496994,236.06891503865572 213.12625250501003,236.68829349006486 214.12825651302606,237.31166385540683 215.1302605210421,237.938776794847 216.13226452905812,238.56938147157092 217.13426853707415,239.20322565211595 218.1362725450902,239.8400558072609 219.1382765531062,240.47961721343478 220.14028056112227,241.1216540546024 221.14228456913827,241.76590952458773 222.14428857715433,242.4121259297927 223.14629258517033,243.06004479227133 224.1482965931864,243.70940695311748 225.1503006012024,244.3599526761248 226.15230460921845,245.01142175167797 227.15430861723448,245.66355360083287 228.1563126252505,246.31608737954483 229.15831663326654,246.96876208300264 230.16032064128257,247.62131665002724 231.16232464929863,248.27349006749236 232.16432865731463,248.92502147472655 233.16633266533069,249.5756502678539 234.1683366733467,250.22511620403205 235.17034068136275,250.873159505546 236.17234468937875,251.51952096371562 237.17434869739478,252.16394204257566 238.1763527054108,252.80616498228676 239.17835671342687,253.44593290223582 240.18036072144287,254.08298990378512 241.18236472945893,254.7170811726279 242.18436873747493,255.3479530807111 243.18637274549098,255.97535328768302 244.18837675350701,256.5990308418261 245.19038076152304,257.2187362804342 246.19238476953907,257.8342217295946 247.1943887775551,258.44524100333393 248.19639278557116,259.0515497020896 249.19839679358716,259.65290531046594 250.20040080160322,260.24906729423776 251.20240480961922,260.8397971965602 252.20440881763528,261.4248587333486 253.2064128256513,262.00401788778896 254.20841683366734,262.5770430039415 255.21042084168337,263.14370487940016 256.2124248496994,263.7037768569699 257.21442885771546,264.2570349153274 258.21643286573146,264.8032577586259 259.2184368737475,265.342226905011 260.2204408817635,265.87372677401027 261.2224448897796,266.3975447727628 262.2244488977956,266.913471381053 263.22645290581164,267.42130023511675 264.2284569138277,267.9208282101831 265.2304609218437,268.4118555017226 266.2324649298597,268.89418570536543 267.23446893787576,269.36762589546106 268.23647294589176,269.831986702246 269.2384769539078,270.28708238758895 270.2404809619238,270.73273091928354 271.2424849699399,271.16875404385905 272.24448897795594,271.5949773578792 273.24649298597194,272.0112303777013 274.248496993988,272.41734660766735 275.250501002004,272.81316360670024 276.25250501002006,273.1985230532778 277.25450901803606,273.5732708087595 278.2565130260521,273.9372569790396 279.2585170340682,274.2903359745032 280.2605210420842,274.6323665682597 281.2625250501002,274.96321195263204 282.26452905811624,275.2827397938775 283.2665330661323,275.5908222851201 284.2685370741483,275.887336197471 285.2705410821643,276.1721629293186 286.2725450901804,276.4451885537679 287.2745490981964,276.7063038642094 288.2765531062124,276.9554044180004 289.2785571142285,277.19239057824075 290.28056112224453,277.4171675536261 291.28256513026054,277.6296454363632 292.28456913827654,277.82973923813205 293.2865731462926,278.01736892407973 294.28857715430865,278.1924594448337 295.29058116232466,278.35494076652003 296.29258517034066,278.5047478987765 297.2945891783567,278.6418209207476 298.2965931863728,278.7661050050521 299.2985971943888,278.8775504397135 300.3006012024048,278.97611264804374 301.30260521042084,279.0617522064737 302.3046092184369,279.13443486032185 303.3066132264529,279.19413153749565 304.30861723446895,279.24081836012033 305.310621242485,279.2744766540892 306.312625250501,279.2950929565335 307.314629258517,279.3026590212071 308.3166332665331,279.297171821785 309.31863727454913,279.2786335530739 310.32064128256513,279.247051630134 311.32264529058114,279.20243868531344 312.32464929859725,279.14481256319533 313.32665330661325,279.07419631346016 314.32865731462925,278.99061818166626 315.3306613226453,278.894111597952 316.33266533066137,278.7847151636642 317.3346693386774,278.6624726359179 318.3366733466934,278.5274329100943 319.33867735470943,278.3796500002833 320.3406813627255,278.21918301767835 321.3426853707415,278.046096146933 322.3446893787575,277.86045862048775 323.34669338677355,277.66234469087794 324.34869739478955,277.45183360103414 325.3507014028056,277.22900955258535 326.3527054108216,276.99396167218003 327.3547094188377,276.7467839758364 328.35671342685373,276.48757533133744 329.35871743486973,276.21643941868473 330.36072144288573,275.93348468862837 331.36272545090185,275.6388243192876 332.36472945891785,275.33257617088145 333.36673346693385,275.0148627385861 334.36873747494985,274.6858111035382 335.37074148296597,274.34555288200454 336.37274549098197,273.994224172737 337.37474949899797,273.631965502535 338.37675350701403,273.25892177003664 339.3787575150301,272.8752421877609 340.3807615230461,272.48108022242513 341.38276553106215,272.07659353356 342.38476953907815,271.66194391044803 343.3867735470942,271.2372972074098 344.3887775551102,270.8028232774648 345.39078156312627,270.35869590439194 346.3927855711423,269.9050927332189 347.3947895791583,269.4421951991661 348.39679358717433,268.9701884550754 349.39879759519044,268.48926129735105 350.40080160320645,267.9996060904438 351.40280561122245,267.5014186899079 352.40480961923845,266.994898364061 353.40681362725456,266.48024771428004 354.40881763527057,265.95767259396297 355.41082164328657,265.42738202619034 356.4128256513026,264.8895881201188 357.4148296593186,264.34450598614035 358.4168336673347,263.7923536498408 359.4188376753507,263.23335196479286 360.42084168336675,262.6677245242172 361.42284569138275,262.0956975715485 362.4248496993988,261.5174999099409 363.4268537074148,260.9333628107499 364.42885771543087,260.34351992102665 365.4308617234469,259.74820717006264 366.4328657314629,259.1476626750209 367.4348697394789,258.5421266456923 368.43687374749504,257.9318412884148 369.43887775551104,257.3170507091943 370.44088176352705,256.69800081606536 371.44288577154305,256.0749392207314 372.44488977955916,255.4481151395232 373.44689378757516,254.8177792937156 374.4488977955912,254.18418380924263 375.4509018036072,253.54758211585025 376.4529058116233,252.90822884572788 377.4549098196393,252.26637973165896 378.45691382765534,251.6222915047313 379.45891783567134,250.9762217916479 380.4609218436874,250.32842901167984 381.4629258517034,249.67917227330204 382.46492985971946,249.02871127055315 383.4669338677355,248.3773061791616 384.4689378757515,247.72521755247863 385.4709418837675,247.07270621726062 386.4729458917835,246.42003316934145 387.47494989979964,245.76745946923822 388.47695390781564,245.11524613773008 389.47895791583164,244.46365405145355 390.4809619238477,243.81294383855536 391.48296593186376,243.16337577444466 392.48496993987976,242.51520967768633 393.48697394789576,241.86870480607698 394.4889779559118,241.2241197529452 395.4909819639279,240.581712343718 396.4929859719439,239.94173953279372 397.4949899799599,239.30445730076391 398.496993987976,238.6701205520243 399.498997995992,238.03898301281674 400.501002004008,237.41129712974185 401.503006012024,236.78731396878388 402.5050100200401,236.16728311488745 403.5070140280561,235.5514525721272 404.5090180360721,234.94006866450928 405.5110220440881,234.33337593744503 406.51302605210424,233.73161705993618 407.5150300601203,233.13503272751035 408.5170340681363,232.5438615659462 409.5190380761523,231.95834003582618 410.52104208416836,231.37870233795542 411.5230460921844,230.80518031968475 412.5250501002004,230.23800338217458 413.5270541082164,229.6773983886377 414.5290581162325,229.1235895735968 415.53106212424854,228.57679845319393 416.53306613226454,228.03724373658684 417.53507014028054,227.50514123846818 418.5370741482966,226.98070379274253 419.53907815631266,226.46414116739587 420.54108216432866,225.95565998059084 421.5430861723447,225.4554636180226 422.5450901803608,224.96375215156687 423.5470941883768,224.48072225925424 424.54909819639283,224.00656714660133 425.55110220440883,223.5414764693312 426.5531062124249,223.08563625751358 427.55511022044095,222.63922884115547 428.55711422845695,222.2024327772714 429.55911823647295,221.77542277846302 430.561122244489,221.3583696430365 431.56312625250507,220.9514401866853 432.565130260521,220.55479717576642 433.567134268537,220.1685992621956 434.5691382765531,219.79300091998914 435.57114228456913,219.42815238347592 436.5731462925852,219.07419958720604 437.5751503006012,218.7312841075787 438.57715430861725,218.39954310621349 439.57915831663325,218.07910927508794 440.5811623246493,217.77011078346206 441.5831663326653,217.47267122661253 442.5851703406814,217.18690957639635 443.5871743486974,216.91294013366343 444.58917835671343,216.65087248253806 445.59118236472943,216.40081144658646 446.5931863727455,216.16285704688892 447.5951903807615,215.93710446203264 448.59719438877755,215.72364399004155 449.59919839679355,215.52256101225836 450.6012024048096,215.33393595919307 451.6032064128256,215.15784427835206 452.6052104208417,214.99435640405966 453.60721442885773,214.84353772928586 454.60921843687373,214.70544857948966 455.6112224448898,214.5801441884898 456.61322645290585,214.46767467637204 457.61523046092185,214.36808502944157 458.6172344689379,214.28141508222936 459.6192384769539,214.20769950155872 460.62124248496997,214.14696777267903 461.62324649298597,214.09924418747215 462.62525050100203,214.0645478347358 463.62725450901803,214.04289259254847 464.6292585170341,214.0342871227183 465.6312625250501,214.0387348673185 466.63326653306615,214.05623404731057 467.63527054108215,214.08677766325576 468.6372745490982,214.13035349811494 469.6392785571142,214.18694412213523 470.64128256513027,214.25652689982152 471.64328657314627,214.3390739989905 472.6452905811623,214.4345524019031 473.6472945891784,214.54292391847116 474.64929859719444,214.66414520153305 475.65130260521045,214.79816776419176 476.6533066132265,214.9449379992092 477.6553106212425,215.10439720044823 478.65731462925856,215.27648158635455 479.65931863727457,215.4611223254681 480.6613226452906,215.65824556395515 481.6633266533066,215.86777245514855 482.6653306613227,216.0896191910855 483.6673346693387,216.3236970360295 484.66933867735474,216.56991236196362 485.67134268537075,216.82816668604033 486.6733466933868,217.09835670997325 487.6753507014028,217.3803743613554 488.67735470941886,217.67410683688635 489.67935871743487,217.97943664749226 490.6813627254509,218.29624166531994 491.683366733467,218.62439517258625 492.685370741483,218.9637659122636 493.68737474949904,219.314218140581 494.689378757515,219.67561168131974 495.69138276553105,220.0478019818821 496.6933867735471,220.43064017111027 497.6953907815631,220.82397311883304 498.6973947895791,221.22764349711562 499.69939879759517,221.64148984318902 500.7014028056112,222.06534662403257 501.7034068136272,222.49904430258533 502.7054108216432,222.94240940555844 503.7074148296593,223.39526459282214 504.70941883767534,223.85742872833958 505.71142284569135,224.32871695261858 506.7134268537074,224.80894075665324 507.71543086172346,225.29790805732483 508.7174348697395,225.79542327423255 509.7194388777555,226.30128740792304 510.7214428857715,226.81529811948766 511.7234468937876,227.33724981149518 512.7254509018037,227.86693371022804 513.7274549098197,228.40413794918905 514.7294589178357,228.94864765384526 515.7314629258517,229.50024502757495 516.7334669338677,230.05870943878307 517.7354709418837,230.6238175091512 518.7374749498997,231.19534320298595 519.7394789579158,231.77305791762998 520.7414829659319,232.3567305749002 521.7434869739479,232.94612771351592 522.7454909819639,233.5410135824802 523.7474949899799,234.14115023537713 524.7494989979959,234.74629762554736 525.7515030060121,235.3562137021032 526.7535070140281,235.97065450674623 527.7555110220442,236.58937427134705 528.7575150300602,237.2121255162493 529.7595190380762,237.83865914925818 530.7615230460922,238.4687245652742 531.7635270541082,239.10206974653173 532.7655310621243,239.73844136340276 533.7675350701403,240.37758487572535 534.7695390781563,241.01924463461637 535.7715430861724,241.66316398472767 536.7735470941884,242.30908536690467 537.7755511022044,242.9567504212066 538.7775551102204,243.6059000902472 539.7795591182364,244.2562747228141 540.7815631262525,244.9076141777258 541.7835671342685,245.55965792788467 542.7855711422847,246.21214516448455 543.7875751503007,246.8648149013305 544.7895791583167,247.51740607922991 545.7915831663327,248.16965767041268 546.7935871743487,248.82130878293893 547.7955911823648,249.4720987650523 548.7975951903809,250.12176730943693 549.7995991983969,250.77005455733718 550.8016032064129,251.41670120249768 551.8036072144289,252.06144859488217 552.8056112224449,252.70403884413028 553.8076152304609,253.3442149227099 554.8096192384769,253.98172076872535 555.8116232464931,254.61630138833812 556.8136272545091,255.24770295776128 557.815631262525,255.8756729247856 558.8176352705411,256.49996010979726 559.8196392785571,257.1203148062459 560.8216432865731,257.7364888805241 561.8236472945891,258.34823587121787 562.8256513026053,258.95531108768745 563.8276553106213,259.5574717079403 564.8296593186373,260.15447687575715 565.8316633266533,260.7460877970308 566.8336673346694,261.3320678352809 567.8356713426854,261.9121826063049 568.8376753507014,262.48620007192926 569.8396793587174,263.0538906328212 570.8416833667335,263.6150272203256 571.8436873747495,264.1693853872889 572.8456913827655,264.7167433978358 573.8476953907816,265.2568823160601 574.8496993987976,265.78958609359637 575.8517034068136,266.31464165603603 576.8537074148296,266.8318389881548 577.8557114228456,267.34097121791575 578.8577154308617,267.8418346992153 579.8597194388778,268.3342290933391 580.8617234468938,268.8179574490945 581.8637274549098,269.2928262815889 582.8657314629259,269.7586456496209 583.8677354709419,270.21522923165395 584.8697394789579,270.6623944003431 585.8717434869739,271.0999622955829 586.8737474949901,271.5277578960495 587.8757515030061,271.9456100892064 588.8777555110221,272.35335173974784 589.8797595190381,272.75081975645 590.8817635270541,273.1378551574057 591.8837675350701,273.51430313361493 592.8857715430861,273.8800131109065 593.8877755511022,274.23483881016546 594.8897795591183,274.57863830584324 595.8917835671343,274.9112740827253 596.8937875751503,275.2326130909361 597.8957915831663,275.5425267991568 598.8977955911824,275.84089124603616 599.8997995991984,276.12758708977367 600.9018036072144,276.40249965585434 601.9038076152304,276.6655189829172 602.9058116232466,276.91653986673833 603.9078156312626,277.15546190231106 604.9098196392786,277.3821895240067 605.9118236472946,277.5966320437997 606.9138276553107,277.79870368754126 607.9158316633267,277.9883236292681 608.9178356713427,278.16541602353186 609.9198396793587,278.32991003573596 610.9218436873748,278.48173987046874 611.9238476953908,278.6208447978207 612.9258517034068,278.74716917767563 613.9278557114228,278.86066248196585 614.9298597194389,278.9612793148829 615.931863727455,279.04897943103515 616.933867735471,279.1237277515454 617.935871743487,279.1854943780821 618.937875751503,279.23425460481826 619.939879759519,279.2699889283133 620.941883767535,279.29268305531417 621.943887775551,279.3023279084727 622.945891783567,279.29891962997624 623.947895791583,279.28245958309077 624.9498997995993,279.2529543516155 625.9519038076153,279.2104157372497 626.9539078156313,279.15486075487195 627.9559118236473,279.0863116257344 628.9579158316633,279.0047957685748 629.9599198396794,278.91034578864907 630.9619238476954,278.80299946468995 631.9639278557114,278.6827997337957 632.9659318637275,278.54979467425613 633.9679358717435,278.40403748632156 634.9699398797595,278.24558647092385 635.9719438877755,278.0745050063564 636.9739478957915,277.8908615229241 637.9759519038076,277.6947294755717 638.9779559118236,277.4861873145031 639.9799599198396,277.26531845380225 640.9819639278558,277.03221123806844 641.9839679358718,276.78695890708 642.9859719438878,276.52965955849936 643.9879759519038,276.2604161086353 644.9899799599198,275.9793362512779 645.9919839679359,275.6865324146223 646.993987975952,275.3821217162994 647.995991983968,275.0662259165297 648.997995991984,274.73897136942105 650,274.4004889724291 "/><text class="poloto_text" alignment-baseline="middle" text-anchor="start" font-size="large" x="675" y="200" >2*cos(x)</text><line class="poloto_axis_lines" stroke="black" x1="150" x2="150" y1="400" y2="405" /><text class="poloto_text" alignment-baseline="start" text-anchor="middle" x="150" y="430" >0</text><line class="poloto_axis_lines" stroke="black" x1="250.20040080160322" x2="250.20040080160322" y1="400" y2="405" /><text class="poloto_text" alignment-baseline="start" text-anchor="middle" x="250.20040080160322" y="430" >2</text><line class="poloto_axis_lines" stroke="black" x1="350.40080160320645" x2="350.40080160320645" y1="400" y2="405" /><text class="poloto_text" alignment-baseline="start" text-anchor="middle" x="350.40080160320645" y="430" >4</text><line class="poloto_axis_lines" stroke="black" x1="450.6012024048096" x2="450.6012024048096" y1="400" y2="405" /><text class="poloto_text" alignment-baseline="start" text-anchor="middle" x="450.6012024048096" y="430" >6</text><line class="poloto_axis_lines" stroke="black" x1="550.8016032064129" x2="550.8016032064129" y1="400" y2="405" /><text class="poloto_text" alignment-baseline="start" text-anchor="middle" x="550.8016032064129" y="430" >8</text><line class="poloto_axis_lines" stroke="black" x1="150" x2="144" y1="328.25413454355504" y2="328.25413454355504" /><text class="poloto_text" alignment-baseline="middle" text-anchor="end" x="135" y="328.25413454355504" >-5</text><line class="poloto_axis_lines" stroke="black" x1="150" x2="144" y1="246.66841098825938" y2="246.66841098825938" /><text class="poloto_text" alignment-baseline="middle" text-anchor="end" x="135" y="246.66841098825938" >0</text><line class="poloto_axis_lines" stroke="black" x1="150" x2="144" y1="165.08268743296378" y2="165.08268743296378" /><text class="poloto_text" alignment-baseline="middle" text-anchor="end" x="135" y="165.08268743296378" >5</text><text class="poloto_text" alignment-baseline="start" text-anchor="middle" font-size="x-large" x="400" y="37.5" >Some Trigonometry Plots </text><text class="poloto_text" alignment-baseline="start" text-anchor="middle" font-size="x-large" x="400" y="481.25" >This is the x label</text><text class="poloto_text" alignment-baseline="start" text-anchor="middle" font-size="x-large" transform="rotate(-90,37.5,250)" x="37.5" y="250" >This is the y label</text><path stroke="black" fill="none" class="poloto_axis_lines" d=" M 150 100 L 150 400 L 650 400"/></svg>
