<svg class="poloto" width="800" height="500" viewBox="0 0 800 500" xmlns="http://www.w3.org/2000/svg"><style>.poloto {font-family: "Arial";stroke-width:2;}.poloto_text{fill: white;}.poloto_axis_lines{stroke: white;stoke-width:3;fill:none}.poloto_background{fill: black;}.poloto0stroke{stroke:  blue;}.poloto1stroke{stroke:  red;}.poloto2stroke{stroke:  green;}.poloto3stroke{stroke:  gold;}.poloto4stroke{stroke:  aqua;}.poloto5stroke{stroke:  brown;}.poloto6stroke{stroke:  lime;}.poloto7stroke{stroke:  chocolate;}.poloto0fill{fill:blue;}.poloto1fill{fill:red;}.poloto2fill{fill:green;}.poloto3fill{fill:gold;}.poloto4fill{fill:aqua;}.poloto5fill{fill:brown;}.poloto6fill{fill:lime;}.poloto7fill{fill:chocolate;}</style><rect class="poloto_background" fill="white" x="0" y="0" width="800" height="500"/><line class="poloto_axis_lines" stroke="black" x1="150" x2="150" y1="400" y2="405"/><text class="poloto_text" alignment-baseline="start" text-anchor="middle" x="150" y="430">0</text><line class="poloto_axis_lines" stroke="black" x1="252.04081434053666" x2="252.04081434053666" y1="400" y2="405"/><text class="poloto_text" alignment-baseline="start" text-anchor="middle" x="252.04081434053666" y="430">2</text><line class="poloto_axis_lines" stroke="black" x1="354.0816286810733" x2="354.0816286810733" y1="400" y2="405"/><text class="poloto_text" alignment-baseline="start" text-anchor="middle" x="354.0816286810733" y="430">4</text><line class="poloto_axis_lines" stroke="black" x1="456.12244302160997" x2="456.12244302160997" y1="400" y2="405"/><text class="poloto_text" alignment-baseline="start" text-anchor="middle" x="456.12244302160997" y="430">6</text><line class="poloto_axis_lines" stroke="black" x1="558.1632573621466" x2="558.1632573621466" y1="400" y2="405"/><text class="poloto_text" alignment-baseline="start" text-anchor="middle" x="558.1632573621466" y="430">8</text><line class="poloto_axis_lines" stroke="black" x1="150" x2="144" y1="386.41357228486015" y2="386.41357228486015"/><text class="poloto_text" alignment-baseline="middle" text-anchor="end" x="135" y="386.41357228486015">-20</text><line class="poloto_axis_lines" stroke="black" x1="150" x2="144" y1="318.2198645979887" y2="318.2198645979887"/><text class="poloto_text" alignment-baseline="middle" text-anchor="end" x="135" y="318.2198645979887">-15</text><line class="poloto_axis_lines" stroke="black" x1="150" x2="144" y1="250.02615691111725" y2="250.02615691111725"/><text class="poloto_text" alignment-baseline="middle" text-anchor="end" x="135" y="250.02615691111725">-10</text><line class="poloto_axis_lines" stroke="black" x1="150" x2="144" y1="181.83244922424575" y2="181.83244922424575"/><text class="poloto_text" alignment-baseline="middle" text-anchor="end" x="135" y="181.83244922424575">-5</text><line class="poloto_axis_lines" stroke="black" x1="150" x2="144" y1="113.6387415373743" y2="113.6387415373743"/><text class="poloto_text" alignment-baseline="middle" text-anchor="end" x="135" y="113.6387415373743">0</text><text class="poloto_text" alignment-baseline="middle" text-anchor="start" font-size="large" x="675" y="100">cos</text><line class="poloto0stroke" stroke="black" x1="680" x2="730" y1="81.25" y2="81.25"/><polyline class="poloto0stroke" fill="none" stroke="black" points="150,100 160.20408082584302,100.27186652518031 170.40816165168604,101.07662889963643 180.61224247752904,102.38220230959496 190.81632330337206,104.13653794876575 201.02040717026833,106.26969843461745 211.2244849550581,108.6966368175975 221.42856882195434,111.32060337735453 231.63264660674412,114.03698497518116 241.83673655574688,116.73749310362393 252.04081434053666,119.314460792815 262.2448982074329,121.6651566899996 272.4489699101162,123.69586249953932 282.6530537770125,125.32562519916843 292.8571376439087,126.48946791952187 303.061221510805,127.1409933599686 313.26529321348823,127.25422589330424 323.46938924459755,126.824652119152 333.67347311149376,125.86939727028158 343.87754481417704,124.42654641410121 354.0816286810733,122.55361776571505 364.2857003837566,120.32528444502736 374.48979641486585,117.83037394345894 384.6938681175491,115.1683621499784 394.8979398202324,112.44536935445586 405.1020358513416,109.76994610800512 415.3061075540249,107.24876610418971 425.51020358513415,104.98232820571741 435.71427528781743,103.06100000433565 445.9183469905007,101.56137151441709 456.12244302160997,100.54322740644233 466.32651472429325,100.04716145703492 476.5305864269765,100.09294824547521 486.73470678651177,100.67876680331153 496.93877848919504,101.78125508082712 507.1428501918783,103.35646351668026 517.3469462229875,105.34159796485096 527.5510179256707,107.65750889347981 537.7550896283541,110.21187238913228 547.9591613310374,112.90285358560067 558.1632573621466,115.62317889605953 568.3673290648298,118.26438470234751 578.5714007675132,120.72118046447702 588.7755211270485,122.89563303583623 598.9795928297317,124.70103139436321 609.1836645324149,126.06541151719188 619.3877362350981,126.9343809140828 629.5918079377815,127.2732964731743 639.7958796404648,127.06864644596817 650,126.32858373094757 "/><text class="poloto_text" alignment-baseline="middle" text-anchor="start" font-size="large" x="675" y="150">sin</text><circle class="poloto1fill" cx="685" cy="131.25" r="5"/><g class="poloto1fill"><circle cx="150" cy="113.6387415373743" r="5"/><circle cx="160.20408082584302" cy="110.92914210707727" r="5"/><circle cx="170.40816165168604" cy="108.32756553318603" r="5"/><circle cx="180.61224247752904" cy="105.93772938240988" r="5"/><circle cx="190.81632330337206" cy="103.85490729319542" r="5"/><circle cx="201.02040717026833" cy="102.16213664633972" r="5"/><circle cx="211.2244849550581" cy="100.92690139455834" r="5"/><circle cx="221.42856882195434" cy="100.19844735341746" r="5"/><circle cx="231.63264660674412" cy="100.00581571799268" r="5"/><circle cx="241.83673655574688" cy="100.35668544721034" r="5"/><circle cx="252.04081434053666" cy="101.23706922715064" r="5"/><circle cx="262.2448982074329" cy="102.61186870383898" r="5"/><circle cx="272.4489699101162" cy="104.42627272687855" r="5"/><circle cx="282.6530537770125" cy="106.60795064091587" r="5"/><circle cx="292.8571376439087" cy="109.06992396914757" r="5"/><circle cx="303.061221510805" cy="111.7140423087929" r="5"/><circle cx="313.26529321348823" cy="114.43488881050115" r="5"/><circle cx="323.46938924459755" cy="117.12400199005839" r="5"/><circle cx="333.67347311149376" cy="119.67416506428668" r="5"/><circle cx="343.87754481417704" cy="121.98371235852267" r="5"/><circle cx="354.0816286810733" cy="123.96057522008789" r="5"/><circle cx="364.2857003837566" cy="125.52593660645186" r="5"/><circle cx="374.48979641486585" cy="126.61739664378172" r="5"/><circle cx="384.6938681175491" cy="127.19143581194595" r="5"/><circle cx="394.8979398202324" cy="127.22517331717586" r="5"/><circle cx="405.1020358513416" cy="126.71726213057644" r="5"/><circle cx="415.3061075540249" cy="125.68795239684971" r="5"/><circle cx="425.51020358513415" cy="124.17827606315291" r="5"/><circle cx="435.71427528781743" cy="122.24842507907124" r="5"/><circle cx="445.9183469905007" cy="119.97533414229133" r="5"/><circle cx="456.12244302160997" cy="117.44961716306119" r="5"/><circle cx="466.32651472429325" cy="114.7719789808213" r="5"/><circle cx="476.5305864269765" cy="112.04916218515132" r="5"/><circle cx="486.73470678651177" cy="109.38970432024763" r="5"/><circle cx="496.93877848919504" cy="106.89965515409943" r="5"/><circle cx="507.1428501918783" cy="104.67827118555886" r="5"/><circle cx="517.3469462229875" cy="102.81410838664362" r="5"/><circle cx="527.5510179256707" cy="101.3814931616131" r="5"/><circle cx="537.7550896283541" cy="100.43753563353442" r="5"/><circle cx="547.9591613310374" cy="100.01986725356767" r="5"/><circle cx="558.1632573621466" cy="100.14514012785799" r="5"/><circle cx="568.3673290648298" cy="100.80835960008062" r="5"/><circle cx="578.5714007675132" cy="101.98308504573015" r="5"/><circle cx="588.7755211270485" cy="103.62249318762696" r="5"/><circle cx="598.9795928297317" cy="105.66120963248954" r="5"/><circle cx="609.1836645324149" cy="108.0179639079717" r="5"/><circle cx="619.3877362350981" cy="110.59880115512266" r="5"/><circle cx="629.5918079377815" cy="113.30083071185231" r="5"/><circle cx="639.7958796404648" cy="116.01633167531264" r="5"/><circle cx="650" cy="118.63705808997753" r="5"/></g><text class="poloto_text" alignment-baseline="middle" text-anchor="start" font-size="large" x="675" y="200">sin-10</text><rect class="poloto2fill" x="680" y="176.25" width="50" height="7.5" rx="5" ry="5"/><g class="poloto2fill"><rect x="150" y="250.02615691111723" width="27.612242477529037" height="149.97384308888277"/><rect x="180.61224247752904" y="242.32515125961157" width="27.612242477529065" height="157.67484874038843"/><rect x="211.2244849550581" y="237.31431432950424" width="27.61225160068878" height="162.68568567049576"/><rect x="241.83673655574688" y="236.74410407268266" width="27.612233354369323" height="163.25589592731734"/><rect x="272.4489699101162" y="240.8136824100951" width="27.612251600688808" height="159.1863175899049"/><rect x="303.061221510805" y="248.1014582922351" width="27.61225160068875" height="151.8985417077649"/><rect x="333.67347311149376" y="256.0615747475032" width="27.612227272262828" height="143.9384252524968"/><rect x="364.2857003837566" y="261.9133479155331" width="27.612239436475818" height="138.0866520844669"/><rect x="394.8979398202324" y="263.61258462625705" width="27.61226376490174" height="136.38741537374295"/><rect x="425.51020358513415" y="260.56568818516644" width="27.612239436475818" height="139.43431181483356"/><rect x="456.12244302160997" y="253.8370276592101" width="27.612263764901797" height="146.1629723407899"/><rect x="486.73470678651177" y="245.7771221327876" width="27.61223943647576" height="154.2228778672124"/><rect x="517.3469462229875" y="239.20152701211595" width="27.612215108049895" height="160.79847298788405"/><rect x="547.9591613310374" y="236.4072769367842" width="27.61223943647576" height="163.5927230632158"/><rect x="578.5714007675132" y="238.3705020453378" width="27.61226376490174" height="161.6294979546622"/><rect x="609.1836645324149" y="244.40537359118824" width="27.612215108049895" height="155.59462640881176"/></g><text class="poloto_text" alignment-baseline="middle" text-anchor="start" font-size="large" x="675" y="250">sin-20</text><rect class="poloto3fill" x="680" y="226.25" width="50" height="7.5" rx="5" ry="5"/><path class="poloto3fill" d=" M 150 400 L 150 386.41357228486015 L 160.20408082584302 383.7039712286985 L 170.40816165168604 381.1024056293939 L 180.61224247752904 378.7125666333545 L 190.81632330337206 376.6297429182754 L 201.02040717026833 374.936970645555 L 211.2244849550581 373.70172970324717 L 221.42856882195434 372.9732902948885 L 231.63264660674412 372.78065784653137 L 241.83673655574688 373.1315064395081 L 252.04081434053666 374.0118926582454 L 262.2448982074329 375.38669782546015 L 272.4489699101162 377.20111079075554 L 282.6530537770125 379.3827870789281 L 292.8571376439087 381.84476243949075 L 303.061221510805 384.4888606590605 L 313.26529321348823 387.20972570578783 L 323.46938924459755 389.8988278599502 L 333.67347311149376 392.44899012124614 L 343.87754481417704 394.75855042239965 L 354.0816286810733 396.7353937735886 L 364.2857003837566 398.30077629619353 L 374.48979641486585 399.3922387723204 L 384.6938681175491 399.9662600559731 L 394.8979398202324 400 L 405.1020358513416 399.4920798711448 L 415.3061075540249 398.4627904607267 L 425.51020358513415 396.9531035589094 L 435.71427528781743 395.02326720760993 L 445.9183469905007 392.75015228932585 L 456.12244302160997 390.22444303295305 L 466.32651472429325 387.5468129800365 L 476.5305864269765 384.82399689568234 L 486.73470678651177 382.16452449961304 L 496.93877848919504 379.6744802110589 L 507.1428501918783 377.4531068106388 L 517.3469462229875 375.5889293789414 L 527.5510179256707 374.156321470302 L 537.7550896283541 373.2123574387645 L 547.9591613310374 372.79470531744465 L 558.1632573621466 372.9199619330881 L 568.3673290648298 373.5831846570401 L 578.5714007675132 374.75791741908074 L 588.7755211270485 376.39733531616565 L 598.9795928297317 378.43603956704305 L 609.1836645324149 380.79278896493116 L 619.3877362350981 383.37362153772114 L 629.5918079377815 386.0756525678907 L 639.7958796404648 388.791158764603 L 650 391.41189656032066 L 650 400Z"/><text class="poloto_text" alignment-baseline="start" text-anchor="middle" font-size="x-large" x="400" y="37.5">Some Trigonometry Plots 🥳</text><text class="poloto_text" alignment-baseline="start" text-anchor="middle" font-size="x-large" x="400" y="481.25">This is the x label</text><text class="poloto_text" alignment-baseline="start" text-anchor="middle" font-size="x-large" transform="rotate(-90,37.5,250)" x="37.5" y="250">This is the y label</text><path stroke="black" fill="none" class="poloto_axis_lines" d=" M 150 100 L 150 400 L 650 400"/></svg>