<svg class="poloto" width="800" height="500" viewBox="0 0 800 500" xmlns="http://www.w3.org/2000/svg" ><style>.poloto {stroke-linecap:round;font-family: sans-serif;stroke-width:2;}.scatter{stroke-width:7}.poloto_text{fill: white;}.poloto_axis_lines{stroke: white;stoke-width:3;fill:none}.poloto_background{fill: black;}.poloto0stroke{stroke:  blue;}.poloto1stroke{stroke:  red;}.poloto2stroke{stroke:  green;}.poloto3stroke{stroke:  gold;}.poloto4stroke{stroke:  aqua;}.poloto5stroke{stroke:  brown;}.poloto6stroke{stroke:  lime;}.poloto7stroke{stroke:  chocolate;}.poloto0fill{fill:blue;}.poloto1fill{fill:red;}.poloto2fill{fill:green;}.poloto3fill{fill:gold;}.poloto4fill{fill:aqua;}.poloto5fill{fill:brown;}.poloto6fill{fill:lime;}.poloto7fill{fill:chocolate;}</style><rect class="poloto_background" fill="white" x="0" y="0" width="800" height="500" /><line class="poloto0stroke" stroke="black" x1="680" x2="730" y1="81.25" y2="81.25" /><path class="poloto0stroke" fill="none" stroke="black" d=" M 150 327.36796452476096 L 151.00200400801603 327.21335770354517 L 152.00400801603206 327.0586271143618 L 153.0060120240481 326.90364859260393 L 154.00801603206412 326.74829717768205 L 155.01002004008015 326.5924467082407 L 156.01202404809618 326.435969409135 L 157.01402805611224 326.2787354672707 L 158.01603206412827 326.1206125932771 L 159.0180360721443 325.96146556581397 L 160.02004008016033 325.8011557551011 L 161.02204408817636 325.6395406220048 L 162.0240480961924 325.47647318870986 L 163.02605210420842 325.3118014766453 L 164.02805611222445 325.14536790690937 L 165.03006012024048 324.97700865794445 L 166.0320641282565 324.8065529746383 L 167.03406813627254 324.6338224223584 L 168.03607214428857 324.4586300786503 L 169.0380761523046 324.28077965443003 L 170.04008016032066 324.10006453545174 L 171.0420841683367 323.91626673361685 L 172.04408817635272 323.729155736273 L 173.04609218436875 323.53848723999937 L 174.04809619238478 323.3440017534458 L 175.0501002004008 323.1454230515361 L 176.05210420841684 322.94245646069464 L 177.05410821643287 322.73478695164226 L 178.0561122244489 322.5220770126319 L 179.05811623246493 322.30396427165044 L 180.06012024048096 322.0800588309603 L 181.06212424849699 321.8499402712208 L 182.06412825651302 321.6131542751128 L 183.06613226452907 321.3692088116157 L 184.0681362725451 321.1175698115484 L 185.07014028056113 320.8576562522548 L 186.07214428857716 320.58883455390054 L 187.0741482965932 320.31041217108105 L 188.07615230460922 320.02163024051606 L 189.07815631262525 319.72165511745436 L 190.08016032064128 319.40956859868766 L 191.0821643286573 319.08435658702285 L 192.08416833667334 318.74489589840465 L 193.08617234468937 318.38993884563536 L 194.0881763527054 318.0180951478708 L 195.09018036072143 317.6278106075549 L 196.09218436873746 317.21734185920064 L 197.0941883767535 316.78472631800315 L 198.09619238476955 316.3277462278594 L 199.09819639278558 315.843885410359 L 200.1002004008016 315.330276924332 L 201.10220440881764 314.78363932545255 L 202.10420841683367 314.200198518948 L 203.1062124248497 313.57559125658776 L 204.10821643286573 312.90474504181395 L 205.11022044088176 312.1817274273908 L 206.1122244488978 311.3995551999185 L 207.11422845691385 310.5499504151207 L 208.11623246492985 309.6230251704312 L 209.11823647294588 308.60686958538656 L 210.1202404809619 307.4870064442724 L 211.12224448897797 306.2456592868672 L 212.124248496994 304.86075499444087 L 213.12625250501003 303.3045412727377 L 214.12825651302606 301.54163362911925 L 215.1302605210421 299.5261968958076 L 216.13226452905812 297.1977781837876 L 217.13426853707415 294.4749732312274 L 218.1362725450902 291.2454871991687 L 219.1382765531062 287.34994427966205 L 220.14028056112227 282.5543220817956 L 221.14228456913827 276.5004499872141 L 222.14428857715433 268.61109188388514 L 223.14629258517033 257.89222701590023 L 224.1482965931864 242.47401742932908 L 225.1503006012024 218.37371378408 L 226.15230460921845 175.33608012897838 M 234.1683366733467 397.8652334544553 L 235.17034068136275 386.857390879142 L 236.17234468937875 378.78673255556146 L 237.17434869739478 372.6116990084487 L 238.1763527054108 367.7311243115277 L 239.17835671342687 363.7737265855935 L 240.18036072144287 360.4978111256547 L 241.18236472945893 357.73926986237996 L 242.18436873747493 355.38276053614806 L 243.18637274549098 353.34484456514184 L 244.18837675350701 351.5636689978508 L 245.19038076152304 349.9924095560006 L 246.19238476953907 348.5949669009341 L 247.1943887775551 347.3430617134396 L 248.19639278557116 346.2142254213898 L 249.19839679358716 345.1903801489881 L 250.20040080160322 344.25681569201345 L 251.20240480961922 343.40143978080584 L 252.20440881763528 342.61422008788276 L 253.2064128256513 341.88676310673554 L 254.20841683366734 341.2119922704677 L 255.21042084168337 340.5838990564319 L 256.2124248496994 339.9973484715692 L 257.21442885771546 339.44792554299306 L 258.21643286573146 338.9318130704991 L 259.2184368737475 338.445693456638 L 260.2204408817635 337.98666925689105 L 261.2224448897796 337.5521984128573 L 262.2244488977956 337.1400410965798 L 263.22645290581164 336.748215807273 L 264.2284569138277 336.3749628938465 L 265.2304609218437 336.01871407739924 L 266.2324649298597 335.6780668523499 L 267.23446893787576 335.35176287810214 L 268.23647294589176 335.03866965318394 L 269.2384769539078 334.7377649037911 L 270.2404809619238 334.44812322826334 L 271.2424849699399 334.1689046253925 L 272.24448897795594 333.8993446029432 L 273.24649298597194 333.6387456173846 L 274.248496993988 333.3864696396356 L 275.250501002004 333.14193167694407 L 276.25250501002006 332.90459410963894 L 277.25450901803606 332.6739617247964 L 278.2565130260521 332.4495773479231 L 279.2585170340682 332.2310179894174 L 280.2605210420842 332.0178914354903 L 281.2625250501002 331.80983322392825 L 282.26452905811624 331.6065039539776 L 283.2665330661323 331.4075868870555 L 284.2685370741483 331.2127858012112 L 285.2705410821643 331.0218230674844 L 286.2725450901804 330.83443792071233 L 287.2745490981964 330.6503849010603 L 288.2765531062124 330.46943244570514 L 289.2785571142285 330.2913616127859 L 290.28056112224453 330.1159649220225 L 291.28256513026054 329.9430452983562 L 292.28456913827654 329.77241510663725 L 293.2865731462926 329.60389526682155 L 294.28857715430865 329.4373144403662 L 295.29058116232466 329.2725082795779 L 296.29258517034066 329.10931873257573 L 297.2945891783567 328.9475933973205 L 298.2965931863728 328.7871849188342 L 299.2985971943888 328.6279504243201 L 300.3006012024048 328.4697509913906 L 301.30260521042084 328.3124511450412 L 302.3046092184369 328.1559183793717 L 303.3066132264529 328.00002270036634 L 304.30861723446895 327.8446361863038 L 305.310621242485 327.68963256258183 L 306.312625250501 327.53488678791507 L 307.314629258517 327.380274648999 L 308.3166332665331 327.225672360834 L 309.31863727454913 327.0709561699705 L 310.32064128256513 326.91600195796855 L 311.32264529058114 326.760684842369 L 312.32464929859725 326.60487877244555 L 313.32665330661325 326.44845611694154 L 314.32865731462925 326.2912872409063 L 315.3306613226453 326.13324006861086 L 316.33266533066137 325.9741796293597 L 317.3346693386774 325.8139675828054 L 318.3366733466934 325.6524617201231 L 319.33867735470943 325.48951543709836 L 320.3406813627255 325.3249771748294 L 321.3426853707415 325.15868982332313 L 322.3446893787575 324.99049008277996 L 323.34669338677355 324.8202077767915 L 324.34869739478955 324.6476651110155 L 325.3507014028056 324.47267587012493 L 326.3527054108216 324.29504454493747 L 327.3547094188377 324.1145653805975 L 328.35671342685373 323.931021335479 L 329.35871743486973 323.74418293907894 L 330.36072144288573 323.5538070355397 L 331.36272545090185 323.35963539753203 L 332.36472945891785 323.161393193002 L 333.36673346693385 322.9587872846691 L 334.36873747494985 322.75150433908766 L 335.37074148296597 322.5392087184579 L 336.37274549098197 322.32154012408705 L 337.37474949899797 322.0981109553169 L 338.37675350701403 321.86850334168804 L 339.3787575150301 321.63226579889454 L 340.3807615230461 321.3889094504392 L 341.38276553106215 321.13790374651194 L 342.38476953907815 320.87867159907864 L 343.3867735470942 320.6105838369863 L 344.3887775551102 320.3329528664202 L 345.39078156312627 320.0450253994904 L 346.3927855711423 319.7459740860308 L 347.3947895791583 319.4348878495586 L 348.39679358717433 319.1107606860221 L 349.39879759519044 318.77247863125734 L 350.40080160320645 318.41880453703806 L 351.40280561122245 318.04836021240254 L 352.40480961923845 317.6596053814668 L 353.40681362725456 317.25081277435334 L 354.40881763527057 316.82003849498136 L 355.41082164328657 316.36508658576264 L 356.4128256513026 315.88346641756885 L 357.4148296593186 315.3723411499397 L 358.4168336673347 314.82846499816213 L 359.4188376753507 314.2481063636508 L 360.42084168336675 313.62695296490085 L 361.42284569138275 312.959993851118 L 362.4248496993988 312.2413714471874 L 363.4268537074148 311.4641943554899 L 364.42885771543087 310.62029820817224 L 365.4308617234469 309.69993693362744 L 366.4328657314629 308.69137960961314 L 367.4348697394789 307.5803774080813 L 368.43687374749504 306.3494490205481 L 369.43887775551104 304.97690810910217 L 370.44088176352705 303.4355171693328 L 371.44288577154305 301.6905889257694 L 372.44488977955916 299.6972513075108 L 373.44689378757516 297.3964120424056 L 374.4488977955912 294.70863947019086 L 375.4509018036072 291.524586012874 L 376.4529058116233 287.6894384201572 L 377.4549098196393 282.9765438329961 L 378.45691382765534 277.0402674719586 L 379.45891783567134 269.32611960475697 L 380.4609218436874 258.88492325654835 L 381.4629258517034 243.94561250728228 L 382.46492985971946 220.77985389174776 L 383.4669338677355 179.9660172389166 M 391.48296593186376 398.9168803630363 L 392.48496993987976 387.60812680359135 L 393.48697394789576 379.34979224191534 L 394.4889779559118 373.0498857082183 L 395.4909819639279 368.08205304509244 L 396.4929859719439 364.0612935943857 L 397.4949899799599 360.7379224628968 L 398.496993987976 357.94292196818753 L 399.498997995992 355.5577981502313 L 400.501002004008 353.49701405337777 L 401.503006012024 351.69727583588184 L 402.5050100200401 350.1107432466414 L 403.5070140280561 348.70058393399205 L 404.5090180360721 347.4379789677327 L 405.5110220440881 346.3000554151782 L 406.51302605210424 345.26842756081476 L 407.5150300601203 344.3281474993407 L 408.5170340681363 343.4669370616481 L 409.5190380761523 342.6746168442211 L 410.52104208416836 341.9426757506853 L 411.5230460921844 341.26394229191754 L 412.5250501002004 340.63233064328574 L 413.5270541082164 340.04264234681375 L 414.5290581162325 339.4904099334661 L 415.53106212424854 338.9717724778538 L 416.53306613226454 338.48337572767946 L 417.53507014028054 338.0222913259616 L 418.5370741482966 337.58595099845513 L 419.53907815631266 337.17209256789295 L 420.54108216432866 336.7787153869338 L 421.5430861723447 336.40404332619886 L 422.5450901803608 336.0464938635732 L 423.5470941883768 335.70465213208087 L 424.54909819639283 335.3772490218121 L 425.55110220440883 335.06314261511966 L 426.5531062124249 334.76130237709 L 427.55511022044095 334.47079563502297 L 428.55711422845695 334.19077596865816 L 429.55911823647295 333.92047320262856 L 430.561122244489 333.6591847482223 L 431.56312625250507 333.40626808610546 L 432.565130260521 333.16113421757865 L 433.567134268537 332.9232419410391 L 434.5691382765531 332.6920928340024 L 435.57114228456913 332.46722684040105 L 436.5731462925852 332.2482183787853 L 437.5751503006012 332.03467290016357 L 438.57715430861725 331.8262238350856 L 439.57915831663325 331.62252987859557 L 440.5811623246493 331.42327256921817 L 441.5831663326653 331.2281541244433 L 442.5851703406814 331.03689550047346 L 443.5871743486974 330.8492346484614 L 444.58917835671343 330.66492494323717 L 445.59118236472943 330.483733763723 L 446.5931863727455 330.3054412069507 L 447.5951903807615 330.12983891991354 L 448.59719438877755 329.956729035462 L 449.59919839679355 329.7859232001453 L 450.6012024048096 329.6172416833524 L 451.6032064128256 329.4505125583538 L 452.6052104208417 329.2855709469159 L 453.60721442885773 329.12225832008596 L 454.60921843687373 328.9604218485366 L 455.6112224448898 328.7999137965475 L 456.61322645290585 328.6405909542888 L 457.61523046092185 328.482314103578 L 458.6172344689379 328.3249475127153 L 459.6192384769539 328.16835845637337 L 460.62124248496997 328.0124167568289 L 461.62324649298597 327.85699434308947 L 462.62525050100203 327.70196482468384 L 463.62725450901803 327.5472030770617 L 464.6292585170341 327.3925848356876 L 465.6312625250501 327.23798629601583 L 466.63326653306615 327.08328371660144 L 467.63527054108215 326.92835302264234 L 468.6372745490982 326.77306940724804 L 469.6392785571142 326.61730692770817 L 470.64128256513027 326.4609380939728 L 471.64328657314627 326.30383344646464 L 472.6452905811623 326.1458611202181 L 473.6472945891784 325.9868863921741 L 474.64929859719444 325.8267712082569 L 475.65130260521045 325.66537368661125 L 476.6533066132265 325.5025475930795 L 477.6553106212425 325.3381417846495 L 478.65731462925856 325.1719996161896 L 479.65931863727457 325.00395830530647 L 480.6613226452906 324.8338482495983 L 481.6633266533066 324.66149228992487 L 482.6653306613227 324.486704912556 L 483.6673346693387 324.30929138218085 L 484.66933867735474 324.1290467967381 L 485.67134268537075 323.94575505383875 L 486.6733466933868 323.7591877171694 L 487.6753507014028 323.56910276965493 L 488.67735470941886 323.37524323827444 L 489.67935871743487 323.177335673225 L 490.6813627254509 322.9750884615442 L 491.683366733467 322.7681899522673 L 492.685370741483 322.556306366617 L 493.68737474949904 322.33907946249496 L 494.689378757515 322.1161239175282 L 495.69138276553105 321.88702438896297 L 496.6933867735471 321.6513322015827 L 497.6953907815631 321.4085616063078 L 498.6973947895791 321.1581855418991 L 499.69939879759517 320.89963081984234 L 500.7014028056112 320.63227263753606 L 501.7034068136272 320.3554283067314 L 502.7054108216432 320.06835006196627 L 503.7074148296593 319.77021678650283 L 504.70941883767534 319.460124459706 L 505.71142284569135 319.13707508820926 L 506.7134268537074 318.79996383143066 L 507.71543086172346 318.4475639671531 L 508.7174348697395 318.07850926121745 L 509.7194388777555 317.69127320190046 L 510.7214428857715 317.2841444275879 L 511.7234468937876 316.85519750692896 L 512.7254509018037 316.40225801155725 L 513.7274549098197 315.92286053597076 L 514.7294589178357 315.4141979441358 L 515.7314629258517 314.8730596254994 L 516.7334669338677 314.29575587871886 L 517.7354709418837 313.6780246443714 L 518.7374749498997 313.0149155839906 L 519.7394789579158 312.30064481406157 L 520.7414829659319 311.5284112453302 L 521.7434869739479 310.6901621413769 L 522.7454909819639 309.776290723324 L 523.7474949899799 308.7752416733688 L 524.7494989979959 307.6729900589411 L 525.7515030060121 306.45234361511365 L 526.7535070140281 305.0919943396136 L 527.7555110220442 303.56520762231605 L 528.7575150300602 301.8379762956811 L 529.7595190380762 299.8663661896237 L 530.7615230460922 297.5926075309857 L 531.7635270541082 294.9391817792058 L 532.7655310621243 291.7995923886218 L 533.7675350701403 288.02342622807026 L 534.7695390781563 283.391111448712 L 535.7715430861724 277.56900381747954 L 536.7735470941884 270.02424634936784 L 537.7755511022044 259.84999306638963 L 538.7775551102204 245.36747055735034 L 539.7795591182364 223.08257377174743 L 540.7815631262525 184.32299693772092 L 541.7835671342685 100 M 548.7975951903809 400 L 549.7995991983969 388.3777343309247 L 550.8016032064129 379.9250444565033 L 551.8036072144289 373.496400046115 L 552.8056112224449 368.43891968556306 L 553.8076152304609 364.3532422080601 L 554.8096192384769 360.98135867877386 L 555.8116232464931 358.1491563963799 L 556.8136272545091 355.73488110120184 L 557.815631262525 353.65083097055776 L 558.8176352705411 351.832229005715 L 559.8196392785571 350.2301912391818 L 560.8216432865731 348.80713358187734 L 561.8236472945891 347.53368454384446 L 562.8256513026053 346.38655768265716 L 563.8276553106213 345.34705285382614 L 564.8296593186373 344.39997962348104 L 565.8316633266533 343.5328703313927 L 566.8336673346694 342.73539578825773 L 567.8356713426854 341.99892523734854 L 568.8376753507014 341.3161906668378 L 569.8396793587174 340.68102769972484 L 570.8416833667335 340.0881734266374 L 571.8436873747495 339.53310709705045 L 572.8456913827655 339.01192342991783 L 573.8476953907816 338.5212310079951 L 574.8496993987976 338.0580701461268 L 575.8517034068136 337.6198460131322 L 576.8537074148296 337.2042738007873 L 577.8557114228456 336.8093334812456 L 578.8577154308617 336.4332322514187 L 579.8597194388778 336.07437318187726 L 580.8617234468938 335.7313289057628 L 581.8637274549098 335.4028194264272 L 582.8657314629259 335.08769331003714 L 583.8677354709419 334.78491167502864 L 584.8697394789579 334.4935345042011 L 585.8717434869739 334.2127088949123 L 586.8737474949901 333.9416589338671 L 587.8757515030061 333.67967693959326 L 588.8777555110221 333.42611586105073 L 589.8797595190381 333.1803826573604 L 590.8817635270541 332.94193251321946 L 591.8837675350701 332.71026376864427 L 592.8857715430861 332.4849134613514 L 593.8877755511022 332.26545339624647 L 594.8897795591183 332.0514866698026 L 595.8917835671343 331.84264458813846 L 596.8937875751503 331.63858392676343 L 597.8957915831663 331.43898448760046 L 598.8977955911824 331.2435469152907 L 599.8997995991984 331.05199074015445 L 600.9018036072144 330.8640526197066 L 601.9038076152304 330.67948475444956 L 602.9058116232466 330.49805345690413 L 603.9078156312626 330.3195378555945 L 604.9098196392786 330.14372871804574 L 605.9118236472946 329.97042737885846 L 606.9138276553107 329.7994447606362 L 607.9158316633267 329.6306004770124 L 608.9178356713427 329.4637220082843 L 609.9198396793587 329.2986439412479 L 610.9218436873748 329.1352072657617 L 611.9238476953908 328.97325872137003 L 612.9258517034068 328.81265018801275 L 613.9278557114228 328.65323811544135 L 614.9298597194389 328.494882986477 L 615.931863727455 328.3374488096821 L 616.933867735471 328.1808026373946 L 617.935871743487 328.02481410538985 L 618.937875751503 327.8693549907032 L 619.939879759519 327.7142987843666 L 620.941883767535 327.55952027599227 L 621.943887775551 327.4048951472788 L 622.945891783567 327.2502995716187 L 623.947895791583 327.0956098170592 L 624.9498997995993 326.9407018499089 L 625.9519038076153 326.7854509362871 L 626.9539078156313 326.62973123889157 L 627.9559118236473 326.47341540620323 L 628.9579158316633 326.316374151256 L 629.9599198396794 326.1584758169785 L 630.9619238476954 325.99958592495113 L 631.9639278557114 325.8395667042217 L 632.9659318637275 325.67827659658064 L 633.9679358717435 325.51556973440023 L 634.9699398797595 325.3512953867986 L 635.9719438877755 325.1852973694808 L 636.9739478957915 325.0174134131335 L 637.9759519038076 324.84747448469346 L 638.9779559118236 324.6753040551672 L 639.9799599198396 324.5007173069282 L 640.9819639278558 324.32352027254876 L 641.9839679358718 324.1435088962138 L 642.9859719438878 323.96046800758955 L 643.9879759519038 323.77417019665353 L 644.9899799599198 323.5843745764016 L 645.9919839679359 323.39082541848757 L 646.993987975952 323.1932506446776 L 647.995991983968 322.99136015445197 L 648.997995991984 322.78484396609076 L 650 322.5733701450478"></path><text class="poloto_text" alignment-baseline="middle" text-anchor="start" font-size="large" x="675" y="100" >tan(x)</text><line class="poloto1stroke" stroke="black" x1="680" x2="730" y1="131.25" y2="131.25" /><path class="poloto1stroke" fill="none" stroke="black" d=" M 150 327.36796452476096 L 151.00200400801603 327.0588745512959 L 152.00400801603206 326.75027905585273 L 153.0060120240481 326.4426717253939 L 154.00801603206412 326.1365446660288 L 155.01002004008015 325.83238761574876 L 156.01202404809618 325.53068716095095 L 157.01402805611224 325.23192595800356 L 158.01603206412827 324.9365819610991 L 159.0180360721443 324.6451276576292 L 160.02004008016033 324.3580293123058 L 161.02204408817636 324.07574622123707 L 162.0240480961924 323.79872997715154 L 163.02605210420842 323.5274237469461 L 164.02805611222445 323.2622615627135 L 165.03006012024048 323.00366762738355 L 166.0320641282565 322.7520556360891 L 167.03406813627254 322.5078281143418 L 168.03607214428857 322.27137577407734 L 169.0380761523046 322.0430768885997 L 170.04008016032066 321.82329668742454 L 171.0420841683367 321.61238677198963 L 172.04408817635272 321.4106845531681 L 173.04609218436875 321.2185127114825 L 174.04809619238478 321.0361786808851 L 175.0501002004008 320.86397415692886 L 176.05210420841684 320.70217463011727 L 177.05410821643287 320.55103894517777 L 178.0561122244489 320.4108088869657 L 179.05811623246493 320.2817087936601 L 180.06012024048096 320.16394519787025 L 181.06212424849699 320.057706496228 L 182.06412825651302 319.9631626479928 L 183.06613226452907 319.8804649031536 L 184.0681362725451 319.80974556046095 L 185.07014028056113 319.75111775577716 L 186.07214428857716 319.70467528108304 L 187.0741482965932 319.67049243443097 L 188.07615230460922 319.6486239010836 L 189.07815631262525 319.6391046660293 L 190.08016032064128 319.64194995801347 L 191.0821643286573 319.6571552251759 L 192.08416833667334 319.68469614233277 L 193.08617234468937 319.7245286498916 L 194.0881763527054 319.7765890243376 L 195.09018036072143 319.84079398017724 L 196.09218436873746 319.91704080317743 L 197.0941883767535 320.0052075146865 L 198.09619238476955 320.105153066774 L 199.09819639278558 320.21671756787714 L 200.1002004008016 320.33972253859326 L 201.10220440881764 320.473971197209 L 202.10420841683367 320.6192487745086 L 203.1062124248497 320.7753228573594 L 204.10821643286573 320.9419437605228 L 205.11022044088176 321.1188449260977 L 206.1122244488978 321.30574334995606 L 207.11422845691385 321.5023400344892 L 208.11623246492985 321.7083204669403 L 209.11823647294588 321.92335512255755 L 210.1202404809619 322.1470999917636 L 211.12224448897797 322.3791971304974 L 212.124248496994 322.61927523284845 L 213.12625250501003 322.86695022506683 L 214.12825651302606 323.1218258799996 L 215.1302605210421 323.38349445096935 L 216.13226452905812 323.6515373240822 L 217.13426853707415 323.92552568792064 L 218.1362725450902 324.20502121955025 L 219.1382765531062 324.4895767857429 L 220.14028056112227 324.7787371582947 L 221.14228456913827 325.07203974229384 L 222.14428857715433 325.3690153161737 L 223.14629258517033 325.6691887823676 L 224.1482965931864 325.9720799273631 L 225.1503006012024 326.2772041899417 L 226.15230460921845 326.5840734363728 L 227.15430861723448 326.89219674132414 L 228.1563126252505 327.2010811732373 L 229.15831663326654 327.51023258291303 L 230.16032064128257 327.81915639404457 L 231.16232464929863 328.1273583944344 L 232.16432865731463 328.43434552662814 L 233.16633266533069 328.7396266767014 L 234.1683366733467 329.0427134599372 L 235.17034068136275 329.3431210021374 L 236.17234468937875 329.6403687153181 L 237.17434869739478 329.9339810665476 L 238.1763527054108 330.22348833869785 L 239.17835671342687 330.5084273818918 L 240.18036072144287 330.78834235444396 L 241.18236472945893 331.06278545211035 L 242.18436873747493 331.3313176244794 L 243.18637274549098 331.59350927735915 L 244.18837675350701 331.8489409600362 L 245.19038076152304 332.09720403630746 L 246.19238476953907 332.3379013382109 L 247.1943887775551 332.57064780140945 L 248.19639278557116 332.79507108121186 L 249.19839679358716 333.010812148245 L 250.20040080160322 333.2175258628239 L 251.20240480961922 333.41488152710167 L 252.20440881763528 333.60256341411593 L 253.2064128256513 333.780271272884 L 254.20841683366734 333.94772080874094 L 255.21042084168337 334.10464413815 L 256.2124248496994 334.25079021725924 L 257.21442885771546 334.3859252435184 L 258.21643286573146 334.5098330297126 L 259.2184368737475 334.62231534981623 L 260.2204408817635 334.7231922561121 L 261.2224448897796 334.8123023670694 L 262.2244488977956 334.88950312551964 L 263.22645290581164 334.9546710267181 L 264.2284569138277 335.0077018159244 L 265.2304609218437 335.0485106551886 L 266.2324649298597 335.0770322590732 L 267.23446893787576 335.0932209990963 L 268.23647294589176 335.0970509767273 L 269.2384769539078 335.08851606481903 L 270.2404809619238 335.06762991740976 L 271.2424849699399 335.03442594788 L 272.24448897795594 334.98895727549774 L 273.24649298597194 334.93129664043937 L 274.248496993988 334.8615362874208 L 275.250501002004 334.77978781812527 L 276.25250501002006 334.68618201266503 L 277.25450901803606 334.5808686203606 L 278.2565130260521 334.46401612017405 L 279.2585170340682 334.3358114511784 L 280.2605210420842 334.19645971349524 L 281.2625250501002 334.04618384017806 L 282.26452905811624 333.885224240567 L 283.2665330661323 333.7138384156853 L 284.2685370741483 333.5323005462923 L 285.2705410821643 333.3409010542531 L 286.2725450901804 333.13994613792516 L 287.2745490981964 332.9297572823066 L 288.2765531062124 332.7106707447285 L 289.2785571142285 332.4830370169149 L 290.28056112224453 332.2472202642712 L 291.28256513026054 332.00359774329667 L 292.28456913827654 331.75255919805477 L 293.2865731462926 331.494506236666 L 294.28857715430865 331.2298516888201 L 295.29058116232466 330.959018945337 L 296.29258517034066 330.6824412808317 L 297.2945891783567 330.40056116056735 L 298.2965931863728 330.1138295326052 L 299.2985971943888 329.8227051063838 L 300.3006012024048 329.52765361888186 L 301.30260521042084 329.2291470895384 L 302.3046092184369 328.92766306512243 L 303.3066132264529 328.62368385575985 L 304.30861723446895 328.3176957633401 L 305.310621242485 328.0101883035372 L 306.312625250501 327.70165342268865 L 307.314629258517 327.39258471078665 L 308.3166332665331 327.083476611839 L 309.31863727454913 326.7748236328645 L 310.32064128256513 326.46711955278704 L 311.32264529058114 326.16085663249476 L 312.32464929859725 325.8565248273275 L 313.32665330661325 325.55461100325283 L 314.32865731462925 325.2555981579845 L 315.3306613226453 324.9599646482888 L 316.33266533066137 324.6681834247163 L 317.3346693386774 324.3807212749812 L 318.3366733466934 324.0980380772013 L 319.33867735470943 323.82058606419025 L 320.3406813627255 323.5488090999825 L 321.3426853707415 323.28314196974463 L 322.3446893787575 323.0240096842125 L 323.34669338677355 322.7718267997643 L 324.34869739478955 322.526996755219 L 325.3507014028056 322.28991122642026 L 326.3527054108216 322.0609494996386 L 327.3547094188377 321.84047786479425 L 328.35671342685373 321.62884902947167 L 329.35871743486973 321.4264015546621 L 330.36072144288573 321.23345931313895 L 331.36272545090185 321.0503309713297 L 332.36472945891785 320.87730949551604 L 333.36673346693385 320.7146716831499 L 334.36873747494985 320.5626777200369 L 335.37074148296597 320.4215707640944 L 336.37274549098197 320.2915765563506 L 337.37474949899797 320.1729030598074 L 338.37675350701403 320.06574012674355 L 339.3787575150301 319.9702591949917 L 340.3807615230461 319.8866130136745 L 341.38276553106215 319.81493539883854 L 342.38476953907815 319.75534101937706 L 343.3867735470942 319.7079252135845 L 344.3887775551102 319.6727638366352 L 345.39078156312627 319.6499131392317 L 346.3927855711423 319.6394096776152 L 347.3947895791583 319.6412702550837 L 348.39679358717433 319.6554918951102 L 349.39879759519044 319.68205184610434 L 350.40080160320645 319.72090761781044 L 351.40280561122245 319.7719970492825 L 352.40480961923845 319.8352384083287 L 353.40681362725456 319.9105305222653 L 354.40881763527057 319.9977529397715 L 355.41082164328657 320.0967661235857 L 356.4128256513026 320.2074116737356 L 357.4148296593186 320.3295125809439 L 358.4168336673347 320.462873509806 L 359.4188376753507 320.6072811112845 L 360.42084168336675 320.76250436402245 L 361.42284569138275 320.92829494392777 L 362.4248496993988 321.1043876214396 L 363.4268537074148 321.29050068583825 L 364.42885771543087 321.4863363959227 L 365.4308617234469 321.69158145633287 L 366.4328657314629 321.9059075187554 L 367.4348697394789 322.1289717072108 L 368.43687374749504 322.3604171665821 L 369.43887775551104 322.5998736335067 L 370.44088176352705 322.8469580287189 L 371.44288577154305 323.10127506989477 L 372.44488977955916 323.3624179040199 L 373.44689378757516 323.6299687582671 L 374.4488977955912 323.90349960834425 L 375.4509018036072 324.18257286324115 L 376.4529058116233 324.4667420652825 L 377.4549098196393 324.7555526043646 L 378.45691382765534 325.0485424452345 L 379.45891783567134 325.345242866648 L 380.4609218436874 325.64517921122354 L 381.4629258517034 325.94787164479277 L 382.46492985971946 326.252835924033 L 383.4669338677355 326.55958417115295 L 384.4689378757515 326.8676256543934 L 385.4709418837675 327.1764675730932 L 386.4729458917835 327.4856158460651 L 387.47494989979964 327.7945759020206 L 388.47695390781564 328.102853470778 L 389.47895791583164 328.40995537398976 L 390.4809619238477 328.71539031412226 L 391.48296593186376 329.0186696604273 L 392.48496993987976 329.3193082306469 L 393.48697394789576 329.61682506720155 L 394.4889779559118 329.9107442066196 L 395.4909819639279 330.20059544097745 L 396.4929859719439 330.48591507013174 L 397.4949899799599 330.7662466435407 L 398.496993987976 331.0411416904878 L 399.498997995992 331.3101604375391 L 400.501002004008 331.57287251208686 L 401.503006012024 331.82885763085415 L 402.5050100200401 332.07770627225807 L 403.5070140280561 332.3190203315574 L 404.5090180360721 332.5524137577347 L 405.5110220440881 332.7775131710961 L 406.51302605210424 332.99395846059883 L 407.5150300601203 333.20140335995234 L 408.5170340681363 333.3995160015701 L 409.5190380761523 333.5879794474872 L 410.52104208416836 333.7664921963938 L 411.5230460921844 333.93476866597223 L 412.5250501002004 334.09253964976824 L 413.5270541082164 334.2395527478637 L 414.5290581162325 334.37557277066287 L 415.53106212424854 334.50038211514527 L 416.53306613226454 334.6137811129843 L 417.53507014028054 334.715588349974 L 418.5370741482966 334.80564095625283 L 419.53907815631266 334.8837948668609 L 420.54108216432866 334.9499250522133 L 421.5430861723447 335.0039257181204 L 422.5450901803608 335.04571047503634 L 423.5470941883768 335.0752124762636 L 424.54909819639283 335.09238452489365 L 425.55110220440883 335.09719914931185 L 426.5531062124249 335.08964864714625 L 427.55511022044095 335.0697450975896 L 428.55711422845695 335.03752034207525 L 429.55911823647295 334.99302593333795 L 430.561122244489 334.93633305293986 L 431.56312625250507 334.8675323973959 L 432.565130260521 334.78673403307823 L 433.567134268537 334.69406722013366 L 434.5691382765531 334.589680205695 L 435.57114228456913 334.4737399867174 L 436.5731462925852 334.3464320428186 L 437.5751503006012 334.2079600395512 L 438.57715430861725 334.0585455025814 L 439.57915831663325 333.8984274632949 L 440.5811623246493 333.72786207639786 L 441.5831663326653 333.54712221012403 L 442.5851703406814 333.35649700970356 L 443.5871743486974 333.1562914347927 L 444.58917835671343 332.94682577160296 L 445.59118236472943 332.7284351205119 L 446.5931863727455 332.50146885997367 L 447.5951903807615 332.2662900875883 L 448.59719438877755 332.0232750392228 L 449.59919839679355 331.77281248711415 L 450.6012024048096 331.51530311791646 L 451.6032064128256 331.25115889168814 L 452.6052104208417 330.9808023828433 L 453.60721442885773 330.7046661041232 L 454.60921843687373 330.4231918146678 L 455.6112224448898 330.13682981329566 L 456.61322645290585 329.84603821812163 L 457.61523046092185 329.5512822336657 L 458.6172344689379 329.25303340662515 L 459.6192384769539 328.9517688715002 L 460.62124248496997 328.6479705872807 L 461.62324649298597 328.34212456641455 L 462.62525050100203 328.0347200972915 L 463.62725450901803 327.726248961486 L 464.6292585170341 327.41720464701166 L 465.6312625250501 327.10808155884575 L 466.63326653306615 326.79937422798656 L 467.63527054108215 326.4915765203094 L 468.6372745490982 326.18518084648656 L 469.6392785571142 325.88067737423523 L 470.64128256513027 325.57855324415374 L 471.64328657314627 325.2792917904005 L 472.6452905811623 324.9833717674625 L 473.6472945891784 324.6912665842502 L 474.64929859719444 324.40344354674426 L 475.65130260521045 324.1203631104057 L 476.6533066132265 323.84247814354546 L 477.6553106212425 323.5702332028315 L 478.65731462925856 323.30406382209316 L 479.65931863727457 323.0443958155598 L 480.6613226452906 322.7916445966491 L 481.6633266533066 322.54621451339386 L 482.6653306613227 322.30849820157164 L 483.6673346693387 322.07887595657127 L 484.66933867735474 321.8577151250013 L 485.67134268537075 321.6453695170137 L 486.6733466933868 321.4421788402834 L 487.6753507014028 321.24846815654803 L 488.67735470941886 321.0645473615789 L 489.67935871743487 320.8907106894136 L 490.6813627254509 320.72723624164433 L 491.683366733467 320.57438554251496 L 492.685370741483 320.43240312053763 L 493.68737474949904 320.3015161172995 L 494.689378757515 320.1819339240848 L 495.69138276553105 320.07384784689293 L 496.6933867735471 319.9774308003905 L 497.6953907815631 319.892837031284 L 498.6973947895791 319.82020187155814 L 499.69939879759517 319.759641521974 L 500.7014028056112 319.7112528661719 L 501.7034068136272 319.6751133156789 L 502.7054108216432 319.65128068606634 L 503.7074148296593 319.63979310445757 L 504.70941883767534 319.64066894853266 L 505.71142284569135 319.6539068171279 L 506.7134268537074 319.67948553247754 L 507.71543086172346 319.7173641740934 L 508.7174348697395 319.76748214422935 L 509.7194388777555 319.8297592648243 L 510.7214428857715 319.90409590577053 L 511.7234468937876 319.99037314430007 L 512.7254509018037 320.0884529552361 L 513.7274549098197 320.19817843180374 L 514.7294589178357 320.31937403664733 L 515.7314629258517 320.4518458826528 L 516.7334669338677 320.5953820431257 L 517.7354709418837 320.74975289082863 L 518.7374749498997 320.914711465336 L 519.7394789579158 321.0899938681179 L 520.7414829659319 321.27531968472147 L 521.7434869739479 321.4703924333742 L 522.7454909819639 321.6749000392915 L 523.7474949899799 321.8885153339299 L 524.7494989979959 322.1108965783868 L 525.7515030060121 322.3416880101099 L 526.7535070140281 322.5805204120413 L 527.7555110220442 322.82701170328613 L 528.7575150300602 323.0807675503604 L 529.7595190380762 323.3413819980404 L 530.7615230460922 323.60843811880477 L 531.7635270541082 323.8815086798291 L 532.7655310621243 324.16015682646776 L 533.7675350701403 324.44393678112783 L 534.7695390781563 324.7323945564184 L 535.7715430861724 325.0250686814334 L 536.7735470941884 325.32149094000664 L 537.7755511022044 325.6211871197577 L 538.7775551102204 325.9236777707308 L 539.7795591182364 326.2284789724123 L 540.7815631262525 326.5351031079002 L 541.7835671342685 326.8430596439875 L 542.7855711422847 327.1518559159103 L 543.7875751503007 327.46099791550654 L 544.7895791583167 327.76999108152364 L 545.7915831663327 328.078341090811 L 546.7935871743487 328.3855546491317 L 547.7955911823648 328.6911402803276 L 548.7975951903809 328.9946091125771 L 549.7995991983969 329.29547566048507 L 550.8016032064129 329.5932586017563 L 551.8036072144289 329.8874815472085 L 552.8056112224449 330.177673802893 L 553.8076152304609 330.4633711231052 L 554.8096192384769 330.7441164530783 L 555.8116232464931 331.01946066017337 L 556.8136272545091 331.28896325239606 L 557.815631262525 331.55219308308966 L 558.8176352705411 331.8087290406778 L 559.8196392785571 332.05816072235297 L 560.8216432865731 332.30008909063383 L 561.8236472945891 332.53412711173985 L 562.8256513026053 332.75990037476254 L 563.8276553106213 332.97704769064353 L 564.8296593186373 333.1852216699997 L 565.8316633266533 333.3840892788721 L 566.8336673346694 333.57333237150954 L 567.8356713426854 333.7526481993333 L 568.8376753507014 333.921749895271 L 569.8396793587174 334.0803669326822 L 570.8416833667335 334.2282455581435 L 571.8436873747495 334.3651491974 L 572.8456913827655 334.4908588338334 L 573.8476953907816 334.60517335884197 L 574.8496993987976 334.7079098935716 L 575.8517034068136 334.7989040814826 L 576.8537074148296 334.8780103512854 L 577.8557114228456 334.94510214982347 L 578.8577154308617 335.00007214453126 L 579.8597194388778 335.0428323951435 L 580.8617234468938 335.07331449438095 L 581.8637274549098 335.0914696773874 L 582.8657314629259 335.09726889974286 L 583.8677354709419 335.0907028839286 L 584.8697394789579 335.0717821341694 L 585.8717434869739 335.04053691962855 L 586.8737474949901 334.99701722598405 L 587.8757515030061 334.9412926754621 L 588.8777555110221 334.87345241545614 L 589.8797595190381 334.7936049759104 L 590.8817635270541 334.70187809569506 L 591.8837675350701 334.5984185182509 L 592.8857715430861 334.48339175683185 L 593.8877755511022 334.3569818297183 L 594.8897795591183 334.21939096582764 L 595.8917835671343 334.07083928119096 L 596.8937875751503 333.9115644268144 L 597.8957915831663 333.74182120848803 L 598.8977955911824 333.56188117915127 L 599.8997995991984 333.37203220446594 L 600.9018036072144 333.17257800229254 L 601.9038076152304 332.96383765680656 L 602.9058116232466 332.7461451080319 L 603.9078156312626 332.51984861760803 L 604.9098196392786 332.2853102116456 L 605.9118236472946 332.0429051015619 L 606.9138276553107 331.79302108382285 L 607.9158316633267 331.536057919551 L 608.9178356713427 331.2724266949933 L 609.9198396793587 331.0025491638708 L 610.9218436873748 330.72685707266237 L 611.9238476953908 330.4457914699029 L 612.9258517034068 330.1598020005992 L 613.9278557114228 329.8693461868944 L 614.9298597194389 329.5748886961298 L 615.931863727455 329.2769005974764 L 616.933867735471 328.97585860832464 L 617.935871743487 328.6722443316383 L 618.937875751503 328.36654348549246 L 619.939879759519 328.05924512602826 L 620.941883767535 327.7508408650674 L 621.943887775551 327.4418240836379 L 622.945891783567 327.13268914267013 L 623.947895791583 326.82393059212427 L 624.9498997995993 326.51604237981627 L 625.9519038076153 326.2095170612065 L 626.9539078156313 325.9048450114161 L 627.9559118236473 325.60251364073156 L 628.9579158316633 325.303006614852 L 629.9599198396794 325.00680308112743 L 630.9619238476954 324.71437690202515 L 631.9639278557114 324.4261958970507 L 632.9659318637275 324.1427210943367 L 633.9679358717435 323.8644059930963 L 634.9699398797595 323.5916958381205 L 635.9719438877755 323.3250269074823 L 636.9739478957915 323.06482581458437 L 637.9759519038076 322.8115088256688 L 638.9779559118236 322.5654811938797 L 639.9799599198396 322.3271365109449 L 640.9819639278558 322.0968560775129 L 641.9839679358718 321.8750082931533 L 642.9859719438878 321.66194806699616 L 643.9879759519038 321.4580162499529 L 644.9899799599198 321.2635390894275 L 645.9919839679359 321.0788277073907 L 646.993987975952 320.90417760265075 L 647.995991983968 320.7398681781185 L 648.997995991984 320.5861622938224 L 650 320.44330584638845"></path><text class="poloto_text" alignment-baseline="middle" text-anchor="start" font-size="large" x="675" y="150" >sin(2x)</text><line class="poloto2stroke" stroke="black" x1="680" x2="730" y1="181.25" y2="181.25" /><path class="poloto2stroke" fill="none" stroke="black" d=" M 150 311.90934388244165 L 151.00200400801603 311.912435503514 L 152.00400801603206 311.9217091301239 L 153.0060120240481 311.9371610529443 L 154.00801603206412 311.95878509141215 L 155.01002004008015 311.98657259620035 L 156.01202404809618 312.0205124526775 L 157.01402805611224 312.0605910853535 L 158.01603206412827 312.10679246330966 L 159.0180360721443 312.1590981066108 L 160.02004008016033 312.21748709369706 L 161.02204408817636 312.2819360697521 L 162.0240480961924 312.35241925604475 L 163.02605210420842 312.4289084602402 L 164.02805611222445 312.5113730876768 L 165.03006012024048 312.599780153603 L 166.0320641282565 312.69409429637113 L 167.03406813627254 312.79427779158164 L 168.03607214428857 312.90029056717214 L 169.0380761523046 313.01209021944595 L 170.04008016032066 313.1296320300328 L 171.0420841683367 313.2528689837756 L 172.04408817635272 313.3817517875361 L 173.04609218436875 313.5162288899111 L 174.04809619238478 313.6562465018527 L 175.0501002004008 313.80174861818296 L 176.05210420841684 313.9526770399954 L 177.05410821643287 314.10897139793366 L 178.0561122244489 314.2705691763384 L 179.05811623246493 314.43740573825295 L 180.06012024048096 314.6094143512769 L 181.06212424849699 314.7865262142585 L 182.06412825651302 314.9686704848141 L 183.06613226452907 315.1557743076639 L 184.0681362725451 315.34776284377347 L 185.07014028056113 315.5445593002883 L 186.07214428857716 315.7460849612496 L 187.0741482965932 315.95225921907996 L 188.07615230460922 316.1629996068252 L 189.07815631262525 316.3782218311401 L 190.08016032064128 316.59783980600446 L 191.0821643286573 316.82176568715664 L 192.08416833667334 317.04990990722973 L 193.08617234468937 317.2821812115776 L 194.0881763527054 317.5184866947754 L 195.09018036072143 317.7587318377806 L 196.09218436873746 318.00282054573916 L 197.0941883767535 318.2506551864225 L 198.09619238476955 318.5021366292786 L 199.09819639278558 318.75716428508343 L 200.1002004008016 319.015636146175 L 201.10220440881764 319.2774488272551 L 202.10420841683367 319.54249760674213 L 203.1062124248497 319.8106764686582 L 204.10821643286573 320.0818781450342 L 205.11022044088176 320.3559941588155 L 206.1122244488978 320.6329148672516 L 207.11422845691385 320.9125295057512 L 208.11623246492985 321.19472623218707 L 209.11823647294588 321.4793921716312 L 210.1202404809619 321.76641346150336 L 211.12224448897797 322.0556752971145 L 212.124248496994 322.34706197758703 L 213.12625250501003 322.64045695213406 L 214.12825651302606 322.9357428666775 L 215.1302605210421 323.23280161078867 L 216.13226452905812 323.5315143649307 L 217.13426853707415 323.8317616479846 L 218.1362725450902 324.13342336504047 L 219.1382765531062 324.43637885543365 L 220.14028056112227 324.74050694100725 L 221.14228456913827 325.04568597458206 L 222.14428857715433 325.3517938886136 L 223.14629258517033 325.6587082440177 L 224.1482965931864 325.9663062791443 L 225.1503006012024 326.2744649588807 L 226.15230460921845 326.5830610238636 L 227.15430861723448 326.8919710397816 L 228.1563126252505 327.2010714467471 L 229.15831663326654 327.5102386087186 L 230.16032064128257 327.8193488629535 L 231.16232464929863 328.1282785694715 L 232.16432865731463 328.436904160509 L 233.16633266533069 328.74510218994453 L 234.1683366733467 329.05274938267553 L 235.17034068136275 329.3597226839269 L 236.17234468937875 329.66589930847107 L 237.17434869739478 329.9711567897404 L 238.1763527054108 330.27537302881257 L 239.17835671342687 330.578426343248 L 240.18036072144287 330.88019551576167 L 241.18236472945893 331.180559842708 L 242.18436873747493 331.47939918236113 L 243.18637274549098 331.77659400296966 L 244.18837675350701 332.07202543056775 L 245.19038076152304 332.36557529652356 L 246.19238476953907 332.65712618480455 L 247.1943887775551 332.9465614789427 L 248.19639278557116 333.2337654086796 L 249.19839679358716 333.5186230962725 L 250.20040080160322 333.80102060244445 L 251.20240480961922 334.0808449719583 L 252.20440881763528 334.3579842787972 L 253.2064128256513 334.6323276709334 L 254.20841683366734 334.9037654146681 L 255.21042084168337 335.17218893852277 L 256.2124248496994 335.4374908766669 L 257.21442885771546 335.69956511186257 L 258.21643286573146 335.95830681790983 L 259.2184368737475 336.2136125015763 L 260.2204408817635 336.4653800439924 L 261.2224448897796 336.71350874149806 L 262.2244488977956 336.9578993459226 L 263.22645290581164 337.1984541042828 L 264.2284569138277 337.43507679788263 L 265.2304609218437 337.6676727807996 L 266.2324649298597 337.8961490177418 L 267.23446893787576 338.12041412126064 L 268.23647294589176 338.340378388305 L 269.2384769539078 338.55595383610085 L 270.2404809619238 338.76705423734336 L 271.2424849699399 338.9735951546867 L 272.24448897795594 339.1754939745177 L 273.24649298597194 339.37266994000043 L 274.248496993988 339.5650441833777 L 275.250501002004 339.75253975751707 L 276.25250501002006 339.9350816666888 L 277.25450901803606 340.1125968965631 L 278.2565130260521 340.28501444341487 L 279.2585170340682 340.4522653425242 L 280.2605210420842 340.6142826957614 L 281.2625250501002 340.77100169834546 L 282.26452905811624 340.9223596647648 L 283.2665330661323 341.0682960538511 L 284.2685370741483 341.20875249299434 L 285.2705410821643 341.3436728014917 L 286.2725450901804 341.4730030130187 L 287.2745490981964 341.59669139721495 L 288.2765531062124 341.71468848037614 L 289.2785571142285 341.82694706524217 L 290.28056112224453 341.9334222498759 L 291.28256513026054 342.034071445623 L 292.28456913827654 342.1288543941473 L 293.2865731462926 342.21773318353314 L 294.28857715430865 342.30067226344966 L 295.29058116232466 342.37763845937087 L 296.29258517034066 342.44860098584456 L 297.2945891783567 342.51353145880626 L 298.2965931863728 342.57240390693255 L 299.2985971943888 342.6251947820291 L 300.3006012024048 342.6718829684498 L 301.30260521042084 342.71244979154255 L 302.3046092184369 342.746879025119 L 303.3066132264529 342.7751568979447 L 304.30861723446895 342.7972720992477 L 305.310621242485 342.81321578324224 L 306.312625250501 342.82298157266735 L 307.314629258517 342.8265655613374 L 308.3166332665331 342.82396631570475 L 309.31863727454913 342.81518487543303 L 310.32064128256513 342.8002247529812 L 311.32264529058114 342.77909193219887 L 312.32464929859725 342.7517948659325 L 313.32665330661325 342.7183444726446 L 314.32865731462925 342.6787541320466 L 315.3306613226453 342.63303967974684 L 316.33266533066137 342.58121940091667 L 317.3346693386774 342.52331402297676 L 318.3366733466934 342.45934670730617 L 319.33867735470943 342.3893430399783 L 320.3406813627255 342.3133310215268 L 321.3426853707415 342.2313410557454 L 322.3446893787575 342.14340593752735 L 323.34669338677355 342.04956083974747 L 324.34869739478955 341.9498432991936 L 325.3507014028056 341.8442932015524 L 326.3527054108216 341.7329527654556 L 327.3547094188377 341.61586652559316 L 328.35671342685373 341.49308131489994 L 329.35871743486973 341.364646245823 L 330.36072144288573 341.23061269067756 L 331.36272545090185 341.09103426109857 L 332.36472945891785 340.9459667865969 L 333.36673346693385 340.7954682922281 L 334.36873747494985 340.63959897538336 L 335.37074148296597 340.4784211817111 L 336.37274549098197 340.3119993801798 L 337.37474949899797 340.1404001372912 L 338.37675350701403 339.96369209045446 L 339.3787575150301 339.7819459205322 L 340.3807615230461 339.59523432356923 L 341.38276553106215 339.40363198171474 L 342.38476953907815 339.20721553335096 L 343.3867735470942 339.0060635424383 L 344.3887775551102 338.8002564670912 L 345.39078156312627 338.58987662739565 L 346.3927855711423 338.3750081724825 L 347.3947895791583 338.155737046869 L 348.39679358717433 337.9321509560816 L 349.39879759519044 337.7043393315757 L 350.40080160320645 337.47239329496347 L 351.40280561122245 337.23640562156714 L 352.40480961923845 336.99647070330957 L 353.40681362725456 336.7526845109589 L 354.40881763527057 336.5051445557417 L 355.41082164328657 336.25394985033955 L 356.4128256513026 335.9992008692854 L 357.4148296593186 335.7409995087751 L 358.4168336673347 335.4794490459101 L 359.4188376753507 335.21465409738835 L 360.42084168336675 334.94672057765865 L 361.42284569138275 334.6757556565566 L 362.4248496993988 334.4018677164377 L 363.4268537074148 334.12516630882624 L 364.42885771543087 333.845762110596 L 365.4308617234469 333.5637668797009 L 366.4328657314629 333.27929341047343 L 367.4348697394789 332.99245548850837 L 368.43687374749504 332.70336784514996 L 369.43887775551104 332.4121461116012 L 370.44088176352705 332.1189067726726 L 371.44288577154305 331.8237671201898 L 372.44488977955916 331.52684520607875 L 373.44689378757516 331.22825979514624 L 374.4488977955912 330.92813031757544 L 375.4509018036072 330.62657682115577 L 376.4529058116233 330.3237199232651 L 377.4549098196393 330.01968076262466 L 378.45691382765534 329.7145809508447 L 379.45891783567134 329.4085425237822 L 380.4609218436874 329.10168789272745 L 381.4629258517034 328.7941397954415 L 382.46492985971946 328.48602124706264 L 383.4669338677355 328.1774554909021 L 384.4689378757515 327.8685659491482 L 385.4709418837675 327.55947617349915 L 386.4729458917835 327.250309795744 L 387.47494989979964 326.9411904783118 L 388.47695390781564 326.63224186480795 L 389.47895791583164 326.32358753055854 L 390.4809619238477 326.01535093318194 L 391.48296593186376 325.70765536320744 L 392.48496993987976 325.4006238947603 L 393.48697394789576 325.09437933633444 L 394.4889779559118 324.78904418166974 L 395.4909819639279 324.48474056075725 L 396.4929859719439 324.1815901909878 L 397.4949899799599 323.87971432846746 L 398.496993987976 323.5792337195163 L 399.498997995992 323.28026855237147 L 400.501002004008 322.9829384091137 L 401.503006012024 322.687362217836 L 402.5050100200401 322.3936582050738 L 403.5070140280561 322.10194384851627 L 404.5090180360721 321.81233583001665 L 405.5110220440881 321.5249499889208 L 406.51302605210424 321.2399012757335 L 407.5150300601203 320.9573037061393 L 408.5170340681363 320.67727031539835 L 409.5190380761523 320.39991311313304 L 410.52104208416836 320.1253430385262 L 411.5230460921844 319.8536699159469 L 412.5250501002004 319.58500241102183 L 413.5270541082164 319.31944798717086 L 414.5290581162325 319.05711286262283 L 415.53106212424854 318.7981019679297 L 416.53306613226454 318.542518903996 L 417.53507014028054 318.2904659006396 L 418.5370741482966 318.04204377570113 L 419.53907815631266 317.79735189471836 L 420.54108216432866 317.55648813118114 L 421.5430861723447 317.3195488273834 L 422.5450901803608 317.0866287558875 L 423.5470941883768 316.8578210816165 L 424.54909819639283 316.6332173245894 L 425.55110220440883 316.4129073233143 L 426.5531062124249 316.1969791988543 L 427.55511022044095 315.9855193195802 L 428.55711422845695 315.77861226662424 L 429.55911823647295 315.5763408000489 L 430.561122244489 315.3787858257439 L 431.56312625250507 315.1860263630649 L 432.565130260521 314.99813951322693 L 433.567134268537 314.8152004284648 L 434.5691382765531 314.63728228197317 L 435.57114228456913 314.4644562386385 L 436.5731462925852 314.2967914265738 L 437.5751503006012 314.13435490946836 L 438.57715430861725 313.9772116597633 L 439.57915831663325 313.82542453266325 L 440.5811623246493 313.67905424099524 L 441.5831663326653 313.5381593309244 L 442.5851703406814 313.4027961585361 L 443.5871743486974 313.2730188672945 L 444.58917835671343 313.14887936638587 L 445.59118236472943 313.03042730995526 L 446.5931863727455 312.917710077246 L 447.5951903807615 312.8107727536482 L 448.59719438877755 312.7096581126656 L 449.59919839679355 312.61440659880634 L 450.6012024048096 312.52505631140593 L 451.6032064128256 312.44164298938813 L 452.6052104208417 312.36419999696943 L 453.60721442885773 312.2927583103144 L 454.60921843687373 312.2273465051451 L 455.6112224448898 312.16799074531133 L 456.61322645290585 312.1147147723258 L 457.61523046092185 312.06753989586724 L 458.6172344689379 312.0264849852573 L 459.6192384769539 311.9915664619129 L 460.62124248496997 311.9627982927777 L 461.62324649298597 311.94019198473575 L 462.62525050100203 311.923756580009 L 463.62725450901803 311.91349865254006 L 464.6292585170341 311.90942230536325 L 465.6312625250501 311.91152916896306 L 466.63326653306615 311.9198184006221 L 467.63527054108215 311.93428668475826 L 468.6372745490982 311.9549282342508 L 469.6392785571142 311.98173479275516 L 470.64128256513027 312.0146956380053 L 471.64328657314627 312.05379758610263 L 472.6452905811623 312.0990249967893 L 473.6472945891784 312.15035977970393 L 474.64929859719444 312.2077814016179 L 475.65130260521045 312.27126689464814 L 476.6533066132265 312.34079086544375 L 477.6553106212425 312.41632550534337 L 478.65731462925856 312.49784060149835 L 479.65931863727457 312.58530354895686 L 480.6613226452906 312.67867936370624 L 481.6633266533066 312.7779306966655 L 482.6653306613227 312.8830178486248 L 483.6673346693387 312.99389878612453 L 484.66933867735474 313.11052915826804 L 485.67134268537075 313.2328623144615 L 486.6733466933868 313.36084932307364 L 487.6753507014028 313.49443899100737 L 488.67735470941886 313.6335778841767 L 489.67935871743487 313.7782103488796 L 490.6813627254509 313.92827853405856 L 491.683366733467 314.08372241444033 L 492.685370741483 314.24447981454534 L 493.68737474949904 314.410486433557 L 494.689378757515 314.5816758710411 L 495.69138276553105 314.7579796535051 L 496.6933867735471 314.93932726178673 L 497.6953907815631 315.12564615926055 L 498.6973947895791 315.31686182085184 L 499.69939879759517 315.5128977628455 L 500.7014028056112 315.71367557347844 L 501.7034068136272 315.9191149443035 L 502.7054108216432 316.1291337023114 L 503.7074148296593 316.3436478427992 L 504.70941883767534 316.5625715629709 L 505.71142284569135 316.7858172962573 L 506.7134268537074 317.01329574734166 L 507.71543086172346 317.24491592787666 L 508.7174348697395 317.48058519287815 L 509.7194388777555 317.7202092777825 L 510.7214428857715 317.96369233615053 L 511.7234468937876 318.2109369780054 L 512.7254509018037 318.46184430878697 L 513.7274549098197 318.7163139689082 L 514.7294589178357 318.97424417389794 L 515.7314629258517 319.2355317551133 L 516.7334669338677 319.50007220100554 L 517.7354709418837 319.7677596989233 L 518.7374749498997 320.0384871774369 L 519.7394789579158 320.3121463491642 L 520.7414829659319 320.5886277540855 L 521.7434869739479 320.8678208033251 L 522.7454909819639 321.14961382338583 L 523.7474949899799 321.4338941008169 L 524.7494989979959 321.7205479272977 L 525.7515030060121 322.0094606451195 L 526.7535070140281 322.3005166930474 L 527.7555110220442 322.593599652543 L 528.7575150300602 322.8885922943301 L 529.7595190380762 323.1853766252852 L 530.7615230460922 323.48383393563296 L 531.7635270541082 323.78384484642874 L 532.7655310621243 324.08528935730817 L 533.7675350701403 324.38804689448614 L 534.7695390781563 324.6919963589845 L 535.7715430861724 324.99701617507014 L 536.7735470941884 325.30298433888345 L 537.7755511022044 325.60977846723836 L 538.7775551102204 325.9172758465741 L 539.7795591182364 326.2253534820389 L 540.7815631262525 326.53388814668614 L 541.7835671342685 326.84275643076376 L 542.7855711422847 327.1518347910763 L 543.7875751503007 327.4609996004006 L 544.7895791583167 327.7701271969351 L 545.7915831663327 328.0790939337628 L 546.7935871743487 328.38777622830855 L 547.7955911823648 328.6960506117702 L 548.7975951903809 329.0037937785046 L 549.7995991983969 329.31088263534826 L 550.8016032064129 329.6171943508529 L 551.8036072144289 329.92260640441646 L 552.8056112224449 330.22699663528965 L 553.8076152304609 330.53024329143847 L 554.8096192384769 330.83222507824377 L 555.8116232464931 331.13282120701723 L 556.8136272545091 331.43191144331524 L 557.815631262525 331.729376155031 L 558.8176352705411 332.02509636024604 L 559.8196392785571 332.3189537748212 L 560.8216432865731 332.6108308597086 L 561.8236472945891 332.90061086796595 L 562.8256513026053 333.18817789145373 L 563.8276553106213 333.47341690719657 L 564.8296593186373 333.7562138233914 L 565.8316633266533 334.0364555250423 L 566.8336673346694 334.31402991920515 L 567.8356713426854 334.5888259798232 L 568.8376753507014 334.86073379213605 L 569.8396793587174 335.1296445966442 L 570.8416833667335 335.39545083261135 L 571.8436873747495 335.658046181087 L 572.8456913827655 335.9173256074331 L 573.8476953907816 336.1731854033361 L 574.8496993987976 336.4255232282891 L 575.8517034068136 336.6742381505265 L 576.8537074148296 336.91923068739555 L 577.8557114228456 337.16040284514804 L 578.8577154308617 337.39765815813655 L 579.8597194388778 337.63090172739913 L 580.8617234468938 337.860040258618 L 581.8637274549098 338.0849820994358 L 582.8657314629259 338.3056372761154 L 583.8677354709419 338.5219175295282 L 584.8697394789579 338.7337363504564 L 585.8717434869739 338.94100901419597 L 586.8737474949901 339.143652614445 L 587.8757515030061 339.34158609646516 L 588.8777555110221 339.5347302895029 L 589.8797595190381 339.723007938456 L 590.8817635270541 339.9063437347754 L 591.8837675350701 340.084664346587 L 592.8857715430861 340.2578984480235 L 593.8877755511022 340.42597674775425 L 594.8897795591183 340.58883201670034 L 595.8917835671343 340.7463991149255 L 596.8937875751503 340.8986150176914 L 597.8957915831663 341.0454188406663 L 598.8977955911824 341.1867518642785 L 599.8997995991984 341.32255755720297 L 600.9018036072144 341.45278159897316 L 601.9038076152304 341.5773719017088 L 602.9058116232466 341.69627863094985 L 603.9078156312626 341.80945422559006 L 604.9098196392786 341.9168534169006 L 605.9118236472946 342.01843324663685 L 606.9138276553107 342.11415308422136 L 607.9158316633267 342.20397464299526 L 608.9178356713427 342.28786199553275 L 609.9198396793587 342.36578158801126 L 610.9218436873748 342.43770225363266 L 611.9238476953908 342.50359522508967 L 612.9258517034068 342.56343414607227 L 613.9278557114228 342.6171950818099 L 614.9298597194389 342.6648565286451 L 615.931863727455 342.70639942263455 L 616.933867735471 342.7418071471746 L 617.935871743487 342.7710655396475 L 618.937875751503 342.79416289708644 L 619.939879759519 342.8110899808563 L 620.941883767535 342.8218400203493 L 621.943887775551 342.8264087156931 L 622.945891783567 342.8247942394703 L 623.947895791583 342.8169972374499 L 624.9498997995993 342.80302082832884 L 625.9519038076153 342.7828706024843 L 626.9539078156313 342.75655461973804 L 627.9559118236473 342.72408340613225 L 628.9579158316633 342.68546994971945 L 629.9599198396794 342.6407296953673 L 630.9619238476954 342.58988053858116 L 631.9639278557114 342.5329428183456 L 632.9659318637275 342.46993930898964 L 633.9679358717435 342.40089521107694 L 634.9699398797595 342.32583814132613 L 635.9719438877755 342.2447981215644 L 636.9739478957915 342.157807566719 L 637.9759519038076 342.06490127185214 L 638.9779559118236 341.96611639824295 L 639.9799599198396 341.86149245852386 L 640.9819639278558 341.75107130087565 L 641.9839679358718 341.63489709228924 L 642.9859719438878 341.51301630089904 L 643.9879759519038 341.3854776773966 L 644.9899799599198 341.25233223553073 L 645.9919839679359 341.11363323170303 L 646.993987975952 340.9694361436657 L 647.995991983968 340.8197986483313 L 648.997995991984 340.66478059870286 L 650 340.5044439999334"></path><text class="poloto_text" alignment-baseline="middle" text-anchor="start" font-size="large" x="675" y="200" >2*cos(x)</text><line class="poloto_axis_lines" stroke="black" x1="150" x2="150" y1="400" y2="405" /><text class="poloto_text" alignment-baseline="start" text-anchor="middle" x="150" y="430" >0</text><line class="poloto_axis_lines" stroke="black" x1="250.20040080160322" x2="250.20040080160322" y1="400" y2="405" /><text class="poloto_text" alignment-baseline="start" text-anchor="middle" x="250.20040080160322" y="430" >2</text><line class="poloto_axis_lines" stroke="black" x1="350.40080160320645" x2="350.40080160320645" y1="400" y2="405" /><text class="poloto_text" alignment-baseline="start" text-anchor="middle" x="350.40080160320645" y="430" >4</text><line class="poloto_axis_lines" stroke="black" x1="450.6012024048096" x2="450.6012024048096" y1="400" y2="405" /><text class="poloto_text" alignment-baseline="start" text-anchor="middle" x="450.6012024048096" y="430" >6</text><line class="poloto_axis_lines" stroke="black" x1="550.8016032064129" x2="550.8016032064129" y1="400" y2="405" /><text class="poloto_text" alignment-baseline="start" text-anchor="middle" x="550.8016032064129" y="430" >8</text><line class="poloto_axis_lines" stroke="black" x1="150" x2="144" y1="366.0145161305592" y2="366.0145161305592" /><text class="poloto_text" alignment-baseline="middle" text-anchor="end" x="135" y="366.0145161305592" >-5</text><line class="poloto_axis_lines" stroke="black" x1="150" x2="144" y1="327.36796452476096" y2="327.36796452476096" /><text class="poloto_text" alignment-baseline="middle" text-anchor="end" x="135" y="327.36796452476096" >0</text><line class="poloto_axis_lines" stroke="black" x1="150" x2="144" y1="288.7214129189627" y2="288.7214129189627" /><text class="poloto_text" alignment-baseline="middle" text-anchor="end" x="135" y="288.7214129189627" >5</text><line class="poloto_axis_lines" stroke="black" x1="150" x2="144" y1="250.07486131316443" y2="250.07486131316443" /><text class="poloto_text" alignment-baseline="middle" text-anchor="end" x="135" y="250.07486131316443" >10</text><line class="poloto_axis_lines" stroke="black" x1="150" x2="144" y1="211.42830970736622" y2="211.42830970736622" /><text class="poloto_text" alignment-baseline="middle" text-anchor="end" x="135" y="211.42830970736622" >15</text><line class="poloto_axis_lines" stroke="black" x1="150" x2="144" y1="172.78175810156796" y2="172.78175810156796" /><text class="poloto_text" alignment-baseline="middle" text-anchor="end" x="135" y="172.78175810156796" >20</text><line class="poloto_axis_lines" stroke="black" x1="150" x2="144" y1="134.1352064957697" y2="134.1352064957697" /><text class="poloto_text" alignment-baseline="middle" text-anchor="end" x="135" y="134.1352064957697" >25</text><text class="poloto_text" alignment-baseline="start" text-anchor="middle" font-size="x-large" x="400" y="37.5" >Some Trigonometry Plots </text><text class="poloto_text" alignment-baseline="start" text-anchor="middle" font-size="x-large" x="400" y="481.25" >This is the x label</text><text class="poloto_text" alignment-baseline="start" text-anchor="middle" font-size="x-large" transform="rotate(-90,37.5,250)" x="37.5" y="250" >This is the y label</text><path stroke="black" fill="none" class="poloto_axis_lines" d=" M 150 100 L 150 400 L 650 400"/></svg>
