<svg class="poloto" width="800" height="500" viewBox="0 0 800 500" xmlns="http://www.w3.org/2000/svg" ><style>.poloto {stroke-linecap:round;font-family: sans-serif;stroke-width:2;}.scatter{stroke-width:7}.poloto_text{fill: white;}.poloto_axis_lines{stroke: white;stoke-width:3;fill:none}.poloto_background{fill: black;}.poloto0stroke{stroke:  blue;}.poloto1stroke{stroke:  red;}.poloto2stroke{stroke:  green;}.poloto3stroke{stroke:  gold;}.poloto4stroke{stroke:  aqua;}.poloto5stroke{stroke:  brown;}.poloto6stroke{stroke:  lime;}.poloto7stroke{stroke:  chocolate;}.poloto0fill{fill:blue;}.poloto1fill{fill:red;}.poloto2fill{fill:green;}.poloto3fill{fill:gold;}.poloto4fill{fill:aqua;}.poloto5fill{fill:brown;}.poloto6fill{fill:lime;}.poloto7fill{fill:chocolate;}</style><rect class="poloto_background" fill="white" x="0" y="0" width="800" height="500" /><line class="poloto0stroke" stroke="black" x1="680" x2="730" y1="81.25" y2="81.25" /><path class="poloto0stroke" fill="none" stroke="black" d=" M 150 246.66841098825938 L 151.00200400801603 246.3420245746892 L 152.00400801603206 246.01537687780205 L 153.0060120240481 245.68820577694635 L 154.00801603206412 245.3602474710923 L 155.01002004008015 245.03123562430443 L 156.01202404809618 244.70090049381892 L 157.01402805611224 244.36896803461013 L 158.01603206412827 244.0351589740503 L 159.0180360721443 243.6991878499072 L 160.02004008016033 243.36076200448042 L 161.02204408817636 243.0195805271357 L 162.0240480961924 242.67533313685422 L 163.02605210420842 242.32769899565287 L 164.02805611222445 241.9763454428365 L 165.03006012024048 241.62092663900285 L 166.0320641282565 241.26108210750374 L 167.03406813627254 240.89643515965676 L 168.03607214428857 240.52659118836112 L 169.0380761523046 240.15113581286914 L 170.04008016032066 239.76963285525432 L 171.0420841683367 239.38162212654748 L 172.04408817635272 238.9866169975217 L 173.04609218436875 238.58410172561958 L 174.04809619238478 238.17352850544395 L 175.0501002004008 237.75431420546633 L 176.05210420841684 237.32583674801404 L 177.05410821643287 236.8874310830214 L 178.0561122244489 236.43838469827327 L 179.05811623246493 235.97793259969774 L 180.06012024048096 235.50525168438585 L 181.06212424849699 235.0194544160721 L 182.06412825651302 234.51958169735485 L 183.06613226452907 234.0045948144254 L 184.0681362725451 233.47336630781408 L 185.07014028056113 232.92466959579968 L 186.07214428857716 232.357167144577 L 187.0741482965932 231.76939693966918 L 188.07615230460922 231.15975696466802 L 189.07815631262525 230.52648733395907 L 190.08016032064128 229.8676496527825 L 191.0821643286573 229.1811030870971 L 192.08416833667334 228.46447651244202 L 193.08617234468937 227.71513596903125 L 194.0881763527054 226.93014647136428 L 195.09018036072143 226.10622699366016 L 196.09218436873746 225.23969716267007 L 197.0941883767535 224.32641381698167 L 198.09619238476955 223.3616951097335 L 199.09819639278558 222.3402292025424 L 200.1002004008016 221.25596377094402 L 201.10220440881764 220.10197144371082 L 202.10420841683367 218.87028482815222 L 203.1062124248497 217.55169278513256 L 204.10821643286573 216.1354868999369 L 205.11022044088176 214.6091433384822 L 206.1122244488978 212.9579200217396 L 207.11422845691385 211.1643415982156 L 208.11623246492985 209.20753397560966 L 209.11823647294588 207.062354517006 L 210.1202404809619 204.69824075123879 L 211.12224448897797 202.0776652584172 L 212.124248496994 199.15403005533526 L 213.12625250501003 195.86874799998148 L 214.12825651302606 192.14711981610512 L 215.1302605210421 187.89238408070554 L 216.13226452905812 182.97692028208448 L 217.13426853707415 177.22887801377414 L 218.1362725450902 170.41119458046876 L 219.1382765531062 162.18741588552885 L 220.14028056112227 152.06350338483185 L 221.14228456913827 139.28333246077102 L 222.14428857715433 122.62831506588492 L 223.14629258517033 100 M 234.1683366733467 395.49335022134875 L 235.17034068136275 372.2549818812616 L 236.17234468937875 355.21722633677734 L 237.17434869739478 342.1812746415727 L 238.1763527054108 331.8780211436791 L 239.17835671342687 323.5236623858856 L 240.18036072144287 316.6079630026322 L 241.18236472945893 310.78447874413905 L 242.18436873747493 305.80971358510254 L 243.18637274549098 301.50752251938036 L 244.18837675350701 297.74732939998574 L 245.19038076152304 294.4302847186382 L 246.19238476953907 291.48018010636713 L 247.1943887775551 288.83731583257145 L 248.19639278557116 286.45425908272824 L 249.19839679358716 284.29284612641595 L 250.20040080160322 282.32202263653045 L 251.20240480961922 280.5162609390967 L 252.20440881763528 278.8543820501542 L 253.2064128256513 277.31866665780484 L 254.20841683366734 275.8941756068965 L 255.21042084168337 274.5682244625364 L 256.2124248496994 273.32997287528156 L 257.21442885771546 272.1701005114294 L 258.21643286573146 271.08054897954025 L 259.2184368737475 270.054314586474 L 260.2204408817635 269.08528061294544 L 261.2224448897796 268.1680805860003 L 262.2244488977956 267.29798606346424 L 263.22645290581164 266.4708139508932 L 264.2284569138277 265.68284949492715 L 265.2304609218437 264.93078194302666 L 266.2324649298597 264.21165050236846 L 267.23446893787576 263.5227987230552 L 268.23647294589176 262.86183581087187 L 269.2384769539078 262.22660367034746 L 270.2404809619238 261.6151487102585 L 271.2424849699399 261.0256976260406 L 272.24448897795594 260.45663651814584 L 273.24649298597194 259.90649282068375 L 274.248496993988 259.3739196071611 L 275.250501002004 258.85768191469043 L 276.25250501002006 258.3566447884558 L 277.25450901803606 257.8697627974158 L 278.2565130260521 257.3960708124635 L 279.2585170340682 256.93467587132227 L 280.2605210420842 256.48474998172804 L 281.2625250501002 256.0455237370412 L 282.26452905811624 255.61628063721426 L 283.2665330661323 255.19635202371543 L 284.2685370741483 254.78511255013768 L 285.2705410821643 254.38197612124952 L 286.2725450901804 253.98639224254146 L 287.2745490981964 253.59784273018107 L 288.2765531062124 253.2158387379531 L 289.2785571142285 252.83991806342564 L 290.28056112224453 252.4696427004101 L 291.28256513026054 252.10459660890808 L 292.28456913827654 251.74438367726637 L 293.2865731462926 251.38862585429095 L 294.28857715430865 251.03696143166866 L 295.29058116232466 250.68904345928547 L 296.29258517034066 250.34453827795303 L 297.2945891783567 250.003124155715 L 298.2965931863728 249.66449001533437 L 299.2985971943888 249.32833424178924 L 300.3006012024048 248.9943635596636 L 301.30260521042084 248.6622919712214 L 302.3046092184369 248.33183974672488 L 303.3066132264529 248.00273245920977 L 304.30861723446895 247.67470005647843 L 305.310621242485 247.34747596352338 L 306.312625250501 247.02079620895978 L 307.314629258517 246.69439856933153 L 308.3166332665331 246.36802172536616 L 309.31863727454913 246.0414044243954 L 310.32064128256513 245.71428464322904 L 311.32264529058114 245.38639874577666 L 312.32464929859725 245.05748062964884 L 313.32665330661325 244.72726085584063 L 314.32865731462925 244.3954657554006 L 315.3306613226453 244.0618165067143 L 316.33266533066137 243.72602817667908 L 317.3346693386774 243.3878087186086 L 318.3366733466934 243.0468579191747 L 319.33867735470943 242.70286628605777 L 320.3406813627255 242.35551386722693 L 321.3426853707415 242.00446899188805 L 322.3446893787575 241.64938692210853 L 323.34669338677355 241.28990840292687 L 324.34869739478955 240.92565809736064 L 325.3507014028056 240.55624289110688 L 326.3527054108216 240.1812500498483 L 327.3547094188377 239.80024520989463 L 328.35671342685373 239.41277018034984 L 329.35871743486973 239.01834053204138 L 330.36072144288573 238.6164429450026 L 331.36272545090185 238.20653228227744 L 332.36472945891785 237.78802835311052 L 333.36673346693385 237.36031232306146 L 334.36873747494985 236.92272272209436 L 335.37074148296597 236.47455099403518 L 336.37274549098197 236.01503652174412 L 337.37474949899797 235.5433610516166 L 338.37675350701403 235.0586424282633 L 339.3787575150301 234.55992753498305 L 340.3807615230461 234.04618431739874 L 341.38276553106215 233.51629274569277 L 342.38476953907815 232.9690345444212 L 343.3867735470942 232.40308148683073 L 344.3887775551102 231.81698201161677 L 345.39078156312627 231.20914587243087 L 346.3927855711423 230.57782647199312 L 347.3947895791583 229.92110046058696 L 348.39679358717433 229.23684408939025 L 349.39879759519044 228.52270569781342 L 350.40080160320645 227.7760735746173 L 351.40280561122245 226.9940382569356 L 352.40480961923845 226.1733481086651 L 353.40681362725456 225.3103567355769 L 354.40881763527057 224.40096042953502 L 355.41082164328657 223.44052336195185 L 356.4128256513026 222.4237876308648 L 357.4148296593186 221.34476445662997 L 358.4168336673347 220.19660174809522 L 359.4188376753507 218.9714218251583 L 360.42084168336675 217.66012114320455 L 361.42284569138275 216.25212121516927 L 362.4248496993988 214.73505626754465 L 363.4268537074148 213.094378051193 L 364.42885771543087 211.31285098283473 L 365.4308617234469 209.36990038579503 L 366.4328657314629 207.24076141717478 L 367.4348697394789 204.89535374903227 L 368.43687374749504 202.29677304858544 L 369.43887775551104 199.39923785549055 L 370.44088176352705 196.14524778710378 L 371.44288577154305 192.46157544408857 L 372.44488977955916 188.25349257205247 L 373.44689378757516 183.39625102194535 L 374.4488977955912 177.7221646948404 L 375.4509018036072 171.00039278091458 L 376.4529058116233 162.90411307956597 L 377.4549098196393 152.954844672506 L 378.45691382765534 140.4229270235644 L 379.45891783567134 124.13779137219188 L 380.4609218436874 102.09565505067587 M 391.48296593186376 397.7134544841156 L 392.48496993987976 373.8398408415101 L 393.48697394789576 356.4058869030439 L 394.4889779559118 343.10631911430255 L 395.4909819639279 332.61885760785475 L 396.4929859719439 324.1307375713316 L 397.4949899799599 317.1148557619797 L 398.496993987976 311.21440337429357 L 399.498997995992 306.17923091073703 L 400.501002004008 301.8287635430919 L 401.503006012024 298.02938329871085 L 402.5050100200401 294.680095875669 L 403.5070140280561 291.7031454604222 L 404.5090180360721 289.03769316373337 L 405.5110220440881 286.6354525360898 L 406.51302605210424 284.4576099747005 L 407.5150300601203 282.4726093479312 L 408.5170340681363 280.65453053434874 L 409.5190380761523 278.9818840616276 L 410.52104208416836 277.4367023769826 L 411.5230460921844 276.00384593743297 L 412.5250501002004 274.67046711788913 L 413.5270541082164 273.4255915897828 L 414.5290581162325 272.25978819616523 L 415.53106212424854 271.16490623850416 L 416.53306613226454 270.13386464256905 L 417.53507014028054 269.1604814305837 L 418.5370741482966 268.23933478601145 L 419.53907815631266 267.36564908563423 L 420.54108216432866 266.53520081521526 L 421.5430861723447 265.74424043451137 L 422.5450901803608 264.98942712250687 L 423.5470941883768 264.267773990562 L 424.54909819639283 263.5766018539638 L 425.55110220440883 262.913500040256 L 426.5531062124249 262.2762930141559 L 427.55511022044095 261.66301183473826 L 428.55711422845695 261.07186964634553 L 429.55911823647295 260.501240551919 L 430.561122244489 259.9496413348189 L 431.56312625250507 259.4157155892966 L 432.565130260521 258.8982198956143 L 433.567134268537 258.3960117372342 L 434.5691382765531 257.90803890749464 L 435.57114228456913 257.4333301940736 L 436.5731462925852 256.97098716311166 L 437.5751503006012 256.5201768925597 L 438.57715430861725 256.08012552724557 L 439.57915831663325 255.6501125472107 L 440.5811623246493 255.22946565677 L 441.5831663326653 254.81755621506048 L 442.5851703406814 254.41379514002503 L 443.5871743486974 254.0176292272011 L 444.58917835671343 253.62853783264768 L 445.59118236472943 253.2460298760961 L 446.5931863727455 252.86964112614584 L 447.5951903807615 252.49893173421805 L 448.59719438877755 252.1334839881523 L 449.59919839679355 251.77290025990868 L 450.6012024048096 251.4168011248985 L 451.6032064128256 251.06482363310295 L 452.6052104208417 250.71661971439895 L 453.60721442885773 250.37185470246357 L 454.60921843687373 250.03020596330387 L 455.6112224448898 249.69136161590762 L 456.61322645290585 249.35501933375141 L 457.61523046092185 249.02088521697402 L 458.6172344689379 248.68867272593678 L 459.6192384769539 248.35810166767487 L 460.62124248496997 248.02889722740417 L 461.62324649298597 247.70078903780475 L 462.62525050100203 247.37351027926073 L 463.62725450901803 247.04679680460904 L 464.6292585170341 246.72038628224158 L 465.6312625250501 246.39401735162204 L 466.63326653306615 246.06742878542522 L 467.63527054108215 245.74035865258364 L 468.6372745490982 245.41254347653754 L 469.6392785571142 245.08371738292766 L 470.64128256513027 244.75361123084645 L 471.64328657314627 244.4219517215689 L 472.6452905811623 244.08846047841737 L 473.6472945891784 243.75285309106815 L 474.64929859719444 243.41483811717552 L 475.65130260521045 243.07411603366842 L 476.6533066132265 242.73037812944423 L 477.6553106212425 242.38330533044598 L 478.65731462925856 242.03256694723632 L 479.65931863727457 241.6778193341653 L 480.6613226452906 241.31870444804179 L 481.6633266533066 240.95484829284183 L 482.6653306613227 240.58585923538516 L 483.6673346693387 240.21132617505424 L 484.66933867735474 239.83081654847064 L 485.67134268537075 239.44387414753695 L 486.6733466933868 239.05001672633122 L 487.6753507014028 238.64873336894075 L 488.67735470941886 238.23948158634715 L 489.67935871743487 237.82168410582887 L 490.6813627254509 237.39472531089348 L 491.683366733467 236.9579472833465 L 492.685370741483 236.51064539154783 L 493.68737474949904 236.05206335998022 L 494.689378757515 235.58138774466738 L 495.69138276553105 235.0977417263932 L 496.6933867735471 234.60017811865168 L 497.6953907815631 234.08767146927482 L 498.6973947895791 233.5591091130764 L 499.69939879759517 233.01328100678617 L 500.7014028056112 232.4488681459861 L 501.7034068136272 231.86442932538276 L 502.7054108216432 231.25838595688103 L 503.7074148296593 230.62900460242815 L 504.70941883767534 229.97437680772293 L 505.71142284569135 229.292395735091 L 506.7134268537074 228.58072898449814 L 507.71543086172346 227.83678685478014 L 508.7174348697395 227.0576851247638 L 509.7194388777555 226.24020121550504 L 510.7214428857715 225.3807223162936 L 511.7234468937876 224.47518369940113 L 512.7254509018037 223.51899498601725 L 513.7274549098197 222.5069515231165 L 514.7294589178357 221.43312723929245 L 515.7314629258517 220.29074429864164 L 516.7334669338677 219.07201346923415 L 517.7354709418837 217.76793722897827 L 518.7374749498997 216.36806504790837 L 519.7394789579158 214.86018672092413 L 520.7414829659319 213.22994464651384 L 521.7434869739479 211.4603389035957 L 522.7454909819639 209.53108887272973 L 523.7474949899799 207.4178004249531 L 524.7494989979959 205.0908658922072 L 525.7515030060121 202.5139911339967 L 526.7535070140281 199.64219338444175 L 527.7555110220442 196.41903390786248 L 528.7575150300602 192.77272106297357 L 529.7595190380762 188.61050657324682 L 530.7615230460922 183.8104341826414 L 531.7635270541082 178.20885652915837 L 532.7655310621243 171.58095154270433 L 533.7675350701403 163.6091859990122 L 534.7695390781563 153.83002751509906 L 535.7715430861724 141.53912848338194 L 536.7735470941884 125.61158846988275 L 537.7755511022044 104.13298866637308 M 548.7975951903809 400 L 549.7995991983969 375.46453914865924 L 550.8016032064129 357.6202867965368 L 551.8036072144289 344.0489438459138 L 552.8056112224449 333.37222943188 L 553.8076152304609 324.74706264815995 L 554.8096192384769 317.6287675855875 L 555.8116232464931 311.6497794776446 L 556.8136272545091 306.55306609353954 L 557.815631262525 302.1534824109273 L 558.8176352705411 298.31427940326444 L 559.8196392785571 294.9322594062743 L 560.8216432865731 291.92807963322895 L 561.8236472945891 289.23973470045314 L 562.8256513026053 286.81806520884345 L 563.8276553106213 284.62359377282854 L 564.8296593186373 282.62425226506093 L 565.8316633266533 280.7937205343609 L 566.8336673346694 279.11019289954777 L 567.8356713426854 277.5554491959963 L 568.8376753507014 276.11414611417166 L 569.8396793587174 274.77327019913474 L 570.8416833667335 273.52171106066226 L 571.8436873747495 272.34992506064725 L 572.8456913827655 271.24966786249047 L 573.8476953907816 270.21377993401455 L 574.8496993987976 269.236013161355 L 575.8517034068136 268.3108896643238 L 576.8537074148296 267.43358604408184 L 577.8557114228456 266.59983787271494 L 578.8577154308617 265.80586041054835 L 579.8597194388778 265.04828242166184 L 580.8617234468938 264.32409062924063 L 581.8637274549098 263.63058286586363 L 582.8657314629259 262.96532836970323 L 583.8677354709419 262.32613398508147 L 584.8697394789579 261.71101526629025 L 585.8717434869739 261.1181716728854 L 586.8737474949901 260.5459651946187 L 587.8757515030061 259.9929018636569 L 588.8777555110221 259.4576157074854 L 589.8797595190381 258.9388547730264 L 590.8817635270541 258.43546891495464 L 591.8837675350701 257.94639909200885 L 592.8857715430861 257.47066795663017 L 593.8877755511022 257.0073715573625 L 594.8897795591183 256.55567200155883 L 595.8917835671343 256.1147909492166 L 596.8937875751503 255.68400382809716 L 597.8957915831663 255.26263467642104 L 598.8977955911824 254.8500515329256 L 599.8997995991984 254.44566230541093 L 600.9018036072144 254.04891105844953 L 601.9038076152304 253.65927466900783 L 602.9058116232466 253.27625980556533 L 603.9078156312626 252.89940019213032 L 604.9098196392786 252.52825412350157 L 605.9118236472946 252.1624022023544 L 606.9138276553107 251.80144527234606 L 607.9158316633267 251.44500252453938 L 608.9178356713427 251.09270975710544 L 609.9198396793587 250.74421777055906 L 610.9218436873748 250.39919088275224 L 611.9238476953908 250.0573055495486 L 612.9258517034068 249.71824907856592 L 613.9278557114228 249.3817184246321 L 614.9298597194389 249.04741905668254 L 615.931863727455 248.71506388675283 L 616.933867735471 248.3843722525133 L 617.935871743487 248.05506894546156 L 618.937875751503 247.72688327745297 L 619.939879759519 247.39954817871632 L 620.941883767535 247.07279932087948 L 621.943887775551 246.74637425883017 L 622.945891783567 246.4200115854581 L 623.947895791583 246.09345009347666 L 624.9498997995993 245.76642793860626 L 625.9519038076153 245.43868179841616 L 626.9539078156313 245.10994602107152 L 627.9559118236473 244.77995175811336 L 628.9579158316633 244.44842607521187 L 629.9599198396794 244.11509103456962 L 630.9619238476954 243.7796627423145 L 631.9639278557114 243.44185035379584 L 632.9659318637275 243.10135502918246 L 633.9679358717435 242.75786883114327 L 634.9699398797595 242.41107355565882 L 635.9719438877755 242.0606394861523 L 636.9739478957915 241.7062240601233 L 637.9759519038076 241.3474704362964 L 638.9779559118236 240.98400594893403 L 639.9799599198396 240.6154404343822 L 640.9819639278558 240.24136441308121 L 641.9839679358718 239.86134710814096 L 642.9859719438878 239.47493427910152 L 643.9879759519038 239.08164584661685 L 644.9899799599198 238.6809732804375 L 645.9919839679359 238.27237671914517 L 646.993987975952 237.8552817855019 L 647.995991983968 237.4290760558937 L 648.997995991984 236.99310513602504 L 650 236.5466682875637"></path><text class="poloto_text" alignment-baseline="middle" text-anchor="start" font-size="large" x="675" y="100" >tan(x)</text><line class="poloto1stroke" stroke="black" x1="680" x2="730" y1="131.25" y2="131.25" /><path class="poloto1stroke" fill="none" stroke="black" d=" M 150 246.66841098825938 L 151.00200400801603 246.01589923543716 L 152.00400801603206 245.3644313622244 L 153.0060120240481 244.71504957824578 L 154.00801603206412 244.0687927558283 L 155.01002004008015 243.4266947680271 L 156.01202404809618 242.789782834649 L 157.01402805611224 242.15907587892016 L 158.01603206412827 241.53558289742602 L 159.0180360721443 240.92030134593236 L 160.02004008016033 240.31421554366838 L 161.02204408817636 239.71829509862636 L 162.0240480961924 239.13349335639543 L 163.02605210420842 238.56074587501212 L 164.02805611222445 238.00096892826704 L 165.03006012024048 237.45505803986222 L 166.0320641282565 236.92388655076442 L 167.03406813627254 236.40830422204556 L 168.03607214428857 235.9091358754466 L 169.0380761523046 235.42718007383854 L 170.04008016032066 234.96320784369217 L 171.0420841683367 234.5179614416003 L 172.04408817635272 234.09215316682543 L 173.04609218436875 233.68646422177292 L 174.04809619238478 233.30154362221253 L 175.0501002004008 232.9380071589915 L 176.05210420841684 232.59643641290072 L 177.05410821643287 232.27737782426934 L 178.0561122244489 231.98134181877705 L 179.05811623246493 231.7088019908816 L 180.06012024048096 231.4601943461689 L 181.06212424849699 231.23591660383698 L 182.06412825651302 231.03632756043032 L 183.06613226452907 230.86174651584153 L 184.0681362725451 230.71245276250002 L 185.07014028056113 230.58868513856353 L 186.07214428857716 230.490641645828 L 187.0741482965932 230.41847913296695 L 188.07615230460922 230.3723130446071 L 189.07815631262525 230.35221723664162 L 190.08016032064128 230.35822385807637 L 191.0821643286573 230.3903232995984 L 192.08416833667334 230.44846420894876 L 193.08617234468937 230.53255357307526 L 194.0881763527054 230.6424568669334 L 195.09018036072143 230.7779982686978 L 196.09218436873746 230.9389609410395 L 197.0941883767535 231.1250873780198 L 198.09619238476955 231.33607981704424 L 199.09819639278558 231.57160071521974 L 200.1002004008016 231.83127328935106 L 201.10220440881764 232.11468211871335 L 202.10420841683367 232.421373809637 L 203.1062124248497 232.75085772084066 L 204.10821643286573 233.10260674835246 L 205.11022044088176 233.47605816876424 L 206.1122244488978 233.8706145394687 L 207.11422845691385 234.28564465444026 L 208.11623246492985 234.72048455402998 L 209.11823647294588 235.17443858715947 L 210.1202404809619 235.646780524214 L 211.12224448897797 236.13675471885523 L 212.124248496994 236.64357731689404 L 213.12625250501003 237.16643751028988 L 214.12825651302606 237.70449883427094 L 215.1302605210421 238.25690050549906 L 216.13226452905812 238.82275879913973 L 217.13426853707415 239.40116846263314 L 218.1362725450902 239.99120416390517 L 219.1382765531062 240.59192197170134 L 220.14028056112227 241.20236086567547 L 221.14228456913827 241.82154427381724 L 222.14428857715433 242.44848163475905 L 223.14629258517033 243.08216998246286 L 224.1482965931864 243.721595550752 L 225.1503006012024 244.3657353951207 L 226.15230460921845 245.0135590292272 L 227.15430861723448 245.66403007345187 L 228.1563126252505 246.31610791288372 L 229.15831663326654 246.9687493620822 L 230.16032064128257 247.62091033395131 L 231.16232464929863 248.27154751005637 L 232.16432865731463 248.91962000971077 L 233.16633266533069 249.56409105516317 L 234.1683366733467 250.20392963022064 L 235.17034068136275 250.83811212965475 L 236.17234468937875 251.46562399675136 L 237.17434869739478 252.0854613463853 L 238.1763527054108 252.696632571022 L 239.17835671342687 253.29815992707833 L 240.18036072144287 253.88908109910352 L 241.18236472945893 254.46845073927884 L 242.18436873747493 255.03534197977228 L 243.18637274549098 255.58884791552936 L 244.18837675350701 256.1280830551279 L 245.19038076152304 256.65218473737514 L 246.19238476953907 257.160314511382 L 247.1943887775551 257.65165947790524 L 248.19639278557116 258.12543358981304 L 249.19839679358716 258.58087890959285 L 250.20040080160322 259.0172668218895 L 251.20240480961922 259.43389919913443 L 252.20440881763528 259.83010951840083 L 253.2064128256513 260.2052639276983 L 254.20841683366734 260.55876226000066 L 255.21042084168337 260.890038993385 L 256.2124248496994 261.1985641557468 L 257.21442885771546 261.4838441726412 L 258.21643286573146 261.74542265689786 L 259.2184368737475 261.98288113874224 L 260.2204408817635 262.1958397352586 L 261.2224448897796 262.38395775812126 L 262.2244488977956 262.54693425862325 L 263.22645290581164 262.6845085091304 L 264.2284569138277 262.7964604201893 L 265.2304609218437 262.88261089262426 L 266.2324649298597 262.942822104057 L 267.23446893787576 262.9769977293937 L 268.23647294589176 262.98508309492416 L 269.2384769539078 262.9670652657884 L 270.2404809619238 262.92297306666944 L 271.2424849699399 262.85287703567997 L 272.24448897795594 262.75688931151655 L 273.24649298597194 262.6351634540616 L 274.248496993988 262.48789419872026 L 275.250501002004 262.3153171448852 L 276.25250501002006 262.1177083790283 L 277.25450901803606 261.8953840330204 L 278.2565130260521 261.64869977838856 L 279.2585170340682 261.37805025731706 L 280.2605210420842 261.08386845130406 L 281.2625250501002 260.7666249884837 L 282.26452905811624 260.4268273907217 L 283.2665330661323 260.065019261688 L 284.2685370741483 259.6817794172075 L 285.2705410821643 259.2777209592779 L 286.2725450901804 258.8534902952373 L 287.2745490981964 258.4097661036505 L 288.2765531062124 257.9472582485679 L 289.2785571142285 257.4667066438946 L 290.28056112224453 256.96888006968584 L 291.28256513026054 256.454574942263 L 292.28456913827654 255.92461404011732 L 293.2865731462926 255.3798451876401 L 294.28857715430865 254.82113989878397 L 295.29058116232466 254.24939198282712 L 296.29258517034066 253.66551611446866 L 297.2945891783567 253.0704463705444 L 298.2965931863728 252.4651347357032 L 299.2985971943888 251.85054957943453 L 300.3006012024048 251.22767410688394 L 301.30260521042084 250.59750478593446 L 302.3046092184369 249.96104975307068 L 303.3066132264529 249.31932720057537 L 304.30861723446895 248.67336374763894 L 305.310621242485 248.02419279798795 L 306.312625250501 247.37285288665944 L 307.314629258517 246.72038601856642 L 308.3166332665331 246.06783600151232 L 309.31863727454913 245.41624677632117 L 310.32064128256513 244.766660746755 L 311.32264529058114 244.12011711189018 L 312.32464929859725 243.4776502036205 L 313.32665330661325 242.84028783194694 L 314.32865731462925 242.20904964070073 L 315.3306613226453 241.5849454763309 L 316.33266533066137 240.9689737723654 L 317.3346693386774 240.36211995213023 L 318.3366733466934 239.7653548522825 L 319.33867735470943 239.17963316967894 L 320.3406813627255 238.60589193406435 L 321.3426853707415 238.0450490090241 L 322.3446893787575 237.49800162359827 L 323.34669338677355 236.96562493690615 L 324.34869739478955 236.44877063807897 L 325.3507014028056 235.9482655837384 L 326.3527054108216 235.46491047520266 L 327.3547094188377 234.99947857753514 L 328.35671342685373 234.55271448248533 L 329.35871743486973 234.12533291730065 L 330.36072144288573 233.71801760131558 L 331.36272545090185 233.3314201521464 L 332.36472945891785 232.966159043242 L 333.36673346693385 232.6228186144584 L 334.36873747494985 232.30194813723972 L 335.37074148296597 232.0040609359007 L 336.37274549098197 231.7296335664176 L 337.37474949899797 231.47910505404022 L 338.37675350701403 231.2528761909452 L 339.3787575150301 231.05130889505375 L 340.3807615230461 230.87472563104072 L 341.38276553106215 230.7234088944594 L 342.38476953907815 230.59760075980913 L 343.3867735470942 230.4975024932677 L 344.3887775551102 230.42327423070842 L 345.39078156312627 230.37503472151687 L 346.3927855711423 230.35286113861721 L 347.3947895791583 230.356788955012 L 348.39679358717433 230.38681188703285 L 349.39879759519044 230.44288190439312 L 350.40080160320645 230.52490930702592 L 351.40280561122245 230.6327628685854 L 352.40480961923845 230.7662700463805 L 353.40681362725456 230.92521725740684 L 354.40881763527057 231.10935022003363 L 355.41082164328657 231.31837436080033 L 356.4128256513026 231.5519552856711 L 357.4148296593186 231.80971931499414 L 358.4168336673347 232.09125408130922 L 359.4188376753507 232.3961091890478 L 360.42084168336675 232.72379693506977 L 361.42284569138275 233.07379308888454 L 362.4248496993988 233.4455377313078 L 363.4268537074148 233.838436150213 L 364.42885771543087 234.2518597919438 L 365.4308617234469 234.6851472668656 L 366.4328657314629 235.13760540744846 L 367.4348697394789 235.6085103771866 L 368.43687374749504 236.09710882858286 L 369.43887775551104 236.60261910834367 L 370.44088176352705 237.124232507858 L 371.44288577154305 237.66111455695815 L 372.44488977955916 238.2124063588943 L 373.44689378757516 238.77722596438593 L 374.4488977955912 239.3546697825528 L 375.4509018036072 239.94381402646715 L 376.4529058116233 240.54371619101627 L 377.4549098196393 241.15341656070905 L 378.45691382765534 241.7719397450165 L 379.45891783567134 242.39829623878833 L 380.4609218436874 243.03148400525012 L 381.4629258517034 243.6704900790483 L 382.46492985971946 244.3142921867789 L 383.4669338677355 244.96186038240663 L 384.4689378757515 245.61215869495905 L 385.4709418837675 246.26414678585886 L 386.4729458917835 246.91678161324415 L 387.47494989979964 247.56901910061234 L 388.47695390781564 248.21981580712028 L 389.47895791583164 248.8681305968667 L 390.4809619238477 249.5129263044879 L 391.48296593186376 250.1531713944007 L 392.48496993987976 250.7878416110395 L 393.48697394789576 251.4159216174469 L 394.4889779559118 252.03640661959588 L 395.4909819639279 252.64830397384605 L 396.4929859719439 253.2506347749617 L 397.4949899799599 253.8424354221515 L 398.496993987976 254.42275916062403 L 399.498997995992 254.99067759619345 L 400.501002004008 255.54528218051237 L 401.503006012024 256.0856856645552 L 402.5050100200401 256.6110235180274 L 403.5070140280561 257.1204553124296 L 404.5090180360721 257.61316606556363 L 405.5110220440881 258.0883675453305 L 406.51302605210424 258.5452995307336 L 407.5150300601203 258.9832310280698 L 408.5170340681363 259.40146144036373 L 409.5190380761523 259.79932168817356 L 410.52104208416836 260.17617527997515 L 411.5230460921844 260.53141933041263 L 412.5250501002004 260.8644855247867 L 413.5270541082164 261.17484102823676 L 414.5290581162325 261.4619893381628 L 415.53106212424854 261.72547107852415 L 416.53306613226454 261.9648647347426 L 417.53507014028054 262.179787328036 L 418.5370741482966 262.369895028103 L 419.53907815631266 262.5348837031775 L 420.54108216432866 262.67448940657516 L 421.5430861723447 262.7884887989514 L 422.5450901803608 262.87669950559706 L 423.5470941883768 262.93898040819886 L 424.54909819639283 262.9752318705984 L 425.55110220440883 262.98539589818915 L 426.5531062124249 262.96945623069513 L 427.55511022044095 262.9274383681841 L 428.55711422845695 262.8594095302726 L 429.55911823647295 262.76547854858944 L 430.561122244489 262.64579569266766 L 431.56312625250507 262.5005524295458 L 432.565130260521 262.32998111746133 L 433.567134268537 262.1343546341268 L 434.5691382765531 261.91398594018426 L 435.57114228456913 261.66922757853456 L 436.5731462925852 261.4004711103439 L 437.5751503006012 261.1081464886298 L 438.57715430861725 260.7927213704277 L 439.57915831663325 260.4547003686397 L 440.5811623246493 260.09462424476123 L 441.5831663326653 259.71306904377855 L 442.5851703406814 259.31064517261893 L 443.5871743486974 258.88799642363045 L 444.58917835671343 258.44579894465124 L 445.59118236472943 257.9847601573173 L 446.5931863727455 257.50561762533846 L 447.5951903807615 257.00913787455454 L 448.59719438877755 256.49611516665664 L 449.59919839679355 255.96737022853833 L 450.6012024048096 255.42374893930773 L 451.6032064128256 254.86612097706134 L 452.6052104208417 254.29537842758432 L 453.60721442885773 253.71243435720405 L 454.60921843687373 253.11822135207828 L 455.6112224448898 252.51369002625657 L 456.61322645290585 251.8998075009004 L 457.61523046092185 251.27755585709576 L 458.6172344689379 250.64793056473277 L 459.6192384769539 250.01193888996633 L 460.62124248496997 249.3705982838051 L 461.62324649298597 248.72493475440686 L 462.62525050100203 248.0759812256844 L 463.62725450901803 247.42477588484775 L 464.6292585170341 246.7723605215258 L 465.6312625250501 246.11977886112533 L 466.63326653306615 245.468074895093 L 467.63527054108215 244.81829121075168 L 468.6372745490982 244.1714673233832 L 469.6392785571142 243.52863801322562 L 470.64128256513027 242.8908316700456 L 471.64328657314627 242.2590686479341 L 472.6452905811623 241.63435963295757 L 473.6472945891784 241.01770402627588 L 474.64929859719444 240.41008834531348 L 475.65130260521045 239.81248464554218 L 476.6533066132265 239.2258489653996 L 477.6553106212425 238.65111979683172 L 478.65731462925856 238.08921658390585 L 479.65931863727457 237.54103825189645 L 480.6613226452906 237.00746176919623 L 481.6633266533066 236.4893407443539 L 482.6653306613227 235.98750406048265 L 483.6673346693387 235.5027545492239 L 484.66933867735474 235.03586770638793 L 485.67134268537075 234.5875904513261 L 486.6733466933868 234.15863993201907 L 487.6753507014028 233.7497023777932 L 488.67735470941886 233.36143200149985 L 489.67935871743487 232.9944499529146 L 490.6813627254509 232.64934332502972 L 491.683366733467 232.32666421483114 L 492.685370741483 232.02692884006055 L 493.68737474949904 231.75061671337744 L 494.689378757515 231.49816987524113 L 495.69138276553105 231.26999218674013 L 496.6933867735471 231.06644868350074 L 497.6953907815631 230.88786499170783 L 498.6973947895791 230.7345268071725 L 499.69939879759517 230.60667943827954 L 500.7014028056112 230.50452741354658 L 501.7034068136272 230.4282341544219 L 502.7054108216432 230.37792171384507 L 503.7074148296593 230.35367058098822 L 504.70941883767534 230.35551955249073 L 505.71142284569135 230.38346567039255 L 506.7134268537074 230.43746422686658 L 507.71543086172346 230.51742883574153 L 508.7174348697395 230.6232315707014 L 509.7194388777555 230.75470316994029 L 510.7214428857715 230.91163330694522 L 511.7234468937876 231.09377092697363 L 512.7254509018037 231.3008246486874 L 513.7274549098197 231.53246323030092 L 514.7294589178357 231.7883160994972 L 515.7314629258517 232.06797394626457 L 516.7334669338677 232.37098937770534 L 517.7354709418837 232.69687763376902 L 518.7374749498997 233.04511736276507 L 519.7394789579158 233.4151514554143 L 520.7414829659319 233.80638793610484 L 521.7434869739479 234.21820090992685 L 522.7454909819639 234.64993156397108 L 523.7474949899799 235.10088922128864 L 524.7494989979959 235.57035244582696 L 525.7515030060121 236.05757019657364 L 526.7535070140281 236.56176302906167 L 527.7555110220442 237.08212434231453 L 528.7575150300602 237.6178216692355 L 529.7595190380762 238.16799800837745 L 530.7615230460922 238.7317731949625 L 531.7635270541082 239.30824530895777 L 532.7655310621243 239.89649211795498 L 533.7675350701403 240.49557255254567 L 534.7695390781563 241.1045282118315 L 535.7715430861724 241.7223848966613 L 536.7735470941884 242.34815416814172 L 537.7755511022044 242.98083492892866 L 538.7775551102204 243.61941502476958 L 539.7795591182364 244.26287286373434 L 540.7815631262525 244.91017905054426 L 541.7835671342685 245.56029803338498 L 542.7855711422847 246.2121897605687 L 543.7875751503007 246.86481134439472 L 544.7895791583167 247.51711872954746 L 545.7915831663327 248.16806836336212 L 546.7935871743487 248.81661886528644 L 547.7955911823648 249.46173269286746 L 548.7975951903809 250.10237780159792 L 549.7995991983969 250.73752929596756 L 550.8016032064129 251.36617106907715 L 551.8036072144289 251.98729742819276 L 552.8056112224449 252.59991470363983 L 553.8076152304609 253.2030428384622 L 554.8096192384769 253.79571695630472 L 555.8116232464931 254.37698890500923 L 556.8136272545091 254.94592877345582 L 557.815631262525 255.5016263792223 L 558.8176352705411 256.04319272468217 L 559.8196392785571 256.56976141921047 L 560.8216432865731 257.0804900652247 L 561.8236472945891 257.5745616058408 L 562.8256513026053 258.0511856319903 L 563.8276553106213 258.5095996469055 L 564.8296593186373 258.9490702859523 L 565.8316633266533 259.36889448985715 L 566.8336673346694 259.76840062945143 L 567.8356713426854 260.1469495801352 L 568.8376753507014 260.5039357443402 L 569.8396793587174 260.8387880203566 L 570.8416833667335 261.15097071597427 L 571.8436873747495 261.4399844054755 L 572.8456913827655 261.7053667286102 L 573.8476953907816 261.94669313027305 L 574.8496993987976 262.1635775397018 L 575.8517034068136 262.3556729881074 L 576.8537074148296 262.5226721637507 L 577.8557114228456 262.66430790357515 L 578.8577154308617 262.7803536206112 L 579.8597194388778 262.8706236664666 L 580.8617234468938 262.93497362832454 L 581.8637274549098 262.97330055997327 L 582.8657314629259 262.9855431464983 L 583.8677354709419 262.9716818023726 L 584.8697394789579 262.93173870279 L 585.8717434869739 262.865777748189 L 586.8737474949901 262.77390446202605 L 587.8757515030061 262.65626582196046 L 588.8777555110221 262.51305002472145 L 589.8797595190381 262.3444861850335 L 590.8817635270541 262.1508439690816 L 591.8837675350701 261.93243316310344 L 592.8857715430861 261.68960317779647 L 593.8877755511022 261.42274248933643 L 594.8897795591183 261.1322780178974 L 595.8917835671343 260.8186744446715 L 596.8937875751503 260.4824334684771 L 597.8957915831663 260.12409300314874 L 598.8977955911824 259.7442263169889 L 599.8997995991984 259.3434411156616 L 600.9018036072144 258.9223785699927 L 601.9038076152304 258.4817122902333 L 602.9058116232466 258.02214724842736 L 603.9078156312626 257.5444186506063 L 604.9098196392786 257.04929076061677 L 605.9118236472946 256.537555677461 L 606.9138276553107 256.0100320681078 L 607.9158316633267 255.46756385779972 L 608.9178356713427 254.91101887995285 L 609.9198396793587 254.34128748780853 L 610.9218436873748 253.7592811300579 L 611.9238476953908 253.16593089271873 L 612.9258517034068 252.5621860095961 L 613.9278557114228 251.9490123437109 L 614.9298597194389 251.32739084212517 L 615.931863727455 250.69831596663602 L 616.933867735471 250.06279410284864 L 617.935871743487 249.42184195017435 L 618.937875751503 248.77648489532825 L 619.939879759519 248.1277553719294 L 620.941883767535 247.47669120882682 L 621.943887775551 246.8243339697952 L 622.945891783567 246.17172728725495 L 623.947895791583 245.5199151926828 L 624.9498997995993 244.8699404463841 L 625.9519038076153 244.22284286929926 L 626.9539078156313 243.57965767951134 L 627.9559118236473 242.94141383611853 L 628.9579158316633 242.3091323931188 L 629.9599198396794 241.68382486594146 L 630.9619238476954 241.06649161323818 L 631.9639278557114 240.45812023652257 L 632.9659318637275 239.85968400021827 L 633.9679358717435 239.272140274644 L 634.9699398797595 238.69642900442452 L 635.9719438877755 238.1334712047804 L 636.9739478957915 237.58416748809978 L 637.9759519038076 237.0493966231508 L 638.9779559118236 236.53001412923908 L 639.9799599198396 236.02685090755915 L 640.9819639278558 235.5407119119299 L 641.9839679358718 235.07237486104026 L 642.9859719438878 234.62258899426504 L 643.9879759519038 234.19207387304195 L 644.9899799599198 233.78151822972657 L 645.9919839679359 233.3915788657676 L 646.993987975952 233.0228796009649 L 647.995991983968 232.6760102754904 L 648.997995991984 232.35152580627002 L 650 232.0499452992349"></path><text class="poloto_text" alignment-baseline="middle" text-anchor="start" font-size="large" x="675" y="150" >sin(2x)</text><line class="poloto2stroke" stroke="black" x1="680" x2="730" y1="181.25" y2="181.25" /><path class="poloto2stroke" fill="none" stroke="black" d=" M 150 214.03412156614112 L 151.00200400801603 214.04064820646653 L 152.00400801603206 214.0602255168736 L 153.0060120240481 214.09284566669922 L 154.00801603206412 214.13849560831838 L 155.01002004008015 214.1971570823631 L 156.01202404809618 214.2688066250259 L 157.01402805611224 214.35341557744505 L 158.01603206412827 214.45095009716763 L 159.0180360721443 214.56137117168623 L 160.02004008016033 214.68463463404333 L 161.02204408817636 214.82069118049742 L 162.0240480961924 214.96948639024404 L 163.02605210420842 215.13096074718314 L 164.02805611222445 215.305049663725 L 165.03006012024048 215.49168350662404 L 166.0320641282565 215.6907876248316 L 167.03406813627254 215.90228237935506 L 168.03607214428857 216.12608317511248 L 169.0380761523046 216.36210049476958 L 170.04008016032066 216.61023993454532 L 171.0420841683367 216.87040224197227 L 172.04408817635272 217.14248335559623 L 173.04609218436875 217.42637444659948 L 174.04809619238478 217.7219619623308 L 175.0501002004008 218.02912767172495 L 176.05210420841684 218.34774871259373 L 177.05410821643287 218.67769764076894 L 178.0561122244489 219.01884248107865 L 179.05811623246493 219.3710467801352 L 180.06012024048096 219.734169660915 L 181.06212424849699 220.1080658791073 L 182.06412825651302 220.4925858812101 L 183.06613226452907 220.88757586434932 L 184.0681362725451 221.29287783779824 L 185.07014028056113 221.70832968617142 L 186.07214428857716 222.13376523426876 L 187.0741482965932 222.56901431354348 L 188.07615230460922 223.01390283016707 L 189.07815631262525 223.46825283466467 L 190.08016032064128 223.93188259309235 L 191.0821643286573 224.4046066597285 L 192.08416833667334 224.88623595124923 L 193.08617234468937 225.37657782235965 L 194.0881763527054 225.8754361428491 L 195.09018036072143 226.38261137604076 L 196.09218436873746 226.8979006586036 L 197.0941883767535 227.421097881695 L 198.09619238476955 227.9519937734016 L 199.09819639278558 228.49037598244524 L 200.1002004008016 229.03602916312065 L 201.10220440881764 229.5887350614308 L 202.10420841683367 230.14827260238576 L 203.1062124248497 230.71441797842942 L 204.10821643286573 231.28694473896002 L 205.11022044088176 231.8656238809068 L 206.1122244488978 232.45022394032867 L 207.11422845691385 233.04051108499644 L 208.11623246492985 233.63624920792256 L 209.11823647294588 234.23720002180102 L 210.1202404809619 234.84312315431876 L 211.12224448897797 235.45377624430168 L 212.124248496994 236.06891503865572 L 213.12625250501003 236.68829349006486 L 214.12825651302606 237.31166385540683 L 215.1302605210421 237.938776794847 L 216.13226452905812 238.56938147157092 L 217.13426853707415 239.20322565211595 L 218.1362725450902 239.8400558072609 L 219.1382765531062 240.47961721343478 L 220.14028056112227 241.1216540546024 L 221.14228456913827 241.76590952458773 L 222.14428857715433 242.4121259297927 L 223.14629258517033 243.06004479227133 L 224.1482965931864 243.70940695311748 L 225.1503006012024 244.3599526761248 L 226.15230460921845 245.01142175167797 L 227.15430861723448 245.66355360083287 L 228.1563126252505 246.31608737954483 L 229.15831663326654 246.96876208300264 L 230.16032064128257 247.62131665002724 L 231.16232464929863 248.27349006749236 L 232.16432865731463 248.92502147472655 L 233.16633266533069 249.5756502678539 L 234.1683366733467 250.22511620403205 L 235.17034068136275 250.873159505546 L 236.17234468937875 251.51952096371562 L 237.17434869739478 252.16394204257566 L 238.1763527054108 252.80616498228676 L 239.17835671342687 253.44593290223582 L 240.18036072144287 254.08298990378512 L 241.18236472945893 254.7170811726279 L 242.18436873747493 255.3479530807111 L 243.18637274549098 255.97535328768302 L 244.18837675350701 256.5990308418261 L 245.19038076152304 257.2187362804342 L 246.19238476953907 257.8342217295946 L 247.1943887775551 258.44524100333393 L 248.19639278557116 259.0515497020896 L 249.19839679358716 259.65290531046594 L 250.20040080160322 260.24906729423776 L 251.20240480961922 260.8397971965602 L 252.20440881763528 261.4248587333486 L 253.2064128256513 262.00401788778896 L 254.20841683366734 262.5770430039415 L 255.21042084168337 263.14370487940016 L 256.2124248496994 263.7037768569699 L 257.21442885771546 264.2570349153274 L 258.21643286573146 264.8032577586259 L 259.2184368737475 265.342226905011 L 260.2204408817635 265.87372677401027 L 261.2224448897796 266.3975447727628 L 262.2244488977956 266.913471381053 L 263.22645290581164 267.42130023511675 L 264.2284569138277 267.9208282101831 L 265.2304609218437 268.4118555017226 L 266.2324649298597 268.89418570536543 L 267.23446893787576 269.36762589546106 L 268.23647294589176 269.831986702246 L 269.2384769539078 270.28708238758895 L 270.2404809619238 270.73273091928354 L 271.2424849699399 271.16875404385905 L 272.24448897795594 271.5949773578792 L 273.24649298597194 272.0112303777013 L 274.248496993988 272.41734660766735 L 275.250501002004 272.81316360670024 L 276.25250501002006 273.1985230532778 L 277.25450901803606 273.5732708087595 L 278.2565130260521 273.9372569790396 L 279.2585170340682 274.2903359745032 L 280.2605210420842 274.6323665682597 L 281.2625250501002 274.96321195263204 L 282.26452905811624 275.2827397938775 L 283.2665330661323 275.5908222851201 L 284.2685370741483 275.887336197471 L 285.2705410821643 276.1721629293186 L 286.2725450901804 276.4451885537679 L 287.2745490981964 276.7063038642094 L 288.2765531062124 276.9554044180004 L 289.2785571142285 277.19239057824075 L 290.28056112224453 277.4171675536261 L 291.28256513026054 277.6296454363632 L 292.28456913827654 277.82973923813205 L 293.2865731462926 278.01736892407973 L 294.28857715430865 278.1924594448337 L 295.29058116232466 278.35494076652003 L 296.29258517034066 278.5047478987765 L 297.2945891783567 278.6418209207476 L 298.2965931863728 278.7661050050521 L 299.2985971943888 278.8775504397135 L 300.3006012024048 278.97611264804374 L 301.30260521042084 279.0617522064737 L 302.3046092184369 279.13443486032185 L 303.3066132264529 279.19413153749565 L 304.30861723446895 279.24081836012033 L 305.310621242485 279.2744766540892 L 306.312625250501 279.2950929565335 L 307.314629258517 279.3026590212071 L 308.3166332665331 279.297171821785 L 309.31863727454913 279.2786335530739 L 310.32064128256513 279.247051630134 L 311.32264529058114 279.20243868531344 L 312.32464929859725 279.14481256319533 L 313.32665330661325 279.07419631346016 L 314.32865731462925 278.99061818166626 L 315.3306613226453 278.894111597952 L 316.33266533066137 278.7847151636642 L 317.3346693386774 278.6624726359179 L 318.3366733466934 278.5274329100943 L 319.33867735470943 278.3796500002833 L 320.3406813627255 278.21918301767835 L 321.3426853707415 278.046096146933 L 322.3446893787575 277.86045862048775 L 323.34669338677355 277.66234469087794 L 324.34869739478955 277.45183360103414 L 325.3507014028056 277.22900955258535 L 326.3527054108216 276.99396167218003 L 327.3547094188377 276.7467839758364 L 328.35671342685373 276.48757533133744 L 329.35871743486973 276.21643941868473 L 330.36072144288573 275.93348468862837 L 331.36272545090185 275.6388243192876 L 332.36472945891785 275.33257617088145 L 333.36673346693385 275.0148627385861 L 334.36873747494985 274.6858111035382 L 335.37074148296597 274.34555288200454 L 336.37274549098197 273.994224172737 L 337.37474949899797 273.631965502535 L 338.37675350701403 273.25892177003664 L 339.3787575150301 272.8752421877609 L 340.3807615230461 272.48108022242513 L 341.38276553106215 272.07659353356 L 342.38476953907815 271.66194391044803 L 343.3867735470942 271.2372972074098 L 344.3887775551102 270.8028232774648 L 345.39078156312627 270.35869590439194 L 346.3927855711423 269.9050927332189 L 347.3947895791583 269.4421951991661 L 348.39679358717433 268.9701884550754 L 349.39879759519044 268.48926129735105 L 350.40080160320645 267.9996060904438 L 351.40280561122245 267.5014186899079 L 352.40480961923845 266.994898364061 L 353.40681362725456 266.48024771428004 L 354.40881763527057 265.95767259396297 L 355.41082164328657 265.42738202619034 L 356.4128256513026 264.8895881201188 L 357.4148296593186 264.34450598614035 L 358.4168336673347 263.7923536498408 L 359.4188376753507 263.23335196479286 L 360.42084168336675 262.6677245242172 L 361.42284569138275 262.0956975715485 L 362.4248496993988 261.5174999099409 L 363.4268537074148 260.9333628107499 L 364.42885771543087 260.34351992102665 L 365.4308617234469 259.74820717006264 L 366.4328657314629 259.1476626750209 L 367.4348697394789 258.5421266456923 L 368.43687374749504 257.9318412884148 L 369.43887775551104 257.3170507091943 L 370.44088176352705 256.69800081606536 L 371.44288577154305 256.0749392207314 L 372.44488977955916 255.4481151395232 L 373.44689378757516 254.8177792937156 L 374.4488977955912 254.18418380924263 L 375.4509018036072 253.54758211585025 L 376.4529058116233 252.90822884572788 L 377.4549098196393 252.26637973165896 L 378.45691382765534 251.6222915047313 L 379.45891783567134 250.9762217916479 L 380.4609218436874 250.32842901167984 L 381.4629258517034 249.67917227330204 L 382.46492985971946 249.02871127055315 L 383.4669338677355 248.3773061791616 L 384.4689378757515 247.72521755247863 L 385.4709418837675 247.07270621726062 L 386.4729458917835 246.42003316934145 L 387.47494989979964 245.76745946923822 L 388.47695390781564 245.11524613773008 L 389.47895791583164 244.46365405145355 L 390.4809619238477 243.81294383855536 L 391.48296593186376 243.16337577444466 L 392.48496993987976 242.51520967768633 L 393.48697394789576 241.86870480607698 L 394.4889779559118 241.2241197529452 L 395.4909819639279 240.581712343718 L 396.4929859719439 239.94173953279372 L 397.4949899799599 239.30445730076391 L 398.496993987976 238.6701205520243 L 399.498997995992 238.03898301281674 L 400.501002004008 237.41129712974185 L 401.503006012024 236.78731396878388 L 402.5050100200401 236.16728311488745 L 403.5070140280561 235.5514525721272 L 404.5090180360721 234.94006866450928 L 405.5110220440881 234.33337593744503 L 406.51302605210424 233.73161705993618 L 407.5150300601203 233.13503272751035 L 408.5170340681363 232.5438615659462 L 409.5190380761523 231.95834003582618 L 410.52104208416836 231.37870233795542 L 411.5230460921844 230.80518031968475 L 412.5250501002004 230.23800338217458 L 413.5270541082164 229.6773983886377 L 414.5290581162325 229.1235895735968 L 415.53106212424854 228.57679845319393 L 416.53306613226454 228.03724373658684 L 417.53507014028054 227.50514123846818 L 418.5370741482966 226.98070379274253 L 419.53907815631266 226.46414116739587 L 420.54108216432866 225.95565998059084 L 421.5430861723447 225.4554636180226 L 422.5450901803608 224.96375215156687 L 423.5470941883768 224.48072225925424 L 424.54909819639283 224.00656714660133 L 425.55110220440883 223.5414764693312 L 426.5531062124249 223.08563625751358 L 427.55511022044095 222.63922884115547 L 428.55711422845695 222.2024327772714 L 429.55911823647295 221.77542277846302 L 430.561122244489 221.3583696430365 L 431.56312625250507 220.9514401866853 L 432.565130260521 220.55479717576642 L 433.567134268537 220.1685992621956 L 434.5691382765531 219.79300091998914 L 435.57114228456913 219.42815238347592 L 436.5731462925852 219.07419958720604 L 437.5751503006012 218.7312841075787 L 438.57715430861725 218.39954310621349 L 439.57915831663325 218.07910927508794 L 440.5811623246493 217.77011078346206 L 441.5831663326653 217.47267122661253 L 442.5851703406814 217.18690957639635 L 443.5871743486974 216.91294013366343 L 444.58917835671343 216.65087248253806 L 445.59118236472943 216.40081144658646 L 446.5931863727455 216.16285704688892 L 447.5951903807615 215.93710446203264 L 448.59719438877755 215.72364399004155 L 449.59919839679355 215.52256101225836 L 450.6012024048096 215.33393595919307 L 451.6032064128256 215.15784427835206 L 452.6052104208417 214.99435640405966 L 453.60721442885773 214.84353772928586 L 454.60921843687373 214.70544857948966 L 455.6112224448898 214.5801441884898 L 456.61322645290585 214.46767467637204 L 457.61523046092185 214.36808502944157 L 458.6172344689379 214.28141508222936 L 459.6192384769539 214.20769950155872 L 460.62124248496997 214.14696777267903 L 461.62324649298597 214.09924418747215 L 462.62525050100203 214.0645478347358 L 463.62725450901803 214.04289259254847 L 464.6292585170341 214.0342871227183 L 465.6312625250501 214.0387348673185 L 466.63326653306615 214.05623404731057 L 467.63527054108215 214.08677766325576 L 468.6372745490982 214.13035349811494 L 469.6392785571142 214.18694412213523 L 470.64128256513027 214.25652689982152 L 471.64328657314627 214.3390739989905 L 472.6452905811623 214.4345524019031 L 473.6472945891784 214.54292391847116 L 474.64929859719444 214.66414520153305 L 475.65130260521045 214.79816776419176 L 476.6533066132265 214.9449379992092 L 477.6553106212425 215.10439720044823 L 478.65731462925856 215.27648158635455 L 479.65931863727457 215.4611223254681 L 480.6613226452906 215.65824556395515 L 481.6633266533066 215.86777245514855 L 482.6653306613227 216.0896191910855 L 483.6673346693387 216.3236970360295 L 484.66933867735474 216.56991236196362 L 485.67134268537075 216.82816668604033 L 486.6733466933868 217.09835670997325 L 487.6753507014028 217.3803743613554 L 488.67735470941886 217.67410683688635 L 489.67935871743487 217.97943664749226 L 490.6813627254509 218.29624166531994 L 491.683366733467 218.62439517258625 L 492.685370741483 218.9637659122636 L 493.68737474949904 219.314218140581 L 494.689378757515 219.67561168131974 L 495.69138276553105 220.0478019818821 L 496.6933867735471 220.43064017111027 L 497.6953907815631 220.82397311883304 L 498.6973947895791 221.22764349711562 L 499.69939879759517 221.64148984318902 L 500.7014028056112 222.06534662403257 L 501.7034068136272 222.49904430258533 L 502.7054108216432 222.94240940555844 L 503.7074148296593 223.39526459282214 L 504.70941883767534 223.85742872833958 L 505.71142284569135 224.32871695261858 L 506.7134268537074 224.80894075665324 L 507.71543086172346 225.29790805732483 L 508.7174348697395 225.79542327423255 L 509.7194388777555 226.30128740792304 L 510.7214428857715 226.81529811948766 L 511.7234468937876 227.33724981149518 L 512.7254509018037 227.86693371022804 L 513.7274549098197 228.40413794918905 L 514.7294589178357 228.94864765384526 L 515.7314629258517 229.50024502757495 L 516.7334669338677 230.05870943878307 L 517.7354709418837 230.6238175091512 L 518.7374749498997 231.19534320298595 L 519.7394789579158 231.77305791762998 L 520.7414829659319 232.3567305749002 L 521.7434869739479 232.94612771351592 L 522.7454909819639 233.5410135824802 L 523.7474949899799 234.14115023537713 L 524.7494989979959 234.74629762554736 L 525.7515030060121 235.3562137021032 L 526.7535070140281 235.97065450674623 L 527.7555110220442 236.58937427134705 L 528.7575150300602 237.2121255162493 L 529.7595190380762 237.83865914925818 L 530.7615230460922 238.4687245652742 L 531.7635270541082 239.10206974653173 L 532.7655310621243 239.73844136340276 L 533.7675350701403 240.37758487572535 L 534.7695390781563 241.01924463461637 L 535.7715430861724 241.66316398472767 L 536.7735470941884 242.30908536690467 L 537.7755511022044 242.9567504212066 L 538.7775551102204 243.6059000902472 L 539.7795591182364 244.2562747228141 L 540.7815631262525 244.9076141777258 L 541.7835671342685 245.55965792788467 L 542.7855711422847 246.21214516448455 L 543.7875751503007 246.8648149013305 L 544.7895791583167 247.51740607922991 L 545.7915831663327 248.16965767041268 L 546.7935871743487 248.82130878293893 L 547.7955911823648 249.4720987650523 L 548.7975951903809 250.12176730943693 L 549.7995991983969 250.77005455733718 L 550.8016032064129 251.41670120249768 L 551.8036072144289 252.06144859488217 L 552.8056112224449 252.70403884413028 L 553.8076152304609 253.3442149227099 L 554.8096192384769 253.98172076872535 L 555.8116232464931 254.61630138833812 L 556.8136272545091 255.24770295776128 L 557.815631262525 255.8756729247856 L 558.8176352705411 256.49996010979726 L 559.8196392785571 257.1203148062459 L 560.8216432865731 257.7364888805241 L 561.8236472945891 258.34823587121787 L 562.8256513026053 258.95531108768745 L 563.8276553106213 259.5574717079403 L 564.8296593186373 260.15447687575715 L 565.8316633266533 260.7460877970308 L 566.8336673346694 261.3320678352809 L 567.8356713426854 261.9121826063049 L 568.8376753507014 262.48620007192926 L 569.8396793587174 263.0538906328212 L 570.8416833667335 263.6150272203256 L 571.8436873747495 264.1693853872889 L 572.8456913827655 264.7167433978358 L 573.8476953907816 265.2568823160601 L 574.8496993987976 265.78958609359637 L 575.8517034068136 266.31464165603603 L 576.8537074148296 266.8318389881548 L 577.8557114228456 267.34097121791575 L 578.8577154308617 267.8418346992153 L 579.8597194388778 268.3342290933391 L 580.8617234468938 268.8179574490945 L 581.8637274549098 269.2928262815889 L 582.8657314629259 269.7586456496209 L 583.8677354709419 270.21522923165395 L 584.8697394789579 270.6623944003431 L 585.8717434869739 271.0999622955829 L 586.8737474949901 271.5277578960495 L 587.8757515030061 271.9456100892064 L 588.8777555110221 272.35335173974784 L 589.8797595190381 272.75081975645 L 590.8817635270541 273.1378551574057 L 591.8837675350701 273.51430313361493 L 592.8857715430861 273.8800131109065 L 593.8877755511022 274.23483881016546 L 594.8897795591183 274.57863830584324 L 595.8917835671343 274.9112740827253 L 596.8937875751503 275.2326130909361 L 597.8957915831663 275.5425267991568 L 598.8977955911824 275.84089124603616 L 599.8997995991984 276.12758708977367 L 600.9018036072144 276.40249965585434 L 601.9038076152304 276.6655189829172 L 602.9058116232466 276.91653986673833 L 603.9078156312626 277.15546190231106 L 604.9098196392786 277.3821895240067 L 605.9118236472946 277.5966320437997 L 606.9138276553107 277.79870368754126 L 607.9158316633267 277.9883236292681 L 608.9178356713427 278.16541602353186 L 609.9198396793587 278.32991003573596 L 610.9218436873748 278.48173987046874 L 611.9238476953908 278.6208447978207 L 612.9258517034068 278.74716917767563 L 613.9278557114228 278.86066248196585 L 614.9298597194389 278.9612793148829 L 615.931863727455 279.04897943103515 L 616.933867735471 279.1237277515454 L 617.935871743487 279.1854943780821 L 618.937875751503 279.23425460481826 L 619.939879759519 279.2699889283133 L 620.941883767535 279.29268305531417 L 621.943887775551 279.3023279084727 L 622.945891783567 279.29891962997624 L 623.947895791583 279.28245958309077 L 624.9498997995993 279.2529543516155 L 625.9519038076153 279.2104157372497 L 626.9539078156313 279.15486075487195 L 627.9559118236473 279.0863116257344 L 628.9579158316633 279.0047957685748 L 629.9599198396794 278.91034578864907 L 630.9619238476954 278.80299946468995 L 631.9639278557114 278.6827997337957 L 632.9659318637275 278.54979467425613 L 633.9679358717435 278.40403748632156 L 634.9699398797595 278.24558647092385 L 635.9719438877755 278.0745050063564 L 636.9739478957915 277.8908615229241 L 637.9759519038076 277.6947294755717 L 638.9779559118236 277.4861873145031 L 639.9799599198396 277.26531845380225 L 640.9819639278558 277.03221123806844 L 641.9839679358718 276.78695890708 L 642.9859719438878 276.52965955849936 L 643.9879759519038 276.2604161086353 L 644.9899799599198 275.9793362512779 L 645.9919839679359 275.6865324146223 L 646.993987975952 275.3821217162994 L 647.995991983968 275.0662259165297 L 648.997995991984 274.73897136942105 L 650 274.4004889724291"></path><text class="poloto_text" alignment-baseline="middle" text-anchor="start" font-size="large" x="675" y="200" >2*cos(x)</text><line class="poloto_axis_lines" stroke="black" x1="150" x2="150" y1="400" y2="405" /><text class="poloto_text" alignment-baseline="start" text-anchor="middle" x="150" y="430" >0</text><line class="poloto_axis_lines" stroke="black" x1="250.20040080160322" x2="250.20040080160322" y1="400" y2="405" /><text class="poloto_text" alignment-baseline="start" text-anchor="middle" x="250.20040080160322" y="430" >2</text><line class="poloto_axis_lines" stroke="black" x1="350.40080160320645" x2="350.40080160320645" y1="400" y2="405" /><text class="poloto_text" alignment-baseline="start" text-anchor="middle" x="350.40080160320645" y="430" >4</text><line class="poloto_axis_lines" stroke="black" x1="450.6012024048096" x2="450.6012024048096" y1="400" y2="405" /><text class="poloto_text" alignment-baseline="start" text-anchor="middle" x="450.6012024048096" y="430" >6</text><line class="poloto_axis_lines" stroke="black" x1="550.8016032064129" x2="550.8016032064129" y1="400" y2="405" /><text class="poloto_text" alignment-baseline="start" text-anchor="middle" x="550.8016032064129" y="430" >8</text><line class="poloto_axis_lines" stroke="black" x1="150" x2="144" y1="328.25413454355504" y2="328.25413454355504" /><text class="poloto_text" alignment-baseline="middle" text-anchor="end" x="135" y="328.25413454355504" >-5</text><line class="poloto_axis_lines" stroke="black" x1="150" x2="144" y1="246.66841098825938" y2="246.66841098825938" /><text class="poloto_text" alignment-baseline="middle" text-anchor="end" x="135" y="246.66841098825938" >0</text><line class="poloto_axis_lines" stroke="black" x1="150" x2="144" y1="165.08268743296378" y2="165.08268743296378" /><text class="poloto_text" alignment-baseline="middle" text-anchor="end" x="135" y="165.08268743296378" >5</text><text class="poloto_text" alignment-baseline="start" text-anchor="middle" font-size="x-large" x="400" y="37.5" >Some Trigonometry Plots </text><text class="poloto_text" alignment-baseline="start" text-anchor="middle" font-size="x-large" x="400" y="481.25" >This is the x label</text><text class="poloto_text" alignment-baseline="start" text-anchor="middle" font-size="x-large" transform="rotate(-90,37.5,250)" x="37.5" y="250" >This is the y label</text><path stroke="black" fill="none" class="poloto_axis_lines" d=" M 150 100 L 150 400 L 650 400"/></svg>
