<svg class="poloto" width="800" height="500" viewBox="0 0 800 500" xmlns="http://www.w3.org/2000/svg"><style>.poloto {
                font-family: "Arial";
                stroke-width:2;
                }
                .poloto_text{fill: black;  }
                .poloto_axis_lines{stroke: black;stoke-width:3;fill:none}
                .poloto_background{fill: aliceblue; }
                .poloto0stroke{stroke:  blue; }
                .poloto1stroke{stroke:  red; }
                .poloto2stroke{stroke:  green; }
                .poloto3stroke{stroke:  gold; }
                .poloto4stroke{stroke:  aqua; }
                .poloto5stroke{stroke:  brown; }
                .poloto6stroke{stroke:  lime; }
                .poloto7stroke{stroke:  chocolate; }
                .poloto0fill{fill:blue;}
                .poloto1fill{fill:red;}
                .poloto2fill{fill:green;}
                .poloto3fill{fill:gold;}
                .poloto4fill{fill:aqua;}
                .poloto5fill{fill:brown;}
                .poloto6fill{fill:lime;}
                .poloto7fill{fill:chocolate;}</style><rect class="poloto_background" fill="white" x="0" y="0" width="800" height="500"/><line class="poloto_axis_lines" stroke="black" x1="150" x2="150" y1="400" y2="405"/><text class="poloto_text" alignment-baseline="start" text-anchor="middle" x="150" y="430">0</text><line class="poloto_axis_lines" stroke="black" x1="252.0408163265306" x2="252.0408163265306" y1="400" y2="405"/><text class="poloto_text" alignment-baseline="start" text-anchor="middle" x="252.0408163265306" y="430">2</text><line class="poloto_axis_lines" stroke="black" x1="354.0816326530612" x2="354.0816326530612" y1="400" y2="405"/><text class="poloto_text" alignment-baseline="start" text-anchor="middle" x="354.0816326530612" y="430">4</text><line class="poloto_axis_lines" stroke="black" x1="456.1224489795918" x2="456.1224489795918" y1="400" y2="405"/><text class="poloto_text" alignment-baseline="start" text-anchor="middle" x="456.1224489795918" y="430">6</text><line class="poloto_axis_lines" stroke="black" x1="558.1632653061224" x2="558.1632653061224" y1="400" y2="405"/><text class="poloto_text" alignment-baseline="start" text-anchor="middle" x="558.1632653061224" y="430">8</text><line class="poloto_axis_lines" stroke="black" x1="150" x2="144" y1="386.4135685486412" y2="386.4135685486412"/><text class="poloto_text" alignment-baseline="middle" text-anchor="end" x="135" y="386.4135685486412">-20</text><line class="poloto_axis_lines" stroke="black" x1="150" x2="144" y1="318.21986175134566" y2="318.21986175134566"/><text class="poloto_text" alignment-baseline="middle" text-anchor="end" x="135" y="318.21986175134566">-15</text><line class="poloto_axis_lines" stroke="black" x1="150" x2="144" y1="250.02615495405018" y2="250.02615495405018"/><text class="poloto_text" alignment-baseline="middle" text-anchor="end" x="135" y="250.02615495405018">-10</text><line class="poloto_axis_lines" stroke="black" x1="150" x2="144" y1="181.8324481567546" y2="181.8324481567546"/><text class="poloto_text" alignment-baseline="middle" text-anchor="end" x="135" y="181.8324481567546">-5</text><line class="poloto_axis_lines" stroke="black" x1="150" x2="144" y1="113.63874135945912" y2="113.63874135945912"/><text class="poloto_text" alignment-baseline="middle" text-anchor="end" x="135" y="113.63874135945912">0</text><text class="poloto_text" alignment-baseline="middle" text-anchor="start" font-size="large" x="675" y="100">cos</text><line class="poloto0stroke" stroke="black" x1="680" x2="730" y1="81.25" y2="81.25"/><polyline class="poloto0stroke" fill="none" stroke="black" points="150,100 160.20408163265307,100.2718667892322 170.40816326530611,101.07662868596742 180.6122448979592,102.38220237295587 190.81632653061223,104.13653874727328 201.0204081632653,106.26969795380421 211.22448979591837,108.69663766655736 221.42857142857144,111.32060345783651 231.6326530612245,114.03698609194618 241.83673469387753,116.73749196530548 252.0408163265306,119.31446043068269 262.2448979591837,121.6651558874575 272.44897959183675,123.69586352581672 282.65306122448976,125.32562544048756 292.8571428571429,126.48946816694308 303.0612244897959,127.14099296839782 313.265306122449,127.25422560702299 323.46938775510205,126.8246518548429 333.67346938775506,125.8693974617587 343.87755102040813,124.42654540594299 354.0816326530612,122.55361764567823 364.2857142857143,120.32528190040085 374.48979591836735,117.83037488435508 384.6938775510204,115.16836066713608 394.89795918367344,112.44536535511293 405.1020408163265,109.76994617846725 415.3061224489796,107.2487636569985 425.51020408163265,104.98232938178626 435.7142857142857,103.06099893523611 445.91836734693874,101.56136969914331 456.1224489795918,100.54322715879704 466.3265306122449,100.04716144434644 476.53061224489795,100.09294913040071 486.734693877551,100.67876480640831 496.9387755102041,101.78125385001499 507.1428571428571,103.35646350215762 517.3469387755101,105.34159512486667 527.5510204081633,107.65750778479003 537.7551020408163,110.21187335246128 547.9591836734694,112.90285733346428 558.1632653061224,115.62317868836732 568.3673469387754,118.26438678922096 578.5714285714286,120.72118500385818 588.7755102040816,122.89562854033659 598.9795918367347,124.70102919671012 609.1836734693877,126.06541134608045 619.3877551020408,126.93438137770897 629.5918367346937,127.2732961986282 639.7959183673469,127.0686443444356 650,126.32858463874157 "/><text class="poloto_text" alignment-baseline="middle" text-anchor="start" font-size="large" x="675" y="150">sin</text><circle class="poloto1fill" cx="685" cy="131.25" r="5"/><g class="poloto1fill"><circle cx="150" cy="113.63874135945912" r="5"/><circle cx="160.20408163265307" cy="110.92914174068846" r="5"/><circle cx="170.40816326530611" cy="108.32756530808211" r="5"/><circle cx="180.6122448979592" cy="105.93772870425892" r="5"/><circle cx="190.81632653061223" cy="103.85490717304788" r="5"/><circle cx="201.0204081632653" cy="102.16213623617489" r="5"/><circle cx="211.22448979591837" cy="100.92690132904545" r="5"/><circle cx="221.42857142857144" cy="100.19844736939768" r="5"/><circle cx="231.6326530612245" cy="100.00581551783335" r="5"/><circle cx="241.83673469387753" cy="100.3566853983894" r="5"/><circle cx="252.0408163265306" cy="101.23706893616196" r="5"/><circle cx="262.2448979591837" cy="102.61186801771095" r="5"/><circle cx="272.44897959183675" cy="104.42627374208433" r="5"/><circle cx="282.65306122448976" cy="106.60795147873978" r="5"/><circle cx="292.8571428571429" cy="109.06992462099907" r="5"/><circle cx="303.0612244897959" cy="111.71404206888576" r="5"/><circle cx="313.265306122449" cy="114.43489120374784" r="5"/><circle cx="323.46938775510205" cy="117.12400035671425" r="5"/><circle cx="333.67346938775506" cy="119.67416323183079" r="5"/><circle cx="343.87755102040813" cy="121.98371288277099" r="5"/><circle cx="354.0816326530612" cy="123.9605748531572" r="5"/><circle cx="364.2857142857143" cy="125.52593789457882" r="5"/><circle cx="374.48979591836735" cy="126.61739592236307" r="5"/><circle cx="384.6938775510204" cy="127.1914359492373" r="5"/><circle cx="394.89795918367344" cy="127.22517281081787" r="5"/><circle cx="405.1020408163265" cy="126.71726152489657" r="5"/><circle cx="415.3061224489796" cy="125.68795091163628" r="5"/><circle cx="425.51020408163265" cy="124.17827633701017" r="5"/><circle cx="435.7142857142857" cy="122.24842376225502" r="5"/><circle cx="445.91836734693874" cy="119.97533031952435" r="5"/><circle cx="456.1224489795918" cy="117.44961707121865" r="5"/><circle cx="466.3265306122449" cy="114.77197623419886" r="5"/><circle cx="476.53061224489795" cy="112.04915689885263" r="5"/><circle cx="486.734693877551" cy="109.3897092797269" r="5"/><circle cx="496.9387755102041" cy="106.89965716102404" r="5"/><circle cx="507.1428571428571" cy="104.67827106290281" r="5"/><circle cx="517.3469387755101" cy="102.8141106391061" r="5"/><circle cx="527.5510204081633" cy="101.3814940830323" r="5"/><circle cx="537.7551020408163" cy="100.43753529588918" r="5"/><circle cx="547.9591836734694" cy="100.01986693568585" r="5"/><circle cx="558.1632653061224" cy="100.14514012191484" r="5"/><circle cx="568.3673469387754" cy="100.80836060796366" r="5"/><circle cx="578.5714285714286" cy="101.98308788596688" r="5"/><circle cx="588.7755102040816" cy="103.62248928641674" r="5"/><circle cx="598.9795918367347" cy="105.6612070489075" r="5"/><circle cx="609.1836734693877" cy="108.01796392979475" r="5"/><circle cx="619.3877551020408" cy="110.59880346941378" r="5"/><circle cx="629.5918367346937" cy="113.3008357396302" r="5"/><circle cx="639.7959183673469" cy="116.01633924058632" r="5"/><circle cx="650" cy="118.63705541696595" r="5"/></g><text class="poloto_text" alignment-baseline="middle" text-anchor="start" font-size="large" x="675" y="200">sin-10</text><rect class="poloto2fill" x="680" y="176.25" width="50" height="7.5" rx="5" ry="5"/><g class="poloto2fill"><rect x="150" y="250.02615495405016" width="27.612244897959187" height="149.97384504594984"/><rect x="180.6122448979592" y="242.32514229884998" width="27.612244897959187" height="157.67485770115002"/><rect x="211.22448979591837" y="237.3143149236365" width="27.612244897959158" height="162.6856850763635"/><rect x="241.83673469387753" y="236.74409899298047" width="27.612244897959215" height="163.25590100701953"/><rect x="272.44897959183675" y="240.81368733667537" width="27.612244897959158" height="159.18631266332463"/><rect x="303.0612244897959" y="248.10145566347686" width="27.612244897959158" height="151.89854433652314"/><rect x="333.67346938775506" y="256.06157682642186" width="27.612244897959215" height="143.93842317357814"/><rect x="364.2857142857143" y="261.9133514891699" width="27.612244897959158" height="138.08664851083012"/><rect x="394.89795918367344" y="263.61258640540893" width="27.612244897959215" height="136.38741359459107"/><rect x="425.51020408163265" y="260.56568993160124" width="27.612244897959158" height="139.43431006839876"/><rect x="456.1224489795918" y="253.83703066580972" width="27.612244897959215" height="146.16296933419028"/><rect x="486.734693877551" y="245.77712287431794" width="27.6122448979591" height="154.22287712568206"/><rect x="517.3469387755101" y="239.20152423369717" width="27.612244897959272" height="160.79847576630283"/><rect x="547.9591836734694" y="236.40728053027686" width="27.612244897959158" height="163.59271946972314"/><rect x="578.5714285714286" y="238.37050148055792" width="27.612244897959158" height="161.62949851944208"/><rect x="609.1836734693877" y="244.40537752438576" width="27.612244897959158" height="155.59462247561424"/></g><text class="poloto_text" alignment-baseline="middle" text-anchor="start" font-size="large" x="675" y="250">sin-20</text><rect class="poloto3fill" x="680" y="226.25" width="50" height="7.5" rx="5" ry="5"/><path class="poloto3fill" d=" M 150 400 L 150 386.4135685486412 L 160.20408163265307 383.7039689298706 L 170.40816326530611 381.1023924972642 L 180.6122448979592 378.71255589344105 L 190.81632653061223 376.62973436223 L 201.0204081632653 374.936963425357 L 211.22448979591837 373.7017285182276 L 221.42857142857144 372.9732745585798 L 231.6326530612245 372.7806427070155 L 241.83673469387753 373.1315125875715 L 252.0408163265306 374.01189612534404 L 262.2448979591837 375.386695206893 L 272.44897959183675 377.2011009312664 L 282.65306122448976 379.3827786679219 L 292.8571428571429 381.8447518101812 L 303.0612244897959 384.4888692580679 L 313.265306122449 387.20971839293 L 323.46938775510205 389.8988275458963 L 333.67346938775506 392.4489904210129 L 343.87755102040813 394.7585400719531 L 354.0816326530612 396.7354020423393 L 364.2857142857143 398.30076508376095 L 374.48979591836735 399.3922231115452 L 384.6938775510204 399.9662631384194 L 394.89795918367344 400 L 405.1020408163265 399.4920887140787 L 415.3061224489796 398.4627781008184 L 425.51020408163265 396.9531035261923 L 435.7142857142857 395.02325095143715 L 445.91836734693874 392.7501575087065 L 456.1224489795918 390.2244442604008 L 466.3265306122449 387.54680342338094 L 476.53061224489795 384.8239840880347 L 486.734693877551 382.16453646890903 L 496.9387755102041 379.6744843502061 L 507.1428571428571 377.45309825208494 L 517.3469387755101 375.58893782828824 L 527.5510204081633 374.1563212722144 L 537.7551020408163 373.2123624850713 L 547.9591836734694 372.794694124868 L 558.1632653061224 372.91996731109697 L 568.3673469387754 373.5831877971458 L 578.5714285714286 374.75791507514896 L 588.7755102040816 376.3973164755988 L 598.9795918367347 378.43603423808963 L 609.1836734693877 380.7927911189768 L 619.3877551020408 383.3736306585959 L 629.5918367346937 386.0756629288123 L 639.7959183673469 388.79116642976845 L 650 391.411882606148 L 650 400Z"/><text class="poloto_text" alignment-baseline="start" text-anchor="middle" font-size="x-large" x="400" y="37.5">test</text><text class="poloto_text" alignment-baseline="start" text-anchor="middle" font-size="x-large" x="400" y="481.25">x</text><text class="poloto_text" alignment-baseline="start" text-anchor="middle" font-size="x-large" transform="rotate(-90,37.5,250)" x="37.5" y="250">y</text><path stroke="black" fill="none" class="poloto_axis_lines" d=" M 150 100 L 150 400 L 650 400"/></svg>