<svg class="poloto" width="800" height="500" viewBox="0 0 800 500" xmlns="http://www.w3.org/2000/svg" ><style>.poloto {stroke-linecap:round;font-family: sans-serif;stroke-width:2;}.scatter{stroke-width:7}.poloto_text{fill: black;}.poloto_axis_lines{stroke: black;stoke-width:3;fill:none}.poloto_background{fill: aliceblue;}.poloto0stroke{stroke:  blue;}.poloto1stroke{stroke:  red;}.poloto2stroke{stroke:  green;}.poloto3stroke{stroke:  gold;}.poloto4stroke{stroke:  aqua;}.poloto5stroke{stroke:  brown;}.poloto6stroke{stroke:  lime;}.poloto7stroke{stroke:  chocolate;}.poloto0fill{fill:blue;}.poloto1fill{fill:red;}.poloto2fill{fill:green;}.poloto3fill{fill:gold;}.poloto4fill{fill:aqua;}.poloto5fill{fill:brown;}.poloto6fill{fill:lime;}.poloto7fill{fill:chocolate;}</style><rect class="poloto_background" fill="white" x="0" y="0" width="800" height="500" /><line class="poloto0stroke" stroke="black" x1="680" x2="730" y1="81.25" y2="81.25" /><path class="poloto0stroke" fill="none" stroke="black" d="" ></path><text class="poloto_text" alignment-baseline="middle" text-anchor="start" font-size="large" x="675" y="100" >cos</text><circle class="poloto1fill" cx="685" cy="131.25" r="5" /><path class="scatter poloto1stroke" d="" /><text class="poloto_text" alignment-baseline="middle" text-anchor="start" font-size="large" x="675" y="150" >sin</text><rect class="poloto2fill" x="680" y="176.25" width="50" height="7.5" rx="5" ry="5" /><g class="poloto2fill" ><rect x="150" y="250.02615691111723" width="27.612242477529037" height="149.97384308888277" /><rect x="180.61224247752904" y="242.32515125961157" width="27.612242477529065" height="157.67484874038843" /><rect x="211.2244849550581" y="237.31431432950424" width="27.61225160068878" height="162.68568567049576" /><rect x="241.83673655574688" y="236.74410407268266" width="27.612233354369323" height="163.25589592731734" /><rect x="272.4489699101162" y="240.8136824100951" width="27.612251600688808" height="159.1863175899049" /><rect x="303.061221510805" y="248.1014582922351" width="27.61225160068875" height="151.8985417077649" /><rect x="333.67347311149376" y="256.0615747475032" width="27.612227272262828" height="143.9384252524968" /><rect x="364.2857003837566" y="261.9133479155331" width="27.612239436475818" height="138.0866520844669" /><rect x="394.8979398202324" y="263.61258462625705" width="27.61226376490174" height="136.38741537374295" /><rect x="425.51020358513415" y="260.56568818516644" width="27.612239436475818" height="139.43431181483356" /><rect x="456.12244302160997" y="253.8370276592101" width="27.612263764901797" height="146.1629723407899" /><rect x="486.73470678651177" y="245.7771221327876" width="27.61223943647576" height="154.2228778672124" /><rect x="517.3469462229875" y="239.20152701211595" width="27.612215108049895" height="160.79847298788405" /><rect x="547.9591613310374" y="236.4072769367842" width="27.61223943647576" height="163.5927230632158" /><rect x="578.5714007675132" y="238.3705020453378" width="27.61226376490174" height="161.6294979546622" /><rect x="609.1836645324149" y="244.40537359118824" width="27.612215108049895" height="155.59462640881176" /></g><text class="poloto_text" alignment-baseline="middle" text-anchor="start" font-size="large" x="675" y="200" >sin-10</text><rect class="poloto3fill" x="680" y="226.25" width="50" height="7.5" rx="5" ry="5" /><path class="poloto3fill" d="" ></path><text class="poloto_text" alignment-baseline="middle" text-anchor="start" font-size="large" x="675" y="250" >sin-20</text><line class="poloto_axis_lines" stroke="black" x1="150" x2="150" y1="400" y2="405" /><text class="poloto_text" alignment-baseline="start" text-anchor="middle" x="150" y="430" >0</text><line class="poloto_axis_lines" stroke="black" x1="252.04081434053666" x2="252.04081434053666" y1="400" y2="405" /><text class="poloto_text" alignment-baseline="start" text-anchor="middle" x="252.04081434053666" y="430" >2</text><line class="poloto_axis_lines" stroke="black" x1="354.0816286810733" x2="354.0816286810733" y1="400" y2="405" /><text class="poloto_text" alignment-baseline="start" text-anchor="middle" x="354.0816286810733" y="430" >4</text><line class="poloto_axis_lines" stroke="black" x1="456.12244302160997" x2="456.12244302160997" y1="400" y2="405" /><text class="poloto_text" alignment-baseline="start" text-anchor="middle" x="456.12244302160997" y="430" >6</text><line class="poloto_axis_lines" stroke="black" x1="558.1632573621466" x2="558.1632573621466" y1="400" y2="405" /><text class="poloto_text" alignment-baseline="start" text-anchor="middle" x="558.1632573621466" y="430" >8</text><line class="poloto_axis_lines" stroke="black" x1="150" x2="144" y1="386.41357228486015" y2="386.41357228486015" /><text class="poloto_text" alignment-baseline="middle" text-anchor="end" x="135" y="386.41357228486015" >-20</text><line class="poloto_axis_lines" stroke="black" x1="150" x2="144" y1="318.2198645979887" y2="318.2198645979887" /><text class="poloto_text" alignment-baseline="middle" text-anchor="end" x="135" y="318.2198645979887" >-15</text><line class="poloto_axis_lines" stroke="black" x1="150" x2="144" y1="250.02615691111725" y2="250.02615691111725" /><text class="poloto_text" alignment-baseline="middle" text-anchor="end" x="135" y="250.02615691111725" >-10</text><line class="poloto_axis_lines" stroke="black" x1="150" x2="144" y1="181.83244922424575" y2="181.83244922424575" /><text class="poloto_text" alignment-baseline="middle" text-anchor="end" x="135" y="181.83244922424575" >-5</text><line class="poloto_axis_lines" stroke="black" x1="150" x2="144" y1="113.6387415373743" y2="113.6387415373743" /><text class="poloto_text" alignment-baseline="middle" text-anchor="end" x="135" y="113.6387415373743" >0</text><text class="poloto_text" alignment-baseline="start" text-anchor="middle" font-size="x-large" x="400" y="37.5" >test</text><text class="poloto_text" alignment-baseline="start" text-anchor="middle" font-size="x-large" x="400" y="481.25" >x</text><text class="poloto_text" alignment-baseline="start" text-anchor="middle" font-size="x-large" transform="rotate(-90,37.5,250)" x="37.5" y="250" >y</text><path stroke="black" fill="none" class="poloto_axis_lines" d=" M 150 100 L 150 400 L 650 400" /></svg>